<?xml version="1.0" encoding="UTF-8" standalone="no"?>
<!-- Created with Inkscape (http://www.inkscape.org/) -->

<svg
   width="29.130243mm"
   height="67.513123mm"
   viewBox="0 0 29.130243 67.513123"
   version="1.1"
   id="svg7788"
   inkscape:version="1.2.1 (9c6d41e410, 2022-07-14)"
   sodipodi:docname="kalama insa ike.svg"
   xmlns:inkscape="http://www.inkscape.org/namespaces/inkscape"
   xmlns:sodipodi="http://sodipodi.sourceforge.net/DTD/sodipodi-0.dtd"
   xmlns="http://www.w3.org/2000/svg"
   xmlns:svg="http://www.w3.org/2000/svg">
  <sodipodi:namedview
     id="namedview7790"
     pagecolor="#ffffff"
     bordercolor="#000000"
     borderopacity="0.25"
     inkscape:showpageshadow="2"
     inkscape:pageopacity="0.0"
     inkscape:pagecheckerboard="0"
     inkscape:deskcolor="#d1d1d1"
     inkscape:document-units="mm"
     showgrid="false"
     inkscape:zoom="0.2102413"
     inkscape:cx="-1341.3159"
     inkscape:cy="-47.564393"
     inkscape:window-width="1536"
     inkscape:window-height="953"
     inkscape:window-x="-8"
     inkscape:window-y="-8"
     inkscape:window-maximized="1"
     inkscape:current-layer="layer1" />
  <defs
     id="defs7785">
    <clipPath
       clipPathUnits="userSpaceOnUse"
       id="clipPath3902">
      <path
         d="M 229.479,26.122 H 369.812 V 264.586 H 229.479 Z"
         id="path3900" />
    </clipPath>
  </defs>
  <g
     inkscape:label="Camada 1"
     inkscape:groupmode="layer"
     id="layer1"
     transform="translate(-428.41793,-161.307)">
    <g
       id="g3896"
       transform="matrix(0.35277777,0,0,-0.35277777,336.55979,249.59917)">
      <g
         id="g3898"
         clip-path="url(#clipPath3902)">
        <g
           id="g3904"
           transform="translate(277.7961,74.1948)">
          <path
             d="m 0,0 c 2.57,-1.503 5.818,-2.812 9.77,-3.636 3.951,-0.824 8.606,-1.164 13.019,-0.926 4.413,0.238 8.678,1.071 12.726,2.889 4.049,1.819 7.927,4.631 9.115,8.922 1.188,4.29 -0.315,10.06 -9.091,12.775 C 26.763,22.74 10.715,22.4 2.521,19.37 -5.673,16.339 -6.012,10.618 -5.237,6.909 -4.461,3.2 -2.57,1.503 0,0"
             style="fill:#0e182f;fill-opacity:1;fill-rule:evenodd;stroke:none"
             id="path3906" />
        </g>
        <g
           id="g3908"
           transform="translate(277.7961,74.1948)">
          <path
             d="m 0,0 c 2.57,-1.503 5.818,-2.812 9.77,-3.636 3.951,-0.824 8.606,-1.164 13.019,-0.926 4.413,0.238 8.678,1.071 12.726,2.889 4.049,1.819 7.927,4.631 9.115,8.922 1.188,4.29 -0.315,10.06 -9.091,12.775 C 26.763,22.74 10.715,22.4 2.521,19.37 -5.673,16.339 -6.012,10.618 -5.237,6.909 -4.461,3.2 -2.57,1.503 0,0 Z"
             style="fill:none;stroke:#000000;stroke-width:1.384;stroke-linecap:round;stroke-linejoin:miter;stroke-miterlimit:6.9;stroke-dasharray:none;stroke-opacity:1"
             id="path3910" />
        </g>
        <g
           id="g3912"
           transform="translate(307.3951,180.2067)">
          <path
             d="m 0,0 c 1.695,2.034 2.866,3.76 2.866,4.992 0,1.233 -1.171,1.973 -2.357,2.928 -1.187,0.955 -2.389,2.126 -2.618,4.096 -0.229,1.97 0.516,4.738 1.597,6.196 1.081,1.459 2.5,1.608 3.73,2.525 1.229,0.918 2.271,2.605 1.631,4.053 -0.64,1.449 -2.961,2.659 -4.678,1.938 -1.718,-0.72 -2.831,-3.372 -4.416,-4.319 -1.584,-0.947 -3.639,-0.189 -6.282,0.927 -2.643,1.116 -5.873,2.59 -7.874,3.77 -2.002,1.18 -2.774,2.066 -4.301,2.868 -1.527,0.801 -3.808,1.518 -5.566,2.732 -1.757,1.214 -2.99,2.926 -4.416,4.607 -1.425,1.682 -3.041,3.332 -3.376,5.464 -0.334,2.131 0.613,4.745 0.483,7.147 -0.13,2.402 -1.337,4.591 -0.462,7.104 0.875,2.512 3.834,5.348 6.722,7.627 2.889,2.28 5.706,4.004 11.142,4.557 5.436,0.553 13.49,-0.066 17.307,-5.198 3.816,-5.133 3.396,-14.779 4.185,-19.277 0.79,-4.497 2.789,-3.846 5.964,-4.245 3.175,-0.398 7.524,-1.847 9.574,-4.48 2.049,-2.633 1.799,-6.45 0.667,-8.705 -1.131,-2.255 -3.143,-2.948 -3.498,-4.691 -0.354,-1.744 0.948,-4.537 1.446,-7.074 0.497,-2.537 0.189,-4.817 -0.952,-5.988 C 15.378,8.383 13.406,8.321 12.42,7.211 11.433,6.102 11.433,3.945 11.957,2.28 c 0.524,-1.664 1.572,-2.835 1.11,-3.79 -0.462,-0.955 -2.435,-1.695 -2.928,-2.835 -0.493,-1.141 0.493,-2.682 1.849,-3.421 1.356,-0.74 3.082,-0.678 4.346,-1.479 1.263,-0.802 2.064,-2.466 3.02,-4.808 0.955,-2.342 2.065,-5.363 2.095,-7.335 0.031,-1.972 -1.017,-2.897 -4.129,-2.866 -3.113,0.031 -8.29,1.017 -12.358,2.435 -4.068,1.417 -7.027,3.266 -8.691,5.855 -1.664,2.589 -2.034,5.917 -1.109,8.753 C -3.914,-4.376 -1.695,-2.034 0,0 Z"
             style="fill:#0b0a16;fill-opacity:1;fill-rule:evenodd;stroke:#000000;stroke-width:1.384;stroke-linecap:round;stroke-linejoin:miter;stroke-miterlimit:6.9;stroke-dasharray:none;stroke-opacity:1"
             id="path3914" />
        </g>
        <g
           id="g3916"
           transform="translate(267.6188,149.9123)">
          <path
             d="m 0,0 c 0.131,0.915 0.392,2.746 1.024,4.489 0.632,1.743 1.635,3.4 2.615,4.925 0.981,1.525 1.94,2.92 2.899,3.683 0.958,0.763 1.917,0.893 2.549,1.155 0.632,0.261 0.937,0.653 1.528,0.704 0.59,0.05 1.545,-0.268 2.286,-0.029 0.741,0.24 1.307,1.024 1.983,1.396 0.676,0.372 1.547,0.326 5.6,0.587 4.054,0.262 11.332,0.828 16.017,1.112 4.685,0.283 6.864,0.283 8.444,0.261 1.58,-0.022 2.604,-0.065 3.716,-0.098 1.111,-0.032 2.353,-0.054 3.552,-0.708 1.198,-0.654 2.375,-1.94 3.062,-2.855 0.686,-0.915 0.882,-1.46 1.361,-1.95 0.48,-0.491 1.243,-0.926 1.613,-1.319 0.37,-0.392 0.349,-0.741 0.556,-1.242 0.207,-0.501 0.643,-1.155 0.817,-1.819 0.174,-0.665 0.087,-1.341 0.359,-2.081 0.273,-0.741 0.905,-1.548 1.367,-2.547 0.463,-1 0.756,-2.193 1.18,-3.144 0.424,-0.951 0.978,-1.66 1.333,-2.615 0.354,-0.956 0.508,-2.158 0.585,-3.853 0.077,-1.695 0.077,-3.883 -0.077,-5.547 -0.154,-1.664 -0.462,-2.804 -0.385,-4.13 0.077,-1.325 0.539,-2.835 0.277,-4.314 -0.262,-1.479 -1.248,-2.928 -2.034,-3.667 -0.786,-0.74 -1.371,-0.771 -4.823,-0.355 -3.451,0.416 -9.769,1.279 -15.871,1.865 -6.102,0.585 -11.988,0.894 -18.29,1.726 -6.303,0.832 -13.021,2.188 -16.904,4.823 -3.883,2.635 -4.931,6.548 -5.537,9.2 C 0.196,-3.695 0.033,-2.305 -0.049,-1.61 -0.131,-0.915 -0.131,-0.915 0,0 Z"
             style="fill:#b6b6b6;fill-opacity:1;fill-rule:evenodd;stroke:#000000;stroke-width:1.384;stroke-linecap:round;stroke-linejoin:miter;stroke-miterlimit:6.9;stroke-dasharray:none;stroke-opacity:1"
             id="path3918" />
        </g>
        <g
           id="g3920"
           transform="translate(293.7142,177.1735)">
          <path
             d="M 0,0 C 0.403,0.959 1.079,2.179 2.212,3.356 3.345,4.533 4.936,5.666 6.57,5.993 8.205,6.32 9.883,5.84 11.626,4.707 c 1.743,-1.133 3.552,-2.92 4.849,-5.241 1.296,-2.321 2.081,-5.176 2.56,-7.932 0.479,-2.757 0.654,-5.415 -2.386,-6.45 -3.04,-1.035 -9.294,-0.447 -12.715,1.917 -3.422,2.365 -4.01,6.505 -4.239,8.924 C -0.534,-1.656 -0.403,-0.959 0,0"
             style="fill:#111111;fill-opacity:1;fill-rule:evenodd;stroke:none"
             id="path3922" />
        </g>
        <g
           id="g3924"
           transform="translate(293.7142,177.1735)">
          <path
             d="M 0,0 C 0.403,0.959 1.079,2.179 2.212,3.356 3.345,4.533 4.936,5.666 6.57,5.993 8.205,6.32 9.883,5.84 11.626,4.707 c 1.743,-1.133 3.552,-2.92 4.849,-5.241 1.296,-2.321 2.081,-5.176 2.56,-7.932 0.479,-2.757 0.654,-5.415 -2.386,-6.45 -3.04,-1.035 -9.294,-0.447 -12.715,1.917 -3.422,2.365 -4.01,6.505 -4.239,8.924 C -0.534,-1.656 -0.403,-0.959 0,0 Z"
             style="fill:none;stroke:#000000;stroke-width:1.384;stroke-linecap:round;stroke-linejoin:miter;stroke-miterlimit:6.9;stroke-dasharray:none;stroke-opacity:1"
             id="path3926" />
        </g>
        <g
           id="g3928"
           transform="translate(297.1483,143.3022)">
          <path
             d="m 0,0 c -2.08,0.108 -4.114,0.354 -6.018,1.487 -1.904,1.133 -3.705,3.182 -4.952,5.195 -1.246,2.014 -1.958,4.027 -2.282,6.338 -0.324,2.312 -0.262,4.931 0.231,7.613 0.493,2.681 1.418,5.423 2.435,7.55 1.017,2.126 2.126,3.637 3.452,4.515 1.325,0.878 2.866,1.125 4.175,1.356 1.31,0.231 2.389,0.447 3.159,0.878 0.771,0.432 1.233,1.079 0.971,1.726 -0.262,0.647 -1.248,1.294 -1.883,1.799 -0.635,0.505 -0.92,0.868 -1.204,1.231 1.055,0.1 2.109,0.199 2.56,0.742 0.45,0.542 0.296,1.528 0.28,2.268 -0.015,0.74 0.108,1.233 0.231,1.726 0.309,-0.74 0.617,-1.479 1.079,-1.032 0.462,0.446 1.079,2.08 1.695,3.713 0.062,-1.017 0.123,-2.034 0.694,-2.481 0.57,-0.446 1.648,-0.323 2.727,-0.2 C 7.165,43.53 6.98,42.637 7.165,42.19 7.35,41.743 7.905,41.743 8.459,41.743 7.751,40.479 7.042,39.216 6.749,38.23 6.456,37.243 6.579,36.534 7.011,35.826 7.443,35.117 8.182,34.408 9.03,33.823 c 0.847,-0.586 1.803,-1.048 2.85,-2.096 1.048,-1.048 2.188,-2.681 2.974,-4.392 0.786,-1.71 1.217,-3.498 1.526,-5.716 0.308,-2.219 0.493,-4.87 0.246,-7.243 C 16.379,12.003 15.702,9.908 14.9,8.228 14.099,6.549 13.174,5.285 11.726,3.975 10.278,2.666 8.305,1.31 6.256,0.616 4.207,-0.077 2.08,-0.108 0,0 Z"
             style="fill:#222222;fill-opacity:1;fill-rule:evenodd;stroke:#000000;stroke-width:1.384;stroke-linecap:round;stroke-linejoin:miter;stroke-miterlimit:6.9;stroke-dasharray:none;stroke-opacity:1"
             id="path3930" />
        </g>
        <g
           id="g3932"
           transform="translate(309.7206,67.6273)">
          <path
             d="m 0,0 c 3.857,0 8.172,0.349 11.767,1.83 3.596,1.482 6.473,4.097 8.368,7.344 1.896,3.247 2.812,7.126 1.918,13.032 -0.893,5.905 -3.595,13.837 -6.254,23.36 -2.658,9.523 -5.273,20.636 -7.845,27.37 -2.571,6.734 -5.099,9.087 -7.518,9.85 -2.419,0.763 -4.728,-0.065 -6.995,-1.002 -2.267,-0.937 -4.489,-1.983 -5.23,-8.848 -0.741,-6.864 0,-19.547 0.283,-30.03 0.283,-10.482 0.109,-18.761 0.175,-25.429 0.065,-6.669 0.37,-11.724 2.222,-14.426 C -7.256,0.349 -3.857,0 0,0"
             style="fill:#192c57;fill-opacity:1;fill-rule:evenodd;stroke:none"
             id="path3934" />
        </g>
        <g
           id="g3936"
           transform="translate(309.7206,67.6273)">
          <path
             d="m 0,0 c 3.857,0 8.172,0.349 11.767,1.83 3.596,1.482 6.473,4.097 8.368,7.344 1.896,3.247 2.812,7.126 1.918,13.032 -0.893,5.905 -3.595,13.837 -6.254,23.36 -2.658,9.523 -5.273,20.636 -7.845,27.37 -2.571,6.734 -5.099,9.087 -7.518,9.85 -2.419,0.763 -4.728,-0.065 -6.995,-1.002 -2.267,-0.937 -4.489,-1.983 -5.23,-8.848 -0.741,-6.864 0,-19.547 0.283,-30.03 0.283,-10.482 0.109,-18.761 0.175,-25.429 0.065,-6.669 0.37,-11.724 2.222,-14.426 C -7.256,0.349 -3.857,0 0,0 Z"
             style="fill:none;stroke:#000000;stroke-width:1.384;stroke-linecap:round;stroke-linejoin:miter;stroke-miterlimit:6.9;stroke-dasharray:none;stroke-opacity:1"
             id="path3938" />
        </g>
        <g
           id="g3940"
           transform="translate(286.3815,68.5425)">
          <path
             d="m 0,0 c -3.857,0 -8.172,0.349 -11.767,1.83 -3.596,1.482 -6.473,4.097 -8.368,7.344 -1.896,3.247 -2.812,7.126 -1.918,13.032 0.893,5.905 3.595,13.837 6.058,23.404 2.462,9.566 4.685,20.767 6.951,27.261 2.267,6.494 4.577,8.281 7.17,8.869 2.593,0.589 5.47,-0.022 7.649,-1.264 2.179,-1.242 3.661,-3.116 4.423,-9.85 C 10.961,63.893 11.005,52.3 11.114,42.362 11.223,32.424 11.397,24.145 11.331,17.477 11.266,10.808 10.961,5.753 9.109,3.051 7.257,0.349 3.857,0 0,0 Z"
             style="fill:#192c57;fill-opacity:1;fill-rule:evenodd;stroke:#000000;stroke-width:1.384;stroke-linecap:round;stroke-linejoin:miter;stroke-miterlimit:6.9;stroke-dasharray:none;stroke-opacity:1"
             id="path3942" />
        </g>
        <g
           id="g3944"
           transform="translate(281.4916,63.7512)">
          <path
             d="m 0,0 c -2.585,1.958 -0.875,3.891 0.261,5.508 1.136,1.618 1.699,2.92 2.451,4.461 0.752,1.54 1.694,3.318 1.888,5.516 0.193,2.199 -0.362,4.818 -1.194,8.054 -0.832,3.236 -1.941,7.088 -2.234,10.278 -0.293,3.19 0.231,5.717 1.788,7.381 1.556,1.664 4.145,2.465 6.055,2.296 1.911,-0.17 3.144,-1.31 4.053,-2.851 0.909,-1.541 1.495,-3.482 1.556,-6.687 0.062,-3.206 -0.401,-7.674 -0.447,-10.663 -0.046,-2.99 0.324,-4.5 0.403,-7.312 C 14.659,13.168 14.448,9.054 14.921,6.5 15.394,3.946 16.551,2.954 16.902,1.143 17.253,-0.669 16.798,-3.297 13.131,-3.62 9.464,-3.942 2.585,-1.958 0,0"
             style="fill:#3e2d27;fill-opacity:1;fill-rule:evenodd;stroke:none"
             id="path3946" />
        </g>
        <g
           id="g3948"
           transform="translate(281.4916,63.7512)">
          <path
             d="m 0,0 c -2.585,1.958 -0.875,3.891 0.261,5.508 1.136,1.618 1.699,2.92 2.451,4.461 0.752,1.54 1.694,3.318 1.888,5.516 0.193,2.199 -0.362,4.818 -1.194,8.054 -0.832,3.236 -1.941,7.088 -2.234,10.278 -0.293,3.19 0.231,5.717 1.788,7.381 1.556,1.664 4.145,2.465 6.055,2.296 1.911,-0.17 3.144,-1.31 4.053,-2.851 0.909,-1.541 1.495,-3.482 1.556,-6.687 0.062,-3.206 -0.401,-7.674 -0.447,-10.663 -0.046,-2.99 0.324,-4.5 0.403,-7.312 C 14.659,13.168 14.448,9.054 14.921,6.5 15.394,3.946 16.551,2.954 16.902,1.143 17.253,-0.669 16.798,-3.297 13.131,-3.62 9.464,-3.942 2.585,-1.958 0,0 Z"
             style="fill:none;stroke:#000000;stroke-width:1.384;stroke-linecap:round;stroke-linejoin:miter;stroke-miterlimit:6.9;stroke-dasharray:none;stroke-opacity:1"
             id="path3950" />
        </g>
        <g
           id="g3952"
           transform="translate(294.5751,146.3602)">
          <path
             d="m 0,0 c -0.806,1.329 -1.983,2.637 -3.537,3.478 -1.555,0.84 -3.487,1.213 -5.231,1.038 -1.743,-0.174 -3.297,-0.896 -4.903,-3.283 -1.605,-2.388 -3.261,-6.441 -3.98,-11.279 -0.719,-4.838 -0.459,-11.559 0.195,-16.651 0.655,-5.092 2.338,-13.503 3.221,-17.338 0.882,-3.836 1.239,-4.47 1.596,-5.105 0.196,1.308 0.392,2.615 1.493,3.726 1.1,1.112 3.105,2.027 4.892,2.397 1.787,0.371 3.356,0.197 4.663,-0.435 1.308,-0.633 2.354,-1.722 2.92,-2.877 0.567,-1.155 0.654,-2.375 0.741,-3.595 0.436,1.699 0.872,3.399 0.806,11.048 C 2.811,-31.227 2.244,-17.63 1.743,-10.155 1.242,-2.68 0.806,-1.329 0,0 Z"
             style="fill:#2e3f66;fill-opacity:1;fill-rule:evenodd;stroke:#000000;stroke-width:1.384;stroke-linecap:round;stroke-linejoin:miter;stroke-miterlimit:6.9;stroke-dasharray:none;stroke-opacity:1"
             id="path3954" />
        </g>
        <g
           id="g3956"
           transform="translate(313.743,62.3694)">
          <path
             d="m 0,0 c 2.68,1.69 1.788,3.551 0.945,5.249 -0.844,1.697 -1.639,3.23 -2.486,5.038 -0.847,1.808 -1.745,3.891 -1.917,6.242 -0.172,2.352 0.383,4.971 1.369,8.207 0.987,3.236 2.404,7.088 2.697,10.278 0.293,3.19 -0.539,5.717 -2.25,7.381 -1.71,1.664 -4.299,2.465 -6.21,2.296 -1.91,-0.17 -3.143,-1.31 -4.052,-2.851 -0.909,-1.541 -1.495,-3.482 -1.556,-6.688 -0.062,-3.205 0.4,-7.673 0.385,-10.586 -0.016,-2.912 -0.509,-4.268 -0.479,-7.298 0.03,-3.03 0.582,-7.734 0.371,-10.366 -0.211,-2.631 -1.185,-3.187 -1.645,-4.78 -0.46,-1.594 -0.406,-4.222 2.746,-4.777 C -8.929,-3.21 -2.68,-1.69 0,0"
             style="fill:#3e2d27;fill-opacity:1;fill-rule:evenodd;stroke:none"
             id="path3958" />
        </g>
        <g
           id="g3960"
           transform="translate(313.743,62.3694)">
          <path
             d="m 0,0 c 2.68,1.69 1.788,3.551 0.945,5.249 -0.844,1.697 -1.639,3.23 -2.486,5.038 -0.847,1.808 -1.745,3.891 -1.917,6.242 -0.172,2.352 0.383,4.971 1.369,8.207 0.987,3.236 2.404,7.088 2.697,10.278 0.293,3.19 -0.539,5.717 -2.25,7.381 -1.71,1.664 -4.299,2.465 -6.21,2.296 -1.91,-0.17 -3.143,-1.31 -4.052,-2.851 -0.909,-1.541 -1.495,-3.482 -1.556,-6.688 -0.062,-3.205 0.4,-7.673 0.385,-10.586 -0.016,-2.912 -0.509,-4.268 -0.479,-7.298 0.03,-3.03 0.582,-7.734 0.371,-10.366 -0.211,-2.631 -1.185,-3.187 -1.645,-4.78 -0.46,-1.594 -0.406,-4.222 2.746,-4.777 C -8.929,-3.21 -2.68,-1.69 0,0 Z"
             style="fill:none;stroke:#000000;stroke-width:1.384;stroke-linecap:round;stroke-linejoin:miter;stroke-miterlimit:6.9;stroke-dasharray:none;stroke-opacity:1"
             id="path3962" />
        </g>
        <g
           id="g3964"
           transform="translate(297.8415,139.4035)">
          <path
             d="m 0,0 c 0.185,2.065 0.462,3.976 0.895,5.61 0.432,1.635 1.02,2.993 2.669,4.103 1.649,1.11 4.358,1.97 6.638,1.877 2.28,-0.094 4.129,-1.142 5.731,-3.207 1.603,-2.065 2.959,-5.147 3.929,-8.337 0.971,-3.19 1.557,-6.487 1.543,-11.279 -0.014,-4.793 -0.634,-11.141 -1.127,-15.116 -0.493,-3.976 -0.863,-5.609 -1.171,-7.782 -0.308,-2.173 -0.555,-4.885 -0.832,-6.302 -0.277,-1.418 -0.585,-1.541 -0.894,-1.664 0,0.709 0,1.417 -0.601,2.45 -0.6,1.032 -1.802,2.388 -2.588,3.266 -0.786,0.879 -1.156,1.279 -2.419,1.233 -1.264,-0.046 -3.421,-0.539 -4.962,-1.063 -1.541,-0.524 -2.466,-1.079 -3.113,-1.911 -0.647,-0.832 -1.017,-1.941 -1.233,-2.758 -0.215,-0.817 -0.277,-1.34 -0.339,-1.864 -0.554,1.202 -1.109,2.403 -1.525,8.444 -0.416,6.04 -0.693,16.919 -0.786,23.467 -0.092,6.549 0,8.768 0.185,10.833"
             style="fill:#2e3f66;fill-opacity:1;fill-rule:evenodd;stroke:none"
             id="path3966" />
        </g>
        <g
           id="g3968"
           transform="translate(297.8415,139.4035)">
          <path
             d="m 0,0 c 0.185,2.065 0.462,3.976 0.895,5.61 0.432,1.635 1.02,2.993 2.669,4.103 1.649,1.11 4.358,1.97 6.638,1.877 2.28,-0.094 4.129,-1.142 5.731,-3.207 1.603,-2.065 2.959,-5.147 3.929,-8.337 0.971,-3.19 1.557,-6.487 1.543,-11.279 -0.014,-4.793 -0.634,-11.141 -1.127,-15.116 -0.493,-3.976 -0.863,-5.609 -1.171,-7.782 -0.308,-2.173 -0.555,-4.885 -0.832,-6.302 -0.277,-1.418 -0.585,-1.541 -0.894,-1.664 0,0.709 0,1.417 -0.601,2.45 -0.6,1.032 -1.802,2.388 -2.588,3.266 -0.786,0.879 -1.156,1.279 -2.419,1.233 -1.264,-0.046 -3.421,-0.539 -4.962,-1.063 -1.541,-0.524 -2.466,-1.079 -3.113,-1.911 -0.647,-0.832 -1.017,-1.941 -1.233,-2.758 -0.215,-0.817 -0.277,-1.34 -0.339,-1.864 -0.554,1.202 -1.109,2.403 -1.525,8.444 -0.416,6.04 -0.693,16.919 -0.786,23.467 -0.092,6.549 0,8.768 0.185,10.833 z"
             style="fill:none;stroke:#000000;stroke-width:1.384;stroke-linecap:round;stroke-linejoin:miter;stroke-miterlimit:6.9;stroke-dasharray:none;stroke-opacity:1"
             id="path3970" />
        </g>
        <g
           id="g3972"
           transform="translate(278.8422,143.1634)">
          <path
             d="m 0,0 c 0.57,1.757 1.002,3.051 1.032,4.376 0.031,1.325 -0.339,2.681 -1.248,3.822 -0.909,1.14 -2.357,2.064 -3.759,2.527 -1.403,0.462 -2.759,0.462 -3.776,0.108 C -8.768,10.478 -9.446,9.769 -9.939,8.567 -10.432,7.365 -10.74,5.67 -11.295,4.13 -11.85,2.589 -12.651,1.202 -13.221,-0.2 c -0.57,-1.403 -0.909,-2.82 -1.063,-4.361 -0.154,-1.541 -0.123,-3.205 0,-5.085 0.123,-1.88 0.339,-3.976 1.31,-5.486 0.971,-1.51 2.696,-2.434 4.823,-3.205 2.126,-0.77 4.653,-1.386 7.797,-1.71 3.143,-0.324 6.903,-0.354 12.05,-0.664 5.146,-0.31 11.618,-0.892 15.747,-1.279 4.13,-0.387 5.825,-0.569 7.089,-1.077 1.263,-0.509 2.065,-1.341 3.02,-2.096 0.955,-0.755 2.065,-1.433 2.881,-1.602 0.817,-0.17 1.341,0.169 2.312,0.693 0.97,0.524 2.388,1.233 3.31,1.686 0.922,0.452 1.297,0.626 1.528,1.057 0.231,0.431 0.293,1.109 0.74,1.232 0.447,0.124 1.279,-0.308 2.002,-0.22 0.723,0.087 1.338,0.693 0.994,1.476 -0.345,0.783 -1.649,1.743 -2.333,2.669 -0.685,0.925 -0.749,1.815 -0.913,2.372 -0.164,0.558 -0.427,0.783 -0.975,1.095 -0.547,0.313 -1.379,0.714 -3.49,1.114 -2.111,0.401 -5.501,0.802 -8.691,1.156 -3.19,0.354 -6.179,0.663 -11.125,1.371 -4.947,0.709 -11.85,1.819 -16.149,2.666 C 3.344,-7.55 1.649,-6.965 0.478,-6.641 -0.693,-6.318 -1.34,-6.256 -1.31,-5.116 -1.279,-3.975 -0.57,-1.757 0,0 Z"
             style="fill:#3e2d27;fill-opacity:1;fill-rule:evenodd;stroke:#000000;stroke-width:1.384;stroke-linecap:round;stroke-linejoin:miter;stroke-miterlimit:6.9;stroke-dasharray:none;stroke-opacity:1"
             id="path3974" />
        </g>
        <g
           id="g3976"
           transform="translate(319.0135,143.4409)">
          <path
             d="m 0,0 c -0.062,1.233 -0.123,2.465 0.216,3.852 0.339,1.387 1.078,2.928 2.265,3.822 1.187,0.893 2.82,1.14 4.284,0.785 1.464,-0.354 2.758,-1.309 3.606,-3.207 0.847,-1.897 1.247,-4.728 1.17,-7.425 -0.077,-2.696 -0.631,-5.254 -1.464,-7.042 -0.832,-1.787 -1.941,-2.804 -3.128,-3.467 -1.186,-0.662 -2.449,-0.97 -5.976,-0.786 -3.527,0.185 -9.324,0.863 -15.303,1.68 -5.979,0.817 -12.142,1.772 -16.164,2.311 -4.022,0.54 -5.902,0.663 -7.397,0.216 -1.494,-0.447 -2.604,-1.464 -3.929,-2.419 -1.325,-0.955 -2.866,-1.849 -4.199,-2.635 -1.333,-0.786 -2.458,-1.464 -3.066,-2.019 -0.609,-0.554 -0.701,-0.986 -0.794,-1.417 l 1.572,-0.832 c -0.601,-0.462 -1.202,-0.925 -2.027,-1.036 -0.825,-0.111 -1.933,0.142 -2.811,0.234 -0.879,0.093 -1.557,0.031 -2.096,0.293 -0.539,0.262 -0.94,0.848 -1.31,1.387 -0.37,0.539 -0.709,1.032 -0.801,1.602 -0.093,0.571 0.061,1.218 -0.031,1.665 -0.092,0.447 -0.431,0.693 -0.524,1.276 -0.093,0.583 0.062,1.513 0.555,2.838 0.493,1.325 1.325,3.051 2.37,4.419 1.045,1.368 2.302,2.379 3.187,2.974 0.885,0.595 1.396,0.776 2.171,0.917 0.774,0.141 1.81,0.242 2.775,0.386 0.964,0.145 1.856,0.332 2.78,0.656 0.924,0.325 1.879,0.787 6.348,1.018 4.469,0.231 12.45,0.231 18.013,0.478 5.563,0.247 8.706,0.74 11.588,0.693 C -5.239,1.171 -2.62,0.586 0,0 Z"
             style="fill:#3e2d27;fill-opacity:1;fill-rule:evenodd;stroke:#000000;stroke-width:1.384;stroke-linecap:round;stroke-linejoin:miter;stroke-miterlimit:6.9;stroke-dasharray:none;stroke-opacity:1"
             id="path3978" />
        </g>
        <g
           id="g3980"
           transform="translate(298.35,178.9431)">
          <path
             d="M 0,0 C 0.616,0.493 1.233,0.986 2.057,1.21 2.882,1.433 3.914,1.387 4.569,1.171 5.224,0.955 5.501,0.57 5.778,0.185"
             style="fill:none;stroke:#000000;stroke-width:1.384;stroke-linecap:round;stroke-linejoin:miter;stroke-miterlimit:6.9;stroke-dasharray:none;stroke-opacity:1"
             id="path3982" />
        </g>
        <g
           id="g3984"
           transform="translate(285.3934,76.3282)">
          <path
             d="m 0,0 c -0.361,-0.95 -0.8,-1.811 -1.189,-2.608 -0.753,-1.541 -1.315,-2.843 -2.452,-4.461 -1.136,-1.617 -2.846,-3.55 -0.261,-5.508 2.585,-1.958 9.464,-3.943 13.131,-3.62 3.667,0.323 4.122,2.951 3.771,4.762 -0.351,1.812 -1.508,2.804 -1.981,5.358 -0.289,1.56 -0.322,3.704 -0.322,5.777 C 10.398,-0.343 10.072,-0.52 9.711,-0.741 8.811,-1.292 7.518,-2.184 6.072,-2.239 4.627,-2.294 3.008,-1.57 1.834,-0.842 1.177,-0.435 0.683,-0.038 0,0"
             style="fill:#929292;fill-opacity:1;fill-rule:evenodd;stroke:none"
             id="path3986" />
        </g>
        <g
           id="g3988"
           transform="translate(285.3934,76.3282)">
          <path
             d="m 0,0 c -0.361,-0.95 -0.8,-1.811 -1.189,-2.608 -0.753,-1.541 -1.315,-2.843 -2.452,-4.461 -1.136,-1.617 -2.846,-3.55 -0.261,-5.508 2.585,-1.958 9.464,-3.943 13.131,-3.62 3.667,0.323 4.122,2.951 3.771,4.762 -0.351,1.812 -1.508,2.804 -1.981,5.358 -0.289,1.56 -0.322,3.704 -0.322,5.777 C 10.398,-0.343 10.072,-0.52 9.711,-0.741 8.811,-1.292 7.518,-2.184 6.072,-2.239 4.627,-2.294 3.008,-1.57 1.834,-0.842 1.177,-0.435 0.683,-0.038 0,0 Z"
             style="fill:none;stroke:#000000;stroke-width:1.384;stroke-linecap:round;stroke-linejoin:miter;stroke-miterlimit:6.9;stroke-dasharray:none;stroke-opacity:1"
             id="path3990" />
        </g>
        <g
           id="g3992"
           transform="translate(300.3687,75.8441)">
          <path
             d="m 0,0 c 0.153,-2.391 0.326,-4.896 0.192,-6.572 -0.211,-2.632 -1.185,-3.188 -1.645,-4.781 -0.46,-1.594 -0.406,-4.222 2.746,-4.777 3.152,-0.555 9.402,0.965 12.081,2.655 2.68,1.691 1.789,3.551 0.945,5.249 -0.844,1.697 -1.639,3.23 -2.486,5.038 -0.434,0.928 -0.881,1.928 -1.238,2.999 C 9.972,-0.928 8.597,-1.623 7.44,-1.97 6.023,-2.396 4.43,-2.7 3.012,-2.278 1.806,-1.919 0.462,-0.2 0,0"
             style="fill:#929292;fill-opacity:1;fill-rule:evenodd;stroke:none"
             id="path3994" />
        </g>
        <g
           id="g3996"
           transform="translate(300.3687,75.8441)">
          <path
             d="m 0,0 c 0.153,-2.391 0.326,-4.896 0.192,-6.572 -0.211,-2.632 -1.185,-3.188 -1.645,-4.781 -0.46,-1.594 -0.406,-4.222 2.746,-4.777 3.152,-0.555 9.402,0.965 12.081,2.655 2.68,1.691 1.789,3.551 0.945,5.249 -0.844,1.697 -1.639,3.23 -2.486,5.038 -0.434,0.928 -0.881,1.928 -1.238,2.999 C 9.972,-0.928 8.597,-1.623 7.44,-1.97 6.023,-2.396 4.43,-2.7 3.012,-2.278 1.806,-1.919 0.462,-0.2 0,0 Z"
             style="fill:none;stroke:#000000;stroke-width:1.384;stroke-linecap:round;stroke-linejoin:miter;stroke-miterlimit:6.9;stroke-dasharray:none;stroke-opacity:1"
             id="path3998" />
        </g>
        <g
           id="g4000"
           transform="translate(273.3034,157.4425)">
          <path
             d="m 0,0 c -0.577,0.359 -1.732,1.079 -2.658,1.907 -0.927,0.828 -1.624,1.765 -2.049,3.061 -0.425,1.297 -0.578,2.953 -0.065,3.596 0.512,0.643 1.688,0.273 2.865,-0.098 0.044,1.22 0.087,2.441 0.719,3.084 0.632,0.642 1.853,0.708 2.615,0.642 0.763,-0.065 1.068,-0.261 1.373,-0.457 0.392,0.741 0.785,1.482 1.733,1.743 0.948,0.262 2.451,0.044 3.29,-0.414 C 8.662,12.606 8.836,11.909 8.836,11.07 8.836,10.231 8.662,9.25 8.368,8.238 8.074,7.225 7.66,6.178 7.464,5.23 7.267,4.282 7.289,3.432 7.311,2.582 6.897,3.104 6.482,3.624 6.134,4.377 5.785,5.129 5.445,6.307 5.141,6.892 4.836,7.477 4.26,8.052 4.075,7.932 3.89,7.812 3.999,7.093 4.097,6.145 4.195,5.197 4.282,4.02 4.631,2.92 4.979,1.819 5.589,0.795 6.2,-0.229 5.045,0.425 3.89,1.079 2.996,1.852 2.103,2.626 1.471,3.519 1.046,4.238 0.621,4.957 0.403,5.502 0.196,5.755 -0.012,6.008 -0.251,5.96 -0.305,5.361 -0.36,4.761 -0.251,3.606 0.109,2.648 0.469,1.689 1.079,0.926 1.602,0.305 2.125,-0.316 2.56,-0.795 2.996,-1.275 2.19,-0.97 1.384,-0.665 0.981,-0.512 0.577,-0.359 0.577,-0.359 0,0"
             style="fill:#0b0a16;fill-opacity:1;fill-rule:evenodd;stroke:none"
             id="path4002" />
        </g>
        <g
           id="g4004"
           transform="translate(273.3034,157.4425)">
          <path
             d="m 0,0 c -0.577,0.359 -1.732,1.079 -2.658,1.907 -0.927,0.828 -1.624,1.765 -2.049,3.061 -0.425,1.297 -0.578,2.953 -0.065,3.596 0.512,0.643 1.688,0.273 2.865,-0.098 0.044,1.22 0.087,2.441 0.719,3.084 0.632,0.642 1.853,0.708 2.615,0.642 0.763,-0.065 1.068,-0.261 1.373,-0.457 0.392,0.741 0.785,1.482 1.733,1.743 0.948,0.262 2.451,0.044 3.29,-0.414 C 8.662,12.606 8.836,11.909 8.836,11.07 8.836,10.231 8.662,9.25 8.368,8.238 8.074,7.225 7.66,6.178 7.464,5.23 7.267,4.282 7.289,3.432 7.311,2.582 6.897,3.104 6.482,3.624 6.134,4.377 5.785,5.129 5.445,6.307 5.141,6.892 4.836,7.477 4.26,8.052 4.075,7.932 3.89,7.812 3.999,7.093 4.097,6.145 4.195,5.197 4.282,4.02 4.631,2.92 4.979,1.819 5.589,0.795 6.2,-0.229 5.045,0.425 3.89,1.079 2.996,1.852 2.103,2.626 1.471,3.519 1.046,4.238 0.621,4.957 0.403,5.502 0.196,5.755 -0.012,6.008 -0.251,5.96 -0.305,5.361 -0.36,4.761 -0.251,3.606 0.109,2.648 0.469,1.689 1.079,0.926 1.602,0.305 2.125,-0.316 2.56,-0.795 2.996,-1.275 2.19,-0.97 1.384,-0.665 0.981,-0.512 0.577,-0.359 0.577,-0.359 0,0 Z"
             style="fill:none;stroke:#000000;stroke-width:1.384;stroke-linecap:round;stroke-linejoin:miter;stroke-miterlimit:6.9;stroke-dasharray:none;stroke-opacity:1"
             id="path4006" />
        </g>
        <g
           id="g4008"
           transform="translate(283.1162,218.4423)">
          <path
             d="M 0,0 C -1.202,0.092 -2.404,0.185 -3.652,0.277 -4.9,0.37 -6.194,0.462 -7.489,0.555 c 0.832,-1.11 1.665,-2.219 2.62,-2.944 0.955,-0.724 2.034,-1.063 2.727,-0.847 0.694,0.216 1.002,0.986 1.294,1.618 C -0.555,-0.986 -0.277,-0.493 0,0"
             style="fill:#f39600;fill-opacity:1;fill-rule:evenodd;stroke:none"
             id="path4010" />
        </g>
        <g
           id="g4012"
           transform="translate(283.1162,218.4423)">
          <path
             d="M 0,0 C -1.202,0.092 -2.404,0.185 -3.652,0.277 -4.9,0.37 -6.194,0.462 -7.489,0.555 c 0.832,-1.11 1.665,-2.219 2.62,-2.944 0.955,-0.724 2.034,-1.063 2.727,-0.847 0.694,0.216 1.002,0.986 1.294,1.618 C -0.555,-0.986 -0.277,-0.493 0,0 Z"
             style="fill:none;stroke:#000000;stroke-width:1.384;stroke-linecap:round;stroke-linejoin:miter;stroke-miterlimit:6.9;stroke-dasharray:none;stroke-opacity:1"
             id="path4014" />
        </g>
        <g
           id="g4016"
           transform="translate(287.8209,221.6451)">
          <path
             d="M 0,0 C 0.793,0.419 1.585,0.839 2.643,1.736 3.7,2.634 5.022,4.009 6.345,5.384 6.644,3.768 6.943,2.152 6.633,0.745 6.323,-0.661 5.404,-1.857 4.484,-2.071 3.565,-2.285 2.645,-1.516 1.897,-1.006 1.149,-0.497 0.575,-0.249 0,0"
             style="fill:#f39600;fill-opacity:1;fill-rule:evenodd;stroke:none"
             id="path4018" />
        </g>
        <g
           id="g4020"
           transform="translate(287.8209,221.6451)">
          <path
             d="M 0,0 C 0.793,0.419 1.585,0.839 2.643,1.736 3.7,2.634 5.022,4.009 6.345,5.384 6.644,3.768 6.943,2.152 6.633,0.745 6.323,-0.661 5.404,-1.857 4.484,-2.071 3.565,-2.285 2.645,-1.516 1.897,-1.006 1.149,-0.497 0.575,-0.249 0,0 Z"
             style="fill:none;stroke:#000000;stroke-width:1.384;stroke-linecap:round;stroke-linejoin:miter;stroke-miterlimit:6.9;stroke-dasharray:none;stroke-opacity:1"
             id="path4022" />
        </g>
        <g
           id="g4024"
           transform="translate(286.1416,213.4346)">
          <path
             d="M 0,0 C 0,0.588 0.087,1.286 0.447,1.729 0.806,2.173 1.438,2.362 2.038,2.394 2.637,2.427 3.204,2.303 3.857,2.307 4.511,2.31 5.252,2.441 5.749,1.813 6.245,1.185 6.498,-0.202 7.38,-1.28 c 0.883,-1.079 2.396,-1.85 4.192,-3.133 1.796,-1.282 3.876,-3.077 3.701,-3.854 -0.176,-0.778 -2.607,-0.538 -4.442,0.144 -1.836,0.683 -3.075,1.808 -4.469,2.64 -1.393,0.832 -2.941,1.37 -3.997,1.978 -1.057,0.607 -1.624,1.282 -1.951,1.86 C 0.087,-1.068 0,-0.588 0,0"
             style="fill:#f39600;fill-opacity:1;fill-rule:evenodd;stroke:none"
             id="path4026" />
        </g>
        <g
           id="g4028"
           transform="translate(286.1416,213.4346)">
          <path
             d="M 0,0 C 0,0.588 0.087,1.286 0.447,1.729 0.806,2.173 1.438,2.362 2.038,2.394 2.637,2.427 3.204,2.303 3.857,2.307 4.511,2.31 5.252,2.441 5.749,1.813 6.245,1.185 6.498,-0.202 7.38,-1.28 c 0.883,-1.079 2.396,-1.85 4.192,-3.133 1.796,-1.282 3.876,-3.077 3.701,-3.854 -0.176,-0.778 -2.607,-0.538 -4.442,0.144 -1.836,0.683 -3.075,1.808 -4.469,2.64 -1.393,0.832 -2.941,1.37 -3.997,1.978 -1.057,0.607 -1.624,1.282 -1.951,1.86 C 0.087,-1.068 0,-0.588 0,0 Z"
             style="fill:none;stroke:#000000;stroke-width:1.384;stroke-linecap:round;stroke-linejoin:miter;stroke-miterlimit:6.9;stroke-dasharray:none;stroke-opacity:1"
             id="path4030" />
        </g>
        <g
           id="g4032"
           transform="translate(327.1699,181.7563)">
          <path
             d="M 0,0 C -1.166,-1.509 -1.783,-3.154 -1.131,-4.526 -0.48,-5.897 1.44,-6.994 3.326,-6.925 5.211,-6.857 7.063,-5.622 7.281,-3.592 7.5,-1.561 6.034,1.371 4.457,2.126 2.88,2.88 1.166,1.509 0,0"
             style="fill:#0b0a16;fill-opacity:1;fill-rule:evenodd;stroke:none"
             id="path4034" />
        </g>
        <g
           id="g4036"
           transform="translate(327.1699,181.7563)">
          <path
             d="M 0,0 C -1.166,-1.509 -1.783,-3.154 -1.131,-4.526 -0.48,-5.897 1.44,-6.994 3.326,-6.925 5.211,-6.857 7.063,-5.622 7.281,-3.592 7.5,-1.561 6.034,1.371 4.457,2.126 2.88,2.88 1.166,1.509 0,0 Z"
             style="fill:none;stroke:#000000;stroke-width:1.384;stroke-linecap:round;stroke-linejoin:miter;stroke-miterlimit:6.9;stroke-dasharray:none;stroke-opacity:1"
             id="path4038" />
        </g>
        <g
           id="g4040"
           transform="translate(339.0324,167.6313)">
          <path
             d="m 0,0 c -1.577,0 -2.88,-0.48 -3.102,-1.479 -0.223,-1 0.702,-2.635 2.279,-2.635 1.577,0 3.84,1.577 4.046,2.606 C 3.428,-0.48 1.577,0 0,0"
             style="fill:#0b0a16;fill-opacity:1;fill-rule:evenodd;stroke:none"
             id="path4042" />
        </g>
        <g
           id="g4044"
           transform="translate(339.0324,167.6313)">
          <path
             d="m 0,0 c -1.577,0 -2.88,-0.48 -3.102,-1.479 -0.223,-1 0.702,-2.635 2.279,-2.635 1.577,0 3.84,1.577 4.046,2.606 C 3.428,-0.48 1.577,0 0,0 Z"
             style="fill:none;stroke:#000000;stroke-width:1.384;stroke-linecap:round;stroke-linejoin:miter;stroke-miterlimit:6.9;stroke-dasharray:none;stroke-opacity:1"
             id="path4046" />
        </g>
        <g
           id="g4048"
           transform="translate(332.8954,204.5551)">
          <path
             d="M 0,0 C 0.308,-1.269 0.308,-2.708 1.783,-2.777 3.257,-2.845 6.205,-1.543 7.165,0.926 8.125,3.394 7.097,7.028 5.331,7.662 3.565,8.295 0.994,5.863 0.034,4.114 -0.926,2.366 -0.309,1.268 0,0 Z"
             style="fill:#0b0a16;fill-opacity:1;fill-rule:evenodd;stroke:#000000;stroke-width:1.384;stroke-linecap:round;stroke-linejoin:miter;stroke-miterlimit:6.9;stroke-dasharray:none;stroke-opacity:1"
             id="path4050" />
        </g>
        <g
           id="g4052"
           transform="translate(293.5372,195.4013)">
          <path
             d="M 0,0 C 0.034,-0.891 0.309,-1.851 1.234,-1.851 2.16,-1.851 3.737,-0.891 3.703,0 3.669,0.891 2.023,1.714 1.097,1.714 0.171,1.714 -0.034,0.891 0,0"
             style="fill:#0b0a16;fill-opacity:1;fill-rule:evenodd;stroke:none"
             id="path4054" />
        </g>
        <g
           id="g4056"
           transform="translate(293.5372,195.4013)">
          <path
             d="M 0,0 C 0.034,-0.891 0.309,-1.851 1.234,-1.851 2.16,-1.851 3.737,-0.891 3.703,0 3.669,0.891 2.023,1.714 1.097,1.714 0.171,1.714 -0.034,0.891 0,0 Z"
             style="fill:none;stroke:#000000;stroke-width:1.384;stroke-linecap:round;stroke-linejoin:miter;stroke-miterlimit:6.9;stroke-dasharray:none;stroke-opacity:1"
             id="path4058" />
        </g>
        <g
           id="g4060"
           transform="translate(280.0294,180.0421)">
          <path
             d="M 0,0 C 0.103,-1.44 1.132,-2.469 2.469,-2.228 3.805,-1.988 5.451,-0.48 5.348,0.96 5.246,2.4 3.394,3.771 2.057,3.531 0.72,3.291 -0.103,1.44 0,0"
             style="fill:#0b0a16;fill-opacity:1;fill-rule:evenodd;stroke:none"
             id="path4062" />
        </g>
        <g
           id="g4064"
           transform="translate(280.0294,180.0421)">
          <path
             d="M 0,0 C 0.103,-1.44 1.132,-2.469 2.469,-2.228 3.805,-1.988 5.451,-0.48 5.348,0.96 5.246,2.4 3.394,3.771 2.057,3.531 0.72,3.291 -0.103,1.44 0,0 Z"
             style="fill:none;stroke:#000000;stroke-width:1.384;stroke-linecap:round;stroke-linejoin:miter;stroke-miterlimit:6.9;stroke-dasharray:none;stroke-opacity:1"
             id="path4066" />
        </g>
      </g>
    </g>
  </g>
</svg>
