<?xml version="1.0" encoding="UTF-8" standalone="no"?>
<!-- Created with Inkscape (http://www.inkscape.org/) -->

<svg
   width="104.7355mm"
   height="148.2355mm"
   viewBox="0 0 104.7355 148.2355"
   version="1.1"
   id="svg5"
   xml:space="preserve"
   xmlns="http://www.w3.org/2000/svg"
   xmlns:svg="http://www.w3.org/2000/svg"><defs
     id="defs2" /><g
     id="layer1"
     transform="translate(-921.9905,-512.9181)"><rect
       style="opacity:1;fill:#ffffff;fill-opacity:1;stroke:none;stroke-width:0.129;stroke-linecap:round;stroke-linejoin:round;stroke-dasharray:none;paint-order:fill markers stroke"
       id="rect304"
       width="104.7355"
       height="148.2355"
       x="1026.726"
       y="512.9181"
       rx="0"
       ry="0" /><rect
       style="opacity:1;fill:#ffffff;fill-opacity:1;stroke:none;stroke-width:0.129;stroke-linecap:round;stroke-linejoin:round;stroke-dasharray:none;paint-order:fill markers stroke"
       id="rect299"
       width="104.7355"
       height="148.2355"
       x="921.9905"
       y="512.9181"
       rx="0"
       ry="0" /><path
       id="path294"
       style="opacity:1;fill:#aaeedd;fill-opacity:1;stroke:none;stroke-width:0.413877;stroke-linecap:round;stroke-linejoin:round;stroke-dasharray:none;paint-order:markers stroke fill"
       d="m 819.7427,349.4969 h 54.7301 v 63.1944 c -7.0881,-0.2727 -14.9791,-3.0606 -21.0625,-5.936 -11.4788,-5.4255 -16.4911,-11.0664 -23.1699,-24.5926 -4.5907,-9.2973 -9.9684,-22.3196 -10.4977,-32.6658 z"
       transform="matrix(-1.659117,0,0,0.9852993,2372.843,168.559)" /><path
       id="path310"
       style="opacity:1;fill:#ffcccc;fill-opacity:1;stroke:none;stroke-width:0.659735;stroke-linecap:round;stroke-linejoin:round;stroke-dasharray:none;paint-order:fill markers stroke"
       d="m 1157.389,305.0301 h -159.2222 c 1.3645,-22.2403 44.3332,-44.5261 77.0622,-55.3558 35.993,-11.9097 58.337,-10.0665 71.69,0.2339 13.353,10.3004 14.908,25.7694 11.368,49.7279 -0.262,1.7729 -0.568,3.5777 -0.898,5.394 z"
       transform="matrix(-0.8610505,0,0,0.7466946,1962.552,433.3891)" /><path
       id="path293"
       style="opacity:1;fill:#ccccff;fill-opacity:1;stroke:none;stroke-width:0.396519;stroke-linecap:round;stroke-linejoin:round;stroke-dasharray:none;paint-order:markers stroke fill"
       d="m 866.5553,276.3747 v -16.3794 h 113.6093 c 1.0389,1.3907 1.9153,2.9071 2.7236,4.5886 3.4506,7.1791 5.7754,17.2682 -2.8346,29.9617 -8.6099,12.6935 -28.1537,27.9897 -44.3843,27.5349 -16.2305,-0.4549 -29.1458,-16.661 -46.395,-29.9517 -7.5227,-5.7964 -15.7826,-11.0076 -22.719,-15.7541 z"
       transform="matrix(-1.112822,0,0,1.600412,2095.783,96.81851)" /><rect
       style="opacity:1;fill:#ffffff;fill-opacity:1;stroke:#000000;stroke-width:0.499999;stroke-linecap:round;stroke-linejoin:round;stroke-dasharray:none;paint-order:fill markers stroke"
       id="rect310"
       width="89.73496"
       height="133.236"
       x="929.4907"
       y="520.4178"
       rx="4.999998"
       ry="5.000001" /></g></svg>
