<?xml version="1.0" encoding="UTF-8"?>
<svg xmlns="http://www.w3.org/2000/svg" width="146" height="143">
<path fill="#606" d="m56.9 142c-21.9-4.29-44.6-22.3-51.5-40.8-11.9-31.9-3.82-66 20.3-85.1 38-30 99.9-15.7 116 27 6.01 15.6 6 41.6-0.0135 57.3-11.7 30.3-49.1 48.6-85.1 41.6zm12.9-21.1c0-13.8-0.408-15.7-3.24-15.7-4.25 0.0135-17.1 3.61-17.1 4.78 0 1.68 7.85 16.4 11.5 21.6 6.66 9.45 8.89 6.78 8.89-10.6zm21.8 2.84c4.33-6.59 7.87-12.5 7.87-13.1 0-1.51-13.2-5.45-18.3-5.45-3.73 0-3.95 0.902-3.95 15.9 0 14.1 0.36 15.8 3.24 15.3 1.78-0.329 6.78-5.99 11.1-12.6zm-44.3-0.979c-5.82-10.7-6.24-10.9-15.3-4.08-3.4 2.54-3.05 2.99 6.48 8.45 5.54 3.18 11 5.78 12.2 5.79s-0.281-4.45-3.38-10.2zm63.4 3.38c3.99-2.64 7.26-5.43 7.26-6.2 0-1.63-8.38-7.37-10.7-7.37-0.891 0-2.54 1.88-3.67 4.17s-3.93 7.01-6.22 10.5l-4.17 6.31 5.15-1.29c2.83-0.71 8.41-3.45 12.4-6.09zm-71.1-19.9c0.217-0.177-0.815-4.87-2.29-10.4-1.48-5.55-2.7-12.8-2.71-16.1l-0.022-6.02h-26v5.49c0 6.96 6.41 24.2 11.3 30.4l3.75 4.76 7.75-3.91c4.26-2.15 7.93-4.05 8.15-4.23zm93-6.71c2.15-4.99 4.42-12.8 5.05-17.5l1.15-8.39h-12.3c-12.2 0-12.3 0.0191-12.3 5.22 0 2.87-1.31 9.62-2.9 15-1.6 5.38-2.6 10.1-2.23 10.4s3.55 2.66 7.07 5.1c5.61 3.88 6.78 4.1 9.47 1.79 1.69-1.45 4.83-6.72 6.97-11.7zm-62.8-14.2v-11.6h-30l1.31 8.8c0.722 4.84 2.39 11.4 3.71 14.6l2.4 5.76 11.3-2.95 11.3-2.95v-11.6zm36 3.28c1.61-7.06 2.92-13.3 2.92-13.9 0-0.563-7.08-1.02-15.7-1.02h-15.7v23.4l11.6 2.71c6.37 1.49 12.1 2.46 12.8 2.16 0.685-0.303 2.56-6.33 4.17-13.4zm-71.1-28.3c0.0447-4.33 1.27-11.2 2.72-15.3 1.45-4.07 1.96-7.64 1.12-7.93-0.838-0.289-4.26-2.55-7.61-5.02l-6.09-4.49-3.51 4.47c-5.02 6.39-10.4 19.3-11.9 28.3l-1.25 7.79h26.4l0.0813-7.87zm35.1-3.91v-11.8l-7.87-1.15c-4.33-0.634-9.69-1.66-11.9-2.29-3.57-1-4.38 0.0031-6.94 8.64-1.6 5.38-2.9 11.7-2.9 14.1 0 4.13 0.556 4.29 14.8 4.29h14.8v-11.8zm38.1 6.69c-5.78-23.9-5.34-23.5-19.3-20.6l-11.4 2.35v23.4h31.8l-1.23-5.09zm30.4 0.926c-0.0193-7.81-3.95-19-9.72-27.6l-5.76-8.6-7.53 4.82c-4.14 2.65-7.72 4.9-7.95 5.01s1.23 4.52 3.24 9.82 3.66 12.1 3.66 15.2v5.54h12c11.3 0 12-0.272 12-4.17zm-68.9-43.5c-0.402-12.2-1.16-16.2-3.06-16.2-2.61 0-16.9 22.1-16.9 26.1 0 2.71 8.08 5.95 15.3 6.15l5.16 0.146-0.535-16.2zm23.5 14c3.63-1.66 4.47-3.06 3.56-6.02-1.84-6.01-14.4-24.1-16.5-23.7-1.02 0.193-2.09 7.44-2.39 16.1l-0.535 15.8h5.54c3.05 0 7.68-0.973 10.3-2.16zm-49-7.36c0-1.16 2.5-6.18 5.56-11.1l5.56-9.03-8.8 4.51c-4.84 2.48-10.5 5.82-12.5 7.42-3.67 2.88-3.66 2.94 0.926 6.59 5.17 4.12 9.26 4.85 9.26 1.66zm68.7-1.07c2.96-1.75 5.38-3.73 5.38-4.4 0-0.673-5.89-4.32-13.1-8.1l-13.1-6.88 4.49 7.11c2.47 3.91 5.08 8.99 5.81 11.3 1.59 5 3.43 5.17 10.5 0.99z"/>
</svg>