<?xml version="1.0" encoding="UTF-8" standalone="no"?>
<!-- Created with Inkscape (http://www.inkscape.org/) -->
<svg width="8.466651mm" height="39.15889mm" viewBox="0 0 8.466651 39.15889" version="1.1" id="svg85122" xmlns="http://www.w3.org/2000/svg" xmlns:svg="http://www.w3.org/2000/svg">
  <defs id="defs85119">
    <clipPath clipPathUnits="userSpaceOnUse" id="clipPath48098">
      <path d="M 0,0 H 24 V -111.002 H 0 Z" clip-rule="evenodd" id="path48096"/>
    </clipPath>
    <clipPath clipPathUnits="userSpaceOnUse" id="clipPath48108">
      <path d="M 0,-125.29692 H 419.52756 V 125.29692 H 0 Z" id="path48106"/>
    </clipPath>
    <clipPath clipPathUnits="userSpaceOnUse" id="clipPath48112">
      <path d="M 0,0 H 27.4373 V -27.4373 H 0 Z" clip-rule="evenodd" id="path48110"/>
    </clipPath>
    <clipPath clipPathUnits="userSpaceOnUse" id="clipPath48116">
      <path d="M 0,-27.4373 H 419.52756 V 27.4373 H 0 Z" id="path48114"/>
    </clipPath>
    <clipPath clipPathUnits="userSpaceOnUse" id="clipPath48120">
      <path d="M 0,0 H 27.4373 V -27.4373 H 0 Z" clip-rule="evenodd" id="path48118"/>
    </clipPath>
    <clipPath clipPathUnits="userSpaceOnUse" id="clipPath48124">
      <path d="M 0,-27.4373 H 419.52756 V 27.4373 H 0 Z" id="path48122"/>
    </clipPath>
    <clipPath clipPathUnits="userSpaceOnUse" id="clipPath48128">
      <path d="M 0,0 H 27.4373 V -27.4373 H 0 Z" clip-rule="evenodd" id="path48126"/>
    </clipPath>
    <clipPath clipPathUnits="userSpaceOnUse" id="clipPath48132">
      <path d="M 0,-27.4373 H 419.52756 V 27.4373 H 0 Z" id="path48130"/>
    </clipPath>
    <clipPath clipPathUnits="userSpaceOnUse" id="clipPath48136">
      <path d="M 0,0 H 27.4373 V -27.4373 H 0 Z" clip-rule="evenodd" id="path48134"/>
    </clipPath>
    <clipPath clipPathUnits="userSpaceOnUse" id="clipPath48140">
      <path d="M 0,-27.4373 H 419.52756 V 27.4373 H 0 Z" id="path48138"/>
    </clipPath>
  </defs>
  <g id="layer1">
    <g id="g48088" transform="matrix(0.35277777,0,0,-0.35277777,-59.320679,192.57218)">
      <g id="g48090" transform="translate(168.15311,545.8739)">
        <g id="g48092">
          <g id="g48094" clip-path="url(#clipPath48098)">
            <g id="g48100" transform="matrix(0.87472,0,0,0.88591,0,-98.33717)">
              <g id="g48102">
                <g id="g48104"/>
                <g id="g48288">
                  <g clip-path="url(#clipPath48108)" id="g48286">
                    <g transform="translate(0,111.00156)" id="g48174">
                      <g id="g48172">
                        <g id="g48170">
                          <g clip-path="url(#clipPath48112)" id="g48168">
                            <g transform="translate(0,-27.4373)" id="g48166">
                              <g id="g48164">
                                <g id="g48142"/>
                                <g id="g48162">
                                <g clip-path="url(#clipPath48116)" id="g48160">
                                <g transform="translate(0,27.4373)" id="g48150">
                                <g id="g48148">
                                <g id="g48146">
                                <path d="M 0,0 H 27.4373 V -27.4373 H 0 Z" style="fill:#000000;fill-opacity:1;fill-rule:evenodd;stroke:none" id="path48144"/>
                                </g>
                                </g>
                                </g>
                                <g transform="translate(3.21623,24.2206)" id="g48158">
                                <g id="g48156">
                                <g id="g48154">
                                <path d="m 21.0045,-10.5023 c 0,-5.8004 -4.7018,-10.5022 -10.5022,-10.5022 C 4.70202,-21.0045 0,-16.3027 0,-10.5023 0,-4.70202 4.70202,0 10.5023,0 16.3027,0 21.0045,-4.70202 21.0045,-10.5023 Z" style="fill:#ffffff;fill-opacity:1;fill-rule:evenodd;stroke:none" id="path48152"/>
                                </g>
                                </g>
                                </g>
                                </g>
                                </g>
                              </g>
                            </g>
                          </g>
                        </g>
                      </g>
                    </g>
                    <g transform="translate(0,78.38159)" id="g48208">
                      <g id="g48206">
                        <g id="g48204">
                          <g clip-path="url(#clipPath48120)" id="g48202">
                            <g transform="translate(0,-27.4373)" id="g48200">
                              <g id="g48198">
                                <g id="g48176"/>
                                <g id="g48196">
                                <g clip-path="url(#clipPath48124)" id="g48194">
                                <g transform="translate(0,27.4373)" id="g48184">
                                <g id="g48182">
                                <g id="g48180">
                                <path d="M 0,0 H 27.4373 V -27.4373 H 0 Z" style="fill:#000000;fill-opacity:1;fill-rule:evenodd;stroke:none" id="path48178"/>
                                </g>
                                </g>
                                </g>
                                <g transform="translate(3.21623,24.2206)" id="g48192">
                                <g id="g48190">
                                <g id="g48188">
                                <path d="m 21.0045,-10.5023 c 0,-5.8004 -4.7018,-10.5022 -10.5022,-10.5022 C 4.70202,-21.0045 0,-16.3027 0,-10.5023 0,-4.70202 4.70202,0 10.5023,0 16.3027,0 21.0045,-4.70202 21.0045,-10.5023 Z" style="fill:#ffffff;fill-opacity:1;fill-rule:evenodd;stroke:none" id="path48186"/>
                                </g>
                                </g>
                                </g>
                                </g>
                                </g>
                              </g>
                            </g>
                          </g>
                        </g>
                      </g>
                    </g>
                    <g transform="translate(0,45.7619)" id="g48242">
                      <g id="g48240">
                        <g id="g48238">
                          <g clip-path="url(#clipPath48128)" id="g48236">
                            <g transform="translate(0,-27.4373)" id="g48234">
                              <g id="g48232">
                                <g id="g48210"/>
                                <g id="g48230">
                                <g clip-path="url(#clipPath48132)" id="g48228">
                                <g transform="translate(0,27.4373)" id="g48218">
                                <g id="g48216">
                                <g id="g48214">
                                <path d="M 0,0 H 27.4373 V -27.4373 H 0 Z" style="fill:#000000;fill-opacity:1;fill-rule:evenodd;stroke:none" id="path48212"/>
                                </g>
                                </g>
                                </g>
                                <g transform="translate(3.21623,24.2206)" id="g48226">
                                <g id="g48224">
                                <g id="g48222">
                                <path d="m 21.0045,-10.5023 c 0,-5.8004 -4.7018,-10.5022 -10.5022,-10.5022 C 4.70202,-21.0045 0,-16.3027 0,-10.5023 0,-4.70202 4.70202,0 10.5023,0 16.3027,0 21.0045,-4.70202 21.0045,-10.5023 Z" style="fill:#ffffff;fill-opacity:1;fill-rule:evenodd;stroke:none" id="path48220"/>
                                </g>
                                </g>
                                </g>
                                </g>
                                </g>
                              </g>
                            </g>
                          </g>
                        </g>
                      </g>
                    </g>
                    <g transform="translate(0,13.14193)" id="g48276">
                      <g id="g48274">
                        <g id="g48272">
                          <g clip-path="url(#clipPath48136)" id="g48270">
                            <g transform="translate(0,-27.4373)" id="g48268">
                              <g id="g48266">
                                <g id="g48244"/>
                                <g id="g48264">
                                <g clip-path="url(#clipPath48140)" id="g48262">
                                <g transform="translate(0,27.4373)" id="g48252">
                                <g id="g48250">
                                <g id="g48248">
                                <path d="M 0,0 H 27.4373 V -27.4373 H 0 Z" style="fill:#000000;fill-opacity:1;fill-rule:evenodd;stroke:none" id="path48246"/>
                                </g>
                                </g>
                                </g>
                                <g transform="translate(3.21623,24.2206)" id="g48260">
                                <g id="g48258">
                                <g id="g48256">
                                <path d="m 21.0045,-10.5023 c 0,-5.8004 -4.7018,-10.5022 -10.5022,-10.5022 C 4.70202,-21.0045 0,-16.3027 0,-10.5023 0,-4.70202 4.70202,0 10.5023,0 16.3027,0 21.0045,-4.70202 21.0045,-10.5023 Z" style="fill:#ffffff;fill-opacity:1;fill-rule:evenodd;stroke:none" id="path48254"/>
                                </g>
                                </g>
                                </g>
                                </g>
                                </g>
                              </g>
                            </g>
                          </g>
                        </g>
                      </g>
                    </g>
                    <g transform="translate(4.59801,74.93835)" id="g48284">
                      <g id="g48282">
                        <g id="g48278"/>
                        <path d="m 0,-6.12905 c 2.13364,2.19515 4.26813,4.39115 6.16365,5.45726 1.89581,1.06611 3.5538,1.00261 2.34397,-1.21125 -1.20954,-2.21386 -5.28463,-6.57638 -7.00894,-9.67746 -1.7246,-3.1011 -1.09701,-4.9385 1.41165,-2.8313 2.50838,2.1073 6.89669,8.15815 9.71517,10.75922 2.8185,2.60107 4.0652,1.75039 2.2657,-1.53468 -1.7994,-3.28479 -6.64351,-9.00144 -8.12859,-11.87004 -1.48535,-2.8684 0.38977,-2.8866 3.36959,-0.1446 2.9795,2.7425 7.0628,8.24485 7.9407,8.42683 0.8778,0.18142 -1.4503,-4.95753 -3.7783,-10.09703" style="fill:none;stroke:#aa1111;stroke-width:3.40157;stroke-linecap:round;stroke-linejoin:round;stroke-miterlimit:10;stroke-dasharray:none;stroke-opacity:1" id="path48280"/>
                      </g>
                    </g>
                  </g>
                </g>
              </g>
            </g>
          </g>
        </g>
      </g>
    </g>
  </g>
</svg>