<svg xmlns="http://www.w3.org/2000/svg" width="750" height="450"><path d="M0 0H750V450H0" fill="#fff"/><g fill="#0040a9"><path d="M0 0H750V450H0L750 225"/><path d="M150 162.5A62.5 62.5 0 0 1 204.1 193.8A62.5 62.5 0 0 0 150 225A62.5 62.5 0 0 0 150 162.5"/><path d="M204.1 193.8A62.5 62.5 0 0 1 204.1 256.2A62.5 62.5 0 0 0 150 225A62.5 62.5 0 0 0 204.1 193.8"/><path d="M204.1 256.2A62.5 62.5 0 0 1 150 287.5A62.5 62.5 0 0 0 150 225A62.5 62.5 0 0 0 204.1 256.2"/><path d="M150 287.5A62.5 62.5 0 0 1 95.9 256.2A62.5 62.5 0 0 0 150 225A62.5 62.5 0 0 0 150 287.5"/><path d="M95.9 256.2A62.5 62.5 0 0 1 95.9 193.8A62.5 62.5 0 0 0 150 225A62.5 62.5 0 0 0 95.9 256.2"/><path d="M95.9 193.8A62.5 62.5 0 0 1 150 162.5A62.5 62.5 0 0 0 150 225A62.5 62.5 0 0 0 95.9 193.8"/></g><g fill="#008113"><path d="M95.9 131.3A62.5 62.5 0 0 1 204.1 131.3A62.5 62.5 0 0 0 150 162.5A62.5 62.5 0 0 0 95.9 131.3"/><path d="M204.1 131.3A62.5 62.5 0 0 1 258.2 225A62.5 62.5 0 0 0 204.1 193.8A62.5 62.5 0 0 0 204.1 131.3"/><path d="M258.2 225A62.5 62.5 0 0 1 204.1 318.7A62.5 62.5 0 0 0 204.1 256.2A62.5 62.5 0 0 0 258.2 225"/><path d="M204.1 318.7A62.5 62.5 0 0 1 95.9 318.7A62.5 62.5 0 0 0 150 287.5A62.5 62.5 0 0 0 204.1 318.7"/><path d="M95.9 318.7A62.5 62.5 0 0 1 41.8 225A62.5 62.5 0 0 0 95.9 256.2A62.5 62.5 0 0 0 95.9 318.7"/><path d="M41.8 225A62.5 62.5 0 0 1 95.9 131.3A62.5 62.5 0 0 0 95.9 193.8A62.5 62.5 0 0 0 41.8 225"/></g></svg>