<svg xmlns="http://www.w3.org/2000/svg" width="156" height="156" viewBox="0 0 156 156">
<rect x="0" y="0" width="156" height="156" fill="white" style="stroke-linecap:round"/>
<polygon points="0,0 78,0 52,52" fill="#333" stroke="black" stroke-width="1.5" fill-opacity="0.85"/>
<polygon points="0,0 26,26 0,156" fill="#555" stroke="black" stroke-width="1.5" fill-opacity="0.85"/>
<polygon points="0,156 52,52 26,26" fill="#aaa" stroke="black" stroke-width="1.5" fill-opacity="0.85"/>
<polygon points="0,156 26,104 39,156" fill="#333" stroke="black" stroke-width="1.5" fill-opacity="0.85"/>
<polygon points="39,156 39,78 26,104" fill="#eee" stroke="black" stroke-width="1.5" fill-opacity="0.85"/>
<polygon points="39,156 39,78 52,52 78,78 78,156" fill="#555" stroke="black" stroke-width="1.5" fill-opacity="0.85"/>
<polygon points="52,52 78,78 78,0" fill="#eee" stroke="black" stroke-width="1.5" fill-opacity="0.85"/>
<polygon points="78,0 156,0 156,52 117,78" fill="#aaa" stroke="black" stroke-width="1.5" fill-opacity="0.85"/>
<polygon points="78,0 78,78 104,104 117,78" fill="#555" stroke="black" stroke-width="1.5" fill-opacity="0.85"/>
<polygon points="78,78 78,156 104,104" fill="#eee" stroke="black" stroke-width="1.5" fill-opacity="0.85"/>
<polygon points="117,78 156,78 156,52" fill="#eee" stroke="black" stroke-width="1.5" fill-opacity="0.85"/>
<polygon points="78,156 156,156 104,104" fill="#aaa" stroke="black" stroke-width="1.5" fill-opacity="0.85"/>
<polygon points="104,104 117,78 156,156" fill="#333" stroke="black" stroke-width="1.5" fill-opacity="0.85"/>
<polygon points="156,156 156,78 117,78" fill="#555" stroke="black" stroke-width="1.5" fill-opacity="0.85"/>
</svg>