<?xml version="1.0" encoding="UTF-8"?>
<!-- Generator: Adobe Illustrator 16.0.0, SVG Export Plug-In . SVG Version: 6.00 Build 0)  -->
<!DOCTYPE svg PUBLIC "-//W3C//DTD SVG 1.1//EN" "http://www.w3.org/Graphics/SVG/1.1/DTD/svg11.dtd">
<svg version="1.1" id="Layer_1" xmlns="http://www.w3.org/2000/svg" xmlns:xlink="http://www.w3.org/1999/xlink" x="0px" y="0px" width="136.062px" height="221.103px" viewBox="0 0 136.062 221.103" enable-background="new 0 0 136.062 221.103" xml:space="preserve">
<path fill="#FFFFFF" d="M91.874,4.125C72.397-2.181,45.62,1.261,28.048,11.462c-8.75,5.081-18.671,14.951-21.943,24.64  c-7.148,21.226,5.843,49.008,21.139,63.931c-5.337,8.611-10.926,17.114-14.996,26.405c-10.747,24.42-16.738,56.824,4.163,78.028  c19.751,20.062,56.434,20.65,78.065,3.19c24.093-19.448,33.453-49.258,36.838-78.407C135.636,92.14,138.646,19.273,91.874,4.125z   M31.395,171.879c-4.365-17.698,11.884-39.931,21.127-53.227c0.076-0.104,0.135-0.195,0.196-0.297l12.675-19.213  c-3.737,6.034-7.949,12.436-12.675,19.213l-5.324,8.09c8.037,10.147,17.085,27.619,18.031,40.453  C67.017,188.39,36.854,194.017,31.395,171.879z"/>
<g>
	<g>
		<path fill="none" stroke="#000000" stroke-width="1.5" stroke-linecap="round" stroke-linejoin="round" d="M93.354,18.184    c0.254,0.433,0.494,1.053,0.694,1.866"/>
		
			<path fill="none" stroke="#000000" stroke-width="1.5" stroke-linecap="round" stroke-linejoin="round" stroke-dasharray="3.9287,3.9287" d="    M94.552,23.938c0.478,10.656-4.104,34.777-29.158,75.204c-8.323,15.471-30.21-9.373-24.909-25.154    c1.417-4.187,0.25-11.927-1.514-17.787c-2.988-9.837-7.037-12.503-13.76-18.444"/>
		<path fill="none" stroke="#000000" stroke-width="1.5" stroke-linecap="round" stroke-linejoin="round" d="M23.746,36.446    c-0.477-0.434-0.967-0.885-1.47-1.357"/>
	</g>
</g>
<path fill="none" stroke="#000000" stroke-width="1.5" stroke-linecap="round" stroke-linejoin="round" stroke-miterlimit="10" d="  M28.981,41.051c-1.942-1.716-4.156-3.566-6.705-5.962"/>
<path fill="none" stroke="#000000" stroke-width="1.5" stroke-linecap="round" stroke-linejoin="round" stroke-miterlimit="10" d="  M93.354,18.184c0.663,1.133,1.237,3.548,1.229,7.336"/>
<path fill="none" stroke="#DADAD9" stroke-width="1.5" stroke-linecap="round" stroke-linejoin="round" stroke-miterlimit="10" d="  M54.173,116.147c14.062,20.073,32.451,58.765,4.966,72.733c-17.762,8.821-35.517-3.441-34.104-25.191  c1.612-18.125,16.07-37.643,25.909-52.117c13.143-19.32,26.464-40.792,26.75-64.893c0.141-11.853-9.329-40.751,11.109-40.755  c8.597-0.001,15.127,3.594,20.055,7.738c19.092,16.151,18.881,45.886,19.777,68.501c1.604,40.57-2.963,86.127-32.98,117.126  c-23.059,24.522-76.202,19.154-85.199-16.611c-5.846-23.199,2.773-49.1,14.63-68.923c8.746-14.615,19.624-29.219,25.377-45.353  c4.507-12.618,4.552-25.915-1.732-37.807C41.982,17.82,28.534,9.792,19.887,17.352c-2.718,2.376-5.58,7.446-6.821,12.937  c-5.35,23.653,6.35,42.272,20.181,59.635"/>
<g>
	<g>
		<path fill="none" stroke="#DADAD9" stroke-width="1.5" stroke-linecap="round" stroke-linejoin="round" d="M33.246,89.923    c0.415,0.521,0.833,1.042,1.251,1.561"/>
		
			<path fill="none" stroke="#DADAD9" stroke-width="1.5" stroke-linecap="round" stroke-linejoin="round" stroke-dasharray="4.2223,4.2223" d="    M37.164,94.757c4.993,6.078,10.078,12.043,14.594,18.063"/>
		<path fill="none" stroke="#DADAD9" stroke-width="1.5" stroke-linecap="round" stroke-linejoin="round" d="M53.012,114.519    c0.383,0.527,0.771,1.071,1.161,1.629"/>
	</g>
</g>
<path fill="none" stroke="#000000" stroke-width="1.5" stroke-linecap="round" stroke-linejoin="round" stroke-miterlimit="10" d="  M87.645,13.636c22.888,9.241-27.23,24.73-51.468,24.73c-24.224,0-11.499-11.976-11.499-11.976"/>
<path fill="none" stroke="#000000" stroke-width="1.5" stroke-linecap="round" stroke-linejoin="round" stroke-miterlimit="10" d="  M27.244,100.033c-5.337,8.611-10.926,17.114-14.996,26.405c-10.747,24.42-16.738,56.824,4.163,78.028  c19.751,20.062,56.434,20.65,78.065,3.19c24.093-19.448,33.453-49.258,36.838-78.407c4.322-37.109,7.332-109.976-39.439-125.124  C72.397-2.181,45.62,1.261,28.048,11.462c-8.75,5.081-18.671,14.951-21.943,24.64C-1.043,57.327,11.948,85.109,27.244,100.033"/>
<path fill="none" stroke="#000000" stroke-width="1.5" stroke-linecap="round" stroke-linejoin="round" stroke-miterlimit="10" d="  M40.485,73.988c-3.143,9.33-8.088,17.738-13.241,26.044"/>
<path fill="none" stroke="#000000" stroke-width="1.5" stroke-linecap="round" stroke-linejoin="round" stroke-miterlimit="10" d="  M47.394,126.445c8.037,10.147,17.085,27.619,18.031,40.453c1.592,21.491-28.571,27.118-34.03,4.98  c-4.365-17.698,11.884-39.931,21.127-53.227c4.798-6.891,9.08-13.388,12.871-19.51"/>
<path fill="none" stroke="#000000" stroke-width="1.5" stroke-linecap="round" stroke-linejoin="round" stroke-miterlimit="10" d="  M65.394,99.142c5.119-11.685-18.622-42.012-24.909-25.154"/>
</svg>