<?xml version="1.0" encoding="UTF-8" standalone="no"?>
<!-- Created with Inkscape (http://www.inkscape.org/) -->

<svg
   width="227mm"
   height="110mm"
   viewBox="0 0 227 110"
   version="1.1"
   id="svg1"
   inkscape:version="1.4.3 (0d15f75042, 2025-12-25)"
   sodipodi:docname="toki-len-tu.svg"
   xmlns:inkscape="http://www.inkscape.org/namespaces/inkscape"
   xmlns:sodipodi="http://sodipodi.sourceforge.net/DTD/sodipodi-0.dtd"
   xmlns="http://www.w3.org/2000/svg"
   xmlns:svg="http://www.w3.org/2000/svg">
  <sodipodi:namedview
     id="namedview1"
     pagecolor="#ffffff"
     bordercolor="#000000"
     borderopacity="0.25"
     inkscape:showpageshadow="2"
     inkscape:pageopacity="0.0"
     inkscape:pagecheckerboard="0"
     inkscape:deskcolor="#d1d1d1"
     inkscape:document-units="mm"
     inkscape:zoom="0.76384405"
     inkscape:cx="289.32607"
     inkscape:cy="435.29828"
     inkscape:window-width="1920"
     inkscape:window-height="1008"
     inkscape:window-x="0"
     inkscape:window-y="0"
     inkscape:window-maximized="1"
     inkscape:current-layer="layer1" />
  <defs
     id="defs1" />
  <g
     inkscape:label="Layer 1"
     inkscape:groupmode="layer"
     id="layer1">
    <path
       style="fill:#343434;stroke-width:0.264583;stroke-linecap:round"
       id="path6"
       d="m 134.15494,2 c -0.0498,0.712679 -0.0743,1.427564 -0.14924,2.138037 -0.19411,1.84019 -0.89937,6.694286 -1.09748,8.18053 -0.28429,2.132785 -0.53067,4.270605 -0.82722,6.401718 -0.65364,4.697226 -1.74308,11.626016 -2.45113,16.212116 -2.20708,12.43307 -4.43841,24.86861 -7.2044,37.19215 -0.49293,2.19621 -3.08097,13.04417 -3.68601,15.58687 -1.41583,5.94279 -3.01356,11.83841 -4.80152,17.679249 0,0 7.76774,2.95568 7.76774,2.95568 v 0 c 0.70604,-6.21371 1.53923,-12.412079 2.43573,-18.601129 0.92631,-5.74364 1.60977,-10.17519 2.67874,-15.95192 2.29582,-12.40651 5.16885,-24.69782 7.62552,-37.07229 1.11143,-4.9116 2.402,-10.80274 3.6692,-15.72337 0.51923,-2.016189 1.09068,-4.018751 1.66735,-6.019271 0.62745,-2.176632 1.54967,-5.284745 2.43965,-7.485753 0.24324,-0.60157 0.56712,-1.167299 0.85068,-1.750949 z" />
    <path
       style="fill:#343434;stroke-width:0.264583;stroke-linecap:round"
       id="path7"
       d="m 142.58606,11.57304 c 0.34787,-0.01542 0.69587,-0.02833 1.04362,-0.04631 0.95167,-0.0492 1.90169,-0.150825 2.85463,-0.155209 4.9499,-0.02278 6.55358,0.207015 11.7553,0.715123 8.66712,0.846611 6.92417,0.693434 15.65681,1.862331 2.534,0.368154 5.0692,0.72816 7.602,1.104463 6.30533,0.936803 6.85302,1.077474 12.92108,1.92898 4.58103,0.642837 9.16756,1.231526 13.74455,1.903999 3.00648,0.405591 5.9845,0.981084 8.9519,1.604564 1.5132,0.31794 3.01983,0.61346 4.49932,1.06232 0.91991,0.29943 0.50378,0.14966 1.25269,0.43718 0,0 -3.92311,-8.873766 -3.92311,-8.873766 v 0 c -0.78855,-0.04851 -0.35616,-0.01995 -1.29699,-0.08821 -4.35004,-0.238797 -8.68019,-0.746524 -13.01942,-1.120587 -10.21063,-0.730597 3.0834,0.201538 -8.12852,-0.51676 -8.36557,-0.535948 -16.72205,-1.268418 -25.03105,-2.39036 -10.00913,-1.379376 -5.93216,-0.730462 -15.95825,-2.464337 -2.30426,-0.398492 -4.61499,-0.762794 -6.91,-1.211543 -4.4949,-0.878901 -5.3781,-1.214551 -9.27148,-2.081141 -0.44003,-0.09794 -0.88491,-0.17258 -1.32736,-0.258868 z" />
    <path
       style="fill:#343434;stroke-width:0.264583;stroke-linecap:round"
       id="path8"
       d="m 216.94204,17.109308 c -0.12289,1.585344 -0.35301,4.671433 -0.51121,5.824313 -0.23198,1.69045 -0.56042,3.36645 -0.87122,5.0442 -0.84722,4.57336 -1.44354,7.39641 -2.52477,11.94769 -0.46661,1.9641 -0.97758,3.9174 -1.46637,5.87611 -0.46718,1.87372 -0.93055,3.7484 -1.40154,5.62117 -0.73389,2.91817 -1.71123,6.60949 -2.36027,9.57955 -0.86491,3.95791 -1.51051,7.96341 -2.1652,11.9598 -0.54742,3.81576 -1.33535,7.58585 -2.20197,11.33934 0,0 8.29299,2.94098 8.29299,2.94098 v 0 c 0.35654,-3.90743 0.74537,-7.8143 1.34792,-11.69298 1.18977,-9.15324 2.42371,-18.31957 4.6178,-27.29838 1.37708,-5.90958 2.79459,-11.79543 4.51429,-17.61711 0.4744,-1.60599 0.93906,-3.21661 1.49638,-4.79574 0.65196,-1.84726 1.37914,-3.38712 2.16701,-5.11615 z" />
    <path
       style="fill:#343434;stroke-width:0.264583;stroke-linecap:round"
       id="path9"
       d="m 134.42483,67.615101 c 0.49603,-0.0157 0.99186,-0.0543 1.48808,-0.0471 7.55635,0.10935 14.96888,1.86732 22.29065,3.55849 10.80319,2.56956 21.44007,5.7579 32.07205,8.94656 3.14878,0.8769 6.27821,1.84453 9.44887,2.64264 0.87136,0.21934 1.75243,0.39814 2.62809,0.5997 2.82711,0.65074 1.77132,0.39481 4.40367,1.08155 2.51629,0.59878 5.02105,1.25037 7.57913,1.64549 0,0 -4.18983,-8.61284 -4.18983,-8.61284 v 0 c -2.32554,-0.29881 -4.63914,-0.69691 -6.94473,-1.11989 -0.97193,-0.17824 -3.36284,-0.61229 -4.27674,-0.79917 -3.87829,-0.79302 -7.73236,-1.70576 -11.60698,-2.51623 -4.60997,-1.01725 -9.20262,-2.09878 -13.77946,-3.25756 -7.45378,-1.88718 -4.28704,-1.15268 -11.89572,-3.11492 -2.00711,-0.51762 -4.02025,-1.01159 -6.03037,-1.51739 -2.00835,-0.49454 -4.01851,-0.98175 -6.02504,-1.48363 -3.65214,-0.91348 -7.34319,-1.89964 -11.01522,-2.74367 -2.55574,-0.58745 -4.21865,-0.85593 -6.68085,-1.42841 -0.61518,-0.14304 -1.22332,-0.31485 -1.83498,-0.47227 z" />
    <path
       style="fill:#343434;stroke-width:0.264583;stroke-linecap:round"
       id="path10"
       d="m 158.55784,10.823938 c -0.008,0.273915 0.006,0.549408 -0.0248,0.821746 -0.063,0.562798 -0.17234,1.119449 -0.25538,1.679646 -0.49841,3.362227 -0.61374,4.544137 -1.38613,8.196411 -1.10522,5.22608 -1.72929,7.18884 -3.1619,12.41792 -2.71457,8.92087 -5.68951,17.75996 -8.73126,26.57375 -0.62106,1.82908 -1.18933,3.67473 -1.73343,5.52784 0,0 8.9965,3.19864 8.9965,3.19864 v 0 c 0.0381,-1.85294 0.26646,-3.69316 0.57851,-5.51951 1.62103,-9.23368 3.91098,-18.33613 6.65545,-27.29917 1.45358,-4.51977 2.40559,-7.66102 4.04413,-12.07577 1.13239,-3.05101 1.8731,-4.68454 3.07432,-7.492956 0.86746,-2.028084 0.39265,-0.983149 1.13301,-2.564548 z" />
    <path
       style="fill:#343434;stroke-width:0.264583;stroke-linecap:round"
       id="path11"
       d="m 137.35845,37.385061 c 3.80404,0.91669 7.58651,1.90692 11.33301,3.03781 2.37626,0.55887 4.63112,1.54116 6.98418,2.17144 0.61486,0.20932 1.24042,0.0731 1.85947,-0.0279 0,0 -4.98241,-8.5646 -4.98241,-8.5646 v 0 c -0.26346,-0.0837 -0.3826,-0.39438 -0.72095,-0.3367 -2.15134,-0.43167 -4.32479,-0.76693 -6.44298,-1.3566 -1.49279,-0.38809 -2.93252,-0.74462 -4.40774,-1.20485 -1.31631,-0.41065 -3.12172,-1.0552 -4.42017,-1.57517 -0.57584,-0.2306 -1.13679,-0.497 -1.7104,-0.73306 -0.37876,-0.15587 -0.76417,-0.29503 -1.14626,-0.44255 z" />
    <path
       style="fill:#343434;stroke-width:0.264583;stroke-linecap:round"
       id="path6-2"
       d="m 93.720935,108.34635 c 0.04975,-0.71268 0.0743,-1.42757 0.149246,-2.13804 0.194109,-1.84019 0.899367,-6.694289 1.097476,-8.180529 0.284292,-2.13278 0.53067,-4.2706 0.827223,-6.40172 0.653632,-4.69722 1.743077,-11.62601 2.451126,-16.21211 2.207084,-12.43307 4.438414,-24.86861 7.204404,-37.19215 0.49293,-2.19621 3.08097,-13.04417 3.68601,-15.58687 1.41583,-5.942791 3.01356,-11.838411 4.80152,-17.679251 0,0 -7.76774,-2.95568 -7.76774,-2.95568 v 0 c -0.70604,6.213709 -1.53923,12.41208 -2.43573,18.601131 -0.92631,5.74364 -1.60977,10.17519 -2.67874,15.95192 -2.295824,12.40651 -5.168849,24.69782 -7.625524,37.07229 -1.11143,4.9116 -2.402004,10.80274 -3.669205,15.72336 -0.519229,2.0162 -1.090671,4.01876 -1.667348,6.01928 -0.627447,2.17663 -1.549668,5.284739 -2.439644,7.485749 -0.243245,0.60157 -0.567121,1.1673 -0.85068,1.75095 z" />
    <path
       style="fill:#343434;stroke-width:0.264583;stroke-linecap:round"
       id="path7-9"
       d="m 85.289818,98.773311 c -0.347871,0.0154 -0.695867,0.0283 -1.043617,0.0463 -0.951677,0.0492 -1.901693,0.15082 -2.854632,0.15521 -4.949904,0.0228 -6.553581,-0.20702 -11.755302,-0.71513 -8.667118,-0.84661 -6.924175,-0.69343 -15.656809,-1.86233 -2.534002,-0.36815 -5.069201,-0.72816 -7.602003,-1.10446 -6.305333,-0.9368 -6.853016,-1.07747 -12.92108,-1.92898 -4.581029,-0.64284 -9.167555,-1.23153 -13.744545,-1.904 -3.00648,-0.40559 -5.9845,-0.98108 -8.9519,-1.60457 -1.5132,-0.31793 -3.01983,-0.61346 -4.49932,-1.06231 -0.91991,-0.29943 -0.50378,-0.14966 -1.25269,-0.43718 0,0 3.92311,8.87376 3.92311,8.87376 v 0 c 0.78855,0.0485 0.35616,0.0199 1.29699,0.0882 4.35004,0.2388 8.68019,0.74653 13.01942,1.12059 10.210625,0.7306 -3.0834,-0.20154 8.128515,0.51676 8.36557,0.53595 16.722056,1.268419 25.03105,2.390359 10.009134,1.37938 5.932164,0.73046 15.958248,2.46434 2.304267,0.39849 4.614992,0.76279 6.909999,1.21154 4.494903,0.8789 5.3781,1.21455 9.271489,2.08114 0.440021,0.0979 0.884901,0.17258 1.327354,0.25887 z" />
    <path
       style="fill:#343434;stroke-width:0.264583;stroke-linecap:round"
       id="path8-3"
       d="m 10.93384,93.237041 c 0.12289,-1.58534 0.35301,-4.67143 0.51121,-5.82431 0.23198,-1.69045 0.56042,-3.36645 0.87122,-5.0442 0.84722,-4.57336 1.44354,-7.39641 2.52477,-11.94769 0.46661,-1.9641 0.97758,-3.9174 1.46637,-5.87611 0.46718,-1.87372 0.93055,-3.7484 1.40154,-5.62117 0.73389,-2.91817 1.71123,-6.60949 2.36027,-9.57955 0.86491,-3.95791 1.51051,-7.96341 2.1652,-11.9598 0.54742,-3.81576 1.33535,-7.58585 2.20197,-11.33934 0,0 -8.29299,-2.94098 -8.29299,-2.94098 v 0 c -0.35654,3.90743 -0.74537,7.8143 -1.34792,11.69298 -1.18977,9.15324 -2.42371,18.31957 -4.6178,27.29838 -1.37708,5.90958 -2.79459,11.79543 -4.51429,17.61711 -0.4744,1.60599 -0.93906,3.21661 -1.49638,4.79574 C 3.51505,86.355361 2.78787,87.895221 2,89.624251 Z" />
    <path
       style="fill:#343434;stroke-width:0.264583;stroke-linecap:round"
       id="path9-1"
       d="m 93.451044,42.731251 c -0.496025,0.0157 -0.991854,0.0543 -1.488077,0.0471 -7.556349,-0.10935 -14.968884,-1.86732 -22.290654,-3.55849 -10.803191,-2.56956 -21.440063,-5.7579 -32.07205,-8.94656 -3.148777,-0.8769 -6.278207,-1.84453 -9.448867,-2.64264 -0.87136,-0.21934 -1.752426,-0.39814 -2.628086,-0.5997 -2.82711,-0.65074 -1.77132,-0.39481 -4.40367,-1.08155 -2.51629,-0.59878 -5.02105,-1.25037 -7.57913,-1.64549 0,0 4.18983,8.61284 4.18983,8.61284 v 0 c 2.32554,0.29881 4.63914,0.69691 6.94473,1.11989 0.97193,0.17824 3.362836,0.61229 4.276736,0.79917 3.87829,0.79302 7.732361,1.70576 11.606978,2.51623 4.60997,1.01725 9.202618,2.09878 13.77946,3.25756 7.453786,1.88718 4.287041,1.15268 11.895727,3.11492 2.007108,0.51762 4.020246,1.01159 6.030367,1.51739 2.008344,0.49454 4.018511,0.98175 6.025034,1.48363 3.652147,0.91348 7.34319,1.89964 11.015226,2.74367 2.55574,0.58745 4.218651,0.85593 6.680848,1.42841 0.615182,0.14304 1.223319,0.31485 1.834978,0.47227 z" />
    <path
       style="fill:#343434;stroke-width:0.264583;stroke-linecap:round"
       id="path10-9"
       d="m 69.318034,99.522411 c 0.0083,-0.27392 -0.0057,-0.54941 0.02476,-0.82175 0.06303,-0.56279 0.172341,-1.11945 0.255383,-1.67964 0.498412,-3.36223 0.613736,-4.54414 1.386126,-8.19641 1.10522,-5.22608 1.729298,-7.18884 3.161903,-12.41792 2.714567,-8.92087 5.689507,-17.75996 8.731261,-26.57375 0.621061,-1.82908 1.189328,-3.67473 1.733433,-5.52784 0,0 -8.996505,-3.19864 -8.996505,-3.19864 v 0 c -0.03806,1.85294 -0.266459,3.69316 -0.578506,5.51951 -1.621031,9.23368 -3.910984,18.33613 -6.655454,27.29917 -1.453576,4.51977 -2.405586,7.66102 -4.044127,12.07577 -1.132387,3.051 -1.873102,4.68454 -3.074326,7.49295 -0.86746,2.02809 -0.392644,0.98315 -1.133004,2.56455 z" />
    <path
       style="fill:#343434;stroke-width:0.264583;stroke-linecap:round"
       id="path11-4"
       d="m 90.517426,72.961291 c -3.804036,-0.91669 -7.586509,-1.90692 -11.333008,-3.03781 -2.376266,-0.55887 -4.631119,-1.54116 -6.984183,-2.17144 -0.614857,-0.20932 -1.240422,-0.0731 -1.859468,0.0279 0,0 4.982411,8.5646 4.982411,8.5646 v 0 c 0.263462,0.0837 0.382596,0.39438 0.720948,0.3367 2.151345,0.43167 4.324786,0.76693 6.442979,1.3566 1.492793,0.38809 2.932518,0.74462 4.407744,1.20485 1.31631,0.41065 3.121713,1.0552 4.420172,1.57517 0.575834,0.2306 1.136785,0.497 1.710399,0.73306 0.378753,0.15587 0.764169,0.29503 1.146254,0.44255 z" />
  </g>
</svg>
