<?xml version="1.0" encoding="UTF-8"?>
<svg width="210mm" height="297mm" version="1.1" viewBox="0 0 210 297" xmlns="http://www.w3.org/2000/svg"><g transform="translate(3.1496 2.2413)"><path d="m141.63 7.9515-14.593 2.3384-8.6062-2.2448-10.103 4.022-11.225-3.5543-9.1674 2.2448-7.2027-1.9642-4.9578 2.2448-3.5548-1.4965-5.0514-1.1224-8.7933 3.4608-7.0156-2.806-4.7708 2.1513-3.3678-2.1513-3.7419 2.2448-6.4544-2.619-7.9515 2.7125-2.2448-1.0289-13.751-1.0289 3.5548 15.996-3.5548 6.3614 1.9642 6.3609-1.6836 1.2159 1.4965 6.1738-2.4319 3.5548 3.6478 7.1096-3.8349 4.209 2.0578 3.5548-1.6836 8.045 0.2806 14.967 2.9636 7.8579-2.5001 3.9992v14.054l2.5001 3.4453-2.5001 10 2.5001 8.8181-2.5001 3.682 1.033 6.4208-1.033 11.079 2.5001 7.5003-2.5001 4.9997 1.3136 7.5003-1.3136 4.9997 1.4071 12.5-1.4071 9.9999v5.0002l2.5001 7.4998-2.5001 9.9999 2.5001 7.5003-1.279 3.9502 0.18604 8.5499-1.4071 4.9997 2.5001 4.023-3.7119 5.9774 3.7119 6.0896-2.5001 16.41 16.655-2.4722 4.7708 3.0872 6.5484-1.7777 4.4902 1.4971 6.735-1.8712 3.1807 2.0583 5.2384-3.1807 5.2384 2.9936 5.332-2.1518 4.2096 2.2453 4.9578-2.2453 10.757 2.0583 8.6062-3.8354 10.383 3.1807 9.3545-1.9647 6.5479 2.2454 6.2678-2.9001 7.2027 3.1807 9.448-3.1807 5.4255 2.8066 6.7355-1.8712 4.022 1.7777 3.6484-0.93586 5.8932 1.31 5.2384-2.713 7.0161 1.6836 11.319 1.31-3.1802-16.651 3.4608-6.1738-2.8996-7.3902 2.2448-3.6478-1.7772-4.3966 2.3384-5.4255-2.0578-4.8643 2.2448-5.519-1.403-4.3966 1.7772-4.3966-2.2448-6.5484 2.2448-4.3966-2.7125-12.628 1.8707-4.6772-1.4966-6.3608 2.0578-3.7419-2.0578-6.9226 1.9642-4.6772-1.8707-13.751 1.4966-6.4549-2.3384-5.7996 2.3384-7.0156-1.5901-11.319 1.403-6.3608-2.8996-5.4255 3.5543-5.332-2.4319-13.19 1.4966-4.3031-0.93534-5.7996 2.1513-2.9001-2.8996-8.138 2.4319-8.7933-4.3031-9.2609 4.0225-6.1738-1.403-4.9578 1.4966-5.1449-1.6836-4.2096 2.1513-4.2096-3.3672-7.5773 2.806-16.651-15.622 3.3672-4.3966-3.0866-17.025 1.2159-4.3031-1.9642-6.3614 2.2448zm-47.037 13.083 7.7391 2.3151 25.003-0.92604 18.058-1.1245 7.276 3.4396 5.424-2.9766 2.8443 2.5797-1.7859 9.6573 9.7896-3.7703 3.2411 3.9688-2.4474 9.4589 9.9219-3.5719 0.39688 12.568v54.835l0.13229 24.937 0.13229 26.194-0.0661 25.334-0.59532 20.902 0.19844 34.264 1.4552 8.1359-1.9844 4.2995-10.12-3.175 2.7781 9.062-3.3734 3.0427-9.1281-2.0505 1.3891 10.385-12.435 0.7276-24.408-0.66146-20.373 0.8599-18.984-0.8599-21.101 1.1245-10.186-0.33073-7.9375 1.7198-2.9104-4.2995 1.6536-8.9958-7.9375 3.2412-4.6964-6.0854 2.7781-6.6146-10.253 2.1167-0.46302-16.603 0.13229-15.147 0.39688-24.342-0.8599-32.213 1.1245-24.474-1.0583-25.665 0.92604-28.178-1.1906-39.555 0.39688-3.2411 11.112 2.712-2.6458-8.9958 3.5057-3.8365 8.9297 3.2411-0.46306-9.062 2.249-3.0427 14.817 0.92604 15.28-0.26458z"/><g fill="none"><path d="m61.85 283.76c5.1052 0 7.5-2.5 7.5-10-7.5 0-12.5 10-17.5 10s-7.5-2.5-7.5-7.5 2.5-7.5 7.5-7.5c7.5 0 12.5 15 20 15s10-15 25-15c7.5 0 12.5 2.5 12.5 10-7.5 0-7.5-5-15-5-1e-5 7.5 5 10 12.5 10 15 0 17.5-15 25-15s12.5 15 20 15c5 0 7.5-2.5 7.5-7.5s-2.5-7.5-7.5-7.5-10 10-17.5 10c0-7.5 2.5-10 7.5-10s15 15 20 15 32.5-27.5 32.5-32.5c0-7.5-15-10-15-25s10-15 10-22.5c-7.5 0-10 2.5-10 7.5 0 5 2.5 7.5 7.5 7.5s7.5-5 7.5-12.5c0-7.5-10-16.131-10-22.5 7.5 0 10 2.5 10 7.5 0 5-2.5 7.5-7.5 7.5s-7.5-2.5-7.5-12.5c0-10 10-15 10-22.5-7.5 0-10 2.5-10 7.5s2.5 7.5 7.5 7.5 7.5-2.5 7.5-12.5c0-15-15-17.5-15-25 0-5 2.5-7.5 10-7.5 0 12.5-10 7.5-10 22.5s15 15 15 25-15 10-15 20c0 10 15 10 15 20s-15 12.5-15 20c0 5 2.5 7.5 7.5 7.5s7.5-2.5 7.5-7.5-10-10-10-17.5c7.5 0 10 2.5 10 7.5 0 7.5-47.5 52.5-57.5 52.5s-15-10-22.5-10c0 7.5 2.5 10 7.5 10s7.5-2.5 7.5-7.5-2.5-7.5-12.5-7.5-20 15-30 15c-10 0-12.5-2.5-12.5-7.5s2.5-7.5 7.5-7.5c5 0 7.5 2.5 7.5 10-7.5 0-12.5-10-22.5-10s-15 15-25 15-32.5-27.5-32.5-32.5c0-7.5 15-15 15-20s-2.5-7.5-10-7.5c-1e-5 7.5 10 12.5 10 17.5 0 5-2.5 7.5-7.5 7.5s-7.5-2.5-7.5-7.5c-1e-5 -7.5 15-10 15-20 0-10-15-10-15-20s15-10 15-20-15-10-15-25 10-10 10-22.5c-7.5 0-10 2.5-10 7.5 1e-5 7.5 15 10 15 25 0 10-2.5 12.5-7.5 12.5s-7.5-2.5-7.5-7.5 2.5-7.5 10-7.5c-1e-5 7.5-10 12.5-10 22.5-1e-5 10 2.5 12.5 7.5 12.5 5 0 7.5-2.5 7.5-7.5s-2.5-7.5-10-7.5c-1e-5 7.5 10 12.5 10 22.5 0 10-2.5 12.5-7.5 12.5-5 0-7.5-2.5-7.5-7.5 1e-5 -5 2.5-7.5 10-7.5-1e-5 7.5-10 10-10 22.5 0 10 45 57.5 52.5 57.5zm80-275c-5.1052 0-7.5 2.5-7.5 10 7.5 0 12.5-10 17.5-10s7.5 2.5 7.5 7.5-2.5 7.5-7.5 7.5c-7.5 0-12.5-15-20-15s-10 15-25 15c-7.5 0-12.5-2.5-12.5-10 7.5 0 7.5 5 15 5 1e-5 -7.5-5.2274-10.087-12.5-10-14.999 0.1784-17.5 15-25 15s-12.5-15-20-15c-5 0-7.5 2.5-7.5 7.5-1e-5 5 2.5 7.5 7.5 7.5s10-10 17.5-10c0 7.5-2.5 10-7.5 10s-15-15-20-15c-5 0-32.5 27.5-32.5 32.5 0 7.5 15 10 15 25 0 15-10 15-10 22.5 7.5 0 10-2.5 10-7.5s-2.5-7.5-7.5-7.5-7.5 5-7.5 12.5 10 16.131 10 22.5c-7.5 0-10-2.5-10-7.5s2.5-7.5 7.5-7.5 7.5 2.5 7.5 12.5-10 15-10 22.5c7.5 0 10-2.5 10-7.5s-2.5-7.5-7.5-7.5-7.5 2.5-7.5 12.5c0 15 15 17.5 15 25 0 5-2.5 7.5-10 7.5 0-12.5 10-7.5 10-22.5s-15-15-15-25 15-10 15-20-15-10-15-20c0-10 15-12.5 15-20 0-5-2.5-7.5-7.5-7.5s-7.5 2.5-7.5 7.5 10 10 10 17.5c-7.5 0-10-2.5-10-7.5 0-7.5 47.5-52.5 57.5-52.5s15 10 22.5 10c0-7.5-2.5-10-7.5-10s-7.5 2.5-7.5 7.5 2.5 7.5 12.5 7.5c10 0 20-15 30-15s12.5 2.5 12.5 7.5-2.5 7.5-7.5 7.5-7.5-2.5-7.5-10c7.5 0 12.5 10 22.5 10s15-15 25-15 32.5 27.5 32.5 32.5c0 7.5-15 15-15 20s2.5 7.5 10 7.5c1e-5 -7.5-10-12.5-10-17.5 0-5 2.5-7.5 7.5-7.5s7.5 2.5 7.5 7.5c1e-5 7.5-15 10-15 20 0 10 15 10 15 20s-15 10-15 20 15 10 15 25-10 10-10 22.5c7.5 0 10-2.5 10-7.5 1e-5 -7.5-15-10-15-25 0-10 2.5-12.5 7.5-12.5s7.5 2.5 7.5 7.5-2.5 7.5-10 7.5c1e-5 -7.5 10-12.5 10-22.5s-2.5-12.5-7.5-12.5-7.5 2.5-7.5 7.5c0 5 2.5 7.5 10 7.5 1e-5 -7.5-10-12.5-10-22.5s2.5-12.5 7.5-12.5 7.5 2.5 7.5 7.5-2.5 7.5-10 7.5c1e-5 -7.5 10-10 10-22.5 0-10-45-57.5-52.5-57.5zm27.5 240c0 7.5 5 7.5 5 12.5s-2.5 7.5-7.5 7.5-7.5-2.5-7.5-10c12.5 0 20 20 30 20 0-7.5-10-12.5-10-17.5s2.5-7.5 7.5-7.5 7.5 2.5 7.5 7.5-17.5 22.5-22.5 22.5-7.5-2.5-7.5-10c12.5 0 7.5 10 30 10 0-22.5-17.5-35-25-35zm-135 0c0 7.5-5 7.5-5 12.5s2.5 7.5 7.5 7.5 7.5-2.5 7.5-10c-12.5 0-20 20-30 20 0-7.5 10-12.5 10-17.5s-2.5-7.5-7.5-7.5-7.5 2.5-7.5 7.5 17.5 22.5 22.5 22.5 7.5-2.5 7.5-10c-12.5 0-7.5 10-30 10 0-2.8153 0.27398-5.474 0.76807-7.9713 3.4547-17.461 17.67-27.029 24.232-27.029zm135-205c0-7.5 5-7.5 5-12.5s-2.5-7.5-7.5-7.5-7.5 2.5-7.5 10c12.5 0 20-20 30-20 0 7.5-10 12.5-10 17.5s2.5 7.5 7.5 7.5 7.5-2.5 7.5-7.5-17.5-22.5-22.5-22.5-7.5 2.5-7.5 10c12.5 0 7.5-10 30-10 0 22.5-17.5 35-25 35zm-135 0c0-7.5-5-7.5-5-12.5s2.5-7.5 7.5-7.5 7.5 2.5 7.5 10c-12.5 0-20-20-30-20 0 7.5 10 12.5 10 17.5s-2.5 7.5-7.5 7.5-7.5-2.5-7.5-7.5 17.5-22.5 22.5-22.5 7.5 2.5 7.5 10c-12.5 0-7.5-10-30-10 0 22.5 17.5 35 25 35z" stop-color="#000000" stroke="#000" stroke-width="5" style="-inkscape-stroke:none;font-variation-settings:normal"/><path d="m61.85 283.76c5.1052 0 7.5-2.5 7.5-10-7.5 0-12.5 10-17.5 10s-7.5-2.5-7.5-7.5 2.5-7.5 7.5-7.5c7.5 0 12.5 15 20 15s10-15 25-15c7.5 0 12.5 2.5 12.5 10-7.5 0-7.5-5-15-5-1e-5 7.5 5 10 12.5 10 15 0 17.5-15 25-15s12.5 15 20 15c5 0 7.5-2.5 7.5-7.5s-2.5-7.5-7.5-7.5-10 10-17.5 10c0-7.5 2.5-10 7.5-10s15 15 20 15 32.5-27.5 32.5-32.5c0-7.5-15-10-15-25s10-15 10-22.5c-7.5 0-10 2.5-10 7.5 0 5 2.5 7.5 7.5 7.5s7.5-5 7.5-12.5c0-7.5-10-16.131-10-22.5 7.5 0 10 2.5 10 7.5 0 5-2.5 7.5-7.5 7.5s-7.5-2.5-7.5-12.5c0-10 10-15 10-22.5-7.5 0-10 2.5-10 7.5s2.5 7.5 7.5 7.5 7.5-2.5 7.5-12.5c0-15-15-17.5-15-25 0-5 2.5-7.5 10-7.5 0 12.5-10 7.5-10 22.5s15 15 15 25-15 10-15 20c0 10 15 10 15 20s-15 12.5-15 20c0 5 2.5 7.5 7.5 7.5s7.5-2.5 7.5-7.5-10-10-10-17.5c7.5 0 10 2.5 10 7.5 0 7.5-47.5 52.5-57.5 52.5s-15-10-22.5-10c0 7.5 2.5 10 7.5 10s7.5-2.5 7.5-7.5-2.5-7.5-12.5-7.5-20 15-30 15c-10 0-12.5-2.5-12.5-7.5s2.5-7.5 7.5-7.5c5 0 7.5 2.5 7.5 10-7.5 0-12.5-10-22.5-10s-15 15-25 15-32.5-27.5-32.5-32.5c0-7.5 15-15 15-20s-2.5-7.5-10-7.5c-1e-5 7.5 10 12.5 10 17.5 0 5-2.5 7.5-7.5 7.5s-7.5-2.5-7.5-7.5c-1e-5 -7.5 15-10 15-20 0-10-15-10-15-20s15-10 15-20-15-10-15-25 10-10 10-22.5c-7.5 0-10 2.5-10 7.5 1e-5 7.5 15 10 15 25 0 10-2.5 12.5-7.5 12.5s-7.5-2.5-7.5-7.5 2.5-7.5 10-7.5c-1e-5 7.5-10 12.5-10 22.5-1e-5 10 2.5 12.5 7.5 12.5 5 0 7.5-2.5 7.5-7.5s-2.5-7.5-10-7.5c-1e-5 7.5 10 12.5 10 22.5 0 10-2.5 12.5-7.5 12.5-5 0-7.5-2.5-7.5-7.5 1e-5 -5 2.5-7.5 10-7.5-1e-5 7.5-10 10-10 22.5 0 10 45 57.5 52.5 57.5zm80-275c-5.1052 0-7.5 2.5-7.5 10 7.5 0 12.5-10 17.5-10s7.5 2.5 7.5 7.5-2.5 7.5-7.5 7.5c-7.5 0-12.5-15-20-15s-10 15-25 15c-7.5 0-12.5-2.5-12.5-10 7.5 0 7.5 5 15 5 1e-5 -7.5-5.2274-10.087-12.5-10-14.999 0.1784-17.5 15-25 15s-12.5-15-20-15c-5 0-7.5 2.5-7.5 7.5-1e-5 5 2.5 7.5 7.5 7.5s10-10 17.5-10c0 7.5-2.5 10-7.5 10s-15-15-20-15c-5 0-32.5 27.5-32.5 32.5 0 7.5 15 10 15 25 0 15-10 15-10 22.5 7.5 0 10-2.5 10-7.5s-2.5-7.5-7.5-7.5-7.5 5-7.5 12.5 10 16.131 10 22.5c-7.5 0-10-2.5-10-7.5s2.5-7.5 7.5-7.5 7.5 2.5 7.5 12.5-10 15-10 22.5c7.5 0 10-2.5 10-7.5s-2.5-7.5-7.5-7.5-7.5 2.5-7.5 12.5c0 15 15 17.5 15 25 0 5-2.5 7.5-10 7.5 0-12.5 10-7.5 10-22.5s-15-15-15-25 15-10 15-20-15-10-15-20c0-10 15-12.5 15-20 0-5-2.5-7.5-7.5-7.5s-7.5 2.5-7.5 7.5 10 10 10 17.5c-7.5 0-10-2.5-10-7.5 0-7.5 47.5-52.5 57.5-52.5s15 10 22.5 10c0-7.5-2.5-10-7.5-10s-7.5 2.5-7.5 7.5 2.5 7.5 12.5 7.5c10 0 20-15 30-15s12.5 2.5 12.5 7.5-2.5 7.5-7.5 7.5-7.5-2.5-7.5-10c7.5 0 12.5 10 22.5 10s15-15 25-15 32.5 27.5 32.5 32.5c0 7.5-15 15-15 20s2.5 7.5 10 7.5c1e-5 -7.5-10-12.5-10-17.5 0-5 2.5-7.5 7.5-7.5s7.5 2.5 7.5 7.5c1e-5 7.5-15 10-15 20 0 10 15 10 15 20s-15 10-15 20 15 10 15 25-10 10-10 22.5c7.5 0 10-2.5 10-7.5 1e-5 -7.5-15-10-15-25 0-10 2.5-12.5 7.5-12.5s7.5 2.5 7.5 7.5-2.5 7.5-10 7.5c1e-5 -7.5 10-12.5 10-22.5s-2.5-12.5-7.5-12.5-7.5 2.5-7.5 7.5c0 5 2.5 7.5 10 7.5 1e-5 -7.5-10-12.5-10-22.5s2.5-12.5 7.5-12.5 7.5 2.5 7.5 7.5-2.5 7.5-10 7.5c1e-5 -7.5 10-10 10-22.5 0-10-45-57.5-52.5-57.5zm27.5 240c0 7.5 5 7.5 5 12.5s-2.5 7.5-7.5 7.5-7.5-2.5-7.5-10c12.5 0 20 20 30 20 0-7.5-10-12.5-10-17.5s2.5-7.5 7.5-7.5 7.5 2.5 7.5 7.5-17.5 22.5-22.5 22.5-7.5-2.5-7.5-10c12.5 0 7.5 10 30 10 0-22.5-17.5-35-25-35zm-135 0c0 7.5-5 7.5-5 12.5s2.5 7.5 7.5 7.5 7.5-2.5 7.5-10c-12.5 0-20 20-30 20 0-7.5 10-12.5 10-17.5s-2.5-7.5-7.5-7.5-7.5 2.5-7.5 7.5 17.5 22.5 22.5 22.5 7.5-2.5 7.5-10c-12.5 0-7.5 10-30 10 0-2.8153 0.27398-5.474 0.76807-7.9713 3.4547-17.461 17.67-27.029 24.232-27.029zm135-205c0-7.5 5-7.5 5-12.5s-2.5-7.5-7.5-7.5-7.5 2.5-7.5 10c12.5 0 20-20 30-20 0 7.5-10 12.5-10 17.5s2.5 7.5 7.5 7.5 7.5-2.5 7.5-7.5-17.5-22.5-22.5-22.5-7.5 2.5-7.5 10c12.5 0 7.5-10 30-10 0 22.5-17.5 35-25 35zm-135 0c0-7.5-5-7.5-5-12.5s2.5-7.5 7.5-7.5 7.5 2.5 7.5 10c-12.5 0-20-20-30-20 0 7.5 10 12.5 10 17.5s-2.5 7.5-7.5 7.5-7.5-2.5-7.5-7.5 17.5-22.5 22.5-22.5 7.5 2.5 7.5 10c-12.5 0-7.5-10-30-10 0 22.5 17.5 35 25 35z" stop-color="#000000" stroke="#bbb" stroke-width="3.3" style="-inkscape-stroke:none;font-variation-settings:normal"/><path d="m61.85 283.76c5.1052 0 7.5-2.5 7.5-10-7.5 0-12.5 10-17.5 10s-7.5-2.5-7.5-7.5 2.5-7.5 7.5-7.5c7.5 0 12.5 15 20 15s10-15 25-15c7.5 0 12.5 2.5 12.5 10-7.5 0-7.5-5-15-5-1e-5 7.5 5 10 12.5 10 15 0 17.5-15 25-15s12.5 15 20 15c5 0 7.5-2.5 7.5-7.5s-2.5-7.5-7.5-7.5-10 10-17.5 10c0-7.5 2.5-10 7.5-10s15 15 20 15 32.5-27.5 32.5-32.5c0-7.5-15-10-15-25s10-15 10-22.5c-7.5 0-10 2.5-10 7.5 0 5 2.5 7.5 7.5 7.5s7.5-5 7.5-12.5c0-7.5-10-16.131-10-22.5 7.5 0 10 2.5 10 7.5 0 5-2.5 7.5-7.5 7.5s-7.5-2.5-7.5-12.5c0-10 10-15 10-22.5-7.5 0-10 2.5-10 7.5s2.5 7.5 7.5 7.5 7.5-2.5 7.5-12.5c0-15-15-17.5-15-25 0-5 2.5-7.5 10-7.5 0 12.5-10 7.5-10 22.5s15 15 15 25-15 10-15 20c0 10 15 10 15 20s-15 12.5-15 20c0 5 2.5 7.5 7.5 7.5s7.5-2.5 7.5-7.5-10-10-10-17.5c7.5 0 10 2.5 10 7.5 0 7.5-47.5 52.5-57.5 52.5s-15-10-22.5-10c0 7.5 2.5 10 7.5 10s7.5-2.5 7.5-7.5-2.5-7.5-12.5-7.5-20 15-30 15c-10 0-12.5-2.5-12.5-7.5s2.5-7.5 7.5-7.5c5 0 7.5 2.5 7.5 10-7.5 0-12.5-10-22.5-10s-15 15-25 15-32.5-27.5-32.5-32.5c0-7.5 15-15 15-20s-2.5-7.5-10-7.5c-1e-5 7.5 10 12.5 10 17.5 0 5-2.5 7.5-7.5 7.5s-7.5-2.5-7.5-7.5c-1e-5 -7.5 15-10 15-20 0-10-15-10-15-20s15-10 15-20-15-10-15-25 10-10 10-22.5c-7.5 0-10 2.5-10 7.5 1e-5 7.5 15 10 15 25 0 10-2.5 12.5-7.5 12.5s-7.5-2.5-7.5-7.5 2.5-7.5 10-7.5c-1e-5 7.5-10 12.5-10 22.5-1e-5 10 2.5 12.5 7.5 12.5 5 0 7.5-2.5 7.5-7.5s-2.5-7.5-10-7.5c-1e-5 7.5 10 12.5 10 22.5 0 10-2.5 12.5-7.5 12.5-5 0-7.5-2.5-7.5-7.5 1e-5 -5 2.5-7.5 10-7.5-1e-5 7.5-10 10-10 22.5 0 10 45 57.5 52.5 57.5zm80-275c-5.1052 0-7.5 2.5-7.5 10 7.5 0 12.5-10 17.5-10s7.5 2.5 7.5 7.5-2.5 7.5-7.5 7.5c-7.5 0-12.5-15-20-15s-10 15-25 15c-7.5 0-12.5-2.5-12.5-10 7.5 0 7.5 5 15 5 1e-5 -7.5-5.2274-10.087-12.5-10-14.999 0.1784-17.5 15-25 15s-12.5-15-20-15c-5 0-7.5 2.5-7.5 7.5-1e-5 5 2.5 7.5 7.5 7.5s10-10 17.5-10c0 7.5-2.5 10-7.5 10s-15-15-20-15c-5 0-32.5 27.5-32.5 32.5 0 7.5 15 10 15 25 0 15-10 15-10 22.5 7.5 0 10-2.5 10-7.5s-2.5-7.5-7.5-7.5-7.5 5-7.5 12.5 10 16.131 10 22.5c-7.5 0-10-2.5-10-7.5s2.5-7.5 7.5-7.5 7.5 2.5 7.5 12.5-10 15-10 22.5c7.5 0 10-2.5 10-7.5s-2.5-7.5-7.5-7.5-7.5 2.5-7.5 12.5c0 15 15 17.5 15 25 0 5-2.5 7.5-10 7.5 0-12.5 10-7.5 10-22.5s-15-15-15-25 15-10 15-20-15-10-15-20c0-10 15-12.5 15-20 0-5-2.5-7.5-7.5-7.5s-7.5 2.5-7.5 7.5 10 10 10 17.5c-7.5 0-10-2.5-10-7.5 0-7.5 47.5-52.5 57.5-52.5s15 10 22.5 10c0-7.5-2.5-10-7.5-10s-7.5 2.5-7.5 7.5 2.5 7.5 12.5 7.5c10 0 20-15 30-15s12.5 2.5 12.5 7.5-2.5 7.5-7.5 7.5-7.5-2.5-7.5-10c7.5 0 12.5 10 22.5 10s15-15 25-15 32.5 27.5 32.5 32.5c0 7.5-15 15-15 20s2.5 7.5 10 7.5c1e-5 -7.5-10-12.5-10-17.5 0-5 2.5-7.5 7.5-7.5s7.5 2.5 7.5 7.5c1e-5 7.5-15 10-15 20 0 10 15 10 15 20s-15 10-15 20 15 10 15 25-10 10-10 22.5c7.5 0 10-2.5 10-7.5 1e-5 -7.5-15-10-15-25 0-10 2.5-12.5 7.5-12.5s7.5 2.5 7.5 7.5-2.5 7.5-10 7.5c1e-5 -7.5 10-12.5 10-22.5s-2.5-12.5-7.5-12.5-7.5 2.5-7.5 7.5c0 5 2.5 7.5 10 7.5 1e-5 -7.5-10-12.5-10-22.5s2.5-12.5 7.5-12.5 7.5 2.5 7.5 7.5-2.5 7.5-10 7.5c1e-5 -7.5 10-10 10-22.5 0-10-45-57.5-52.5-57.5zm27.5 240c0 7.5 5 7.5 5 12.5s-2.5 7.5-7.5 7.5-7.5-2.5-7.5-10c12.5 0 20 20 30 20 0-7.5-10-12.5-10-17.5s2.5-7.5 7.5-7.5 7.5 2.5 7.5 7.5-17.5 22.5-22.5 22.5-7.5-2.5-7.5-10c12.5 0 7.5 10 30 10 0-22.5-17.5-35-25-35zm-135 0c0 7.5-5 7.5-5 12.5s2.5 7.5 7.5 7.5 7.5-2.5 7.5-10c-12.5 0-20 20-30 20 0-7.5 10-12.5 10-17.5s-2.5-7.5-7.5-7.5-7.5 2.5-7.5 7.5 17.5 22.5 22.5 22.5 7.5-2.5 7.5-10c-12.5 0-7.5 10-30 10 0-2.8153 0.27398-5.474 0.76807-7.9713 3.4547-17.461 17.67-27.029 24.232-27.029zm135-205c0-7.5 5-7.5 5-12.5s-2.5-7.5-7.5-7.5-7.5 2.5-7.5 10c12.5 0 20-20 30-20 0 7.5-10 12.5-10 17.5s2.5 7.5 7.5 7.5 7.5-2.5 7.5-7.5-17.5-22.5-22.5-22.5-7.5 2.5-7.5 10c12.5 0 7.5-10 30-10 0 22.5-17.5 35-25 35zm-135 0c0-7.5-5-7.5-5-12.5s2.5-7.5 7.5-7.5 7.5 2.5 7.5 10c-12.5 0-20-20-30-20 0 7.5 10 12.5 10 17.5s-2.5 7.5-7.5 7.5-7.5-2.5-7.5-7.5 17.5-22.5 22.5-22.5 7.5 2.5 7.5 10c-12.5 0-7.5-10-30-10 0 22.5 17.5 35 25 35z" stop-color="#000000" stroke="#626262" stroke-width="1.3" style="-inkscape-stroke:none;font-variation-settings:normal"/><path d="m9.4984 139.34c-0.10083 0.59249-0.148 1.2322-0.148 1.919 0 2.9081 2.2552 5.0644 5.0167 7.4892m4.7907 4.4858c2.841 3.1062 5.1927 7.0857 5.1926 13.025-2e-6 1.8986-0.09012 3.5268-0.27035 4.9189m-4.6322 7.2709c-0.77413 0.21847-1.6399 0.31015-2.5974 0.31015-5 0-7.5-2.5-7.5-7.5-1.7e-6 -0.84051 0.070643-1.6104 0.22381-2.3096m5.7812-4.8768c1.1368-0.20905 2.4614-0.31358 3.995-0.31358-5e-6 3.87-2.6626 7.0744-5.24 10.644m-3.6246 6.1543c-0.69542 1.7268-1.1354 3.6045-1.1354 5.7021-1e-5 10 2.5 12.5 7.5 12.5 0.41476 0 0.81232-0.0172 1.1927-0.0516m5.9921-4.6883c0.21017-0.81495 0.31526-1.735 0.31526-2.7601 0-5-2.5-7.5-10-7.5-2e-6 1.3074 0.30387 2.5388 0.80567 3.734m4.3408 6.7803c2.4502 3.3827 4.8535 7.0834 4.8535 11.986 0 2.3189-0.13443 4.2345-0.40329 5.8091m-4.5145 6.385c-0.77024 0.21538-1.631 0.30586-2.5822 0.30586-5 1e-5 -7.5-2.5-7.5-7.5 8e-7 -0.4047 0.01638-0.79302 0.050463-1.165m5.0678-5.8276c1.3183-0.33831 2.9309-0.50746 4.8818-0.50746-5e-6 4.1088-3.0013 6.7169-5.7154 10.291m-3.2773 5.8831c-0.6209 1.7983-1.0073 3.869-1.0073 6.3262 0 2.2106 2.1991 6.2538 5.7059 11.211m3.996 5.3382c1.6212 2.0667 3.3857 4.2193 5.2454 6.4083m4.3003 4.9381c1.622 1.8195 3.2841 3.6388 4.9597 5.4303m4.5489 4.7613c1.8069 1.8509 3.6018 3.641 5.3514 5.3363m4.862 4.5695c2.1473 1.9499 4.1616 3.6793 5.9674 5.1105m6.1314 4.0358c0.56762 0.23644 1.0484 0.36032 1.4314 0.36032 5.1052 0 7.5-2.5 7.5-10-1.5691 0-3.0288 0.4377-4.4019 1.13m-5.4001 3.972c-2.7659 2.4656-5.2319 4.898-7.698 4.898m-7.0481-4.2699c-0.30128-0.92608-0.45192-2.0028-0.45192-3.2302 0-5 2.5-7.5 7.5-7.5 1.3826 0 2.6802 0.50975 3.9242 1.3413m4.6111 4.4181c1.3814 1.6096 2.744 3.3323 4.1409 4.849m6.0438 4.2462c0.41891 0.0949 0.84524 0.14535 1.28 0.14535 2.9318 0 5.0995-2.2921 7.5486-5.0843m5.035-5.263c3.016-2.593 6.858-4.6527 12.416-4.6527 2.4391 0 4.6139 0.26442 6.4382 0.87925m5.6824 5.8727c0.24945 0.95971 0.37941 2.0389 0.37941 3.2481-7.5 0-7.5-5-15-5-2e-6 1.2024 0.12852 2.2764 0.37526 3.2321m6.8289 6.2178c1.5673 0.38138 3.3472 0.55015 5.2958 0.55015 5.4455 0 9.2436-1.9769 12.232-4.4954m5.1217-5.3083c2.4895-2.8427 4.6759-5.1963 7.6468-5.1963 0.41051 0 0.81352 0.0449 1.2099 0.12989m6.2065 4.3625c1.2908 1.4112 2.5532 2.9927 3.8293 4.4918m5.5923 5.1382c1.0106 0.55324 2.0593 0.87754 3.1621 0.87754 5 0 7.5-2.5 7.5-7.5 0-0.53207-0.0283-1.0358-0.0849-1.5113m-5.7318-5.8819c-0.52547-0.0712-1.0865-0.10681-1.6832-0.10681-2.4835 0-4.9671 2.4672-7.757 4.9506m-5.7128 4.0995c-1.2642 0.58722-2.6019 0.9499-4.0302 0.9499 0-7.5 2.5-10 7.5-10 0.63295 0 1.346 0.24037 2.1189 0.66026m5.1079 4.1048c1.8981 1.8185 3.8791 3.8856 5.7704 5.6837m5.8814 4.3406c0.39608 0.13702 0.77105 0.21069 1.1215 0.21069 1.363 0 4.3978-2.0434 8.0918-5.1175m5.5762-4.946c1.5761-1.4727 3.179-3.0273 4.7507-4.6058m4.1447-4.2986c2.025-2.1721 3.8911-4.2902 5.446-6.2021m4.2189-6.2329c0.17782-0.43585 0.27172-0.80485 0.27172-1.097 0-2.7967-2.0857-4.8981-4.7016-7.2116m-4.8228-4.4586c-2.9661-3.1504-5.4756-7.1944-5.4756-13.33 0-2.029 0.18296-3.7835 0.4994-5.3192m3.7842-7.9065c2.7144-3.3072 5.7164-5.1649 5.7164-9.2743-1.8876 0-3.4586 0.15837-4.7526 0.4751m-5.211 6.0276c-0.0245 0.32057-0.0364 0.65299-0.0364 0.99726 0 5 2.5 7.5 7.5 7.5 1.0898 0 2.0609-0.23756 2.9132-0.68678m4.0811-6.5202c0.33714-1.5666 0.50571-3.3456 0.50571-5.2931 0-3.9758-2.8101-8.2694-5.4511-12.375m-3.3448-5.7023c-0.73502-1.5572-1.2041-3.0428-1.2041-4.4223 7.5 0 10 2.5 10 7.5 0 1.2562-0.1578 2.3546-0.47341 3.2952m-6.283 4.1854c-0.24138 0.0129-0.48923 0.0194-0.74355 0.0194-5 0-7.5-2.5-7.5-12.5 0-1.8033 0.32519-3.444 0.85829-4.9661m4.2229-7.3329c2.4726-3.3937 4.9188-6.4916 4.9188-10.201-1.5152 0-2.8264 0.10204-3.9541 0.30613m-5.9063 5.325c-0.095 0.57839-0.13961 1.2013-0.13961 1.8688 0 5 2.5 7.5 7.5 7.5 0.90233 0 1.7232-0.0814 2.4627-0.27365m4.6492-6.5078c0.25869-1.5574 0.38803-3.4439 0.38803-5.7185 0-5.5653-2.0648-9.4099-4.6623-12.428m-5.3918-5.1454c-2.7292-2.3996-4.946-4.5439-4.946-7.4271 0-0.60549 0.0367-1.1743 0.11443-1.7065m5.6916-5.4419c1.1805-0.23443 2.57-0.35164 4.194-0.35164 0 6.0047-2.3076 7.9711-4.7058 10.056m-4.6114 6.6377c-0.42816 1.5276-0.68289 3.4122-0.68289 5.8062 0 5.5511 2.0543 9.0479 4.6425 11.757m5.8125 5.066c2.5421 2.2034 4.545 4.5223 4.545 8.1765 0 0.53189-0.0424 1.0355-0.12279 1.5138m-3.8251 5.9426c-2.0196 1.6698-4.4862 3.0418-6.5763 4.6646m-4.4357 7.0004c-0.0265 0.28412-0.0402 0.57681-0.0402 0.8786 0 3.3932 1.7271 5.635 4.0092 7.5068m5.4732 3.843c2.9844 2.1199 5.5177 4.5406 5.5177 8.6502 0 0.49492-0.0367 0.97148-0.10659 1.4312m-3.8698 6.6151c-1.8202 1.7253-3.9987 3.2094-5.9366 4.7016m-4.8392 5.6196c-0.16082 0.51882-0.24786 1.0611-0.24786 1.6324 0 5 2.5 7.5 7.5 7.5 0.77376 0 1.4876-0.0599 2.1417-0.17961m5.1872-5.2256c0.11411-0.64123 0.17116-1.3395 0.17116-2.0948 0-2.3687-2.2442-4.7373-4.6063-7.3718m-4.369-5.94c-0.63105-1.3107-1.0247-2.7003-1.0247-4.1883 7.5 0 10 2.5 10 7.5 0 0.5119-0.22128 1.1985-0.63682 2.0336m-3.9733 5.798c-1.3636 1.7051-2.9838 3.5887-4.7974 5.5894m-4.7727 5.0786c-1.5764 1.6249-3.2338 3.2881-4.945 4.9632m-5.1678 4.9412c-1.6952 1.5839-3.4146 3.1552-5.1352 4.6913m-5.5204 4.8018c-1.8058 1.5276-3.5846 2.988-5.3085 4.3542m-5.9482 4.4837c-4.9956 3.5413-9.0717 5.7651-11.295 5.7651-2.2215 0-4.1962-0.4935-6.0064-1.2612m-6.0608-3.6514c-3.485-2.5288-6.6391-5.0873-10.433-5.0873 0 1.5913 0.11254 2.9574 0.33761 4.1224m5.9862 5.8261c0.37535 0.0348 0.76742 0.0515 1.1762 0.0515 5 0 7.5-2.5 7.5-7.5 0-0.43353-0.0188-0.84826-0.0596-1.2442m-7.5942-5.9948c-1.376-0.17403-2.9806-0.26104-4.8462-0.26104-4.0016 0-8.0031 2.4019-12.005 5.2834m-6.162 4.5564c-3.9444 2.8265-7.8889 5.1603-11.833 5.1603-2.4071 0-4.3796-0.14485-5.9873-0.43455m-6.3022-4.8666c-0.14705-0.66954-0.21047-1.4025-0.21047-2.1989 0-5 2.5-7.5 7.5-7.5 0.83736 0 1.6046 0.0701 2.3017 0.22209m4.8332 5.517c0.2434 1.1948 0.3651 2.6062 0.3651 4.261-3.7397 0-6.8578-2.4862-10.284-4.9793m-6.8691-4.0238c-1.6286-0.61478-3.3922-0.99685-5.3469-0.99685-4.6889 0-8.2786 3.2979-11.8 6.801m-4.7282 4.5068c-2.5265 2.1232-5.2378 3.6922-8.472 3.6922-0.40253 0-0.82532-0.0446-1.2661-0.13042m-7.56-3.8935c-1.9111-1.4062-3.8996-3.1035-5.876-4.9639m-4.4304-4.4514c-1.6867-1.7992-3.3109-3.6502-4.8106-5.4646m-4.1907-5.4212c-2.6691-3.7316-4.3662-6.8018-4.3662-8.175 0-0.4232 0.047759-0.84639 0.13789-1.2691m3.9146-6.3143c1.8507-1.9776 4.0594-3.8909 6.0065-5.6884m4.3044-4.7544c0.40523-0.69328 0.63658-1.3528 0.63658-1.9737 0-5-2.5-7.5-10-7.5-2e-6 1.615 0.46366 3.114 1.1913 4.5221m3.9473 5.321c2.453 2.7493 4.8614 5.2031 4.8614 7.6569 0 0.61369-0.03766 1.1897-0.11298 1.7281m-4.8724 5.5161c-0.75292 0.17056-1.5911 0.25584-2.5146 0.25584-5 0-7.5-2.5-7.5-7.5-1.8e-6 -1.3145 0.46078-2.4754 1.2208-3.55m4.9335-4.5092c1.6109-1.203 3.3074-2.4296 4.779-3.8094m3.8878-6.2883c0.11655-0.58547 0.17884-1.1987 0.17884-1.8432 0-3.9439-2.3331-6.3323-5.1591-8.3923m-5.9124-4.1674c-2.242-1.8584-3.9285-4.0872-3.9285-7.4403 4e-7 -0.4432 0.029465-0.86676 0.085781-1.2724m4.1517-6.419c1.9791-1.5783 4.3347-2.9056 6.3368-4.4686m4.3119-6.3809c0.07452-0.46197 0.11378-0.94744 0.11378-1.4591 0-3.7513-2.1108-6.0953-4.7487-8.3519m-5.3528-4.6269c-2.7073-2.7464-4.8984-6.2883-4.8984-12.021 0-2.4977 0.27726-4.4408 0.73945-6.0026m4.1818-6.1159c2.526-2.2176 5.0787-4.0659 5.0787-10.382-1.8729 0-3.434 0.1559-4.7222 0.46769m13.704-115.54c-1.6285 1.5179-3.2877 3.1255-4.9133 4.7585m-4.7877 4.9934c-1.735 1.8832-3.3363 3.7127-4.703 5.3874m-4.0667 5.813c-0.33193 0.67032-0.51104 1.2204-0.51104 1.6239 0 2.7117 1.9609 4.7698 4.4648 7.0015m5.3557 4.988c2.8351 3.1041 5.1794 7.0805 5.1794 13.01 0 2.0721-0.19083 3.858-0.51977 5.4169m-3.5208 7.5077c-2.7749 3.499-5.9594 5.343-5.9594 9.5753 2.1777 0 3.9339-0.21077 5.3297-0.63232m4.6351-5.8856c0.02374-0.31588 0.03522-0.64323 0.03522-0.98207 0-5-2.5-7.5-7.5-7.5-1.0212 0-1.9382 0.20858-2.7508 0.60445m-4.2117 6.4579c-0.3583 1.6014-0.53744 3.43-0.53744 5.4377 0 3.8962 2.6987 8.0976 5.2923 12.129m3.5471 6.0419c0.70998 1.5235 1.1606 2.9774 1.1606 4.3295-7.5 0-10-2.5-10-7.5 0-0.95106 0.090452-1.8117 0.27136-2.5818m6.1135-4.8733c0.35675-0.0299 0.72845-0.04485 1.1151-0.04485 5 0 7.5 2.5 7.5 12.5 0 2.2457-0.50432 4.2393-1.2865 6.0656m-3.5077 5.838c-2.5667 3.5502-5.2059 6.7434-5.2059 10.596 1.6559 0 3.068-0.12186 4.2633-0.36558m5.4676-4.6299c0.18459-0.75031 0.26911-1.5852 0.26911-2.5045 0-5-2.5-7.5-7.5-7.5-0.96224 0-1.8319 0.0926-2.6089 0.31341m-4.6991 7.9425c-0.12797 1.2364-0.19196 2.6442-0.19196 4.2441 0 5.7688 2.2186 9.6888 4.9493 12.755m4.9828 4.7104c2.7848 2.4432 5.0679 4.6082 5.0679 7.5342 0 0.64172-0.04118 1.2423-0.12883 1.8016m-5.7081 5.3528c-1.1738 0.23036-2.5533 0.34554-4.1631 0.34554 0-6.4497 2.6623-8.2403 5.2395-10.523m3.9572-5.7645c0.50039-1.5967 0.8033-3.6016 0.8033-6.2122 0-5.6895-2.158-9.221-4.837-11.959m-5.4569-4.726c-2.618-2.2454-4.7061-4.5843-4.7061-8.3153 0-0.50597 0.038401-0.98634 0.11132-1.4437m4.0569-6.1923c1.9404-1.5603 4.2542-2.8716 6.2442-4.3988m4.5354-6.9671c0.03433-0.32139 0.05211-0.65382 0.05211-0.9981 0-3.3579-1.6913-5.5883-3.9381-7.4483m-5.6358-3.9667c-2.9445-2.1045-5.4261-4.5175-5.4261-8.585 0-0.60083 0.054149-1.1746 0.15594-1.724m3.8688-6.3681c1.6704-1.574 3.6361-2.9481 5.4389-4.313m4.9841-5.1808c0.35286-0.751 0.55229-1.5493 0.55229-2.4141 0-5-2.5-7.5-7.5-7.5-0.72353 0-1.3947 0.05235-2.0135 0.15705m-5.3958 5.7843c-0.060451 0.48932-0.090676 1.0089-0.090676 1.5587 0 2.4051 2.3138 4.8102 4.7155 7.4936m3.9295 5.177c0.82109 1.4969 1.355 3.0964 1.355 4.8294-7.5 0-10-2.5-10-7.5 0-0.52904 0.23635-1.2447 0.67921-2.1179m4.2023-6.0512c1.3765-1.7029 2.9981-3.5752 4.8043-5.5581m4.4508-4.7274c1.5641-1.613 3.2083-3.2641 4.906-4.9273m4.9327-4.7248c1.7596-1.6486 3.5469-3.285 5.3359-4.8841m5.3058-4.6252c1.8156-1.5414 3.6058-3.0167 5.3423-4.3987m6.1731-4.6684c5.0287-3.5713 9.1337-5.8167 11.368-5.8167 1.7151 0 3.2831 0.29416 4.7419 0.78157m7.7336 4.4283c3.325 2.4281 6.3795 4.7901 10.025 4.7901 0-1.2833-0.07319-2.4202-0.21958-3.4233m-5.6098-6.4675c-0.52182-0.0742-1.0787-0.10924-1.6706-0.10924-5 0-7.5 2.5-7.5 7.5 0 0.61841 0.03824 1.1986 0.12419 1.7405m7.7069 5.5202c1.336 0.1595 2.8829 0.23925 4.6689 0.23925 4.0549 0 8.1098-2.4663 12.165-5.3988m5.8846-4.3566c3.9836-2.8642 7.9672-5.2446 11.951-5.2446 2.3857 0 4.3446 0.14229 5.9445 0.42688m6.4169 5.2443c0.0961 0.56707 0.13867 1.1767 0.13867 1.8288 0 5-2.5 7.5-7.5 7.5-0.69011 0-1.3326-0.0476-1.9274-0.14945m-5.1724-5.4231c-0.26674-1.2296-0.40011-2.6952-0.40011-4.4275 3.866 0 7.0677 2.657 10.632 5.2319m6.2362 3.661c1.7074 0.67905 3.5624 1.1072 5.6314 1.1072 4.6477 0 8.2154-3.2402 11.707-6.7087m4.6275-4.435c2.5817-2.2059 5.3486-3.8563 8.6656-3.8563 0.38676 0 0.79222 0.041136 1.2144 0.12052m7.5713 3.8736c1.8614 1.3665 3.797 3.0102 5.7238 4.8128m4.7621 4.7807c1.4235 1.524 2.8011 3.0833 4.0954 4.6245m4.9444 6.362c2.5666 3.6188 4.1887 6.5834 4.1887 7.9258 0 0.53698-0.0769 1.074-0.21967 1.61m-4.1514 6.3096c-1.7985 1.8754-3.8895 3.6899-5.7386 5.399m-4.1739 4.5743c-0.45453 0.74216-0.7164 1.4464-0.7164 2.1071 0 5 2.5 7.5 10 7.5 0-1.5238-0.41281-2.9444-1.0707-4.2828m-4.1382-5.639c-2.4285-2.7174-4.7911-5.1478-4.7911-7.5781 0-0.55739 0.0311-1.0837 0.0932-1.579m5.7648-5.8197c0.51357-0.06754 1.0609-0.10131 1.642-0.10131 5 0 7.5 2.5 7.5 7.5 0 1.5676-0.65527 2.9167-1.6919 4.1616m-4.462 3.8973c-1.6811 1.2554-3.4555 2.5366-4.9703 3.9907m-3.7868 6.6399c-0.0585 0.4223-0.0891 0.85875-0.0891 1.3105 0 3.7978 2.1636 6.1533 4.8473 8.162m5.8574 4.1006c2.4223 1.9188 4.2953 4.2038 4.2953 7.7374 0 0.6235-0.0583 1.2081-0.16767 1.7587m-4.6962 6.4157c-1.9702 1.4724-4.2184 2.7594-6.0961 4.2935m-3.9397 6.1594c-0.0658 0.43599-0.10029 0.8928-0.10029 1.3726 0 3.7804 2.1437 6.1316 4.8103 8.4044m5.3592 4.6436c2.676 2.7368 4.8305 6.2671 4.8305 11.952 0 2.6133-0.30354 4.6196-0.80484 6.2171m-4.3808 6.1323c-2.4366 2.1211-4.8144 4.0553-4.8144 10.151 1.4904 0 2.7834-0.0987 3.8985-0.29618m5.9591-5.3184c0.0969-0.58308 0.14236-1.2116 0.14236-1.8855 0-2.942-2.308-5.1146-5.1134-7.5741m-5.1972-4.9669c-2.6102-3.0224-4.6894-6.8744-4.6894-12.459 0-2.0548 0.10556-3.793 0.31668-5.2579m5.3919-7.1097c0.55646-0.0918 1.1536-0.13243 1.7914-0.13243 5 0 7.5 2.5 7.5 7.5 0 0.6428-0.0413 1.2443-0.12927 1.8044m-6.0134 5.4066c-1.1057 0.19263-2.3852 0.28894-3.8573 0.28894 0-3.6243 2.3353-6.6649 4.7488-9.968m3.9117-6.3438c0.81231-1.8597 1.3395-3.8922 1.3395-6.1883 1e-5 -10-2.5-12.5-7.5-12.5-0.2674 0-0.52766 0.0071-0.78076 0.02145m-6.5095 5.1797c-0.13985 0.69636-0.20977 1.4626-0.20977 2.2988 0 5 2.5 7.5 10 7.5 0-1.3674-0.33238-2.6516-0.87595-3.8982m-4.36-6.7398c-2.4189-3.3493-4.764-7.0193-4.764-11.862 0-2.3006 0.13232-4.2043 0.39697-5.7719m4.9678-6.5313c0.65225-0.1373 1.364-0.19677 2.1352-0.19677 5 0 7.5 2.5 7.5 7.5 0 0.45617-0.0208 0.89154-0.0643 1.3061m-5.2324 5.7308c-1.2846 0.30875-2.8396 0.46313-4.7033 0.46313 1e-5 -4.0411 2.9031-6.6305 5.581-10.115m3.403-6.0338c0.626-1.8041 1.016-3.8827 1.016-6.3513 0-2.2338-2.2454-6.3387-5.8166-11.367m-3.9812-5.3042c-1.6185-2.0595-3.3778-4.203-5.2308-6.3818m-4.279-4.9097c-1.5451-1.7322-3.1262-3.4638-4.7205-5.1712m-4.8592-5.0873c-1.7288-1.7686-3.4458-3.4808-5.1219-5.1067m-5.4753-5.1305c-2.06-1.8551-3.9895-3.4972-5.7196-4.8556m-5.2337-3.5345c-0.84799-0.42474-1.5444-0.65109-2.0622-0.65109-5.1052 0-7.5 2.5-7.5 10 1.2081 0 2.3513-0.25946 3.4401-0.69479m6.4673-4.5012c2.7233-2.433 5.158-4.804 7.5926-4.804m7.1558 4.6307c0.22947 0.84168 0.34421 1.7981 0.34421 2.8693 0 5-2.5 7.5-7.5 7.5-1.2548 0-2.4396-0.41988-3.5779-1.1191m-5.2423-4.974c-1.22-1.4364-2.4282-2.9441-3.6612-4.3022m-6.2442-4.4605c-0.41712-0.0941-0.8416-0.14409-1.2744-0.14409-2.9588 0-5.1394 2.3345-7.6164 5.1616m-4.9291 5.1528c-3.0218 2.6084-6.8727 4.6856-12.455 4.6856-2.5053 0-4.7316-0.27896-6.5858-0.93005m-5.4187-5.4116c-0.3251-1.0595-0.49552-2.2737-0.49552-3.6584 7.5 0 7.5 5 15 5 0-1.343-0.1676-2.5284-0.48454-3.5691m-5.8471-5.6456c-1.7864-0.57417-3.8758-0.81252-6.1683-0.78525-5.5425 0.0659-9.3784 2.1314-12.391 4.7096m-5.3192 5.5477c-2.3447 2.6352-4.462 4.7427-7.2901 4.7427-0.52754 0-1.0427-0.0742-1.5472-0.2122m-6.113-4.5492c-1.2442-1.3837-2.4643-2.9115-3.6985-4.3554m-5.2074-4.8508c-1.0941-0.64705-2.2319-1.0323-3.4339-1.0323-5 0-7.5 2.5-7.5 7.5-2e-6 0.76758 0.05891 1.4762 0.17675 2.126m5.765 5.2834c0.4892 0.0604 1.0086 0.0906 1.5582 0.0906 2.4598 0 4.9196-2.4202 7.6771-4.8794m5.6787-4.117c1.2978-0.61872 2.6729-1.0036 4.1443-1.0036 0 7.5-2.5 10-7.5 10-0.31791 0-0.65602-0.0606-1.0118-0.1742m-6.1778-4.5552c-1.6879-1.6152-3.4424-3.4298-5.1417-5.0794m-6.7613-5.049c-0.31765-0.093-0.62075-0.14226-0.90741-0.14226-1.3703 0-4.4306 2.0655-8.1517 5.1674m131.02 264.12c-0.24767-1.2014-0.37151-2.623-0.37151-4.2922 5.8583 0 7.8728 2.1964 10.676 4.5305m7.386 4.058c2.8395 0.85301 6.621 1.4115 11.938 1.4115 0-7.7125-2.0562-14.25-5.061-19.512m-3.9602-5.66c-1.6288-1.9237-3.3626-3.5757-5.0976-4.9464m-5.3691-3.3865c-2.0926-0.99001-4.0044-1.4952-5.5121-1.4952 0 7.5 5 7.5 5 12.5 0 0.30134-9e-3 0.5936-0.0272 0.87678m-4.9631 6.3685c-0.75165 0.16982-1.5882 0.25473-2.5097 0.25473-5 0-7.5-2.5-7.5-10 1.6092 0 3.1356 0.33147 4.595 0.90905m6.3588 4.1371c1.7316 1.5229 3.3874 3.2508 5.0061 4.9778m5.0333 5.2101c1.9093 1.8047 3.8237 3.2927 5.8111 4.1028m-1.3789-8.5421c-2.6335-3.0108-5.4255-5.6528-5.4255-8.2948 0-0.96329 0.0928-1.8338 0.27838-2.6115m6.5057-4.8706c0.23267-0.012 0.47131-0.018 0.71594-0.018 5 0 7.5 2.5 7.5 7.5 0 0.73769-0.38094 1.7475-1.0465 2.933m-4.6961 6.3169c-1.0722 1.2258-2.2366 2.4709-3.4402 3.6822m-4.5516 4.2449c-3.6048 3.0941-6.9813 5.3229-8.7657 5.3229-0.56255 0-1.0934-0.0317-1.5927-0.0985m-140.87-23.081c-0.02143 0.21601-0.03268 0.44193-0.03268 0.6791 0 5 2.5 7.5 7.5 7.5 0.0966 0 0.19226-9.9e-4 0.28699-3e-3m6.2897-3.8415c0.61555-1.5084 0.92332-3.5244 0.92332-6.1559-4.184 0-7.8078 2.2408-11.153 5.2222m-4.8323 4.8285c-1.8774 2.0034-3.7051 4.0041-5.5434 5.6804m-7.7876 0.85599c0.75981-1.9148 2.0648-3.6614 3.4615-5.2964m4.2345-4.9232c0.96934-1.3169 1.62-2.5922 1.62-3.8676 0-5-2.5-7.5-7.5-7.5-1.0955 0-2.0709 0.12001-2.9264 0.36002m-4.5292 6.0305c-0.029586 0.35503-0.044378 0.72485-0.044378 1.1095 0 1.83 2.3442 5.3344 5.5617 9.0424m3.9241 4.1933c1.3055 1.3007 2.6515 2.557 3.9718 3.7026m5.9517 4.4257c1.2538 0.72084 2.3206 1.1361 3.0907 1.1361 5 0 7.5-2.5 7.5-10-3.0335 0-5.0363 0.58893-6.6517 1.481m-4.6562 3.5652c-3.1213 2.4845-7.5114 4.9538-18.692 4.9538 0-2.8153 0.27398-5.474 0.76807-7.9713 0.29534-1.4927 0.66931-2.9277 1.1104-4.304m3.0126-6.936c1.4431-2.5815 3.1153-4.862 4.8894-6.8299m4.8738-4.4915c3.8873-2.9427 7.7263-4.4673 10.346-4.4673 0 2.5984-0.60017 4.2966-1.3846 5.6144m142.04-244.44c-1.2835-0.74528-2.3752-1.1758-3.1595-1.1758-5 0-7.5 2.5-7.5 10 2.6352 0 4.4926-0.44444 5.994-1.1459m5.5316-4.0718c3.1094-2.4253 7.5512-4.7822 18.474-4.7822 0 4.4387-0.68106 8.4883-1.8321 12.129m-3.0689 7.0994c-1.4 2.5013-3.015 4.7196-4.7292 6.6445m-5.0226 4.6581c-3.8878 2.9436-7.7276 4.4686-10.347 4.4686 0-2.1234 0.40077-3.6456 0.97537-4.8503m3.9985-7.0402c0.0172-0.19484 0.0262-0.39771 0.0262-0.60955 0-5-2.5-7.5-7.5-7.5-0.0678 0-0.1351 4.59e-4 -0.20196 0.0014m-6.5734 4.379c-0.48309 1.4402-0.72463 3.2883-0.72463 5.6196 4.173 0 7.7888-2.229 11.126-5.1987m4.6671-4.6477c1.8925-2.0157 3.7327-4.0397 5.582-5.7444m7.9224-0.9508c-0.77098 1.9185-2.0872 3.6681-3.4905 5.306m-4.5075 5.3191c-0.78977 1.1581-1.2999 2.2873-1.2999 3.4166 0 5 2.5 7.5 7.5 7.5 0.83814 0 1.606-0.07025 2.3037-0.21074m5.1627-6.3186c0.0224-0.31233 0.0336-0.63587 0.0336-0.97062 0-1.7986-2.2645-5.2147-5.397-8.8519m-4.1376-4.4323c-1.296-1.2892-2.6312-2.5339-3.9406-3.6694m-159.67-4.1595c-2.8302-0.83918-6.5899-1.387-11.856-1.387 0 7.7306 2.0659 14.281 5.0822 19.549m4.4014 6.1588c1.42 1.6138 2.9108 3.0251 4.4058 4.2278m6.4793 3.9621c1.7471 0.73066 3.3379 1.1024 4.6313 1.1024 0-7.5-5-7.5-5-12.5 0-0.30832 0.0095-0.60713 0.02852-0.89643m6.5538-6.5736c0.29591-0.0199 0.6018-0.0299 0.91767-0.0299 5 0 7.5 2.5 7.5 10-1.7002 0-3.3078-0.36999-4.8418-1.0093m-6.3938-4.287c-1.6163-1.4485-3.1678-3.0676-4.6864-4.6872m-5.433-5.5885c-1.6792-1.5501-3.3658-2.8378-5.1057-3.6178m1.0155 8.3725c2.6392 3.0202 5.4452 5.6687 5.4452 8.3173 0 1.0752-0.1156 2.0348-0.34681 2.8787m-6.7244 4.6149c-0.14084 4e-3 -0.28378 6e-3 -0.42883 6e-3 -5 1e-5 -7.5-2.5-7.5-7.5 0-0.63695 0.28399-1.4768 0.78996-2.4574m5.0145-6.8632c1.0452-1.1917 2.1764-2.4005 3.3451-3.5781m4.5119-4.2158c3.6322-3.1266 7.0422-5.3856 8.8386-5.3856 0.36519 0 0.71704 0.0133 1.0556 0.041m6.279 6.9399c0.1103 0.90154 0.16545 1.9052 0.16545 3.0191-6.0234 0-7.9833-2.322-10.915-4.7282" stop-color="#000000" stroke="#000" stroke-width="5" style="-inkscape-stroke:none;font-variation-settings:normal"/><path d="m9.4984 139.34c-0.10083 0.59249-0.148 1.2322-0.148 1.919 0 2.9081 2.2552 5.0644 5.0167 7.4892m4.7907 4.4858c2.841 3.1062 5.1927 7.0857 5.1926 13.025-2e-6 1.8986-0.09012 3.5268-0.27035 4.9189m-4.6322 7.2709c-0.77413 0.21847-1.6399 0.31015-2.5974 0.31015-5 0-7.5-2.5-7.5-7.5-1.7e-6 -0.84051 0.070643-1.6104 0.22381-2.3096m5.7812-4.8768c1.1368-0.20905 2.4614-0.31358 3.995-0.31358-5e-6 3.87-2.6626 7.0744-5.24 10.644m-3.6246 6.1543c-0.69542 1.7268-1.1354 3.6045-1.1354 5.7021-1e-5 10 2.5 12.5 7.5 12.5 0.41476 0 0.81232-0.0172 1.1927-0.0516m5.9921-4.6883c0.21017-0.81495 0.31526-1.735 0.31526-2.7601 0-5-2.5-7.5-10-7.5-2e-6 1.3074 0.30387 2.5388 0.80567 3.734m4.3408 6.7803c2.4502 3.3827 4.8535 7.0834 4.8535 11.986 0 2.3189-0.13443 4.2345-0.40329 5.8091m-4.5145 6.385c-0.77024 0.21538-1.631 0.30586-2.5822 0.30586-5 1e-5 -7.5-2.5-7.5-7.5 8e-7 -0.4047 0.01638-0.79302 0.050463-1.165m5.0678-5.8276c1.3183-0.33831 2.9309-0.50746 4.8818-0.50746-5e-6 4.1088-3.0013 6.7169-5.7154 10.291m-3.2773 5.8831c-0.6209 1.7983-1.0073 3.869-1.0073 6.3262 0 2.2106 2.1991 6.2538 5.7059 11.211m3.996 5.3382c1.6212 2.0667 3.3857 4.2193 5.2454 6.4083m4.3003 4.9381c1.622 1.8195 3.2841 3.6388 4.9597 5.4303m4.5489 4.7613c1.8069 1.8509 3.6018 3.641 5.3514 5.3363m4.862 4.5695c2.1473 1.9499 4.1616 3.6793 5.9674 5.1105m6.1314 4.0358c0.56762 0.23644 1.0484 0.36032 1.4314 0.36032 5.1052 0 7.5-2.5 7.5-10-1.5691 0-3.0288 0.4377-4.4019 1.13m-5.4001 3.972c-2.7659 2.4656-5.2319 4.898-7.698 4.898m-7.0481-4.2699c-0.30128-0.92608-0.45192-2.0028-0.45192-3.2302 0-5 2.5-7.5 7.5-7.5 1.3826 0 2.6802 0.50975 3.9242 1.3413m4.6111 4.4181c1.3814 1.6096 2.744 3.3323 4.1409 4.849m6.0438 4.2462c0.41891 0.0949 0.84524 0.14535 1.28 0.14535 2.9318 0 5.0995-2.2921 7.5486-5.0843m5.035-5.263c3.016-2.593 6.858-4.6527 12.416-4.6527 2.4391 0 4.6139 0.26442 6.4382 0.87925m5.6824 5.8727c0.24945 0.95971 0.37941 2.0389 0.37941 3.2481-7.5 0-7.5-5-15-5-2e-6 1.2024 0.12852 2.2764 0.37526 3.2321m6.8289 6.2178c1.5673 0.38138 3.3472 0.55015 5.2958 0.55015 5.4455 0 9.2436-1.9769 12.232-4.4954m5.1217-5.3083c2.4895-2.8427 4.6759-5.1963 7.6468-5.1963 0.41051 0 0.81352 0.0449 1.2099 0.12989m6.2065 4.3625c1.2908 1.4112 2.5532 2.9927 3.8293 4.4918m5.5923 5.1382c1.0106 0.55324 2.0593 0.87754 3.1621 0.87754 5 0 7.5-2.5 7.5-7.5 0-0.53207-0.0283-1.0358-0.0849-1.5113m-5.7318-5.8819c-0.52547-0.0712-1.0865-0.10681-1.6832-0.10681-2.4835 0-4.9671 2.4672-7.757 4.9506m-5.7128 4.0995c-1.2642 0.58722-2.6019 0.9499-4.0302 0.9499 0-7.5 2.5-10 7.5-10 0.63295 0 1.346 0.24037 2.1189 0.66026m5.1079 4.1048c1.8981 1.8185 3.8791 3.8856 5.7704 5.6837m5.8814 4.3406c0.39608 0.13702 0.77105 0.21069 1.1215 0.21069 1.363 0 4.3978-2.0434 8.0918-5.1175m5.5762-4.946c1.5761-1.4727 3.179-3.0273 4.7507-4.6058m4.1447-4.2986c2.025-2.1721 3.8911-4.2902 5.446-6.2021m4.2189-6.2329c0.17782-0.43585 0.27172-0.80485 0.27172-1.097 0-2.7967-2.0857-4.8981-4.7016-7.2116m-4.8228-4.4586c-2.9661-3.1504-5.4756-7.1944-5.4756-13.33 0-2.029 0.18296-3.7835 0.4994-5.3192m3.7842-7.9065c2.7144-3.3072 5.7164-5.1649 5.7164-9.2743-1.8876 0-3.4586 0.15837-4.7526 0.4751m-5.211 6.0276c-0.0245 0.32057-0.0364 0.65299-0.0364 0.99726 0 5 2.5 7.5 7.5 7.5 1.0898 0 2.0609-0.23756 2.9132-0.68678m4.0811-6.5202c0.33714-1.5666 0.50571-3.3456 0.50571-5.2931 0-3.9758-2.8101-8.2694-5.4511-12.375m-3.3448-5.7023c-0.73502-1.5572-1.2041-3.0428-1.2041-4.4223 7.5 0 10 2.5 10 7.5 0 1.2562-0.1578 2.3546-0.47341 3.2952m-6.283 4.1854c-0.24138 0.0129-0.48923 0.0194-0.74355 0.0194-5 0-7.5-2.5-7.5-12.5 0-1.8033 0.32519-3.444 0.85829-4.9661m4.2229-7.3329c2.4726-3.3937 4.9188-6.4916 4.9188-10.201-1.5152 0-2.8264 0.10204-3.9541 0.30613m-5.9063 5.325c-0.095 0.57839-0.13961 1.2013-0.13961 1.8688 0 5 2.5 7.5 7.5 7.5 0.90233 0 1.7232-0.0814 2.4627-0.27365m4.6492-6.5078c0.25869-1.5574 0.38803-3.4439 0.38803-5.7185 0-5.5653-2.0648-9.4099-4.6623-12.428m-5.3918-5.1454c-2.7292-2.3996-4.946-4.5439-4.946-7.4271 0-0.60549 0.0367-1.1743 0.11443-1.7065m5.6916-5.4419c1.1805-0.23443 2.57-0.35164 4.194-0.35164 0 6.0047-2.3076 7.9711-4.7058 10.056m-4.6114 6.6377c-0.42816 1.5276-0.68289 3.4122-0.68289 5.8062 0 5.5511 2.0543 9.0479 4.6425 11.757m5.8125 5.066c2.5421 2.2034 4.545 4.5223 4.545 8.1765 0 0.53189-0.0424 1.0355-0.12279 1.5138m-3.8251 5.9426c-2.0196 1.6698-4.4862 3.0418-6.5763 4.6646m-4.4357 7.0004c-0.0265 0.28412-0.0402 0.57681-0.0402 0.8786 0 3.3932 1.7271 5.635 4.0092 7.5068m5.4732 3.843c2.9844 2.1199 5.5177 4.5406 5.5177 8.6502 0 0.49492-0.0367 0.97148-0.10659 1.4312m-3.8698 6.6151c-1.8202 1.7253-3.9987 3.2094-5.9366 4.7016m-4.8392 5.6196c-0.16082 0.51882-0.24786 1.0611-0.24786 1.6324 0 5 2.5 7.5 7.5 7.5 0.77376 0 1.4876-0.0599 2.1417-0.17961m5.1872-5.2256c0.11411-0.64123 0.17116-1.3395 0.17116-2.0948 0-2.3687-2.2442-4.7373-4.6063-7.3718m-4.369-5.94c-0.63105-1.3107-1.0247-2.7003-1.0247-4.1883 7.5 0 10 2.5 10 7.5 0 0.5119-0.22128 1.1985-0.63682 2.0336m-3.9733 5.798c-1.3636 1.7051-2.9838 3.5887-4.7974 5.5894m-4.7727 5.0786c-1.5764 1.6249-3.2338 3.2881-4.945 4.9632m-5.1678 4.9412c-1.6952 1.5839-3.4146 3.1552-5.1352 4.6913m-5.5204 4.8018c-1.8058 1.5276-3.5846 2.988-5.3085 4.3542m-5.9482 4.4837c-4.9956 3.5413-9.0717 5.7651-11.295 5.7651-2.2215 0-4.1962-0.4935-6.0064-1.2612m-6.0608-3.6514c-3.485-2.5288-6.6391-5.0873-10.433-5.0873 0 1.5913 0.11254 2.9574 0.33761 4.1224m5.9862 5.8261c0.37535 0.0348 0.76742 0.0515 1.1762 0.0515 5 0 7.5-2.5 7.5-7.5 0-0.43353-0.0188-0.84826-0.0596-1.2442m-7.5942-5.9948c-1.376-0.17403-2.9806-0.26104-4.8462-0.26104-4.0016 0-8.0031 2.4019-12.005 5.2834m-6.162 4.5564c-3.9444 2.8265-7.8889 5.1603-11.833 5.1603-2.4071 0-4.3796-0.14485-5.9873-0.43455m-6.3022-4.8666c-0.14705-0.66954-0.21047-1.4025-0.21047-2.1989 0-5 2.5-7.5 7.5-7.5 0.83736 0 1.6046 0.0701 2.3017 0.22209m4.8332 5.517c0.2434 1.1948 0.3651 2.6062 0.3651 4.261-3.7397 0-6.8578-2.4862-10.284-4.9793m-6.8691-4.0238c-1.6286-0.61478-3.3922-0.99685-5.3469-0.99685-4.6889 0-8.2786 3.2979-11.8 6.801m-4.7282 4.5068c-2.5265 2.1232-5.2378 3.6922-8.472 3.6922-0.40253 0-0.82532-0.0446-1.2661-0.13042m-7.56-3.8935c-1.9111-1.4062-3.8996-3.1035-5.876-4.9639m-4.4304-4.4514c-1.6867-1.7992-3.3109-3.6502-4.8106-5.4646m-4.1907-5.4212c-2.6691-3.7316-4.3662-6.8018-4.3662-8.175 0-0.4232 0.047759-0.84639 0.13789-1.2691m3.9146-6.3143c1.8507-1.9776 4.0594-3.8909 6.0065-5.6884m4.3044-4.7544c0.40523-0.69328 0.63658-1.3528 0.63658-1.9737 0-5-2.5-7.5-10-7.5-2e-6 1.615 0.46366 3.114 1.1913 4.5221m3.9473 5.321c2.453 2.7493 4.8614 5.2031 4.8614 7.6569 0 0.61369-0.03766 1.1897-0.11298 1.7281m-4.8724 5.5161c-0.75292 0.17056-1.5911 0.25584-2.5146 0.25584-5 0-7.5-2.5-7.5-7.5-1.8e-6 -1.3145 0.46078-2.4754 1.2208-3.55m4.9335-4.5092c1.6109-1.203 3.3074-2.4296 4.779-3.8094m3.8878-6.2883c0.11655-0.58547 0.17884-1.1987 0.17884-1.8432 0-3.9439-2.3331-6.3323-5.1591-8.3923m-5.9124-4.1674c-2.242-1.8584-3.9285-4.0872-3.9285-7.4403 4e-7 -0.4432 0.029465-0.86676 0.085781-1.2724m4.1517-6.419c1.9791-1.5783 4.3347-2.9056 6.3368-4.4686m4.3119-6.3809c0.07452-0.46197 0.11378-0.94744 0.11378-1.4591 0-3.7513-2.1108-6.0953-4.7487-8.3519m-5.3528-4.6269c-2.7073-2.7464-4.8984-6.2883-4.8984-12.021 0-2.4977 0.27726-4.4408 0.73945-6.0026m4.1818-6.1159c2.526-2.2176 5.0787-4.0659 5.0787-10.382-1.8729 0-3.434 0.1559-4.7222 0.46769m13.704-115.54c-1.6285 1.5179-3.2877 3.1255-4.9133 4.7585m-4.7877 4.9934c-1.735 1.8832-3.3363 3.7127-4.703 5.3874m-4.0667 5.813c-0.33193 0.67032-0.51104 1.2204-0.51104 1.6239 0 2.7117 1.9609 4.7698 4.4648 7.0015m5.3557 4.988c2.8351 3.1041 5.1794 7.0805 5.1794 13.01 0 2.0721-0.19083 3.858-0.51977 5.4169m-3.5208 7.5077c-2.7749 3.499-5.9594 5.343-5.9594 9.5753 2.1777 0 3.9339-0.21077 5.3297-0.63232m4.6351-5.8856c0.02374-0.31588 0.03522-0.64323 0.03522-0.98207 0-5-2.5-7.5-7.5-7.5-1.0212 0-1.9382 0.20858-2.7508 0.60445m-4.2117 6.4579c-0.3583 1.6014-0.53744 3.43-0.53744 5.4377 0 3.8962 2.6987 8.0976 5.2923 12.129m3.5471 6.0419c0.70998 1.5235 1.1606 2.9774 1.1606 4.3295-7.5 0-10-2.5-10-7.5 0-0.95106 0.090452-1.8117 0.27136-2.5818m6.1135-4.8733c0.35675-0.0299 0.72845-0.04485 1.1151-0.04485 5 0 7.5 2.5 7.5 12.5 0 2.2457-0.50432 4.2393-1.2865 6.0656m-3.5077 5.838c-2.5667 3.5502-5.2059 6.7434-5.2059 10.596 1.6559 0 3.068-0.12186 4.2633-0.36558m5.4676-4.6299c0.18459-0.75031 0.26911-1.5852 0.26911-2.5045 0-5-2.5-7.5-7.5-7.5-0.96224 0-1.8319 0.0926-2.6089 0.31341m-4.6991 7.9425c-0.12797 1.2364-0.19196 2.6442-0.19196 4.2441 0 5.7688 2.2186 9.6888 4.9493 12.755m4.9828 4.7104c2.7848 2.4432 5.0679 4.6082 5.0679 7.5342 0 0.64172-0.04118 1.2423-0.12883 1.8016m-5.7081 5.3528c-1.1738 0.23036-2.5533 0.34554-4.1631 0.34554 0-6.4497 2.6623-8.2403 5.2395-10.523m3.9572-5.7645c0.50039-1.5967 0.8033-3.6016 0.8033-6.2122 0-5.6895-2.158-9.221-4.837-11.959m-5.4569-4.726c-2.618-2.2454-4.7061-4.5843-4.7061-8.3153 0-0.50597 0.038401-0.98634 0.11132-1.4437m4.0569-6.1923c1.9404-1.5603 4.2542-2.8716 6.2442-4.3988m4.5354-6.9671c0.03433-0.32139 0.05211-0.65382 0.05211-0.9981 0-3.3579-1.6913-5.5883-3.9381-7.4483m-5.6358-3.9667c-2.9445-2.1045-5.4261-4.5175-5.4261-8.585 0-0.60083 0.054149-1.1746 0.15594-1.724m3.8688-6.3681c1.6704-1.574 3.6361-2.9481 5.4389-4.313m4.9841-5.1808c0.35286-0.751 0.55229-1.5493 0.55229-2.4141 0-5-2.5-7.5-7.5-7.5-0.72353 0-1.3947 0.05235-2.0135 0.15705m-5.3958 5.7843c-0.060451 0.48932-0.090676 1.0089-0.090676 1.5587 0 2.4051 2.3138 4.8102 4.7155 7.4936m3.9295 5.177c0.82109 1.4969 1.355 3.0964 1.355 4.8294-7.5 0-10-2.5-10-7.5 0-0.52904 0.23635-1.2447 0.67921-2.1179m4.2023-6.0512c1.3765-1.7029 2.9981-3.5752 4.8043-5.5581m4.4508-4.7274c1.5641-1.613 3.2083-3.2641 4.906-4.9273m4.9327-4.7248c1.7596-1.6486 3.5469-3.285 5.3359-4.8841m5.3058-4.6252c1.8156-1.5414 3.6058-3.0167 5.3423-4.3987m6.1731-4.6684c5.0287-3.5713 9.1337-5.8167 11.368-5.8167 1.7151 0 3.2831 0.29416 4.7419 0.78157m7.7336 4.4283c3.325 2.4281 6.3795 4.7901 10.025 4.7901 0-1.2833-0.07319-2.4202-0.21958-3.4233m-5.6098-6.4675c-0.52182-0.0742-1.0787-0.10924-1.6706-0.10924-5 0-7.5 2.5-7.5 7.5 0 0.61841 0.03824 1.1986 0.12419 1.7405m7.7069 5.5202c1.336 0.1595 2.8829 0.23925 4.6689 0.23925 4.0549 0 8.1098-2.4663 12.165-5.3988m5.8846-4.3566c3.9836-2.8642 7.9672-5.2446 11.951-5.2446 2.3857 0 4.3446 0.14229 5.9445 0.42688m6.4169 5.2443c0.0961 0.56707 0.13867 1.1767 0.13867 1.8288 0 5-2.5 7.5-7.5 7.5-0.69011 0-1.3326-0.0476-1.9274-0.14945m-5.1724-5.4231c-0.26674-1.2296-0.40011-2.6952-0.40011-4.4275 3.866 0 7.0677 2.657 10.632 5.2319m6.2362 3.661c1.7074 0.67905 3.5624 1.1072 5.6314 1.1072 4.6477 0 8.2154-3.2402 11.707-6.7087m4.6275-4.435c2.5817-2.2059 5.3486-3.8563 8.6656-3.8563 0.38676 0 0.79222 0.041136 1.2144 0.12052m7.5713 3.8736c1.8614 1.3665 3.797 3.0102 5.7238 4.8128m4.7621 4.7807c1.4235 1.524 2.8011 3.0833 4.0954 4.6245m4.9444 6.362c2.5666 3.6188 4.1887 6.5834 4.1887 7.9258 0 0.53698-0.0769 1.074-0.21967 1.61m-4.1514 6.3096c-1.7985 1.8754-3.8895 3.6899-5.7386 5.399m-4.1739 4.5743c-0.45453 0.74216-0.7164 1.4464-0.7164 2.1071 0 5 2.5 7.5 10 7.5 0-1.5238-0.41281-2.9444-1.0707-4.2828m-4.1382-5.639c-2.4285-2.7174-4.7911-5.1478-4.7911-7.5781 0-0.55739 0.0311-1.0837 0.0932-1.579m5.7648-5.8197c0.51357-0.06754 1.0609-0.10131 1.642-0.10131 5 0 7.5 2.5 7.5 7.5 0 1.5676-0.65527 2.9167-1.6919 4.1616m-4.462 3.8973c-1.6811 1.2554-3.4555 2.5366-4.9703 3.9907m-3.7868 6.6399c-0.0585 0.4223-0.0891 0.85875-0.0891 1.3105 0 3.7978 2.1636 6.1533 4.8473 8.162m5.8574 4.1006c2.4223 1.9188 4.2953 4.2038 4.2953 7.7374 0 0.6235-0.0583 1.2081-0.16767 1.7587m-4.6962 6.4157c-1.9702 1.4724-4.2184 2.7594-6.0961 4.2935m-3.9397 6.1594c-0.0658 0.43599-0.10029 0.8928-0.10029 1.3726 0 3.7804 2.1437 6.1316 4.8103 8.4044m5.3592 4.6436c2.676 2.7368 4.8305 6.2671 4.8305 11.952 0 2.6133-0.30354 4.6196-0.80484 6.2171m-4.3808 6.1323c-2.4366 2.1211-4.8144 4.0553-4.8144 10.151 1.4904 0 2.7834-0.0987 3.8985-0.29618m5.9591-5.3184c0.0969-0.58308 0.14236-1.2116 0.14236-1.8855 0-2.942-2.308-5.1146-5.1134-7.5741m-5.1972-4.9669c-2.6102-3.0224-4.6894-6.8744-4.6894-12.459 0-2.0548 0.10556-3.793 0.31668-5.2579m5.3919-7.1097c0.55646-0.0918 1.1536-0.13243 1.7914-0.13243 5 0 7.5 2.5 7.5 7.5 0 0.6428-0.0413 1.2443-0.12927 1.8044m-6.0134 5.4066c-1.1057 0.19263-2.3852 0.28894-3.8573 0.28894 0-3.6243 2.3353-6.6649 4.7488-9.968m3.9117-6.3438c0.81231-1.8597 1.3395-3.8922 1.3395-6.1883 1e-5 -10-2.5-12.5-7.5-12.5-0.2674 0-0.52766 0.0071-0.78076 0.02145m-6.5095 5.1797c-0.13985 0.69636-0.20977 1.4626-0.20977 2.2988 0 5 2.5 7.5 10 7.5 0-1.3674-0.33238-2.6516-0.87595-3.8982m-4.36-6.7398c-2.4189-3.3493-4.764-7.0193-4.764-11.862 0-2.3006 0.13232-4.2043 0.39697-5.7719m4.9678-6.5313c0.65225-0.1373 1.364-0.19677 2.1352-0.19677 5 0 7.5 2.5 7.5 7.5 0 0.45617-0.0208 0.89154-0.0643 1.3061m-5.2324 5.7308c-1.2846 0.30875-2.8396 0.46313-4.7033 0.46313 1e-5 -4.0411 2.9031-6.6305 5.581-10.115m3.403-6.0338c0.626-1.8041 1.016-3.8827 1.016-6.3513 0-2.2338-2.2454-6.3387-5.8166-11.367m-3.9812-5.3042c-1.6185-2.0595-3.3778-4.203-5.2308-6.3818m-4.279-4.9097c-1.5451-1.7322-3.1262-3.4638-4.7205-5.1712m-4.8592-5.0873c-1.7288-1.7686-3.4458-3.4808-5.1219-5.1067m-5.4753-5.1305c-2.06-1.8551-3.9895-3.4972-5.7196-4.8556m-5.2337-3.5345c-0.84799-0.42474-1.5444-0.65109-2.0622-0.65109-5.1052 0-7.5 2.5-7.5 10 1.2081 0 2.3513-0.25946 3.4401-0.69479m6.4673-4.5012c2.7233-2.433 5.158-4.804 7.5926-4.804m7.1558 4.6307c0.22947 0.84168 0.34421 1.7981 0.34421 2.8693 0 5-2.5 7.5-7.5 7.5-1.2548 0-2.4396-0.41988-3.5779-1.1191m-5.2423-4.974c-1.22-1.4364-2.4282-2.9441-3.6612-4.3022m-6.2442-4.4605c-0.41712-0.0941-0.8416-0.14409-1.2744-0.14409-2.9588 0-5.1394 2.3345-7.6164 5.1616m-4.9291 5.1528c-3.0218 2.6084-6.8727 4.6856-12.455 4.6856-2.5053 0-4.7316-0.27896-6.5858-0.93005m-5.4187-5.4116c-0.3251-1.0595-0.49552-2.2737-0.49552-3.6584 7.5 0 7.5 5 15 5 0-1.343-0.1676-2.5284-0.48454-3.5691m-5.8471-5.6456c-1.7864-0.57417-3.8758-0.81252-6.1683-0.78525-5.5425 0.0659-9.3784 2.1314-12.391 4.7096m-5.3192 5.5477c-2.3447 2.6352-4.462 4.7427-7.2901 4.7427-0.52754 0-1.0427-0.0742-1.5472-0.2122m-6.113-4.5492c-1.2442-1.3837-2.4643-2.9115-3.6985-4.3554m-5.2074-4.8508c-1.0941-0.64705-2.2319-1.0323-3.4339-1.0323-5 0-7.5 2.5-7.5 7.5-2e-6 0.76758 0.05891 1.4762 0.17675 2.126m5.765 5.2834c0.4892 0.0604 1.0086 0.0906 1.5582 0.0906 2.4598 0 4.9196-2.4202 7.6771-4.8794m5.6787-4.117c1.2978-0.61872 2.6729-1.0036 4.1443-1.0036 0 7.5-2.5 10-7.5 10-0.31791 0-0.65602-0.0606-1.0118-0.1742m-6.1778-4.5552c-1.6879-1.6152-3.4424-3.4298-5.1417-5.0794m-6.7613-5.049c-0.31765-0.093-0.62075-0.14226-0.90741-0.14226-1.3703 0-4.4306 2.0655-8.1517 5.1674m131.02 264.12c-0.24767-1.2014-0.37151-2.623-0.37151-4.2922 5.8583 0 7.8728 2.1964 10.676 4.5305m7.386 4.058c2.8395 0.85301 6.621 1.4115 11.938 1.4115 0-7.7125-2.0562-14.25-5.061-19.512m-3.9602-5.66c-1.6288-1.9237-3.3626-3.5757-5.0976-4.9464m-5.3691-3.3865c-2.0926-0.99001-4.0044-1.4952-5.5121-1.4952 0 7.5 5 7.5 5 12.5 0 0.30134-9e-3 0.5936-0.0272 0.87678m-4.9631 6.3685c-0.75165 0.16982-1.5882 0.25473-2.5097 0.25473-5 0-7.5-2.5-7.5-10 1.6092 0 3.1356 0.33147 4.595 0.90905m6.3588 4.1371c1.7316 1.5229 3.3874 3.2508 5.0061 4.9778m5.0333 5.2101c1.9093 1.8047 3.8237 3.2927 5.8111 4.1028m-1.3789-8.5421c-2.6335-3.0108-5.4255-5.6528-5.4255-8.2948 0-0.96329 0.0928-1.8338 0.27838-2.6115m6.5057-4.8706c0.23267-0.012 0.47131-0.018 0.71594-0.018 5 0 7.5 2.5 7.5 7.5 0 0.73769-0.38094 1.7475-1.0465 2.933m-4.6961 6.3169c-1.0722 1.2258-2.2366 2.4709-3.4402 3.6822m-4.5516 4.2449c-3.6048 3.0941-6.9813 5.3229-8.7657 5.3229-0.56255 0-1.0934-0.0317-1.5927-0.0985m-140.87-23.081c-0.02143 0.21601-0.03268 0.44193-0.03268 0.6791 0 5 2.5 7.5 7.5 7.5 0.0966 0 0.19226-9.9e-4 0.28699-3e-3m6.2897-3.8415c0.61555-1.5084 0.92332-3.5244 0.92332-6.1559-4.184 0-7.8078 2.2408-11.153 5.2222m-4.8323 4.8285c-1.8774 2.0034-3.7051 4.0041-5.5434 5.6804m-7.7876 0.85599c0.75981-1.9148 2.0648-3.6614 3.4615-5.2964m4.2345-4.9232c0.96934-1.3169 1.62-2.5922 1.62-3.8676 0-5-2.5-7.5-7.5-7.5-1.0955 0-2.0709 0.12001-2.9264 0.36002m-4.5292 6.0305c-0.029586 0.35503-0.044378 0.72485-0.044378 1.1095 0 1.83 2.3442 5.3344 5.5617 9.0424m3.9241 4.1933c1.3055 1.3007 2.6515 2.557 3.9718 3.7026m5.9517 4.4257c1.2538 0.72084 2.3206 1.1361 3.0907 1.1361 5 0 7.5-2.5 7.5-10-3.0335 0-5.0363 0.58893-6.6517 1.481m-4.6562 3.5652c-3.1213 2.4845-7.5114 4.9538-18.692 4.9538 0-2.8153 0.27398-5.474 0.76807-7.9713 0.29534-1.4927 0.66931-2.9277 1.1104-4.304m3.0126-6.936c1.4431-2.5815 3.1153-4.862 4.8894-6.8299m4.8738-4.4915c3.8873-2.9427 7.7263-4.4673 10.346-4.4673 0 2.5984-0.60017 4.2966-1.3846 5.6144m142.04-244.44c-1.2835-0.74528-2.3752-1.1758-3.1595-1.1758-5 0-7.5 2.5-7.5 10 2.6352 0 4.4926-0.44444 5.994-1.1459m5.5316-4.0718c3.1094-2.4253 7.5512-4.7822 18.474-4.7822 0 4.4387-0.68106 8.4883-1.8321 12.129m-3.0689 7.0994c-1.4 2.5013-3.015 4.7196-4.7292 6.6445m-5.0226 4.6581c-3.8878 2.9436-7.7276 4.4686-10.347 4.4686 0-2.1234 0.40077-3.6456 0.97537-4.8503m3.9985-7.0402c0.0172-0.19484 0.0262-0.39771 0.0262-0.60955 0-5-2.5-7.5-7.5-7.5-0.0678 0-0.1351 4.59e-4 -0.20196 0.0014m-6.5734 4.379c-0.48309 1.4402-0.72463 3.2883-0.72463 5.6196 4.173 0 7.7888-2.229 11.126-5.1987m4.6671-4.6477c1.8925-2.0157 3.7327-4.0397 5.582-5.7444m7.9224-0.9508c-0.77098 1.9185-2.0872 3.6681-3.4905 5.306m-4.5075 5.3191c-0.78977 1.1581-1.2999 2.2873-1.2999 3.4166 0 5 2.5 7.5 7.5 7.5 0.83814 0 1.606-0.07025 2.3037-0.21074m5.1627-6.3186c0.0224-0.31233 0.0336-0.63587 0.0336-0.97062 0-1.7986-2.2645-5.2147-5.397-8.8519m-4.1376-4.4323c-1.296-1.2892-2.6312-2.5339-3.9406-3.6694m-159.67-4.1595c-2.8302-0.83918-6.5899-1.387-11.856-1.387 0 7.7306 2.0659 14.281 5.0822 19.549m4.4014 6.1588c1.42 1.6138 2.9108 3.0251 4.4058 4.2278m6.4793 3.9621c1.7471 0.73066 3.3379 1.1024 4.6313 1.1024 0-7.5-5-7.5-5-12.5 0-0.30832 0.0095-0.60713 0.02852-0.89643m6.5538-6.5736c0.29591-0.0199 0.6018-0.0299 0.91767-0.0299 5 0 7.5 2.5 7.5 10-1.7002 0-3.3078-0.36999-4.8418-1.0093m-6.3938-4.287c-1.6163-1.4485-3.1678-3.0676-4.6864-4.6872m-5.433-5.5885c-1.6792-1.5501-3.3658-2.8378-5.1057-3.6178m1.0155 8.3725c2.6392 3.0202 5.4452 5.6687 5.4452 8.3173 0 1.0752-0.1156 2.0348-0.34681 2.8787m-6.7244 4.6149c-0.14084 4e-3 -0.28378 6e-3 -0.42883 6e-3 -5 1e-5 -7.5-2.5-7.5-7.5 0-0.63695 0.28399-1.4768 0.78996-2.4574m5.0145-6.8632c1.0452-1.1917 2.1764-2.4005 3.3451-3.5781m4.5119-4.2158c3.6322-3.1266 7.0422-5.3856 8.8386-5.3856 0.36519 0 0.71704 0.0133 1.0556 0.041m6.279 6.9399c0.1103 0.90154 0.16545 1.9052 0.16545 3.0191-6.0234 0-7.9833-2.322-10.915-4.7282" stop-color="#000000" stroke="#bbb" stroke-width="3.3" style="font-variation-settings:normal"/><path d="m33.024 279.74c-1.9111-1.4062-3.8996-3.1035-5.876-4.9639m143.49-262.02c1.8614 1.3665 3.797 3.0102 5.7238 4.8128" stop-color="#000000" stroke="#000" stroke-width="5" style="-inkscape-stroke:none;font-variation-settings:normal"/><path d="m33.024 279.74c-1.9111-1.4062-3.8996-3.1035-5.876-4.9639m143.49-262.02c1.4725 1.081 2.9914 2.3355 4.5157 3.7049 0.0694 0.06239 0.13891 0.12502 0.20837 0.18788 0.33324 0.30155 0.66664 0.60846 0.99978 0.92011" stop-color="#000000" stroke="#bbb" stroke-width="3.3" style="-inkscape-stroke:none;font-variation-settings:normal"/><path d="m9.4984 139.34c-0.10083 0.59249-0.148 1.2322-0.148 1.919 0 2.9081 2.2552 5.0644 5.0167 7.4892m4.7907 4.4858c2.841 3.1062 5.1927 7.0857 5.1926 13.025-2e-6 1.8986-0.09012 3.5268-0.27035 4.9189m-4.6322 7.2709c-0.77413 0.21847-1.6399 0.31015-2.5974 0.31015-5 0-7.5-2.5-7.5-7.5-1.7e-6 -0.84051 0.070643-1.6104 0.22381-2.3096m5.7812-4.8768c1.1368-0.20905 2.4614-0.31358 3.995-0.31358-5e-6 3.87-2.6626 7.0744-5.24 10.644m-3.6246 6.1543c-0.69542 1.7268-1.1354 3.6045-1.1354 5.7021-1e-5 10 2.5 12.5 7.5 12.5 0.41476 0 0.81232-0.0172 1.1927-0.0516m5.9921-4.6883c0.21017-0.81495 0.31526-1.735 0.31526-2.7601 0-5-2.5-7.5-10-7.5-2e-6 1.3074 0.30387 2.5388 0.80567 3.734m4.3408 6.7803c2.4502 3.3827 4.8535 7.0834 4.8535 11.986 0 2.3189-0.13443 4.2345-0.40329 5.8091m-4.5145 6.385c-0.77024 0.21538-1.631 0.30586-2.5822 0.30586-5 1e-5 -7.5-2.5-7.5-7.5 8e-7 -0.4047 0.01638-0.79302 0.050463-1.165m5.0678-5.8276c1.3183-0.33831 2.9309-0.50746 4.8818-0.50746-5e-6 4.1088-3.0013 6.7169-5.7154 10.291m-3.2773 5.8831c-0.6209 1.7983-1.0073 3.869-1.0073 6.3262 0 2.2106 2.1991 6.2538 5.7059 11.211m3.996 5.3382c1.6212 2.0667 3.3857 4.2193 5.2454 6.4083m4.3003 4.9381c1.622 1.8195 3.2841 3.6388 4.9597 5.4303m4.5489 4.7613c1.8069 1.8509 3.6018 3.641 5.3514 5.3363m4.862 4.5695c2.1473 1.9499 4.1616 3.6793 5.9674 5.1105m6.1314 4.0358c0.56762 0.23644 1.0484 0.36032 1.4314 0.36032 5.1052 0 7.5-2.5 7.5-10-1.5691 0-3.0288 0.4377-4.4019 1.13m-5.4001 3.972c-2.7659 2.4656-5.2319 4.898-7.698 4.898m-7.0481-4.2699c-0.30128-0.92608-0.45192-2.0028-0.45192-3.2302 0-5 2.5-7.5 7.5-7.5 1.3826 0 2.6802 0.50975 3.9242 1.3413m4.6111 4.4181c1.3814 1.6096 2.744 3.3323 4.1409 4.849m6.0438 4.2462c0.41891 0.0949 0.84524 0.14535 1.28 0.14535 2.9318 0 5.0995-2.2921 7.5486-5.0843m5.035-5.263c3.016-2.593 6.858-4.6527 12.416-4.6527 2.4391 0 4.6139 0.26442 6.4382 0.87925m5.6824 5.8727c0.24945 0.95971 0.37941 2.0389 0.37941 3.2481-7.5 0-7.5-5-15-5-2e-6 1.2024 0.12852 2.2764 0.37526 3.2321m6.8289 6.2178c1.5673 0.38138 3.3472 0.55015 5.2958 0.55015 5.4455 0 9.2436-1.9769 12.232-4.4954m5.1217-5.3083c2.4895-2.8427 4.6759-5.1963 7.6468-5.1963 0.41051 0 0.81352 0.0449 1.2099 0.12989m6.2065 4.3625c1.2908 1.4112 2.5532 2.9927 3.8293 4.4918m5.5923 5.1382c1.0106 0.55324 2.0593 0.87754 3.1621 0.87754 5 0 7.5-2.5 7.5-7.5 0-0.53207-0.0283-1.0358-0.0849-1.5113m-5.7318-5.8819c-0.52547-0.0712-1.0865-0.10681-1.6832-0.10681-2.4835 0-4.9671 2.4672-7.757 4.9506m-5.7128 4.0995c-1.2642 0.58722-2.6019 0.9499-4.0302 0.9499 0-7.5 2.5-10 7.5-10 0.63295 0 1.346 0.24037 2.1189 0.66026m5.1079 4.1048c1.8981 1.8185 3.8791 3.8856 5.7704 5.6837m5.8814 4.3406c0.39608 0.13702 0.77105 0.21069 1.1215 0.21069 1.363 0 4.3978-2.0434 8.0918-5.1175m5.5762-4.946c1.5761-1.4727 3.179-3.0273 4.7507-4.6058m4.1447-4.2986c2.025-2.1721 3.8911-4.2902 5.446-6.2021m4.2189-6.2329c0.17782-0.43585 0.27172-0.80485 0.27172-1.097 0-2.7967-2.0857-4.8981-4.7016-7.2116m-4.8228-4.4586c-2.9661-3.1504-5.4756-7.1944-5.4756-13.33 0-2.029 0.18296-3.7835 0.4994-5.3192m3.7842-7.9065c2.7144-3.3072 5.7164-5.1649 5.7164-9.2743-1.8876 0-3.4586 0.15837-4.7526 0.4751m-5.211 6.0276c-0.0245 0.32057-0.0364 0.65299-0.0364 0.99726 0 5 2.5 7.5 7.5 7.5 1.0898 0 2.0609-0.23756 2.9132-0.68678m4.0811-6.5202c0.33714-1.5666 0.50571-3.3456 0.50571-5.2931 0-3.9758-2.8101-8.2694-5.4511-12.375m-3.3448-5.7023c-0.73502-1.5572-1.2041-3.0428-1.2041-4.4223 7.5 0 10 2.5 10 7.5 0 1.2562-0.1578 2.3546-0.47341 3.2952m-6.283 4.1854c-0.24138 0.0129-0.48923 0.0194-0.74355 0.0194-5 0-7.5-2.5-7.5-12.5 0-1.8033 0.32519-3.444 0.85829-4.9661m4.2229-7.3329c2.4726-3.3937 4.9188-6.4916 4.9188-10.201-1.5152 0-2.8264 0.10204-3.9541 0.30613m-5.9063 5.325c-0.095 0.57839-0.13961 1.2013-0.13961 1.8688 0 5 2.5 7.5 7.5 7.5 0.90233 0 1.7232-0.0814 2.4627-0.27365m4.6492-6.5078c0.25869-1.5574 0.38803-3.4439 0.38803-5.7185 0-5.5653-2.0648-9.4099-4.6623-12.428m-5.3918-5.1454c-2.7292-2.3996-4.946-4.5439-4.946-7.4271 0-0.60549 0.0367-1.1743 0.11443-1.7065m5.6916-5.4419c1.1805-0.23443 2.57-0.35164 4.194-0.35164 0 6.0047-2.3076 7.9711-4.7058 10.056m-4.6114 6.6377c-0.42816 1.5276-0.68289 3.4122-0.68289 5.8062 0 5.5511 2.0543 9.0479 4.6425 11.757m5.8125 5.066c2.5421 2.2034 4.545 4.5223 4.545 8.1765 0 0.53189-0.0424 1.0355-0.12279 1.5138m-3.8251 5.9426c-2.0196 1.6698-4.4862 3.0418-6.5763 4.6646m-4.4357 7.0004c-0.0265 0.28412-0.0402 0.57681-0.0402 0.8786 0 3.3932 1.7271 5.635 4.0092 7.5068m5.4732 3.843c2.9844 2.1199 5.5177 4.5406 5.5177 8.6502 0 0.49492-0.0367 0.97148-0.10659 1.4312m-3.8698 6.6151c-1.8202 1.7253-3.9987 3.2094-5.9366 4.7016m-4.8392 5.6196c-0.16082 0.51882-0.24786 1.0611-0.24786 1.6324 0 5 2.5 7.5 7.5 7.5 0.77376 0 1.4876-0.0599 2.1417-0.17961m5.1872-5.2256c0.11411-0.64123 0.17116-1.3395 0.17116-2.0948 0-2.3687-2.2442-4.7373-4.6063-7.3718m-4.369-5.94c-0.63105-1.3107-1.0247-2.7003-1.0247-4.1883 7.5 0 10 2.5 10 7.5 0 0.5119-0.22128 1.1985-0.63682 2.0336m-3.9733 5.798c-1.3636 1.7051-2.9838 3.5887-4.7974 5.5894m-4.7727 5.0786c-1.5764 1.6249-3.2338 3.2881-4.945 4.9632m-5.1678 4.9412c-1.6952 1.5839-3.4146 3.1552-5.1352 4.6913m-5.5204 4.8018c-1.8058 1.5276-3.5846 2.988-5.3085 4.3542m-5.9482 4.4837c-4.9956 3.5413-9.0717 5.7651-11.295 5.7651-2.2215 0-4.1962-0.4935-6.0064-1.2612m-6.0608-3.6514c-3.485-2.5288-6.6391-5.0873-10.433-5.0873 0 1.5913 0.11254 2.9574 0.33761 4.1224m5.9862 5.8261c0.37535 0.0348 0.76742 0.0515 1.1762 0.0515 5 0 7.5-2.5 7.5-7.5 0-0.43353-0.0188-0.84826-0.0596-1.2442m-7.5942-5.9948c-1.376-0.17403-2.9806-0.26104-4.8462-0.26104-4.0016 0-8.0031 2.4019-12.005 5.2834m-6.162 4.5564c-3.9444 2.8265-7.8889 5.1603-11.833 5.1603-2.4071 0-4.3796-0.14485-5.9873-0.43455m-6.3022-4.8666c-0.14705-0.66954-0.21047-1.4025-0.21047-2.1989 0-5 2.5-7.5 7.5-7.5 0.83736 0 1.6046 0.0701 2.3017 0.22209m4.8332 5.517c0.2434 1.1948 0.3651 2.6062 0.3651 4.261-3.7397 0-6.8578-2.4862-10.284-4.9793m-6.8691-4.0238c-1.6286-0.61478-3.3922-0.99685-5.3469-0.99685-4.6889 0-8.2786 3.2979-11.8 6.801m-4.7282 4.5068c-2.5265 2.1232-5.2378 3.6922-8.472 3.6922-0.40253 0-0.82532-0.0446-1.2661-0.13042m-7.56-3.8935c-1.9111-1.4062-3.8996-3.1035-5.876-4.9639m-4.4304-4.4514c-1.6867-1.7992-3.3109-3.6502-4.8106-5.4646m-4.1907-5.4212c-2.6691-3.7316-4.3662-6.8018-4.3662-8.175 0-0.4232 0.047759-0.84639 0.13789-1.2691m3.9146-6.3143c1.8507-1.9776 4.0594-3.8909 6.0065-5.6884m4.3044-4.7544c0.40523-0.69328 0.63658-1.3528 0.63658-1.9737 0-5-2.5-7.5-10-7.5-2e-6 1.615 0.46366 3.114 1.1913 4.5221m3.9473 5.321c2.453 2.7493 4.8614 5.2031 4.8614 7.6569 0 0.61369-0.03766 1.1897-0.11298 1.7281m-4.8724 5.5161c-0.75292 0.17056-1.5911 0.25584-2.5146 0.25584-5 0-7.5-2.5-7.5-7.5-1.8e-6 -1.3145 0.46078-2.4754 1.2208-3.55m4.9335-4.5092c1.6109-1.203 3.3074-2.4296 4.779-3.8094m3.8878-6.2883c0.11655-0.58547 0.17884-1.1987 0.17884-1.8432 0-3.9439-2.3331-6.3323-5.1591-8.3923m-5.9124-4.1674c-2.242-1.8584-3.9285-4.0872-3.9285-7.4403 4e-7 -0.4432 0.029465-0.86676 0.085781-1.2724m4.1517-6.419c1.9791-1.5783 4.3347-2.9056 6.3368-4.4686m4.3119-6.3809c0.07452-0.46197 0.11378-0.94744 0.11378-1.4591 0-3.7513-2.1108-6.0953-4.7487-8.3519m-5.3528-4.6269c-2.7073-2.7464-4.8984-6.2883-4.8984-12.021 0-2.4977 0.27726-4.4408 0.73945-6.0026m4.1818-6.1159c2.526-2.2176 5.0787-4.0659 5.0787-10.382-1.8729 0-3.434 0.1559-4.7222 0.46769m13.704-115.54c-1.6285 1.5179-3.2877 3.1255-4.9133 4.7585m-4.7877 4.9934c-1.735 1.8832-3.3363 3.7127-4.703 5.3874m-4.0667 5.813c-0.33193 0.67032-0.51104 1.2204-0.51104 1.6239 0 2.7117 1.9609 4.7698 4.4648 7.0015m5.3557 4.988c2.8351 3.1041 5.1794 7.0805 5.1794 13.01 0 2.0721-0.19083 3.858-0.51977 5.4169m-3.5208 7.5077c-2.7749 3.499-5.9594 5.343-5.9594 9.5753 2.1777 0 3.9339-0.21077 5.3297-0.63232m4.6351-5.8856c0.02374-0.31588 0.03522-0.64323 0.03522-0.98207 0-5-2.5-7.5-7.5-7.5-1.0212 0-1.9382 0.20858-2.7508 0.60445m-4.2117 6.4579c-0.3583 1.6014-0.53744 3.43-0.53744 5.4377 0 3.8962 2.6987 8.0976 5.2923 12.129m3.5471 6.0419c0.70998 1.5235 1.1606 2.9774 1.1606 4.3295-7.5 0-10-2.5-10-7.5 0-0.95106 0.090452-1.8117 0.27136-2.5818m6.1135-4.8733c0.35675-0.0299 0.72845-0.04485 1.1151-0.04485 5 0 7.5 2.5 7.5 12.5 0 2.2457-0.50432 4.2393-1.2865 6.0656m-3.5077 5.838c-2.5667 3.5502-5.2059 6.7434-5.2059 10.596 1.6559 0 3.068-0.12186 4.2633-0.36558m5.4676-4.6299c0.18459-0.75031 0.26911-1.5852 0.26911-2.5045 0-5-2.5-7.5-7.5-7.5-0.96224 0-1.8319 0.0926-2.6089 0.31341m-4.6991 7.9425c-0.12797 1.2364-0.19196 2.6442-0.19196 4.2441 0 5.7688 2.2186 9.6888 4.9493 12.755m4.9828 4.7104c2.7848 2.4432 5.0679 4.6082 5.0679 7.5342 0 0.64172-0.04118 1.2423-0.12883 1.8016m-5.7081 5.3528c-1.1738 0.23036-2.5533 0.34554-4.1631 0.34554 0-6.4497 2.6623-8.2403 5.2395-10.523m3.9572-5.7645c0.50039-1.5967 0.8033-3.6016 0.8033-6.2122 0-5.6895-2.158-9.221-4.837-11.959m-5.4569-4.726c-2.618-2.2454-4.7061-4.5843-4.7061-8.3153 0-0.50597 0.038401-0.98634 0.11132-1.4437m4.0569-6.1923c1.9404-1.5603 4.2542-2.8716 6.2442-4.3988m4.5354-6.9671c0.03433-0.32139 0.05211-0.65382 0.05211-0.9981 0-3.3579-1.6913-5.5883-3.9381-7.4483m-5.6358-3.9667c-2.9445-2.1045-5.4261-4.5175-5.4261-8.585 0-0.60083 0.054149-1.1746 0.15594-1.724m3.8688-6.3681c1.6704-1.574 3.6361-2.9481 5.4389-4.313m4.9841-5.1808c0.35286-0.751 0.55229-1.5493 0.55229-2.4141 0-5-2.5-7.5-7.5-7.5-0.72353 0-1.3947 0.05235-2.0135 0.15705m-5.3958 5.7843c-0.060451 0.48932-0.090676 1.0089-0.090676 1.5587 0 2.4051 2.3138 4.8102 4.7155 7.4936m3.9295 5.177c0.82109 1.4969 1.355 3.0964 1.355 4.8294-7.5 0-10-2.5-10-7.5 0-0.52904 0.23635-1.2447 0.67921-2.1179m4.2023-6.0512c1.3765-1.7029 2.9981-3.5752 4.8043-5.5581m4.4508-4.7274c1.5641-1.613 3.2083-3.2641 4.906-4.9273m4.9327-4.7248c1.7596-1.6486 3.5469-3.285 5.3359-4.8841m5.3058-4.6252c1.8156-1.5414 3.6058-3.0167 5.3423-4.3987m6.1731-4.6684c5.0287-3.5713 9.1337-5.8167 11.368-5.8167 1.7151 0 3.2831 0.29416 4.7419 0.78157m7.7336 4.4283c3.325 2.4281 6.3795 4.7901 10.025 4.7901 0-1.2833-0.07319-2.4202-0.21958-3.4233m-5.6098-6.4675c-0.52182-0.0742-1.0787-0.10924-1.6706-0.10924-5 0-7.5 2.5-7.5 7.5 0 0.61841 0.03824 1.1986 0.12419 1.7405m7.7069 5.5202c1.336 0.1595 2.8829 0.23925 4.6689 0.23925 4.0549 0 8.1098-2.4663 12.165-5.3988m5.8846-4.3566c3.9836-2.8642 7.9672-5.2446 11.951-5.2446 2.3857 0 4.3446 0.14229 5.9445 0.42688m6.4169 5.2443c0.0961 0.56707 0.13867 1.1767 0.13867 1.8288 0 5-2.5 7.5-7.5 7.5-0.69011 0-1.3326-0.0476-1.9274-0.14945m-5.1724-5.4231c-0.26674-1.2296-0.40011-2.6952-0.40011-4.4275 3.866 0 7.0677 2.657 10.632 5.2319m6.2362 3.661c1.7074 0.67905 3.5624 1.1072 5.6314 1.1072 4.6477 0 8.2154-3.2402 11.707-6.7087m4.6275-4.435c2.5817-2.2059 5.3486-3.8563 8.6656-3.8563 0.38676 0 0.79222 0.041136 1.2144 0.12052m7.5713 3.8736c1.8614 1.3665 3.797 3.0102 5.7238 4.8128m4.7621 4.7807c1.4235 1.524 2.8011 3.0833 4.0954 4.6245m4.9444 6.362c2.5666 3.6188 4.1887 6.5834 4.1887 7.9258 0 0.53698-0.0769 1.074-0.21967 1.61m-4.1514 6.3096c-1.7985 1.8754-3.8895 3.6899-5.7386 5.399m-4.1739 4.5743c-0.45453 0.74216-0.7164 1.4464-0.7164 2.1071 0 5 2.5 7.5 10 7.5 0-1.5238-0.41281-2.9444-1.0707-4.2828m-4.1382-5.639c-2.4285-2.7174-4.7911-5.1478-4.7911-7.5781 0-0.55739 0.0311-1.0837 0.0932-1.579m5.7648-5.8197c0.51357-0.06754 1.0609-0.10131 1.642-0.10131 5 0 7.5 2.5 7.5 7.5 0 1.5676-0.65527 2.9167-1.6919 4.1616m-4.462 3.8973c-1.6811 1.2554-3.4555 2.5366-4.9703 3.9907m-3.7868 6.6399c-0.0585 0.4223-0.0891 0.85875-0.0891 1.3105 0 3.7978 2.1636 6.1533 4.8473 8.162m5.8574 4.1006c2.4223 1.9188 4.2953 4.2038 4.2953 7.7374 0 0.6235-0.0583 1.2081-0.16767 1.7587m-4.6962 6.4157c-1.9702 1.4724-4.2184 2.7594-6.0961 4.2935m-3.9397 6.1594c-0.0658 0.43599-0.10029 0.8928-0.10029 1.3726 0 3.7804 2.1437 6.1316 4.8103 8.4044m5.3592 4.6436c2.676 2.7368 4.8305 6.2671 4.8305 11.952 0 2.6133-0.30354 4.6196-0.80484 6.2171m-4.3808 6.1323c-2.4366 2.1211-4.8144 4.0553-4.8144 10.151 1.4904 0 2.7834-0.0987 3.8985-0.29618m5.9591-5.3184c0.0969-0.58308 0.14236-1.2116 0.14236-1.8855 0-2.942-2.308-5.1146-5.1134-7.5741m-5.1972-4.9669c-2.6102-3.0224-4.6894-6.8744-4.6894-12.459 0-2.0548 0.10556-3.793 0.31668-5.2579m5.3919-7.1097c0.55646-0.0918 1.1536-0.13243 1.7914-0.13243 5 0 7.5 2.5 7.5 7.5 0 0.6428-0.0413 1.2443-0.12927 1.8044m-6.0134 5.4066c-1.1057 0.19263-2.3852 0.28894-3.8573 0.28894 0-3.6243 2.3353-6.6649 4.7488-9.968m3.9117-6.3438c0.81231-1.8597 1.3395-3.8922 1.3395-6.1883 1e-5 -10-2.5-12.5-7.5-12.5-0.2674 0-0.52766 0.0071-0.78076 0.02145m-6.5095 5.1797c-0.13985 0.69636-0.20977 1.4626-0.20977 2.2988 0 5 2.5 7.5 10 7.5 0-1.3674-0.33238-2.6516-0.87595-3.8982m-4.36-6.7398c-2.4189-3.3493-4.764-7.0193-4.764-11.862 0-2.3006 0.13232-4.2043 0.39697-5.7719m4.9678-6.5313c0.65225-0.1373 1.364-0.19677 2.1352-0.19677 5 0 7.5 2.5 7.5 7.5 0 0.45617-0.0208 0.89154-0.0643 1.3061m-5.2324 5.7308c-1.2846 0.30875-2.8396 0.46313-4.7033 0.46313 1e-5 -4.0411 2.9031-6.6305 5.581-10.115m3.403-6.0338c0.626-1.8041 1.016-3.8827 1.016-6.3513 0-2.2338-2.2454-6.3387-5.8166-11.367m-3.9812-5.3042c-1.6185-2.0595-3.3778-4.203-5.2308-6.3818m-4.279-4.9097c-1.5451-1.7322-3.1262-3.4638-4.7205-5.1712m-4.8592-5.0873c-1.7288-1.7686-3.4458-3.4808-5.1219-5.1067m-5.4753-5.1305c-2.06-1.8551-3.9895-3.4972-5.7196-4.8556m-5.2337-3.5345c-0.84799-0.42474-1.5444-0.65109-2.0622-0.65109-5.1052 0-7.5 2.5-7.5 10 1.2081 0 2.3513-0.25946 3.4401-0.69479m6.4673-4.5012c2.7233-2.433 5.158-4.804 7.5926-4.804m7.1558 4.6307c0.22947 0.84168 0.34421 1.7981 0.34421 2.8693 0 5-2.5 7.5-7.5 7.5-1.2548 0-2.4396-0.41988-3.5779-1.1191m-5.2423-4.974c-1.22-1.4364-2.4282-2.9441-3.6612-4.3022m-6.2442-4.4605c-0.41712-0.0941-0.8416-0.14409-1.2744-0.14409-2.9588 0-5.1394 2.3345-7.6164 5.1616m-4.9291 5.1528c-3.0218 2.6084-6.8727 4.6856-12.455 4.6856-2.5053 0-4.7316-0.27896-6.5858-0.93005m-5.4187-5.4116c-0.3251-1.0595-0.49552-2.2737-0.49552-3.6584 7.5 0 7.5 5 15 5 0-1.343-0.1676-2.5284-0.48454-3.5691m-5.8471-5.6456c-1.7864-0.57417-3.8758-0.81252-6.1683-0.78525-5.5425 0.0659-9.3784 2.1314-12.391 4.7096m-5.3192 5.5477c-2.3447 2.6352-4.462 4.7427-7.2901 4.7427-0.52754 0-1.0427-0.0742-1.5472-0.2122m-6.113-4.5492c-1.2442-1.3837-2.4643-2.9115-3.6985-4.3554m-5.2074-4.8508c-1.0941-0.64705-2.2319-1.0323-3.4339-1.0323-5 0-7.5 2.5-7.5 7.5-2e-6 0.76758 0.05891 1.4762 0.17675 2.126m5.765 5.2834c0.4892 0.0604 1.0086 0.0906 1.5582 0.0906 2.4598 0 4.9196-2.4202 7.6771-4.8794m5.6787-4.117c1.2978-0.61872 2.6729-1.0036 4.1443-1.0036 0 7.5-2.5 10-7.5 10-0.31791 0-0.65602-0.0606-1.0118-0.1742m-6.1778-4.5552c-1.6879-1.6152-3.4424-3.4298-5.1417-5.0794m-6.7613-5.049c-0.31765-0.093-0.62075-0.14226-0.90741-0.14226-1.3703 0-4.4306 2.0655-8.1517 5.1674m131.02 264.12c-0.24767-1.2014-0.37151-2.623-0.37151-4.2922 5.8583 0 7.8728 2.1964 10.676 4.5305m7.386 4.058c2.8395 0.85301 6.621 1.4115 11.938 1.4115 0-7.7125-2.0562-14.25-5.061-19.512m-3.9602-5.66c-1.6288-1.9237-3.3626-3.5757-5.0976-4.9464m-5.3691-3.3865c-2.0926-0.99001-4.0044-1.4952-5.5121-1.4952 0 7.5 5 7.5 5 12.5 0 0.30134-9e-3 0.5936-0.0272 0.87678m-4.9631 6.3685c-0.75165 0.16982-1.5882 0.25473-2.5097 0.25473-5 0-7.5-2.5-7.5-10 1.6092 0 3.1356 0.33147 4.595 0.90905m6.3588 4.1371c1.7316 1.5229 3.3874 3.2508 5.0061 4.9778m5.0333 5.2101c1.9093 1.8047 3.8237 3.2927 5.8111 4.1028m-1.3789-8.5421c-2.6335-3.0108-5.4255-5.6528-5.4255-8.2948 0-0.96329 0.0928-1.8338 0.27838-2.6115m6.5057-4.8706c0.23267-0.012 0.47131-0.018 0.71594-0.018 5 0 7.5 2.5 7.5 7.5 0 0.73769-0.38094 1.7475-1.0465 2.933m-4.6961 6.3169c-1.0722 1.2258-2.2366 2.4709-3.4402 3.6822m-4.5516 4.2449c-3.6048 3.0941-6.9813 5.3229-8.7657 5.3229-0.56255 0-1.0934-0.0317-1.5927-0.0985m-140.87-23.081c-0.02143 0.21601-0.03268 0.44193-0.03268 0.6791 0 5 2.5 7.5 7.5 7.5 0.0966 0 0.19226-9.9e-4 0.28699-3e-3m6.2897-3.8415c0.61555-1.5084 0.92332-3.5244 0.92332-6.1559-4.184 0-7.8078 2.2408-11.153 5.2222m-4.8323 4.8285c-1.8774 2.0034-3.7051 4.0041-5.5434 5.6804m-7.7876 0.85599c0.75981-1.9148 2.0648-3.6614 3.4615-5.2964m4.2345-4.9232c0.96934-1.3169 1.62-2.5922 1.62-3.8676 0-5-2.5-7.5-7.5-7.5-1.0955 0-2.0709 0.12001-2.9264 0.36002m-4.5292 6.0305c-0.029586 0.35503-0.044378 0.72485-0.044378 1.1095 0 1.83 2.3442 5.3344 5.5617 9.0424m3.9241 4.1933c1.3055 1.3007 2.6515 2.557 3.9718 3.7026m5.9517 4.4257c1.2538 0.72084 2.3206 1.1361 3.0907 1.1361 5 0 7.5-2.5 7.5-10-3.0335 0-5.0363 0.58893-6.6517 1.481m-4.6562 3.5652c-3.1213 2.4845-7.5114 4.9538-18.692 4.9538 0-2.8153 0.27398-5.474 0.76807-7.9713 0.29534-1.4927 0.66931-2.9277 1.1104-4.304m3.0126-6.936c1.4431-2.5815 3.1153-4.862 4.8894-6.8299m4.8738-4.4915c3.8873-2.9427 7.7263-4.4673 10.346-4.4673 0 2.5984-0.60017 4.2966-1.3846 5.6144m142.04-244.44c-1.2835-0.74528-2.3752-1.1758-3.1595-1.1758-5 0-7.5 2.5-7.5 10 2.6352 0 4.4926-0.44444 5.994-1.1459m5.5316-4.0718c3.1094-2.4253 7.5512-4.7822 18.474-4.7822 0 4.4387-0.68106 8.4883-1.8321 12.129m-3.0689 7.0994c-1.4 2.5013-3.015 4.7196-4.7292 6.6445m-5.0226 4.6581c-3.8878 2.9436-7.7276 4.4686-10.347 4.4686 0-2.1234 0.40077-3.6456 0.97537-4.8503m3.9985-7.0402c0.0172-0.19484 0.0262-0.39771 0.0262-0.60955 0-5-2.5-7.5-7.5-7.5-0.0678 0-0.1351 4.59e-4 -0.20196 0.0014m-6.5734 4.379c-0.48309 1.4402-0.72463 3.2883-0.72463 5.6196 4.173 0 7.7888-2.229 11.126-5.1987m4.6671-4.6477c1.8925-2.0157 3.7327-4.0397 5.582-5.7444m7.9224-0.9508c-0.77098 1.9185-2.0872 3.6681-3.4905 5.306m-4.5075 5.3191c-0.78977 1.1581-1.2999 2.2873-1.2999 3.4166 0 5 2.5 7.5 7.5 7.5 0.83814 0 1.606-0.07025 2.3037-0.21074m5.1627-6.3186c0.0224-0.31233 0.0336-0.63587 0.0336-0.97062 0-1.7986-2.2645-5.2147-5.397-8.8519m-4.1376-4.4323c-1.296-1.2892-2.6312-2.5339-3.9406-3.6694m-159.67-4.1595c-2.8302-0.83918-6.5899-1.387-11.856-1.387 0 7.7306 2.0659 14.281 5.0822 19.549m4.4014 6.1588c1.42 1.6138 2.9108 3.0251 4.4058 4.2278m6.4793 3.9621c1.7471 0.73066 3.3379 1.1024 4.6313 1.1024 0-7.5-5-7.5-5-12.5 0-0.30832 0.0095-0.60713 0.02852-0.89643m6.5538-6.5736c0.29591-0.0199 0.6018-0.0299 0.91767-0.0299 5 0 7.5 2.5 7.5 10-1.7002 0-3.3078-0.36999-4.8418-1.0093m-6.3938-4.287c-1.6163-1.4485-3.1678-3.0676-4.6864-4.6872m-5.433-5.5885c-1.6792-1.5501-3.3658-2.8378-5.1057-3.6178m1.0155 8.3725c2.6392 3.0202 5.4452 5.6687 5.4452 8.3173 0 1.0752-0.1156 2.0348-0.34681 2.8787m-6.7244 4.6149c-0.14084 4e-3 -0.28378 6e-3 -0.42883 6e-3 -5 1e-5 -7.5-2.5-7.5-7.5 0-0.63695 0.28399-1.4768 0.78996-2.4574m5.0145-6.8632c1.0452-1.1917 2.1764-2.4005 3.3451-3.5781m4.5119-4.2158c3.6322-3.1266 7.0422-5.3856 8.8386-5.3856 0.36519 0 0.71704 0.0133 1.0556 0.041m6.279 6.9399c0.1103 0.90154 0.16545 1.9052 0.16545 3.0191-6.0234 0-7.9833-2.322-10.915-4.7282" stop-color="#000000" stroke="#626262" stroke-width="1.3" style="font-variation-settings:normal"/></g></g></svg>
