<?xml version="1.0" encoding="UTF-8" standalone="no"?>
<!-- Created with Inkscape (http://www.inkscape.org/) -->

<svg
   width="60.518517mm"
   height="8.8508224mm"
   viewBox="0 0 60.518517 8.8508224"
   version="1.1"
   id="svg28884"
   inkscape:version="1.2.1 (9c6d41e410, 2022-07-14)"
   sodipodi:docname="seli nanpa 2.svg"
   xmlns:inkscape="http://www.inkscape.org/namespaces/inkscape"
   xmlns:sodipodi="http://sodipodi.sourceforge.net/DTD/sodipodi-0.dtd"
   xmlns="http://www.w3.org/2000/svg"
   xmlns:svg="http://www.w3.org/2000/svg">
  <sodipodi:namedview
     id="namedview28886"
     pagecolor="#ffffff"
     bordercolor="#000000"
     borderopacity="0.25"
     inkscape:showpageshadow="2"
     inkscape:pageopacity="0.0"
     inkscape:pagecheckerboard="0"
     inkscape:deskcolor="#d1d1d1"
     inkscape:document-units="mm"
     showgrid="false"
     inkscape:zoom="0.2102413"
     inkscape:cx="-2121.3719"
     inkscape:cy="356.73295"
     inkscape:window-width="1536"
     inkscape:window-height="953"
     inkscape:window-x="-8"
     inkscape:window-y="-8"
     inkscape:window-maximized="1"
     inkscape:current-layer="layer1" />
  <defs
     id="defs28881">
    <clipPath
       clipPathUnits="userSpaceOnUse"
       id="clipPath5972">
      <path
         d="M 202.652,432.893 H 399.48 V 572.064 H 202.652 Z"
         id="path5970" />
    </clipPath>
    <clipPath
       clipPathUnits="userSpaceOnUse"
       id="clipPath6010">
      <path
         d="M 202.652,432.893 H 399.48 V 572.064 H 202.652 Z"
         id="path6008" />
    </clipPath>
    <clipPath
       clipPathUnits="userSpaceOnUse"
       id="clipPath6042">
      <path
         d="M 202.652,432.893 H 399.48 V 572.064 H 202.652 Z"
         id="path6040" />
    </clipPath>
  </defs>
  <g
     inkscape:label="Camada 1"
     inkscape:groupmode="layer"
     id="layer1"
     transform="translate(-634.21533,-54.722892)">
    <g
       id="g5950"
       transform="matrix(0.35277777,0,0,-0.35277777,640.4596,59.148309)">
      <path
         d="M 0,0 H 17.854 Z"
         style="fill:#000000;fill-opacity:1;fill-rule:nonzero;stroke:none"
         id="path5952" />
    </g>
    <g
       id="g5954"
       transform="matrix(0.35277777,0,0,-0.35277777,640.45949,59.148344)">
      <path
         d="M 0,0 H 17.854"
         style="fill:none;stroke:#000000;stroke-width:0.331;stroke-linecap:round;stroke-linejoin:miter;stroke-miterlimit:4;stroke-dasharray:none;stroke-opacity:1"
         id="path5956" />
    </g>
    <g
       id="g5958"
       transform="matrix(0.35277777,0,0,-0.35277777,634.27374,59.148309)">
      <path
         d="M 0,0 H 8.927 Z"
         style="fill:#000000;fill-opacity:1;fill-rule:nonzero;stroke:none"
         id="path5960" />
    </g>
    <g
       id="g5962"
       transform="matrix(0.35277777,0,0,-0.35277777,634.27371,59.148344)">
      <path
         d="M 0,0 H 8.927"
         style="fill:none;stroke:#000000;stroke-width:0.331;stroke-linecap:round;stroke-linejoin:miter;stroke-miterlimit:4;stroke-dasharray:none;stroke-opacity:1"
         id="path5964" />
    </g>
    <g
       id="g5966"
       transform="matrix(0.35277777,0,0,-0.35277777,558.26488,236.41173)">
      <g
         id="g5968"
         clip-path="url(#clipPath5972)">
        <g
           id="g5974"
           transform="matrix(-0.4423525,0,0,-0.3178435,202.65251,572.06464)">
          <g
             id="g5976"
             transform="translate(-63.1646,218.9308)">
            <path
               d="m 0,0 c 0,-0.422 6.937,-4.427 7.302,-4.216 0.365,0.211 0.365,8.221 0,8.432 C 6.937,4.426 0,0.422 0,0"
               style="fill:#000000;fill-opacity:1;fill-rule:nonzero;stroke:none"
               id="path5978" />
          </g>
        </g>
        <g
           id="g5980"
           transform="matrix(-0.4423525,0,0,-0.3178435,202.65251,572.06464)">
          <g
             id="g5982"
             transform="translate(-63.1646,218.9308)">
            <path
               d="m 0,0 c 0,-0.422 6.937,-4.427 7.302,-4.216 0.365,0.211 0.365,8.221 0,8.432 C 6.937,4.426 0,0.422 0,0 Z"
               style="fill:none;stroke:#000000;stroke-width:0.884;stroke-linecap:round;stroke-linejoin:miter;stroke-miterlimit:4;stroke-dasharray:none;stroke-opacity:1"
               id="path5984" />
          </g>
        </g>
      </g>
    </g>
    <g
       id="g5986"
       transform="matrix(0.35277777,0,0,-0.35277777,640.4596,58.886054)">
      <path
         d="M 0,0 H 8.541 Z"
         style="fill:#000000;fill-opacity:1;fill-rule:nonzero;stroke:none"
         id="path5988" />
    </g>
    <g
       id="g5990"
       transform="matrix(0.35277777,0,0,-0.35277777,640.45949,58.885913)">
      <path
         d="M 0,0 H 8.541"
         style="fill:none;stroke:#000000;stroke-width:0.331;stroke-linecap:round;stroke-linejoin:miter;stroke-miterlimit:4;stroke-dasharray:none;stroke-opacity:1"
         id="path5992" />
    </g>
    <g
       id="g5994"
       transform="matrix(0.35277777,0,0,-0.35277777,643.76858,58.886054)">
      <path
         d="M 0,0 H 8.474 Z"
         style="fill:#000000;fill-opacity:1;fill-rule:nonzero;stroke:none"
         id="path5996" />
    </g>
    <g
       id="g5998"
       transform="matrix(0.35277777,0,0,-0.35277777,643.76847,58.885913)">
      <path
         d="M 0,0 H 8.474"
         style="fill:none;stroke:#000000;stroke-width:0.331;stroke-linecap:round;stroke-linejoin:miter;stroke-miterlimit:4;stroke-dasharray:none;stroke-opacity:1"
         id="path6000" />
    </g>
    <path
       d="m 649.70029,57.573862 h 3.14925 v 3.149247 h -3.14925 z"
       style="fill:#ffffff;fill-opacity:1;fill-rule:nonzero;stroke:#000000;stroke-width:0.116769;stroke-linecap:round;stroke-linejoin:miter;stroke-miterlimit:4;stroke-dasharray:none;stroke-opacity:1"
       id="path6002" />
    <g
       id="g6004"
       transform="matrix(0.35277777,0,0,-0.35277777,558.26488,236.41173)">
      <g
         id="g6006"
         clip-path="url(#clipPath6010)">
        <g
           id="g6012"
           transform="matrix(-0.4423525,0,0,-0.3178435,202.65248,572.06464)">
          <g
             id="g6014"
             transform="translate(-160.1326,218.9308)">
            <path
               d="m 0,0 c 0,-0.422 6.937,-4.427 7.302,-4.216 0.365,0.211 0.365,8.221 0,8.432 C 6.937,4.426 0,0.422 0,0"
               style="fill:#000000;fill-opacity:1;fill-rule:nonzero;stroke:none"
               id="path6016" />
          </g>
        </g>
        <g
           id="g6018"
           transform="matrix(-0.4423525,0,0,-0.3178435,202.65248,572.06464)">
          <g
             id="g6020"
             transform="translate(-160.1326,218.9308)">
            <path
               d="m 0,0 c 0,-0.422 6.937,-4.427 7.302,-4.216 0.365,0.211 0.365,8.221 0,8.432 C 6.937,4.426 0,0.422 0,0 Z"
               style="fill:none;stroke:#000000;stroke-width:0.884;stroke-linecap:round;stroke-linejoin:miter;stroke-miterlimit:4;stroke-dasharray:none;stroke-opacity:1"
               id="path6022" />
          </g>
        </g>
      </g>
    </g>
    <g
       id="g6024"
       transform="matrix(0.35277777,0,0,-0.35277777,655.42277,55.999062)">
      <path
         d="m 0,0 v -8.927 -8.927 h 8.927 8.927 V -8.927 0 H 8.927 Z"
         style="fill:#ffffff;fill-opacity:1;fill-rule:nonzero;stroke:#000000;stroke-width:0.331;stroke-linecap:round;stroke-linejoin:miter;stroke-miterlimit:4;stroke-dasharray:none;stroke-opacity:1"
         id="path6026" />
    </g>
    <path
       d="m 662.10184,59.320112 h 2.96863 v 2.968625 h -2.96863 z"
       style="fill:#ffffff;fill-opacity:1;fill-rule:nonzero;stroke:#000000;stroke-width:0.116769;stroke-linecap:round;stroke-linejoin:miter;stroke-miterlimit:4;stroke-dasharray:none;stroke-opacity:1"
       id="path6028" />
    <path
       d="m 665.41407,59.320112 h 2.96863 v 2.968625 h -2.96863 z"
       style="fill:#ffffff;fill-opacity:1;fill-rule:nonzero;stroke:#000000;stroke-width:0.116769;stroke-linecap:round;stroke-linejoin:miter;stroke-miterlimit:4;stroke-dasharray:none;stroke-opacity:1"
       id="path6030" />
    <path
       d="m 662.10184,56.007881 h 2.96863 v 2.968625 h -2.96863 z"
       style="fill:#ffffff;fill-opacity:1;fill-rule:nonzero;stroke:#000000;stroke-width:0.116769;stroke-linecap:round;stroke-linejoin:miter;stroke-miterlimit:4;stroke-dasharray:none;stroke-opacity:1"
       id="path6032" />
    <path
       d="m 665.41407,56.007881 h 2.96863 v 2.968625 h -2.96863 z"
       style="fill:#ffffff;fill-opacity:1;fill-rule:nonzero;stroke:#000000;stroke-width:0.116769;stroke-linecap:round;stroke-linejoin:miter;stroke-miterlimit:4;stroke-dasharray:none;stroke-opacity:1"
       id="path6034" />
    <g
       id="g6036"
       transform="matrix(0.35277777,0,0,-0.35277777,558.26488,236.41173)">
      <g
         id="g6038"
         clip-path="url(#clipPath6042)">
        <g
           id="g6044"
           transform="matrix(-0.4423525,0,0,-0.3178435,202.65253,572.06464)">
          <g
             id="g6046"
             transform="translate(-308.6188,218.9308)">
            <path
               d="m 0,0 c 0,-0.422 6.937,-4.427 7.302,-4.216 0.365,0.211 0.365,8.221 0,8.432 C 6.937,4.426 0,0.422 0,0"
               style="fill:#000000;fill-opacity:1;fill-rule:nonzero;stroke:none"
               id="path6048" />
          </g>
        </g>
        <g
           id="g6050"
           transform="matrix(-0.4423525,0,0,-0.3178435,202.65253,572.06464)">
          <g
             id="g6052"
             transform="translate(-308.6188,218.9308)">
            <path
               d="m 0,0 c 0,-0.422 6.937,-4.427 7.302,-4.216 0.365,0.211 0.365,8.221 0,8.432 C 6.937,4.426 0,0.422 0,0 Z"
               style="fill:none;stroke:#000000;stroke-width:0.884;stroke-linecap:round;stroke-linejoin:miter;stroke-miterlimit:4;stroke-dasharray:none;stroke-opacity:1"
               id="path6054" />
          </g>
        </g>
      </g>
    </g>
    <path
       d="m 671.32486,58.153123 h 3.14925 v 3.149247 h -3.14925 z"
       style="fill:#ffffff;fill-opacity:1;fill-rule:nonzero;stroke:#000000;stroke-width:0.116769;stroke-linecap:round;stroke-linejoin:round;stroke-miterlimit:4;stroke-dasharray:none;stroke-opacity:1"
       id="path6056" />
    <g
       id="g6058"
       transform="matrix(0.35277777,0,0,-0.35277777,671.325,58.153264)">
      <path
         d="m 0,0 3.162,3.286 h 8.927 L 8.927,0 Z"
         style="fill:#ffffff;fill-opacity:1;fill-rule:nonzero;stroke:none"
         id="path6060" />
    </g>
    <g
       id="g6062"
       transform="matrix(0.35277777,0,0,-0.35277777,671.325,58.153264)">
      <path
         d="m 0,0 3.162,3.286 h 8.927 L 8.927,0 Z"
         style="fill:none;stroke:#000000;stroke-width:0.331;stroke-linecap:round;stroke-linejoin:round;stroke-miterlimit:4;stroke-dasharray:none;stroke-opacity:1"
         id="path6064" />
    </g>
    <g
       id="g6066"
       transform="matrix(0.35277777,0,0,-0.35277777,674.47429,61.302582)">
      <path
         d="m 0,0 3.162,3.286 v 8.927 L 0,8.927 Z"
         style="fill:#ffffff;fill-opacity:1;fill-rule:nonzero;stroke:none"
         id="path6068" />
    </g>
    <g
       id="g6070"
       transform="matrix(0.35277777,0,0,-0.35277777,674.47429,61.302582)">
      <path
         d="m 0,0 3.162,3.286 v 8.927 L 0,8.927 Z"
         style="fill:none;stroke:#000000;stroke-width:0.331;stroke-linecap:round;stroke-linejoin:round;stroke-miterlimit:4;stroke-dasharray:none;stroke-opacity:1"
         id="path6072" />
    </g>
    <g
       id="g6074"
       transform="matrix(0.47399496,0,0,0.47392995,629.75619,34.600063)">
      <path
         d="m 103.359,47.541 h 13.47 v 13.47 h -13.47 z"
         style="fill:#ffffff;fill-opacity:1;fill-rule:nonzero;stroke:none"
         id="path6076" />
    </g>
    <g
       id="g6078"
       transform="matrix(0.47399496,0,0,0.47392995,629.75619,34.600063)">
      <path
         d="m 103.358,47.541 h 13.47 v 13.47 h -13.47 z"
         style="fill:none;stroke:#000000;stroke-width:0.247;stroke-linecap:round;stroke-linejoin:round;stroke-miterlimit:4;stroke-dasharray:none;stroke-opacity:1"
         id="path6080" />
    </g>
    <g
       id="g6082"
       transform="matrix(0.47399496,0,0,0.47392995,629.75619,34.600063)">
      <g
         id="g6084"
         transform="translate(103.3587,47.5407)">
        <path
           d="m 0,0 4.771,-4.957 h 13.47 L 13.47,0 Z"
           style="fill:#ffffff;fill-opacity:1;fill-rule:nonzero;stroke:none"
           id="path6086" />
      </g>
    </g>
    <g
       id="g6088"
       transform="matrix(0.47399496,0,0,0.47392995,629.75619,34.600063)">
      <g
         id="g6090"
         transform="translate(103.3584,47.541)">
        <path
           d="m 0,0 4.771,-4.958 h 13.47 L 13.47,0 Z"
           style="fill:none;stroke:#000000;stroke-width:0.247;stroke-linecap:round;stroke-linejoin:round;stroke-miterlimit:4;stroke-dasharray:none;stroke-opacity:1"
           id="path6092" />
      </g>
    </g>
    <g
       id="g6094"
       transform="matrix(0.47399496,0,0,0.47392995,629.75619,34.600063)">
      <g
         id="g6096"
         transform="translate(116.829,47.5407)">
        <path
           d="M 0,0 4.771,-4.957 V 8.513 L 0,13.47 Z"
           style="fill:#ffffff;fill-opacity:1;fill-rule:nonzero;stroke:none"
           id="path6098" />
      </g>
    </g>
    <g
       id="g6100"
       transform="matrix(0.47399496,0,0,0.47392995,629.75619,34.600063)">
      <g
         id="g6102"
         transform="translate(116.8288,61.0114)">
        <path
           d="m 0,0 4.771,-4.958 v -13.47 L 0,-13.47 Z"
           style="fill:none;stroke:#000000;stroke-width:0.247;stroke-linecap:round;stroke-linejoin:round;stroke-miterlimit:4;stroke-dasharray:none;stroke-opacity:1"
           id="path6104" />
      </g>
    </g>
    <g
       id="g6106"
       transform="matrix(0.21779184,0,0,0.21779741,629.75619,34.600042)">
      <path
         d="m 279.838,112.988 h 13.47 v 13.47 h -13.47 z"
         style="fill:#ffffff;fill-opacity:1;fill-rule:nonzero;stroke:none"
         id="path6108" />
    </g>
    <g
       id="g6110"
       transform="matrix(0.21779184,0,0,0.21779741,629.75619,34.600042)">
      <path
         d="m 279.838,112.988 h 13.47 v 13.47 h -13.47 z"
         style="fill:none;stroke:#000000;stroke-width:0.537;stroke-linecap:round;stroke-linejoin:round;stroke-miterlimit:4;stroke-dasharray:none;stroke-opacity:1"
         id="path6112" />
    </g>
    <g
       id="g6114"
       transform="matrix(0.21779184,0,0,0.21779741,629.75619,34.600042)">
      <g
         id="g6116"
         transform="translate(279.8379,112.9878)">
        <path
           d="M 0,0 4.77,-4.958 H 18.241 L 13.47,0 Z"
           style="fill:#ffffff;fill-opacity:1;fill-rule:nonzero;stroke:none"
           id="path6118" />
      </g>
    </g>
    <g
       id="g6120"
       transform="matrix(0.21779184,0,0,0.21779741,629.75619,34.600042)">
      <g
         id="g6122"
         transform="translate(279.8376,112.9876)">
        <path
           d="m 0,0 4.771,-4.958 h 13.47 L 13.47,0 Z"
           style="fill:none;stroke:#000000;stroke-width:0.537;stroke-linecap:round;stroke-linejoin:round;stroke-miterlimit:4;stroke-dasharray:none;stroke-opacity:1"
           id="path6124" />
      </g>
    </g>
    <g
       id="g6126"
       transform="matrix(0.21779184,0,0,0.21779741,629.75619,34.600042)">
      <g
         id="g6128"
         transform="translate(293.3082,112.9878)">
        <path
           d="M 0,0 4.771,-4.958 V 8.512 L 0,13.47 Z"
           style="fill:#ffffff;fill-opacity:1;fill-rule:nonzero;stroke:none"
           id="path6130" />
      </g>
    </g>
    <g
       id="g6132"
       transform="matrix(0.21779184,0,0,0.21779741,629.75619,34.600042)">
      <g
         id="g6134"
         transform="translate(293.308,126.458)">
        <path
           d="m 0,0 4.771,-4.958 v -13.47 L 0,-13.47 Z"
           style="fill:none;stroke:#000000;stroke-width:0.537;stroke-linecap:round;stroke-linejoin:round;stroke-miterlimit:4;stroke-dasharray:none;stroke-opacity:1"
           id="path6136" />
      </g>
    </g>
    <g
       id="g6138"
       transform="matrix(0.21779184,0,0,0.21779741,629.75618,34.600063)">
      <path
         d="m 264.825,97.975 h 13.47 v 13.47 h -13.47 z"
         style="fill:#ffffff;fill-opacity:1;fill-rule:nonzero;stroke:none"
         id="path6140" />
    </g>
    <g
       id="g6142"
       transform="matrix(0.21779184,0,0,0.21779741,629.75618,34.600063)">
      <path
         d="m 264.825,97.975 h 13.47 v 13.47 h -13.47 z"
         style="fill:none;stroke:#000000;stroke-width:0.537;stroke-linecap:round;stroke-linejoin:round;stroke-miterlimit:4;stroke-dasharray:none;stroke-opacity:1"
         id="path6144" />
    </g>
    <g
       id="g6146"
       transform="matrix(0.21779184,0,0,0.21779741,629.75618,34.600063)">
      <g
         id="g6148"
         transform="translate(264.825,97.9749)">
        <path
           d="m 0,0 4.771,-4.957 h 13.47 L 13.47,0 Z"
           style="fill:#ffffff;fill-opacity:1;fill-rule:nonzero;stroke:none"
           id="path6150" />
      </g>
    </g>
    <g
       id="g6152"
       transform="matrix(0.21779184,0,0,0.21779741,629.75618,34.600063)">
      <g
         id="g6154"
         transform="translate(264.8248,97.9753)">
        <path
           d="m 0,0 4.771,-4.958 h 13.47 L 13.47,0 Z"
           style="fill:none;stroke:#000000;stroke-width:0.537;stroke-linecap:round;stroke-linejoin:round;stroke-miterlimit:4;stroke-dasharray:none;stroke-opacity:1"
           id="path6156" />
      </g>
    </g>
    <g
       id="g6158"
       transform="matrix(0.21779184,0,0,0.21779741,629.75618,34.600063)">
      <g
         id="g6160"
         transform="translate(278.2953,97.9749)">
        <path
           d="M 0,0 4.771,-4.957 V 8.513 L 0,13.47 Z"
           style="fill:#ffffff;fill-opacity:1;fill-rule:nonzero;stroke:none"
           id="path6162" />
      </g>
    </g>
    <g
       id="g6164"
       transform="matrix(0.21779184,0,0,0.21779741,629.75618,34.600063)">
      <g
         id="g6166"
         transform="translate(278.2951,111.4456)">
        <path
           d="m 0,0 4.771,-4.958 v -13.47 L 0,-13.47 Z"
           style="fill:none;stroke:#000000;stroke-width:0.537;stroke-linecap:round;stroke-linejoin:round;stroke-miterlimit:4;stroke-dasharray:none;stroke-opacity:1"
           id="path6168" />
      </g>
    </g>
    <g
       id="g6170"
       transform="matrix(0.21779184,0,0,0.21779741,629.75619,34.600063)">
      <path
         d="m 279.838,97.975 h 13.47 v 13.47 h -13.47 z"
         style="fill:#ffffff;fill-opacity:1;fill-rule:nonzero;stroke:none"
         id="path6172" />
    </g>
    <g
       id="g6174"
       transform="matrix(0.21779184,0,0,0.21779741,629.75619,34.600063)">
      <path
         d="m 279.838,97.975 h 13.47 v 13.47 h -13.47 z"
         style="fill:none;stroke:#000000;stroke-width:0.537;stroke-linecap:round;stroke-linejoin:round;stroke-miterlimit:4;stroke-dasharray:none;stroke-opacity:1"
         id="path6176" />
    </g>
    <g
       id="g6178"
       transform="matrix(0.21779184,0,0,0.21779741,629.75619,34.600063)">
      <g
         id="g6180"
         transform="translate(279.8379,97.9749)">
        <path
           d="M 0,0 4.77,-4.957 H 18.241 L 13.47,0 Z"
           style="fill:#ffffff;fill-opacity:1;fill-rule:nonzero;stroke:none"
           id="path6182" />
      </g>
    </g>
    <g
       id="g6184"
       transform="matrix(0.21779184,0,0,0.21779741,629.75619,34.600063)">
      <g
         id="g6186"
         transform="translate(279.8376,97.9753)">
        <path
           d="m 0,0 4.771,-4.958 h 13.47 L 13.47,0 Z"
           style="fill:none;stroke:#000000;stroke-width:0.537;stroke-linecap:round;stroke-linejoin:round;stroke-miterlimit:4;stroke-dasharray:none;stroke-opacity:1"
           id="path6188" />
      </g>
    </g>
    <g
       id="g6190"
       transform="matrix(0.21779184,0,0,0.21779741,629.75619,34.600063)">
      <g
         id="g6192"
         transform="translate(293.3082,97.9749)">
        <path
           d="M 0,0 4.771,-4.957 V 8.513 L 0,13.47 Z"
           style="fill:#ffffff;fill-opacity:1;fill-rule:nonzero;stroke:none"
           id="path6194" />
      </g>
    </g>
    <g
       id="g6196"
       transform="matrix(0.21779184,0,0,0.21779741,629.75619,34.600063)">
      <g
         id="g6198"
         transform="translate(293.308,111.4456)">
        <path
           d="m 0,0 4.771,-4.958 v -13.47 L 0,-13.47 Z"
           style="fill:none;stroke:#000000;stroke-width:0.537;stroke-linecap:round;stroke-linejoin:round;stroke-miterlimit:4;stroke-dasharray:none;stroke-opacity:1"
           id="path6200" />
      </g>
    </g>
    <g
       id="g6202"
       transform="matrix(0.21779184,0,0,0.21779741,629.75619,34.600042)">
      <path
         d="m 259.011,118.935 h 13.47 v 13.471 h -13.47 z"
         style="fill:#ffffff;fill-opacity:1;fill-rule:nonzero;stroke:none"
         id="path6204" />
    </g>
    <g
       id="g6206"
       transform="matrix(0.21779184,0,0,0.21779741,629.75619,34.600042)">
      <path
         d="m 259.011,118.935 h 13.47 v 13.47 h -13.47 z"
         style="fill:none;stroke:#000000;stroke-width:0.537;stroke-linecap:round;stroke-linejoin:round;stroke-miterlimit:4;stroke-dasharray:none;stroke-opacity:1"
         id="path6208" />
    </g>
    <g
       id="g6210"
       transform="matrix(0.21779184,0,0,0.21779741,629.75619,34.600042)">
      <g
         id="g6212"
         transform="translate(259.011,118.935)">
        <path
           d="M 0,0 4.77,-4.957 H 18.241 L 13.47,0 Z"
           style="fill:#ffffff;fill-opacity:1;fill-rule:nonzero;stroke:none"
           id="path6214" />
      </g>
    </g>
    <g
       id="g6216"
       transform="matrix(0.21779184,0,0,0.21779741,629.75619,34.600042)">
      <g
         id="g6218"
         transform="translate(259.0107,118.9354)">
        <path
           d="m 0,0 4.771,-4.958 h 13.47 L 13.47,0 Z"
           style="fill:none;stroke:#000000;stroke-width:0.537;stroke-linecap:round;stroke-linejoin:round;stroke-miterlimit:4;stroke-dasharray:none;stroke-opacity:1"
           id="path6220" />
      </g>
    </g>
    <g
       id="g6222"
       transform="matrix(0.21779184,0,0,0.21779741,629.75619,34.600042)">
      <g
         id="g6224"
         transform="translate(272.4813,118.935)">
        <path
           d="M 0,0 4.771,-4.957 V 8.513 L 0,13.471 Z"
           style="fill:#ffffff;fill-opacity:1;fill-rule:nonzero;stroke:none"
           id="path6226" />
      </g>
    </g>
    <g
       id="g6228"
       transform="matrix(0.21779184,0,0,0.21779741,629.75619,34.600042)">
      <g
         id="g6230"
         transform="translate(272.481,132.4058)">
        <path
           d="m 0,0 4.771,-4.958 v -13.47 L 0,-13.47 Z"
           style="fill:none;stroke:#000000;stroke-width:0.537;stroke-linecap:round;stroke-linejoin:round;stroke-miterlimit:4;stroke-dasharray:none;stroke-opacity:1"
           id="path6232" />
      </g>
    </g>
    <g
       id="g6234"
       transform="matrix(0.21779184,0,0,0.21779741,629.75619,34.600063)">
      <path
         d="m 259.011,103.923 h 13.47 v 13.47 h -13.47 z"
         style="fill:#ffffff;fill-opacity:1;fill-rule:nonzero;stroke:none"
         id="path6236" />
    </g>
    <g
       id="g6238"
       transform="matrix(0.21779184,0,0,0.21779741,629.75619,34.600063)">
      <path
         d="m 259.011,103.923 h 13.47 v 13.47 h -13.47 z"
         style="fill:none;stroke:#000000;stroke-width:0.537;stroke-linecap:round;stroke-linejoin:round;stroke-miterlimit:4;stroke-dasharray:none;stroke-opacity:1"
         id="path6240" />
    </g>
    <g
       id="g6242"
       transform="matrix(0.21779184,0,0,0.21779741,629.75619,34.600063)">
      <g
         id="g6244"
         transform="translate(259.011,103.923)">
        <path
           d="M 0,0 4.77,-4.958 H 18.241 L 13.47,0 Z"
           style="fill:#ffffff;fill-opacity:1;fill-rule:nonzero;stroke:none"
           id="path6246" />
      </g>
    </g>
    <g
       id="g6248"
       transform="matrix(0.21779184,0,0,0.21779741,629.75619,34.600063)">
      <g
         id="g6250"
         transform="translate(259.0107,103.9231)">
        <path
           d="m 0,0 4.771,-4.958 h 13.47 L 13.47,0 Z"
           style="fill:none;stroke:#000000;stroke-width:0.537;stroke-linecap:round;stroke-linejoin:round;stroke-miterlimit:4;stroke-dasharray:none;stroke-opacity:1"
           id="path6252" />
      </g>
    </g>
    <g
       id="g6254"
       transform="matrix(0.21779184,0,0,0.21779741,629.75619,34.600063)">
      <g
         id="g6256"
         transform="translate(272.4813,103.923)">
        <path
           d="M 0,0 4.771,-4.958 V 8.512 L 0,13.47 Z"
           style="fill:#ffffff;fill-opacity:1;fill-rule:nonzero;stroke:none"
           id="path6258" />
      </g>
    </g>
    <g
       id="g6260"
       transform="matrix(0.21779184,0,0,0.21779741,629.75619,34.600063)">
      <g
         id="g6262"
         transform="translate(272.481,117.3935)">
        <path
           d="m 0,0 4.771,-4.958 v -13.47 L 0,-13.47 Z"
           style="fill:none;stroke:#000000;stroke-width:0.537;stroke-linecap:round;stroke-linejoin:round;stroke-miterlimit:4;stroke-dasharray:none;stroke-opacity:1"
           id="path6264" />
      </g>
    </g>
    <g
       id="g6266"
       transform="matrix(0.21779184,0,0,0.21779741,629.75618,34.600042)">
      <path
         d="m 274.024,118.935 h 13.47 v 13.471 h -13.47 z"
         style="fill:#ffffff;fill-opacity:1;fill-rule:nonzero;stroke:none"
         id="path6268" />
    </g>
    <g
       id="g6270"
       transform="matrix(0.21779184,0,0,0.21779741,629.75618,34.600042)">
      <path
         d="m 274.023,118.935 h 13.47 v 13.47 h -13.47 z"
         style="fill:none;stroke:#000000;stroke-width:0.537;stroke-linecap:round;stroke-linejoin:round;stroke-miterlimit:4;stroke-dasharray:none;stroke-opacity:1"
         id="path6272" />
    </g>
    <g
       id="g6274"
       transform="matrix(0.21779184,0,0,0.21779741,629.75618,34.600042)">
      <g
         id="g6276"
         transform="translate(274.0239,118.935)">
        <path
           d="M 0,0 4.77,-4.957 H 18.24 L 13.47,0 Z"
           style="fill:#ffffff;fill-opacity:1;fill-rule:nonzero;stroke:none"
           id="path6278" />
      </g>
    </g>
    <g
       id="g6280"
       transform="matrix(0.21779184,0,0,0.21779741,629.75618,34.600042)">
      <g
         id="g6282"
         transform="translate(274.0235,118.9354)">
        <path
           d="m 0,0 4.771,-4.958 h 13.47 L 13.47,0 Z"
           style="fill:none;stroke:#000000;stroke-width:0.537;stroke-linecap:round;stroke-linejoin:round;stroke-miterlimit:4;stroke-dasharray:none;stroke-opacity:1"
           id="path6284" />
      </g>
    </g>
    <g
       id="g6286"
       transform="matrix(0.21779184,0,0,0.21779741,629.75618,34.600042)">
      <g
         id="g6288"
         transform="translate(287.4942,118.935)">
        <path
           d="M 0,0 4.77,-4.957 V 8.513 L 0,13.471 Z"
           style="fill:#ffffff;fill-opacity:1;fill-rule:nonzero;stroke:none"
           id="path6290" />
      </g>
    </g>
    <g
       id="g6292"
       transform="matrix(0.21779184,0,0,0.21779741,629.75618,34.600042)">
      <g
         id="g6294"
         transform="translate(287.4939,132.4058)">
        <path
           d="m 0,0 4.771,-4.958 v -13.47 L 0,-13.47 Z"
           style="fill:none;stroke:#000000;stroke-width:0.537;stroke-linecap:round;stroke-linejoin:round;stroke-miterlimit:4;stroke-dasharray:none;stroke-opacity:1"
           id="path6296" />
      </g>
    </g>
    <g
       id="g6298"
       transform="matrix(0.21779184,0,0,0.21779741,629.75618,34.600063)">
      <path
         d="m 274.024,103.923 h 13.47 v 13.47 h -13.47 z"
         style="fill:#ffffff;fill-opacity:1;fill-rule:nonzero;stroke:none"
         id="path6300" />
    </g>
    <g
       id="g6302"
       transform="matrix(0.21779184,0,0,0.21779741,629.75618,34.600063)">
      <path
         d="m 274.023,103.923 h 13.47 v 13.47 h -13.47 z"
         style="fill:none;stroke:#000000;stroke-width:0.537;stroke-linecap:round;stroke-linejoin:round;stroke-miterlimit:4;stroke-dasharray:none;stroke-opacity:1"
         id="path6304" />
    </g>
    <g
       id="g6306"
       transform="matrix(0.21779184,0,0,0.21779741,629.75618,34.600063)">
      <g
         id="g6308"
         transform="translate(274.0239,103.923)">
        <path
           d="M 0,0 4.77,-4.958 H 18.24 L 13.47,0 Z"
           style="fill:#ffffff;fill-opacity:1;fill-rule:nonzero;stroke:none"
           id="path6310" />
      </g>
    </g>
    <g
       id="g6312"
       transform="matrix(0.21779184,0,0,0.21779741,629.75618,34.600063)">
      <g
         id="g6314"
         transform="translate(274.0235,103.9231)">
        <path
           d="m 0,0 4.771,-4.958 h 13.47 L 13.47,0 Z"
           style="fill:none;stroke:#000000;stroke-width:0.537;stroke-linecap:round;stroke-linejoin:round;stroke-miterlimit:4;stroke-dasharray:none;stroke-opacity:1"
           id="path6316" />
      </g>
    </g>
    <g
       id="g6318"
       transform="matrix(0.21779184,0,0,0.21779741,629.75618,34.600063)">
      <g
         id="g6320"
         transform="translate(287.4942,103.923)">
        <path
           d="M 0,0 4.77,-4.958 V 8.512 L 0,13.47 Z"
           style="fill:#ffffff;fill-opacity:1;fill-rule:nonzero;stroke:none"
           id="path6322" />
      </g>
    </g>
    <g
       id="g6324"
       transform="matrix(0.21779184,0,0,0.21779741,629.75618,34.600063)">
      <g
         id="g6326"
         transform="translate(287.4939,117.3935)">
        <path
           d="m 0,0 4.771,-4.958 v -13.47 L 0,-13.47 Z"
           style="fill:none;stroke:#000000;stroke-width:0.537;stroke-linecap:round;stroke-linejoin:round;stroke-miterlimit:4;stroke-dasharray:none;stroke-opacity:1"
           id="path6328" />
      </g>
    </g>
  </g>
</svg>
