<?xml version="1.0" encoding="UTF-8" standalone="no"?>
<!-- Created with Inkscape (http://www.inkscape.org/) -->

<svg
   width="38.272499mm"
   height="8.0147285mm"
   viewBox="0 0 38.272499 8.0147285"
   version="1.1"
   id="svg28316"
   inkscape:version="1.2.1 (9c6d41e410, 2022-07-14)"
   sodipodi:docname="seli nanpa 1.svg"
   xmlns:inkscape="http://www.inkscape.org/namespaces/inkscape"
   xmlns:sodipodi="http://sodipodi.sourceforge.net/DTD/sodipodi-0.dtd"
   xmlns="http://www.w3.org/2000/svg"
   xmlns:svg="http://www.w3.org/2000/svg">
  <sodipodi:namedview
     id="namedview28318"
     pagecolor="#ffffff"
     bordercolor="#000000"
     borderopacity="0.25"
     inkscape:showpageshadow="2"
     inkscape:pageopacity="0.0"
     inkscape:pagecheckerboard="0"
     inkscape:deskcolor="#d1d1d1"
     inkscape:document-units="mm"
     showgrid="false"
     inkscape:zoom="0.2102413"
     inkscape:cx="4.7564393"
     inkscape:cy="-1165.3276"
     inkscape:window-width="1536"
     inkscape:window-height="953"
     inkscape:window-x="-8"
     inkscape:window-y="-8"
     inkscape:window-maximized="1"
     inkscape:current-layer="layer1" />
  <defs
     id="defs28313">
    <clipPath
       clipPathUnits="userSpaceOnUse"
       id="clipPath5928">
      <path
         d="M 0,155.445 H 258.787 V 351.709 H 0 Z"
         id="path5926" />
    </clipPath>
  </defs>
  <g
     inkscape:label="Camada 1"
     inkscape:groupmode="layer"
     id="layer1"
     transform="translate(-50.079852,-456.59433)">
    <g
       id="g5856"
       transform="matrix(0.35277777,0,0,-0.35277777,51.438246,461.02537)">
      <path
         d="M 0,0 H 100.252"
         style="fill:none;stroke:#000000;stroke-width:0.726;stroke-linecap:round;stroke-linejoin:miter;stroke-miterlimit:4;stroke-dasharray:none;stroke-opacity:1"
         id="path5858" />
    </g>
    <g
       id="g5860"
       transform="matrix(0.35277777,0,0,-0.35277777,55.587653,458.96525)">
      <path
         d="M 0,0 V -11.679"
         style="fill:none;stroke:#000000;stroke-width:0.726;stroke-linecap:round;stroke-linejoin:miter;stroke-miterlimit:4;stroke-dasharray:none;stroke-opacity:1"
         id="path5862" />
    </g>
    <g
       id="g5864"
       transform="matrix(0.35277777,0,0,-0.35277777,69.501209,458.96525)">
      <path
         d="M 0,0 V -11.679"
         style="fill:none;stroke:#000000;stroke-width:0.726;stroke-linecap:round;stroke-linejoin:miter;stroke-miterlimit:4;stroke-dasharray:none;stroke-opacity:1"
         id="path5866" />
    </g>
    <g
       id="g5868"
       transform="matrix(0.35277777,0,0,-0.35277777,83.417939,458.96525)">
      <path
         d="M 0,0 V -11.679"
         style="fill:none;stroke:#000000;stroke-width:0.726;stroke-linecap:round;stroke-linejoin:miter;stroke-miterlimit:4;stroke-dasharray:none;stroke-opacity:1"
         id="path5870" />
    </g>
    <g
       id="g5872"
       transform="matrix(0.35277777,0,0,-0.35277777,54.06517,457.20058)">
      <path
         d="m 0,0 v -1.327 h -1.099 v -0.3 H 0 v -1.098 h 0.3 v 1.098 h 1.447 v -1.098 h 0.3 v 1.098 h 1.104 v 0.3 H 2.047 V 0 H 3.151 V 0.3 H 2.047 v 0.979 h -0.3 V 0.3 H 0.3 V 1.279 H 0 V 0.3 H -1.099 V 0 Z M 0.3,0 H 1.747 V -1.327 H 0.3 Z"
         style="fill:#000000;fill-opacity:1;fill-rule:nonzero;stroke:none"
         id="path5874" />
    </g>
    <g
       id="g5876"
       transform="matrix(0.35277777,0,0,-0.35277777,54.06517,457.20058)">
      <path
         d="m 0,0 v -1.327 h -1.099 v -0.3 H 0 v -1.098 h 0.3 v 1.098 h 1.447 v -1.098 h 0.3 v 1.098 h 1.104 v 0.3 H 2.047 V 0 H 3.151 V 0.3 H 2.047 v 0.979 h -0.3 V 0.3 H 0.3 V 1.279 H 0 V 0.3 H -1.099 V 0 Z M 0.3,0 H 1.747 V -1.327 H 0.3 Z"
         style="fill:none;stroke:#000000;stroke-width:0.454;stroke-linecap:butt;stroke-linejoin:miter;stroke-miterlimit:4;stroke-dasharray:none;stroke-opacity:1"
         id="path5878" />
    </g>
    <g
       id="g5880"
       transform="matrix(0.35277777,0,0,-0.35277777,56.197359,457.5329)">
      <path
         d="M 0,0 1.639,-1.759 1.861,-1.555 0.204,0.216 1.861,1.993 1.639,2.197 0,0.438 -1.645,2.197 -1.861,1.993 -0.21,0.216 -1.861,-1.555 -1.645,-1.759 Z"
         style="fill:#000000;fill-opacity:1;fill-rule:nonzero;stroke:#000000;stroke-width:0.454;stroke-linecap:butt;stroke-linejoin:miter;stroke-miterlimit:4;stroke-dasharray:none;stroke-opacity:1"
         id="path5882" />
    </g>
    <g
       id="g5884"
       transform="matrix(0.35277777,0,0,-0.35277777,68.329457,457.20058)">
      <path
         d="m 0,0 v -1.327 h -1.099 v -0.3 H 0 v -1.098 h 0.3 v 1.098 h 1.447 v -1.098 h 0.3 v 1.098 h 1.104 v 0.3 H 2.047 V 0 H 3.151 V 0.3 H 2.047 v 0.979 h -0.3 V 0.3 H 0.3 V 1.279 H 0 V 0.3 H -1.099 V 0 Z M 0.3,0 H 1.747 V -1.327 H 0.3 Z"
         style="fill:#000000;fill-opacity:1;fill-rule:nonzero;stroke:none"
         id="path5886" />
    </g>
    <g
       id="g5888"
       transform="matrix(0.35277777,0,0,-0.35277777,68.329457,457.20058)">
      <path
         d="m 0,0 v -1.327 h -1.099 v -0.3 H 0 v -1.098 h 0.3 v 1.098 h 1.447 v -1.098 h 0.3 v 1.098 h 1.104 v 0.3 H 2.047 V 0 H 3.151 V 0.3 H 2.047 v 0.979 h -0.3 V 0.3 H 0.3 V 1.279 H 0 V 0.3 H -1.099 V 0 Z M 0.3,0 H 1.747 V -1.327 H 0.3 Z"
         style="fill:none;stroke:#000000;stroke-width:0.454;stroke-linecap:butt;stroke-linejoin:miter;stroke-miterlimit:4;stroke-dasharray:none;stroke-opacity:1"
         id="path5890" />
    </g>
    <g
       id="g5892"
       transform="matrix(0.35277777,0,0,-0.35277777,70.692151,458.16197)">
      <path
         d="M 0,0 V 4.028 L -1.981,2.755 -1.819,2.497 -0.3,3.476 V 0 Z"
         style="fill:#000000;fill-opacity:1;fill-rule:nonzero;stroke:#000000;stroke-width:0.454;stroke-linecap:butt;stroke-linejoin:miter;stroke-miterlimit:4;stroke-dasharray:none;stroke-opacity:1"
         id="path5894" />
    </g>
    <g
       id="g5896"
       transform="matrix(0.35277777,0,0,-0.35277777,82.166178,457.20058)">
      <path
         d="m 0,0 v -1.327 h -1.099 v -0.3 H 0 v -1.098 h 0.3 v 1.098 h 1.447 v -1.098 h 0.3 v 1.098 h 1.104 v 0.3 H 2.047 V 0 H 3.151 V 0.3 H 2.047 v 0.979 h -0.3 V 0.3 H 0.3 V 1.279 H 0 V 0.3 H -1.099 V 0 Z M 0.3,0 H 1.747 V -1.327 H 0.3 Z"
         style="fill:#000000;fill-opacity:1;fill-rule:nonzero;stroke:none"
         id="path5898" />
    </g>
    <g
       id="g5900"
       transform="matrix(0.35277777,0,0,-0.35277777,82.166178,457.20058)">
      <path
         d="m 0,0 v -1.327 h -1.099 v -0.3 H 0 v -1.098 h 0.3 v 1.098 h 1.447 v -1.098 h 0.3 v 1.098 h 1.104 v 0.3 H 2.047 V 0 H 3.151 V 0.3 H 2.047 v 0.979 h -0.3 V 0.3 H 0.3 V 1.279 H 0 V 0.3 H -1.099 V 0 Z M 0.3,0 H 1.747 V -1.327 H 0.3 Z"
         style="fill:none;stroke:#000000;stroke-width:0.454;stroke-linecap:butt;stroke-linejoin:miter;stroke-miterlimit:4;stroke-dasharray:none;stroke-opacity:1"
         id="path5902" />
    </g>
    <path
       d="m 84.660069,456.74938 h -0.105833 v 1.41252 h 0.105833 z m -0.616302,0 h -0.105834 v 1.41252 h 0.105834 z"
       style="fill:#000000;fill-opacity:1;fill-rule:nonzero;stroke:none;stroke-width:0.352778"
       id="path5904" />
    <g
       id="g5906"
       transform="matrix(0.35277777,0,0,-0.35277777,84.660105,458.16197)">
      <path
         d="M 0,0 V 4.004 H -0.3 V 0 Z m -1.747,0 v 4.004 h -0.3 V 0 Z"
         style="fill:none;stroke:#000000;stroke-width:0.454;stroke-linecap:butt;stroke-linejoin:miter;stroke-miterlimit:4;stroke-dasharray:none;stroke-opacity:1"
         id="path5908" />
    </g>
    <g
       id="g5910"
       transform="matrix(0.35277777,0,0,-0.35277777,77.97225,459.9689)">
      <path
         d="M 0,0 V -5.982"
         style="fill:none;stroke:#000000;stroke-width:0.726;stroke-linecap:round;stroke-linejoin:miter;stroke-miterlimit:4;stroke-dasharray:none;stroke-opacity:1"
         id="path5912" />
    </g>
    <g
       id="g5914"
       transform="matrix(0.35277777,0,0,-0.35277777,76.988141,463.56766)">
      <path
         d="m 0,0 v -1.327 h -1.099 v -0.3 H 0 v -1.098 h 0.3 v 1.098 h 1.447 v -1.098 h 0.3 v 1.098 h 1.104 v 0.3 H 2.047 V 0 H 3.151 V 0.3 H 2.047 v 0.979 h -0.3 V 0.3 H 0.3 V 1.279 H 0 V 0.3 H -1.099 V 0 Z M 0.3,0 H 1.747 V -1.327 H 0.3 Z"
         style="fill:#000000;fill-opacity:1;fill-rule:nonzero;stroke:none"
         id="path5916" />
    </g>
    <g
       id="g5918"
       transform="matrix(0.35277777,0,0,-0.35277777,76.988141,463.56766)">
      <path
         d="m 0,0 v -1.327 h -1.099 v -0.3 H 0 v -1.098 h 0.3 v 1.098 h 1.447 v -1.098 h 0.3 v 1.098 h 1.104 v 0.3 H 2.047 V 0 H 3.151 V 0.3 H 2.047 v 0.979 h -0.3 V 0.3 H 0.3 V 1.279 H 0 V 0.3 H -1.099 V 0 Z M 0.3,0 H 1.747 V -1.327 H 0.3 Z"
         style="fill:none;stroke:#000000;stroke-width:0.454;stroke-linecap:butt;stroke-linejoin:miter;stroke-miterlimit:4;stroke-dasharray:none;stroke-opacity:1"
         id="path5920" />
    </g>
    <g
       id="g5922"
       transform="matrix(0.35277777,0,0,-0.35277777,28.254079,550.48173)">
      <g
         id="g5924"
         clip-path="url(#clipPath5928)">
        <g
           id="g5930"
           transform="translate(142.9716,244.3423)">
          <path
             d="M 0,0 2.653,2.653 2.443,2.863 -0.21,0.21 Z m 2.161,0.18 c 0.168,0 0.312,0.144 0.312,0.312 0,0.168 -0.144,0.312 -0.312,0.312 C 1.993,0.804 1.849,0.66 1.849,0.492 1.849,0.324 1.993,0.18 2.161,0.18 M -0.03,2.371 c 0,-0.168 0.144,-0.312 0.312,-0.312 0.168,0 0.312,0.144 0.312,0.312 0,0.168 -0.144,0.312 -0.312,0.312 -0.168,0 -0.312,-0.144 -0.312,-0.312"
             style="fill:#000000;fill-opacity:1;fill-rule:nonzero;stroke:none"
             id="path5932" />
        </g>
        <g
           id="g5934"
           transform="translate(142.9716,244.3423)">
          <path
             d="M 0,0 2.653,2.653 2.443,2.863 -0.21,0.21 Z m 2.161,0.18 c 0.168,0 0.312,0.144 0.312,0.312 0,0.168 -0.144,0.312 -0.312,0.312 C 1.993,0.804 1.849,0.66 1.849,0.492 1.849,0.324 1.993,0.18 2.161,0.18 Z M -0.03,2.371 c 0,-0.168 0.144,-0.312 0.312,-0.312 0.168,0 0.312,0.144 0.312,0.312 0,0.168 -0.144,0.312 -0.312,0.312 -0.168,0 -0.312,-0.144 -0.312,-0.312 z"
             style="fill:none;stroke:#000000;stroke-width:0.454;stroke-linecap:butt;stroke-linejoin:miter;stroke-miterlimit:4;stroke-dasharray:none;stroke-opacity:1"
             id="path5936" />
        </g>
        <g
           id="g5938"
           transform="matrix(0.605738,0,0,-0.435237,-18.786589,348.86456)">
          <g
             id="g5940"
             transform="translate(133.5935,218.9303)">
            <path
               d="m 0,0 c 0,-0.422 6.937,-4.426 7.302,-4.216 0.365,0.211 0.365,8.221 0,8.432 C 6.937,4.427 0,0.422 0,0 Z"
               style="fill:#000000;fill-opacity:1;fill-rule:nonzero;stroke:#000000;stroke-width:0.884;stroke-linecap:round;stroke-linejoin:miter;stroke-miterlimit:4;stroke-dasharray:none;stroke-opacity:1"
               id="path5942" />
          </g>
        </g>
        <g
           id="g5944"
           transform="matrix(-0.605738,0,0,-0.435237,-18.78656,348.86456)">
          <g
             id="g5946"
             transform="translate(-311.8116,218.9303)">
            <path
               d="m 0,0 c 0,-0.422 6.937,-4.426 7.302,-4.216 0.365,0.211 0.365,8.221 0,8.432 C 6.937,4.427 0,0.422 0,0 Z"
               style="fill:#000000;fill-opacity:1;fill-rule:nonzero;stroke:#000000;stroke-width:0.884;stroke-linecap:round;stroke-linejoin:miter;stroke-miterlimit:4;stroke-dasharray:none;stroke-opacity:1"
               id="path5948" />
          </g>
        </g>
      </g>
    </g>
  </g>
</svg>
