<?xml version="1.0" encoding="UTF-8"?>
<svg width="210mm" height="297mm" version="1.1" viewBox="0 0 210 297" xml:space="preserve" xmlns="http://www.w3.org/2000/svg"><g><path d="m171.95 82.082c-0.24861-0.01782-0.74067 0.19468-1.6531 0.77566-1.8249 1.162-5.3323 3.7994-8.1266 5.7526-2.7944 1.9532-4.8755 3.2218-6.736 4.2127-1.8605 0.99086-3.5003 1.7036-4.6622 2.3166-1.162 0.61305-1.8463 1.1264-2.5306 1.6397-0.65582 0.0285-1.3114 0.0568-2.5518 0.54156-1.2404 0.48474-3.0652 1.4258-4.9186 2.2955-1.8534 0.86968-3.7356 1.6682-4.9759 2.2314-1.2404 0.56315-1.8393 0.89114-2.4381 1.219-0.42771 0.057-0.85523 0.11408-2.4164 0.59169-1.5612 0.47762-4.2554 1.3755-6.0518 1.9885s-2.6949 0.94085-3.3864 1.2759c-0.69146 0.33504-1.1761 0.67742-1.6609 1.0196-0.76987 0.0428-1.5396 0.0856-2.559 0.34933-1.0194 0.26376-2.2884 0.7486-4.869 1.5684-2.5805 0.81979-6.4723 1.9747-15.034 7.0859-8.5614 5.1112-21.791 14.178-29.319 19.741-7.5272 5.5627-9.3513 7.6205-10.787 9.5064-1.4362 1.8859-2.4847 3.6-3.4525 5.3945-0.9678 1.7945-1.8546 3.6694-2.4179 5.0839-0.56338 1.4146-0.8031 2.3685-0.95498 3.0308-0.15189 0.66236-0.21593 1.0334-0.28009 1.404 0.24237-0.0428 0.48437-0.0859 0.63407-0.19999 0.1497-0.11406 0.2069-0.29922 0.32453-0.33487 0.11762-0.0356 0.29562 0.0786 0.50591 0.28888 0.21029 0.21029 0.4528 0.51681 0.73794 0.76274 0.28514 0.24593 0.61309 0.43097 0.86972 0.67334 0.25663 0.24238 0.44186 0.54213 0.65216 0.78807 0.21029 0.24593 0.44588 0.43839 0.47439 0.62373s-0.14983 0.3635-0.45992 0.51677c-0.31009 0.15326-0.7522 0.28134-1.016 0.57361s-0.34908 0.74853-0.50591 1.1477c-0.15683 0.3992-0.38521 0.74158-0.67748 1.0552-0.29227 0.31366-0.64855 0.59838-0.6842 0.76946-0.03564 0.17109 0.24959 0.22819 0.49196 0.3173 0.24237 0.0891 0.44164 0.21052 0.46302 0.46715 0.02139 0.25663-0.1352 0.64841-0.15658 0.95137-0.02138 0.30296 0.09278 0.51704 0.14624 0.70951 0.05346 0.19247 0.04601 0.36342 0.08165 0.6842s0.11428 0.79122 0.05013 1.1762c-0.06416 0.38493-0.27086 0.68447-0.44907 0.9803-0.17821 0.29583-0.32788 0.58801-0.58808 0.68781s-0.63081 7e-3 -1.0015-0.0853c-0.07841 0.31366-0.15673 0.62716-0.4098 0.92656-0.25306 0.2994-0.68106 0.58472-0.99115 0.7059-0.31009 0.12119-0.50251 0.0781-0.65577 0.14935-0.15327 0.0713-0.26717 0.25688-0.54519 0.3638s-0.71985 0.1353-0.96222-0.11421c-0.24237-0.2495-0.28525-0.77717-0.28525-1.1906s0.0425-0.71243 0.08527-1.0118c-0.1497-0.0642-0.29913-0.12843-0.36328-7e-3 -0.06416 0.12119-0.04306 0.42766-0.0894 0.79478s-0.16002 0.79451-0.35605 1.4004c-0.19604 0.60592-0.47402 1.39-0.72709 2.6019-0.25306 1.2119-0.48161 2.8514-0.67128 4.2643-0.18967 1.4129-0.34084 2.5992-0.73174 3.7889-0.3909 1.1897-1.021 2.383-1.6516 3.576l1.0583 2.5626c3.9932-0.16126 7.9861-0.32236 10.147-0.46715 2.1606-0.14479 2.4885-0.27322 2.8164-0.40153 0.8269 0.0855 1.6538 0.17098 3.5714-7e-3 1.9176-0.17822 4.9258-0.62019 8.0124-0.7984 3.0866-0.17821 6.2516-0.0926 8.4899-0.23513 2.2383-0.14258 3.55-0.51293 5.3108-0.74104 1.7607-0.22811 3.9705-0.31381 5.8239-0.39223 1.8534-0.0784 3.3504-0.14958 4.2344-0.23512 0.88393-0.0856 1.1549-0.18546 1.4258-0.28526 0.48473 0 0.96949 1.6e-4 1.8748-0.12816 0.90533-0.12831 2.2311-0.38487 3.7352-0.62011 1.5041-0.23524 3.1867-0.44948 5.5676-0.96273 2.3809-0.51326 5.4604-1.3258 7.5918-1.9317s3.3143-1.0054 4.1341-1.3689c0.81977-0.36355 1.276-0.69115 1.7322-1.0191 0.55602-0.0713 1.1124-0.14262 2.973-0.94103 1.8606-0.7984 5.0252-2.3238 8.1261-4.1558 3.1009-1.832 6.1376-3.9707 7.7985-5.2824 1.6609-1.3116 1.9462-1.7963 2.2314-2.281 0.62731-0.22811 1.2546-0.45642 2.0815-1.0196 0.82691-0.56316 1.8532-1.4612 3.6995-3.2861 1.8463-1.8249 4.5123-4.5762 5.995-6.2585s1.7821-2.2953 2.0815-2.9084c0.59878-0.39919 1.1979-0.79842 2.3099-2.7089 1.1121-1.9104 2.7374-5.3322 3.9564-7.8486 1.219-2.5164 2.0316-4.1273 2.6019-5.0896 0.57028-0.96234 0.89773-1.2762 1.1829-2.3027 0.28514-1.0265 0.52789-2.7658 0.68471-3.9848 0.15683-1.219 0.22792-1.9173 0.29921-2.6159 0.32791-0.6273 0.65609-1.2546 0.91984-2.2169 0.26375-0.96235 0.46329-2.2599 0.62012-3.2365 0.15683-0.97661 0.27057-1.6326 0.25631-2.374-0.0142-0.74137-0.15688-1.568-0.14262-2.2738 0.0143-0.70573 0.18556-1.2902 0.29249-2.0743 0.10692-0.78414 0.14965-1.7681 0.13539-2.4097-0.0143-0.64157-0.0853-0.94085-0.15658-1.2402 0.28513-0.94095 0.56985-1.8818 0.7338-3.0794 0.16396-1.1976 0.20683-2.6519 0.2496-4.0633 0.0428-1.4114 0.0858-2.7798 0.0858-3.6566s-0.043-1.262-0.0858-1.6469c-0.31365 0.31366-0.62736 0.62735-0.90537 0.86972-0.27801 0.24236-0.5204 0.41369-0.83406 0.32814-0.31365-0.0855-0.6985-0.42783-1.0692-0.56327-0.37069-0.13544-0.72724-0.064-1.0837 7e-3 0.11406-0.34216 0.22845-0.68472 0.29972-0.96273 0.0713-0.27801 0.0997-0.49153 0.12816-0.70538-0.21385-0.1996-0.4279-0.39913-0.46354-0.86248-0.0356-0.46336 0.10702-1.1907 0.49196-1.7823 0.38495-0.59167 1.0122-1.0477 1.5612-1.4754 0.5489-0.42772 1.0197-0.82727 1.3405-0.89142 0.32078-0.0642 0.49167 0.20697 0.81958 0.3638 0.32792 0.15682 0.8127 0.1993 1.1477 0.29197 0.33504 0.0927-0.20571-0.3999-0.0489-0.18604 0.15683 0.21386 0.28547 0.49897 0.33538 0.72709 0.0499 0.22811 0.0213 0.39942-7e-3 0.57051 0.25663-0.14257 0.51297-0.28519 0.57-0.62736 0.057-0.34217-0.0853-0.88401-0.15658-1.4971-0.0713-0.61306-0.0714-1.2973 0.0997-2.281 0.17109-0.98374 1.2389-1.6316 1.3744-2.4727 0.13544-0.84117 0.0646-1.2405-7e-3 -1.6397 0.22811-0.7271 0.45589-1.4544 0.70539-2.4024 0.24949-0.9481 0.52061-2.1171 0.84852-3.222 0.32791-1.1049 0.71288-2.1454 0.83406-2.8226 0.0606-0.3386 0.0553-0.5868-0.19327-0.60461zm-18.783 37.765c0.67721-0.0143 1.7039 0.11418 2.5094 0.32091 0.80551 0.20673 1.3899 0.49169 1.6893 0.85524 0.2994 0.36356 0.31366 0.80551 0.0356 1.5255-0.27801 0.71999-0.84816 1.7181-1.2402 2.3668s-0.6058 0.94792-0.99787 1.0976-0.96252 0.14955-1.711-0.1142c-0.74849-0.26376-1.675-0.79097-2.1384-1.0547s-0.46358-0.26388-0.57051-0.32091c-0.10692-0.057-0.32085-0.17103-0.42064-0.37776-0.0998-0.20672-0.0855-0.5062 0.14262-0.97668s0.67004-1.1122 0.9338-1.6397c0.26375-0.52751 0.34931-0.94063 0.55604-1.2258 0.20672-0.28514 0.5346-0.44205 1.2118-0.4563z" fill="#d50b00"/><path d="m163.89 130.79c-0.30745 0.01-0.664 0.0553-1.1214 0.16536-1.1906 0.28664-2.9102 0.90399-4.8064 1.4552s-3.9689 1.0365-6.4384 1.4113c-2.4695 0.37482-5.3356 0.63921-8.3783 1.6976-3.0427 1.0584-6.2621 2.9104-9.9663 7.3422-3.7042 4.4318-7.8935 11.443-14.508 16.514-6.6147 5.0712-15.654 8.2022-21.365 10.539-5.7106 2.3372-8.0922 3.8804-8.9741 5.4017-0.88194 1.5214-0.26458 3.0207 1.6536 4.3656 1.9182 1.345 5.1373 2.5356 8.5328 3.175 3.3955 0.63941 6.9673 0.72795 10.319 0.97049 2.0701 0.14981 4.0144 0.34518 5.6617 0.44648 0.35405-0.1287 0.74278-0.26239 1.0041-0.37827 0.81977-0.36355 1.276-0.69115 1.7322-1.0191 0.33619-0.0431 0.78612-0.14963 1.4108-0.35347-0.71732-0.45831-2.2141-0.89509-5.1341-1.5182-3.616-0.77171-9.3927-1.8297-12.171-2.866-2.7781-1.0363-2.5577-2.0507 0.7276-3.1972 3.2853-1.1465 9.6352-2.4252 13.361-2.8882 3.7262-0.46302 4.8286-0.11025 6.6807 0.19844 1.8521 0.30868 4.4534 0.57309 7.4962 0.44079 2.5912-0.11266 5.447-0.51794 7.4931-1.002 0.82175-0.73212 1.0472-1.1057 1.264-1.4743 0.62731-0.22811 1.2546-0.45643 2.0815-1.0196 0.0694-0.0473 0.17389-0.14401 0.2465-0.19637-0.24598-0.22145-0.79261-0.36483-1.9126-0.36483-1.9844 0-5.7328 0.44115-9.1503 0.35295-3.4176-0.0882-6.5045-0.70555-7.8274-1.5875-1.3229-0.88196-0.88199-2.0283 1.7198-4.0127s7.3646-4.8068 10.628-5.9753 5.0269-0.68351 6.7247-0.33073 3.3293 0.57326 5.3578 0.7276c1.7815 0.13555 3.8344 0.20511 5.347 0.0444 0.31641-0.46244 0.48852-0.79451 0.64286-1.1105 0.48085-0.32058 0.97561-0.68163 1.7224-1.7849-0.17911-0.0861-0.38029-0.1719-0.63459-0.25786-1.5655-0.52917-4.6522-1.0585-7.6068-1.5436-2.9545-0.48507-5.7768-0.92584-6.6807-2.6898-0.90398-1.7639 0.11022-4.8505 1.9844-7.1215s4.608-3.7264 6.8569-4.5201c2.249-0.79375 4.0132-0.92586 5.7991-1.433 1.786-0.50713 3.5936-1.3894 5.4457-2.1611 1.4569-0.60704 2.9242-1.1468 3.9956-1.7032 0.0477-0.42577 0.11657-0.97871 0.15296-1.3353 0.21992-0.42071 0.43239-0.88228 0.63304-1.404z" fill="#e65000" style="-inkscape-stroke:none;font-variation-settings:normal"/><path d="m58.682 149.98c-0.4964-0.0399-1.0006 0.47389-1.3865 1.3772-0.686 1.6058-0.99757 4.4434-0.9586 7.3355 0.03897 2.8921 0.42874 5.8385 0.82631 8.3876 0.39757 2.5491 0.80271 4.7007-0.05478 6.7665-0.85748 2.0658-2.9777 4.0455-4.1548 4.5522-1.1771 0.50672-1.4109-0.4598-1.6604-1.9487-0.1394-0.83203-0.28796-1.8117-0.46974-2.6856-0.22901 9e-3 -0.48684-0.0327-0.76016-0.10077-0.07841 0.31366-0.15673 0.62716-0.4098 0.92656-0.23766 0.28118-0.62443 0.53923-0.92811 0.67128-0.03685 1.1846-0.06402 2.4597-0.21549 3.5114-0.27284 1.8943-0.95863 3.0172-1.7772 3.9605-0.7864 0.90624-1.7082 1.6515-3.1264 2.5931-0.07772 0.33599-0.13704 0.67769-0.24598 1.0092-0.3909 1.1897-1.021 2.383-1.6516 3.576l1.0583 2.5626c0.52775-0.0213 0.8175-0.0402 1.341-0.0615 0.68074-0.47782 1.2517-1.0461 1.8138-1.3467 0.78734-0.42096 1.5671-0.31171 3.2665 0.25735 0.60894 0.20391 1.4037 0.48641 2.1725 0.75499 0.40992-0.0229 1.2222-0.0491 1.5529-0.0713 2.1606-0.14479 2.4885-0.27322 2.8164-0.40153 0.58556 0.0606 1.3174 0.0863 2.2903 0.0532-0.47054-0.65771-1.3855-1.4099-2.4867-2.0422-1.5747-0.90428-3.5082-1.5592-3.7109-2.6427s1.3255-2.5959 3.2432-3.0246 4.2247 0.22598 7.9509 1.1147c3.7262 0.88868 8.871 2.0111 12.956 2.8686 3.2567 0.68366 5.7742 1.1801 8.1452 1.6335 0.96201-0.0557 1.9335-0.0963 2.8205-0.13384 1.8534-0.0784 3.3504-0.14959 4.2344-0.23513 0.88393-0.0856 1.1549-0.18545 1.4258-0.28525 0.48473 0 0.9695 1.6e-4 1.8748-0.12816 0.06464-9e-3 0.19782-0.034 0.26665-0.0444-0.46541-0.35533-1.3445-0.63234-2.7786-0.9002-2.0034-0.37419-5.075-0.73277-9.1364-1.5591s-9.1127-2.12-12.769-3.0944c-3.6561-0.97443-5.9167-1.6293-7.429-2.1828-1.5123-0.55348-2.276-1.0058-1.5978-2.0815 0.67819-1.0758 2.7985-2.7749 3.8587-3.6246 1.0602-0.84969 1.0602-0.84997 1.3643-1.0526s0.91175-0.60787 1.247-1.1302c0.3352-0.52229 0.39768-1.1617 0.07028-1.8009-0.3274-0.63922-1.0449-1.2786-2.2453-1.263-1.2005 0.0156-2.8839 0.68606-3.6401-0.74827-0.75617-1.4343-0.58488-4.973-0.69402-8.707-0.10913-3.734-0.49873-7.6629-1.2237-9.4402-0.31718-0.7776-0.6986-1.1436-1.0847-1.1746z" fill="#e65000" style="-inkscape-stroke:none;font-variation-settings:normal"/></g><g fill="#b10800"><path transform="translate(-2.9934 -13.441)" d="m62.745 188.16 0.53788-0.11693c-0.06236-1.1849-0.12473-2.3698-0.21048-3.391-0.08575-1.0212-0.19488-1.8787-0.3313-2.6192-0.13642-0.74057-0.30012-1.3642-0.46382-1.9878l-0.46772-0.21048c0.22606 1.4655 0.45213 2.9311 0.60804 4.3186 0.15591 1.3876 0.24166 2.6972 0.32741 4.0068z" style="-inkscape-stroke:none;font-variation-settings:normal"/><path transform="translate(-2.9934 -13.441)" d="m53.437 195.46 0.42095-0.42094c0.01559-1.598 0.03118-3.1961 0.01559-4.3732s-0.06236-1.9332-0.10524-2.4633c-0.04287-0.53009-0.08185-0.8341-0.12083-1.1381l-0.46772 0.11693c0.07016 0.69379 0.14032 1.3876 0.13252 2.3815-0.0078 0.99392-0.09354 2.2879-0.08575 3.3208 0.0078 1.0329 0.10913 1.8046 0.21047 2.5764z" style="-inkscape-stroke:none;font-variation-settings:normal"/><path transform="translate(-2.9934 -13.441)" d="m45.955 205.8c0.33624 0.0165 0.67249 0.0331 1.1328-0.28113 0.46027-0.3142 1.0445-0.95911 1.7226-1.6178 0.678-0.65871 1.4497-1.3312 2.1718-1.9899s1.3946-1.3036 2.4061-2.2324c1.0115-0.92881 2.3619-2.1415 3.9234-3.4056 1.5614-1.2642 3.3338-2.5798 4.9761-3.8573 1.6423-1.2776 3.1546-2.517 4.1836-3.3121s1.5747-1.1459 2.1203-1.4967l-0.77174-0.74835c-4.8877 3.9055-9.7754 7.811-13.182 10.68-3.4066 2.8687-5.332 4.7006-6.5323 5.9048-1.2003 1.2042-1.6754 1.7806-2.1505 2.357z" style="-inkscape-stroke:none;font-variation-settings:normal"/><path transform="translate(-2.9934 -13.441)" d="m49.812 201.8s-0.49111 0.53788-0.49111 0.53788c1.5123 0.53788 3.0246 1.0758 4.3849 1.5513 1.3603 0.47552 2.5686 0.88867 3.3208 1.0797s1.0485 0.15983 1.3447 0.12866l-0.14032-0.49111z" style="-inkscape-stroke:none;font-variation-settings:normal"/><path transform="translate(-2.9934 -13.441)" d="m57.401 195.24c1.294 0.26114 2.5881 0.52229 4.9936 1.1877s5.9225 1.7351 9.2134 2.6117c3.291 0.87662 6.3557 1.5601 8.9574 2.0562s4.7404 0.80476 7.0114 1.0197c2.2711 0.21498 4.6743 0.33624 7.0776 0.45751l0.62839-0.3638c-3.4947-0.30868-6.9894-0.61736-10.435-1.119-3.4451-0.50162-6.8405-1.1961-10.881-2.1994-4.0405-1.0032-8.7257-2.3151-11.504-3.0813s-3.649-0.98667-4.52-1.2072z" style="-inkscape-stroke:none;font-variation-settings:normal"/></g><g><path d="m132.92 119.04c-0.98356-2e-3 -2.0552 0.0237-3.2272 0.0816-9.3756 0.46376-25.183 2.9642-37.966 8.8718-12.783 5.9076-22.541 15.222-27.683 21.745-5.1414 6.5225-5.6657 10.253-5.9076 12.178-0.24195 1.9255-0.20188 2.0464 0.56431 3.73 0.76618 1.6836 2.2584 4.9293 4.8292 8.1049 2.5707 3.1756 6.2197 6.281 11.654 8.771s12.652 4.3649 20.324 6.0182c0.05565 0.012 0.11277 0.0227 0.16847 0.0346 0.78011-0.13244 1.5119-0.26072 2.5311-0.42013 1.5041-0.23524 3.1867-0.44948 5.5676-0.96273 2.3809-0.51326 5.4604-1.3257 7.5918-1.9317s3.3143-1.0054 4.1341-1.3689c0.81977-0.36355 1.276-0.69115 1.7322-1.0191 0.55602-0.0713 1.1124-0.14262 2.973-0.94103 1.8605-0.7984 5.0252-2.3238 8.1261-4.1558 3.1009-1.832 6.1376-3.9707 7.7985-5.2824 1.6609-1.3116 1.9462-1.7963 2.2314-2.281 0.62731-0.22811 1.2546-0.45643 2.0815-1.0196 0.82691-0.56316 1.8532-1.4612 3.6995-3.2861 1.8463-1.8249 4.5123-4.5762 5.995-6.2585s1.7821-2.2953 2.0815-2.9084c0.59877-0.39919 1.1979-0.79842 2.3099-2.7089 1.1121-1.9104 2.7374-5.3323 3.9564-7.8486s2.0316-4.1273 2.6019-5.0896c0.57028-0.96234 0.89773-1.2762 1.1829-2.3027 0.048-0.17264 0.0859-0.43886 0.13126-0.64596-0.01-0.0359-0.016-0.0744-0.0258-0.11007-1.2904-4.6978-4.8794-7.319-8.1659-9.678s-6.2702-4.4558-9.2341-6.2906c-2.5934-1.6054-5.1712-3.0102-12.056-3.0257z" fill="#980019" style="-inkscape-stroke:none;font-variation-settings:normal"/><path d="m158.85 132.14c-0.30391 0.0935-0.57199 0.18327-0.88729 0.27492-1.8962 0.55122-3.9689 1.0365-6.4384 1.4113-2.4695 0.37482-5.3356 0.63921-8.3783 1.6976-3.0427 1.0584-6.2621 2.9104-9.9663 7.3422-3.7042 4.4318-7.8935 11.443-14.508 16.514-6.6146 5.0712-15.654 8.2022-21.365 10.539-5.7106 2.3372-8.0922 3.8804-8.9741 5.4017-0.88194 1.5214-0.26458 3.0207 1.6536 4.3656 1.9182 1.345 5.1373 2.5356 8.5328 3.175 3.3955 0.63941 6.9673 0.72795 10.319 0.97049 2.0701 0.14981 4.0144 0.34518 5.6617 0.44648 0.35405-0.1287 0.74278-0.26239 1.0041-0.37827 0.81977-0.36355 1.276-0.69115 1.7322-1.0191 0.1733-0.0222 0.40883-0.0793 0.62167-0.12351 0.22773-0.057 0.48611-0.13109 0.7891-0.22996-0.71732-0.45831-2.2141-0.89509-5.1341-1.5182-3.616-0.77171-9.3927-1.8297-12.171-2.866-2.7781-1.0363-2.5577-2.0507 0.7276-3.1972 3.2853-1.1465 9.6352-2.4252 13.361-2.8882 3.7262-0.46302 4.8286-0.11025 6.6807 0.19844 1.8521 0.30867 4.4535 0.57309 7.4962 0.44079 2.5911-0.11265 5.4465-0.51799 7.4926-1.002 8e-5 -7e-5 4.4e-4 7e-5 5.2e-4 0 8.5e-4 -7.6e-4 1e-3 -1e-3 2e-3 -2e-3 0.0773-0.0689 0.12657-0.1206 0.19379-0.18345 0.14512-0.13575 0.28071-0.26573 0.38551-0.37724 0.0653-0.0693 0.12104-0.13285 0.17415-0.19482 0.0595-0.0698 0.11102-0.13509 0.15813-0.1974 0.14436-0.18971 0.25666-0.36005 0.35036-0.51935 0.31366-0.11405 0.62723-0.22797 0.96584-0.38396 0.3386-0.15598 0.70224-0.35404 1.1157-0.63562 0.0694-0.0473 0.17389-0.14401 0.2465-0.19637-0.24598-0.22145-0.79261-0.36483-1.9126-0.36483-1.9844 0-5.7328 0.44115-9.1503 0.35295-3.4176-0.0882-6.5045-0.70555-7.8274-1.5875-1.3229-0.88196-0.88199-2.0283 1.7198-4.0127 2.6018-1.9844 7.3646-4.8068 10.628-5.9753 3.2632-1.1686 5.0269-0.68351 6.7247-0.33073s3.3293 0.57326 5.3578 0.7276c1.7815 0.13555 3.8344 0.20511 5.347 0.0444 0.31641-0.46244 0.48852-0.79451 0.64286-1.1105 0.12005-0.08 0.24268-0.16667 0.3669-0.2589 4.4e-4 -3.4e-4 1e-3 -6.9e-4 2e-3 -1e-3 0.10422-0.0798 0.21445-0.1775 0.32711-0.28216 0.029-0.0262 0.0581-0.0522 0.0879-0.0806 0.12414-0.12161 0.25508-0.26457 0.39532-0.43357 0.0204-0.0243 0.0422-0.053 0.0631-0.0786 0.14935-0.18507 0.307-0.39361 0.48059-0.65009-0.17911-0.0861-0.38029-0.1719-0.63459-0.25786-1.5655-0.52917-4.6522-1.0585-7.6068-1.5436-2.9545-0.48507-5.7768-0.92584-6.6807-2.6898-0.90397-1.7639 0.11022-4.8505 1.9844-7.1215 1.8742-2.271 4.608-3.7264 6.8569-4.5201 2.249-0.79375 4.0132-0.92586 5.7991-1.433 1.786-0.50713 3.5936-1.3894 5.4457-2.1611 0.57299-0.23875 1.1337-0.46219 1.6852-0.68523-0.57162-0.88431-1.227-1.6836-1.9441-2.4117z" fill="#ae1f00" style="-inkscape-stroke:none;font-variation-settings:normal"/><path transform="translate(-2.9934 -13.441)" d="m66.415 185.82c-1.6735 1.0888-3.3469 2.1775-5.3531 3.6292-2.0062 1.4517-4.345 3.2663-6.8149 5.2926-2.4699 2.0263-5.0708 4.2643-7.087 6.1394-2.0162 1.8751-3.4477 3.3872-4.9398 5.1817-1.492 1.7945-3.0445 3.8711-4.5264 6.452-1.4819 2.5808-2.8933 5.6656-3.851 7.954-0.95772 2.2884-1.4618 3.7804-1.8751 4.839s-0.73592 1.6836-1.0585 2.3086c0.12602 0.46877 0.25203 0.93753 0.51918 1.2929s0.67543 0.59731 1.0358 1.24c0.36041 0.64269 0.67292 1.6861 0.8443 2.7446 0.17138 1.0585 0.20162 2.1321 0.31252 2.8378s0.30243 1.0434 0.49398 1.3811c0.10081-1.7944 0.20162-3.5889 0.35284-5.5648 0.15122-1.9759 0.35284-4.1333 1.24-7.2383 0.88716-3.105 2.4598-7.1575 4.4055-10.666 1.9457-3.5083 4.2643-6.4721 7.0871-9.4562s6.1494-5.9881 9.1436-8.448 5.6555-4.3752 7.5004-5.7362c1.8449-1.361 2.8731-2.1674 3.9014-2.9739" fill="#8d000b" style="font-variation-settings:normal"/><path transform="translate(-2.9934 -13.441)" d="m33.569 234.78c0-0.10473 0-0.31419-0.0055-1.334s-0.01654-2.8498-0.01654-4.4042c1e-6 -1.5544 0.01102-2.8332 0.67801-4.983 0.66698-2.1498 1.9898-5.1703 3.197-7.6839 1.2072-2.5136 2.2985-4.5199 3.7317-6.576 1.4332-2.0561 3.208-4.1616 5.1539-6.1626 1.9458-2.001 4.0625-3.8971 5.7492-5.4185 1.6867-1.5214 2.9435-2.6679 4.7129-4.09 1.7694-1.4222 4.0514-3.1199 5.9573-4.5462s3.4354-2.581 4.9651-3.7358l0.62012 0.52089c-1.4166 1.1024-2.8332 2.2049-4.9306 3.8365-2.0974 1.6316-4.8755 3.7923-7.2237 5.7657s-4.2664 3.7593-5.9972 5.4295c-1.7308 1.6702-3.2742 3.2246-4.8231 5.0712-1.5489 1.8466-3.1033 3.9853-4.553 6.4933-1.4497 2.5081-2.7946 5.3853-3.7979 8.1249-1.0032 2.7396-1.6647 5.3412-2.1001 7.932-0.43546 2.5907-0.64492 5.1704-0.85438 7.7501 0 0-0.46302-1.8852-0.46302-1.9899z" fill="#5e0017" style="-inkscape-stroke:none;font-variation-settings:normal"/><path d="m64.479 174.9 0.40679 0.39886 0.0026-2e-3 0.89301-0.75918-0.46001-0.23829z" fill="#b10800" style="-inkscape-stroke:none;font-variation-settings:normal"/></g><path transform="translate(-2.9934 -13.441)" d="m66.415 185.82c-1.6735 1.0888-3.3469 2.1775-5.3531 3.6292-2.0062 1.4517-4.345 3.2663-6.8149 5.2926-2.4699 2.0263-5.0708 4.2643-7.087 6.1394-2.0162 1.8751-3.4477 3.3872-4.9398 5.1817-1.492 1.7945-3.0445 3.8711-4.5264 6.452-1.4819 2.5808-2.8933 5.6656-3.851 7.954-0.95772 2.2884-1.4618 3.7804-1.8751 4.839s-0.73592 1.6836-1.0585 2.3086c0.12602 0.46877 0.25203 0.93753 0.51918 1.2929s0.67543 0.59731 1.0358 1.24c0.36041 0.64269 0.67292 1.6861 0.8443 2.7446 0.17138 1.0585 0.20162 2.1321 0.31252 2.8378s0.30243 1.0434 0.49398 1.3811c0.10081-1.7944 0.20162-3.5889 0.35284-5.5648 0.15122-1.9759 0.35284-4.1333 1.24-7.2383 0.88716-3.105 2.4598-7.1575 4.4055-10.666 1.9457-3.5083 4.2643-6.4721 7.0871-9.4562s6.1494-5.9881 9.1436-8.448 5.6555-4.3752 7.5004-5.7362c1.8449-1.361 2.8731-2.1674 3.9014-2.9739" fill="none" stroke="#000" stroke-linecap="round" stroke-width=".8" style="font-variation-settings:normal"/><g><path d="m51.522 159.14c-0.26527-0.0226-0.5097 0.23961-0.91002 0.44701-0.04535 0.0235-0.10115 0.0474-0.15038 0.0703-0.0026 0.0113-0.0083 0.0302-0.01085 0.0413-0.15189 0.66236-0.21593 1.0334-0.28009 1.404 0.24237-0.0428 0.48437-0.0859 0.63407-0.19999 0.1497-0.11406 0.2069-0.29922 0.32453-0.33487 0.11762-0.0356 0.29562 0.0786 0.50591 0.28888 0.21029 0.21029 0.4528 0.51681 0.73794 0.76274 0.28514 0.24593 0.61309 0.43097 0.86972 0.67334 0.25663 0.24238 0.44186 0.54213 0.65216 0.78807 0.21029 0.24593 0.44588 0.43839 0.47439 0.62373s-0.14983 0.3635-0.45992 0.51677c-0.31009 0.15326-0.7522 0.28134-1.016 0.57361s-0.34908 0.74853-0.50591 1.1477c-0.15683 0.3992-0.38521 0.74158-0.67748 1.0552-0.29227 0.31366-0.64855 0.59838-0.6842 0.76946-0.03564 0.17109 0.24959 0.22819 0.49196 0.3173 0.24237 0.0891 0.44164 0.21052 0.46302 0.46715 0.02139 0.25663-0.1352 0.64841-0.15658 0.95137-0.02138 0.30296 0.09278 0.51704 0.14624 0.70951 0.05346 0.19247 0.04601 0.36342 0.08165 0.6842s0.11428 0.79122 0.05013 1.1762c-0.06416 0.38492-0.27086 0.68447-0.44907 0.9803-0.17821 0.29583-0.32788 0.58801-0.58808 0.68781s-0.63081 7e-3 -1.0015-0.0853c-0.07841 0.31366-0.15673 0.62716-0.4098 0.92656-0.25306 0.2994-0.68106 0.58472-0.99115 0.7059-0.31009 0.12119-0.50251 0.0781-0.65577 0.14935-0.15327 0.0713-0.26717 0.25688-0.54519 0.3638s-0.71985 0.1353-0.96222-0.11421c-0.24237-0.24949-0.28525-0.77717-0.28525-1.1906s0.0425-0.71244 0.08527-1.0118c-0.1497-0.0642-0.29913-0.12867-0.36328-7e-3 -0.06416 0.12119-0.04306 0.42766-0.0894 0.79478s-0.16002 0.79451-0.35605 1.4004c-0.0057 0.0175-0.01385 0.0442-0.01964 0.062 0.15611 0.17271 0.33303 0.35792 0.51056 0.51573 0.34727 0.30868 0.68918 0.50678 1.2294 0.41858 0.5402-0.0882 1.2788-0.46285 1.8025-0.82114 0.52366-0.35829 0.83233-0.70022 1.3229-0.98134s1.1632-0.50143 1.5932-0.77153c0.42995-0.27009 0.61701-0.58962 0.81545-1.0196 0.19844-0.42996 0.4079-0.97031 0.39688-1.5105-0.01103-0.5402-0.24219-1.0804-0.36897-1.7033s-0.14883-1.3282-0.06615-1.9456c0.08268-0.61736 0.27009-1.1469 0.57878-1.6485 0.30868-0.5016 0.73845-0.97565 0.92036-1.2402 0.1819-0.26458 0.11575-0.31936 0.28112-0.50126 0.16537-0.1819 0.56242-0.49058 0.63407-0.87643 0.07165-0.38586-0.18224-0.84921-0.63975-1.4004s-1.119-1.1903-1.6371-1.7911c-0.51814-0.60083-0.89296-1.1631-1.2072-1.2898-0.03928-0.0159-0.07734-0.0252-0.11524-0.0284z" fill="#651f24" style="-inkscape-stroke:none;font-variation-settings:normal"/><path d="m165.58 114.98c-0.29307 0.0186-0.61214 0.0524-0.97151 0.10955-1.6682 0.26504-4.0688 0.95091-6.4854 1.9487-2.4166 0.99781-4.849 2.3073-6.5562 3.1337-1.7072 0.82632-2.6894 1.1693-3.9367 1.1927-1.2473 0.0234-2.7596-0.27296-3.5781-0.0703-0.81851 0.20268-0.94304 0.90421-0.678 1.6604 0.26504 0.75616 0.91965 1.567 1.8707 1.8087 0.95104 0.24166 2.1985-0.0858 3.5393-0.54571 0.48793-0.16737 0.99832-0.36076 1.5276-0.56999 0.0287-0.14022 0.0652-0.2868 0.15813-0.47852 0.22812-0.47048 0.67004-1.1122 0.9338-1.6397 0.26375-0.52751 0.34931-0.94063 0.55604-1.2258 0.20672-0.28514 0.5346-0.44205 1.2118-0.4563 0.67721-0.0143 1.7039 0.11418 2.5094 0.32091 0.53556 0.13745 0.92927 0.32245 1.2506 0.52917 0.99545-0.43137 2.0385-0.85019 3.1088-1.2036 1.8985-0.62675 3.8651-1.0504 5.2927-1.5244 5.9e-4 -0.11503 9e-3 -0.25984 7e-3 -0.36019-0.0143-0.64157-0.0853-0.94084-0.15658-1.2402 0.1372-0.45279 0.27327-0.9077 0.39687-1.3891z" fill="#e65000" style="-inkscape-stroke:none;font-variation-settings:normal"/><path d="m165.18 116.33c-1.1459 0.34299-2.2919 0.6858-3.7925 1.1808-1.5006 0.49501-3.3558 1.142-4.4705 1.602-0.92252 0.38061-1.3363 0.63447-1.6376 0.96428 0.1382 0.0288 0.27441 0.0593 0.4036 0.0925 0.25578 0.0656 0.4864 0.13972 0.69556 0.22117 0.19358-0.18577 0.41549-0.36193 0.69401-0.52968 0.68601-0.41316 1.7073-0.77921 3.0014-1.2041 1.294-0.42485 2.8608-0.90807 3.7729-1.2082 0.91206-0.30012 1.1695-0.4174 1.4268-0.53433zm-14.398 6.2833c-0.54157 0.0613-1.1102 0.12372-1.6604 0.19068-1.1849 0.14422-2.2687 0.30811-3.3522 0.47181 0 0 3e-5 -5e-5 0.0858 0.10129l0.42892 0.50642c0.70158-0.10134 1.4028-0.20249 2.1316-0.26096 0.58398-0.0469 1.192-0.0678 1.9193-0.11576 0.0322-0.10149 0.077-0.21268 0.13694-0.33641 0.0811-0.16732 0.19248-0.3593 0.31006-0.55707z" fill="#b10800" style="-inkscape-stroke:none;font-variation-settings:normal"/><path d="m153.74 118.7c-0.50149 2e-3 -0.95291 0.0398-1.2981 0.12454-0.92054 0.226-1.0859 0.78789-1.4056 1.4108-0.3197 0.62288-0.7934 1.3064-1.0304 1.6867-0.23703 0.38035-0.23737 0.45767-0.40825 0.71676-0.17087 0.25908-0.51228 0.70021-0.35243 1.2624 0.15985 0.56225 0.8213 1.2456 1.819 1.9291 0.99771 0.68352 2.3315 1.367 3.2355 1.604 0.90401 0.23703 1.3782 0.0277 1.8412-0.63924 0.46303-0.66697 0.91502-1.7914 1.3229-2.6458s0.77153-1.4388 1.1684-2.1224c0.39688-0.68351 0.82682-1.4662 0.51263-2.0174-0.31418-0.55122-1.3723-0.87074-2.7394-1.0857-0.85439-0.13436-1.8297-0.22775-2.6655-0.22376zm-0.57206 1.1482c0.67721-0.0143 1.7039 0.11418 2.5094 0.32091 0.80551 0.20673 1.3899 0.49169 1.6893 0.85524 0.2994 0.36356 0.31366 0.80551 0.0356 1.5255-0.27801 0.71999-0.84816 1.7181-1.2402 2.3668s-0.6058 0.94792-0.99787 1.0976-0.96252 0.14955-1.711-0.1142c-0.74849-0.26376-1.675-0.79097-2.1384-1.0547s-0.46358-0.26388-0.57051-0.32091c-0.10692-0.057-0.32085-0.17103-0.42064-0.37776-0.0998-0.20672-0.0855-0.5062 0.14262-0.97668s0.67004-1.1122 0.9338-1.6397c0.26375-0.52751 0.34931-0.94063 0.55604-1.2258 0.20672-0.28514 0.5346-0.44205 1.2118-0.4563z" fill="#651f24" style="-inkscape-stroke:none;font-variation-settings:normal"/><path d="m171.86 82.108c-0.26544 0.01796-0.72143 0.21483-1.5617 0.74982-0.49577 0.31567-1.3141 0.9113-2.0102 1.4015-0.7286 0.87432-1.5518 1.9107-2.5208 3.1331-2.2061 2.783-5.0594 6.353-8.0295 9.6661-2.9701 3.3131-6.0569 6.3689-7.6393 7.0549-1.5825 0.68598-1.6604-0.99773-1.4733-3.2194 0.13337-1.5838 0.39682-3.4298 0.42116-4.6933-0.27729 0.19492-0.55045 0.38893-0.80357 0.57878-0.46844 0.02035-1.0162 0.10229-1.6976 0.28887-0.80355 1.7762-1.379 4.2759-1.7007 6.6399-0.3352 2.4634-0.39733 4.7705-0.9586 6.8285-0.56127 2.058-1.6219 3.8664-2.8458 5.0669s-2.6114 1.7929-3.8587 1.3798-2.3537-1.832-2.837-4.2953c-0.48331-2.4634-0.343-5.9711-0.36638-8.2786-6e-3 -0.63403-0.029-1.1598-0.0631-1.6211-0.14436 0.0777-0.41984 0.20367-0.55655 0.27854-0.37481 0.0499-0.87476 0.14654-2.0123 0.47955-0.29474 1.7941-0.39732 4.3137-0.54106 6.6787-0.1715 2.8219-0.40554 5.4097-2.3466 6.1112s-5.589-0.48337-7.1091-2.097-0.91207-3.6556-0.63924-5.3862c0.0901-0.57153 0.13895-1.1024 0.1478-1.5694-0.36757 0.21861-0.70262 0.43844-1.0149 0.65888-0.65528 0.0364-1.3411 0.10019-2.1502 0.27285-0.72594 1.3672-1.038 2.8817-0.71676 4.4726 0.32742 1.6214 1.3098 3.321 5.457 5.1061 4.1472 1.7852 11.459 3.6562 15.552 4.4747s4.9656 0.58434 5.3397 0.14779c0.37417-0.43655 0.24957-1.0755 0.16381-1.4263-0.0858-0.35081-0.13233-0.41343-0.12454-0.86558 8e-3 -0.45215 0.07-1.2938 1.1224-3.1569 1.0524-1.8631 3.0949-4.7472 4.841-6.5557 1.7462-1.8085 3.196-2.5416 5.519-3.3445 2.323-0.80293 5.5193-1.676 7.3045-2.6582 0.0773-0.0425 0.13726-0.0858 0.20929-0.12867 0.078-0.23769 0.16105-0.48333 0.21135-0.67955 0.0713-0.27801 0.0997-0.49153 0.12816-0.70538-0.21385-0.1996-0.4279-0.39913-0.46354-0.86248-0.0172-0.22415 0.0118-0.51302 0.0853-0.81546-0.2815-0.10891-0.53547-0.25156-0.69298-0.48782-0.46772-0.7016-0.10927-2.1983 0.75603-3.8432 0.86529-1.6448 2.2374-3.4376 3.5626-5.2617s2.6035-3.6795 3.6949-5.2074c1.0914-1.5279 1.9956-2.7285 2.2061-3.6406 0.0588-0.25468 0.0584-0.48174 0.0124-0.66921z" fill="#e65000" style="-inkscape-stroke:none;font-variation-settings:normal"/></g><g fill="#b10800"><path transform="translate(-2.9934 -13.441)" d="m155.14 119.13-1.0524 1.0524c0.78733-0.11693 1.5747-0.23386 2.8882-0.54178s3.1532-0.80682 4.5603-1.2239c1.4071-0.41706 2.3815-0.75225 2.9895-0.95103 0.60805-0.19879 0.84969-0.26115 1.0914-0.32351l-0.0234-0.81851c-1.3018 0.48331-2.6036 0.96663-4.1004 1.4032-1.4967 0.43654-3.1883 0.8263-4.2796 1.0524-1.0914 0.22607-1.5824 0.28843-2.0736 0.35079z" style="-inkscape-stroke:none;font-variation-settings:normal"/><path transform="translate(-2.9934 -13.441)" d="m144.63 133.45 0.57878 0.31419c0.22049-0.40239 0.44098-0.80478 0.83234-1.5792 0.39137-0.77447 0.9536-1.921 1.7308-3.1943 0.77723-1.2733 1.7694-2.6734 2.7202-3.8585 0.95085-1.1851 1.8603-2.1552 2.745-3.0262s1.7446-1.6426 2.6541-2.4116c0.90951-0.76895 1.8686-1.5351 2.8884-2.3978 1.0198-0.86266 2.1001-1.8218 2.9931-2.8773 0.89298-1.0556 1.5985-2.2076 2.5687-3.6242s2.2048-3.0978 3.2439-4.4896 1.8824-2.4942 3.0758-4.0955 2.7368-3.7014 4.2802-5.8015l-0.34727-0.38034c-1.0749 1.5103-2.1497 3.0207-4.068 5.5811-1.9183 2.5604-4.6798 6.1708-6.6284 8.6044s-3.084 3.6904-4.4593 4.9775c-1.3753 1.2871-2.9903 2.6045-4.7019 4.214s-3.5195 3.5112-5.2393 5.8016c-1.7198 2.2903-3.3514 4.9692-4.1479 6.4078s-0.75792 1.6371-0.71934 1.8356z" stop-color="#000000" style="-inkscape-stroke:none;font-variation-settings:normal"/><path transform="translate(-2.9934 -13.441)" d="m149.41 124.86 0.60803-0.81852c0.0624-2.2529 0.12473-4.5057 0.3508-6.4039s0.61583-3.4416 0.92765-4.7201c0.31181-1.2784 0.54567-2.2918 0.77953-3.3052l-0.86529 0.72497c-0.55347 2.1048-1.1069 4.2095-1.446 6.2012s-0.46382 3.8704-0.4872 5.2385c-0.0234 1.3681 0.0546 2.2256 0.13252 3.0831z" style="-inkscape-stroke:none;font-variation-settings:normal"/><path transform="translate(-2.9934 -13.441)" d="m135.62 128.11c0.14811 0.0429 0.44433 0.12862 0.74055 0.21437-0.15591-1.1615-0.31181-2.323-0.40926-3.543-0.0974-1.22-0.13641-2.4984-4e-3 -3.7418 0.13253-1.2434 0.43654-2.4516 0.64312-3.2468 0.20657-0.79513 0.31571-1.1771 0.42484-1.5591l-0.79513 0.5145c-0.42095 1.1147-0.84189 2.2295-1.0758 3.5937-0.23386 1.3642-0.28064 2.9778-0.19489 4.3069 0.0858 1.3291 0.30402 2.3737 0.67041 3.4611z" style="-inkscape-stroke:none;font-variation-settings:normal"/><path transform="translate(-2.9934 -13.441)" d="m121.51 123.97 0.69454 0.1819c0.31419-0.62839 0.62838-1.2568 0.90399-1.8025s0.51263-1.0087 0.74965-1.4717l-0.76068 0.56224c-0.42443 0.452-0.84887 0.90399-1.1134 1.3257-0.26459 0.42168-0.36932 0.81304-0.47405 1.2044z" style="-inkscape-stroke:none;font-variation-settings:normal"/></g><g><path d="m165.42 96.834c-0.20671 0.0069-0.44132 0.07287-0.75551 0.25477-0.62839 0.3638-1.5761 1.1906-2.1218 1.9182s-0.68902 1.3562-0.77721 2.0562c-0.0882 0.70005-0.12144 1.4716-0.27027 2.0283s-0.41358 0.89831-0.48524 1.218c-0.0717 0.3197 0.0498 0.61735 0.40256 0.81028 0.35277 0.19293 0.93723 0.28146 1.5436 0.49093 0.60635 0.20946 1.2346 0.54018 1.6976 0.56224 0.46303 0.0221 0.76085-0.26458 1.0806-0.51263 0.17363-0.13471 0.34708-0.25315 0.50281-0.3545-0.0106-0.61489-0.0359-1.06-0.0718-1.3834-0.31365 0.31366-0.62736 0.62734-0.90537 0.86971-0.27801 0.24236-0.5204 0.4137-0.83406 0.32815-0.31365-0.0855-0.6985-0.42783-1.0692-0.56327-0.37069-0.13544-0.72724-0.0643-1.0837 7e-3 0.11406-0.34216 0.22845-0.68472 0.29972-0.96273 0.0713-0.27801 0.0997-0.49153 0.12816-0.70538-0.21385-0.1996-0.4279-0.39913-0.46354-0.86248-0.0356-0.46336 0.10702-1.1907 0.49196-1.7823 0.38495-0.59167 1.0122-1.0477 1.5612-1.4754 0.5489-0.42772 1.0197-0.82727 1.3405-0.89142 0.32078-0.0642 0.49167 0.20697 0.81958 0.3638 0.32792 0.15682 0.8127 0.1993 1.1477 0.29197 0.0256 0.0071 0.018-7e-3 0.0341-0.0062 0.1052 0.18156 0.21463 0.37559 0.25219 0.54725 0.0499 0.22811 0.0216 0.39942-7e-3 0.57051 0.25663-0.14257 0.51296-0.28518 0.56999-0.62735 0.057-0.34217-0.0853-0.88402-0.15658-1.4971-0.0156-0.13396-0.0103-0.29455-0.0181-0.4377-0.29824 0.0081-0.5854 0.07648-0.91312 0.07649-0.43546 0-0.9424-0.12127-1.3503-0.23152-0.20395-0.05512-0.38292-0.10714-0.58962-0.10025z" fill="#651f24" style="-inkscape-stroke:none;font-variation-settings:normal"/><path transform="translate(-2.9934 -13.441)" d="m154.67 150.2c0.74965-0.15434 1.4993-0.30868 2.4722-0.53468 0.97291-0.226 2.169-0.52365 3.2825-0.85439 1.1135-0.33073 2.1442-0.69453 3.051-1.0942 0.90676-0.39964 1.6895-0.83509 2.4722-1.2706l0.1819-0.5457c-0.98668 0.45751-1.9734 0.91502-3.3404 1.3918-1.367 0.4768-3.1144 0.97289-4.5227 1.3284-1.4084 0.35554-2.4777 0.57051-3.051 0.68901-0.57328 0.11851-0.65043 0.14054-0.7276 0.16257z" fill="#980800" style="-inkscape-stroke:none;font-variation-settings:normal"/><path transform="matrix(.79043 -.17589 .14123 .98441 16.52 -1.988)" d="m100.78 194.72c1.0032 0.25355 3.0096 0.59531 5.5508 0.94809s5.6168 0.71658 7.8052 0.92053 3.4892 0.24804 4.2113 0.1819c0.7221-0.0661 0.86541-0.24254 0.24252-0.35278-0.62289-0.11025-2.0119-0.15434-4.7901-0.54571-2.7782-0.39137-6.9453-1.13-9.5139-1.4772-2.5687-0.34726-3.5388-0.30317-4.0239-0.19843-0.48507 0.10473-0.48507 0.27009 0.51814 0.52365z" fill="#5b0500" style="-inkscape-stroke:none;font-variation-settings:normal"/><path transform="translate(-2.9934 -13.441)" d="m71.434 188.64c0.5059 0.90749 0.59143 0.97877 2.1027 1.7558 1.5113 0.77702 4.4481 2.2597 8.3884 3.4402 3.9403 1.1805 8.8836 2.0586 15.652 1.437s15.362-2.743 21.875-5.3072c6.5133-2.5642 10.946-5.5711 14.549-8.7133s6.3773-6.4196 8.6911-8.4576c2.3138-2.038 4.1671-2.8363 6.4268-3.1072 2.2598-0.27088 4.9257-0.0143 6.3158-0.32793 1.3901-0.31366 1.5042-1.1976 1.0991-2.8771-0.40505-1.6796-1.3292-4.1546-1.6215-6.0728-0.29234-1.9182 0.0471-3.2792 0.173-4.9904 0.12587-1.7112 0.0381-3.7724-0.5012-6.1841-0.53933-2.4117-1.5302-5.1738-5.6348-7.6234-4.1045-2.4497-11.323-4.5869-24.59 0.6353-13.267 5.2222-32.582 17.803-42.804 26.029-10.222 8.2263-11.351 12.097-11.453 14.905s0.82481 4.5511 1.3307 5.4586z" fill="#5b0015" style="-inkscape-stroke:none;font-variation-settings:normal"/><path d="m160.21 133.7c-0.13613 0.0499-0.27392 0.0996-0.41806 0.14986-1.367 0.47681-3.1144 0.97306-4.5227 1.3286-1.4084 0.35553-2.4777 0.57034-3.051 0.68885-0.57328 0.1185-0.65044 0.14074-0.72761 0.16278l0.1819 0.7276c0.74966-0.15434 1.4993-0.30885 2.4722-0.53485 0.9729-0.226 2.169-0.52348 3.2825-0.85421 1.1135-0.33073 2.1442-0.69436 3.051-1.094 0.0331-0.0146 0.0649-0.0297 0.0977-0.0444-0.12176-0.17703-0.23715-0.36034-0.36587-0.5302z" fill="#5b0500" style="-inkscape-stroke:none;font-variation-settings:normal"/><path d="m151.05 133.89c-2.3614 0.34193-5.0467 0.63677-7.9003 1.6294-3.0427 1.0584-6.2621 2.9104-9.9663 7.3422-3.7042 4.4318-7.8935 11.443-14.508 16.514-6.6146 5.0712-15.654 8.2022-21.365 10.539-5.7106 2.3372-8.0922 3.8804-8.9741 5.4017-0.88194 1.5214-0.26458 3.0207 1.6536 4.3656 1.1411 0.80008 2.7483 1.5419 4.5734 2.1492 0.0089-8.2e-4 0.01694-7.4e-4 0.02584-2e-3 3.7356-0.34307 8.023-1.1534 12.214-2.2324-2.1225-0.46949-4.1364-0.9655-5.4576-1.4583-2.7781-1.0363-2.5577-2.0507 0.7276-3.1972 3.2853-1.1465 9.6353-2.4252 13.361-2.8882 3.7262-0.46302 4.8286-0.11025 6.6807 0.19844 0.6967 0.11611 1.5292 0.21748 2.4216 0.3023 1.8928-1.15 3.5647-2.3438 5.0746-3.5667-3.4086-0.0903-6.4852-0.70645-7.8052-1.5865-1.3229-0.88196-0.88199-2.0283 1.7198-4.0127 2.6018-1.9844 7.3646-4.8068 10.628-5.9753 3.2632-1.1686 5.0269-0.68351 6.7247-0.33073 0.53508 0.11118 1.0671 0.20551 1.6035 0.29249 1.1915-0.63601 2.3541-0.97541 3.6494-1.1307 2.2598-0.27089 4.9258-0.0145 6.3159-0.32815 0.75543-0.17045 1.1248-0.51643 1.248-1.0599-0.12121-0.0516-0.22854-0.10337-0.38138-0.15503-1.5655-0.52917-4.6522-1.0585-7.6068-1.5436-2.9545-0.48507-5.7768-0.92584-6.6807-2.6898-0.90396-1.7639 0.11022-4.8505 1.9844-7.1215 1.8742-2.271 4.608-3.7264 6.8569-4.5201 1.5342-0.54147 2.8371-0.77515 4.0809-1.0299-0.0863-0.64157-0.19521-1.3038-0.35191-2.0045-0.13751-0.6149-0.3064-1.2528-0.54674-1.9022z" fill="#7a0006" style="-inkscape-stroke:none;font-variation-settings:normal"/><path transform="translate(-2.9934 -13.441)" d="m154.49 150.23s0.29286-0.0544 0.29286-0.0544l-0.0941-0.49816-0.33618-0.0351z" fill="#40000f" style="-inkscape-stroke:none;font-variation-settings:normal"/><path transform="matrix(.68512 -.093877 .033649 .9937 64.812 -27.499)" d="m100.78 194.72c1.0032 0.25355 3.0096 0.59531 5.5508 0.94809s5.6168 0.71658 7.5584 0.99013 2.7488 0.45683 3.4709 0.39069c0.72211-0.0661 1.359-0.38174 0.98292-0.56158-0.3761-0.17984-1.7651-0.22393-4.5433-0.6153-2.7782-0.39137-6.9453-1.13-9.5139-1.4772-2.5687-0.34726-3.5388-0.30317-4.0239-0.19843-0.48507 0.10473-0.48507 0.27009 0.51814 0.52365z" fill="#5b0500" style="-inkscape-stroke:none;font-variation-settings:normal"/><path transform="translate(-2.9934 -13.441)" d="m146.46 170.34s1.3891-0.4837 1.3891-0.4837l-3.39-0.22324-0.67386 0.47129z" fill="#40000f" style="-inkscape-stroke:none;font-variation-settings:normal"/><path transform="rotate(-.41613 -1701.5 541.84)" d="m100.78 194.72c1.0032 0.25355 3.0096 0.59531 5.5508 0.94809s5.6168 0.71658 7.8052 0.92053 3.4892 0.24804 4.2113 0.1819c0.7221-0.0661 0.86541-0.24254 0.24252-0.35278-0.62289-0.11025-2.0119-0.15434-4.7901-0.54571-2.7782-0.39137-6.9453-1.13-9.5139-1.4772-2.5687-0.34726-3.5388-0.30317-4.0239-0.19843-0.48507 0.10473-0.48507 0.27009 0.51814 0.52365z" fill="#5b0500" style="-inkscape-stroke:none;font-variation-settings:normal"/><path transform="translate(-2.9934 -13.441)" d="m100.62 194.92 2.7368-0.38034s-4.7129-0.81028-4.7129-0.81028l-1.4635 0.3638z" fill="#40000f" style="-inkscape-stroke:none;font-variation-settings:normal"/></g><path transform="translate(-2.9934 -13.441)" d="m45.761 205.91c3.9932-0.16126 7.9865-0.32253 10.147-0.46731 2.1606-0.14479 2.4885-0.2731 2.8164-0.40141 0.8269 0.0855 1.6538 0.17108 3.5714-7e-3 1.9176-0.17821 4.9257-0.62017 8.0124-0.79838s6.2516-0.0927 8.49-0.23524c2.2383-0.14258 3.55-0.51325 5.3107-0.74136s3.9705-0.31365 5.8239-0.39206c1.8534-0.0784 3.3504-0.1497 4.2343-0.23525 0.88393-0.0855 1.1548-0.18533 1.4257-0.28513 0.48474 0 0.96947 0 1.8748-0.12831 0.90533-0.12832 2.2312-0.38494 3.7353-0.62018s3.1864-0.44909 5.5673-0.96235c2.3809-0.51326 5.4604-1.3259 7.5918-1.9318 2.1314-0.60592 3.3147-1.0051 4.1345-1.3687 0.81978-0.36355 1.276-0.69146 1.7322-1.0194 0.55602-0.0713 1.112-0.14257 2.9726-0.94097s5.0255-2.3239 8.1264-4.1559c3.1009-1.832 6.1376-3.9705 7.7985-5.2822 1.6609-1.3116 1.9461-1.7964 2.2312-2.2811 0.6273-0.22811 1.2546-0.45623 2.0815-1.0194 0.82691-0.56316 1.8534-1.4613 3.6997-3.2862s4.5123-4.5764 5.995-6.2588 1.7821-2.2954 2.0815-2.9084c0.59879-0.39919 1.1976-0.79838 2.3096-2.7088 1.1121-1.9105 2.7373-5.332 3.9563-7.8484 1.219-2.5164 2.0316-4.1274 2.6019-5.0897 0.57028-0.96234 0.89818-1.276 1.1833-2.3025 0.28514-1.0265 0.5275-2.7658 0.68433-3.9848 0.15683-1.219 0.22811-1.9175 0.2994-2.6161 0.32791-0.6273 0.65581-1.2546 0.91957-2.217 0.26375-0.96236 0.46334-2.2597 0.62017-3.2363 0.15683-0.9766 0.27088-1.6324 0.25662-2.3738-0.0143-0.74137-0.15682-1.5682-0.14256-2.274 0.0143-0.70572 0.18534-1.2902 0.29226-2.0744 0.10693-0.78414 0.1497-1.7678 0.13544-2.4094-0.0143-0.64156-0.0855-0.94095-0.15682-1.2403 0.28514-0.94096 0.57027-1.8819 0.73423-3.0795 0.16395-1.1976 0.20673-2.6518 0.2495-4.0632 0.0428-1.4114 0.0855-2.7801 0.0855-3.6569 0-0.8768-0.0428-1.2617-0.0855-1.6467-0.31365 0.31365-0.62731 0.62731-0.90532 0.86968s-0.52037 0.41345-0.83403 0.3279c-0.31366-0.0855-0.69859-0.42771-1.0693-0.56314-0.37068-0.13544-0.7271-0.0642-1.0835 7e-3 0.11406-0.34216 0.22811-0.68433 0.29939-0.96234 0.0713-0.27801 0.0998-0.49186 0.12828-0.70571-0.21385-0.1996-0.42771-0.3992-0.46335-0.86255-0.0356-0.46336 0.10692-1.1904 0.49187-1.7821 0.38494-0.59166 1.0122-1.0479 1.5611-1.4756 0.5489-0.42771 1.0194-0.82689 1.3402-0.89105 0.32079-0.0642 0.49187 0.20673 0.6736 0.2577 0.18173 0.051 0.3741-0.11795 0.56297-0.13113 0.18887-0.0132 0.3742 0.12938 0.53102 0.34323 0.15683 0.21386 0.28514 0.49898 0.33505 0.7271 0.0499 0.22812 0.0214 0.3992-7e-3 0.57028 0.25662-0.14257 0.51324-0.28514 0.57027-0.62731 0.057-0.34217-0.0855-0.88391-0.15682-1.497-0.0713-0.61306-0.0713-1.2974 0.24598-2.1753 0.31727-0.8779 0.95177-1.9493 1.2334-2.6846 0.28161-0.73531 0.21033-1.1345 0.13905-1.5337 0.22811-0.7271 0.45622-1.4542 0.70572-2.4023 0.2495-0.94809 0.52037-2.1171 0.84828-3.2221 0.32792-1.1049 0.71284-2.1457 0.83403-2.8229 0.12118-0.6772-0.0214-0.99085-1.8463 0.17111-1.8249 1.162-5.332 3.7994-8.1264 5.7526-2.7944 1.9532-4.8758 3.222-6.7364 4.2129-1.8606 0.99086-3.5001 1.7037-4.662 2.3167-1.1619 0.61305-1.8463 1.1263-2.5306 1.6395-0.65582 0.0285-1.3116 0.057-2.552 0.54174s-3.0652 1.4257-4.9186 2.2954c-1.8534 0.86968-3.7353 1.668-4.9757 2.2312-1.2404 0.56315-1.8391 0.89105-2.4379 1.219-0.42771 0.057-0.85541 0.11405-2.4166 0.59167s-4.2557 1.3758-6.052 1.9888-2.6946 0.94096-3.386 1.276c-0.69146 0.33504-1.1762 0.6772-1.6609 1.0194-0.76987 0.0428-1.5398 0.0855-2.5591 0.3493-1.0194 0.26376-2.2882 0.74848-4.8688 1.5683-2.5805 0.81978-6.4726 1.9746-15.034 7.0858-8.5614 5.1112-21.792 14.178-29.319 19.741s-9.351 7.6207-10.787 9.5066c-1.4362 1.8859-2.4846 3.5997-3.4524 5.3942-0.9678 1.7945-1.8549 3.6695-2.4183 5.0841s-0.80299 2.3686-0.95488 3.031c-0.15189 0.66236-0.21604 1.033-0.2802 1.4037 0.24237-0.0428 0.48473-0.0855 0.63443-0.1996 0.1497-0.11406 0.20673-0.29939 0.32435-0.33503 0.11762-0.0356 0.29583 0.0784 0.50612 0.2887 0.21029 0.21029 0.45266 0.51681 0.7378 0.76274s0.61304 0.43127 0.86967 0.67364c0.25663 0.24238 0.44196 0.54176 0.65225 0.7877 0.21029 0.24593 0.44553 0.4384 0.47404 0.62374s-0.1497 0.36355-0.45979 0.51681c-0.31009 0.15327-0.75204 0.28158-1.0158 0.57385s-0.3493 0.74848-0.50612 1.1477c-0.15683 0.39919-0.38493 0.74135-0.6772 1.055-0.29227 0.31365-0.64869 0.59878-0.68433 0.76986-0.03564 0.17109 0.2495 0.22811 0.49186 0.31722 0.24237 0.0891 0.44196 0.21029 0.46334 0.46692 0.02139 0.25663-0.13544 0.64869-0.15682 0.95165-0.02138 0.30296 0.09267 0.51681 0.14613 0.70928 0.05346 0.19247 0.04633 0.36355 0.08197 0.68433 0.03564 0.32079 0.11405 0.79126 0.0499 1.1762-0.06416 0.38494-0.27088 0.68433-0.44909 0.98016-0.17821 0.29583-0.32791 0.58809-0.5881 0.68789-0.2602 0.0998-0.63086 7e-3 -1.0015-0.0855-0.07841 0.31365-0.15682 0.6273-0.40989 0.9267s-0.68076 0.58453-0.99086 0.70572c-0.31009 0.12118-0.50254 0.0784-0.65581 0.1497s-0.26732 0.25662-0.54534 0.36354-0.71997 0.13542-0.96234-0.11409-0.28514-0.777-0.28514-1.1904c1e-6 -0.41346 0.04277-0.71285 0.08554-1.0122-0.1497-0.0642-0.29939-0.12831-0.36355-7e-3 -0.06416 0.12119-0.04277 0.42771-0.08911 0.79483s-0.16039 0.79482-0.35642 1.4007c-0.19604 0.60593-0.47404 1.39-0.7271 2.6019-0.25306 1.2119-0.48117 2.8514-0.67083 4.2643-0.18967 1.4129-0.34088 2.5991-0.73178 3.7888-0.3909 1.1897-1.0215 2.3827-1.652 3.5758" fill="none" stroke="#000" stroke-linecap="round" stroke-linejoin="bevel" stroke-width=".8"/><g><path d="m143.81 121.38c-0.59855 0.27256-0.67346 0.90207-0.43719 1.5761 0.26504 0.75616 0.91965 1.567 1.8707 1.8087 0.87113 0.22135 1.992-0.0365 3.2045-0.4346-1.1685-0.78792-2.3234-1.5487-3.4696-2.2583-0.3834-0.23734-0.77172-0.46722-1.1684-0.69195z" fill="#b10800" style="-inkscape-stroke:none;font-variation-settings:normal"/><path d="m146.66 123.14c-0.29793 0.0443-0.59869 0.0881-0.89452 0.13281 0 0 3e-5 -5e-5 0.0858 0.10129l0.42892 0.50642c0.41378-0.0598 0.82819-0.11857 1.2475-0.16949-0.2899-0.19266-0.57919-0.38292-0.86764-0.57103z" fill="#980019" style="-inkscape-stroke:none;font-variation-settings:normal"/><path d="m110.79 109.97c-1.6116 0.0191-3.3452 0.13514-5.2136 0.37827-9.9652 1.2967-23.764 6.1996-33.366 14.054-9.6017 7.8543-15.005 18.659-15.751 28.015-0.74661 9.3563 3.1635 17.263 9.6371 22.162s15.51 6.7898 25.15 6.1624c9.6397-0.62733 19.882-3.7728 27.444-7.2802 7.5619-3.5074 12.443-7.3768 15.083-9.896 2.6402-2.5192 3.0394-3.688 3.4385-4.8571l-3e-3 -0.0486c1.8222-0.90119 3.2304-2.0763 4.2726-2.7828 1.1905-0.80698 1.9036-1.0024 3.2794-0.99167 1.3758 0.0107 3.4142 0.22742 5.5599 0.12196 2.1457-0.10547 4.3985-0.53317 5.596-0.97514 1.1976-0.44197 1.34-0.89812 1.2402-1.6609-0.0998-0.76275-0.44182-1.832-1.0656-3.0546-0.62376-1.2226-1.5294-2.5985-2.4133-3.6892s-1.7461-1.8961-2.6086-2.7016l-0.0899-0.0682c0.46278-1.8797 0.52372-4.283 4e-3 -7.2027-0.5988-3.3647-1.9675-7.4137-3.6427-10.161s-3.6563-4.1931-5.6379-5.6389l-0.21446-1.8216c-0.14256-1.7394-0.62715-3.2219-1.049-4.084s-0.78124-1.1037-1.1865-1.0966c-0.40525 7e-3 -0.85651 0.263-1.5467 0.71159-0.65698 0.42702-1.536 1.0304-2.8799 1.7575l-5.2e-4 -0.0103c-2.3413-0.54696-4.6829-1.094-8.9188-2.5223-3.4417-1.1605-8.1338-2.9024-15.117-2.8195z" fill="#ac3f0b"/><path transform="translate(-2.9934 -13.441)" d="m76.214 191.93c-1.0081-1.0484-2.0162-2.0969-2.9135-4.0526-0.89723-1.9558-1.6835-4.8187-1.8952-7.702-0.21171-2.8833 0.1512-5.7865 1.1896-8.1254s2.7521-4.1131 4.0728-5.0305c1.3206-0.91739 2.2481-0.97787 3.1756-1.0384 0.54438 0.40325 1.0888 0.80649 1.7945 1.1795s1.5727 0.71576 2.4396 1.0585c-1.2097 0.28227-2.4195 0.56454-3.5687 1.8247-1.1493 1.2602-2.238 3.4981-2.7521 5.8874-0.51415 2.3893-0.45366 4.9297-0.24196 7.0568s0.57462 3.8409 1.1795 5.2825c0.60488 1.4416 1.4517 2.611 2.3993 3.4982 0.94764 0.88715 1.9961 1.492 3.0445 2.0969-1.5928-0.3226-3.1856-0.6452-4.5063-0.9678s-2.3691-0.64519-3.4175-0.96779z" fill="#ffb37a" style="-inkscape-stroke:none;font-variation-settings:normal"/><path transform="translate(-2.9934 -13.441)" d="m87.343 168.64c-1.1291 0.70568-2.2582 1.4114-3.1151 3.0647-0.85692 1.6533-1.4416 4.2542-1.5122 6.9661-0.07057 2.7119 0.37298 5.5345 1.1694 7.6717 0.79643 2.1373 1.9457 3.5889 3.0344 4.6676 1.0888 1.0787 2.117 1.7844 3.0647 2.2783 0.94764 0.49398 1.8146 0.77625 2.6816 1.0585 1.6936-0.14114 3.3873-0.28227 4.6978-0.43349 1.3106-0.15122 2.238-0.31251 3.1655-0.47381-1.5928-0.66536-3.1856-1.3307-4.6978-2.1372-1.5122-0.8065-2.9436-1.7541-4.2038-3.1957-1.2602-1.4416-2.3489-3.3771-3.0143-5.2724-0.66537-1.8953-0.90731-3.7502-0.92747-5.5245-0.02016-1.7743 0.18145-3.4679 0.58471-4.6877s1.0081-1.9658 1.5827-2.5304 1.119-0.94763 1.6331-1.2501c0.51414-0.30244 0.99803-0.52422 1.4819-0.74601-1.2904 0.12097-2.5808 0.24195-3.5183 0.33268-0.93755 0.0907-1.5222 0.15121-2.107 0.2117z" fill="#ffb37a" style="-inkscape-stroke:none;font-variation-settings:normal"/></g><g fill="#802502"><path transform="translate(-2.9934 -13.441)" d="m146.44 145.78c0.88831 0.66711 1.674 1.5522 2.3107 1.9703 0.63663 0.4181 1.124 0.36912 1.5088-0.25 0.38473-0.61913 0.65533-1.7604 0.47591-3.1665s-0.7309-2.7379-1.5178-4.12-1.5509-2.3441-2.287-3.423-1.3776-2.1909-1.7625-2.7612-0.51325-0.59877-0.66295-0.0641c-0.1497 0.53465-0.32078 1.6324-0.777 2.83-0.45623 1.1976-1.1976 2.495-1.8106 3.5714-0.61305 1.0764-1.0978 1.9318-1.4079 2.4932s-0.44552 0.82867-0.59247 0.91099c-0.14695 0.0823-0.3054-0.0204 0.30149 0.0227s1.9791 0.23199 3.1606 0.55098c1.1815 0.31898 2.1724 0.76807 3.0607 1.4352z" style="-inkscape-stroke:none;font-variation-settings:normal"/><path transform="translate(-2.9934 -13.441)" d="m113.47 157.29c0.25663 0.79125 0.76988 2.3738 1.2118 3.7424 0.44197 1.3687 0.81264 2.5235 1.2617 3.7139 0.44909 1.1905 0.97659 2.4165 1.6752 3.3789 0.6986 0.96234 1.5683 1.6609 2.6589 2.2169 1.0907 0.55603 2.4023 0.96947 3.828 1.3758 1.4257 0.40633 2.9654 0.80552 4.5693 1.1548 1.6039 0.34929 3.2719 0.64868 4.8901 0.67007 1.6182 0.0214 3.1864-0.23524 4.4695-0.60593 1.2831-0.37069 2.2811-0.85541 3.3575-1.5255 1.0764-0.67009 2.2312-1.5255 3.1935-2.0815 0.96235-0.55603 1.7322-0.81265 3.3646-0.92671s4.1274-0.0856 6.0948-0.1925c1.9675-0.10693 3.4074-0.34929 4.3769-0.64156 0.96947-0.29228 1.4684-0.63444 1.668-1.1192 0.19959-0.48474 0.0998-1.112-0.26376-2.0459s-0.99085-2.1742-1.7393-3.3504c-0.7485-1.1762-1.6182-2.2882-2.3025-3.0795s-1.1833-1.2617-1.6823-1.7322c0.0998-1.4257 0.1996-2.8514 0.13544-4.3341-0.0642-1.4827-0.29226-3.0224-0.63443-4.5337-0.34217-1.5112-0.79839-2.9939-1.1833-4.0846-0.38493-1.0907-0.69858-1.7892-1.0122-2.4878 0.37068 1.9389 0.74136 3.8779 0.99086 6.0164 0.24949 2.1386 0.3778 4.4766 7e-3 6.494-0.37069 2.0174-1.2403 3.7139-2.7302 5.7812-1.4899 2.0673-3.5998 4.5051-5.9166 6.1376-2.3168 1.6324-4.8402 2.4593-6.9231 2.4005-2.0829-0.0588-3.7252-1.0033-5.0479-1.6683-1.3227-0.66493-2.3258-1.0502-3.2915-1.1147-0.96571-0.0645-1.894 0.19187-3.2926 0.85296s-3.2675 1.7269-4.4519 2.085-1.6842 9e-3 -2.1896-0.59831c-0.50538-0.60686-1.0163-1.471-1.6057-2.8998-0.58944-1.4289-1.2574-3.4224-1.9728-5.1213-0.71536-1.699-1.4781-3.1032-2.2408-4.5076 0.15683 0.61305 0.31365 1.2261 0.39207 1.5326 0.0784 0.30653 0.0784 0.30657 0.33503 1.0978z" style="font-variation-settings:normal"/><path transform="translate(-2.9934 -13.441)" d="m61.333 177.84c0.58453 1.112 1.1691 2.2241 1.889 3.443 0.71998 1.219 1.5754 2.5448 3.3005 4.1488 1.7251 1.6039 4.3198 3.4858 7.157 4.9115 2.8372 1.4257 5.9166 2.3952 9.267 3.0011s6.9716 0.84828 11.092 0.56314c4.1203-0.28515 8.7394-1.0978 12.689-1.9817 3.9492-0.88393 7.2282-1.8391 10.279-3.0296 3.051-1.1905 5.8738-2.6161 8.1977-3.8779 2.3239-1.2618 4.1487-2.3595 5.8168-3.5143 1.6681-1.1548 3.1793-2.3666 4.5765-3.6355 1.3972-1.2689 2.6803-2.5947 3.4288-3.5713 0.74849-0.97661 0.96234-1.6039 0.8269-1.8106-0.13545-0.20673-0.62017 7e-3 -1.6467 0.24949-1.0265 0.24237-2.5947 0.51325-4.1416 0.5774-1.5469 0.0642-3.0724-0.0784-4.5551-0.37781-1.4827-0.2994-2.9227-0.75561-4.4592-1.1857-1.5365-0.43008-3.1695-0.83399-4.597-1.5356-1.4276-0.70163-2.6496-1.7009-3.8716-2.7003l-1.593-3.9988c-0.26057 1.0239-0.5238 2.0583-1.5886 3.0677-1.0648 1.0094-2.9078 1.9993-4.6813 2.5258-1.7735 0.52651-3.4384 0.52796-4.3646 0.24251-0.92628-0.28544-1.5206-0.96126-1.9077-1.7385s-0.51891-1.4998-0.66251-2.2865c-0.89101 0.5114-1.7936 1.0294-3.894 1.6226-2.1004 0.59311-5.5034 1.2913-8.0201 1.5271-2.5167 0.23583-4.1716 0.0167-5.8628-0.52468-1.6912-0.54137-3.411-1.4031-5.132-2.2654 1.5831 1.2882 3.1664 2.5765 5.4622 3.2964 2.2958 0.71987 5.2935 0.87092 8.2733 0.58099 2.9797-0.28994 5.8972-1.0165 8.8256-1.7458 0.21327 0.85004 0.42655 1.7002 1.5489 2.5292s3.1541 1.6373 5.4211 1.4012c2.267-0.23609 4.7695-1.5164 7.2719-2.7967 0.56426 0.85704 1.1285 1.7141 1.9186 2.7556s1.806 2.2675 2.5228 3.5086c0.71683 1.2411 1.1346 2.4974-1.8915 4.8697-3.026 2.3723-9.4954 5.8603-17.093 7.6253-7.5974 1.765-16.322 1.8068-21.982 1.149s-8.2565-2.015-10.235-3.2424c-1.9786-1.2274-3.3399-2.325-4.5011-3.5995s-2.1223-2.7257-3.0834-4.1769z" style="-inkscape-stroke:none;font-variation-settings:normal;mix-blend-mode:normal"/></g><g><path transform="translate(-2.9934 -13.441)" d="m124.74 171.63c0.38308-0.0302 1.1492-0.0907 1.6231-0.38309 0.47381-0.29236 0.65527-0.81657 0.76112-1.3811 0.10584-0.56455 0.13608-1.1694 0.5633-2.0306s1.2514-1.9786 1.6085-2.9567c0.35713-0.97809 0.24716-1.8168-0.0897-2.6176s-0.90058-1.5638-1.6611-1.913c-0.76049-0.3492-1.7177-0.28459-2.5944-0.44222-0.8767-0.15764-1.6729-0.53752-2.6104-1.0047-0.93744-0.46718-2.0161-1.0216-3.0091-1.1124-0.99301-0.0907-1.9003 0.28227-2.6262 0.82162s-1.2702 1.245-1.5122 1.9457-0.18147 1.3962 0.16634 2.611 0.98291 2.9487 1.8398 4.2593 1.9356 2.1977 3.1655 2.8328c1.2299 0.63512 2.611 1.0182 3.3016 1.2097s0.69061 0.19157 1.0737 0.16133z" fill="#fff" stop-color="#000000" style="-inkscape-stroke:none;font-variation-settings:normal"/><path transform="translate(-2.9934 -13.441)" d="m112.75 153.28c0-0.0504 0-0.15121 0.0631-0.67508s0.18924-1.4707 0.39865-2.7406c0.20942-1.2699 0.50205-2.8626 1.2088-4.602 0.70671-1.7394 1.8274-3.6252 3.1519-5.1579 1.3245-1.5327 2.8526-2.7122 4.2134-3.6173s2.5542-1.5359 3.0542-1.8662 0.30635-0.36016 0.11276-0.38999c-0.19641 0.0406-0.39282 0.0813-1.1866 0.4116-0.79382 0.33033-2.185 0.95031-3.4262 1.7143s-2.3325 1.672-3.3949 2.9316c-1.0625 1.2596-2.0961 2.8706-2.8267 4.3141-0.73068 1.4435-1.1584 2.7195-1.3758 4.0347-0.21742 1.3152-0.22456 2.6696-0.18825 3.625 0.0363 0.95545 0.11607 1.5119 0.15594 1.7901 0.0399 0.27823 0.0399 0.2782 0.0399 0.22779z" fill="#e4691b" style="font-variation-settings:normal"/><path transform="translate(-2.9934 -13.441)" d="m60.009 174.71c0.09468-4.0132 0.17954-7.61 0.74582-11.031 0.56628-3.4208 1.5307-5.6834 2.3427-7.2253 0.812-1.5419 1.9002-3.1335 3.3045-4.8016s3.2577-3.607 4.6477-5.1824c1.3901-1.5754 2.3167-2.7872 3.7425-4.2557s3.3504-3.1935 5.5531-5.1111c2.2027-1.9176 4.6833-4.0275 7.7058-5.7526s6.5866-3.0652 8.8107-3.9991c2.2241-0.93385 3.108-1.4613 3.992-1.9888-3.0082 0.89819-6.0164 1.7964-9.8801 3.5714-3.8637 1.775-8.5827 4.4268-11.99 6.6437-3.4074 2.217-5.5031 3.999-7.4136 5.9237-1.9104 1.9247-3.6355 3.9919-5.218 6.3087-1.5825 2.3168-3.178 5.1602-4.2061 7.8048-1.0281 2.6447-1.9087 6.0679-2.2504 9.6023-0.34174 3.5345-0.1249 6.3728 0.11347 9.4928z" fill="#e4691b" style="font-variation-settings:normal"/><path transform="translate(-2.9934 -13.441)" d="m104.11 125.71c-1.1905 0.59167-1.6039 1.1263-3.2577 1.7714-1.6538 0.64513-4.5479 1.4007-6.6437 2.1991-2.0958 0.79841-3.3931 1.6395-5.0684 2.7658-1.6752 1.1263-3.7282 2.5377-4.9115 4.1773-1.1833 1.6396-1.497 3.5072-2.83 5.7313-1.333 2.2241-3.6854 4.8046-4.8259 6.9075-1.1406 2.1029-1.0693 3.7282-0.78413 4.8188 0.28514 1.0906 0.78413 1.6467 1.0978 1.9104s0.44196 0.23526 2.7801 0.23526 6.886 0.0285 10.778-2.2598c3.8922-2.2883 7.1284-6.8932 10.857-11.07 3.7282-4.1773 7.9481-7.9267 13.158-10.437 5.2097-2.5102 11.409-3.781 14.062-4.5893 2.6536-0.80836 1.7617-1.1543 0.0664-1.7237-1.6953-0.56933-4.1938-1.362-7.5532-1.7869-3.3594-0.42486-7.5794-0.48189-10.673-0.18601-3.0939 0.29588-5.061 0.94447-6.2515 1.5361z" fill="#802502" style="font-variation-settings:normal"/><path transform="translate(-2.9934 -13.441)" d="m124.82 134.41c0.60991-0.20667 1.8297-0.62 3.0848-0.97788 1.2551-0.35788 2.5455-0.66031 3.3066-0.95771s0.99299-0.58974 1.8902-1.1442c0.89724-0.55447 2.4598-1.371 3.3167-1.8348s1.0081-0.57462 0.84681-0.6956-0.63511-0.25203-2.0486-0.68032c-1.4135-0.42828-3.7665-1.1538-6.9004-1.7146-3.1339-0.56083-7.0484-0.95693-10.011-1.1367-2.9628-0.17974-4.9737-0.1431-6.728 0.11167-1.7543 0.25477-3.2518 0.72765-4.4294 1.6223-1.1776 0.89469-2.035 2.2111-4.1483 2.7792-2.1133 0.56817-5.4823 0.38802-8.2405 1.1952-2.7582 0.80716-4.9054 2.6016-5.8924 5.2035s-0.81362 6.011-1.6482 7.8614c-0.83459 1.8504-2.677 2.1418-4.2864 2.8714-1.6094 0.72965-2.9857 1.8976-3.6702 3.2051-0.68457 1.3075-0.67745 2.7545 0.53441 3.5351 1.2119 0.78059 3.6284 0.89464 5.9131 0.61662 2.2847-0.27802 4.4374-0.94808 6.02-2.9441s2.5947-5.3178 4.2826-7.3965c1.6879-2.0787 4.0513-2.9142 6.4311-3.3995 2.3798-0.48535 4.7758-0.62053 6.8456-1.0777 2.0698-0.45716 3.8132-1.2362 5.7519-1.9846 1.9387-0.74833 4.0726-1.4658 5.6334-1.9358 1.5609-0.47003 2.5486-0.69256 3.0424-0.80382 0.49385-0.11127 0.49385-0.1112 1.1038-0.31786z" fill="#541300" style="font-variation-settings:normal"/><path transform="translate(-2.9934 -13.441)" d="m120.91 186.84c-1.3106-0.0806-2.6211-0.1613-4.2946-0.61496-1.6735-0.45366-3.7098-1.2803-5.5849-2.3792-1.8751-1.0989-3.5889-2.4698-4.9196-4.4962-1.3307-2.0264-2.2784-4.7079-2.8429-6.6032-0.56454-1.8953-0.746-3.0042-0.77624-4.2845-0.0302-1.2803 0.0907-2.732 0.93756-3.7502 0.84684-1.0182 2.4195-1.6029 3.5183-1.4819 1.0989 0.12098 1.7239 0.94762 2.1473 2.0162s0.64519 2.3791 1.0888 4.1434c0.44358 1.7642 1.1089 3.982 2.49 5.968 1.3811 1.986 3.478 3.7401 5.2523 4.8692 1.7743 1.1291 3.226 1.6331 4.6272 1.986 1.4013 0.35285 2.7521 0.55447 3.851 0.57463 1.0988 0.0202 1.9456-0.14113 2.7925-0.30243-1.3509 0.88714-2.7018 1.7743-4.0829 2.5001-1.3811 0.72585-2.7925 1.2904-4.2038 1.8549z" fill="#ffb37a" style="-inkscape-stroke:none;font-variation-settings:normal"/><path transform="translate(-2.9934 -13.441)" d="m103.8 138.74c-0.78633-0.98795-1.8751-1.6332-2.8681-2.1624-0.993-0.52926-1.8902-0.94258-2.7874-1.3559 4.2442 0.373 8.4883 0.746 10.762-0.53938 2.2734-1.2854 2.5758-4.229 4.4156-5.726s5.2169-1.5475 7.5558-1.0384c2.3389 0.50911 3.6393 1.5777 4.1585 2.7118 0.51919 1.1342 0.25709 2.3338-0.65023 3.236s-2.4598 1.5071-3.9115 2.3943c-1.4517 0.88716-2.8026 2.0566-4.0425 3.6494s-2.3691 3.609-3.0546 5.7866-0.92747 4.5163-0.81657 6.7241c0.11089 2.2078 0.57462 4.2845 1.0081 5.968 0.43349 1.6836 0.83674 2.9739 0.89722 4.2139 0.0605 1.24-0.22178 2.4296-0.77625 3.3873s-1.3811 1.6835-2.3691 2.2582c-0.98797 0.57463-2.1372 0.99803-3.2864 1.1694-1.1493 0.17138-2.2985 0.0907-3.2562-0.18147-0.95772-0.27219-1.7239-0.73591-2.1876-1.5122-0.46374-0.77626-0.62503-1.865-0.79642-2.9135-0.17138-1.0484-0.35284-2.0565-0.62503-3.2764-0.2722-1.2198-0.63511-2.6513-0.68551-3.8409-0.0504-1.1896 0.2117-2.1372 0.74601-3.1957 0.53431-1.0585 1.3408-2.2279 2.0868-3.5586 0.74601-1.3307 1.4315-2.8227 1.7944-4.2744s0.40325-2.863 0.18145-4.2341c-0.22179-1.3711-0.70567-2.7017-1.492-3.6897z" fill="#370000" style="-inkscape-stroke:none;font-variation-settings:normal"/><path transform="translate(-2.9934 -13.441)" d="m150.9 161.42c-0.32763 0.40829-0.48893 0.58975-0.45364 0.79642 0.0353 0.20666 0.26714 0.43852 0.90731 0.4486 0.64016 0.0101 1.6886-0.20162 2.7219-0.0403 1.0333 0.1613 2.0515 0.69559 2.6312 1.4466 0.57967 0.75105 0.7208 1.7188 0.5847 2.4195-0.1361 0.70064-0.54941 1.1341-0.51413 1.3105 0.0353 0.17642 0.51918 0.0958 1.0837-0.0554 0.56455-0.15122 1.2097-0.373 1.618-0.66032 0.40829-0.28731 0.57967-0.64015 0.48894-1.3408-0.0907-0.70065-0.44357-1.7491-0.95268-2.8429-0.5091-1.0938-1.1744-2.233-1.8953-3.2612s-1.497-1.9456-2.0213-2.5001c-0.52423-0.55447-0.79641-0.746-1.0132-0.69056-0.21674 0.0554-0.37804 0.35788-0.68048 0.94764s-0.74601 1.4668-1.2148 2.2229c-0.46878 0.7561-0.96274 1.3912-1.2904 1.7995z" fill="#370000" stop-color="#000000" style="-inkscape-stroke:none;font-variation-settings:normal"/><path transform="translate(-2.9934 -13.441)" d="m95.146 167.79c-0.68552 0.76617-1.371 1.5323-1.7743 2.6917-0.40325 1.1594-0.52422 2.7118-0.51414 4.4155 0.01008 1.7038 0.15121 3.5586 0.59479 5.2422 0.44358 1.6836 1.1896 3.1957 2.1372 4.6374 0.94764 1.4416 2.0968 2.8126 3.4982 3.8812 1.4013 1.0686 3.0546 1.8348 4.5264 2.3086 1.4719 0.47382 2.7622 0.65528 4.0526 0.83674 1.2702-0.34276 2.5404-0.68552 3.5889-0.97787 1.0484-0.29236 1.8751-0.5343 2.7018-0.77625-1.7541-0.30244-3.5082-0.60487-5.2523-1.2803-1.744-0.67545-3.478-1.7239-4.9599-2.9235s-2.7118-2.5505-3.6292-4.0728c-0.91739-1.5223-1.5223-3.2159-1.9053-4.7381-0.38308-1.5223-0.54438-2.8731-0.61495-4.0728-0.07057-1.1997-0.05041-2.2481 0.08065-3.0949 0.13106-0.84684 0.373-1.492 0.70568-2.0364 0.33268-0.54439 0.75608-0.98795 1.1795-1.4315-0.70568 0.30243-1.4114 0.60487-2.1473 0.83673-0.73593 0.23187-1.5021 0.39317-2.2683 0.55447z" fill="#ffb37a" style="-inkscape-stroke:none;font-variation-settings:normal"/><path transform="translate(-2.9934 -13.441)" d="m112.81 154.69c-0.11405-1.1833-0.24236-3.108 0.13546-4.6549 0.37781-1.5469 1.2617-2.7159 2.2027-3.8351 0.94097-1.1192 1.9389-2.1884 3.5785-2.7872s3.9206-0.7271 5.4176-0.42057 2.2098 1.0479 2.4736 1.5896c0.26376 0.54177 0.0784 0.88393-0.32791 1.5398-0.40633 0.65582-1.0336 1.6253-1.5255 2.1742-0.49187 0.5489-0.84829 0.67721-1.5041 0.58453-0.65582-0.0927-1.611-0.40632-2.8514-0.33503-1.2404 0.0713-2.7658 0.52751-3.8992 1.3402-1.1334 0.81266-1.8748 1.9817-2.3738 3.1864-0.499 1.2047-0.75562 2.445-0.93383 2.8442s-0.27801-0.0428-0.39207-1.2261z" fill="#fff" style="-inkscape-stroke:none;font-variation-settings:normal"/><path transform="translate(-2.9934 -13.441)" d="m132.33 173.43c0.60487-0.24699 2.0364-0.63008 2.9235-1.0888 0.88714-0.4587 1.2299-0.99299 1.5979-1.2803 0.36797-0.28731 0.76112-0.32764 1.4366-0.45365 0.67545-0.12602 1.6331-0.33772 2.1926-0.33771 0.5595 0 0.7208 0.2117 0.39315 0.64015-0.32764 0.42846-1.1442 1.0736-2.6766 1.6079-1.5324 0.53431-3.7804 0.95771-5.0154 1.114-1.2349 0.15625-1.4567 0.0454-0.85185-0.20162z" fill="#d6d7eb" style="-inkscape-stroke:none;font-variation-settings:normal"/><path transform="translate(-2.9934 -13.441)" d="m135.7 177.5c-0.73423 0.12831-2.2027 0.38494-4.0347 0.28513-1.832-0.0998-4.0276-0.55601-6.0948-1.5326-2.0673-0.97662-4.0062-2.4736-5.2323-3.7567s-1.7393-2.3524-2.2526-3.4216c1.1976 0.67008 2.3952 1.3402 3.5001 1.8035 1.1049 0.46335 2.1171 0.71997 3.5785 1.0978s3.3717 0.8768 4.9258 1.2261c1.554 0.3493 2.7516 0.54889 3.7923 0.57028 1.0408 0.0214 1.9247-0.13544 2.6518-0.19961 0.7271-0.0642 1.2974-0.0357 1.7821-0.0856s0.88392-0.17822 1.2831-0.30653c-0.51325 0.88393-1.0265 1.7679-1.554 2.4664-0.52751 0.6986-1.0693 1.2118-1.611 1.7251 0 0 0 4e-5 -0.73423 0.12835z" fill="#ffb37a" style="-inkscape-stroke:none;font-variation-settings:normal"/><path transform="translate(-2.9934 -13.441)" d="m147.21 165.98c0.0321 7e-3 0.0962 0.0214 0.5311-0.14611 0.43484-0.16752 1.2403-0.5168 1.5504-0.91244 0.31009-0.39563 0.12475-0.83759 0.19604-1.194 0.0713-0.35643 0.39919-0.6273 1.2618-0.84115 0.86255-0.21386 2.2597-0.37068 3.3539 7e-3 1.0942 0.37782 1.8855 1.2902 1.7358 2.0138-0.14971 0.72354-1.2403 1.2582-2.7338 1.5469-1.4934 0.2887-3.3896 0.33147-4.5658 0.27088-1.1762-0.0606-1.6324-0.22455-1.7393-0.36712-0.10693-0.14257 0.13544-0.26375 0.25662-0.32435 0.12119-0.0606 0.12119-0.0606 0.15324-0.0535z" fill="#541300" style="-inkscape-stroke:none;font-variation-settings:normal"/><path transform="translate(-2.9934 -13.441)" d="m150.13 165.93c0.26142-0.0892 0.41012-0.14119 0.58303-0.3311s0.37003-0.51771 0.27255-0.91329c-0.0975-0.39557-0.48954-0.85891-0.0868-1.2724 0.40277-0.41346 1.6003-0.777 2.5092-0.55957 0.90889 0.21742 1.529 1.0158 1.4114 1.718-0.11763 0.70216-0.97303 1.3081-2.0459 1.5754-1.0728 0.26732-2.3631 0.19603-2.8211 0.0972-0.45804-0.0988-0.0839-0.22509 0.17755-0.31425z" fill="#370000" style="-inkscape-stroke:none;font-variation-settings:normal"/><path transform="translate(-2.9934 -13.441)" d="m150.34 161.88c-0.17108 0.12118-0.51325 0.36355-0.88749 0.6879-0.37425 0.32435-0.78057 0.73066-0.75205 1.1085 0.0285 0.37781 0.49186 0.72709 1.1691 0.63442 0.67721-0.0927 1.5682-0.6273 2.1991-0.82689 0.63087-0.1996 1.0015-0.0642 1.3473 0.16752 0.34573 0.23167 0.66651 0.55958 0.75562 0.80551 0.0891 0.24593-0.0535 0.40988-0.55247 0.57384-0.499 0.16396-1.3544 0.32791-2.4237 0.39563-1.0693 0.0677-2.3524 0.0392-3.247 0.0571-0.89463 0.0178-1.4007 0.082-1.9104 0.51326-0.50969 0.43128-1.0229 1.2296-1.3794 1.8427-0.35643 0.61305-0.55602 1.0408-0.33146 1.1192 0.22455 0.0784 0.87322-0.19246 1.996-0.34215s2.7195-0.17819 4.6727-0.26729 4.2628-0.2388 5.6742-0.45978c1.4114-0.22099 1.9247-0.51325 2.167-0.98017 0.24238-0.46692 0.21388-1.1085-0.0392-1.7786-0.25306-0.67008-0.73065-1.3687-1.3829-2.135-0.65227-0.76631-1.4792-1.6003-2.2241-1.9354-0.74493-0.33503-1.4079-0.17108-2.0102 0.15327-0.60236 0.32434-1.1441 0.80907-1.5914 1.0265s-0.80017 0.1675-0.96413 0.0427c-0.16397-0.12476-0.13903-0.32434-0.12657-0.42414 0.0125-0.0998 0.0125-0.0999-0.1586 0.0213z" fill="#d6d7eb" stop-color="#000000" style="-inkscape-stroke:none;font-variation-settings:normal"/><path transform="translate(-2.9934 -13.441)" d="m111.27 139.51c1.6357-0.10584 2.9271 0.72039 4.2185 1.5466-0.85186 1.492-1.7037 2.984-2.2506 4.8995-0.5469 1.9154-0.78885 4.2542-0.67795 6.462 0.11089 2.2078 0.57462 4.2845 1.0081 5.968 0.43349 1.6836 0.83674 2.9739 0.89722 4.2139 0.0605 1.24-0.22178 2.4296-0.77625 3.3873s-1.3811 1.6835-2.3691 2.2582c-0.98797 0.57463-2.1372 0.99803-3.2864 1.1694-1.1493 0.17138-2.2985 0.0907-3.2562-0.18147-0.95772-0.27219-1.7239-0.73591-2.1876-1.5122-0.46374-0.77626-0.62503-1.865-0.79642-2.9135-0.17138-1.0484-0.35284-2.0565-0.62503-3.2764-0.2722-1.2198-0.63511-2.6513-0.68551-3.8409-0.0504-1.1896 0.2117-2.1372 0.74601-3.1957 0.53431-1.0585 1.3408-2.2279 2.0868-3.5586 0.74601-1.3307 1.4315-2.8227 1.8146-4.3904 0.38309-1.5676 0.46373-3.2108 1.494-4.5514 1.0303-1.3406 3.0102-2.3785 4.6459-2.4844z" fill="#260000" style="-inkscape-stroke:none;font-variation-settings:normal"/><path transform="translate(-2.9934 -13.441)" d="m105.69 148.4c-0.48967 1.0355-1.3532 2.572-2.121 4.0584-0.76783 1.4864-1.4399 2.9224-1.5163 4.7575-0.0764 1.8352 0.44301 4.0692 0.70624 5.5227 0.26324 1.4534 0.2703 2.1261 0.39453 2.5807 0.12422 0.45462 0.36561 0.69121 0.49687 0.99498 0.13125 0.30377 0.15239 0.67472 0.19166 1.1286 0.0393 0.45391 0.0967 0.99077 0.29937 0.78492 0.20271-0.20585 0.55071-1.1544 0.94845-1.0404 0.39774 0.11406 0.8452 1.2907 1.1438 1.4264 0.29859 0.13569 0.44827-0.76958 0.87065-0.78384 0.42237-0.0143 1.1174 0.86249 1.4649 0.7217s0.34752-1.2991 0.78058-1.5219c0.43306-0.22276 1.2992 0.49007 1.6235 0.29581 0.32435-0.19425 0.10693-1.2956 0.42415-1.693s1.1691-0.0909 1.6752 0.0945c0.50613 0.18535 0.6665 0.2495 0.47581 0.56672-0.19069 0.31723-0.73244 0.88749-1.4025 1.4079-0.67008 0.52039-1.4684 0.99085-2.3167 1.3045-0.8483 0.31365-1.7465 0.47047-2.6233 0.52037s-1.7322-7e-3 -2.4664-0.16395c-0.73424-0.15683-1.3473-0.41345-1.7964-0.89107-0.44909-0.47761-0.73422-1.1762-0.97659-2.1884-0.24237-1.0122-0.44196-2.3381-0.66295-3.6854-0.22098-1.3473-0.46335-2.7159-0.61305-3.8066s-0.20672-1.9033 0.14971-2.9797 1.1263-2.4165 1.9532-3.8422c0.82691-1.4257 1.7108-2.9369 2.1742-4.2699 0.46335-1.333 0.50612-2.4878 0.67665-2.692s0.46883 0.54225 0.56007 1.1826c0.0912 0.64036-0.0246 1.1747-0.51425 2.2101z" fill="#361818" style="font-variation-settings:normal"/><path d="m112.38 146.71c-0.0698 0.13651-0.13238 0.27392-0.17984 0.41134-0.22104 0.64011-0.1865 1.2806 0.0858 2.312 0.2131 0.63786 0.4269 1.2546 0.66145 1.8764 0.28364 0.75186 0.60509 1.5105 0.97462 2.2154 0.0922 0.15968 0.18666 0.31663 0.28474 0.46663 0.85691 1.3106 1.9353 2.1978 3.1652 2.8329 1.2299 0.63511 2.611 1.0177 3.3016 1.2092 0.69056 0.19155 0.69075 0.19199 1.0738 0.16175 0.38309-0.0302 1.1493-0.0911 1.6232-0.38344 0.47382-0.29236 0.65535-0.81624 0.76119-1.3808 0.10585-0.56455 0.13606-1.1697 0.56328-2.0309 0.41507-0.83668 1.2009-1.914 1.573-2.8717-0.26144-0.0595-0.51652-0.10052-0.76791-0.1173-0.96571-0.0645-1.8942 0.19209-3.2928 0.85318-1.3986 0.66109-3.2675 1.727-4.4519 2.0851s-1.6842 8e-3 -2.1895-0.59841c-0.50537-0.60686-1.0161-1.4712-1.6056-2.9001-0.47975-1.163-1.0133-2.6936-1.5803-4.1414z" fill="#d6d7eb" style="font-variation-settings:normal"/><path transform="translate(-2.9934 -13.441)" d="m77.907 164.28c-0.60487-0.1613-1.2097-0.32259-2.2985-0.11088-1.0888 0.21171-2.6614 0.7964-4.1232 2.0062-1.4618 1.2098-2.8126 3.0445-3.6998 5.0809-0.88715 2.0364-1.3105 4.2744-1.4013 6.3713-0.09073 2.0969 0.15121 4.0526 0.51414 5.5245s0.84682 2.4598 1.3206 3.2663c0.47382 0.80649 0.93754 1.4315 1.4013 2.0566-1.1896-1.0283-2.3792-2.0566-3.2058-2.853-0.82666-0.79642-1.2904-1.361-1.7541-1.9255-0.46373-1.1694-0.92747-2.3388-1.3307-3.6998-0.40325-1.361-0.746-2.9134-0.82665-4.3853-0.08065-1.4719 0.10081-2.863 0.4839-4.2845s0.96778-2.8731 1.7743-4.093 1.8348-2.2078 2.9235-3.0344c1.0888-0.82667 2.238-1.492 3.3873-1.9457 1.1493-0.45366 2.2985-0.6956 3.105-0.79641 0.8065-0.10081 1.2702-0.0605 1.6936 0.0504 0.42342 0.11089 0.80649 0.29235 1.1896 0.47381 0.04032 0.40325 0.08065 0.80649 0.22179 1.1896s0.38308 0.746 0.62503 1.1089z" fill="#ffb37a" style="-inkscape-stroke:none;font-variation-settings:normal"/><path d="m76.532 152.56c-0.07657 6e-3 -0.15309 0.012-0.23048 0.0196 1.1325 0.91526 2.3 1.8026 3.7543 2.4614 0.34167-0.10234 0.68428-0.1897 1.0273-0.26975-0.86698-0.34276-1.734-0.68533-2.4396-1.0583-0.3777-0.19964-0.7069-0.40837-1.017-0.62064-0.36463-0.17524-0.7292-0.35026-1.0945-0.53226zm20.035 0.39687c-0.70568 0.30244-1.4112 0.60478-2.1472 0.83664-0.73593 0.23187-1.5019 0.39319-2.2681 0.55449-0.44317 0.49531-0.87841 1.0019-1.2454 1.6035 1.3723-0.18868 2.7349-0.44807 4.0923-0.75396 0.11114-0.29487 0.23948-0.56438 0.38912-0.80925 0.33268-0.54438 0.75585-0.98787 1.1793-1.4314zm2.9445 1.3146c-9e-3 0.25316-0.0166 0.50704-0.0108 0.75189 0.0127 0.53649 0.0619 1.0511 0.14469 1.5978 0.10538 0.0947 0.2182 0.189 0.34572 0.28318 1.1223 0.82903 3.1538 1.6376 5.4208 1.4015 0.74478-0.0776 1.517-0.27562 2.3043-0.54157-0.20285-0.63321-0.38191-1.2502-0.52349-1.8133-0.0708-0.28178-0.11495-0.48567-0.17621-0.74517-0.42666 0.17611-0.86132 0.33312-1.2919 0.46095-1.7735 0.52652-3.4383 0.52781-4.3646 0.24237-0.88459-0.2726-1.4608-0.90467-1.8485-1.6376zm-9.5374 0.37879c-0.2737 0.0257-0.47589 0.0454-0.74621 0.0708-0.8218 0.13153-1.6256 0.24454-2.3523 0.31264-0.66255 0.0621-1.2601 0.0885-1.8195 0.0899-0.2097 0.0215-0.51116 0.051-0.70745 0.0713-0.38849 0.24281-0.7724 0.50102-1.1498 0.78238 1.2752 0.21632 2.6755 0.30263 4.116 0.27647 0.4066-0.3449 0.80264-0.63699 1.1772-0.85731 0.51414-0.30244 0.99818-0.52442 1.4821-0.74621zm25.121 0.97978c0.51325 1.0693 1.0265 2.1384 2.2526 3.4215 1.2261 1.2831 3.165 2.7803 5.2322 3.7569 2.0673 0.97661 4.2627 1.4324 6.0947 1.5322 1.832 0.0998 3.3007-0.15642 4.0349-0.28473 0.35444-0.0619 0.25964-0.0453 0.3545-0.062 1.0136-0.94724 1.9242-1.8865 2.588-2.6799 0.32084-0.50274 0.63971-1.0317 0.95705-1.5782-0.39919 0.12831-0.79839 0.25653-1.2831 0.30644-0.48474 0.0499-1.0552 0.0216-1.7823 0.0858-0.72711 0.0642-1.6108 0.22086-2.6515 0.19947-1.0408-0.0214-2.2385-0.22069-3.7925-0.56999-1.554-0.3493-3.4644-0.84847-4.9258-1.2263s-2.4737-0.63426-3.5786-1.0976c-1.1049-0.46335-2.3025-1.1334-3.5-1.8035zm-0.10594 11.19c-1.5038 1.1433-3.7418 2.5126-6.5107 3.8246 1.751 0.97521 3.6006 1.7232 5.1454 2.142 1.6735 0.45366 2.9843 0.5343 4.2948 0.61495 1.4114-0.56454 2.8227-1.1293 4.2039-1.8552 1.3811-0.72585 2.7321-1.613 4.083-2.5001-0.84681 0.1613-1.6937 0.32247-2.7926 0.30231-1.0989-0.0202-2.4496-0.2218-3.8509-0.57465-1.3862-0.34903-2.8245-0.85023-4.5728-1.9539zm-54.246 0.95446c0.22914 0.66236 0.46373 1.3061 0.70693 1.9239 0.52908 0.70571 1.1838 1.4601 2.0779 2.2913 0.63084 0.58652 1.408 1.2101 2.2407 1.835-0.1806-0.26783-0.36116-0.53549-0.54415-0.84698-0.3017-0.51353-0.6041-1.1176-0.88005-1.8562-1.1681-0.83244-2.1015-1.6458-2.9223-2.5466-0.23565-0.25863-0.45819-0.52875-0.67903-0.80047zm41.109 5.457c-1.2033 0.38098-2.4332 0.73968-3.7114 1.0366-0.83822 0.19473-1.6918 0.3652-2.5518 0.51935 0.16783 0.143 0.32819 0.29445 0.50384 0.4284 1.4013 1.0686 3.055 1.8346 4.5269 2.3084 1.3753 0.44275 2.5892 0.62607 3.7956 0.79686 2.3299-0.53763 4.431-1.1098 6.3908-1.742-1.7019-0.29374-3.4037-0.59677-5.0958-1.2521-1.3281-0.51434-2.6486-1.2464-3.8582-2.0955zm-31.652 0.95188c0.03526 0.0805 0.06927 0.1683 0.1049 0.24598 0.68954 1.5031 1.4446 2.4687 2.2149 3.312 2.319 0.97529 4.7902 1.6833 7.4321 2.1611 0.14655 0.0265 0.30147 0.0421 0.44907 0.0672-0.795-0.47316-1.5808-0.97217-2.3032-1.6485-0.8169-0.76476-1.5488-1.7522-2.1255-2.9301-2.4374-0.29392-4.2866-0.72018-5.7723-1.2077zm19.317 1.3792c-2.4549 0.19889-4.8501 0.25857-7.0967 0.22582 0.48804 0.68842 1.0013 1.2783 1.5043 1.7766 1.0888 1.0787 2.1173 1.7839 3.0649 2.2779 0.59564 0.31049 1.156 0.52862 1.7079 0.7245 0.76594-0.0167 1.544-0.0468 2.3461-0.10232 1.9147-0.13251 3.9377-0.3867 5.9505-0.70125-1.4112-0.59149-2.8173-1.1919-4.1579-1.9069-1.1694-0.6237-2.2882-1.3387-3.3192-2.2944z" fill="#bd6339" style="-inkscape-stroke:none;font-variation-settings:normal"/></g><path transform="translate(-2.9934 -13.441)" d="m124.89 134.21c-2.2526 0.8269-4.5051 1.6538-6.6865 3.6641-2.1814 2.0103-4.2913 5.2037-5.2323 8.4543-0.94097 3.2506-0.71286 6.5582-0.15684 9.2242 0.55603 2.6661 1.4399 4.6905 2.0815 6.5582 0.64156 1.8677 1.0408 3.5785 1.8641 5.0291 0.82335 1.4506 2.0708 2.641 3.6818 3.3896 1.6111 0.74851 3.5856 1.055 5.5139 1.6004 1.9283 0.54533 3.8102 1.3294 6.1341 1.5077s5.0897-0.24949 7.3067-1.1726c2.217-0.92315 3.885-2.3417 5.0754-3.1487s1.9033-1.0024 3.2791-0.99167c1.3758 0.0107 3.4145 0.22747 5.5602 0.122s4.3982-0.53317 5.5958-0.97514c1.1976-0.44197 1.3401-0.89819 1.2403-1.6609-0.0998-0.76276-0.44195-1.832-1.0657-3.0545-0.62376-1.2226-1.529-2.5983-2.413-3.689-0.88394-1.0907-1.7465-1.8962-2.609-2.7017" fill="none" stroke="#000" stroke-linecap="round" stroke-linejoin="bevel" stroke-width=".8"/><g><path transform="translate(-2.9934 -13.441)" d="m134.58 134.74c0.73664-0.91047 1.9413-2.0169 3.078-2.8221s2.2052-1.3093 2.921-1.2841c0.71576 0.0252 1.0787 0.57966 1.2299 1.8449 0.15121 1.2652 0.0907 3.2411-0.5304 4.9502-0.62112 1.7091-1.8028 3.1512-2.7118 3.8206s-1.5452 0.56582-1.7033-0.0914c-0.1581-0.65723 0.16195-1.868 0.0584-2.6813s-0.6307-1.2288-1.3039-1.3954c-0.67321-0.1666-1.4924-0.0842-1.7678-0.40029-0.27533-0.31607-7e-3 -1.0306 0.7299-1.9411z" fill="#802502" style="-inkscape-stroke:none;font-variation-settings:normal"/><path transform="translate(-2.9934 -13.441)" d="m138.83 139.19c0-0.0285 0-0.0856 0.0748-0.49189 0.0748-0.40633 0.22454-1.1619-0.0463-1.8284-0.27089-0.66652-0.96234-1.2439-1.7073-1.4506-0.74493-0.20672-1.5433-0.0428-1.8676-0.31009-0.32435-0.26733-0.17466-0.9659 0.84117-1.9461s2.8977-2.2419 4.0382-2.8763c1.1406-0.63443 1.5398-0.64157 1.7607-0.0428 0.22098 0.5988 0.26375 1.8035 0.139 2.9833s-0.41701 2.3346-0.81621 3.2648-0.90531 1.636-1.3259 2.053c-0.42058 0.41701-0.75561 0.54533-1.0906 0.67364v-0.0285z" fill="#541300" style="-inkscape-stroke:none;font-variation-settings:normal"/><path transform="translate(-2.9934 -13.441)" d="m131.7 132.55c-0.0784 0.25662-0.23524 0.76987-0.32791 1.3829-0.0927 0.61306-0.12116 1.3259 0.18538 2.0245 0.30653 0.6986 0.94808 1.3829 1.6467 1.6253 0.69859 0.24237 1.4542 0.0428 1.7536-0.40633 0.29939-0.4491 0.14257-1.1477 0.24237-1.718s0.45622-1.0122 1.0265-1.4114c0.57028-0.39919 1.3544-0.75561 2.1457-1.2475s1.5896-1.1192 2.1029-1.3045c0.51325-0.18533 0.74136 0.0713 0.79126 1.0194 0.0499 0.9481-0.0784 2.5876-0.52039 3.7995-0.44197 1.2118-1.1976 1.996-2.2312 2.773s-2.3452 1.5469-2.9726 2.7658c-0.62731 1.219-0.57028 2.887-0.0499 3.7282 0.52038 0.84117 1.5041 0.85543 2.331 0.39921 0.8269-0.45622 1.497-1.3829 2.3381-2.5021 0.84116-1.1192 1.8534-2.4308 2.6233-4.0846 0.76987-1.6538 1.2974-3.6498 1.4827-5.3748 0.18534-1.7251 0.0285-3.1793-0.25663-4.4553-0.28514-1.276-0.69858-2.3738-1.0764-2.8799-0.37781-0.50613-0.71998-0.42058-1.5968 0.0642-0.87682 0.48474-2.2882 1.3686-3.7282 2.1956-1.44 0.82691-2.9084 1.5968-3.885 2.1457-0.9766 0.5489-1.4613 0.8768-1.7037 1.0408-0.24237 0.16396-0.24241 0.16393-0.32082 0.42056z" fill="#fff" style="-inkscape-stroke:none;font-variation-settings:normal"/><path transform="translate(-2.9934 -13.441)" d="m140.13 144.05c0.19155-0.0252 0.57463-0.0756 1.2148-0.37806 0.64017-0.30244 1.5374-0.85689 2.2985-1.5676 0.76114-0.71073 1.3862-1.5777 1.9306-2.4497 0.54438-0.87203 1.0081-1.7491 1.3055-2.2935 0.2974-0.54438 0.42845-0.75608 0.66536-0.87201 0.23691-0.11594 0.57966-0.1361 0.92242-0.15627-0.80649-0.66536-1.613-1.3307-2.2531-1.8449-0.64016-0.51414-1.114-0.87706-1.5878-1.24-0.0605 0.81658-0.12097 1.6332-0.3226 2.5253-0.20163 0.8922-0.54438 1.86-0.99804 2.8378-0.45365 0.97788-1.0182 1.9658-1.5374 2.8026-0.51919 0.83674-0.99299 1.5222-1.2904 1.9406-0.29739 0.41837-0.41836 0.56958-0.47885 0.64519-0.0605 0.0756-0.0605 0.0756 0.13105 0.0504z" fill="#541300" stop-color="#000000" style="-inkscape-stroke:none;font-variation-settings:normal"/></g><g fill="none" stroke="#000" stroke-linecap="round" stroke-linejoin="bevel" stroke-width=".8"><path transform="translate(-2.9934 -13.441)" d="m131.65 132.67c0.17109-0.3992 0.34217-0.79839 1.4257-1.4542 1.0835-0.65583 3.0794-1.5682 4.5419-2.3453 1.4624-0.77705 2.3913-1.4187 3.0814-1.8672 0.69017-0.44859 1.1416-0.70414 1.5469-0.71124 0.40525-7e-3 0.76428 0.23426 1.1862 1.0963s0.9066 2.3447 1.0492 4.0841c0.14257 1.7394-0.057 3.7353-0.54177 5.4604-0.48474 1.7251-1.2546 3.1793-1.9817 4.3198-0.72711 1.1406-1.4114 1.9674-2.0958 2.7944"/><path transform="translate(-2.9934 -13.441)" d="m150.72 161.67c1.1691-1.2831 2.3381-2.5662 3.0082-4.548 0.67009-1.9817 0.84116-4.6619 0.24236-8.0266-0.5988-3.3647-1.9674-7.4135-3.6426-10.161-1.6752-2.7475-3.6567-4.1933-5.6383-5.6392"/><path transform="translate(-2.9934 -13.441)" d="m125.15 151.04c-0.12565 0.76606-0.25131 1.5321-0.24194 2.2006 9e-3 0.66849 0.15376 1.2394 0.17616 1.6463 0.0224 0.40691-0.0772 0.64985-0.17679 0.89279"/><path transform="translate(-2.9934 -13.441)" d="m131.17 169.66c0.12182-0.0303 0.24364-0.0606 0.45549 0.0983 0.21185 0.15889 0.51373 0.50696 1.002 0.7758 0.48831 0.26885 1.163 0.45845 1.8377 0.64805"/></g><g><path transform="translate(-2.8724 -13.199)" d="m120.02 166.73c0.36977 0.54692 1.0256 1.0388 1.5103 1.2099 0.48474 0.17108 0.79839 0.0214 1.0265-0.46336 0.22811-0.48474 0.37068-1.3045 0.38494-1.8142 0.0142-0.50968-0.0998-0.70928-0.57742-0.84115-0.47762-0.13188-1.3187-0.19602-1.8552-0.12652s-0.72796 0.23745-0.81996 0.67236c-0.092 0.4349-0.039 0.81607 0.33078 1.363z" stroke="#000" stroke-linecap="round" stroke-linejoin="bevel" stroke-width=".8"/><path transform="translate(-2.9934 -13.441)" d="m80.342 152.27c0.45869-0.58471 1.0232-1.2097 1.6533-1.4265s1.3257-0.0252 2.0364 0.56455c0.71073 0.58976 1.4366 1.5777 2.3237 1.9204 0.88715 0.34276 1.9356 0.0403 3.0697-1.361 1.1341-1.4013 2.3539-3.9014 2.7471-6.5276 0.39316-2.6262-0.04032-5.3783 0.13107-7.45 0.17139-2.0717 0.94762-3.4629 1.5475-4.1131 0.59983-0.65023 1.0232-0.5595 2.3993 0.13107 1.3761 0.69058 3.7048 1.9809 5.2926 2.984 1.5878 1.0031 2.4346 1.7188 3.0395 2.9135 0.60487 1.1946 0.96779 2.8681 1.0182 4.3198s-0.2117 2.6816-0.8569 4.1434c-0.64521 1.4618-1.6735 3.1554-2.3892 4.4357s-1.119 2.1473-1.3509 3.1957c-0.23186 1.0484-0.29235 2.2783-0.12096 3.6091 0.17138 1.3307 0.57462 2.7622 0.75608 3.6998 0.18146 0.93756 0.14113 1.3811-0.0706 1.7037-0.21171 0.3226-0.59479 0.52422-1.8449 0.98796-1.2501 0.46374-3.3671 1.1896-5.3733 1.6735-2.0062 0.4839-3.9014 0.72584-5.837 0.68552-1.9356-0.0403-3.9115-0.36292-5.5547-0.91739-1.6432-0.55447-2.9538-1.3408-3.9417-2.3792s-1.6533-2.3287-1.8852-3.7704c-0.23186-1.4416-0.03024-3.0344 0.38309-4.2845 0.41334-1.2501 1.0384-2.1574 1.5273-2.8832s0.84177-1.2702 1.3005-1.8549z" fill="#370000" style="-inkscape-stroke:none;font-variation-settings:normal"/><path transform="translate(-2.9934 -13.441)" d="m82.995 158.23c2.5886-0.49351 6.1037 0.15714 9.1464-3.2841 3.0427-3.4413 5.6129-10.974 7.8999-13.885 2.2871-2.9108 4.291-1.1993 5.0913 0.75027 0.80032 1.9496 0.39708 4.1372-0.3187 6.0778-0.71577 1.9406-1.744 3.6342-2.4598 4.9146s-1.119 2.1473-1.3509 3.1957c-0.23186 1.0484-0.29235 2.2783-0.12096 3.6091 0.17138 1.3307 0.57462 2.7622 0.75608 3.6998 0.18146 0.93756 0.14113 1.3811-0.0706 1.7037-0.21171 0.3226-0.59479 0.52422-1.8449 0.98796-1.2501 0.46374-3.3671 1.1896-5.3733 1.6735-2.0062 0.4839-3.9014 0.72584-5.837 0.68552-1.9356-0.0403-3.9115-0.36292-5.5547-0.91739-1.6432-0.55447-2.9538-1.3408-3.8776-2.2865-0.9238-0.9457-1.4608-2.0507-0.89839-3.4221s2.2244-3.009 4.8129-3.5026z" fill="#260000" style="-inkscape-stroke:none;font-variation-settings:normal"/></g><path transform="translate(-2.9934 -13.441)" d="m95.146 133.31c0.86698 0.60487 1.734 1.2097 3.1554 1.9457 1.4215 0.73594 3.3973 1.6029 4.6978 2.49 1.3005 0.88715 1.9255 1.7944 2.3086 3.357 0.38309 1.5626 0.52422 3.7804 0.17137 5.5547s-1.1996 3.105-2.2884 4.718c-1.0888 1.613-2.4195 3.5082-2.6699 5.4524-0.25043 1.9442 0.57935 3.9372 0.94696 5.6385 0.36762 1.7013 0.27302 3.1107 0.5475 4.3122s0.918 2.1949 2.312 2.6113 3.5383 0.2557 5.245-0.26773c1.7067-0.52343 2.9757-1.4095 3.7999-2.3704 0.82426-0.96086 1.2038-1.9964 1.3517-2.8767 0.14795-0.88028 0.0644-1.6052-0.0192-2.3302" fill="none" stroke="#000" stroke-linecap="round" stroke-linejoin="bevel" stroke-width=".8"/><path transform="translate(-2.9934 -13.441)" d="m62.725 153.82c1.2299-1.5727 2.4598-3.1453 3.9668-5.0305s3.291-4.0828 4.904-5.9176c1.613-1.8348 3.0549-3.3066 4.9251-4.8087s4.1687-3.0344 6.8301-4.6575c2.6615-1.6231 5.6857-3.3368 8.7101-5.0506-2.8429 1.2501-5.6858 2.5001-8.2867 3.9317-2.601 1.4315-4.9599 3.0445-7.077 4.6676-2.1171 1.6231-3.9921 3.2562-5.4337 4.7079-1.4416 1.4517-2.4497 2.7219-3.478 4.0426-1.0283 1.3206-2.0767 2.6917-2.9235 4.0526-0.84682 1.361-1.492 2.7118-2.1372 4.0627z" fill="#ffc499" style="font-variation-settings:normal"/><path transform="translate(-2.9934 -13.441)" d="m101.79 165.27c-0.95521 0.51325-1.9104 1.0265-3.7567 1.6467-1.8463 0.62018-4.5836 1.3473-7.6989 1.5422-3.1153 0.19491-6.6085-0.14235-9.0324-1.3271s-3.7782-3.2169-4.236-5.2117c-0.45774-1.9948-0.01881-3.9519 0.66835-5.5395 0.68716-1.5876 1.6225-2.8055 2.5579-4.0235" fill="none" stroke="#000" stroke-linecap="round" stroke-linejoin="bevel" stroke-width=".8"/><path transform="translate(-2.9934 -13.441)" d="m127.49 154.57c0.10105 0.19228 0.30316 0.57682 0.96376 0.53508 0.66059-0.0417 1.7796-0.50975 2.3677-1.0147s0.64509-1.0466 0.16395-1.6716c-0.48114-0.62497-1.5004-1.3331-2.2021-1.5535-0.70176-0.22041-0.99135-0.0188-1.215 0.81195-0.22364 0.83081-0.21013 1.4012-0.19476 2.0508 0.0154 0.64964 0.0154 0.64964 0.11643 0.84191z" fill="#fff" style="-inkscape-stroke:none;font-variation-settings:normal"/><path transform="translate(-2.9934 -13.441)" d="m133.4 168.49c0.45365 0.39317 1.24 0.75609 1.8045 0.84682 0.56455 0.0907 0.9073-0.0907 1.0787-0.65528 0.17138-0.56455 0.17138-1.5122 0-2.0565-0.17138-0.54439-0.51413-0.68552-1.1392-0.51414-0.62504 0.17138-1.5323 0.65527-1.9255 1.1089-0.39317 0.45364-0.27219 0.87706 0.18146 1.2702z" fill="#fff" style="-inkscape-stroke:none;font-variation-settings:normal"/><g fill="#d6d7eb" stroke="#000" stroke-linecap="round"><path transform="matrix(-.41062 .9118 .9118 .41062 3.4822 -17.85)" d="m112.08 166.59c-0.11594 0.17139-0.1865 0.46877-0.17138 0.69056 0.0151 0.22179 0.11593 0.36796 0.27219 0.56454 0.15626 0.19659 0.36796 0.44357 0.72837 0.73341s0.86949 0.62251 1.3786 0.95519c-0.15122-0.373-0.30243-0.74601-0.4839-1.2047-0.18146-0.4587-0.39316-1.0031-0.61242-1.3509-0.21927-0.3478-0.44609-0.49901-0.64016-0.55194-0.19407-0.0529-0.35535-8e-3 -0.47129 0.16382z" stop-color="#000000" stroke-width=".8" style="-inkscape-stroke:none;font-variation-settings:normal"/><path transform="matrix(.89819 -.095169 .094839 .90131 -9.7082 15.233)" d="m112.08 166.59c-0.11594 0.17139-0.1865 0.46877-0.17138 0.69056 0.0151 0.22179 0.11593 0.36796 0.27219 0.56454 0.15626 0.19659 0.36796 0.44357 0.72837 0.73341s0.86949 0.62251 1.3786 0.95519c-0.15122-0.373-0.30243-0.74601-0.4839-1.2047-0.18146-0.4587-0.39316-1.0031-0.61242-1.3509-0.21927-0.3478-0.44609-0.49901-0.64016-0.55194-0.19407-0.0529-0.35535-8e-3 -0.47129 0.16382z" stop-color="#000000" stroke-width=".88423" style="-inkscape-stroke:none;font-variation-settings:normal"/><path transform="matrix(.76981 -.082052 .081284 .77708 4.2256 35.249)" d="m112.08 166.59c-0.11594 0.17139-0.1865 0.46877-0.17138 0.69056 0.0151 0.22179 0.11593 0.36796 0.27219 0.56454 0.15626 0.19659 0.36796 0.44357 0.72837 0.73341s0.86949 0.62251 1.3786 0.95519c-0.15122-0.373-0.30243-0.74601-0.4839-1.2047-0.18146-0.4587-0.39316-1.0031-0.61242-1.3509-0.21927-0.3478-0.44609-0.49901-0.64016-0.55194-0.19407-0.0529-0.35535-8e-3 -0.47129 0.16382z" stop-color="#000000" stroke-width="1.0286" style="-inkscape-stroke:none;font-variation-settings:normal"/><path transform="matrix(.77413 .0072797 -.0088826 .78127 16.447 24.394)" d="m112.08 166.59c-0.11594 0.17139-0.1865 0.46877-0.17138 0.69056 0.0151 0.22179 0.11593 0.36796 0.27219 0.56454 0.15626 0.19659 0.36796 0.44357 0.72837 0.73341s0.86949 0.62251 1.3786 0.95519c-0.15122-0.373-0.30243-0.74601-0.4839-1.2047-0.18146-0.4587-0.39316-1.0031-0.61242-1.3509-0.21927-0.3478-0.44609-0.49901-0.64016-0.55194-0.19407-0.0529-0.35535-8e-3 -0.47129 0.16382z" stop-color="#000000" stroke-width="1.0286" style="-inkscape-stroke:none;font-variation-settings:normal"/></g><path transform="translate(-6.8287 -11.29)" d="m119.91 192.47c-0.50281-0.037-1.5084-0.11108-2.5569 1e-5s-2.1398 0.40731-2.1086 0.70353c0.0312 0.29623 1.1849 0.59245 2.3074 0.74836 1.1225 0.15591 2.2139 0.17151 3.391-8e-3 1.1771-0.17929 2.4399-0.55346 2.9466-1.2317s0.25725-1.6604-0.25725-1.9254-1.294 0.18708-1.5805 0.5866-0.0799 0.74639-0.27091 0.93153c-0.19099 0.18514-0.77951 0.2085-1.0738 0.22019-0.29427 0.0117-0.29427 0.0117-0.79707-0.0253z" fill="#720011" style="-inkscape-stroke:none;font-variation-settings:normal"/><path transform="translate(-2.9934 -13.441)" d="m128.39 185.45 1.3447-0.8302s-3.1513-6e-3 -3.1513-6e-3l-1.6078 0.57881z" fill="#40000f" style="-inkscape-stroke:none;font-variation-settings:normal"/><path transform="translate(-2.9934 -13.441)" d="m137.82 128.76c-2.3413-0.54695-4.6825-1.0939-8.9185-2.5222-4.236-1.4283-10.366-3.7378-20.331-2.4412-9.9652 1.2967-23.764 6.1994-33.366 14.054-9.6017 7.8543-15.005 18.659-15.752 28.016-0.74661 9.3563 3.1635 17.263 9.6372 22.162 6.4737 4.8989 15.51 6.7896 25.15 6.1623 9.6397-0.62734 19.882-3.7726 27.444-7.28 7.5619-3.5074 12.443-7.3767 15.083-9.896s3.0394-3.6883 3.4386-4.8574" fill="none" stroke="#000" stroke-linecap="round" stroke-linejoin="bevel" stroke-width=".8"/><path transform="matrix(.76933 .086386 -.08871 .77627 28.448 15.686)" d="m112.08 166.59c-0.11594 0.17139-0.1865 0.46877-0.17138 0.69056 0.0151 0.22179 0.11593 0.36796 0.27219 0.56454 0.15626 0.19659 0.36796 0.44357 0.72837 0.73341s0.86949 0.62251 1.3786 0.95519c-0.15122-0.373-0.30243-0.74601-0.4839-1.2047-0.18146-0.4587-0.39316-1.0031-0.61242-1.3509-0.21927-0.3478-0.44609-0.49901-0.64016-0.55194-0.19407-0.0529-0.35535-8e-3 -0.47129 0.16382z" fill="#d6d7eb" stroke="#000" stroke-linecap="round" stroke-width="1.0286" style="font-variation-settings:normal"/><path transform="translate(-2.9934 -13.441)" d="m31.136 227.89c0.01511-0.0403 0.04537-0.121 0.20416-0.16384 0.15879-0.0428 0.44607-0.0479 0.69055 0.18905 0.24447 0.23691 0.44609 0.71575 0.683 0.96778 0.23691 0.25203 0.5091 0.27723 0.68552 0.52926 0.17642 0.25203 0.25707 0.73088 0.33772 1.5298s0.1613 1.9179 0.19406 2.7068c0.03276 0.78885 0.01764 1.2475-0.09578 1.056-0.11342-0.19155-0.32512-1.0333-0.51918-1.8448-0.19406-0.81154-0.37048-1.5928-0.67292-2.2632-0.30244-0.67041-0.73088-1.2299-1.0056-1.6558-0.27471-0.42593-0.39568-0.71827-0.45617-0.86445-0.06049-0.14618-0.06049-0.14619-0.04537-0.18649z" fill="#3d1800" style="-inkscape-stroke:none;font-variation-settings:normal"/><g fill="none" stroke="#000" stroke-linecap="round" stroke-width=".8"><path transform="translate(-2.9934 -13.441)" d="m174.76 95.721c-1.8249 2.4522-3.6498 4.9044-5.3178 7.0287s-3.1793 3.9206-4.605 5.8453c-1.4257 1.9247-2.7658 3.9777-4.1202 5.4461s-2.7231 2.3524-3.8636 3.2791-2.053 1.8962-3.2078 3.0367c-1.1548 1.1406-2.552 2.4522-3.721 3.8636s-2.11 2.9226-2.9654 4.3769c-0.85543 1.4542-1.6253 2.8514-2.3952 4.2486" style="font-variation-settings:normal"/><path transform="translate(-2.9934 -13.441)" d="m167.51 115.55c-1.0469 0.36064-2.0938 0.72126-3.2608 1.1357-1.167 0.41449-2.4539 0.8828-3.654 1.2461-1.2 0.36335-2.313 0.62169-3.2236 0.78672-0.91053 0.16504-1.6185 0.23674-2.3264 0.30845" style="font-variation-settings:normal"/><path transform="translate(-2.9934 -13.441)" d="m151.32 110.22c-0.39042 1.0916-0.78084 2.1831-1.1227 3.424-0.3419 1.2409-0.63526 2.631-0.77798 3.8826s-0.13478 2.3646-0.16386 3.1982c-0.0291 0.83353-0.0952 1.3875-0.10654 2.0637-0.0114 0.67621 0.032 1.4746 0.0754 2.273" style="font-variation-settings:normal"/><path transform="translate(-2.9934 -13.441)" d="m168.05 129.72c-0.98373 0.28514-1.9675 0.57027-3.2577 0.9766-1.2903 0.40633-2.887 0.93382-4.0276 1.3116s-1.8249 0.60592-2.2954 1.0336c-0.47048 0.42772-0.7271 1.055-1.0122 1.5683-0.28514 0.51325-0.59878 0.91244-1.055 1.1263-0.45623 0.21385-1.055 0.24235-1.9603 0.29937-0.90533 0.057-2.1171 0.14257-3.1294 0.22811-1.0122 0.0855-1.8249 0.17108-2.6375 0.25662" style="font-variation-settings:normal"/><path transform="translate(-2.9934 -13.441)" d="m153.74 137.96c-0.10692-0.057-0.32078-0.17108-0.42057-0.37781-0.0998-0.20673-0.0855-0.50612 0.14259-0.9766 0.22812-0.47049 0.67007-1.112 0.93383-1.6395 0.26375-0.52751 0.3493-0.94096 0.55602-1.2261 0.20673-0.28514 0.53464-0.44196 1.2118-0.45622 0.67721-0.0143 1.7037 0.11406 2.5092 0.32078 0.80552 0.20673 1.39 0.49187 1.6894 0.85542 0.2994 0.36356 0.31366 0.80551 0.0356 1.5255-0.27801 0.71998-0.84827 1.718-1.2403 2.3666s-0.60592 0.94808-0.99799 1.0978c-0.39207 0.14969-0.96234 0.14969-1.7108-0.11407-0.7485-0.26375-1.6752-0.79125-2.1385-1.055s-0.46341-0.26375-0.57034-0.32078z" style="font-variation-settings:normal"/><path transform="translate(-2.9934 -13.441)" d="m136.31 116.56c-0.30652 0.76631-0.61304 1.5326-0.84116 2.4754-0.22811 0.94276-0.37781 2.0619-0.43127 3.2488-0.0535 1.1869-0.0107 2.4415 0.0641 3.4217 0.0748 0.98017 0.18176 1.6859 0.28867 2.3916" style="font-variation-settings:normal"/><path transform="translate(-2.9934 -13.441)" d="m166.25 145.57c-1.112 0.59166-2.224 1.1833-3.4217 1.6645-1.1976 0.48118-2.4807 0.85184-3.7353 1.1691-1.2546 0.31723-2.4807 0.58096-3.2791 0.73423-0.79841 0.15326-1.1691 0.19604-1.5398 0.23881" style="font-variation-settings:normal"/><path transform="translate(-2.9934 -13.441)" d="m155.3 170.06c-1.2261-0.12831-2.4522-0.25663-4.049-0.35643-1.5968-0.0998-3.5642-0.17108-4.7399-0.21758-1.1757-0.0465-1.5596-0.0683-1.9435-0.09" style="font-variation-settings:normal"/><path transform="translate(-2.9934 -13.441)" d="m141.23 183.66c-1.4546 0.19199-2.9092 0.38397-4.4913 0.47385-1.5821 0.0899-3.2916 0.0776-5.0022 0.10118-1.7106 0.0235-3.4223 0.0828-5.134 0.14213" style="font-variation-settings:normal"/><path transform="translate(-2.9934 -13.441)" d="m120.16 196.33c-2.1859-0.11862-4.3717-0.23723-6.3415-0.42485-1.9698-0.18763-3.7233-0.44424-5.3058-0.73651-1.5825-0.29228-2.9939-0.62018-4.548-0.86968s-3.2506-0.42058-4.9471-0.59166" style="font-variation-settings:normal"/><path transform="translate(-2.9934 -13.441)" d="m95.872 202.33c-0.0605-0.0706-0.12097-0.14114-1.3706-0.27199s-3.6881-0.32196-6.3287-0.58366c-2.6406-0.26169-5.483-0.59394-8.3339-1.1824s-5.71-1.4329-8.5394-2.2434c-2.8294-0.81048-5.6288-1.5868-7.8235-2.1581-2.1947-0.57124-3.7846-0.93732-5.3745-1.3034" style="font-variation-settings:normal"/><path transform="translate(-2.9934 -13.441)" d="m58.854 204.87c-1.9356-0.66536-3.8712-1.3307-5.1187-1.7642-1.2476-0.43349-1.807-0.6351-2.3514-0.84177-0.5444-0.20667-1.0736-0.41837-1.6029-0.63007" style="font-variation-settings:normal"/><path transform="translate(-2.9934 -13.441)" d="m53.228 195.53c-0.08554-0.71284-0.17108-1.4257-0.15326-2.5306 0.01782-1.1049 0.13901-2.6019 0.12118-3.721-0.01782-1.1192-0.17465-1.8605-0.3386-3.0724-0.16396-1.2119-0.33504-2.8941-0.40276-4.1523s-0.03208-2.0922 0.03208-2.8799c0.06416-0.78771 0.15682-1.529 0.27801-2.3239 0.12119-0.79484 0.27088-1.6431 0.42058-2.4914" style="font-variation-settings:normal"/><path transform="translate(-2.9934 -13.441)" d="m62.604 188.3c0-0.10081 0-0.20162-0.04032-0.94764-0.04033-0.74602-0.12097-2.1372-0.29235-3.5385-0.17138-1.4013-0.43349-2.8126-0.59983-3.7628-0.16634-0.95015-0.23691-1.4391-0.30748-1.928" style="font-variation-settings:normal"/><path transform="translate(-2.9934 -13.441)" d="m122.94 121.32c-0.0143 0.0428-0.0285 0.0855-0.23526 0.35284-0.20674 0.26734-0.60592 0.75919-0.88393 1.194-0.27802 0.43484-0.43484 0.81264-0.59167 1.1904" style="font-variation-settings:normal"/></g><g><path d="m130.64 153.41c-0.16138 0.11797-0.3021 0.24009-0.40618 0.36018-0.39317 0.45364-0.27227 0.87704 0.18138 1.2702 0.45365 0.39316 1.24 0.75624 1.8045 0.84697 0.56455 0.0907 0.90763-0.0907 1.079-0.65525 0.0891-0.29356 0.13172-0.69092 0.12816-1.0811-1.0367-0.0901-1.9611-0.38483-2.7869-0.74104z" fill="#d6d7eb" style="font-variation-settings:normal"/><path transform="translate(-2.9934 -13.441)" d="m134.12 133.35c-0.34101 0.45074-0.68202 0.90147-0.84426 1.6807-0.16225 0.77926-0.14571 1.887 0.24037 2.341s1.1417 0.25447 1.4411-0.19463 0.14257-1.1477 0.24237-1.718 0.45622-1.0122 1.0265-1.4114c0.57028-0.39919 1.3544-0.75561 2.1457-1.2475s1.5896-1.1192 2.1029-1.3045c0.51325-0.18533 0.74136 0.0713 0.79126 1.0194 0.0499 0.9481-0.0784 2.5876-0.52039 3.7995-0.44197 1.2118-1.1976 1.996-2.2312 2.773s-2.3452 1.5469-2.9171 2.4281c-0.57185 0.88126-0.40394 1.8738 0.12149 2.2765s1.4083 0.21529 2.1243-0.2611 1.2651-1.2418 1.9903-2.2803 1.6266-2.3501 2.2402-3.8931 0.93949-3.317 0.96858-4.5835c0.0291-1.2664-0.23863-2.025-0.61955-2.4542-0.38093-0.42919-0.86161-0.52623-1.4723-0.4368-0.61071 0.0894-1.2402 0.33744-1.8362 0.61146-0.59604 0.27401-1.0463 0.52974-1.5844 0.81653-0.53809 0.28679-1.1639 0.6046-1.7898 0.92243z" fill="#e7baa5" style="-inkscape-stroke:none;font-variation-settings:normal"/><path transform="translate(-2.9934 -13.441)" d="m149.12 162.97c-0.17109 0.14614-0.51325 0.4384-0.45266 0.75919 0.0606 0.32078 0.52394 0.67006 1.2012 0.57739 0.67721-0.0927 1.5682-0.6273 2.1991-0.82689 0.63087-0.1996 1.0015-0.0642 1.3473 0.16752 0.34573 0.23167 0.66651 0.55958 0.75562 0.80551 0.0891 0.24593-0.0535 0.40988-0.55247 0.57384-0.499 0.16396-1.3544 0.32791-2.4237 0.39563-1.0693 0.0677-2.3524 0.0392-3.247 0.0571-0.89463 0.0178-1.4007 0.082-1.7322 0.34574-0.33148 0.26376-0.4883 0.7271-0.26019 0.98016s0.84115 0.29584 1.6431 0.23169c0.80196-0.0641 1.7928-0.23522 3.0403-0.44908 1.2475-0.21385 2.7516-0.47047 3.6961-0.71997s1.3295-0.49186 1.3829-0.84116c0.0535-0.3493-0.22454-0.80554-0.57026-1.2154s-0.75916-0.77343-1.1726-0.97303c-0.41346-0.1996-0.8269-0.23525-1.301-0.21386-0.47405 0.0214-1.0087 0.0998-1.4239 0.13544-0.41523 0.0356-0.71107 0.0285-1.0176 0.0321-0.30652 4e-3 -0.62375 0.0178-0.78236 0.025-0.15862 7e-3 -0.15862 7e-3 -0.3297 0.15321z" fill="#b7ada8" stop-color="#000000" style="-inkscape-stroke:none;font-variation-settings:normal"/></g><g fill="#a00a18"><path transform="translate(-2.9934 -13.441)" d="m138.09 122.81c0.038-0.24697 0.1141-0.74093 0.6317-1.4068 0.51761-0.6659 1.4767-1.5037 2.1933-1.6636 0.71659-0.15985 1.1906 0.35828 1.0371 1.3402-0.15351 0.98189-0.93452 2.4274-1.544 3.2528s-1.0475 1.0304-1.4155 0.99892c-0.36798-0.0315-0.66599-0.29938-0.81109-0.71787s-0.1373-0.98756-0.1334-1.2721c4e-3 -0.28453 4e-3 -0.28453 0.0419-0.53151z" stop-color="#000000" style="-inkscape-stroke:none;font-variation-settings:normal"/><path transform="translate(-2.9934 -13.441)" d="m143.67 119.22c-0.46853 0.13229-0.83233-0.011-0.93706-0.33074-0.10473-0.31971 0.0496-0.81579 0.51814-0.94808s1.2513 0.0992 1.356 0.41893c0.10473 0.31971-0.46853 0.7276-0.93706 0.85989z" stop-color="#000000" style="-inkscape-stroke:none;font-variation-settings:normal"/><path transform="translate(-2.9934 -11.991)" d="m63.272 200.99c-0.94223 0.19867-1.821 0.24766-2.2223-0.0479-0.40136-0.29551-0.3253-0.93549 0.4234-1.3827s2.1699-0.70151 3.0741-0.58018c0.90421 0.12134 1.2913 0.61833 0.98198 1.041-0.30931 0.42268-1.315 0.77102-2.2572 0.96969z" stop-color="#000000" style="-inkscape-stroke:none;font-variation-settings:normal"/><path transform="matrix(1.4113 0 0 1.4113 -26.739 -88.494)" d="m57.165 182.32c-0.20134 0.29717-0.37294 0.61499-0.27132 0.81249 0.10162 0.19749 0.47643 0.27466 0.88163-0.0406 0.40519-0.31527 0.84073-1.0229 0.85466-1.3587 0.01393-0.33575-0.39375-0.29957-0.71314-0.14322-0.31938 0.15635-0.55048 0.43287-0.75182 0.73004z" stop-color="#000000" style="-inkscape-stroke:none;font-variation-settings:normal"/><path transform="matrix(.42259 .81378 -.81378 .42259 177.34 50.878)" d="m56.954 182.14c-0.20082 0.16995-0.26697 0.64399-0.17639 1.0067 0.09058 0.36275 0.33788 0.61419 0.53871 0.44424 0.20083-0.16995 0.35516-0.76127 0.26458-1.124-0.09058-0.36275-0.42608-0.4969-0.6269-0.32696z" stop-color="#000000" style="-inkscape-stroke:none;font-variation-settings:normal"/><path transform="matrix(-.6933 -.023277 .023277 -.6933 88.289 303.68)" d="m57.116 181.99c-0.36313 0.32079-0.42928 0.79483-0.27461 1.0034 0.15467 0.20859 0.53011 0.15174 0.89325-0.16905 0.36314-0.32079 0.71393-0.90549 0.55926-1.1141-0.15466-0.20859-0.81477-0.0411-1.1779 0.27971z" stop-color="#000000" style="-inkscape-stroke:none;font-variation-settings:normal"/><path transform="matrix(1.4113 0 0 1.4113 76.831 -142.58)" d="m57.018 182.1c-0.26458 0.20395-0.33073 0.67799-0.17638 0.9536s0.52916 0.35278 0.79374 0.14883c0.26458-0.20396 0.41892-0.68902 0.26458-0.96463-0.15434-0.27561-0.61736-0.34175-0.88194-0.1378z" stop-color="#000000" style="-inkscape-stroke:none;font-variation-settings:normal"/></g></svg>
