<?xml version="1.0" encoding="UTF-8" standalone="no"?>
<!-- Created with Inkscape (http://www.inkscape.org/) -->
<svg width="256" height="256" viewBox="0 0 67.733331 67.733331" version="1.1" id="svg978" xmlns="http://www.w3.org/2000/svg" xmlns:svg="http://www.w3.org/2000/svg">
  <defs id="defs975"/>
  <g id="layer1">
    <g aria-label="kijetesantakalu" id="text2647" style="font-size:273.277px;line-height:1.25;stroke-width:6.8319">
      <path d="m 13.386422,61.392699 h 22.999205 l -3.723682,-12.850348 -3.431627,0.949172 2.336429,8.323523 H 21.563917 V 39.926774 c 0,-14.383629 5.914079,-27.818085 21.611951,-29.789445 l 1.31424,5.110934 13.653497,10.952002 -7.812429,5.183948 v 29.716432 h 3.577653 V 33.355573 L 64.276726,26.492318 47.702697,13.20389 45.950375,6.3406344 h -1.387254 c -0.292051,0 -6.790242,0.073007 -13.361443,4.3077876 -9.418721,6.060108 -12.996375,16.793069 -13.215415,27.45302 h -2.774508 c -7.5203732,0 -11.755148,5.402985 -11.755148,12.412269 0,6.5712 3.3586147,10.878988 9.929815,10.878988 z M 45.585308,61.100645 V 45.986882 H 42.007655 V 61.100645 Z M 14.62765,41.752108 c 0.21904,0 0.43808,0 0.584105,0 h 2.774508 V 57.815046 H 14.62765 Z m -3.650668,0.949175 V 57.449977 C 7.8374074,56.427793 7.0342617,53.653284 7.0342617,50.513711 c 0,-3.212588 1.0952001,-6.206137 3.9427203,-7.812428 z M 42.153681,23.717811 c 0,1.971361 1.53328,3.50464 3.50464,3.50464 1.898347,0 3.431628,-1.533279 3.431628,-3.50464 0,-1.898346 -1.533281,-3.431628 -3.431628,-3.431628 -1.97136,0 -3.50464,1.533282 -3.50464,3.431628 z m -9.710776,0 c 0,1.971361 1.606295,3.50464 3.504642,3.50464 1.898346,0 3.431628,-1.533279 3.431628,-3.50464 0,-1.898346 -1.533282,-3.431628 -3.431628,-3.431628 -1.898347,0 -3.504642,1.533282 -3.504642,3.431628 z" style="font-family:'linja pona 4.2';-inkscape-font-specification:'linja pona 4.2, ';stroke-width:1.82532" id="path4115"/>
    </g>
  </g>
</svg>