<svg width="262" height="343" viewBox="0 0 262 343" fill="none" xmlns="http://www.w3.org/2000/svg">
<rect width="262" height="343" fill="#1E1E1E"/>
<rect x="261" y="1.76619" width="340" height="260" transform="rotate(90 261 1.76619)" fill="#1E1E1E"/>
<rect x="261" y="1.76619" width="340" height="260" transform="rotate(90 261 1.76619)" stroke="#1E1E1E" stroke-width="2"/>
<path d="M111 241.766C105.477 241.766 101 246.243 101 251.766V261.766H81V281.766H101V291.766C101 297.289 105.477 301.766 111 301.766H121V281.766H131C136.523 281.766 141 277.289 141 271.766V261.766H151C156.523 261.766 161 257.289 161 251.766V231.766C161 226.243 156.523 221.766 151 221.766H131C125.477 221.766 121 226.243 121 231.766V241.766H111Z" fill="#D9D9D9"/>
<path d="M101 261.766V251.766C101 246.243 105.477 241.766 111 241.766H121M101 261.766H81V281.766H101M101 261.766V281.766M101 281.766V291.766C101 297.289 105.477 301.766 111 301.766H121V281.766M121 281.766H131C136.523 281.766 141 277.289 141 271.766V261.766M121 281.766V241.766M141 261.766H151C156.523 261.766 161 257.289 161 251.766V231.766C161 226.243 156.523 221.766 151 221.766H131C125.477 221.766 121 226.243 121 231.766V241.766M141 261.766V241.766" stroke="#1E1E1E" stroke-width="2"/>
<path d="M111 21.7662H151C156.523 21.7662 161 26.2433 161 31.7662V71.7662C161 77.289 156.523 81.7662 151 81.7662H111C105.477 81.7662 101 77.289 101 71.7662V31.7662C101 26.2433 105.477 21.7662 111 21.7662Z" fill="#D9D9D9" stroke="#1E1E1E" stroke-width="2"/>
<path d="M81 41.7662V61.7662H101V41.7662H81Z" fill="#D9D9D9"/>
<path d="M136 41.7662H121V96.7662L131 101.766L141 96.7662V46.7662V41.7662H136Z" fill="#D9D9D9"/>
<path d="M121 21.7662V11.7662C121 6.24334 125.477 1.76619 131 1.76619H171C176.523 1.76619 181 6.24334 181 11.7662V51.7662C181 57.289 176.523 61.7662 171 61.7662H161V31.7662C161 26.2433 156.523 21.7662 151 21.7662H121Z" fill="#D9D9D9"/>
<path d="M81 41.7662V61.7662H101V41.7662H81Z" stroke="#1E1E1E" stroke-width="2"/>
<path d="M136 41.7662H121V96.7662L131 101.766L141 96.7662V46.7662V41.7662H136Z" stroke="#1E1E1E" stroke-width="2"/>
<path d="M121 21.7662V11.7662C121 6.24334 125.477 1.76619 131 1.76619H171C176.523 1.76619 181 6.24334 181 11.7662V51.7662C181 57.289 176.523 61.7662 171 61.7662H161V31.7662C161 26.2433 156.523 21.7662 151 21.7662H121Z" stroke="#1E1E1E" stroke-width="2"/>
<rect width="18" height="18" transform="matrix(0 -1 -1 0 98 60.7662)" fill="#D9D9D9"/>
<path d="M41 141.766V151.766C41 157.289 45.4772 161.766 51 161.766H71C76.5228 161.766 81 157.289 81 151.766V141.766H121V121.766H81V111.766C81 106.243 76.5228 101.766 71 101.766H61V61.7662H41V101.766H31C25.4772 101.766 21 106.243 21 111.766V131.766C21 137.289 25.4772 141.766 31 141.766H41Z" fill="#D9D9D9"/>
<path d="M41 141.766V151.766C41 157.289 45.4772 161.766 51 161.766H71C76.5228 161.766 81 157.289 81 151.766V141.766M41 141.766H31C25.4772 141.766 21 137.289 21 131.766V111.766C21 106.243 25.4772 101.766 31 101.766H41M41 141.766H61V121.766M81 141.766H121V121.766H81M81 141.766V121.766M81 121.766V111.766C81 106.243 76.5228 101.766 71 101.766H61M61 101.766V61.7662H41V101.766M61 101.766V121.766M41 101.766V121.766H61" stroke="#1E1E1E" stroke-width="2"/>
<rect width="40" height="20" transform="matrix(0 1 1 0 81 101.766)" fill="#D9D9D9" stroke="#1E1E1E" stroke-width="2"/>
<rect width="18" height="18" transform="matrix(0 1 1 0 42 60.7662)" fill="#D9D9D9"/>
<rect width="18" height="18" transform="matrix(0 1 1 0 104 122.766)" fill="#D9D9D9"/>
<path d="M31 301.766C25.4772 301.766 21 297.289 21 291.766V281.766V246.766C21 244.005 23.2386 241.766 26 241.766H41V261.766V281.766V301.766H31Z" fill="#D9D9D9"/>
<path fill-rule="evenodd" clip-rule="evenodd" d="M41 301.766V311.766C41 317.289 45.4772 321.766 51 321.766H91C96.5228 321.766 101 317.289 101 311.766V281.766V261.766V231.766C101 226.243 96.5228 221.766 91 221.766H61H41H11C5.47715 221.766 1 226.243 1 231.766V271.766C1 277.289 5.47715 281.766 11 281.766H21V246.766C21 244.005 23.2386 241.766 26 241.766H41V261.766V281.766V301.766ZM81.5 261.766L81.1219 246.641C81.0541 243.929 78.8362 241.766 76.1234 241.766H61V261.766V281.766V301.766H76.5C79.2614 301.766 81.5 299.528 81.5 296.766V281.766V261.766Z" fill="#D9D9D9"/>
<path d="M76.1234 241.766C78.8362 241.766 81.0541 243.929 81.1219 246.641L81.5 261.766V281.766V296.766C81.5 299.528 79.2614 301.766 76.5 301.766H61V281.766V261.766V241.766H76.1234Z" fill="#D9D9D9"/>
<path d="M21 281.766V291.766C21 297.289 25.4772 301.766 31 301.766H41M21 281.766H11C5.47715 281.766 1 277.289 1 271.766V231.766C1 226.243 5.47715 221.766 11 221.766H41H61H91C96.5228 221.766 101 226.243 101 231.766V261.766M21 281.766V246.766C21 244.005 23.2386 241.766 26 241.766H41M41 301.766V311.766C41 317.289 45.4772 321.766 51 321.766H91C96.5228 321.766 101 317.289 101 311.766V281.766M41 301.766V281.766M101 281.766V261.766M101 281.766H81.5M101 261.766H81.5M81.5 261.766L81.1219 246.641C81.0541 243.929 78.8362 241.766 76.1234 241.766H61M81.5 261.766V281.766M81.5 281.766V296.766C81.5 299.528 79.2614 301.766 76.5 301.766H61V281.766M61 241.766H41M61 241.766V261.766M41 241.766V261.766M41 281.766H61M41 281.766V261.766M61 281.766V261.766M41 261.766H61" stroke="#1E1E1E" stroke-width="2"/>
<path d="M31 21.7662C25.4772 21.7662 21 26.2433 21 31.7662V41.7662V76.7662C21 79.5276 23.2386 81.7662 26 81.7662H41V61.7662V41.7662V21.7662H31Z" fill="#D9D9D9"/>
<path fill-rule="evenodd" clip-rule="evenodd" d="M41 21.7662V11.7662C41 6.24334 45.4772 1.76619 51 1.76619H91C96.5228 1.76619 101 6.24334 101 11.7662V41.7662V61.7662V91.7662C101 97.289 96.5228 101.766 91 101.766H61H41H11C5.47715 101.766 1 97.289 1 91.7662V51.7662C1 46.2433 5.47715 41.7662 11 41.7662H21V76.7662C21 79.5276 23.2386 81.7662 26 81.7662H41V61.7662V41.7662V21.7662ZM81.5 61.7662L81.1219 76.8911C81.0541 79.603 78.8362 81.7662 76.1234 81.7662H61V61.7662V41.7662V21.7662H76.5C79.2614 21.7662 81.5 24.0048 81.5 26.7662V41.7662V61.7662Z" fill="#D9D9D9"/>
<path d="M76.1234 81.7662C78.8362 81.7662 81.0541 79.603 81.1219 76.8911L81.5 61.7662V41.7662V26.7662C81.5 24.0048 79.2614 21.7662 76.5 21.7662H61V41.7662V61.7662V81.7662H76.1234Z" fill="#D9D9D9"/>
<path d="M21 41.7662V31.7662C21 26.2433 25.4772 21.7662 31 21.7662H41M21 41.7662H11C5.47715 41.7662 1 46.2433 1 51.7662V91.7662C1 97.289 5.47715 101.766 11 101.766H41H61H91C96.5228 101.766 101 97.289 101 91.7662V61.7662M21 41.7662V76.7662C21 79.5276 23.2386 81.7662 26 81.7662H41M41 21.7662V11.7662C41 6.24334 45.4772 1.76619 51 1.76619H91C96.5228 1.76619 101 6.24334 101 11.7662V41.7662M41 21.7662V41.7662M101 41.7662V61.7662M101 41.7662H81.5M101 61.7662H81.5M81.5 61.7662L81.1219 76.8911C81.0541 79.603 78.8362 81.7662 76.1234 81.7662H61M81.5 61.7662V41.7662M81.5 41.7662V26.7662C81.5 24.0048 79.2614 21.7662 76.5 21.7662H61V41.7662M61 81.7662H41M61 81.7662V61.7662M41 81.7662V61.7662M41 41.7662H61M41 41.7662V61.7662M61 41.7662V61.7662M41 61.7662H61" stroke="#1E1E1E" stroke-width="2"/>
<path fill-rule="evenodd" clip-rule="evenodd" d="M221 301.766V331.766C221 337.289 216.523 341.766 211 341.766H171C165.477 341.766 161 337.289 161 331.766V321.766V281.766H181V321.766H196C198.761 321.766 201 319.528 201 316.766V241.766H221V281.766H235.5C238.261 281.766 240.5 279.528 240.5 276.766V226.766C240.5 224.005 238.261 221.766 235.5 221.766H221H201H186C183.239 221.766 181 224.005 181 226.766V261.766H161V211.766C161 206.243 165.477 201.766 171 201.766H201V1.76619L211 7.76619L221 1.76619V201.766H251C256.523 201.766 261 206.243 261 211.766V291.766C261 297.289 256.523 301.766 251 301.766H221ZM141 281.766H121V301.766H141V281.766Z" fill="#D9D9D9"/>
<path d="M141 311.766C141 317.289 145.477 321.766 151 321.766H161V281.766H181V261.766H161H151C145.477 261.766 141 266.243 141 271.766V281.766V301.766V311.766Z" fill="#D9D9D9"/>
<path d="M181 261.766V281.766V321.766H196C198.761 321.766 201 319.528 201 316.766V241.766H221V281.766H235.5C238.261 281.766 240.5 279.528 240.5 276.766V226.766C240.5 224.005 238.261 221.766 235.5 221.766H221H201H186C183.239 221.766 181 224.005 181 226.766V261.766Z" fill="#D9D9D9"/>
<path d="M221 301.766V331.766C221 337.289 216.523 341.766 211 341.766H171C165.477 341.766 161 337.289 161 331.766V321.766M221 301.766H251C256.523 301.766 261 297.289 261 291.766V211.766C261 206.243 256.523 201.766 251 201.766H221M221 301.766V281.766M161 321.766H151C145.477 321.766 141 317.289 141 311.766V301.766M161 321.766V281.766H181M141 301.766H121V281.766H141M141 301.766V281.766M141 281.766V271.766C141 266.243 145.477 261.766 151 261.766H161M161 261.766V211.766C161 206.243 165.477 201.766 171 201.766H201M161 261.766H181M201 201.766V1.76619L211 7.76619L221 1.76619V201.766M201 201.766V221.766M221 201.766V221.766M181 261.766V281.766M181 261.766V226.766C181 224.005 183.239 221.766 186 221.766H201M181 281.766V321.766H196C198.761 321.766 201 319.528 201 316.766V241.766H221V281.766M221 281.766H235.5C238.261 281.766 240.5 279.528 240.5 276.766V226.766C240.5 224.005 238.261 221.766 235.5 221.766H221M221 221.766H201" stroke="#1E1E1E" stroke-width="2"/>
<rect x="133" y="282.766" width="18" height="20" transform="rotate(90 133 282.766)" fill="#D9D9D9"/>
<path d="M141 181.766H161V141.766H176C178.761 141.766 181 144.005 181 146.766V181.766H191C196.523 181.766 201 177.289 201 171.766V131.766C201 126.243 196.523 121.766 191 121.766H151C145.477 121.766 141 126.243 141 131.766V141.766V161.766V181.766Z" fill="#D9D9D9"/>
<path d="M121 181.766H141V161.766H111C105.477 161.766 101 166.243 101 171.766V211.766C101 217.289 105.477 221.766 111 221.766H151C156.523 221.766 161 217.289 161 211.766V201.766H126C123.239 201.766 121 199.528 121 196.766V181.766Z" fill="#D9D9D9"/>
<path fill-rule="evenodd" clip-rule="evenodd" d="M181 191.766V181.766V146.766C181 144.005 178.761 141.766 176 141.766H161V181.766H141H121V196.766C121 199.528 123.239 201.766 126 201.766H161H171C176.523 201.766 181 197.289 181 191.766ZM131 121.766C136.523 121.766 141 126.243 141 131.766V141.766V161.766H111H101H97H81V151.766C81 146.243 85.4772 141.766 91 141.766H121V121.766H131Z" fill="#D9D9D9"/>
<path d="M181 181.766V146.766C181 144.005 178.761 141.766 176 141.766H161V181.766H141M181 181.766V191.766M181 181.766H191M161 201.766H126C123.239 201.766 121 199.528 121 196.766V181.766H141M161 201.766H171M161 201.766V211.766M121 141.766H91C85.4772 141.766 81 146.243 81 151.766V161.766H97M121 141.766H141M121 141.766V121.766H131C136.523 121.766 141 126.243 141 131.766M141 181.766V161.766M141 141.766V161.766M141 141.766V131.766M141 161.766H111M97 161.766H111M97 161.766H101H111M181 191.766C181 197.289 176.523 201.766 171 201.766M181 191.766C181 197.289 176.523 201.766 171 201.766M161 211.766C161 217.289 156.523 221.766 151 221.766M161 211.766C161 217.289 156.523 221.766 151 221.766M151 221.766H111M111 221.766C105.477 221.766 101 217.289 101 211.766M111 221.766C105.477 221.766 101 217.289 101 211.766M101 211.766V171.766C101 166.243 105.477 161.766 111 161.766M141 131.766C141 126.243 145.477 121.766 151 121.766H191M191 121.766C196.523 121.766 201 126.243 201 131.766M191 121.766C196.523 121.766 201 126.243 201 131.766M201 131.766V171.766M201 171.766C201 177.289 196.523 181.766 191 181.766M201 171.766C201 177.289 196.523 181.766 191 181.766" stroke="#1E1E1E" stroke-width="2"/>
<rect x="125" y="122.766" width="18" height="8" transform="rotate(90 125 122.766)" fill="#D9D9D9"/>
<path d="M21 211.766V171.766C21 166.243 25.4772 161.766 31 161.766H71C76.5228 161.766 81 166.243 81 171.766V211.766C81 217.289 76.5228 221.766 71 221.766H31C25.4772 221.766 21 217.289 21 211.766Z" fill="#D9D9D9" stroke="#1E1E1E" stroke-width="2"/>
<path d="M41 241.766H61V221.766H41V241.766Z" fill="#D9D9D9"/>
<path d="M46 181.766C43.2386 181.766 41 184.005 41 186.766V201.766H91C96.5228 201.766 101 197.289 101 191.766V181.766V161.766H81V181.766H46Z" fill="#D9D9D9"/>
<path d="M41 241.766H61V221.766H41V241.766Z" stroke="#1E1E1E" stroke-width="2"/>
<path d="M46 181.766C43.2386 181.766 41 184.005 41 186.766V201.766H91C96.5228 201.766 101 197.289 101 191.766V181.766V161.766H81V181.766H46Z" stroke="#1E1E1E" stroke-width="2"/>
<rect width="18" height="18" transform="matrix(-1 0 0 1 100 151.766)" fill="#D9D9D9"/>
<rect width="18" height="18" transform="matrix(-1 0 0 1 60 224.766)" fill="#D9D9D9"/>
<path d="M31 141.766C36.5228 141.766 41 146.243 41 151.766C41 157.289 36.5228 161.766 31 161.766H11C5.47715 161.766 1 157.289 1 151.766V141.766V111.766C1 106.243 5.47715 101.766 11 101.766C16.5228 101.766 21 106.243 21 111.766V141.766H31Z" fill="#D9D9D9" stroke="#1E1E1E" stroke-width="2"/>
<path d="M161 101.766V111.766C161 117.289 156.523 121.766 151 121.766H111C105.477 121.766 101 117.289 101 111.766V101.766V91.7662C101 86.2433 105.477 81.7662 111 81.7662C116.523 81.7662 121 86.2433 121 91.7662V101.766H141V91.7662C141 86.2433 145.477 81.7662 151 81.7662C156.523 81.7662 161 86.2433 161 91.7662V101.766Z" fill="#D9D9D9" stroke="#1E1E1E" stroke-width="2"/>
<path d="M31 21.7662C36.5228 21.7662 41 17.289 41 11.7662C41 6.24334 36.5228 1.76619 31 1.76619H11C5.47715 1.76619 1 6.24334 1 11.7662V21.7662V31.7662C1 37.289 5.47715 41.7662 11 41.7662C16.5228 41.7662 21 37.289 21 31.7662V21.7662H31Z" fill="#D9D9D9" stroke="#1E1E1E" stroke-width="2"/>
<path d="M21 201.766V211.766C21 217.289 16.5228 221.766 11 221.766C5.47715 221.766 1 217.289 1 211.766V201.766V171.766C1 166.243 5.47715 161.766 11 161.766C16.5228 161.766 21 166.243 21 171.766V201.766Z" fill="#D9D9D9" stroke="#1E1E1E" stroke-width="2"/>
<path d="M61 341.766H51C45.4772 341.766 41 337.289 41 331.766C41 326.243 45.4772 321.766 51 321.766H61H91C96.5228 321.766 101 326.243 101 331.766C101 337.289 96.5228 341.766 91 341.766H61Z" fill="#D9D9D9" stroke="#1E1E1E" stroke-width="2"/>
<path d="M1 331.766C1 337.289 5.47715 341.766 11 341.766H31C36.5228 341.766 41 337.289 41 331.766V321.766V311.766C41 306.243 36.5228 301.766 31 301.766H21V291.766C21 286.243 16.5228 281.766 11 281.766C5.47715 281.766 1 286.243 1 291.766V301.766V321.766V331.766Z" fill="#D9D9D9"/>
<path d="M21 321.766V301.766M21 301.766V291.766C21 286.243 16.5228 281.766 11 281.766C5.47715 281.766 1 286.243 1 291.766V301.766V321.766V331.766C1 337.289 5.47715 341.766 11 341.766H31C36.5228 341.766 41 337.289 41 331.766V321.766V311.766C41 306.243 36.5228 301.766 31 301.766H21Z" stroke="#1E1E1E" stroke-width="2"/>
<path d="M111 341.766C105.477 341.766 101 337.289 101 331.766V311.766C101 306.243 105.477 301.766 111 301.766H121H131C136.523 301.766 141 306.243 141 311.766V321.766H151C156.523 321.766 161 326.243 161 331.766C161 337.289 156.523 341.766 151 341.766H141H121H111Z" fill="#D9D9D9"/>
<path d="M121 321.766H141M141 321.766H151C156.523 321.766 161 326.243 161 331.766C161 337.289 156.523 341.766 151 341.766H141H121H111C105.477 341.766 101 337.289 101 331.766V311.766C101 306.243 105.477 301.766 111 301.766H121H131C136.523 301.766 141 306.243 141 311.766V321.766Z" stroke="#1E1E1E" stroke-width="2"/>
<path d="M201 111.766C201 117.289 196.523 121.766 191 121.766H171C165.477 121.766 161 117.289 161 111.766V101.766V71.7662C161 66.2433 165.477 61.7662 171 61.7662H181V11.7662C181 6.24334 185.477 1.76619 191 1.76619C196.523 1.76619 201 6.24334 201 11.7662V61.7662V101.766V111.766Z" fill="#D9D9D9"/>
<path d="M181 101.766V61.7662M181 61.7662V11.7662C181 6.24334 185.477 1.76619 191 1.76619C196.523 1.76619 201 6.24334 201 11.7662V61.7662V101.766V111.766C201 117.289 196.523 121.766 191 121.766H171C165.477 121.766 161 117.289 161 111.766V101.766V71.7662C161 66.2433 165.477 61.7662 171 61.7662H181Z" stroke="#1E1E1E" stroke-width="2"/>
<path d="M236.385 341.766C227.888 341.766 221 334.878 221 326.382V317.151C221 308.654 227.888 301.766 236.385 301.766H241H245.615C254.112 301.766 261 308.654 261 317.151V321.766V326.382C261 334.878 254.112 341.766 245.615 341.766H241H236.385Z" fill="#D9D9D9"/>
<path d="M242 321.766H240M241 341.766H236.385C227.888 341.766 221 334.878 221 326.382V317.151C221 308.654 227.888 301.766 236.385 301.766H241H245.615C254.112 301.766 261 308.654 261 317.151V321.766V326.382C261 334.878 254.112 341.766 245.615 341.766H241Z" stroke="#1E1E1E" stroke-width="2"/>
<circle cx="91" cy="211.766" r="10" transform="rotate(90 91 211.766)" fill="#D9D9D9" stroke="#1E1E1E" stroke-width="2"/>
<circle cx="111" cy="231.766" r="10" transform="rotate(90 111 231.766)" fill="#D9D9D9" stroke="#1E1E1E" stroke-width="2"/>
<circle cx="191" cy="191.766" r="10" transform="rotate(90 191 191.766)" fill="#D9D9D9" stroke="#1E1E1E" stroke-width="2"/>
<circle cx="111" cy="11.7662" r="10" transform="rotate(90 111 11.7662)" fill="#D9D9D9" stroke="#1E1E1E" stroke-width="2"/>
<path d="M261 191.766C261 197.289 256.523 201.766 251 201.766H231C225.477 201.766 221 197.289 221 191.766V181.763V21.7698V11.7662C221 6.24335 225.477 1.76619 231 1.76619H251C256.523 1.76619 261 6.24334 261 11.7662V21.7698L261 181.763V191.766Z" fill="#D9D9D9"/>
<path d="M241 181.763V21.7698M261 181.763V191.766C261 197.289 256.523 201.766 251 201.766H231C225.477 201.766 221 197.289 221 191.766V181.763V21.7698V11.7662C221 6.24335 225.477 1.76619 231 1.76619H251C256.523 1.76619 261 6.24334 261 11.7662V21.7698L261 181.763Z" stroke="#1E1E1E" stroke-width="2"/>
</svg>
