<?xml version="1.0" encoding="UTF-8" standalone="no"?>
<svg
   viewBox="-5.875 -3.5999999046325684 36.17499923706055 36.224998474121094"
   version="1.1"
   id="svg2"
   sodipodi:docname="00_nasin ilo jan-kule.svg"
   inkscape:version="1.3.2 (091e20e, 2023-11-25, custom)"
   xml:space="preserve"
   xmlns:inkscape="http://www.inkscape.org/namespaces/inkscape"
   xmlns:sodipodi="http://sodipodi.sourceforge.net/DTD/sodipodi-0.dtd"
   xmlns:xlink="http://www.w3.org/1999/xlink"
   xmlns="http://www.w3.org/2000/svg"
   xmlns:svg="http://www.w3.org/2000/svg"><defs
     id="defs2"><linearGradient
       id="linearGradient4"
       inkscape:collect="always"><stop
         style="stop-color:#e41d00;stop-opacity:0;"
         offset="0.13443831"
         id="stop1" /><stop
         style="stop-color:#f29689;stop-opacity:1;"
         offset="1"
         id="stop4" /></linearGradient><linearGradient
       id="linearGradient18"
       inkscape:collect="always"><stop
         style="stop-color:#000000;stop-opacity:1;"
         offset="0"
         id="stop18" /><stop
         style="stop-color:#000000;stop-opacity:0;"
         offset="1"
         id="stop19" /></linearGradient><linearGradient
       id="linearGradient14"
       inkscape:collect="always"><stop
         style="stop-color:#f29689;stop-opacity:1;"
         offset="0"
         id="stop14" /><stop
         style="stop-color:#e42e6a;stop-opacity:0.76501304;"
         offset="1"
         id="stop15" /></linearGradient><linearGradient
       id="linearGradient6"
       inkscape:collect="always"><stop
         style="stop-color:#e41d00;stop-opacity:0;"
         offset="0.13443831"
         id="stop5" /><stop
         style="stop-color:#f29689;stop-opacity:1;"
         offset="1"
         id="stop6" /></linearGradient><linearGradient
       id="linearGradient2"
       inkscape:collect="always"><stop
         style="stop-color:#e49b00;stop-opacity:0;"
         offset="0.13443831"
         id="stop2" /><stop
         style="stop-color:#e49b00;stop-opacity:0.74151438;"
         offset="1"
         id="stop3" /></linearGradient><linearGradient
       inkscape:collect="always"
       xlink:href="#linearGradient2"
       id="linearGradient3"
       x1="1.5919005"
       y1="18.140397"
       x2="32.531158"
       y2="18.140397"
       gradientUnits="userSpaceOnUse" /><linearGradient
       inkscape:collect="always"
       xlink:href="#linearGradient6"
       id="linearGradient5"
       x1="22.083237"
       y1="3.3987284"
       x2="18.092985"
       y2="20.068796"
       gradientUnits="userSpaceOnUse" /><linearGradient
       inkscape:collect="always"
       xlink:href="#linearGradient4"
       id="linearGradient8"
       x1="9.9083099"
       y1="4.144805"
       x2="12.238767"
       y2="15.549127"
       gradientUnits="userSpaceOnUse" /><linearGradient
       inkscape:collect="always"
       xlink:href="#linearGradient14"
       id="linearGradient15"
       x1="27.767582"
       y1="20.398167"
       x2="27.767582"
       y2="9.0844574"
       gradientUnits="userSpaceOnUse"
       gradientTransform="translate(-5.875,-3.5999999)" /><linearGradient
       inkscape:collect="always"
       xlink:href="#linearGradient18"
       id="linearGradient19"
       x1="13.703019"
       y1="10.545594"
       x2="21.436999"
       y2="10.545594"
       gradientUnits="userSpaceOnUse" /></defs><sodipodi:namedview
     id="namedview2"
     pagecolor="#ffffff"
     bordercolor="#000000"
     borderopacity="0.25"
     inkscape:showpageshadow="2"
     inkscape:pageopacity="0.0"
     inkscape:pagecheckerboard="0"
     inkscape:deskcolor="#d1d1d1"
     inkscape:zoom="22.627417"
     inkscape:cx="19.821087"
     inkscape:cy="21.854019"
     inkscape:window-width="1920"
     inkscape:window-height="1046"
     inkscape:window-x="-11"
     inkscape:window-y="-11"
     inkscape:window-maximized="1"
     inkscape:current-layer="svg2"
     showguides="false" /><path
     d="M -2.6,-2.6 0,0 17.470845,-1.4727639 M -5.3326938,1.8209198 0,0.325 V 0.65 0.975 1.3 1.625 1.95 2.275 2.6 2.925 3.25 3.575 3.9 4.225 4.55 4.875 5.2 5.525 5.85 6.175 6.5 6.825 7.15 7.475 7.8 8.125 8.45 8.775 9.1 9.425 9.75 v 0.325 0.325 0.325 0.325 2 H 5 7.1707945 M 7.2,13.049809 V 11.1 10.775 10.45 10.125 9.8 9.475 9.15 8.825 8.5 8.175 7.85 7.525 7.2 6.875 6.55 6.225 5.9 5.575 5.25 4.925 4.6 4.275 3.95 3.625 3.3 2.975 2.65 2.325 2 1.675 1.35 1.025 0.7 0.375 0.05 v -2 h 5 V -1.625 -1.3 -0.975 -0.65 -0.325 0 0.325 0.65 0.975 1.3 1.625 1.95 2.275 2.6 2.925 3.25 3.575 3.9 4.225 4.55 4.875 5.2 5.525 5.85 6.175 6.5 6.825 7.15 7.475 7.8 8.125 8.45 8.775 9.1 9.425 9.75 v 0.325 0.325 0.325 0.325 0.325 0.325 0.325 0.325 0.325 0.325 0.325 0.325 0.325 0.325 0.325 0.325 0.325 0.325 1 c 0,3.313711 2.686292,5.999997 6,5.999997 3.313708,0 6,-2.686286 6,-5.999997 V 15.6 15.275 14.95 14.625 14.3 13.975 13.65 13.325 13 12.675 12.35 12.025 11.7 11.375 11.05 10.725 10.4 10.075 9.75 9.425 9.1 8.775 8.45 8.125 7.8 7.475 7.15 6.825 6.5 6.175 5.85 v -2 h -5 m 0,-2.6 v 5.2 m 0,-2.6 V 4.175 4.5 4.825 5.15 5.475 5.8 6.125 6.45 6.775 7.1 7.425 7.75 8.075 8.4 8.725 9.05 9.375 9.7 10.025 10.35 10.675 11 v 0.325 0.325 0.325 0.325 0.325 0.325 0.325 0.325 0.325 0.325 0.325 1 c 0,2.666666 -4,2.666666 -4,0 v -1 V 14.25 13.925 13.6 13.275 12.95 12.625 12.3 11.975 11.65 11.325 11 10.675 10.35 10.025 9.7 9.375 9.05 8.725 8.4 8.075 7.75 7.425 7.1 4.175 m 0,0 v -1 c 0,-3.17563945914 2.574363,-5.7499975 5.75,-5.7499975 3.175637,0 5.75,2.57435804086 5.75,5.7499975 v 1 V 4.5 4.825 5.15 5.475 5.8 6.125 6.45 6.775 7.1 7.425 7.75 8.075 8.4 8.725 9.05 9.375 9.7 10.025 10.35 10.675 11 v 0.325 0.325 0.325 0.325 0.325 0.325 0.325 0.325 0.325 0.325 0.325 0.325 0.325 0.325 0.325 0.325 0.325 0.325 0.325 0.325 0.325 0.325 0.325 0.325 0.325 0.325 0.325 0.325 0.325 0.325 0.325 0.325 0.325 0.325 0.325 m 0,0 v 1 c 0,4.556352 -3.693651,8.249996 -8.25,8.249996 -4.556349,0 -8.25,-3.693644 -8.25,-8.249996 v -1 -4.662102 m 0,0.912102 v -1 -2 H 5.2 4.875 4.55 4.225 3.9 3.575 3.25 2.925 2.6 2.275 1.95 1.625 1.3 0.975 0.65 0.325 0 -0.325 -0.65 -0.975 -1.3 -1.625 -1.95 -2.275 -2.6 -2.925 -3.25 -3.575 -3.9 -4.225 -4.55 -4.875 m 2.6,2.6 -2.6,-2.6 4.89925849,-4.562034"
     stroke="#000000"
     stroke-width="0.65"
     stroke-linecap="round"
     stroke-linejoin="round"
     fill="none"
     id="path1"
     sodipodi:nodetypes="cccccccccccccccccccccccccccccccccccccccccccccccccccccccccccccccccccccccccccccccccccccccccccccccccccccccccccccccccccccccccccccccccccccssscccccccccccccccccccccccccccccccccccccccccccccccccccccccccccccccccccccssccccccccccccccccccccccccccsssccccccccccccccccccccccccccccccccccccccccccccccccccccccccccssscccccccccccccccccccccccccccccccccccccccc"
     style="display:none" /><path
     style="fill:url(#linearGradient3);stroke-width:0.0306568"
     d="m 26.690978,1.0953212 c -1.304137,-0.030576 -2.582729,0.5092823 -3.566006,1.3476409 -1.05163,0.9015587 -1.79408,2.1916578 -1.949639,3.575347 -0.07144,1.6022214 -0.03517,3.2072498 -0.04957,4.8106589 0.005,2.736564 -0.02952,5.473461 0.0094,8.209813 0.008,0.409854 0.01724,0.845952 0.261083,1.195831 0.625023,1.045228 2.259287,1.191023 3.096694,0.327226 0.35588,-0.355301 0.54615,-0.859899 0.512519,-1.362064 0.04367,-4.481019 -0.0018,-8.962499 0.03014,-13.4436043 0.01486,-0.3101365 -0.0096,-0.6551544 0.04575,-0.9462886 0.05985,0.238816 0.02427,0.5021448 0.03938,0.7559388 0.01483,0.5353066 -0.01235,1.0763918 0.02873,1.6079751 0.05817,0.3008764 0.423766,0.2340317 0.651489,0.2385778 1.427702,0.00964 2.856298,-0.020263 4.283447,0.019202 0.05632,0.069908 0.0048,0.2377041 0.02706,0.3365657 0.02312,3.8576695 0.006,7.7155345 -0.0057,11.5732325 -0.02468,0.695148 0.02961,1.399207 -0.111138,2.086404 -0.295196,1.365928 -1.059972,2.639629 -2.167909,3.504628 -1.134482,0.901008 -2.600118,1.378873 -4.048851,1.287824 -2.266845,-0.05694 -4.39184,-1.57189 -5.258335,-3.655464 -0.322356,-0.759165 -0.498842,-1.59556 -0.466301,-2.42582 -0.03227,-6.048682 -0.01278,-12.09751 -0.0183,-18.1462542 -0.0091,-0.2652417 -0.29757,-0.3328403 -0.514579,-0.2999814 -1.378853,0.00532 -2.760512,-0.010617 -4.137616,0.00795 -0.282078,0.024795 -0.289001,0.3515882 -0.270374,0.5679398 0,4.7941535 0,9.5883078 0,14.3824608 -0.17838,0.07544 -0.414379,0.01177 -0.615291,0.03281 -2.21118,0 -4.4223608,0 -6.6335408,0 -0.048903,-0.338842 -0.02189,-0.712759 -0.042195,-1.064823 0.046853,-0.228971 -0.1548707,-0.507118 -0.3998356,-0.403477 -0.2504067,0.12721 -0.4256574,0.379115 -0.6462302,0.555222 -1.0342001,0.97 -2.0849237,1.926368 -3.1088027,2.904883 -0.1922663,0.19932 0.018155,0.54135 0.2813182,0.49368 4.7180305,0.01009 9.4360611,0.02016 14.1540921,0.03023 0.01916,2.816589 0.0042,5.633621 0.05197,8.449895 0.03002,0.778782 0.25038,1.53957 0.513201,2.268781 0.999484,2.640421 3.454055,4.672171 6.240885,5.141701 2.431772,0.44826 5.047448,-0.312218 6.877787,-1.969036 0.812387,-0.728616 1.490529,-1.608132 1.952425,-2.598679 0.417376,-0.887458 0.679589,-1.85037 0.778614,-2.824206 9.2e-4,-6.895969 0.02997,-13.792001 0.0029,-20.6879362 0.03695,-0.9537226 -0.16118,-1.916069 -0.602724,-2.7644205 C 31.153429,2.6635936 29.6436,1.5209836 27.951402,1.1783387 27.538664,1.0814167 27.111619,1.0977307 26.690933,1.0953187 Z"
     id="path2"
     transform="translate(-5.875,-3.5999999)" /><path
     id="path3"
     style="fill:url(#linearGradient15);stroke:#e41d00;stroke-width:0;stroke-dasharray:none;stroke-opacity:0.462745"
     d="m 23.603516,3.898047 c -0.08256,0.00219 -0.163104,0.00791 -0.232422,0.00586 -1.284856,0.00876 -2.575909,-0.016808 -3.857422,0.013672 -0.38938,0.08376 -0.224902,0.565293 -0.259766,0.8496094 -0.0076,3.7608095 -0.01594,7.5204406 -0.02344,11.2812496 -0.209984,0.730353 -0.776854,1.385203 -1.550781,1.517579 -0.160367,0.02898 -0.326702,0.04218 -0.490685,0.04101 l 4.5e-4,4.853516 c 0.852649,0.144794 1.742543,0.08432 2.578125,-0.125 2.06424,-0.54682 3.736199,-2.299948 4.228516,-4.373047 0.224549,-0.639017 0.09125,-1.323491 0.128906,-1.986328 0.0075,-3.923645 0.0139,-7.8478391 0.02148,-11.7714846 -0.0314,-0.2953006 -0.295276,-0.3132182 -0.542961,-0.3066364 z"
     sodipodi:nodetypes="scccccccccccs" /><path
     style="fill:url(#linearGradient8);stroke-width:0.0613136"
     d="M 12.402464,3.1037595 C 10.330652,3.3007578 8.2200967,3.4370977 6.1713672,3.649312 5.7715325,3.8298047 6.0029384,4.3708749 5.9360151,4.7170647 c -0.020845,3.8640752 -0.00979,7.7282303 -0.01267,11.5923423 0.1118523,0.494686 0.7369292,0.23632 1.0970577,0.299981 1.9187433,-0.01384 3.8627722,0.230805 5.7754742,0.182355 0.426148,-0.154926 0.237106,-1.214795 0.304793,-1.560662 L 13.022545,3.3680544 C 12.985003,3.0368247 12.65522,3.0454656 12.402464,3.1037595 Z"
     id="path6"
     transform="translate(-5.875,-3.5999999)"
     sodipodi:nodetypes="ccccccccc" /><path
     id="path11"
     style="fill:url(#linearGradient5);stroke-width:0.0433552"
     d="m 22.367188,2.2480469 c -0.07658,0.00305 -0.156677,0.019603 -0.222657,0.023437 -1.259549,0.1267108 -2.540809,0.1845343 -3.802734,0.3417968 -0.378084,0.1351002 -0.19877,0.5990353 -0.238281,0.9003907 0.01881,5.4589329 -0.003,10.9182026 0.04492,16.3769536 0.0149,0.759156 0.0059,1.541007 0.30664,2.253906 0.598556,1.724688 2.024482,3.134727 3.763672,3.697265 0.275998,0.09794 1.022838,0.212861 1.310547,0.261719 L 23.528844,21.25 c -0.533556,-0.0038 -1.527721,-0.217204 -1.91361,-0.601563 -0.376464,-0.341007 -0.561866,-0.842345 -0.537109,-1.345703 -0.06567,-2.982967 -0.01871,-5.978901 -0.0332,-8.966797 0.0211,-1.5393474 -0.04383,-3.0774866 0.08203,-4.6113276 0.18629,-1.0061073 0.642182,-1.9729137 1.306641,-2.7363282 0.17283,-0.1703538 0.42128,-0.4945966 0.138672,-0.6835937 -0.05503,-0.048557 -0.128494,-0.059687 -0.205078,-0.056641 z"
     transform="translate(-5.875,-3.5999999)"
     sodipodi:nodetypes="sccccccccccccccss" /><path
     style="display:none;fill:none;stroke:url(#linearGradient19);stroke-width:10;stroke-linecap:round;stroke-dasharray:none"
     d="m 13.703019,1.217165 v 15.556349 c 0,0 0.883883,3.270369 3.447146,3.093592 2.563262,-0.176776 4.286834,-1.414213 4.286834,-3.579728 0,-2.165514 0,-11.004349 0,-11.004349"
     id="path17" /><circle
     style="opacity:1;fill:#ffffff;fill-opacity:1;stroke-width:0.045;stroke-linecap:round"
     id="path7"
     cy="5.459805"
     cx="15.227717"
     r="1.3700193" /><g
     id="g1"><path
       d="M -2.6,-2.6 0,0 2.6,-2.6 M 0,0 V 0.325 0.65 0.975 1.3 1.625 1.95 2.275 2.6 2.925 3.25 3.575 3.9 4.225 4.55 4.875 5.2 5.525 5.85 6.175 6.5 6.825 7.15 7.475 7.8 8.125 8.45 8.775 9.1 9.425 9.75 v 0.325 0.325 0.325 0.325 2 H 5 5.5 M 7.2,11.425 V 11.1 10.775 10.45 10.125 9.8 9.475 9.15 8.825 8.5 8.175 7.85 7.525 7.2 6.875 6.55 6.225 5.9 5.575 5.25 4.925 4.6 4.275 3.95 3.625 3.3 2.975 2.65 2.325 2 1.675 1.35 1.025 0.7 0.375 0.05 v -2 h 5 V -1.625 -1.3 -0.975 -0.65 -0.325 0 0.325 0.65 0.975 1.3 1.625 1.95 2.275 2.6 2.925 3.25 3.575 3.9 4.225 4.55 4.875 5.2 5.525 5.85 6.175 6.5 6.825 7.15 7.475 7.8 8.125 8.45 8.775 9.1 9.425 9.75 v 0.325 0.325 0.325 0.325 0.325 0.325 0.325 0.325 0.325 0.325 0.325 0.325 0.325 0.325 0.325 0.325 0.325 0.325 1 c 0,3.313711 2.686292,5.999997 6,5.999997 3.313708,0 6,-2.686286 6,-5.999997 V 15.6 15.275 14.95 14.625 14.3 13.975 13.65 13.325 13 12.675 12.35 12.025 11.7 11.375 11.05 10.725 10.4 10.075 9.75 9.425 9.1 8.775 8.45 8.125 7.8 7.475 7.15 6.825 6.5 6.175 5.85 v -2 h -5 m 0,-2.6 v 5.2 m 0,-2.6 V 4.175 4.5 4.825 5.15 5.475 5.8 6.125 6.45 6.775 7.1 7.425 7.75 8.075 8.4 8.725 9.05 9.375 9.7 10.025 10.35 10.675 11 v 0.325 0.325 0.325 0.325 0.325 0.325 0.325 0.325 0.325 0.325 0.325 1 c 0,2.666666 -4,2.666666 -4,0 v -1 V 14.25 13.925 13.6 13.275 12.95 12.625 12.3 11.975 11.65 11.325 11 10.675 10.35 10.025 9.7 9.375 9.05 8.725 8.4 8.075 7.75 7.425 7.1 6.775 c -1.733333,0 -1.733333,-2.6 0,-2.6 1.733333,0 1.733333,2.6 0,2.6 m 0,-2.6 v -1 c 0,-3.17563945914 2.574363,-5.7499975 5.75,-5.7499975 3.175637,0 5.75,2.57435804086 5.75,5.7499975 v 1 V 4.5 4.825 5.15 5.475 5.8 6.125 6.45 6.775 7.1 7.425 7.75 8.075 8.4 8.725 9.05 9.375 9.7 10.025 10.35 10.675 11 v 0.325 0.325 0.325 0.325 0.325 0.325 0.325 0.325 0.325 0.325 0.325 0.325 0.325 0.325 0.325 0.325 0.325 0.325 0.325 0.325 0.325 0.325 0.325 0.325 0.325 0.325 0.325 0.325 0.325 0.325 0.325 0.325 0.325 0.325 0.325 m -2.6,0 h 5.2 m -2.6,0 v 1 c 0,4.556352 -3.693651,8.249996 -8.25,8.249996 -4.556349,0 -8.25,-3.693644 -8.25,-8.249996 v -1 -0.5 m 0,-3.25 v -1 -2 H 5.2 4.875 4.55 4.225 3.9 3.575 3.25 2.925 2.6 2.275 1.95 1.625 1.3 0.975 0.65 0.325 0 -0.325 -0.65 -0.975 -1.3 -1.625 -1.95 -2.275 -2.6 -2.925 -3.25 -3.575 -3.9 -4.225 -4.55 -4.875 m 2.6,2.6 -2.6,-2.6 2.6,-2.6"
       stroke="#000000"
       stroke-width="0.65"
       stroke-linecap="round"
       stroke-linejoin="round"
       fill="none"
       id="path1-3"
       sodipodi:nodetypes="cccccccccccccccccccccccccccccccccccccccccccccccccccccccccccccccccccccccccccccccccccccccccccccccccccccccccccccccccccccccccccccccccccccssscccccccccccccccccccccccccccccccccccccccccccccccccccccccccccccccccccccsscccccccccccccccccccccccccsccsssccccccccccccccccccccccccccccccccccccccccccccccccccccccccccccssscccccccccccccccccccccccccccccccccccccccc" /><circle
       r="0.64999998"
       cy="13.05"
       cx="7.125"
       style="fill:#000000"
       id="circle1" /><circle
       r="0.64999998"
       cy="20.25"
       cx="10.2"
       style="fill:#000000"
       id="circle2" /></g></svg>
