<?xml version="1.0" standalone="no"?>
<svg xmlns:xlink="http://www.w3.org/1999/xlink" xmlns="http://www.w3.org/2000/svg" viewBox="-32.75 -34.54999923706055 56.650001525878906 60">  <path d="M -1.2 -1.2 L 0 0 L 1.2 -1.2 M 0 0 V 0.15 V 0.3 V 0.44999999999999996 V 0.6 V 0.75 V 0.9 V 1.05 V 1.2 V 2.2 A 1 1 0 0 1 -15.5 2.2 V 1.2 V 0.7 M -15.5 -0.8 V -1.8 V -3.8 H -10.5 M -11.7 -3.8 H -9.3 M -10.5 -3.8  M -10.5 -2.3 V -1.7999999999999998 V -1.65 V -1.5 V -1.35 V -1.2000000000000002 V -1.0500000000000003 V -0.9000000000000002 V -0.7500000000000002 V -0.6000000000000002 V -0.4500000000000002 V -0.30000000000000016 V -0.15000000000000016 V -1.6653345369377348e-16 V 0.14999999999999983 V 0.2999999999999998 V 0.44999999999999984 V 0.5999999999999999 V 0.7499999999999999 V 0.8999999999999999 V 1.0499999999999998 V 1.1999999999999997 V 1.3499999999999996 V 1.4999999999999996 V 1.6499999999999995 V 1.7999999999999994 V 1.9499999999999993 V 2.099999999999999 V 2.249999999999999 V 2.399999999999999 V 2.549999999999999 V 2.699999999999999 V 2.8499999999999988 V 2.9999999999999987 V 3.1499999999999986 V 4.149999999999999 A 1 1 0 0 0 -5.5 4.149999999999999 V 3.1499999999999986 V 2.9999999999999987 V 2.8499999999999988 V 2.699999999999999 V 2.549999999999999 V 2.399999999999999 V 2.249999999999999 V 2.099999999999999 V 1.9499999999999993 V 1.7999999999999994 V 1.6499999999999995 V 1.4999999999999996 V 1.3499999999999996 V 1.1999999999999997 V 1.0499999999999998 V 0.8999999999999998 V 0.7499999999999998 V 0.5999999999999998 V 0.44999999999999973 M -6.7 0.44999999999999973 H -4.3 M -5.5 0.44999999999999973  M -5.5 -1.0500000000000003  M -5.5 -2.5500000000000003 A 0.25 0.25 0 0 1 -5.5 -3.75 A 0.25 0.25 0 0 1 -5.5 -2.5500000000000003 M -5.5 -3.75 V -6.75 A 1 1 0 0 0 1 -6.75 V -7.75 M -0.19999999999999996 -7.75 H 2.2 M 1 -7.75 V -6.75 A 1 1 0 0 1 -3 -6.75 V -7.75 A 0.25 0.25 0 0 1 -3 -8.95 A 0.25 0.25 0 0 1 -3 -7.75 M -3 -8.95 V -9.1 V -9.25 V -9.4 V -9.55 V -9.700000000000001 V -9.850000000000001 V -10.850000000000001 A 1 1 0 0 0 -8.5 -10.850000000000001 V -9.850000000000001 M -9.7 -9.850000000000001 H -7.3 M -8.5 -9.850000000000001 A 0.25 0.25 0 0 1 -8.5 -8.650000000000002 A 0.25 0.25 0 0 1 -8.5 -9.850000000000001 M -8.5 -8.650000000000002 V -7.650000000000002 A 1 1 0 0 1 -12.5 -7.650000000000002 V -8.650000000000002 M -13.7 -8.650000000000002 H -11.3 M -12.5 -8.650000000000002 M -12.65 -8.650000000000002 M -12.8 -8.650000000000002 M -12.950000000000001 -8.650000000000002 M -13.100000000000001 -8.650000000000002 M -13.250000000000002 -8.650000000000002 M -13.400000000000002 -8.650000000000002 M -13.550000000000002 -8.650000000000002 H -13.700000000000003 H -13.850000000000003 H -14.000000000000004 H -14.500000000000004 M -16.000000000000004 -8.650000000000002  M -17.500000000000004 -8.650000000000002 A 0.25 0.25 0 0 1 -18.700000000000003 -8.650000000000002 A 0.25 0.25 0 0 1 -17.500000000000004 -8.650000000000002 M -18.100000000000005 -8.050000000000002 V -7.0500000000000025 A 1 1 0 0 1 -22.100000000000005 -7.0500000000000025 V -8.050000000000002 M -23.300000000000004 -8.050000000000002 H -20.900000000000006 M -22.100000000000005 -8.050000000000002 V -7.900000000000002 V -7.750000000000002 V -7.600000000000001 V -7.450000000000001 V -7.300000000000001 V -7.15 V -7 V -6.85 V -6.699999999999999 V -6.549999999999999 V -6.399999999999999 V -6.249999999999998 V -6.099999999999998 V -5.9499999999999975 V -5.799999999999997 V -5.649999999999997 V -5.4999999999999964 V -5.349999999999996 V -5.199999999999996 V -5.049999999999995 V -4.899999999999995 V -4.749999999999995 V -4.599999999999994 V -4.449999999999994 V -4.299999999999994 V -4.149999999999993 V -3.9999999999999933 V -3.8499999999999934 V -3.6999999999999935 V -3.5499999999999936 V -3.3999999999999937 V -3.249999999999994 V -3.099999999999994 V -2.949999999999994 V -2.799999999999994 V -2.649999999999994 V -2.4999999999999942 V -2.3499999999999943 V -2.1999999999999944 V -2.0499999999999945 V -1.8999999999999946 V -1.7499999999999947 V -1.5999999999999948 V -1.4499999999999948 V -1.299999999999995 V -1.149999999999995 V -0.999999999999995 V -0.849999999999995 V -0.699999999999995 V -0.5499999999999949 V -0.3999999999999949 V -0.24999999999999492 V -0.09999999999999493 V 0.05000000000000507 V 0.20000000000000506 V 0.3500000000000051 V 0.5000000000000051 V 0.6500000000000051 V 0.8000000000000052 V 0.9500000000000052 V 1.1000000000000052 V 1.250000000000005 V 1.400000000000005 V 1.550000000000005 V 1.7000000000000048 V 1.8500000000000048 V 2.000000000000005 V 2.150000000000005 V 2.3000000000000047 V 2.4500000000000046 V 2.6000000000000045 V 2.7500000000000044 V 2.9000000000000044 V 3.0500000000000043 V 3.200000000000004 V 3.350000000000004 V 3.500000000000004 V 3.650000000000004 V 3.800000000000004 V 3.9500000000000037 V 4.100000000000004 V 4.250000000000004 V 4.400000000000005 V 4.550000000000005 V 4.7000000000000055 V 4.850000000000006 V 5.000000000000006 V 5.150000000000007 V 5.300000000000007 V 5.450000000000007 V 5.600000000000008 V 5.750000000000008 V 5.900000000000008 V 6.050000000000009 V 6.200000000000009 V 6.350000000000009 V 6.50000000000001 V 6.65000000000001 V 6.8000000000000105 V 6.950000000000011 V 7.100000000000011 V 7.2500000000000115 V 7.400000000000012 V 7.550000000000012 V 7.700000000000013 V 7.850000000000013 V 8.000000000000012 V 8.150000000000013 V 8.300000000000013 V 8.450000000000014 V 8.600000000000014 V 8.750000000000014 V 8.900000000000015 V 9.050000000000015 V 9.200000000000015 V 9.350000000000016 V 9.500000000000016 V 9.650000000000016 V 9.800000000000017 V 9.950000000000017 V 10.100000000000017 V 12.100000000000017 H -17.100000000000005 M -17.100000000000005 10.900000000000018 V 13.300000000000017 M -17.100000000000005 12.100000000000017 V 12.250000000000018 V 12.400000000000018 V 12.550000000000018 V 12.700000000000019 V 12.85000000000002 V 13.00000000000002 V 13.15000000000002 V 13.30000000000002 V 13.45000000000002 V 13.600000000000021 V 13.750000000000021 V 13.900000000000022 V 14.050000000000022 V 14.200000000000022 V 14.350000000000023 V 14.500000000000023 V 14.650000000000023 V 14.800000000000024 V 15.800000000000024 A 1 1 0 0 1 -24.600000000000005 15.800000000000024 V 14.800000000000024 V 14.650000000000023 V 14.500000000000023 V 14.350000000000023 V 14.200000000000022 V 14.050000000000022 V 13.900000000000022 V 13.750000000000021 V 13.600000000000021 V 13.45000000000002 V 13.30000000000002 V 13.15000000000002 V 13.00000000000002 V 12.85000000000002 V 12.700000000000019 V 12.550000000000018 V 12.400000000000018 V 12.250000000000018 V 12.100000000000017 A 0.25 0.25 0 0 1 -24.600000000000005 10.900000000000018 A 0.25 0.25 0 0 1 -24.600000000000005 12.100000000000017 M -24.600000000000005 10.900000000000018 V 10.750000000000018 V 10.600000000000017 V 10.450000000000017 V 10.300000000000017 V 10.150000000000016 V 10.000000000000016 V 9.850000000000016 V 9.700000000000015 V 9.550000000000015 V 9.400000000000015 V 9.250000000000014 V 9.100000000000014 V 8.950000000000014 V 8.800000000000013 V 8.650000000000013 V 8.500000000000012 V 8.350000000000012 V 8.200000000000012 V 8.050000000000011 V 7.900000000000011 V 7.750000000000011 V 7.60000000000001 V 6.60000000000001 A 1 1 0 0 0 -28.600000000000005 6.60000000000001 V 7.60000000000001 V 7.750000000000011 V 7.900000000000011 V 8.050000000000011 V 8.200000000000012 V 8.350000000000012 V 8.500000000000012 V 8.650000000000013 V 8.800000000000013 V 8.950000000000014 V 9.100000000000014 V 9.250000000000014 V 9.400000000000015 V 9.550000000000015 V 9.700000000000015 V 9.850000000000016 V 10.000000000000016 V 10.150000000000016 V 10.300000000000017 V 10.450000000000017 V 10.600000000000017 V 10.750000000000018 V 10.900000000000018 V 11.050000000000018 V 11.200000000000019 V 11.35000000000002 V 11.50000000000002 V 11.65000000000002 V 11.80000000000002 V 11.95000000000002 V 12.100000000000021 V 12.250000000000021 V 12.400000000000022 V 12.550000000000022 V 12.700000000000022 V 12.850000000000023 V 13.000000000000023 V 13.150000000000023 V 13.300000000000024 V 13.450000000000024 V 13.600000000000025 M -29.800000000000004 12.400000000000025 L -28.600000000000005 13.600000000000025 L -27.400000000000006 12.400000000000025 M -28.600000000000005 13.600000000000025 M -29.800000000000004 13.300000000000026 L -28.600000000000005 14.500000000000025 L -27.400000000000006 13.300000000000026 M -28.600000000000005 14.500000000000025 V 16.400000000000027 A 1 1 0 0 0 -13.100000000000005 16.400000000000027 V 15.400000000000025 A 0.25 0.25 0 0 1 -13.100000000000005 14.200000000000026 A 0.25 0.25 0 0 1 -13.100000000000005 15.400000000000025 M -13.100000000000005 14.200000000000026 V 13.200000000000026 A 1 1 0 0 1 -9.100000000000005 13.200000000000026 V 14.200000000000026 M -10.300000000000004 14.200000000000026 H -7.900000000000005 M -9.100000000000005 14.200000000000026 H -8.950000000000005 H -8.800000000000004 H -8.650000000000004 H -8.500000000000004 H -8.350000000000003 H -8.200000000000003 H -8.050000000000002 H -7.900000000000002 H -7.750000000000002 H -7.600000000000001 H -7.450000000000001 H -7.300000000000001 H -7.15 H -7 H -6.85 H -6.699999999999999 H -6.549999999999999 H -6.399999999999999 H -6.249999999999998 H -6.099999999999998 H -5.9499999999999975 H -5.799999999999997 H -5.649999999999997 H -5.4999999999999964 H -5.349999999999996 H -5.199999999999996 H -5.049999999999995 H -4.899999999999995 H -4.749999999999995 H -4.599999999999994 H -4.449999999999994 H -4.299999999999994 H -4.149999999999993 H -3.9999999999999933 H -3.8499999999999934 H -3.6999999999999935 H -3.5499999999999936 H -3.3999999999999937 H -3.249999999999994 H -3.099999999999994 H -2.949999999999994 H -2.799999999999994 A 0.25 0.25 0 0 1 -1.599999999999994 14.200000000000026 A 0.25 0.25 0 0 1 -2.799999999999994 14.200000000000026 M -1.599999999999994 14.200000000000026 M -1.749999999999994 14.200000000000026 M -1.899999999999994 14.200000000000026 M -2.049999999999994 14.200000000000026 M -2.199999999999994 14.200000000000026 M -2.199999999999994 14.350000000000026 M -2.199999999999994 14.500000000000027 M -2.199999999999994 14.650000000000027 M -2.199999999999994 14.800000000000027 V 14.950000000000028 V 15.100000000000028 V 15.250000000000028 V 15.400000000000029 V 15.55000000000003 V 15.70000000000003 V 15.85000000000003 V 16.00000000000003 V 16.150000000000027 V 16.300000000000026 V 16.450000000000024 V 16.600000000000023 V 16.75000000000002 V 16.90000000000002 V 17.05000000000002 V 17.200000000000017 V 17.350000000000016 V 17.500000000000014 V 17.650000000000013 V 17.80000000000001 V 17.95000000000001 V 18.10000000000001 V 18.250000000000007 V 18.400000000000006 V 18.550000000000004 V 18.700000000000003 V 19.700000000000003 A 1 1 0 0 1 -7.199999999999994 19.700000000000003 V 18.700000000000003 V 18.550000000000004 V 18.400000000000006 V 18.250000000000007 V 18.10000000000001 V 17.95000000000001 V 17.80000000000001 V 17.650000000000013 V 17.500000000000014 V 17.350000000000016 V 17.200000000000017 V 17.05000000000002 V 16.90000000000002 M -8.399999999999993 16.90000000000002 H -5.999999999999994 M -7.199999999999994 16.90000000000002 V 17.05000000000002 V 17.200000000000017 V 17.350000000000016 V 17.500000000000014 V 17.650000000000013 V 17.80000000000001 V 17.95000000000001 V 18.10000000000001 V 18.250000000000007 V 18.400000000000006 V 18.550000000000004 V 18.700000000000003 V 18.85 V 19 V 19.15 V 19.299999999999997 V 19.449999999999996 V 19.599999999999994 V 19.749999999999993 V 19.89999999999999 V 20.04999999999999 V 20.19999999999999 V 20.349999999999987 V 20.499999999999986 V 20.649999999999984 V 20.799999999999983 V 20.94999999999998 V 21.09999999999998 V 21.24999999999998 V 21.399999999999977 V 21.549999999999976 V 21.699999999999974 V 21.849999999999973 V 21.99999999999997 V 22.14999999999997 V 22.29999999999997 V 22.449999999999967 V 24.449999999999967 H -2.199999999999994 H -2.049999999999994 H -1.8999999999999941 H -1.7499999999999942 H -1.5999999999999943 H -1.4499999999999944 H -1.2999999999999945 H -1.1499999999999946 H -0.9999999999999946 H -0.8499999999999945 H -0.6999999999999945 H -0.5499999999999945 H -0.39999999999999447 H -0.24999999999999448 H -0.09999999999999448 H 0.05000000000000551 H 0.2000000000000055 H 0.35000000000000553 H 0.5000000000000056 H 0.6500000000000056 H 0.8000000000000056 V 24.29999999999997 V 24.14999999999997 V 23.99999999999997 V 23.849999999999973 V 23.699999999999974 V 23.549999999999976 V 23.399999999999977 V 23.24999999999998 V 23.09999999999998 V 22.94999999999998 V 22.799999999999983 V 22.649999999999984 V 22.499999999999986 V 22.349999999999987 V 22.19999999999999 V 22.04999999999999 V 21.89999999999999 V 21.749999999999993 V 21.599999999999994 V 21.449999999999996 V 21.299999999999997 V 21.15 V 21 V 20.85 V 20.700000000000003 V 20.550000000000004 V 20.400000000000006 V 20.250000000000007 V 20.10000000000001 V 19.95000000000001 V 19.80000000000001 V 19.650000000000013 V 19.500000000000014 V 19.350000000000016 V 19.200000000000017 V 19.05000000000002 V 18.90000000000002 V 18.75000000000002 V 18.600000000000023 V 18.450000000000024 V 18.300000000000026 V 18.150000000000027 V 18.00000000000003 V 17.85000000000003 V 17.70000000000003 V 17.550000000000033 V 17.400000000000034 V 17.250000000000036 V 17.100000000000037 V 16.95000000000004 V 16.80000000000004 V 16.65000000000004 V 16.500000000000043 V 16.350000000000044 V 16.200000000000045 V 16.050000000000047 V 15.900000000000047 V 15.750000000000046 V 15.600000000000046 V 15.450000000000045 V 15.300000000000045 V 15.150000000000045 V 15.000000000000044 V 14.850000000000044 V 14.700000000000044 V 14.550000000000043 V 14.400000000000043 V 14.250000000000043 V 14.100000000000042 V 13.950000000000042 V 13.800000000000042 V 13.650000000000041 V 13.50000000000004 V 12.50000000000004 A 1 1 0 0 1 4.800000000000006 12.50000000000004 V 13.50000000000004 V 15.50000000000004 H 9.800000000000006 H 10.300000000000006 M 11.800000000000006 15.50000000000004 M 11.800000000000006 14.300000000000042 V 16.700000000000042 M 11.800000000000006 15.50000000000004 V 15.35000000000004 V 15.20000000000004 V 15.05000000000004 V 14.90000000000004 V 14.750000000000039 V 14.600000000000039 V 14.450000000000038 V 14.300000000000038 V 14.150000000000038 V 14.000000000000037 V 13.850000000000037 V 13.700000000000037 V 13.550000000000036 V 13.400000000000036 V 13.250000000000036 V 13.100000000000035 V 12.950000000000035 V 12.800000000000034 V 12.650000000000034 V 12.500000000000034 V 12.350000000000033 V 12.200000000000033 V 12.050000000000033 V 11.900000000000032 V 11.750000000000032 V 11.600000000000032 V 11.450000000000031 V 11.300000000000031 V 11.15000000000003 V 11.00000000000003 V 10.85000000000003 V 10.70000000000003 V 10.55000000000003 V 10.400000000000029 V 10.250000000000028 V 10.100000000000028 V 9.950000000000028 V 9.800000000000027 V 9.650000000000027 V 9.500000000000027 V 9.350000000000026 V 9.200000000000026 V 9.050000000000026 V 8.900000000000025 V 8.750000000000025 V 8.600000000000025 V 8.450000000000024 V 8.300000000000024 V 8.150000000000023 V 8.000000000000023 V 7.850000000000023 V 7.700000000000022 V 7.550000000000022 V 7.400000000000022 V 7.250000000000021 V 7.100000000000021 V 6.950000000000021 V 6.80000000000002 V 6.65000000000002 V 6.5000000000000195 V 6.350000000000019 V 6.200000000000019 V 6.0500000000000185 V 5.900000000000018 V 5.750000000000018 V 5.600000000000017 V 5.450000000000017 V 5.300000000000017 V 5.150000000000016 V 5.000000000000016 V 4.850000000000016 V 4.700000000000015 V 4.550000000000015 V 4.400000000000015 V 4.250000000000014 V 4.100000000000014 V 3.950000000000014 V 3.800000000000014 V 3.650000000000014 V 3.500000000000014 V 3.3500000000000143 V 3.2000000000000144 V 3.0500000000000145 V 2.9000000000000146 V 2.7500000000000147 V 2.6000000000000147 V 2.450000000000015 V 2.300000000000015 V 2.150000000000015 V 1.150000000000015 A 1 1 0 0 0 7.800000000000006 1.150000000000015 V 2.150000000000015 V 2.300000000000015 V 2.450000000000015 V 2.6000000000000147 V 2.7500000000000147 V 2.9000000000000146 V 3.0500000000000145 V 3.2000000000000144 V 3.3500000000000143 V 3.500000000000014 V 3.650000000000014 V 3.800000000000014 V 3.950000000000014 V 4.100000000000014 V 4.250000000000014 V 4.400000000000015 V 4.550000000000015 V 4.700000000000015 V 4.850000000000016 V 5.000000000000016 V 5.150000000000016 V 5.300000000000017 V 5.450000000000017 V 5.600000000000017 V 5.750000000000018 V 5.900000000000018 V 6.0500000000000185 V 6.200000000000019 V 6.350000000000019 V 6.5000000000000195 V 6.65000000000002 V 6.80000000000002 V 6.950000000000021 V 7.100000000000021 V 7.250000000000021 V 7.400000000000022 V 7.550000000000022 V 7.700000000000022 V 7.850000000000023 V 8.000000000000023 V 8.150000000000023 V 8.300000000000024 V 8.450000000000024 V 8.600000000000025 V 8.750000000000025 V 8.900000000000025 V 9.050000000000026 V 9.200000000000026 V 9.350000000000026 V 9.500000000000027 V 9.650000000000027 V 9.800000000000027 V 9.950000000000028 V 10.100000000000028 V 10.250000000000028 V 10.400000000000029 V 10.55000000000003 V 10.70000000000003 V 10.85000000000003 V 11.00000000000003 V 11.15000000000003 V 11.300000000000031 V 11.450000000000031 V 11.600000000000032 V 11.750000000000032 V 11.900000000000032 V 12.050000000000033 V 12.200000000000033 V 12.350000000000033 V 12.500000000000034 V 12.650000000000034 V 12.800000000000034 V 12.950000000000035 V 13.100000000000035 V 13.250000000000036 V 13.400000000000036 V 13.550000000000036 V 13.700000000000037 V 13.850000000000037 V 14.350000000000037 M 7.800000000000006 15.850000000000037 M 7.800000000000006 16.000000000000036 M 7.800000000000006 16.150000000000034 M 7.800000000000006 16.300000000000033 M 7.800000000000006 16.45000000000003 M 7.800000000000006 16.60000000000003 V 20.60000000000003 V 19.60000000000003 A 1 1 0 0 0 3.800000000000006 19.60000000000003 V 20.60000000000003 V 22.60000000000003 H 8.800000000000006 H 8.950000000000006 H 9.100000000000007 H 9.250000000000007 H 9.400000000000007 H 9.550000000000008 H 9.700000000000008 H 9.850000000000009 H 10.000000000000009 H 10.15000000000001 H 10.30000000000001 H 10.45000000000001 H 10.60000000000001 H 10.75000000000001 H 10.900000000000011 H 11.050000000000011 H 11.200000000000012 H 11.350000000000012 H 11.500000000000012 H 11.650000000000013 H 11.800000000000013 H 11.950000000000014 H 12.100000000000014 H 12.250000000000014 H 12.400000000000015 H 12.550000000000015 H 12.700000000000015 H 12.850000000000016 H 13.000000000000016 H 13.150000000000016 H 13.300000000000017 H 13.450000000000017 H 13.600000000000017 H 13.750000000000018 H 13.900000000000018 H 14.050000000000018 H 14.200000000000019 M 14.200000000000019 21.40000000000003 V 23.80000000000003 M 14.200000000000019 22.60000000000003 V 22.45000000000003 V 22.300000000000033 V 22.150000000000034 V 22.000000000000036 V 21.850000000000037 V 21.70000000000004 V 21.55000000000004 V 21.40000000000004 V 21.250000000000043 V 21.100000000000044 V 20.950000000000045 V 20.800000000000047 V 20.65000000000005 V 20.50000000000005 V 20.35000000000005 V 20.200000000000053 V 20.050000000000054 V 19.900000000000055 V 19.750000000000057 V 19.60000000000006 V 19.45000000000006 V 19.30000000000006 V 19.150000000000063 V 19.000000000000064 V 18.850000000000065 V 18.700000000000067 V 18.550000000000068 A 0.25 0.25 0 0 1 14.200000000000019 17.35000000000007 A 0.25 0.25 0 0 1 14.200000000000019 18.550000000000068 M 14.200000000000019 17.35000000000007 V 17.20000000000007 V 17.05000000000007 V 16.900000000000073 V 16.750000000000075 V 16.600000000000076 V 16.450000000000077 V 16.30000000000008 V 16.15000000000008 V 16.00000000000008 V 15.850000000000081 V 15.700000000000081 V 15.55000000000008 V 15.40000000000008 V 15.25000000000008 V 15.10000000000008 V 14.95000000000008 V 14.800000000000079 V 14.650000000000079 V 14.500000000000078 V 14.350000000000078 V 14.200000000000077 V 14.050000000000077 V 13.900000000000077 V 13.750000000000076 V 13.600000000000076 V 13.450000000000076 V 13.300000000000075 V 13.150000000000075 V 13.000000000000075 V 12.850000000000074 V 12.700000000000074 V 12.550000000000074 V 12.400000000000073 V 12.250000000000073 V 12.100000000000072 V 11.950000000000072 V 11.800000000000072 V 11.650000000000071 V 11.500000000000071 V 11.35000000000007 V 11.20000000000007 V 11.05000000000007 V 10.90000000000007 V 10.75000000000007 V 10.600000000000069 V 10.450000000000069 V 10.300000000000068 V 10.150000000000068 V 10.000000000000068 V 9.850000000000067 V 9.700000000000067 V 9.550000000000066 V 9.400000000000066 V 9.250000000000066 V 9.100000000000065 V 8.950000000000065 V 8.800000000000065 V 8.650000000000064 V 8.500000000000064 V 8.350000000000064 V 8.200000000000063 V 8.050000000000063 V 7.9000000000000625 V 7.750000000000062 V 7.600000000000062 V 7.4500000000000615 V 7.300000000000061 V 7.150000000000061 V 7.00000000000006 V 6.85000000000006 V 6.70000000000006 V 6.550000000000059 V 6.400000000000059 V 6.250000000000059 V 6.100000000000058 V 5.950000000000058 V 5.8000000000000576 V 5.650000000000057 V 5.500000000000057 V 5.3500000000000565 V 5.200000000000056 V 5.050000000000056 V 4.900000000000055 V 4.750000000000055 V 4.600000000000055 V 4.450000000000054 V 4.300000000000054 V 4.150000000000054 V 4.000000000000053 V 3.8500000000000534 V 3.7000000000000535 V 3.5500000000000536 V 3.4000000000000536 V 3.2500000000000537 V 3.100000000000054 V 2.950000000000054 V 2.800000000000054 V 2.650000000000054 V 2.500000000000054 V 2.3500000000000543 V 2.2000000000000544 V 2.0500000000000544 V 1.9000000000000545 V 1.7500000000000546 V 1.6000000000000547 V 1.4500000000000548 V 1.300000000000055 V 1.150000000000055 V 1.000000000000055 V 0.850000000000055 V 0.700000000000055 V 0.550000000000055 V 0.400000000000055 V 0.25000000000005496 V 0.10000000000005496 V -0.04999999999994503 V -0.19999999999994503 V -0.349999999999945 V -0.49999999999994504 V -0.6499999999999451 V -0.7999999999999451 V -0.9499999999999451 V -1.099999999999945 V -1.249999999999945 V -1.3999999999999448 V -1.5499999999999448 V -1.6999999999999447 V -1.8499999999999446 V -1.9999999999999445 V -2.1499999999999444 V -2.2999999999999443 V -2.4499999999999442 V -2.599999999999944 V -2.749999999999944 V -2.899999999999944 V -3.049999999999944 V -3.199999999999944 V -3.3499999999999437 V -3.4999999999999436 V -3.6499999999999435 V -3.7999999999999434 V -3.9499999999999433 V -4.099999999999944 V -4.249999999999944 V -4.399999999999944 V -4.549999999999945 V -4.699999999999945 V -4.8499999999999455 V -4.999999999999946 V -5.149999999999946 V -5.2999999999999465 V -5.449999999999947 V -5.599999999999947 V -5.749999999999948 V -5.899999999999948 V -6.049999999999948 V -6.199999999999949 V -6.349999999999949 V -6.499999999999949 V -6.64999999999995 V -6.79999999999995 V -6.94999999999995 V -7.099999999999951 V -7.249999999999951 V -7.3999999999999515 V -7.549999999999952 V -7.699999999999952 V -7.849999999999953 V -7.999999999999953 V -8.149999999999952 V -8.299999999999953 V -8.449999999999953 V -8.599999999999953 V -8.749999999999954 V -8.899999999999954 V -9.049999999999955 V -9.199999999999955 V -9.349999999999955 V -9.499999999999956 V -9.649999999999956 V -9.799999999999956 V -9.949999999999957 V -10.099999999999957 V -10.249999999999957 V -10.399999999999958 V -9.399999999999958 A 1 1 0 0 1 6.700000000000019 -9.399999999999958 V -10.399999999999958 M 5.500000000000019 -10.399999999999958 H 7.900000000000019 M 6.700000000000019 -10.399999999999958 V -10.549999999999958 V -10.699999999999958 V -10.849999999999959 V -10.99999999999996 V -11.14999999999996 V -11.29999999999996 V -11.44999999999996 V -11.59999999999996 V -11.749999999999961 V -11.899999999999961 V -12.049999999999962 V -13.049999999999962 A 1 1 0 0 1 17.700000000000017 -13.049999999999962 V -12.049999999999962 V -11.549999999999962 M 17.700000000000017 -10.049999999999962 V -9.549999999999962 V -9.399999999999961 V -9.249999999999961 V -9.09999999999996 V -8.94999999999996 V -8.79999999999996 V -8.64999999999996 V -8.49999999999996 V -8.349999999999959 V -8.199999999999958 V -8.049999999999958 V -7.899999999999958 V -7.749999999999957 V -7.599999999999957 V -7.449999999999957 V -7.299999999999956 V -7.149999999999956 V -6.999999999999956 V -6.849999999999955 V -6.699999999999955 V -6.5499999999999545 V -6.399999999999954 V -6.249999999999954 V -6.0999999999999535 V -5.949999999999953 V -5.799999999999953 V -5.649999999999952 V -5.499999999999952 V -5.349999999999952 V -5.199999999999951 V -5.049999999999951 V -4.899999999999951 V -4.74999999999995 V -4.59999999999995 V -4.4499999999999496 V -4.299999999999949 V -4.149999999999949 V -3.999999999999949 V -3.849999999999949 V -3.699999999999949 V -3.549999999999949 V -3.3999999999999493 V -3.2499999999999494 V -3.0999999999999495 V -2.9499999999999496 V -2.7999999999999496 V -2.6499999999999497 V -2.49999999999995 V -2.34999999999995 V -2.19999999999995 V -2.04999999999995 V -1.8999999999999502 V -1.7499999999999503 V -1.5999999999999504 V -1.4499999999999504 V -1.2999999999999505 V -1.1499999999999506 V -0.9999999999999506 V -0.8499999999999506 V -0.6999999999999506 V -0.5499999999999505 V -0.3999999999999505 V -0.2499999999999505 V -0.09999999999995052 V 0.05000000000004948 V 0.20000000000004947 V 0.3500000000000495 V 0.5000000000000495 V 0.6500000000000495 V 0.8000000000000496 V 0.9500000000000496 V 1.1000000000000496 V 1.2500000000000495 V 1.4000000000000494 V 1.5500000000000493 V 1.7000000000000492 V 1.8500000000000492 V 2.0000000000000493 V 2.150000000000049 V 2.300000000000049 V 2.450000000000049 V 2.600000000000049 V 2.750000000000049 V 2.9000000000000488 V 3.0500000000000487 V 3.2000000000000486 V 3.3500000000000485 V 3.5000000000000484 V 3.6500000000000483 V 3.8000000000000482 V 3.950000000000048 V 4.1000000000000485 V 4.250000000000049 V 4.400000000000049 V 4.55000000000005 V 4.70000000000005 V 4.85000000000005 V 5.000000000000051 V 5.150000000000051 V 5.300000000000051 V 5.450000000000052 V 5.600000000000052 V 5.750000000000052 V 5.900000000000053 V 6.050000000000053 V 6.2000000000000535 V 6.350000000000054 V 6.500000000000054 V 6.6500000000000545 V 6.800000000000055 V 6.950000000000055 V 7.100000000000056 V 7.250000000000056 V 7.400000000000056 V 7.550000000000057 V 7.700000000000057 V 7.850000000000057 V 8.000000000000057 V 8.150000000000057 V 8.300000000000058 V 8.450000000000058 V 9.450000000000058 A 1 1 0 0 0 21.700000000000017 9.450000000000058 V 8.450000000000058 V 8.300000000000058 V 8.150000000000057 V 8.000000000000057 V 7.8500000000000565 V 7.700000000000056 V 7.550000000000056 V 7.400000000000055 V 7.250000000000055 V 7.100000000000055 V 6.950000000000054 V 6.800000000000054 V 6.650000000000054 V 6.500000000000053 V 6.350000000000053 V 6.200000000000053 V 6.050000000000052 V 5.900000000000052 V 5.7500000000000515 V 5.600000000000051 V 5.450000000000051 V 5.3000000000000504 V 5.15000000000005 V 5.00000000000005 V 4.850000000000049 V 4.700000000000049 V 4.550000000000049 V 4.400000000000048 V 4.250000000000048 V 4.100000000000048 V 3.9500000000000477 V 3.800000000000048 V 3.650000000000048 V 3.500000000000048 V 3.350000000000048 V 3.200000000000048 V 3.0500000000000482 V 2.9000000000000483 V 2.7500000000000484 V 2.6000000000000485 V 2.4500000000000486 V 2.3000000000000487 V 2.1500000000000488 V 2.000000000000049 V 1.850000000000049 V 1.700000000000049 V 1.5500000000000491 V 1.4000000000000492 V 1.2500000000000493 V 1.1000000000000494 V 0.9500000000000494 V 0.8000000000000493 V 0.6500000000000493 V 0.5000000000000493 V 0.35000000000004927 V 0.20000000000004928 V 0.05000000000004928 V -0.09999999999995071 V -0.2499999999999507 V -0.39999999999995073 V -0.5499999999999508 V -0.6999999999999508 V -0.8499999999999508 V -0.9999999999999508 V -1.1499999999999508 V -1.2999999999999508 V -1.4499999999999507 V -1.5999999999999506 V -1.7499999999999505 V -1.8999999999999504 V -2.0499999999999505 V -2.1999999999999504 V -2.3499999999999504 V -2.4999999999999503 V -2.64999999999995 V -2.79999999999995 V -2.94999999999995 V -3.09999999999995 V -3.24999999999995 V -3.3999999999999497 V -3.5499999999999496 V -3.6999999999999496 V -3.8499999999999495 V -3.9999999999999494 V -4.14999999999995 V -4.29999999999995 V -4.44999999999995 V -4.599999999999951 V -4.749999999999951 V -4.8999999999999515 V -5.049999999999952 V -5.199999999999952 V -5.349999999999953 V -5.499999999999953 V -5.649999999999953 V -5.799999999999954 V -5.949999999999954 V -6.099999999999954 V -6.249999999999955 V -6.399999999999955 V -6.549999999999955 V -6.699999999999956 V -6.849999999999956 V -6.9999999999999565 V -7.149999999999957 V -7.299999999999957 V -7.4499999999999575 V -7.599999999999958 V -7.749999999999958 V -7.899999999999959 V -8.049999999999958 V -8.199999999999958 V -8.349999999999959 V -8.49999999999996 V -8.64999999999996 V -8.79999999999996 V -8.94999999999996 V -9.09999999999996 V -9.249999999999961 V -9.399999999999961 V -9.549999999999962 V -9.699999999999962 V -9.849999999999962 V -9.999999999999963 V -10.149999999999963 V -10.299999999999963 V -10.449999999999964 V -10.599999999999964 V -10.749999999999964 V -10.899999999999965 V -11.049999999999965 V -11.199999999999966 V -11.349999999999966 V -11.499999999999966 V -11.649999999999967 V -11.799999999999967 V -11.949999999999967 V -12.099999999999968 V -12.249999999999968 V -12.399999999999968 V -12.549999999999969 V -12.699999999999969 V -12.84999999999997 V -12.99999999999997 V -13.14999999999997 V -13.29999999999997 V -13.44999999999997 V -13.599999999999971 V -13.749999999999972 V -13.899999999999972 V -14.049999999999972 V -14.199999999999973 V -14.349999999999973 V -14.499999999999973 V -14.649999999999974 V -14.799999999999974 V -14.949999999999974 V -15.099999999999975 V -15.249999999999975 V -15.399999999999975 V -15.549999999999976 V -15.699999999999976 V -15.849999999999977 V -15.999999999999977 V -16.149999999999977 V -16.299999999999976 V -16.449999999999974 V -16.599999999999973 V -16.74999999999997 V -16.89999999999997 V -17.04999999999997 V -17.199999999999967 V -17.349999999999966 V -17.499999999999964 V -17.649999999999963 V -17.79999999999996 V -17.94999999999996 V -18.09999999999996 V -18.249999999999957 V -18.399999999999956 V -18.549999999999955 V -18.699999999999953 V -18.84999999999995 V -18.99999999999995 V -19.14999999999995 V -19.299999999999947 V -19.449999999999946 V -19.599999999999945 V -19.749999999999943 V -19.89999999999994 V -20.04999999999994 V -20.19999999999994 V -20.349999999999937 V -20.499999999999936 V -20.649999999999935 V -20.799999999999933 V -20.949999999999932 V -21.09999999999993 V -21.59999999999993 M 21.700000000000017 -23.09999999999993 M 20.500000000000018 -23.09999999999993 H 22.900000000000016 M 21.700000000000017 -23.09999999999993 H 21.55000000000002 H 21.40000000000002 H 21.25000000000002 H 21.100000000000023 H 20.950000000000024 H 20.800000000000026 H 20.650000000000027 H 20.50000000000003 H 20.35000000000003 H 20.20000000000003 H 20.050000000000033 H 19.900000000000034 H 19.750000000000036 H 19.600000000000037 H 19.45000000000004 H 19.30000000000004 H 19.15000000000004 H 19.000000000000043 H 18.850000000000044 H 18.700000000000045 H 18.550000000000047 H 18.40000000000005 H 18.25000000000005 H 18.10000000000005 H 17.950000000000053 H 17.800000000000054 H 17.650000000000055 H 17.500000000000057 H 17.35000000000006 H 17.20000000000006 H 17.05000000000006 H 16.900000000000063 H 16.750000000000064 H 16.600000000000065 H 16.450000000000067 H 16.300000000000068 H 16.15000000000007 H 16.00000000000007 H 15.85000000000007 H 15.70000000000007 H 15.55000000000007 H 15.40000000000007 H 15.25000000000007 H 15.100000000000069 H 14.950000000000069 H 14.800000000000068 H 14.650000000000068 H 14.500000000000068 H 14.350000000000067 H 14.200000000000067 H 14.050000000000066 H 13.900000000000066 H 13.750000000000066 H 13.600000000000065 H 13.450000000000065 H 13.300000000000065 H 13.150000000000064 H 13.000000000000064 H 12.850000000000064 H 12.700000000000063 H 12.550000000000063 H 12.400000000000063 H 12.250000000000062 H 12.100000000000062 H 11.950000000000061 H 11.800000000000061 H 11.65000000000006 H 11.50000000000006 H 11.35000000000006 H 11.20000000000006 H 11.05000000000006 H 10.900000000000059 H 10.750000000000059 H 10.600000000000058 H 10.450000000000058 H 10.300000000000058 H 10.150000000000057 H 10.000000000000057 H 9.850000000000056 H 9.700000000000056 H 9.550000000000056 H 9.400000000000055 H 9.250000000000055 H 9.100000000000055 H 8.950000000000054 H 8.800000000000054 H 8.650000000000054 H 8.500000000000053 H 8.350000000000053 H 8.200000000000053 H 8.050000000000052 H 7.900000000000052 H 7.7500000000000515 H 7.600000000000051 H 7.450000000000051 H 7.3000000000000504 H 7.15000000000005 H 7.00000000000005 H 6.850000000000049 H 6.700000000000049 H 6.550000000000049 H 6.400000000000048 H 6.250000000000048 H 6.100000000000048 H 5.950000000000047 H 5.800000000000047 H 5.6500000000000465 H 5.500000000000046 H 5.350000000000046 H 5.2000000000000455 H 5.050000000000045 H 4.900000000000045 H 4.750000000000044 H 4.600000000000044 H 4.450000000000044 H 4.300000000000043 H 4.150000000000043 H 4.000000000000043 H 3.8500000000000427 H 3.700000000000043 H 3.550000000000043 H 3.400000000000043 H 3.250000000000043 H 3.100000000000043 H 2.9500000000000433 H 2.8000000000000433 H 2.6500000000000434 H 2.5000000000000435 H 2.3500000000000436 H 2.2000000000000437 H 2.050000000000044 H 1.9000000000000439 H 1.750000000000044 H 1.600000000000044 H 1.4500000000000441 H 1.3000000000000442 H 1.1500000000000443 H 1.0000000000000444 H 0.8500000000000444 H 0.7000000000000444 H 0.5500000000000443 H 0.4000000000000443 H 0.2500000000000443 H 0.1000000000000443 H -0.04999999999995569 H -0.19999999999995569 H -0.3499999999999557 H -0.4999999999999557 H -0.6499999999999557 H -0.7999999999999557 H -0.9499999999999558 H -1.0999999999999557 H -1.2499999999999556 H -1.3999999999999555 H -1.5499999999999554 H -1.6999999999999553 H -1.8499999999999552 H -1.9999999999999551 H -2.149999999999955 H -2.299999999999955 H -2.449999999999955 H -2.599999999999955 H -2.7499999999999547 H -2.8999999999999546 H -3.0499999999999545 H -3.1999999999999544 H -3.3499999999999543 H -3.4999999999999543 H -3.649999999999954 H -3.799999999999954 H -3.949999999999954 H -4.099999999999954 H -4.249999999999955 H -4.399999999999955 H -4.549999999999955 H -4.699999999999956 H -4.849999999999956 H -4.9999999999999565 H -5.149999999999957 H -5.299999999999957 H -5.4499999999999575 H -5.599999999999958 H -5.749999999999958 H -5.899999999999959 H -6.049999999999959 H -6.199999999999959 H -6.34999999999996 H -6.49999999999996 H -6.64999999999996 H -6.799999999999961 H -6.949999999999961 H -7.0999999999999615 H -7.249999999999962 H -7.399999999999962 H -7.5499999999999625 H -7.699999999999963 H -7.849999999999963 H -7.999999999999964 H -8.149999999999963 H -8.299999999999963 H -8.449999999999964 H -8.599999999999964 H -8.749999999999964 H -8.899999999999965 H -9.049999999999965 H -9.199999999999966 H -9.349999999999966 H -9.499999999999966 H -9.649999999999967 H -9.799999999999967 H -9.949999999999967 H -10.099999999999968 H -10.249999999999968 H -10.399999999999968 H -10.549999999999969 H -10.699999999999969 H -10.84999999999997 H -10.99999999999997 H -11.14999999999997 H -11.64999999999997 M -13.14999999999997 -23.09999999999993  M -14.64999999999997 -23.09999999999993 A 0.25 0.25 0 0 1 -15.84999999999997 -23.09999999999993 A 0.25 0.25 0 0 1 -14.64999999999997 -23.09999999999993 M -15.84999999999997 -23.09999999999993 M -15.699999999999969 -23.09999999999993 M -15.549999999999969 -23.09999999999993 M -15.399999999999968 -23.09999999999993 M -15.249999999999968 -23.09999999999993 M -15.249999999999968 -22.949999999999932 M -15.249999999999968 -22.799999999999933 M -15.249999999999968 -22.649999999999935 M -15.249999999999968 -22.499999999999936 V -22.349999999999937 V -22.19999999999994 V -22.04999999999994 V -21.89999999999994 V -21.749999999999943 V -21.599999999999945 V -21.449999999999946 V -21.299999999999947 V -21.14999999999995 V -20.99999999999995 V -20.84999999999995 V -20.699999999999953 V -20.549999999999955 V -19.549999999999955 A 1 1 0 0 1 -19.249999999999968 -19.549999999999955 V -20.549999999999955 V -20.699999999999953 V -20.84999999999995 V -20.99999999999995 V -21.14999999999995 V -21.299999999999947 V -21.449999999999946 V -21.599999999999945 V -21.749999999999943 V -21.89999999999994 V -22.04999999999994 V -22.19999999999994 V -22.349999999999937 V -22.499999999999936 M -20.449999999999967 -22.499999999999936 H -18.04999999999997 M -19.249999999999968 -22.499999999999936 V -23.499999999999936 A 1 1 0 0 0 -26.749999999999968 -23.499999999999936 V -22.499999999999936 V -21.999999999999936 M -26.749999999999968 -20.499999999999936 V -19.999999999999936 V -19.849999999999937 V -19.69999999999994 V -19.54999999999994 V -19.39999999999994 V -19.249999999999943 V -19.099999999999945 V -18.949999999999946 V -18.799999999999947 V -18.64999999999995 V -18.49999999999995 V -18.34999999999995 V -18.199999999999953 V -18.049999999999955 V -17.899999999999956 V -17.749999999999957 V -17.59999999999996 V -17.44999999999996 V -17.29999999999996 V -17.149999999999963 V -16.999999999999964 V -16.849999999999966 V -16.699999999999967 V -16.54999999999997 V -16.39999999999997 V -16.24999999999997 V -16.099999999999973 V -15.949999999999973 V -15.799999999999972 V -15.649999999999972 V -15.499999999999972 V -15.349999999999971 V -15.19999999999997 V -15.04999999999997 V -14.89999999999997 V -14.74999999999997 V -14.59999999999997 V -14.449999999999969 V -14.299999999999969 V -14.149999999999968 V -13.999999999999968 V -13.849999999999968 V -13.699999999999967 V -13.549999999999967 V -13.399999999999967 V -13.249999999999966 V -13.099999999999966 V -12.949999999999966 V -12.799999999999965 V -12.649999999999965 V -12.499999999999964 V -12.349999999999964 V -12.199999999999964 V -12.049999999999963 V -11.899999999999963 V -11.749999999999963 V -11.599999999999962 V -11.449999999999962 V -11.299999999999962 V -11.149999999999961 V -10.999999999999961 V -10.84999999999996 V -10.69999999999996 V -10.54999999999996 V -10.39999999999996 V -10.24999999999996 V -10.099999999999959 V -9.949999999999958 V -9.799999999999958 V -9.649999999999958 V -9.499999999999957 V -9.349999999999957 V -9.199999999999957 V -9.049999999999956 V -8.899999999999956 V -8.749999999999956 V -8.599999999999955 V -8.449999999999955 V -8.299999999999955 V -8.149999999999954 V -7.999999999999954 V -7.8499999999999535 V -7.699999999999953 V -7.549999999999953 V -7.399999999999952 V -7.249999999999952 V -7.099999999999952 V -6.949999999999951 V -6.799999999999951 V -6.649999999999951 V -6.49999999999995 V -6.34999999999995 V -6.1999999999999496 V -6.049999999999949 V -5.899999999999949 V -5.7499999999999485 V -5.599999999999948 V -5.449999999999948 V -5.299999999999947 V -5.149999999999947 V -4.999999999999947 V -4.849999999999946 V -4.699999999999946 V -4.549999999999946 V -4.399999999999945 V -4.249999999999945 V -4.099999999999945 V -3.9499999999999447 V -3.7999999999999448 V -3.649999999999945 V -3.499999999999945 V -3.349999999999945 V -3.199999999999945 V -3.049999999999945 V -2.8999999999999453 V -2.7499999999999454 V -2.5999999999999455 V -2.4499999999999456 V -2.2999999999999456 V -2.1499999999999457 V -1.9999999999999458 V -1.849999999999946 V -1.699999999999946 V -1.549999999999946 V -1.3999999999999462 V -1.2499999999999463 V -1.0999999999999464 V 0.9000000000000536 H -31.749999999999968 M -31.749999999999968 -0.2999999999999463 V 2.100000000000054 M -31.749999999999968 0.9000000000000536 V 0.7500000000000536 V 0.6000000000000536 V 0.4500000000000536 V 0.30000000000005356 V 0.15000000000005356 V 5.35682609381638e-14 V -0.14999999999994643 V -0.2999999999999464 V -0.44999999999994644 V -0.5999999999999465 V -0.7499999999999465 V -0.8999999999999465 V -1.0499999999999465 V -1.1999999999999464 V -1.3499999999999464 V -1.4999999999999463 V -1.6499999999999462 V -1.799999999999946 V -1.949999999999946 V -2.099999999999946 V -2.249999999999946 V -2.3999999999999457 V -2.5499999999999456 V -2.6999999999999456 V -2.8499999999999455 V -2.9999999999999454 V -3.1499999999999453 V -3.299999999999945 V -3.449999999999945 V -3.599999999999945 V -3.749999999999945 V -3.899999999999945 V -4.049999999999945 V -4.199999999999945 V -4.3499999999999455 V -4.499999999999946 V -4.649999999999946 V -4.7999999999999465 V -4.949999999999947 V -5.099999999999947 V -5.249999999999948 V -5.399999999999948 V -5.549999999999948 V -5.699999999999949 V -5.849999999999949 V -5.999999999999949 V -6.14999999999995 V -6.29999999999995 V -6.44999999999995 V -6.599999999999951 V -6.749999999999951 V -6.8999999999999515 V -7.049999999999952 V -7.199999999999952 V -7.349999999999953 V -7.499999999999953 V -7.649999999999953 V -7.799999999999954 V -7.949999999999954 V -8.099999999999953 V -8.249999999999954 V -8.399999999999954 V -8.549999999999955 V -8.699999999999955 V -8.849999999999955 V -8.999999999999956 V -9.149999999999956 V -9.299999999999956 V -9.449999999999957 V -9.599999999999957 V -9.749999999999957 V -9.899999999999958 V -10.049999999999958 V -10.199999999999958 V -10.349999999999959 V -10.49999999999996 V -10.64999999999996 V -10.79999999999996 V -10.94999999999996 V -11.09999999999996 V -11.249999999999961 V -11.399999999999961 V -11.549999999999962 V -11.699999999999962 V -11.849999999999962 V -11.999999999999963 V -12.149999999999963 V -12.299999999999963 V -12.449999999999964 V -12.599999999999964 V -12.749999999999964 V -12.899999999999965 V -13.049999999999965 V -13.199999999999966 V -13.349999999999966 V -13.499999999999966 V -13.649999999999967 V -13.799999999999967 V -13.949999999999967 V -14.099999999999968 V -14.249999999999968 V -14.399999999999968 V -14.549999999999969 V -14.699999999999969 V -14.84999999999997 V -14.99999999999997 V -15.14999999999997 V -15.29999999999997 V -15.44999999999997 V -15.599999999999971 V -15.749999999999972 V -15.899999999999972 V -16.049999999999972 V -16.19999999999997 V -16.34999999999997 V -16.499999999999968 V -16.649999999999967 V -16.799999999999965 V -16.949999999999964 V -17.099999999999962 V -17.24999999999996 V -17.39999999999996 V -17.549999999999958 V -17.699999999999957 V -17.849999999999955 V -17.999999999999954 V -18.149999999999952 V -18.29999999999995 V -18.44999999999995 V -18.599999999999948 V -18.749999999999947 V -18.899999999999945 V -19.049999999999944 V -19.199999999999942 V -19.34999999999994 V -19.49999999999994 V -19.649999999999938 V -19.799999999999937 V -19.949999999999935 V -20.099999999999934 V -20.249999999999932 V -20.39999999999993 V -20.54999999999993 V -20.69999999999993 V -20.849999999999927 V -20.999999999999925 V -21.149999999999924 V -21.299999999999923 V -21.44999999999992 V -21.59999999999992 V -21.74999999999992 V -21.899999999999917 V -22.049999999999915 V -22.199999999999914 V -22.349999999999913 V -22.49999999999991 V -22.64999999999991 V -22.79999999999991 V -22.949999999999907 V -23.099999999999905 V -23.249999999999904 V -23.399999999999903 V -23.5499999999999 V -23.6999999999999 V -23.8499999999999 V -23.999999999999897 V -24.149999999999896 V -24.299999999999894 V -24.449999999999893 V -24.59999999999989 V -24.74999999999989 V -24.89999999999989 V -25.049999999999887 V -25.199999999999886 V -25.349999999999884 V -25.499999999999883 V -25.64999999999988 V -25.79999999999988 V -25.94999999999988 V -26.099999999999877 V -26.249999999999876 V -26.399999999999874 V -26.549999999999873 V -26.69999999999987 V -26.84999999999987 V -26.99999999999987 V -27.149999999999867 V -27.299999999999866 V -27.449999999999864 V -27.599999999999863 V -27.74999999999986 V -27.89999999999986 V -28.04999999999986 V -29.04999999999986 A 1 1 0 0 1 -22.749999999999968 -29.04999999999986 V -28.04999999999986 M -22.749999999999968 -28.199999999999857 M -22.749999999999968 -28.349999999999856 M -22.749999999999968 -28.499999999999854 M -22.749999999999968 -28.649999999999853 M -22.749999999999968 -28.79999999999985 M -22.749999999999968 -28.94999999999985 M -22.749999999999968 -29.09999999999985 M -22.749999999999968 -29.249999999999847 V -28.749999999999847 M -22.749999999999968 -27.249999999999847 M -22.749999999999968 -27.09999999999985 M -22.749999999999968 -26.94999999999985 M -22.749999999999968 -26.79999999999985 M -22.749999999999968 -26.649999999999853 M -22.749999999999968 -26.499999999999854 M -22.749999999999968 -26.349999999999856 M -22.749999999999968 -26.199999999999857 V -26.04999999999986 V -25.89999999999986 V -25.74999999999986 V -25.599999999999863 V -25.449999999999864 V -25.299999999999866 V -25.149999999999867 V -24.99999999999987 V -24.84999999999987 V -24.69999999999987 V -24.549999999999873 V -24.399999999999874 V -24.249999999999876 V -24.099999999999877 V -23.94999999999988 V -23.79999999999988 V -23.64999999999988 V -23.499999999999883 V -23.349999999999884 V -23.199999999999886 V -23.049999999999887 V -22.89999999999989 V -22.74999999999989 V -22.59999999999989 V -22.449999999999893 V -22.299999999999894 V -22.149999999999896 V -21.999999999999897 V -21.8499999999999 V -21.6999999999999 V -21.5499999999999 V -21.399999999999903 V -21.249999999999904 V -21.099999999999905 V -20.949999999999907 V -20.79999999999991 V -20.64999999999991 V -20.49999999999991 V -20.349999999999913 V -20.199999999999914 V -20.049999999999915 V -19.899999999999917 V -19.74999999999992 V -19.59999999999992 V -19.44999999999992 V -19.299999999999923 V -19.149999999999924 V -18.999999999999925 V -18.849999999999927 V -18.69999999999993 V -18.54999999999993 V -18.39999999999993 V -18.249999999999932 V -18.099999999999934 V -17.949999999999935 V -17.799999999999937 V -17.649999999999938 V -17.49999999999994 V -17.34999999999994 V -17.199999999999942 V -17.049999999999944 V -16.899999999999945 V -16.749999999999947 V -16.599999999999948 V -16.44999999999995 V -16.29999999999995 V -16.149999999999952 V -15.999999999999952 V -15.849999999999952 V -15.699999999999951 V -15.549999999999951 V -15.39999999999995 V -15.24999999999995 V -15.09999999999995 V -14.94999999999995 V -14.79999999999995 V -14.649999999999949 V -14.499999999999948 V -14.349999999999948 V -14.199999999999948 V -15.199999999999948 A 1 1 0 0 1 -18.749999999999968 -15.199999999999948 V -14.199999999999948 V -12.199999999999948 H -13.749999999999968 M -13.749999999999968 -13.399999999999947 V -10.999999999999948 M -13.749999999999968 -12.199999999999948 V -12.349999999999948 V -12.499999999999948 V -12.649999999999949 V -12.79999999999995 V -12.94999999999995 V -13.09999999999995 V -13.24999999999995 V -13.39999999999995 V -13.549999999999951 V -13.699999999999951 V -13.849999999999952 V -13.999999999999952 V -14.149999999999952 V -14.299999999999953 V -14.449999999999953 V -14.599999999999953 V -14.749999999999954 V -14.899999999999954 V -15.049999999999955 V -15.199999999999955 V -15.349999999999955 V -15.499999999999956 V -15.649999999999956 V -15.799999999999956 V -15.949999999999957 V -16.099999999999955 V -16.249999999999954 V -16.399999999999952 V -16.54999999999995 V -16.69999999999995 V -16.849999999999948 V -16.999999999999947 V -17.149999999999945 V -17.299999999999944 V -17.449999999999942 A 0.25 0.25 0 0 1 -13.749999999999968 -18.64999999999994 A 0.25 0.25 0 0 1 -13.749999999999968 -17.449999999999942 M -13.749999999999968 -18.64999999999994 M -13.749999999999968 -18.499999999999943 M -13.749999999999968 -18.349999999999945 M -13.749999999999968 -18.199999999999946 M -13.749999999999968 -18.049999999999947 M -13.749999999999968 -17.89999999999995 M -13.749999999999968 -17.74999999999995 M -13.749999999999968 -17.59999999999995 M -13.749999999999968 -17.449999999999953 V -16.449999999999953 A 1 1 0 0 0 -9.749999999999968 -16.449999999999953 V -17.449999999999953 M -10.949999999999967 -17.449999999999953 H -8.549999999999969 M -9.749999999999968 -17.449999999999953 V -18.449999999999953 A 1 1 0 0 1 -5.749999999999968 -18.449999999999953 V -17.449999999999953 V -15.449999999999953 H -0.749999999999968 M -3.749999999999968 -14.699999999999953 H 1.250000000000032 H 1.4000000000000319 H 1.5500000000000318 H 1.7000000000000317 H 1.8500000000000316 H 2.0000000000000315 H 2.1500000000000314 H 2.3000000000000314 H 2.4500000000000313 H 2.600000000000031 H 2.750000000000031 H 2.900000000000031 H 3.050000000000031 H 3.200000000000031 H 3.3500000000000307 H 3.5000000000000306 H 3.6500000000000306 M 3.6500000000000306 -15.899999999999952 V -13.499999999999954 M 3.6500000000000306 -14.699999999999953 V -14.849999999999953 V -14.999999999999954 V -15.149999999999954 V -15.299999999999955 V -15.449999999999955 V -15.949999999999955 M 3.6500000000000306 -17.449999999999953 A 0.25 0.25 0 0 1 3.6500000000000306 -18.649999999999952 A 0.25 0.25 0 0 1 3.6500000000000306 -17.449999999999953 M 3.6500000000000306 -18.649999999999952 V -20.649999999999952 H 8.65000000000003 M 7.45000000000003 -19.449999999999953 L 8.65000000000003 -20.649999999999952 L 7.45000000000003 -21.84999999999995 M 8.65000000000003 -20.649999999999952 M 8.200000000000031 -19.449999999999953 L 9.40000000000003 -20.649999999999952 L 8.200000000000031 -21.84999999999995 M 9.40000000000003 -20.649999999999952 " stroke="#000000" stroke-width="0.3" stroke-linecap="round" stroke-linejoin="round" fill="none"/><circle r="0.3" cy="-0.050000000000000044" cx="-15.5" style="fill:#000000"/><circle r="0.3" cy="-3.05" cx="-10.5" style="fill:#000000"/><circle r="0.3" cy="-0.30000000000000027" cx="-5.5" style="fill:#000000"/><circle r="0.3" cy="-1.8000000000000003" cx="-5.5" style="fill:#000000"/><circle r="0.3" cy="-8.650000000000002" cx="-15.250000000000004" style="fill:#000000"/><circle r="0.3" cy="-8.650000000000002" cx="-16.750000000000004" style="fill:#000000"/><circle r="0.3" cy="15.50000000000004" cx="11.050000000000006" style="fill:#000000"/><circle r="0.3" cy="-10.799999999999962" cx="17.700000000000017" style="fill:#000000"/><circle r="0.3" cy="-22.34999999999993" cx="21.700000000000017" style="fill:#000000"/><circle r="0.3" cy="-23.09999999999993" cx="-12.39999999999997" style="fill:#000000"/><circle r="0.3" cy="-23.09999999999993" cx="-13.89999999999997" style="fill:#000000"/><circle r="0.3" cy="-21.249999999999936" cx="-26.749999999999968" style="fill:#000000"/><circle r="0.3" cy="-16.699999999999953" cx="3.6500000000000306" style="fill:#000000"/> </svg>