<?xml version="1.0" encoding="UTF-8" standalone="no"?>
<svg
   viewBox="-32.75 -34.54999923706055 56.650001525878906 60"
   version="1.1"
   id="svg13"
   sodipodi:docname="01_jan pi pali ilo-kule.svg"
   inkscape:version="1.3.2 (091e20e, 2023-11-25, custom)"
   xml:space="preserve"
   xmlns:inkscape="http://www.inkscape.org/namespaces/inkscape"
   xmlns:sodipodi="http://sodipodi.sourceforge.net/DTD/sodipodi-0.dtd"
   xmlns:xlink="http://www.w3.org/1999/xlink"
   xmlns="http://www.w3.org/2000/svg"
   xmlns:svg="http://www.w3.org/2000/svg"><defs
     id="defs13"><linearGradient
       id="linearGradient37"
       inkscape:collect="always"><stop
         style="stop-color:#9689d7;stop-opacity:1;"
         offset="0"
         id="stop37" /><stop
         style="stop-color:#9689d7;stop-opacity:0;"
         offset="1"
         id="stop38" /></linearGradient><linearGradient
       id="linearGradient34"
       inkscape:collect="always"><stop
         style="stop-color:#ff8814;stop-opacity:0;"
         offset="0"
         id="stop34" /><stop
         style="stop-color:#ff6666;stop-opacity:1;"
         offset="1"
         id="stop33" /></linearGradient><linearGradient
       id="linearGradient17"
       inkscape:collect="always"><stop
         style="stop-color:#ff6666;stop-opacity:1;"
         offset="0"
         id="stop17" /><stop
         style="stop-color:#ff6666;stop-opacity:0;"
         offset="1"
         id="stop18" /></linearGradient><linearGradient
       id="linearGradient16"
       inkscape:collect="always"><stop
         style="stop-color:#ad7dce;stop-opacity:1;"
         offset="0"
         id="stop16" /><stop
         style="stop-color:#d2bebe;stop-opacity:0;"
         offset="1"
         id="stop15" /></linearGradient><linearGradient
       id="linearGradient7"
       inkscape:collect="always"><stop
         style="stop-color:#ec79a3;stop-opacity:1;"
         offset="0"
         id="stop8" /><stop
         style="stop-color:#ad7dce;stop-opacity:1;"
         offset="1"
         id="stop9" /></linearGradient><linearGradient
       id="linearGradient3"
       inkscape:collect="always"><stop
         style="stop-color:#5540bf;stop-opacity:0;"
         offset="0.02280015"
         id="stop5" /><stop
         style="stop-color:#5540bf;stop-opacity:0.49803922;"
         offset="0.0971"
         id="stop6" /><stop
         style="stop-color:#9689d7;stop-opacity:1;"
         offset="0.86759531"
         id="stop7" /><stop
         style="stop-color:#5540bf;stop-opacity:0;"
         offset="1"
         id="stop4" /></linearGradient><linearGradient
       id="linearGradient2"
       inkscape:collect="always"><stop
         style="stop-color:#ff6666;stop-opacity:1;"
         offset="0"
         id="stop1" /><stop
         style="stop-color:#ff8814;stop-opacity:0;"
         offset="1"
         id="stop2" /></linearGradient><linearGradient
       inkscape:collect="always"
       xlink:href="#linearGradient2"
       id="linearGradient39"
       x1="7.5515261"
       y1="51.867588"
       x2="16.236349"
       y2="50.193546"
       gradientUnits="userSpaceOnUse" /><linearGradient
       inkscape:collect="always"
       xlink:href="#linearGradient2"
       id="linearGradient41"
       x1="32.406834"
       y1="54.067268"
       x2="32.406834"
       y2="48.783585"
       gradientUnits="userSpaceOnUse" /><linearGradient
       inkscape:collect="always"
       xlink:href="#linearGradient2"
       id="linearGradient43"
       x1="46.063461"
       y1="53.177372"
       x2="46.063461"
       y2="34.34444"
       gradientUnits="userSpaceOnUse" /><linearGradient
       inkscape:collect="always"
       xlink:href="#linearGradient2"
       id="linearGradient45"
       x1="9.9046469"
       y1="14.889444"
       x2="38.164936"
       y2="12.300049"
       gradientUnits="userSpaceOnUse" /><linearGradient
       inkscape:collect="always"
       xlink:href="#linearGradient2"
       id="linearGradient47"
       x1="52.40559"
       y1="37.539791"
       x2="52.43528"
       y2="17.046572"
       gradientUnits="userSpaceOnUse" /><linearGradient
       inkscape:collect="always"
       xlink:href="#linearGradient2"
       id="linearGradient49"
       x1="12.50563"
       y1="30.120569"
       x2="14.436451"
       y2="42.697636"
       gradientUnits="userSpaceOnUse" /><linearGradient
       inkscape:collect="always"
       xlink:href="#linearGradient3"
       id="linearGradient4"
       x1="2.57215"
       y1="37.585728"
       x2="53.887432"
       y2="16.29405"
       gradientUnits="userSpaceOnUse" /><linearGradient
       inkscape:collect="always"
       xlink:href="#linearGradient16"
       id="linearGradient11"
       x1="8.5155096"
       y1="5.7018967"
       x2="8.441925"
       y2="19.408085"
       gradientUnits="userSpaceOnUse"
       gradientTransform="translate(-32.75,-34.602313)" /><linearGradient
       inkscape:collect="always"
       xlink:href="#linearGradient16"
       id="linearGradient14"
       x1="23.260321"
       y1="35.620152"
       x2="30.614758"
       y2="33.161407"
       gradientUnits="userSpaceOnUse" /><linearGradient
       inkscape:collect="always"
       xlink:href="#linearGradient17"
       id="linearGradient18"
       x1="-9.9615469"
       y1="-3.8292425"
       x2="-11.794754"
       y2="-4.3204489"
       gradientUnits="userSpaceOnUse" /><linearGradient
       inkscape:collect="always"
       xlink:href="#linearGradient16"
       id="linearGradient20"
       x1="29.114063"
       y1="49.547592"
       x2="25.484632"
       y2="58.650173"
       gradientUnits="userSpaceOnUse" /><linearGradient
       inkscape:collect="always"
       xlink:href="#linearGradient16"
       id="linearGradient22"
       x1="37.664806"
       y1="47.001808"
       x2="34.539242"
       y2="57.04604"
       gradientUnits="userSpaceOnUse" /><linearGradient
       inkscape:collect="always"
       xlink:href="#linearGradient7"
       id="linearGradient24"
       x1="43.722916"
       y1="34.349705"
       x2="39.357456"
       y2="45.492523"
       gradientUnits="userSpaceOnUse" /><linearGradient
       inkscape:collect="always"
       xlink:href="#linearGradient16"
       id="linearGradient32"
       x1="47.062164"
       y1="14.948496"
       x2="47.062164"
       y2="45.918201"
       gradientUnits="userSpaceOnUse" /><linearGradient
       inkscape:collect="always"
       xlink:href="#linearGradient34"
       id="linearGradient33"
       gradientUnits="userSpaceOnUse"
       x1="4.7487187"
       y1="3.0586636"
       x2="4.7487187"
       y2="28.587748" /><linearGradient
       inkscape:collect="always"
       xlink:href="#linearGradient16"
       id="linearGradient36"
       x1="9.2055035"
       y1="44.113075"
       x2="9.2055035"
       y2="39.896061"
       gradientUnits="userSpaceOnUse" /><linearGradient
       inkscape:collect="always"
       xlink:href="#linearGradient37"
       id="linearGradient38"
       x1="12.04187"
       y1="47.79129"
       x2="15.967186"
       y2="45.64579"
       gradientUnits="userSpaceOnUse" /></defs><sodipodi:namedview
     id="namedview13"
     pagecolor="#ffffff"
     bordercolor="#000000"
     borderopacity="0.25"
     inkscape:showpageshadow="2"
     inkscape:pageopacity="0.0"
     inkscape:pagecheckerboard="0"
     inkscape:deskcolor="#d1d1d1"
     inkscape:zoom="8"
     inkscape:cx="24.125"
     inkscape:cy="21.5625"
     inkscape:window-width="1920"
     inkscape:window-height="1046"
     inkscape:window-x="-11"
     inkscape:window-y="-11"
     inkscape:window-maximized="1"
     inkscape:current-layer="svg13" /><circle
     r="0.30000001"
     cy="-0.050000001"
     cx="-15.5"
     style="display:none;fill:#000000"
     id="circle1" /><circle
     r="0.30000001"
     cy="-3.05"
     cx="-10.5"
     style="display:none;fill:#000000"
     id="circle2" /><circle
     r="0.30000001"
     cy="-0.30000001"
     cx="-5.5"
     style="display:none;fill:#000000"
     id="circle3" /><circle
     r="0.30000001"
     cy="-1.8"
     cx="-5.5"
     style="display:none;fill:#000000"
     id="circle4" /><circle
     r="0.30000001"
     cy="-8.6499996"
     cx="-15.25"
     style="display:none;fill:#000000"
     id="circle5" /><circle
     r="0.30000001"
     cy="-8.6499996"
     cx="-16.75"
     style="display:none;fill:#000000"
     id="circle6" /><circle
     r="0.30000001"
     cy="15.5"
     cx="11.05"
     style="display:none;fill:#000000"
     id="circle7" /><circle
     r="0.30000001"
     cy="-10.8"
     cx="17.700001"
     style="display:none;fill:#000000"
     id="circle8" /><circle
     r="0.30000001"
     cy="-22.35"
     cx="21.700001"
     style="display:none;fill:#000000"
     id="circle9" /><circle
     r="0.30000001"
     cy="-23.1"
     cx="-12.4"
     style="display:none;fill:#000000"
     id="circle10" /><circle
     r="0.30000001"
     cy="-23.1"
     cx="-13.9"
     style="display:none;fill:#000000"
     id="circle11" /><circle
     r="0.30000001"
     cy="-21.25"
     cx="-26.75"
     style="display:none;fill:#000000"
     id="circle12" /><circle
     r="0.30000001"
     cy="-16.700001"
     cx="3.6500001"
     style="display:none;fill:#000000"
     id="circle13" /><path
     style="display:none;fill:#000000;fill-opacity:0;stroke:#000000;stroke-width:0.2;stroke-linecap:round;stroke-opacity:1"
     d="m -3.742056,-14.814657 v -0.614686"
     id="path13" /><path
     style="display:none;fill:#000000;fill-opacity:0;stroke:#000000;stroke-width:0.2;stroke-linecap:round;stroke-opacity:1"
     d="m -28.774159,6.673193 -2.877253,-4.81286"
     id="path14" /><path
     style="display:none;fill:#000000;fill-opacity:0;stroke:#000000;stroke-width:0.2;stroke-linecap:round;stroke-opacity:1"
     d="M -7.27323,24.250595 H -20.299341"
     id="path15" /><path
     style="display:none;fill:#000000;fill-opacity:0;stroke:#000000;stroke-width:0.2;stroke-linecap:round;stroke-opacity:1"
     d="M 0.783079,24.459849 3.869587,22.576556"
     id="path16" /><path
     style="display:none;fill:#000000;fill-opacity:0;stroke:#000000;stroke-width:0.2;stroke-linecap:round;stroke-opacity:1"
     d="m 19.563695,11.486053 h -5.38831"
     id="path17" /><path
     style="display:inline;fill:url(#linearGradient4);stroke:none;stroke-width:0.0147965;stroke-linecap:round;stroke-opacity:1"
     d="m 9.8093593,7.1848509 c -1.4691214,0.042555 -2.9790052,0.8323175 -3.55724,2.2362438 -0.4261194,1.0329283 -0.2902752,2.1888413 -0.293908,3.2796603 0.015452,0.348581 0.140894,0.641459 0.046095,0.984028 -0.1336226,7.127006 0.00803,14.258748 -0.1084906,21.384285 0.1046949,0.354177 -0.2250266,0.296787 -0.4664319,0.303254 -1.4309958,0.04821 -2.8856868,-0.02382 -4.3144582,0.0445 -0.37404207,0.226464 -0.18564851,0.812693 -0.016814,1.14577 0.8154396,1.527816 1.7504647,2.988508 2.6212551,4.484968 0.3697789,0.137005 0.4748356,0.02071 0.3918129,0.515112 -0.011392,2.059453 -0.044549,4.132608 0.010925,6.18353 0.2847564,0.17332 0.041246,0.299642 -0.018952,0.551666 -0.036742,0.172919 0.029396,0.394815 0.2222372,0.438984 -0.4578924,0.372077 -0.1408449,1.035458 -0.2177622,1.539395 0.0078,1.314699 0.021888,2.693192 0.6771198,3.876228 1.1463762,2.677015 3.9107292,4.516965 6.8106716,4.617876 3.311891,0.162263 6.569698,-2.032938 7.656277,-5.168268 0.387743,-1.112402 0.558257,-2.325649 0.431614,-3.497851 -0.05728,-0.313377 -0.504734,-0.261066 -0.522791,-0.625096 -0.09885,-0.312862 0.164118,-0.601806 0.423377,-0.720176 0.301055,-0.674116 0.01525,-1.51821 0.476697,-2.153881 0.810046,-1.161963 2.887529,-0.951417 3.374018,0.403149 0.217537,0.553038 0.01607,1.162191 0.190737,1.708972 0.59509,0.197562 1.271814,0.03007 1.898697,0.0853 1.439192,-0.01842 2.892295,0.03613 4.322807,-0.02783 0.259199,-0.152061 0.360839,-0.613918 0.767986,-0.539368 0.517806,0.06635 0.611888,0.893154 0.07733,1.004857 -0.480771,0.240125 -0.166707,0.897929 -0.256837,1.326899 -0.04374,1.526797 0.09502,3.060141 -0.115416,4.575515 -0.431619,1.328942 -2.14829,1.873191 -3.357111,1.274034 -0.489111,-0.171799 -0.766755,-0.66021 -1.212913,-0.876377 -0.499373,0.162874 -0.187027,0.836534 -0.273967,1.231697 0.04559,0.738905 -0.09447,1.513187 0.07297,2.228875 0.595091,0.197583 1.271815,0.03024 1.898698,0.08554 1.994061,-0.01822 4.002007,0.03642 5.987417,-0.02721 0.393689,-0.226534 0.120153,-0.821247 0.201267,-1.204634 0.02721,-3.649914 -0.05931,-7.317052 0.05599,-10.953603 -0.04352,-0.712026 0.405378,-1.375803 1.081926,-1.598465 0.94228,-0.423828 2.175605,0.0034 2.573223,0.97879 0.184957,0.56975 0.04253,1.226516 0.101281,1.829809 0.05271,0.64288 -0.07247,1.322173 0.0997,1.940602 0.619164,0.192018 1.315259,0.02884 1.964299,0.0828 0.280763,0.102581 1.118216,-0.187827 0.981716,0.09363 -0.0062,1.024627 0.01246,2.180409 -0.0094,3.127504 -0.498082,-1.406264 -2.655944,-1.723356 -3.552761,-0.531173 -0.661266,0.80506 -0.360335,1.912455 -0.432914,2.862207 0.04233,0.484778 -0.08891,1.002629 0.07297,1.464627 0.595091,0.197584 1.271815,0.03024 1.898697,0.08554 h 8.286067 c 0.49373,-0.169093 0.183332,-0.836519 0.269838,-1.231842 -0.03572,-0.942682 0.07121,-1.912544 -0.05502,-2.837981 -0.234302,-0.193434 -0.639163,-0.382515 -0.524047,-0.779948 0.04309,-0.422765 0.742734,-0.395019 0.579231,-0.898919 -0.0022,-8.173793 -0.0044,-16.347584 -0.0064,-24.521376 -0.138861,-0.523091 -0.64442,-0.111153 -0.704137,0.238132 -1.202899,1.81833 -4.004095,2.14551 -5.607082,0.697055 -0.889083,-0.720664 -1.215874,-1.910383 -1.154536,-3.010316 0.0225,-0.415885 -0.08457,-0.751675 0,-1.14312 0.06677,-1.518213 -0.231555,-3.158131 0.519074,-4.560584 0.482756,-1.146695 1.474002,-2.026219 2.561181,-2.590888 1.197506,-0.52962 2.557837,-0.638873 3.813289,-0.292318 0.990162,0.306796 1.916205,0.842693 2.572201,1.659554 0.837835,0.920787 1.361872,2.146322 1.288773,3.413031 0.03196,0.804789 -0.01852,1.643578 0.167184,2.420189 -0.203351,0.672585 -0.06149,1.41921 -0.117248,2.119183 -0.01248,5.780116 -0.03334,11.561113 0.0397,17.340794 0.08022,0.682397 -0.08292,1.510612 0.39963,2.072901 0.667752,0.705278 1.788124,0.989513 2.656732,0.486524 0.419522,-0.258656 0.916123,-0.565951 0.909901,-1.127659 0.200345,-2.508815 0.09413,-5.031934 0.124638,-7.546673 -0.006,-8.382398 -0.04485,-16.767475 -0.04242,-25.148206 0.218071,-0.427838 -0.12268,-0.786938 -0.571344,-0.649083 -10.913071,0.01694 -21.826627,-0.04119 -32.739364,0.05085 -0.307382,-0.04325 -0.579783,0.06619 -0.845909,0.09235 -0.385462,-0.199521 -0.906365,-0.192331 -1.30828,-0.03266 -0.232329,0.138202 -0.428072,-0.263544 -0.692721,-0.07629 -0.313243,0.133992 -0.380741,0.545207 -0.740695,0.630009 -0.295469,0.388972 -0.0629,0.956062 -0.136879,1.418243 -0.05107,0.853889 0.12935,1.776634 -0.243438,2.57827 -0.439888,0.686735 -1.285038,1.02369 -2.079464,0.857304 -0.830674,-0.142234 -1.524931,-0.91601 -1.477536,-1.775429 -0.06264,-0.981672 0.0193,-1.972827 -0.05216,-2.949514 -0.03464,-0.291278 0.0741,-0.638497 0.02504,-0.968405 0.02192,-1.4464355 -0.708919,-2.9647995 -2.089,-3.55146 C 11.081364,7.476621 10.62061,7.1935677 10.176527,7.3229905 10.044658,7.510959 10.031305,7.1213891 9.8093593,7.1848509 Z M 20.450302,11.479173 c -0.132404,0.117641 -0.0188,-0.0039 0,0 z m 20.69566,2.274102 c 0.459482,0.441609 -0.341036,0.08218 0,0 z m -4.72059,2.152724 c 0.37421,0.110035 0.642079,0.54793 0.388843,0.897474 -0.09975,0.160559 -0.367979,0.236643 -0.4228,0.369336 -0.163188,-0.227855 -0.537967,-0.321257 -0.502707,-0.676971 -0.04676,-0.349018 0.331343,-0.45094 0.511954,-0.652262 z m -17.372794,0.09956 c 0.572582,-0.04004 0.578426,0.943717 0.05303,0.996165 -0.173925,0.21258 -0.40956,-0.119833 -0.55487,-0.24709 -0.212229,-0.358603 0.09902,-0.793803 0.50184,-0.749075 z m 17.355165,1.671691 c 0.03743,0.172187 -0.0084,0.450731 -0.0099,0.564053 -0.0015,-0.204464 -0.04863,-0.410348 0.0017,-0.612604 z m -26.215754,0.582614 c 0.0395,0.382253 -0.2787594,-0.04321 0,0 z m 8.865935,0.595041 c 0.207296,0.279365 -0.04729,0.452522 0,0 z m 31.410007,4.992824 c 4.63e-4,-0.0023 0.01032,-0.01351 0,0 z M 24.396675,24.75156 c 0.49299,-0.149157 0.281621,0.417194 0.316016,0.733325 -0.0033,0.292051 -0.399122,0.304978 -0.489991,0.464127 -0.178806,-0.227935 -0.580452,-0.337015 -0.478142,-0.71772 -0.05635,-0.484216 0.229195,-0.623666 0.652117,-0.479732 z m -9.750694,0.650818 c 0.308132,-0.02952 0.461156,0.215772 0.570043,0.450254 0.170787,0.106924 -0.148785,0.256154 -0.192182,0.414275 -0.146836,0.102148 -0.335986,0.208438 -0.370203,0.38783 -0.101617,-0.32551 -0.601323,-0.398138 -0.497215,-0.82089 -0.0064,-0.271797 0.224773,-0.462718 0.489557,-0.431469 z m 15.121089,0.195505 c 0.377566,0.111009 0.695467,0.623523 0.353008,0.94588 -0.09992,0.117458 -0.306034,0.225423 -0.365724,0.30778 -0.206983,-0.209796 -0.591959,-0.312261 -0.482622,-0.702546 -0.0034,-0.267547 0.191541,-0.465364 0.43855,-0.505598 0.01456,0.0243 0.05133,-0.08865 0.05679,-0.04552 z m -13.760211,0.271221 c 0.300059,0.04643 -0.20271,0.180116 -0.100715,0.0066 0.03302,-0.0071 0.06705,-0.0088 0.100715,-0.0066 z m 1.556527,0.0013 c -0.05849,0.105421 -0.135209,0.01444 0,0 z m -6.850194,2.376985 c 0.226796,0.444959 -0.112501,0.26706 0,0 z m 16.653774,0.719019 c 0.01935,0.189343 0.312529,0.444363 -0.0064,0.433782 0.0022,-0.144346 0.004,-0.290436 0.0064,-0.433782 z m -0.101871,1.768941 c 0.212225,0.180734 0.52485,0.347758 0.502707,0.689397 0.01581,0.335129 -0.350797,0.454327 -0.520046,0.630154 -0.177841,-0.205354 -0.539374,-0.273722 -0.488258,-0.631887 -0.0497,-0.309672 0.187625,-0.492405 0.42569,-0.604 0.03117,-0.0032 0.06257,-0.132632 0.07991,-0.08366 z m -5.053801,0.104183 c -0.02864,-0.01077 0.02333,-0.01388 0,0 z m 0.0419,0.560361 c 0.110481,0.133475 -0.03674,0.411937 -0.07066,0.118199 0.0022,-0.03288 0.04967,-0.186189 0.07066,-0.118199 z m 5.01233,1.247159 c 0.134161,0.155559 -0.0784,0.294631 -0.06329,0.06127 0.01335,-0.01174 0.05422,-0.07525 0.06329,-0.06127 z m 15.297521,1.148321 c 1.062709,-0.03631 2.093834,0.945936 1.88945,2.034525 v 14.139084 c -0.727339,0.132241 -1.507027,0.0215 -2.257196,0.02442 -0.529245,0.02901 -1.086765,-0.11339 -1.59742,0.02832 0.161593,-0.613195 0.01837,-1.294519 0.06693,-1.932944 4.21e-4,-4.308097 8.46e-4,-8.616195 0.0013,-12.924293 0.2644,-0.813313 1.028854,-1.402586 1.896964,-1.369114 z M 8.1742255,45.464993 c 0.4003567,0.08695 0.6771809,0.646481 0.3254085,0.94039 -0.2022778,0.126822 -0.3182852,0.426666 -0.4962046,0.164005 -0.4924506,-0.142314 -0.4121941,-0.977181 0.076584,-1.078241 0.041995,-0.01206 0.081776,-0.157223 0.094212,-0.02615 z"
     id="path20"
     transform="translate(-32.75,-34.549999)"
     sodipodi:nodetypes="cccccccccccccccccccccccccccccccccccccccccccccccccccccccccccccccccccccccccccccccccccccccccccccccccccccccccccccccccccccccccsccccssccccccccccsccccsscccccccccccccccccscccss" /><path
     style="display:none;fill:#000000;fill-opacity:0;stroke:#000000;stroke-width:0.2;stroke-linecap:round;stroke-opacity:1"
     d="m -25.321455,5.051468 h 3.191135"
     id="path23" /><path
     style="display:none;fill:#000000;fill-opacity:0;stroke:#000000;stroke-width:0.2;stroke-linecap:round;stroke-opacity:1"
     d="m 13.599934,-18.542008 h 8.056309"
     id="path24" /><path
     style="display:none;fill:#000000;fill-opacity:0;stroke:#000000;stroke-width:0.2;stroke-linecap:round;stroke-opacity:1"
     d="M -1.152528,-1.121548 -3.768213,-3.737232"
     id="path25" /><path
     id="rect6"
     style="display:none;fill:url(#linearGradient18);stroke-width:0.045;stroke-linecap:round"
     d="m -6.8339844,-13.467968 c -0.9307154,0.373993 -1.6490365,1.259872 -1.7285156,2.285156 -0.0274,0.42862 -0.119098,0.889988 0.029297,1.2988284 0.4775055,0.06883 0.5726105,0.1649708 0.5097656,0.6914062 0.02833,0.2681618 -0.1736323,0.4189062 -0.3925781,0.4863282 -0.3528167,0.4647955 -0.1059233,1.129325 -0.2675782,1.6640625 -0.3208946,1.3248306 -2.2292703,1.7055282 -3.1757813,0.7988281 -0.58087,-0.5051407 -0.51252,-1.2929691 -0.59375,-1.9902344 v 4.5273438 c 0.640018,-0.00382 1.279903,-0.00785 1.919922,-0.011719 -0.25761,0.3187207 0.24446,0.6213766 -0.0039,0.9257813 -0.11593,2.17216579 -0.03202,4.354146 -0.01758,6.5292968 0.01515,0.8117752 0.0269,1.7604911 0.75586,2.2890625 1.1984838,1.1765899 3.4846056,0.7831047 4.15625,-0.7773437 0.3887426,-0.6522804 0.1383103,-1.454806 0.2226562,-2.1757813 -0.02543,-0.8424391 0.090669,-1.708865 -0.025391,-2.53515621 -0.1850448,-0.1024069 0.1511528,-0.3059447 0.029297,-0.5078125 -0.08871,-0.19241381 -0.2082215,-0.37477357 -0.041016,-0.56835938 0.09324,-0.43093657 0.080156,-0.91590031 -0.089844,-1.31054691 0.3250767,-0.2955987 0.053808,-0.7837058 -0.3027344,-0.9023437 -0.2700837,-0.2954257 -0.1518084,-0.8499649 0.2519532,-0.9492188 0.3296316,-0.4003516 0.1371974,-0.9973447 0.2089843,-1.4726562 -0.02076,-0.4417356 0.00876,-0.4371744 0.1484375,-0.058594 0.7695953,1.6149684 2.9100639,2.2506316 4.48828128,1.4746094 0.43825156,-0.2205288 1.17952309,-0.8019597 1.40429687,-1.2539062 0.0608299,-0.3944936 -0.67425874,-0.094769 -0.9140625,0.050781 -0.95754405,0.3065277 -2.24210835,-0.05299 -2.54687505,-1.1035156 -0.1797758,-0.5441285 0.068692,-1.1590961 -0.2109374,-1.6660156 -0.2226018,-0.1769399 -0.5582573,-0.3057654 -0.4589844,-0.671875 -0.0034,-0.2675458 0.1924443,-0.4656255 0.4394531,-0.5058594 0.3028907,-0.4027136 0.083209,-0.9755317 0.1328125,-1.4414063 0.0096,-0.959877 -0.1577097,-2.033693 -0.9667969,-2.660157 -0.2487535,-0.20014 -0.5336871,-0.351656 -0.8339843,-0.458984 z" /><path
     style="display:none;fill:#000000;fill-opacity:0;stroke:#000000;stroke-width:0.2;stroke-linecap:round;stroke-opacity:1"
     d="m -11.406012,11.119857 h -5.649879"
     id="path26" /><path
     style="display:none;fill:#000000;fill-opacity:0;stroke:#000000;stroke-width:0.2;stroke-linecap:round;stroke-opacity:1"
     d="m -1.937233,13.526287 h 2.615684 v 0.104627 0 0"
     id="path27" /><path
     style="display:none;fill:#000000;fill-opacity:0;stroke:#000000;stroke-width:0.2;stroke-linecap:round;stroke-opacity:1"
     d="M 10.618053,-0.755352 H 13.96613"
     id="path28" /><path
     style="display:none;fill:#000000;fill-opacity:0;stroke:#000000;stroke-width:0.2;stroke-linecap:round;stroke-opacity:1"
     d="m -22.784241,-14.199972 h -3.923527"
     id="path29" /><path
     style="display:none;fill:#000000;fill-opacity:0;stroke:#000000;stroke-width:0.2;stroke-linecap:round;stroke-opacity:1"
     d="M -17.139642,10.801419 -13.699445,7.32423"
     id="path30" /><path
     style="fill:url(#linearGradient38);fill-opacity:1;stroke:none;stroke-width:0.0104627;stroke-linecap:round;stroke-opacity:1;opacity:1"
     d="m 5.9873637,39.097028 c -1.0401525,-0.02686 -1.965366,0.970823 -1.8984341,2.0044 -0.034444,2.19317 -0.00894,4.386949 -0.016942,6.580359 0.1275639,0.228413 0.2141027,0.28033 0.029324,0.516598 -0.048712,0.195829 -0.073045,0.51837 0.167976,0.590164 -0.3796475,0.308477 -0.1344665,0.848448 -0.1919326,1.266425 0.027977,1.119658 -0.041243,2.274815 0.3779739,3.338722 0.8661586,2.686812 3.2847282,4.789313 6.0674891,5.26937 1.128461,0.223461 2.308495,0.132946 3.418562,-0.146636 3.030345,-0.807684 5.461282,-3.585107 5.738174,-6.725667 0.02316,-0.58076 0.09056,-1.175996 0.03139,-1.749347 -0.1136,-0.240669 -0.529925,-0.253198 -0.544102,-0.583824 -0.07566,-0.298773 0.148006,-0.561747 0.420757,-0.646156 0.282575,-0.273473 0.08098,-0.714683 0.154698,-1.063739 0.01116,-0.660574 0.306561,-1.340431 0.911718,-1.659621 0.297818,-0.08898 0.329399,-0.560358 -0.01769,-0.583642 -1.610523,0.01168 -3.229061,-0.0233 -4.834588,0.01746 -0.379693,0.12967 -0.164536,0.630441 -0.220861,0.932669 -0.02858,1.582877 0.07094,3.180254 -0.116864,4.749103 -0.210395,1.325876 -1.314418,2.402791 -2.611394,2.685777 -0.714397,0.138677 -1.471545,0.116043 -2.184811,-0.07265 C 9.5574364,53.479276 8.6601844,52.552889 8.3768326,51.436215 8.1696382,50.547625 8.2788061,49.620683 8.2322568,48.715916 8.2010975,48.053996 8.2643826,47.374798 8.1750606,46.723519 8.038971,46.490046 7.6240494,46.427772 7.6600737,46.07355 7.6030174,45.767318 7.8984184,45.598138 8.1184127,45.476 8.3436752,45.195846 8.1669185,44.776062 8.2193967,44.438865 8.2028693,43.132079 8.2198786,41.821062 8.1827543,40.516892 7.8940647,39.68445 7.0574526,39.001733 6.1453266,39.096109 c -0.052654,3.06e-4 -0.1053086,6.13e-4 -0.1579629,9.19e-4 z"
     id="path38"
     transform="translate(-32.75,-34.549999)" /><path
     style="fill:#000000;fill-opacity:0;stroke:none;stroke-width:0.0104627;stroke-linecap:round;stroke-opacity:1"
     d="m 30.954483,47.970943 c -0.26732,0.273978 0.179512,0.519926 0.08225,0.831911 0.02524,0.28067 -0.238319,0.416335 -0.460902,0.486218 -0.271279,0.241148 -0.08052,0.680495 -0.137743,1.005437 -0.02208,1.518623 0.04859,3.036652 -0.05282,4.552109 -0.205219,1.111762 -1.335156,1.881508 -2.440148,1.801758 -0.813529,-0.01169 -1.583254,-0.473241 -2.031176,-1.138117 -0.289997,-0.247495 -0.541789,0.174658 -0.445653,0.44966 0.01177,0.962307 -0.0234,1.932679 0.01746,2.88999 0.12967,0.379723 0.63044,0.16447 0.932669,0.220734 2.33468,-0.01163 4.677354,0.02327 7.007037,-0.01746 0.379723,-0.12967 0.16447,-0.630441 0.220734,-0.93267 -0.01113,-3.298645 0.02668,-6.598551 -0.03474,-9.896382 -0.117028,-0.413884 -0.654814,-0.276121 -0.974949,-0.311701 -0.555958,0.02884 -1.14463,-0.07214 -1.682015,0.05851 z"
     id="path39"
     transform="translate(-32.75,-34.549999)" /><path
     style="fill:url(#linearGradient41);fill-opacity:0.55;stroke:none;stroke-width:0;stroke-linecap:round;stroke-opacity:1;opacity:0.6"
     d="m 30.954483,47.970943 c -0.26732,0.273978 0.179512,0.519926 0.08225,0.831911 0.02524,0.28067 -0.238319,0.416335 -0.460902,0.486218 -0.271279,0.241148 -0.08052,0.680495 -0.137743,1.005437 -0.02208,1.518623 0.04859,3.036652 -0.05282,4.552109 -0.205219,1.111762 -1.335156,1.881508 -2.440148,1.801758 -0.813529,-0.01169 -1.583254,-0.473241 -2.031176,-1.138117 -0.289997,-0.247495 -0.541789,0.174658 -0.445653,0.44966 0.01177,0.962307 -0.0234,1.932679 0.01746,2.88999 0.12967,0.379723 0.63044,0.16447 0.932669,0.220734 2.33468,-0.01163 4.677354,0.02327 7.007037,-0.01746 0.379723,-0.12967 0.16447,-0.630441 0.220734,-0.93267 -0.01113,-3.298645 0.02668,-6.598551 -0.03474,-9.896382 -0.117028,-0.413884 -0.654814,-0.276121 -0.974949,-0.311701 -0.555958,0.02884 -1.14463,-0.07214 -1.682015,0.05851 z"
     id="path40"
     transform="translate(-32.75,-34.549999)" /><path
     style="fill:url(#linearGradient43);fill-opacity:0.55;stroke:none;stroke-width:0;stroke-linecap:round;stroke-opacity:1;opacity:0.6"
     d="m 43.710238,33.689305 c -0.286446,0.351834 0.23466,0.599061 0.399811,0.872269 0.280657,0.335174 0.374887,0.766075 0.323047,1.195142 0.0035,4.739708 0.02706,9.483886 0.0128,14.220846 -0.224977,-0.09677 -0.485248,0.02864 -0.668533,0.116991 -0.438296,-0.226274 -0.968266,-0.09808 -1.44353,-0.141086 -0.591612,0.0287 -1.204714,-0.06665 -1.781476,0.04985 -0.248913,0.275119 -0.06697,0.711245 -0.122355,1.054854 -1.29e-4,0.707324 3.03e-4,1.414649 -3.07e-4,2.121974 -0.376993,-0.731149 -1.193861,-1.183106 -2.014792,-1.104514 -0.910465,0.01533 -1.758941,0.733443 -1.935001,1.621722 7.18e-4,1.105418 -0.04523,2.218374 -0.01534,3.319105 0.126483,0.382893 0.630731,0.16697 0.93309,0.223209 3.123597,0 6.247195,0 9.370793,0 0.436227,-0.09373 0.218422,-0.635197 0.270049,-0.950127 -0.01182,-1.020334 0.02351,-2.048768 -0.01746,-3.064096 -0.07926,-0.283595 -0.54511,-0.2646 -0.552475,-0.616152 -0.07037,-0.291756 0.127977,-0.580874 0.416159,-0.646769 0.300644,-0.263481 0.09185,-0.728568 0.153774,-1.080707 0,-5.660846 0,-11.321691 0,-16.982537 -0.09373,-0.436228 -0.635197,-0.218423 -0.950127,-0.270049 -0.767041,0.02313 -1.550011,-0.04647 -2.307044,0.03491 l -0.04931,0.01746 z"
     id="path41"
     transform="translate(-32.75,-34.549999)" /><path
     style="fill:url(#linearGradient45);stroke:none;stroke-width:0.0295931;stroke-linecap:round;stroke-opacity:1;opacity:0.55"
     d="m 10.048936,7.323424 c -0.2624124,1.3958926 -0.031,2.917361 -0.1092396,4.360069 0.062338,2.132199 -0.1391253,4.601329 0.08092,6.698905 0.595552,-0.49972 1.19553,-1.077967 1.957074,-0.950793 1.05801,-0.06677 2.054228,0.806776 1.896385,1.9065 0.105029,1.014905 -0.0632,2.090474 0.184379,3.066815 1.596971,0.09796 3.276169,0.102604 4.867519,-0.0022 0.31379,-0.905235 0.05335,-2.057928 0.134701,-3.060897 -0.0112,-0.586138 -0.045,-0.810263 0.204604,-0.191894 0.841086,1.487692 3.476504,1.123822 3.725436,-0.637234 0.197783,-0.554099 -0.07683,-1.262558 0.02977,-1.625308 0.01079,-0.953944 0.04644,-2.17836 1.160893,-2.528996 1.314984,-0.692662 2.920942,0.50321 2.75499,1.936845 0.09371,0.943793 -0.113214,1.941653 0.114442,2.850069 0.592025,0.170323 1.782885,-0.0154 2.089146,0.08786 -0.552566,0.189429 -0.05622,0.781829 0.365578,0.644748 2.237997,0.08753 4.515095,0.129706 6.732404,0.0094 0.265641,-0.72633 0.148507,-1.700132 0.03817,-2.513541 -0.226164,-0.45655 -0.630227,-1.007247 -0.124846,-1.457981 0.412473,-0.574016 0.0082,-1.41427 0.367312,-1.944358 1.459888,-0.257124 3.006039,0.09061 4.442721,-0.183512 0.01658,-0.78278 -1.069786,-1.218609 -1.491405,-1.858146 -0.677502,-0.970924 -2.009076,-0.342829 -2.996974,-0.517574 -5.715253,0.07021 -11.436547,-0.100502 -17.148149,0.114738 -0.767084,0.02393 -1.932573,0.254465 -1.874377,1.24921 -0.0256,1.260335 0.310047,2.852694 -0.7274,3.802019 -1.019141,0.58919 -2.842794,0.401972 -3.06855,-0.985184 -0.17689,-1.163652 0.07518,-2.384931 -0.162704,-3.517648 -0.303316,-0.04154 0.245396,-0.358765 0.09363,-0.617872 C 13.631038,9.8572978 12.834041,8.1618183 11.260693,7.5791846 10.885461,7.4314503 10.450973,7.2287484 10.048936,7.323424 Z m 9.01578,8.63315 c 0.643765,0.07708 0.561164,0.888015 0.114731,1.17043 -0.16302,0.249977 -0.166849,0.691183 -0.253738,0.140451 -0.391535,-0.345719 -0.730294,-1.173979 0.0367,-1.310881 l 0.05115,-0.002 z"
     id="path43"
     transform="translate(-32.75,-34.549999)"
     sodipodi:nodetypes="ccccccccccccccccccccccccccccccccccccc" /><path
     style="fill:url(#linearGradient47);fill-opacity:0.55;stroke:none;stroke-width:0.0147965;stroke-linecap:round;stroke-opacity:1;opacity:0.55"
     d="m 46.705504,15.931142 c -0.285117,0.481428 0.469397,0.583194 0.753555,0.783899 1.068474,0.539095 1.912997,1.494008 2.432761,2.562375 0.603511,1.149012 0.353134,2.479065 0.466582,3.720378 -0.04606,0.301917 0.145199,0.576536 0.102015,0.861205 -0.175208,0.656067 -0.05034,1.378177 -0.101064,2.057627 -0.03073,6.170127 0.0065,12.340408 0.01177,18.510586 0.258726,1.002649 1.266425,1.794111 2.324387,1.618806 0.776978,-0.05022 1.551785,-0.646364 1.714897,-1.41781 0.138545,-2.77687 0.05593,-5.561609 0.08519,-8.341553 0.0038,-6.719472 0.0024,-13.438946 0.0038,-20.158418 -0.169067,-0.49372 -0.836519,-0.183446 -1.231841,-0.270066 -2.147032,0.01825 -4.30795,-0.03638 -6.446342,0.02721 l -0.0688,0.02721 z m 3.762427,7.916587 c 4.63e-4,-0.0023 0.01032,-0.01351 0,0 z"
     id="path45"
     transform="translate(-32.75,-34.549999)" /><path
     style="fill:url(#linearGradient49);stroke:none;stroke-width:0.0147965;stroke-linecap:round;stroke-opacity:1;opacity:0.55"
     d="m 26.855444,20.89102 c -1.348895,0.01209 -2.563784,1.123513 -2.66858,2.475387 -0.0274,0.42862 -0.118045,0.891348 0.03035,1.300189 0.477506,0.06883 0.572488,0.165129 0.509643,0.691565 0.02833,0.268162 -0.173943,0.418379 -0.392889,0.485801 -0.352817,0.464796 -0.106533,1.12814 -0.268188,1.662878 -0.320895,1.324832 -2.228965,1.706061 -3.175477,0.79936 -0.68224,-0.593295 -0.467592,-1.577796 -0.653343,-2.345834 -0.382859,-0.267052 -0.951767,-0.02908 -1.408059,-0.0862 -0.844671,0.07075 -1.689012,-0.0027 -2.531597,0.0025 -0.186249,0.02868 -0.33896,0.165672 -0.511955,0.0038 -0.363366,-0.147194 -0.63076,0.157059 -0.804562,0.425112 -0.554113,0.269762 -0.323861,1.00474 -0.452277,1.472285 -0.04817,0.908036 -0.892686,1.687941 -1.810408,1.581893 -0.664546,0.09374 -1.322261,-0.229615 -1.709986,-0.765626 -0.549976,-0.328365 -0.507492,0.5018 -0.476697,0.839675 V 46.46125 c 0.169093,0.493681 0.836519,0.183468 1.231841,0.270066 1.254207,-0.01837 2.522389,0.03661 3.767936,-0.02721 0.390657,-0.220908 0.124339,-0.807281 0.20519,-1.18498 0.210452,-0.439773 0.711055,-0.761086 1.031391,-1.155997 0.768899,-0.818026 1.600541,-1.594665 2.33073,-2.438188 0.10213,-0.40358 -0.410171,-0.663568 -0.55069,-1.028165 -0.788105,-1.230866 -1.224785,-2.705797 -1.182821,-4.175529 -0.04305,-0.693072 0.06871,-1.430122 -0.10924,-2.113999 -0.114282,-0.247308 0.136765,-0.509288 0.07746,-0.784495 0.05486,-0.986404 0.04403,-1.974882 0.06068,-2.962326 1.607535,-0.0095 3.21507,-0.01904 4.822605,-0.02876 -0.25761,0.318721 0.244867,0.62168 -0.0035,0.926085 -0.11593,2.172168 -0.03254,4.3535 -0.0181,6.528653 0.01515,0.811776 0.02767,1.761459 0.756631,2.290031 1.198485,1.176591 3.484486,0.781956 4.156131,-0.778494 0.388743,-0.652281 0.138251,-1.453367 0.222597,-2.174343 -0.02543,-0.84244 0.09109,-1.710166 -0.02497,-2.536458 -0.185045,-0.102407 0.150856,-0.305918 0.029,-0.507786 -0.08871,-0.192414 -0.208536,-0.374578 -0.04133,-0.568164 0.09324,-0.430937 0.08056,-0.914645 -0.08944,-1.309292 0.325077,-0.295599 0.05411,-0.784905 -0.302433,-0.903543 -0.270084,-0.295426 -0.152192,-0.850095 0.25157,-0.949349 0.329632,-0.400352 0.136472,-0.99695 0.208259,-1.472262 -0.02076,-0.441736 0.0097,-0.437561 0.149373,-0.05898 0.769596,1.61497 2.910308,2.251777 4.488527,1.475754 0.438252,-0.220529 1.179336,-0.802252 1.40411,-1.254199 0.06083,-0.394494 -0.674027,-0.09559 -0.913831,0.04996 -0.957545,0.306528 -2.24258,-0.05329 -2.547347,-1.103817 -0.179776,-0.544129 0.06852,-1.157692 -0.21111,-1.664612 -0.222602,-0.17694 -0.558198,-0.305659 -0.458925,-0.671769 -0.0034,-0.267546 0.191541,-0.465363 0.43855,-0.505597 0.302891,-0.402714 0.08323,-0.97645 0.132834,-1.442325 0.0096,-0.959878 -0.157641,-2.034507 -0.966729,-2.660971 -0.563604,-0.45346 -1.303103,-0.666495 -2.020943,-0.649083 z"
     id="path47"
     transform="translate(-32.75,-34.549999)"
     sodipodi:nodetypes="cccccccccccccccccccccccccccccccccccccccccccccccccccc" /><path
     style="fill:#9689d7;fill-opacity:1;stroke-width:0.00235412;stroke-linecap:round"
     d="M 5.4380699,0.9190658 C 3.7217383,0.90637293 1.9906658,1.8963889 1.3096171,3.504723 0.96744232,4.1763211 0.92580212,4.9328223 0.93616501,5.6713123 0.87653969,13.986072 0.90327353,22.301314 0.88353221,30.616278 c 0.0100003,1.563064 -0.0266272,3.134082 0.0124677,4.692183 0.12929699,0.380077 0.63049259,0.164762 0.93273159,0.221019 1.3414513,-0.01174 2.6909514,0.02338 4.0274035,-0.01746 0.3797235,-0.12967 0.1644704,-0.630441 0.2207342,-0.93267 -0.0122,-6.796793 0.02765,-13.593913 -0.02912,-20.390488 -0.0085,-0.302313 -0.00211,-0.626669 -0.083784,-0.910381 C 6.1588923,12.477889 6.0524102,11.635989 6.118965,10.81892 6.1027077,9.841018 6.5704714,8.8798715 7.3156413,8.2444134 8.0198825,7.5941944 9.0213958,7.4520681 9.9247795,7.3378223 10.270274,7.1758324 10.053833,6.7072827 10.102415,6.4062514 10.080142,5.3498927 10.118008,4.2281054 9.5715669,3.2799257 9.2323104,2.5712268 8.6378992,1.9995489 7.9824364,1.5806501 7.2132304,1.1380133 6.3248377,0.91095873 5.4380699,0.9190658 Z"
     id="path7"
     transform="translate(-32.75,-34.549999)" /><path
     style="fill:url(#linearGradient11);stroke-width:0.00235412;stroke-linecap:round"
     d="m -23.3413,-27.374747 c -1.539625,0.08623 -2.965821,1.199307 -3.364593,2.698594 -0.16991,0.973111 -0.156727,1.974241 -0.111509,2.958846 -0.0067,0.154105 0.07106,0.301977 0.117195,0.432201 -0.221856,0.384338 -0.0924,0.871341 -0.140327,1.296193 -8.44e-4,1.8928 -0.02718,3.793497 0.01096,5.681315 0.12967,0.379723 0.63044,0.16447 0.932669,0.220734 1.009403,-0.01161 2.026789,0.02324 3.031196,-0.01746 0.379723,-0.12967 0.16447,-0.63044 0.220734,-0.932669 0,-4.033332 0,-8.066663 0,-12.099994 -0.0492,-0.372474 -0.440689,-0.248469 -0.696324,-0.23776 z"
     id="path9" /><path
     style="display:inline;fill:url(#linearGradient14);stroke-width:0.00235412;stroke-linecap:round"
     d="m 27.316025,29.184196 c -0.326191,0.237459 -0.11261,0.713099 -0.171903,1.058739 -0.04087,0.305698 0.0068,0.669752 0.371349,0.730757 0.291235,0.169426 0.337482,0.592451 0.05681,0.804528 -0.223492,0.131114 -0.491006,0.316138 -0.425355,0.619692 -0.03658,0.184945 0.272098,0.31885 0.0796,0.471947 -0.125781,0.417887 -0.142425,0.915409 0.0472,1.315404 0.06853,0.169157 -0.18295,0.302237 -0.131296,0.496264 0.07925,0.279303 -0.01525,0.499137 -5.83e-4,0.790223 -0.02961,1.303316 0.05831,2.609668 -0.07605,3.907895 -0.215264,1.093625 -1.366578,1.811927 -2.446303,1.708904 -1.000274,-0.02845 -1.97536,-0.714334 -2.209743,-1.709756 -0.08912,-0.72175 -0.01776,-1.470314 -0.04541,-2.202336 -0.0273,-1.807665 0.02998,-3.6192 -0.07003,-5.424394 -0.0026,-0.143057 -0.180215,-0.24673 -0.02953,-0.369772 0.152157,-0.268617 0.121307,-0.79702 -0.293038,-0.734946 -1.532519,0.01173 -3.07308,-0.02334 -4.600606,0.01746 -0.379929,0.129745 -0.164089,0.630662 -0.220054,0.932976 0.03048,0.907509 -0.06133,1.827828 0.07013,2.727669 0.0683,0.108265 0.121267,0.21644 0.01073,0.3241 -0.153144,0.813455 -0.06118,1.655121 -0.04302,2.478361 0.08486,3.059554 2.206414,5.914463 5.068605,6.964363 0.982917,0.387707 2.045258,0.542408 3.098063,0.457233 1.55766,-0.0073 3.067119,-0.618114 4.320877,-1.515564 1.926804,-1.457463 3.182101,-3.817984 3.152647,-6.251431 2.7e-4,-0.738047 0.07366,-1.490193 0.0075,-2.219311 -0.393639,-0.517505 -0.920597,-0.951587 -1.364879,-1.43737 -0.904549,-0.890249 -1.754421,-1.847007 -2.737535,-2.651317 -0.482282,-0.297761 -0.82632,-0.760023 -1.137072,-1.217214 -0.07623,-0.09762 -0.171005,-0.07834 -0.281156,-0.0731 z"
     id="path12"
     transform="translate(-32.75,-34.549999)" /><path
     style="fill:url(#linearGradient20);fill-opacity:1;stroke-width:0.00235412;stroke-linecap:round"
     d="m 21.617204,45.663521 c -0.939453,-0.0028 -1.852323,0.679828 -2.006721,1.626629 -0.03425,0.478517 -0.112859,0.979958 -0.01052,1.447107 0.215484,0.143356 0.553278,0.249405 0.5308,0.576064 0.03482,0.256217 -0.128543,0.508935 -0.392761,0.549191 -0.30907,0.233965 -0.122208,0.690211 -0.192457,1.024161 -0.0096,1.212701 -0.248113,2.470686 -0.845371,3.577785 -0.684176,1.331368 -1.78492,2.412996 -3.065685,3.170649 -0.644106,0.382913 -1.37216,0.592747 -2.073345,0.827022 -0.323564,0.167771 -0.03085,0.606918 0.27573,0.498343 3.845057,0.0019 7.690114,0.0037 11.53517,0.0055 0.436286,-0.09358 0.21856,-0.635218 0.270151,-0.950127 0,-0.925401 0,-1.850802 0,-2.776202 0.356602,0.960409 1.360729,1.655913 2.396312,1.55423 1.166478,0.127323 2.288691,-0.784153 2.527306,-1.909902 0.141435,-0.992302 0.06616,-2.004312 0.095,-3.00446 -0.01203,-0.803593 0.02354,-1.615383 -0.01774,-2.413956 -0.08522,-0.3043 -0.555949,-0.26156 -0.616674,-0.610113 -0.222934,-0.343135 -0.702707,-0.126983 -1.043464,-0.191477 -1.737802,-0.0122 -3.475604,-0.02439 -5.213406,-0.03659 -0.03941,-0.779518 0.04967,-1.689356 -0.556752,-2.291585 -0.401906,-0.441462 -1.000615,-0.686226 -1.595568,-0.672313 z"
     id="path18"
     transform="translate(-32.75,-34.549999)" /><path
     style="fill:url(#linearGradient22);fill-opacity:1;stroke-width:0.00235412;stroke-linecap:round"
     d="m 35.57178,45.007556 c -0.839357,-0.09087 -1.644757,0.451915 -1.971497,1.213205 -0.212162,0.448765 -0.05389,0.979358 -0.104579,1.462556 0.0053,3.684498 -0.04954,7.370603 0.01806,11.054132 0.09761,0.344738 0.493181,0.194224 0.687356,0.02683 0.76976,-0.471196 1.560098,-0.923823 2.304856,-1.426218 0.205238,-0.301417 0.05519,-0.723633 0.111459,-1.07393 0.02831,-0.910238 0.0026,-1.836923 0.101872,-2.734549 0.25077,-0.702317 0.946338,-1.327149 1.721856,-1.232148 0.507698,-0.02419 1.098765,0.04144 1.453749,0.469512 0.172947,0.216426 0.554807,0.570316 0.748943,0.181872 0.0169,-0.922737 0.02755,-1.857672 -0.0051,-2.776984 -0.12967,-0.379723 -0.630441,-0.16447 -0.932669,-0.220734 -0.690086,-0.005 -1.371084,0.01313 -2.059444,-0.02278 -0.08109,-1.183492 0.06428,-2.379779 -0.112392,-3.557842 -0.215955,-0.819386 -1.114333,-1.4612 -1.962479,-1.362915 z"
     id="path21"
     transform="translate(-32.75,-34.549999)" /><path
     style="fill:url(#linearGradient24);fill-opacity:1;stroke-width:0.00235412;stroke-linecap:round"
     d="m 42.648229,33.633925 c -0.931141,-0.08653 -1.881676,0.542963 -2.114618,1.456406 -0.122086,1.285989 -0.05362,2.584101 -0.08216,3.874787 -0.01096,3.629767 -0.01607,7.259549 -0.0243,10.889322 0.09302,0.436732 0.635199,0.219015 0.950127,0.27056 0.773998,-0.02771 1.56447,0.05837 2.329185,-0.07111 0.195549,-0.09978 0.386835,0.147102 0.607023,0.07111 0.470455,-0.01934 0.28537,-0.590153 0.318833,-0.898322 -0.01618,-4.698721 -0.003,-9.400612 -0.03749,-14.097355 -0.250383,-0.828055 -1.056925,-1.522095 -1.946593,-1.495398 z"
     id="path22"
     transform="translate(-32.75,-34.549999)" /><path
     style="fill:url(#linearGradient32);fill-opacity:1;stroke-width:0.00235412;stroke-linecap:round"
     d="m 44.888829,15.912559 c -1.682031,0.02561 -3.341853,0.822624 -4.353082,2.177977 -0.772207,0.988136 -1.191274,2.236324 -1.167035,3.491009 -0.01417,0.806573 -0.05757,1.6202 -0.03514,2.422473 0.0697,0.236534 -0.07516,0.519265 0.0061,0.809147 0.0072,0.994665 0.188646,2.046629 0.861367,2.820114 1.43068,1.769212 4.450435,1.795285 5.928,0.07397 0.327836,-0.376007 0.57298,-0.821643 0.726057,-1.295888 0.01792,6.505436 0.006,13.013562 0.0095,19.520058 0.09379,0.43651 0.635424,0.217975 0.950433,0.269158 1.156175,-0.02442 2.318655,0.04345 3.471301,-0.04519 0.311571,-0.06335 0.279683,-0.499658 0.0053,-0.595988 -0.520931,-0.376197 -0.784633,-1.027825 -0.715404,-1.661834 -0.07331,-6.461872 0.0093,-12.926482 -0.06273,-19.389192 0.01396,-0.270765 -0.05131,-0.568744 -0.08739,-0.807516 0.219793,-0.557886 0.07033,-1.18298 0.102756,-1.767816 0.01359,-0.882848 -0.05334,-1.783616 -0.431779,-2.595541 -0.864154,-2.041106 -2.976013,-3.479214 -5.208259,-3.424946 z"
     id="path31"
     transform="translate(-32.75,-34.549999)" /><path
     style="fill:url(#linearGradient39);fill-opacity:0.55;stroke:none;stroke-width:0;stroke-linecap:round;stroke-opacity:1;opacity:0.6"
     d="m 5.9873637,39.097028 c -1.0401525,-0.02686 -1.965366,0.970823 -1.8984341,2.0044 -0.034444,2.19317 -0.00894,4.386949 -0.016942,6.580359 0.1275639,0.228413 0.2141027,0.28033 0.029324,0.516598 -0.048712,0.195829 -0.073045,0.51837 0.167976,0.590164 -0.3796475,0.308477 -0.1344665,0.848448 -0.1919326,1.266425 0.027977,1.119658 -0.041243,2.274815 0.3779739,3.338722 0.8661586,2.686812 3.2847282,4.789313 6.0674891,5.26937 1.128461,0.223461 2.308495,0.132946 3.418562,-0.146636 3.030345,-0.807684 5.461282,-3.585107 5.738174,-6.725667 0.02316,-0.58076 0.09056,-1.175996 0.03139,-1.749347 -0.1136,-0.240669 -0.529925,-0.253198 -0.544102,-0.583824 -0.07566,-0.298773 0.148006,-0.561747 0.420757,-0.646156 0.282575,-0.273473 0.08098,-0.714683 0.154698,-1.063739 0.01116,-0.660574 0.306561,-1.340431 0.911718,-1.659621 0.297818,-0.08898 0.329399,-0.560358 -0.01769,-0.583642 -1.610523,0.01168 -3.229061,-0.0233 -4.834588,0.01746 -0.379693,0.12967 -0.164536,0.630441 -0.220861,0.932669 -0.02858,1.582877 0.07094,3.180254 -0.116864,4.749103 -0.210395,1.325876 -1.314418,2.402791 -2.611394,2.685777 -0.714397,0.138677 -1.471545,0.116043 -2.184811,-0.07265 C 9.5574364,53.479276 8.6601844,52.552889 8.3768326,51.436215 8.1696382,50.547625 8.2788061,49.620683 8.2322568,48.715916 8.2010975,48.053996 8.2643826,47.374798 8.1750606,46.723519 8.038971,46.490046 7.6240494,46.427772 7.6600737,46.07355 7.6030174,45.767318 7.8984184,45.598138 8.1184127,45.476 8.3436752,45.195846 8.1669185,44.776062 8.2193967,44.438865 8.2028693,43.132079 8.2198786,41.821062 8.1827543,40.516892 7.8940647,39.68445 7.0574526,39.001733 6.1453266,39.096109 c -0.052654,3.06e-4 -0.1053086,6.13e-4 -0.1579629,9.19e-4 z"
     id="path32"
     transform="translate(-32.75,-34.549999)" /><path
     style="fill:url(#linearGradient33);fill-opacity:1;stroke-width:0.00235412;stroke-linecap:round;opacity:0.55"
     d="M 5.4380699,0.9190658 C 3.7217383,0.90637293 1.9906658,1.8963889 1.3096171,3.504723 0.96744232,4.1763211 0.92580212,4.9328223 0.93616501,5.6713123 0.87653969,13.986072 0.90327353,22.301314 0.88353221,30.616278 c 0.0100003,1.563064 -0.0266272,3.134082 0.0124677,4.692183 0.12929699,0.380077 0.63049259,0.164762 0.93273159,0.221019 1.3414513,-0.01174 2.6909514,0.02338 4.0274035,-0.01746 0.3797235,-0.12967 0.1644704,-0.630441 0.2207342,-0.93267 -0.0122,-6.796793 0.02765,-13.593913 -0.02912,-20.390488 -0.0085,-0.302313 -0.00211,-0.626669 -0.083784,-0.910381 C 6.1588923,12.477889 6.0524102,11.635989 6.118965,10.81892 6.1027077,9.841018 6.5704714,8.8798715 7.3156413,8.2444134 8.0198825,7.5941944 9.0213958,7.4520681 9.9247795,7.3378223 10.270274,7.1758324 10.053833,6.7072827 10.102415,6.4062514 10.080142,5.3498927 10.118008,4.2281054 9.5715669,3.2799257 9.2323104,2.5712268 8.6378992,1.9995489 7.9824364,1.5806501 7.2132304,1.1380133 6.3248377,0.91095873 5.4380699,0.9190658 Z"
     id="path33"
     transform="translate(-32.75,-34.549999)" /><path
     style="opacity:1;fill:url(#linearGradient36);fill-opacity:1;stroke-width:0.00332922;stroke-linecap:round"
     d="m 7.7398659,39.531635 c -0.2436555,0.504215 0.4732048,0.936366 0.3175119,1.479348 0.032539,1.444373 -0.00763,2.903297 0.069981,4.33861 0.1185358,0.260259 0.5689916,0.285286 0.5318007,0.668103 0.051276,0.505358 -0.775221,0.586976 -0.5691758,1.146299 0.057147,1.533505 -0.1425865,3.103274 0.2100316,4.610754 0.6663899,1.865648 2.9752797,2.868404 4.8218057,2.208085 1.407912,-0.415246 2.514813,-1.726131 2.56093,-3.212614 0.06816,-1.332593 0.06912,-2.682152 0.02255,-4.00782 -0.226442,-0.393786 -0.821299,-0.12032 -1.20468,-0.201393 -1.251797,-0.02436 -2.543782,0.05064 -3.767629,-0.04841 -0.06906,-2.280574 0.01167,-4.577751 -0.05856,-6.852669 -0.226534,-0.393688 -0.8212467,-0.120153 -1.2046343,-0.201267 -0.5698939,0.04147 -1.1844739,-0.08752 -1.7299245,0.07297 z"
     id="path34"
     transform="translate(-32.75,-34.549999)" /><path
     d="M -1.2,-1.2 0,0 1.2,-1.2 M 0,0 V 0.15 0.3 0.45 0.6 0.75 0.9 1.05 1.2 v 1 c 0,4.2802097 -3.4697933,7.7499966 -7.75,7.7499966 -4.280207,0 -7.75,-3.4697869 -7.75,-7.7499966 v -1 -0.5 m 0,0.5 v -3 -2 h 5 m -1.2,0 h 2.4 m -1.2,0.2053021 V -1.8 v 0.15 0.15 0.15 0.15 0.15 0.15 0.15 0.15 0.15 0.15 0.15 V 0 0.15 0.3 0.45 0.6 0.75 0.9 1.05 1.2 1.35 1.5 1.65 1.8 1.95 2.1 2.25 2.4 2.55 2.7 2.85 3 v 0.15 1 c 0,3.3333319 5,3.3333319 5,0 V 3.15 3 2.85 2.7 2.55 2.4 2.25 2.1 1.95 1.8 1.65 1.5 1.35 1.2 1.05 0.9 0.75 0.6 -3.55 m -1.2,4 h 2.4 m -1.2,-3 c -0.7999997,0 -0.7999997,-1.2 0,-1.2 0.7999997,0 0.7999997,1.2 0,1.2 m 0,-1.2 v -3 c 0,4.3333315 6.5,4.3333315 6.5,0 v -1 m -1.2,0 h 2.4 m -1.2,0 v 1 c 0,2.6666655 -4,2.6666655 -4,0 v -1 c -0.7999997,0 -0.7999997,-1.2 0,-1.2 0.7999997,0 0.7999997,1.2 0,1.2 m 0,-1.2 V -9.1 -9.25 -9.4 -9.55 -9.7 v -0.15 -1 c 0,-3.666665 -5.5,-3.666665 -5.5,0 v 1 m -1.2,0 h 2.4 m -1.2,0 c 0.7999997,0 0.7999997,1.2 0,1.2 -0.7999997,0 -0.7999997,-1.2 0,-1.2 m 0,1.2 v 1 c 0,2.6666655 -4,2.6666655 -4,0 v -1 m -1.2,0 h 2.4 m -2.25,0 h -0.15 -0.15 -0.15 -4.5 m 1,0 c 0,0.7999997 -1.2,0.7999997 -1.2,0 0,-0.7999997 1.2,-0.7999997 1.2,0 m -0.6,0.6 v 1 c 0,2.6666655 -4,2.6666655 -4,0 v -1 m -1.2,0 h 2.4 m -1.2,0 v 0.15 0.15 0.15 0.15 0.15 0.15 0.15 0.15 0.15 0.15 0.15 0.15 0.15 0.15 0.15 0.15 0.15 0.15 0.15 0.15 0.15 0.15 0.15 0.15 0.15 0.15 0.15 0.15 0.15 0.15 0.15 0.15 0.15 0.15 0.15 0.15 0.15 0.15 0.15 0.15 0.15 0.15 0.15 0.15 0.15 0.15 0.15 0.15 0.15 0.15 0.15 0.15 V -0.1 0.05 0.2 0.35 0.5 0.65 0.8 0.95 1.1 1.25 1.4 1.55 1.7 1.85 2 2.15 2.3 2.45 2.6 2.75 2.9 3.05 3.2 3.35 3.5 3.65 3.8 3.95 4.1 4.25 4.4 4.55 4.7 4.85 5 5.15 5.3 5.45 5.6 5.75 5.9 6.05 6.2 6.35 6.5 6.65 6.8 6.95 7.1 7.25 7.4 7.55 7.7 7.85 8 8.15 8.3 8.45 8.6 8.75 8.9 9.05 9.2 9.35 9.5 9.65 9.8 v 0.15 0.15 2 h 5 m 0,-1.2 v 2.4 m 0,-1.2 v 0.15 0.15 0.15 0.15 0.15 0.15 0.15 0.15 0.15 0.15 0.15 0.15 0.15 0.15 0.15 0.15 0.15 0.15 1 c 0,4.999998 -7.5,4.999998 -7.5,0 V 14.8 14.65 14.5 14.35 14.2 14.05 13.9 13.75 13.6 13.45 13.3 13.15 13 12.85 12.7 12.55 12.4 12.25 12.1 c -0.8,0 -0.8,-1.2 0,-1.2 0.8,0 0.8,1.2 0,1.2 m 0,-1.2 V 10.75 10.6 10.45 10.3 10.15 10 9.85 9.7 9.55 9.4 9.25 9.1 8.95 8.8 8.65 8.5 8.35 8.2 8.05 7.9 7.75 7.6 6.6 c 0,-2.6666655 -4,-2.6666655 -4,0 V 7.6 7.75 7.9 8.05 8.2 8.35 8.5 8.65 8.8 8.95 9.1 9.25 9.4 9.55 9.7 9.85 10 v 0.15 0.15 0.15 0.15 0.15 0.15 0.15 0.15 0.15 0.15 0.15 0.15 0.15 0.15 0.15 0.15 0.15 0.15 0.15 0.15 0.15 0.15 2.15 -1.85 m -1.2,-1.2 1.2,1.2 1.2,-1.2 m -2.4,0.9 1.2,1.2 1.2,-1.2 m -1.2,1.2 v 1.9 c 0,4.28021 3.469793,7.749997 7.75,7.749997 4.280207,0 7.75,-3.469787 7.75,-7.749997 v -1 c -0.8,0 -0.8,-1.2 0,-1.2 0.8,0 0.8,1.2 0,1.2 m 0,-1.2 v -1 c 0,-2.666666 4,-2.666666 4,0 v 1 m -1.2,0 h 2.4 m -1.2,0 h 0.15 0.15 0.15 0.15 0.15 0.15 0.15 0.15 0.15 0.15 0.15 0.15 0.15 0.15 0.15 0.15 0.15 0.15 0.15 0.15 0.15 0.15 0.15 0.15 0.15 0.15 0.15 0.15 0.15 0.15 0.15 0.15 0.15 0.15 0.15 0.15 0.15 0.15 0.15 0.15 0.15 0.15 c 0,-0.8 1.2,-0.8 1.2,0 0,0.8 -1.2,0.8 -1.2,0 m 0.6,0.6 v 0.15 0.15 0.15 0.15 0.15 0.15 0.15 0.15 0.15 0.15 0.15 0.15 0.15 0.15 0.15 0.15 0.15 0.15 0.15 0.15 0.15 0.15 0.15 0.15 0.15 0.15 1 c 0,3.333332 -5,3.333332 -5,0 V 18.7 18.55 18.4 18.25 18.1 17.95 17.8 17.65 17.5 17.35 17.2 17.05 16.9 m -1.2,0 H -6 m -1.2,0 v 0.15 0.15 0.15 0.15 0.15 0.15 0.15 0.15 0.15 0.15 0.15 0.15 0.15 0.15 0.15 0.15 0.15 0.15 0.15 0.15 0.15 0.15 0.15 0.15 0.15 0.15 0.15 0.15 0.15 0.15 0.15 0.15 0.15 0.15 0.15 0.15 0.15 2 h 5 0.15 0.15 0.15 0.15 0.15 0.15 0.15 0.15 0.15 0.15 0.15 0.15 0.15 H -0.1 0.05 0.2 0.35 0.5 0.65 0.8 V 24.3 24.15 24 23.85 23.7 23.55 23.4 23.25 23.1 22.95 22.8 22.65 22.5 22.35 22.2 22.05 21.9 21.75 21.6 21.45 21.3 21.15 21 20.85 20.7 20.55 20.4 20.25 20.1 19.95 19.8 19.65 19.5 19.35 19.2 19.05 18.9 18.75 18.6 18.45 18.3 18.15 18 17.85 17.7 17.55 17.4 17.25 17.1 16.95 16.8 16.65 16.5 16.35 16.2 16.05 15.9 15.75 15.6 15.45 15.3 15.15 15 14.85 14.7 14.55 14.4 14.25 14.1 13.95 13.8 13.65 13.5 v -1 c 0,-2.6666655 4,-2.6666655 4,0 v 1 2 h 5 1.807842 M 11.8,14.3 v 2.4 m 0,-1.2 V 15.35 15.2 15.05 14.9 14.75 14.6 14.45 14.3 14.15 14 13.85 13.7 13.55 13.4 13.25 13.1 12.95 12.8 12.65 12.5 12.35 12.2 12.05 11.9 11.75 11.6 11.45 11.3 11.15 11 10.85 10.7 10.55 10.4 10.25 10.1 9.95 9.8 9.65 9.5 9.35 9.2 9.05 8.9 8.75 8.6 8.45 8.3 8.15 8 7.85 7.7 7.55 7.4 7.25 7.1 6.95 6.8 6.65 6.5 6.35 6.2 6.05 5.9 5.75 5.6 5.45 5.3 5.15 5 4.85 4.7 4.55 4.4 4.25 4.1 3.95 3.8 3.65 3.5 3.35 3.2 3.05 2.9 2.75 2.6 2.45 2.3 2.15 v -1 c 0,-2.6666655 -4,-2.6666655 -4,0 v 1 V 2.3 2.45 2.6 2.75 2.9 3.05 3.2 3.35 3.5 3.65 3.8 3.95 4.1 4.25 4.4 4.55 4.7 4.85 5 5.15 5.3 5.45 5.6 5.75 5.9 6.05 6.2 6.35 6.5 6.65 6.8 6.95 7.1 7.25 7.4 7.55 7.7 7.85 8 8.15 8.3 8.45 8.6 8.75 8.9 9.05 9.2 9.35 9.5 9.65 9.8 v 0.15 0.15 0.15 0.15 0.15 0.15 0.15 0.15 0.15 0.15 0.15 0.15 0.15 0.15 0.15 0.15 0.15 0.15 0.15 0.15 0.15 0.15 0.15 0.15 0.15 0.15 0.15 0.5 m 0,-1.75 v 8 -1 c 0,-2.666666 -4,-2.666666 -4,0 v 1 2 H 8.8 8.95 9.1 9.25 9.4 9.55 9.7 9.85 10 h 0.15 0.15 0.15 0.15 0.15 0.15 0.15 0.15 0.15 0.15 0.15 0.15 0.15 0.15 0.15 0.15 0.15 0.15 0.15 0.15 0.15 0.15 0.15 0.15 0.15 0.15 0.15 0.15 m 0,-1.2 v 2.4 m 0,-1.2 V 22.45 22.3 22.15 22 21.85 21.7 21.55 21.4 21.25 21.1 20.95 20.8 20.65 20.5 20.35 20.2 20.05 19.9 19.75 19.6 19.45 19.3 19.15 19 18.85 18.7 18.55 c -0.8,0 -0.8,-1.2 0,-1.2 0.8,0 0.8,1.2 0,1.2 m 0,-1.2 V 17.2 17.05 16.9 16.75 16.6 16.45 16.3 16.15 16 15.85 15.7 15.55 15.4 15.25 15.1 14.95 14.8 14.65 14.5 14.35 14.2 14.05 13.9 13.75 13.6 13.45 13.3 13.15 13 12.85 12.7 12.55 12.4 12.25 12.1 11.95 11.8 11.65 11.5 11.35 11.2 11.05 10.9 10.75 10.6 10.45 10.3 10.15 10 9.85 9.7 9.55 9.4 9.25 9.1 8.95 8.8 8.65 8.5 8.35 8.2 8.05 7.9 7.75 7.6 7.45 7.3 7.15 7 6.85 6.7 6.55 6.4 6.25 6.1 5.95 5.8 5.65 5.5 5.35 5.2 5.05 4.9 4.75 4.6 4.45 4.3 4.15 4 3.85 3.7 3.55 3.4 3.25 3.1 2.95 2.8 2.65 2.5 2.35 2.2 2.05 1.9 1.75 1.6 1.45 1.3 1.15 1 0.85 0.7 0.55 0.4 0.25 0.1 -0.05 -0.2 -0.35 -0.5 -0.65 -0.8 -0.95 -1.1 -1.25 -1.4 -1.55 -1.7 -1.85 -2 -2.15 -2.3 -2.45 -2.6 -2.75 -2.9 -3.05 -3.2 -3.35 -3.5 -3.65 -3.8 -3.95 -4.1 -4.25 -4.4 -4.55 -4.7 -4.85 -5 -5.15 -5.3 -5.45 -5.6 -5.75 -5.9 -6.05 -6.2 -6.35 -6.5 -6.65 -6.8 -6.95 -7.1 -7.25 -7.4 -7.55 -7.7 -7.85 -8 -8.15 -8.3 -8.45 -8.6 -8.75 -8.9 -9.05 -9.2 -9.35 -9.5 -9.65 -9.8 v -0.15 -0.15 -0.15 -0.15 1 c 0,4.9999978 -7.5,4.9999978 -7.5,0 v -1 m -1.2,0 h 2.4 m -1.2,0 v -0.15 -0.15 -0.15 -0.15 -0.15 -0.15 -0.15 -0.15 -0.15 -0.15 -0.15 -1 c 0,-3.037568 2.4624339,-5.499998 5.5,-5.499998 3.037566,0 5.5,2.46243 5.5,5.499998 v 1 2.5 m 0,-0.5 v 0.5 0.15 0.15 0.15 0.15 0.15 0.15 0.15 0.15 0.15 0.15 0.15 0.15 0.15 0.15 0.15 0.15 0.15 0.15 0.15 0.15 0.15 0.15 0.15 0.15 0.15 0.15 0.15 0.15 0.15 0.15 0.15 0.15 0.15 0.15 0.15 0.15 0.15 0.15 0.15 0.15 0.15 0.15 0.15 0.15 0.15 0.15 0.15 0.15 0.15 0.15 0.15 0.15 0.15 0.15 0.15 0.15 0.15 0.15 0.15 0.15 0.15 0.15 V -0.1 0.05 0.2 0.35 0.5 0.65 0.8 0.95 1.1 1.25 1.4 1.55 1.7 1.85 2 2.15 2.3 2.45 2.6 2.75 2.9 3.05 3.2 3.35 3.5 3.65 3.8 3.95 4.1 4.25 4.4 4.55 4.7 4.85 5 5.15 5.3 5.45 5.6 5.75 5.9 6.05 6.2 6.35 6.5 6.65 6.8 6.95 7.1 7.25 7.4 7.55 7.7 7.85 8 8.15 8.3 v 0.15 1 c 0,2.666666 4,2.666666 4,0 V 8.45 8.3 8.15 8 7.85 7.7 7.55 7.4 7.25 7.1 6.95 6.8 6.65 6.5 6.35 6.2 6.05 5.9 5.75 5.6 5.45 5.3 5.15 5 4.85 4.7 4.55 4.4 4.25 4.1 3.95 3.8 3.65 3.5 3.35 3.2 3.05 2.9 2.75 2.6 2.45 2.3 2.15 2 1.85 1.7 1.55 1.4 1.25 1.1 0.95 0.8 0.65 0.5 0.35 0.2 0.05 -0.1 -0.25 -0.4 -0.55 -0.7 -0.85 -1 -1.15 -1.3 -1.45 -1.6 -1.75 -1.9 -2.05 -2.2 -2.35 -2.5 -2.65 -2.8 -2.95 -3.1 -3.25 -3.4 -3.55 -3.7 -3.85 -4 -4.15 -4.3 -4.45 -4.6 -4.75 -4.9 -5.05 -5.2 -5.35 -5.5 -5.65 -5.8 -5.95 -6.1 -6.25 -6.4 -6.55 -6.7 -6.85 -7 -7.15 -7.3 -7.45 -7.6 -7.75 -7.9 -8.05 -8.2 -8.35 -8.5 -8.65 -8.8 -8.95 -9.1 -9.25 -9.4 -9.55 -9.7 -9.85 -10 v -0.15 -0.15 -0.15 -0.15 -0.15 -0.15 -0.15 -0.15 -0.15 -0.15 -0.15 -0.15 -0.15 -0.15 -0.15 -0.15 -0.15 -0.15 -0.15 -0.15 -0.15 -0.15 -0.15 -0.15 -0.15 -0.15 -0.15 -0.15 -0.15 -0.15 -0.15 -0.15 -0.15 -0.15 -0.15 -0.15 -0.15 -0.15 -0.15 -0.15 -0.15 -0.15 -0.15 -0.15 -0.15 -0.15 -0.15 -0.15 -0.15 -0.15 -0.15 -0.15 -0.15 -0.15 -0.15 -0.15 -0.15 -0.15 -0.15 -0.15 -0.15 -0.15 -0.15 -0.15 -0.15 -0.15 -0.15 -0.15 -0.15 -0.15 -0.15 -0.15 -0.15 -0.15 -2.5 m -1.2,0.5 h 2.4 m -1.2,0 H 21.55 21.4 21.25 21.1 20.95 20.8 20.65 20.5 20.35 20.2 20.05 19.9 19.75 19.6 19.45 19.3 19.15 19 18.85 18.7 18.55 18.4 18.25 18.1 17.95 17.8 17.65 17.5 17.35 17.2 17.05 16.9 16.75 16.6 16.45 16.3 16.15 16 15.85 15.7 15.55 15.4 15.25 15.1 14.95 14.8 14.65 14.5 14.35 14.2 14.05 13.9 13.75 13.6 13.45 13.3 13.15 13 12.85 12.7 12.55 12.4 12.25 12.1 11.95 11.8 11.65 11.5 11.35 11.2 11.05 10.9 10.75 10.6 10.45 10.3 10.15 10 9.85 9.7 9.55 9.4 9.25 9.1 8.95 8.8 8.65 8.5 8.35 8.2 8.05 7.9 7.75 7.6 7.45 7.3 7.15 7 6.85 6.7 6.55 6.4 6.25 6.1 5.95 5.8 5.65 5.5 5.35 5.2 5.05 4.9 4.75 4.6 4.45 4.3 4.15 4 3.85 3.7 3.55 3.4 3.25 3.1 2.95 2.8 2.65 2.5 2.35 2.2 2.05 1.9 1.75 1.6 1.45 1.3 1.15 1 0.85 0.7 0.55 0.4 0.25 0.1 -0.05 -0.2 -0.35 -0.5 -0.65 -0.8 -0.95 -1.1 -1.25 -1.4 -1.55 -1.7 -1.85 -2 -2.15 -2.3 -2.45 -2.6 -2.75 -2.9 -3.05 -3.2 -3.35 -3.5 -3.65 -3.8 -3.95 -4.1 -4.25 -4.4 -4.55 -4.7 -4.85 -5 -5.15 -5.3 -5.45 -5.6 -5.75 -5.9 -6.05 -6.2 -6.35 -6.5 -6.65 -6.8 -6.95 -7.1 -7.25 -7.4 -7.55 -7.7 -7.85 -8 -8.15 -8.3 -8.45 -8.6 -8.75 -8.9 -9.05 -9.2 -9.35 -9.5 -9.65 -9.8 h -0.15 -0.15 -0.15 -0.15 -0.15 -0.15 -0.15 -0.15 -0.15 -4.5 m 1,0 c 0,0.8 -1.2,0.8 -1.2,0 0,-0.8 1.2,-0.8 1.2,0 m -0.6,0.6 v 0.15 0.15 0.15 0.15 0.15 0.15 0.15 0.15 0.15 0.15 0.15 0.15 0.15 1 c 0,2.666666 -4,2.666666 -4,0 v -1 -0.15 -0.15 -0.15 -0.15 -0.15 -0.15 -0.15 -0.15 -0.15 -0.15 -0.15 -0.15 -0.15 m -1.2,0 h 2.4 m -1.2,0 v -1 c 0,-4.999998 -7.5,-4.999998 -7.5,0 v 1 0.5 m 0,-0.5 v 2.5 0.15 0.15 0.15 0.15 0.15 0.15 0.15 0.15 0.15 0.15 0.15 0.15 0.15 0.15 0.15 0.15 0.15 0.15 0.15 0.15 0.15 0.15 0.15 0.15 0.15 0.15 0.15 0.15 0.15 0.15 0.15 0.15 0.15 0.15 0.15 0.15 0.15 0.15 0.15 0.15 0.15 0.15 0.15 0.15 0.15 0.15 0.15 0.15 0.15 0.15 0.15 0.15 0.15 0.15 0.15 0.15 0.15 0.15 0.15 0.15 0.15 0.15 0.15 0.15 0.15 0.15 0.15 0.15 0.15 0.15 0.15 0.15 0.15 0.15 0.15 0.15 0.15 0.15 0.15 0.15 0.15 0.15 0.15 0.15 0.15 0.15 0.15 0.15 0.15 0.15 0.15 0.15 0.15 0.15 0.15 0.15 0.15 0.15 0.15 0.15 0.15 0.15 0.15 0.15 0.15 0.15 0.15 0.15 0.15 0.15 0.15 0.15 0.15 0.15 0.15 0.15 0.15 0.15 0.15 0.15 0.15 0.15 0.15 0.15 0.15 0.15 2 h -5 m 0,-1.2 v 2.4 m 0,-1.2 V 0.75 0.6 0.45 0.3 0.15 0 -0.15 -0.3 -0.45 -0.6 -0.75 -0.9 -1.05 -1.2 -1.35 -1.5 -1.65 -1.8 -1.95 -2.1 -2.25 -2.4 -2.55 -2.7 -2.85 -3 -3.15 -3.3 -3.45 -3.6 -3.75 -3.9 -4.05 -4.2 -4.35 -4.5 -4.65 -4.8 -4.95 -5.1 -5.25 -5.4 -5.55 -5.7 -5.85 -6 -6.15 -6.3 -6.45 -6.6 -6.75 -6.9 -7.05 -7.2 -7.35 -7.5 -7.65 -7.8 -7.95 -8.1 -8.25 -8.4 -8.55 -8.7 -8.85 -9 -9.15 -9.3 -9.45 -9.6 -9.75 -9.9 v -0.15 -0.15 -0.15 -0.15 -0.15 -0.15 -0.15 -0.15 -0.15 -0.15 -0.15 -0.15 -0.15 -0.15 -0.15 -0.15 -0.15 -0.15 -0.15 -0.15 -0.15 -0.15 -0.15 -0.15 -0.15 -0.15 -0.15 -0.15 -0.15 -0.15 -0.15 -0.15 -0.15 -0.15 -0.15 -0.15 -0.15 -0.15 -0.15 -0.15 -0.15 -0.15 -0.15 -0.15 -0.15 -0.15 -0.15 -0.15 -0.15 -0.15 -0.15 -0.15 -0.15 -0.15 -0.15 -0.15 -0.15 -0.15 -0.15 -0.15 -0.15 -0.15 -0.15 -0.15 -0.15 -0.15 -0.15 -0.15 -0.15 -0.15 -0.15 -0.15 -0.15 -0.15 -0.15 -0.15 -0.15 -0.15 -0.15 -0.15 -0.15 -0.15 -0.15 -0.15 -0.15 -0.15 -0.15 -0.15 -0.15 -0.15 -0.15 -0.15 -0.15 -0.15 -0.15 -0.15 -0.15 -0.15 -0.15 -0.15 -0.15 -0.15 -0.15 -0.15 -0.15 -0.15 -0.15 -0.15 -0.15 -0.15 -0.15 -0.15 -0.15 -0.15 -0.15 -0.15 -0.15 -0.15 -0.15 -0.15 -0.15 -1 c 0,-5.999997 9,-5.999997 9,0 v 5 m 0,-5.2 v 0.5 m 0,2.55 v 0.15 0.15 0.15 0.15 0.15 0.15 0.15 0.15 0.15 0.15 0.15 0.15 0.15 0.15 0.15 0.15 0.15 0.15 0.15 0.15 0.15 0.15 0.15 0.15 0.15 0.15 0.15 0.15 0.15 0.15 0.15 0.15 0.15 0.15 0.15 0.15 0.15 0.15 0.15 0.15 0.15 0.15 0.15 0.15 0.15 0.15 0.15 0.15 0.15 0.15 0.15 0.15 0.15 0.15 0.15 0.15 0.15 0.15 0.15 0.15 0.15 0.15 0.15 0.15 0.15 0.15 0.15 0.15 0.15 0.15 0.15 0.15 0.15 0.15 0.15 0.15 0.15 0.15 0.15 0.15 -1 c 0,-2.666666 4,-2.666666 4,0 v 1 2 h 5 m 0,-1.2 v 2.4 m 0,-1.2 v -0.15 -0.15 -0.15 -0.15 -0.15 -0.15 -0.15 -0.15 -0.15 -0.15 -0.15 -0.15 -0.15 -0.15 -0.15 -0.15 -0.15 -0.15 -0.15 -0.15 -0.15 -0.15 -0.15 -0.15 -0.15 -0.15 -0.15 -0.15 -0.15 -0.15 -0.15 -0.15 -0.15 -0.15 -0.15 c -0.8,0 -0.8,-1.2 0,-1.2 0.8,0 0.8,1.2 0,1.2 m 0,0 v 1 c 0,2.666666 4,2.666666 4,0 v -1 m -1.2,0 h 2.4 m -1.2,0 v -1 c 0,-2.666666 4,-2.666666 4,0 v 1 2 h 5 m -3,0.75 h 5 H 1.4 1.55 1.7 1.85 2 2.15 2.3 2.45 2.6 2.75 2.9 3.05 3.2 3.35 3.5 3.65 m 0,-1.2 v 2.4 m 0,-1.2 v -0.15 -0.15 -0.15 -0.15 -0.15 -0.5 m 0,-1.5 c -0.7999997,0 -0.7999997,-1.2 0,-1.2 0.7999997,0 0.7999997,1.2 0,1.2 m 0,2.8 v -6 h 5 m -1.2,1.2 1.2,-1.2 -2.3097411,-2.346732 M 8.2,-19.45 l 1.2,-1.2 -1.2,-1.2"
     stroke="#000000"
     stroke-width="0.3"
     stroke-linecap="round"
     stroke-linejoin="round"
     fill="none"
     id="path1"
     sodipodi:nodetypes="ccccccccccccssscccccccccccccccccccccccccccccccccccccccccccssccccccccccccccccccccccscccsccccsscsccccccccssccccsccsscccccccccsccssccccccccccccccccccccccccccccccccccccccccccccccccccccccccccccccccccccccccccccccccccccccccccccccccccccccccccccccccccccccccccccccccccccccccccccccccccccsscccccccccccccccccccsccccccccccccccccccccccccssccccccccccccccccccccccccccccccccccccccccccccccccssscsccssccccccccccccccccccccccccccccccccccccccccccccccsccccccccccccccccccccccccccccssccccccccccccccccccccccccccccccccccccccccccccccccccccccccccccccccccccccccccccccccccccccccccccccccccccccccccccccccccccccccccccccccccccccccccccccccccccssccccccccccccccccccccccccccccccccccccccccccccccccccccccccccccccccccccccccccccccccccccccccccccccccssccccccccccccccccccccccccccccccccccccccccccccccccccccccccccccccccccccccccccccccccccsscccccccccccccccccccccccccccccccccccccccccccccccccccccccccccccccccccccscccccccccccccccccccccccccccccccccccccccccccccccccccccccccccccccccccccccccccccccccccccccccccccccccccccccccccccccccccccccccccccccccccccccccccccccccccccccccccccccccccccccccccccccccccccccccccsscccccccccccccccsssccccccccccccccccccccccccccccccccccccccccccccccccccccccccccccccccccccccccccccccccccccccccccccccccccccccccccccccccccccccccccccsscccccccccccccccccccccccccccccccccccccccccccccccccccccccccccccccccccccccccccccccccccccccccccccccccccccccccccccccccccccccccccccccccccccccccccccccccccccccccccccccccccccccccccccccccccccccccccccccccccccccccccccccccccccccccccccccccccccccccccccccccccccccccccccccccccccccccccccccccccccccccccccccccccccccccccccccccccccccccccccccccccccccccccccccccccccccccccccccccccccccccccccccccccccccccccccccccccccccccccccccccccccccccccccccccccccccscccccccccccccccsscccccccccccccccccssccccccccccccccccccccccccccccccccccccccccccccccccccccccccccccccccccccccccccccccccccccccccccccccccccccccccccccccccccccccccccccccccccccccccccccccccccccccccccccccccccccccccccccccccccccccccccccccccccccccccccccccccccccccccccccccccccccccccccccccccccccccccccccccccccccccccccccccccccccccccccccccccccccccccccccccccccccccccccccccccccccccccssccccccccccccccccccccccccccccccccccccccccccccccccccccccccccccccccccccccccccccccccccccsscccccccccccccccccccccccccccccccccccccccccsccssccccsscccccccccccccccccccccccccccccccscccccccccc"
     style="display:none" /><g
     id="g1"><path
       d="M -1.2,-1.2 0,0 1.2,-1.2 M 0,0 V 0.15 0.3 0.45 0.6 0.75 0.9 1.05 1.2 v 1 a 7.75,7.75 0 0 1 -15.5,0 v -1 -0.5 m 0,-1.5 v -1 -2 h 5 m -1.2,0 h 2.4 m -1.2,0 m 0,1.5 v 0.5 0.15 0.15 0.15 0.15 0.15 0.15 0.15 0.15 0.15 0.15 0.15 V 0 0.15 0.3 0.45 0.6 0.75 0.9 1.05 1.2 1.35 1.5 1.65 1.8 1.95 2.1 2.25 2.4 2.55 2.7 2.85 3 v 0.15 1 a 2.5,2.5 0 0 0 5,0 V 3.15 3 2.85 2.7 2.55 2.4 2.25 2.1 1.95 1.8 1.65 1.5 1.35 1.2 1.05 0.9 0.75 0.6 0.45 m -1.2,0 h 2.4 m -1.2,0 m 0,-1.5 m 0,-1.5 a 0.6,0.6 0 0 1 0,-1.2 0.6,0.6 0 0 1 0,1.2 m 0,-1.2 v -3 a 3.25,3.25 0 0 0 6.5,0 v -1 m -1.2,0 h 2.4 m -1.2,0 v 1 a 2,2 0 0 1 -4,0 v -1 a 0.6,0.6 0 0 1 0,-1.2 0.6,0.6 0 0 1 0,1.2 m 0,-1.2 V -9.1 -9.25 -9.4 -9.55 -9.7 v -0.15 -1 a 2.75,2.75 0 0 0 -5.5,0 v 1 m -1.2,0 h 2.4 m -1.2,0 a 0.6,0.6 0 0 1 0,1.2 0.6,0.6 0 0 1 0,-1.2 m 0,1.2 v 1 a 2,2 0 0 1 -4,0 v -1 m -1.2,0 h 2.4 m -1.2,0 m -0.15,0 m -0.15,0 m -0.15,0 m -0.15,0 m -0.15,0 m -0.15,0 m -0.15,0 h -0.15 -0.15 -0.15 -0.5 m -1.5,0 m -1.5,0 a 0.6,0.6 0 0 1 -1.2,0 0.6,0.6 0 0 1 1.2,0 m -0.6,0.6 v 1 a 2,2 0 0 1 -4,0 v -1 m -1.2,0 h 2.4 m -1.2,0 v 0.15 0.15 0.15 0.15 0.15 0.15 0.15 0.15 0.15 0.15 0.15 0.15 0.15 0.15 0.15 0.15 0.15 0.15 0.15 0.15 0.15 0.15 0.15 0.15 0.15 0.15 0.15 0.15 0.15 0.15 0.15 0.15 0.15 0.15 0.15 0.15 0.15 0.15 0.15 0.15 0.15 0.15 0.15 0.15 0.15 0.15 0.15 0.15 0.15 0.15 0.15 0.15 V -0.1 0.05 0.2 0.35 0.5 0.65 0.8 0.95 1.1 1.25 1.4 1.55 1.7 1.85 2 2.15 2.3 2.45 2.6 2.75 2.9 3.05 3.2 3.35 3.5 3.65 3.8 3.95 4.1 4.25 4.4 4.55 4.7 4.85 5 5.15 5.3 5.45 5.6 5.75 5.9 6.05 6.2 6.35 6.5 6.65 6.8 6.95 7.1 7.25 7.4 7.55 7.7 7.85 8 8.15 8.3 8.45 8.6 8.75 8.9 9.05 9.2 9.35 9.5 9.65 9.8 v 0.15 0.15 2 h 5 m 0,-1.2 v 2.4 m 0,-1.2 v 0.15 0.15 0.15 0.15 0.15 0.15 0.15 0.15 0.15 0.15 0.15 0.15 0.15 0.15 0.15 0.15 0.15 0.15 1 a 3.75,3.75 0 0 1 -7.5,0 V 14.8 14.65 14.5 14.35 14.2 14.05 13.9 13.75 13.6 13.45 13.3 13.15 13 12.85 12.7 12.55 12.4 12.25 12.1 a 0.6,0.6 0 0 1 0,-1.2 0.6,0.6 0 0 1 0,1.2 m 0,-1.2 V 10.75 10.6 10.45 10.3 10.15 10 9.85 9.7 9.55 9.4 9.25 9.1 8.95 8.8 8.65 8.5 8.35 8.2 8.05 7.9 7.75 7.6 6.6 a 2,2 0 0 0 -4,0 V 7.6 7.75 7.9 8.05 8.2 8.35 8.5 8.65 8.8 8.95 9.1 9.25 9.4 9.55 9.7 9.85 10 v 0.15 0.15 0.15 0.15 0.15 0.15 0.15 0.15 0.15 0.15 0.15 0.15 0.15 0.15 0.15 0.15 0.15 0.15 0.15 0.15 0.15 0.15 0.15 0.15 m -1.2,-1.2 1.2,1.2 1.2,-1.2 m -1.2,1.2 m -1.2,-0.3 1.2,1.2 1.2,-1.2 m -1.2,1.2 v 1.9 a 7.75,7.75 0 0 0 15.5,0 v -1 a 0.6,0.6 0 0 1 0,-1.2 0.6,0.6 0 0 1 0,1.2 m 0,-1.2 v -1 a 2,2 0 0 1 4,0 v 1 m -1.2,0 h 2.4 m -1.2,0 h 0.15 0.15 0.15 0.15 0.15 0.15 0.15 0.15 0.15 0.15 0.15 0.15 0.15 0.15 0.15 0.15 0.15 0.15 0.15 0.15 0.15 0.15 0.15 0.15 0.15 0.15 0.15 0.15 0.15 0.15 0.15 0.15 0.15 0.15 0.15 0.15 0.15 0.15 0.15 0.15 0.15 0.15 a 0.6,0.6 0 0 1 1.2,0 0.6,0.6 0 0 1 -1.2,0 m 1.2,0 m -0.15,0 m -0.15,0 m -0.15,0 m -0.15,0 m 0,0.15 m 0,0.15 m 0,0.15 m 0,0.15 v 0.15 0.15 0.15 0.15 0.15 0.15 0.15 0.15 0.15 0.15 0.15 0.15 0.15 0.15 0.15 0.15 0.15 0.15 0.15 0.15 0.15 0.15 0.15 0.15 0.15 0.15 1 a 2.5,2.5 0 0 1 -5,0 V 18.7 18.55 18.4 18.25 18.1 17.95 17.8 17.65 17.5 17.35 17.2 17.05 16.9 m -1.2,0 H -6 m -1.2,0 v 0.15 0.15 0.15 0.15 0.15 0.15 0.15 0.15 0.15 0.15 0.15 0.15 0.15 0.15 0.15 0.15 0.15 0.15 0.15 0.15 0.15 0.15 0.15 0.15 0.15 0.15 0.15 0.15 0.15 0.15 0.15 0.15 0.15 0.15 0.15 0.15 0.15 2 h 5 0.15 0.15 0.15 0.15 0.15 0.15 0.15 0.15 0.15 0.15 0.15 0.15 0.15 H -0.1 0.05 0.2 0.35 0.5 0.65 0.8 V 24.3 24.15 24 23.85 23.7 23.55 23.4 23.25 23.1 22.95 22.8 22.65 22.5 22.35 22.2 22.05 21.9 21.75 21.6 21.45 21.3 21.15 21 20.85 20.7 20.55 20.4 20.25 20.1 19.95 19.8 19.65 19.5 19.35 19.2 19.05 18.9 18.75 18.6 18.45 18.3 18.15 18 17.85 17.7 17.55 17.4 17.25 17.1 16.95 16.8 16.65 16.5 16.35 16.2 16.05 15.9 15.75 15.6 15.45 15.3 15.15 15 14.85 14.7 14.55 14.4 14.25 14.1 13.95 13.8 13.65 13.5 v -1 a 2,2 0 0 1 4,0 v 1 2 h 5 0.5 m 1.5,0 m 0,-1.2 v 2.4 m 0,-1.2 V 15.35 15.2 15.05 14.9 14.75 14.6 14.45 14.3 14.15 14 13.85 13.7 13.55 13.4 13.25 13.1 12.95 12.8 12.65 12.5 12.35 12.2 12.05 11.9 11.75 11.6 11.45 11.3 11.15 11 10.85 10.7 10.55 10.4 10.25 10.1 9.95 9.8 9.65 9.5 9.35 9.2 9.05 8.9 8.75 8.6 8.45 8.3 8.15 8 7.85 7.7 7.55 7.4 7.25 7.1 6.95 6.8 6.65 6.5 6.35 6.2 6.05 5.9 5.75 5.6 5.45 5.3 5.15 5 4.85 4.7 4.55 4.4 4.25 4.1 3.95 3.8 3.65 3.5 3.35 3.2 3.05 2.9 2.75 2.6 2.45 2.3 2.15 v -1 a 2,2 0 0 0 -4,0 v 1 V 2.3 2.45 2.6 2.75 2.9 3.05 3.2 3.35 3.5 3.65 3.8 3.95 4.1 4.25 4.4 4.55 4.7 4.85 5 5.15 5.3 5.45 5.6 5.75 5.9 6.05 6.2 6.35 6.5 6.65 6.8 6.95 7.1 7.25 7.4 7.55 7.7 7.85 8 8.15 8.3 8.45 8.6 8.75 8.9 9.05 9.2 9.35 9.5 9.65 9.8 v 0.15 0.15 0.15 0.15 0.15 0.15 0.15 0.15 0.15 0.15 0.15 0.15 0.15 0.15 0.15 0.15 0.15 0.15 0.15 0.15 0.15 0.15 0.15 0.15 0.15 0.15 0.15 0.5 m 0,1.5 m 0,0.15 m 0,0.15 m 0,0.15 m 0,0.15 m 0,0.15 v 4 -1 a 2,2 0 0 0 -4,0 v 1 2 H 8.8 8.95 9.1 9.25 9.4 9.55 9.7 9.85 10 h 0.15 0.15 0.15 0.15 0.15 0.15 0.15 0.15 0.15 0.15 0.15 0.15 0.15 0.15 0.15 0.15 0.15 0.15 0.15 0.15 0.15 0.15 0.15 0.15 0.15 0.15 0.15 0.15 m 0,-1.2 v 2.4 m 0,-1.2 V 22.45 22.3 22.15 22 21.85 21.7 21.55 21.4 21.25 21.1 20.95 20.8 20.65 20.5 20.35 20.2 20.05 19.9 19.75 19.6 19.45 19.3 19.15 19 18.85 18.7 18.55 a 0.6,0.6 0 0 1 0,-1.2 0.6,0.6 0 0 1 0,1.2 m 0,-1.2 V 17.2 17.05 16.9 16.75 16.6 16.45 16.3 16.15 16 15.85 15.7 15.55 15.4 15.25 15.1 14.95 14.8 14.65 14.5 14.35 14.2 14.05 13.9 13.75 13.6 13.45 13.3 13.15 13 12.85 12.7 12.55 12.4 12.25 12.1 11.95 11.8 11.65 11.5 11.35 11.2 11.05 10.9 10.75 10.6 10.45 10.3 10.15 10 9.85 9.7 9.55 9.4 9.25 9.1 8.95 8.8 8.65 8.5 8.35 8.2 8.05 7.9 7.75 7.6 7.45 7.3 7.15 7 6.85 6.7 6.55 6.4 6.25 6.1 5.95 5.8 5.65 5.5 5.35 5.2 5.05 4.9 4.75 4.6 4.45 4.3 4.15 4 3.85 3.7 3.55 3.4 3.25 3.1 2.95 2.8 2.65 2.5 2.35 2.2 2.05 1.9 1.75 1.6 1.45 1.3 1.15 1 0.85 0.7 0.55 0.4 0.25 0.1 -0.05 -0.2 -0.35 -0.5 -0.65 -0.8 -0.95 -1.1 -1.25 -1.4 -1.55 -1.7 -1.85 -2 -2.15 -2.3 -2.45 -2.6 -2.75 -2.9 -3.05 -3.2 -3.35 -3.5 -3.65 -3.8 -3.95 -4.1 -4.25 -4.4 -4.55 -4.7 -4.85 -5 -5.15 -5.3 -5.45 -5.6 -5.75 -5.9 -6.05 -6.2 -6.35 -6.5 -6.65 -6.8 -6.95 -7.1 -7.25 -7.4 -7.55 -7.7 -7.85 -8 -8.15 -8.3 -8.45 -8.6 -8.75 -8.9 -9.05 -9.2 -9.35 -9.5 -9.65 -9.8 v -0.15 -0.15 -0.15 -0.15 1 a 3.75,3.75 0 0 1 -7.5,0 v -1 m -1.2,0 h 2.4 m -1.2,0 v -0.15 -0.15 -0.15 -0.15 -0.15 -0.15 -0.15 -0.15 -0.15 -0.15 -0.15 -1 a 5.5,5.5 0 0 1 11,0 v 1 0.5 m 0,1.5 v 0.5 0.15 0.15 0.15 0.15 0.15 0.15 0.15 0.15 0.15 0.15 0.15 0.15 0.15 0.15 0.15 0.15 0.15 0.15 0.15 0.15 0.15 0.15 0.15 0.15 0.15 0.15 0.15 0.15 0.15 0.15 0.15 0.15 0.15 0.15 0.15 0.15 0.15 0.15 0.15 0.15 0.15 0.15 0.15 0.15 0.15 0.15 0.15 0.15 0.15 0.15 0.15 0.15 0.15 0.15 0.15 0.15 0.15 0.15 0.15 0.15 0.15 0.15 V -0.1 0.05 0.2 0.35 0.5 0.65 0.8 0.95 1.1 1.25 1.4 1.55 1.7 1.85 2 2.15 2.3 2.45 2.6 2.75 2.9 3.05 3.2 3.35 3.5 3.65 3.8 3.95 4.1 4.25 4.4 4.55 4.7 4.85 5 5.15 5.3 5.45 5.6 5.75 5.9 6.05 6.2 6.35 6.5 6.65 6.8 6.95 7.1 7.25 7.4 7.55 7.7 7.85 8 8.15 8.3 v 0.15 1 a 2,2 0 0 0 4,0 V 8.45 8.3 8.15 8 7.85 7.7 7.55 7.4 7.25 7.1 6.95 6.8 6.65 6.5 6.35 6.2 6.05 5.9 5.75 5.6 5.45 5.3 5.15 5 4.85 4.7 4.55 4.4 4.25 4.1 3.95 3.8 3.65 3.5 3.35 3.2 3.05 2.9 2.75 2.6 2.45 2.3 2.15 2 1.85 1.7 1.55 1.4 1.25 1.1 0.95 0.8 0.65 0.5 0.35 0.2 0.05 -0.1 -0.25 -0.4 -0.55 -0.7 -0.85 -1 -1.15 -1.3 -1.45 -1.6 -1.75 -1.9 -2.05 -2.2 -2.35 -2.5 -2.65 -2.8 -2.95 -3.1 -3.25 -3.4 -3.55 -3.7 -3.85 -4 -4.15 -4.3 -4.45 -4.6 -4.75 -4.9 -5.05 -5.2 -5.35 -5.5 -5.65 -5.8 -5.95 -6.1 -6.25 -6.4 -6.55 -6.7 -6.85 -7 -7.15 -7.3 -7.45 -7.6 -7.75 -7.9 -8.05 -8.2 -8.35 -8.5 -8.65 -8.8 -8.95 -9.1 -9.25 -9.4 -9.55 -9.7 -9.85 -10 v -0.15 -0.15 -0.15 -0.15 -0.15 -0.15 -0.15 -0.15 -0.15 -0.15 -0.15 -0.15 -0.15 -0.15 -0.15 -0.15 -0.15 -0.15 -0.15 -0.15 -0.15 -0.15 -0.15 -0.15 -0.15 -0.15 -0.15 -0.15 -0.15 -0.15 -0.15 -0.15 -0.15 -0.15 -0.15 -0.15 -0.15 -0.15 -0.15 -0.15 -0.15 -0.15 -0.15 -0.15 -0.15 -0.15 -0.15 -0.15 -0.15 -0.15 -0.15 -0.15 -0.15 -0.15 -0.15 -0.15 -0.15 -0.15 -0.15 -0.15 -0.15 -0.15 -0.15 -0.15 -0.15 -0.15 -0.15 -0.15 -0.15 -0.15 -0.15 -0.15 -0.15 -0.15 -0.5 m 0,-1.5 m -1.2,0 h 2.4 m -1.2,0 H 21.55 21.4 21.25 21.1 20.95 20.8 20.65 20.5 20.35 20.2 20.05 19.9 19.75 19.6 19.45 19.3 19.15 19 18.85 18.7 18.55 18.4 18.25 18.1 17.95 17.8 17.65 17.5 17.35 17.2 17.05 16.9 16.75 16.6 16.45 16.3 16.15 16 15.85 15.7 15.55 15.4 15.25 15.1 14.95 14.8 14.65 14.5 14.35 14.2 14.05 13.9 13.75 13.6 13.45 13.3 13.15 13 12.85 12.7 12.55 12.4 12.25 12.1 11.95 11.8 11.65 11.5 11.35 11.2 11.05 10.9 10.75 10.6 10.45 10.3 10.15 10 9.85 9.7 9.55 9.4 9.25 9.1 8.95 8.8 8.65 8.5 8.35 8.2 8.05 7.9 7.75 7.6 7.45 7.3 7.15 7 6.85 6.7 6.55 6.4 6.25 6.1 5.95 5.8 5.65 5.5 5.35 5.2 5.05 4.9 4.75 4.6 4.45 4.3 4.15 4 3.85 3.7 3.55 3.4 3.25 3.1 2.95 2.8 2.65 2.5 2.35 2.2 2.05 1.9 1.75 1.6 1.45 1.3 1.15 1 0.85 0.7 0.55 0.4 0.25 0.1 -0.05 -0.2 -0.35 -0.5 -0.65 -0.8 -0.95 -1.1 -1.25 -1.4 -1.55 -1.7 -1.85 -2 -2.15 -2.3 -2.45 -2.6 -2.75 -2.9 -3.05 -3.2 -3.35 -3.5 -3.65 -3.8 -3.95 -4.1 -4.25 -4.4 -4.55 -4.7 -4.85 -5 -5.15 -5.3 -5.45 -5.6 -5.75 -5.9 -6.05 -6.2 -6.35 -6.5 -6.65 -6.8 -6.95 -7.1 -7.25 -7.4 -7.55 -7.7 -7.85 -8 -8.15 -8.3 -8.45 -8.6 -8.75 -8.9 -9.05 -9.2 -9.35 -9.5 -9.65 -9.8 h -0.15 -0.15 -0.15 -0.15 -0.15 -0.15 -0.15 -0.15 -0.15 -0.5 m -1.5,0 m -1.5,0 a 0.6,0.6 0 0 1 -1.2,0 0.6,0.6 0 0 1 1.2,0 m -1.2,0 m 0.15,0 m 0.15,0 m 0.15,0 m 0.15,0 m 0,0.15 m 0,0.15 m 0,0.15 m 0,0.15 v 0.15 0.15 0.15 0.15 0.15 0.15 0.15 0.15 0.15 0.15 0.15 0.15 0.15 1 a 2,2 0 0 1 -4,0 v -1 -0.15 -0.15 -0.15 -0.15 -0.15 -0.15 -0.15 -0.15 -0.15 -0.15 -0.15 -0.15 -0.15 m -1.2,0 h 2.4 m -1.2,0 v -1 a 3.75,3.75 0 0 0 -7.5,0 v 1 0.5 m 0,1.5 v 0.5 0.15 0.15 0.15 0.15 0.15 0.15 0.15 0.15 0.15 0.15 0.15 0.15 0.15 0.15 0.15 0.15 0.15 0.15 0.15 0.15 0.15 0.15 0.15 0.15 0.15 0.15 0.15 0.15 0.15 0.15 0.15 0.15 0.15 0.15 0.15 0.15 0.15 0.15 0.15 0.15 0.15 0.15 0.15 0.15 0.15 0.15 0.15 0.15 0.15 0.15 0.15 0.15 0.15 0.15 0.15 0.15 0.15 0.15 0.15 0.15 0.15 0.15 0.15 0.15 0.15 0.15 0.15 0.15 0.15 0.15 0.15 0.15 0.15 0.15 0.15 0.15 0.15 0.15 0.15 0.15 0.15 0.15 0.15 0.15 0.15 0.15 0.15 0.15 0.15 0.15 0.15 0.15 0.15 0.15 0.15 0.15 0.15 0.15 0.15 0.15 0.15 0.15 0.15 0.15 0.15 0.15 0.15 0.15 0.15 0.15 0.15 0.15 0.15 0.15 0.15 0.15 0.15 0.15 0.15 0.15 0.15 0.15 0.15 0.15 0.15 0.15 2 h -5 m 0,-1.2 v 2.4 m 0,-1.2 V 0.75 0.6 0.45 0.3 0.15 0 -0.15 -0.3 -0.45 -0.6 -0.75 -0.9 -1.05 -1.2 -1.35 -1.5 -1.65 -1.8 -1.95 -2.1 -2.25 -2.4 -2.55 -2.7 -2.85 -3 -3.15 -3.3 -3.45 -3.6 -3.75 -3.9 -4.05 -4.2 -4.35 -4.5 -4.65 -4.8 -4.95 -5.1 -5.25 -5.4 -5.55 -5.7 -5.85 -6 -6.15 -6.3 -6.45 -6.6 -6.75 -6.9 -7.05 -7.2 -7.35 -7.5 -7.65 -7.8 -7.95 -8.1 -8.25 -8.4 -8.55 -8.7 -8.85 -9 -9.15 -9.3 -9.45 -9.6 -9.75 -9.9 v -0.15 -0.15 -0.15 -0.15 -0.15 -0.15 -0.15 -0.15 -0.15 -0.15 -0.15 -0.15 -0.15 -0.15 -0.15 -0.15 -0.15 -0.15 -0.15 -0.15 -0.15 -0.15 -0.15 -0.15 -0.15 -0.15 -0.15 -0.15 -0.15 -0.15 -0.15 -0.15 -0.15 -0.15 -0.15 -0.15 -0.15 -0.15 -0.15 -0.15 -0.15 -0.15 -0.15 -0.15 -0.15 -0.15 -0.15 -0.15 -0.15 -0.15 -0.15 -0.15 -0.15 -0.15 -0.15 -0.15 -0.15 -0.15 -0.15 -0.15 -0.15 -0.15 -0.15 -0.15 -0.15 -0.15 -0.15 -0.15 -0.15 -0.15 -0.15 -0.15 -0.15 -0.15 -0.15 -0.15 -0.15 -0.15 -0.15 -0.15 -0.15 -0.15 -0.15 -0.15 -0.15 -0.15 -0.15 -0.15 -0.15 -0.15 -0.15 -0.15 -0.15 -0.15 -0.15 -0.15 -0.15 -0.15 -0.15 -0.15 -0.15 -0.15 -0.15 -0.15 -0.15 -0.15 -0.15 -0.15 -0.15 -0.15 -0.15 -0.15 -0.15 -0.15 -0.15 -0.15 -0.15 -0.15 -0.15 -0.15 -0.15 -1 a 4.5,4.5 0 0 1 9,0 v 1 m 0,-0.15 m 0,-0.15 m 0,-0.15 m 0,-0.15 m 0,-0.15 m 0,-0.15 m 0,-0.15 m 0,-0.15 v 0.5 m 0,1.5 m 0,0.15 m 0,0.15 m 0,0.15 m 0,0.15 m 0,0.15 m 0,0.15 m 0,0.15 v 0.15 0.15 0.15 0.15 0.15 0.15 0.15 0.15 0.15 0.15 0.15 0.15 0.15 0.15 0.15 0.15 0.15 0.15 0.15 0.15 0.15 0.15 0.15 0.15 0.15 0.15 0.15 0.15 0.15 0.15 0.15 0.15 0.15 0.15 0.15 0.15 0.15 0.15 0.15 0.15 0.15 0.15 0.15 0.15 0.15 0.15 0.15 0.15 0.15 0.15 0.15 0.15 0.15 0.15 0.15 0.15 0.15 0.15 0.15 0.15 0.15 0.15 0.15 0.15 0.15 0.15 0.15 0.15 0.15 0.15 0.15 0.15 0.15 0.15 0.15 0.15 0.15 0.15 0.15 0.15 -1 a 2,2 0 0 1 4,0 v 1 2 h 5 m 0,-1.2 v 2.4 m 0,-1.2 v -0.15 -0.15 -0.15 -0.15 -0.15 -0.15 -0.15 -0.15 -0.15 -0.15 -0.15 -0.15 -0.15 -0.15 -0.15 -0.15 -0.15 -0.15 -0.15 -0.15 -0.15 -0.15 -0.15 -0.15 -0.15 -0.15 -0.15 -0.15 -0.15 -0.15 -0.15 -0.15 -0.15 -0.15 -0.15 a 0.6,0.6 0 0 1 0,-1.2 0.6,0.6 0 0 1 0,1.2 m 0,-1.2 m 0,0.15 m 0,0.15 m 0,0.15 m 0,0.15 m 0,0.15 m 0,0.15 m 0,0.15 m 0,0.15 v 1 a 2,2 0 0 0 4,0 v -1 m -1.2,0 h 2.4 m -1.2,0 v -1 a 2,2 0 0 1 4,0 v 1 2 h 5 m -3,0.75 h 5 H 1.4 1.55 1.7 1.85 2 2.15 2.3 2.45 2.6 2.75 2.9 3.05 3.2 3.35 3.5 3.65 m 0,-1.2 v 2.4 m 0,-1.2 v -0.15 -0.15 -0.15 -0.15 -0.15 -0.5 m 0,-1.5 a 0.6,0.6 0 0 1 0,-1.2 0.6,0.6 0 0 1 0,1.2 m 0,-1.2 v -2 h 5 m -1.2,1.2 1.2,-1.2 -1.2,-1.2 m 1.2,1.2 m -0.45,1.2 1.2,-1.2 -1.2,-1.2 m 1.2,1.2"
       stroke="#000000"
       stroke-width="0.3"
       stroke-linecap="round"
       stroke-linejoin="round"
       fill="none"
       id="path1-0" /><circle
       r="0.30000001"
       cy="-0.050000001"
       cx="-15.5"
       style="fill:#000000"
       id="circle1-6" /><circle
       r="0.30000001"
       cy="-3.05"
       cx="-10.5"
       style="fill:#000000"
       id="circle2-6" /><circle
       r="0.30000001"
       cy="-0.30000001"
       cx="-5.5"
       style="fill:#000000"
       id="circle3-0" /><circle
       r="0.30000001"
       cy="-1.8"
       cx="-5.5"
       style="fill:#000000"
       id="circle4-8" /><circle
       r="0.30000001"
       cy="-8.6499996"
       cx="-15.25"
       style="fill:#000000"
       id="circle5-7" /><circle
       r="0.30000001"
       cy="-8.6499996"
       cx="-16.75"
       style="fill:#000000"
       id="circle6-8" /><circle
       r="0.30000001"
       cy="15.5"
       cx="11.05"
       style="fill:#000000"
       id="circle7-7" /><circle
       r="0.30000001"
       cy="-10.8"
       cx="17.700001"
       style="fill:#000000"
       id="circle8-6" /><circle
       r="0.30000001"
       cy="-22.35"
       cx="21.700001"
       style="fill:#000000"
       id="circle9-3" /><circle
       r="0.30000001"
       cy="-23.1"
       cx="-12.4"
       style="fill:#000000"
       id="circle10-9" /><circle
       r="0.30000001"
       cy="-23.1"
       cx="-13.9"
       style="fill:#000000"
       id="circle11-5" /><circle
       r="0.30000001"
       cy="-21.25"
       cx="-26.75"
       style="fill:#000000"
       id="circle12-4" /><circle
       r="0.30000001"
       cy="-16.700001"
       cx="3.6500001"
       style="fill:#000000"
       id="circle13-1" /></g></svg>
