<?xml version="1.0" encoding="UTF-8" standalone="no"?>
<svg
   viewBox="-5.800000190734863 -24.899999618530273 45.89999771118164 51.69999694824219"
   version="1.1"
   id="svg5"
   sodipodi:docname="tawa sike.svg"
   inkscape:version="1.4.2 (f4327f4, 2025-05-13)"
   xmlns:inkscape="http://www.inkscape.org/namespaces/inkscape"
   xmlns:sodipodi="http://sodipodi.sourceforge.net/DTD/sodipodi-0.dtd"
   xmlns="http://www.w3.org/2000/svg"
   xmlns:svg="http://www.w3.org/2000/svg">
  <defs
     id="defs5" />
  <sodipodi:namedview
     id="namedview5"
     pagecolor="#ffffff"
     bordercolor="#000000"
     borderopacity="0.25"
     inkscape:showpageshadow="2"
     inkscape:pageopacity="0.0"
     inkscape:pagecheckerboard="0"
     inkscape:deskcolor="#d1d1d1"
     inkscape:zoom="7.8227149"
     inkscape:cx="12.463704"
     inkscape:cy="27.292315"
     inkscape:window-width="1366"
     inkscape:window-height="745"
     inkscape:window-x="-8"
     inkscape:window-y="-8"
     inkscape:window-maximized="1"
     inkscape:current-layer="svg5" />
  <path
     d="M -1.6,1.6 0,0 1.6,1.6 M 0,0 v -1 c 0,-2.6666655 4,-2.6666655 4,0 v 1 2 h 5 0.5 m 2,-1.6 v 3.2 m 0,0 c 1.066666,0 1.066666,1.6 0,1.6 -1.066666,0 -1.066666,-1.6 0,-1.6 m 0,1.6 v 1 c 0,2.6666655 4,2.6666655 4,0 V 5.2 5 4.8 4.6 4.4 4.2 4 3.8 3.6 3.4 3.2 3 2.8 2.6 2.4 2.2 2 1.8 1.6 1.4 1.2 1 0.8 0.6 0.4 0.2 0 -0.2 -0.4 -0.6 -0.8 -1 -1.2 -1.4 -1.6 -1.8 -2 -2.2 -2.4 -2.6 -2.8 -3 -3.2 -3.4 -3.6 -3.8 -4 -4.2 -4.4 -4.6 -4.8 -5 -5.2 -5.4 -5.6 -5.8 -6 -6.2 -6.4 -6.6 -6.8 -7 -7.2 -7.4 -7.6 -7.8 -8 -8.2 -8.4 -8.6 -8.8 -9 -9.2 -9.4 -9.6 -9.8 -10 v -0.2 -0.2 -0.2 -0.2 -0.2 -0.2 -0.2 -0.2 -0.2 -0.2 -0.2 -0.2 -0.2 -0.2 -0.2 -0.2 -0.2 -0.2 -0.2 -0.2 -0.2 -0.2 -0.2 -0.2 -0.2 -0.2 -0.2 -0.2 -0.2 -0.2 -0.2 -0.2 m -1.6,0 h 3.2 m -1.6,0 v -1 c 0,-3.589853 2.910149,-6.499997 6.5,-6.499997 3.589851,0 6.5,2.910144 6.5,6.499997 v 1 0.2 0.2 0.2 0.2 0.5 m -1,1.1 H 27 m -2.8,0 H 24 23.8 23.6 23.4 23.2 23 22.8 22.3 m -2,-1.6 v 3.2 m 0,-3.2 c -1.066666,0 -1.066666,-1.6 0,-1.6 1.066666,0 1.066666,1.6 0,1.6 m 0,-1.6 v -1 c 0,-3.666665 5.5,-3.666665 5.5,0 v 1 0.2 0.2 0.2 0.2 0.2 0.2 0.2 0.2 0.2 0.2 0.2 0.2 0.2 0.2 0.2 0.2 0.2 0.2 0.2 0.2 0.2 0.2 0.2 0.2 0.2 0.2 0.2 0.2 0.2 0.2 0.2 0.2 0.2 0.2 0.2 2 h 5 m 0,-1.6 v 3.2 m 0,-1.6 v 0.2 0.2 0.2 0.2 0.2 0.2 0.2 0.2 0.2 0.2 0.2 0.2 0.2 2 h -5 -0.5 m -1,1 v 2 h 5 v 1 c 0,2.6666655 4,2.6666655 4,0 V -0.6 -0.8 -1 -1.2 -1.4 -1.6 -1.8 -2 -2.2 -2.4 -2.6 -2.8 -3 -3.2 -3.4 -3.6 -3.8 -4 -4.2 -4.4 -4.6 -4.8 -5 -5.2 -5.4 -5.6 -5.8 -6 -6.2 -6.4 -6.6 -6.8 -7 -7.2 -7.4 -7.6 -7.8 -8 -8.2 -8.4 -8.6 -8.8 -9 -9.2 -9.4 -9.6 -9.8 -10 v -0.2 -0.2 -0.2 -0.2 -0.2 -0.2 -0.2 -0.2 -0.2 -0.2 -0.2 -0.2 -0.2 -0.2 -0.2 -0.2 -0.2 -0.2 -0.2 -0.2 -0.2 -0.2 -0.2 -0.2 -0.2 -0.2 -0.2 -0.2 -0.2 -0.2 -0.2 -0.2 -0.2 -0.2 -0.2 -0.2 -0.2 -0.2 -0.2 -0.2 -0.2 -0.2 -0.2 -0.2 -0.2 -0.2 -0.2 -2 h 5 m 0,-1.6 v 3.2 m 0,-1.6 v 0.2 0.2 0.2 0.2 0.2 0.2 0.2 0.2 0.2 0.2 0.2 0.2 0.2 0.2 0.2 0.2 0.2 0.2 0.2 0.2 0.2 0.2 0.2 0.2 0.2 0.2 0.2 0.2 0.2 0.2 0.2 0.2 0.2 0.2 0.2 0.2 0.2 0.2 0.2 0.2 0.2 0.2 0.2 0.2 0.2 0.2 0.2 0.2 0.2 0.2 0.2 0.2 0.2 0.2 0.2 0.2 0.2 0.2 0.2 0.2 0.2 0.2 0.2 0.2 0.2 0.2 0.2 0.2 0.2 0.2 0.2 0.2 0.2 0.2 0.2 0.2 0.2 0.2 0.2 0.2 0.2 0.2 0.2 0.2 0.2 0.2 0.2 0.2 0.2 0.2 0.2 0.2 0.2 0.2 0.2 0.2 0.2 0.2 0.2 0.2 0.2 0.2 0.2 0.2 0.2 0.2 V 0 0.2 0.4 0.6 0.8 1 1.2 1.4 1.6 1.8 2 2.2 2.4 2.6 2.8 3 3.2 3.4 3.6 3.8 4 4.2 4.4 4.6 4.8 5 5.2 5.4 5.6 5.8 6 6.2 6.4 6.6 6.8 7 7.2 7.4 7.6 7.8 8 v 0.2 2 h -5 v 1 c 0,3.313711 -2.686292,5.999997 -6,5.999997 -3.313708,0 -6,-2.686286 -6,-5.999997 v -1 -1 c 0,-2.6666655 4,-2.6666655 4,0 v 1 2 h 5 m 0,-1.6 v 3.2 m 0,-3.2 c -1.066666,0 -1.066666,-1.6 0,-1.6 1.066666,0 1.066666,1.6 0,1.6 M 30.3,9 V 8 c 0,-3.3137107 -2.686292,-5.9999974 -6,-5.9999974 -3.313708,0 -6,2.6862867 -6,5.9999974 v 1 0.2 0.2 0.2 0.2 0.2 0.2 0.2 0.2 0.2 0.2 0.2 0.2 0.2 0.2 0.2 0.2 0.2 0.2 0.2 0.2 0.2 0.2 0.2 0.2 0.2 0.2 0.2 0.2 0.2 0.2 0.2 0.2 0.2 0.2 0.2 0.2 0.2 0.2 0.2 0.2 0.2 2 h 5 0.2 0.2 0.2 0.2 0.2 0.2 0.2 0.2 0.2 0.2 0.2 0.2 0.2 0.2 0.2 0.2 0.2 0.2 0.2 0.2 0.2 0.2 0.2 0.2 0.2 0.2 0.2 0.2 0.2 0.2 0.2 0.2 0.2 0.2 0.2 0.2 0.2 0.2 0.2 0.2 0.2 0.2 0.2 0.2 0.2 0.2 0.2 0.2 0.2 0.2 0.2 0.2 0.2 0.2 0.2 0.2 0.2 0.2 0.2 m 0,-1.6 v 3.2 m 0,-1.6 V 19 18.8 18.6 18.4 18.2 18 17.8 17.6 17.4 17.2 17 v -0.2 -0.2 -0.2 -1 c 0,-2.666666 4,-2.666666 4,0 v 1 0.2 0.2 0.2 0.2 0.2 0.2 0.2 0.2 0.2 0.2 0.2 0.2 0.2 0.2 0.2 0.2 0.2 0.2 0.2 0.2 0.2 0.2 0.2 0.2 0.2 0.2 0.2 0.2 0.2 0.2 0.2 0.2 2 h -5 m 3,1 h -5 -0.2 -0.2 -0.2 -0.2 -0.2 -0.2 -0.2 -0.2 -0.2 -0.2 -0.2 -0.2 -0.2 -0.2 -0.2 -0.2 -0.2 -0.2 -0.2 -0.2 -0.2 -0.2 -0.2 -0.2 -0.2 -0.2 -0.2 -0.2 -0.2 -0.2 -0.2 -0.2 -0.2 -0.2 -0.2 -0.2 -0.2 -0.2 -0.2 -0.2 -0.2 -0.2 -0.2 -0.2 -0.2 -0.2 -0.2 -0.2 -0.2 -0.2 -0.2 -0.2 -0.2 -0.2 -0.2 -0.2 -0.2 -0.2 -0.2 -0.2 -0.2 -0.2 -0.2 -0.2 -0.2 -0.2 -0.2 -0.2 -0.2 -0.2 -0.2 -0.2 -0.2 -0.2 -0.2 -0.2 -0.5 m -1,-1 V 24.6 24.4 24.2 24 23.8 23.6 23.4 23.2 23 22.8 22.6 22.4 22.2 22 21.8 21.6 21.4 21.2 21 20.8 20.6 20.4 20.2 20 19.8 19.6 19.4 19.2 19 18.8 18.6 18.4 18.2 18 17.8 17.6 17.4 17.2 17 16 c 0,-2.999999 -4.5,-2.999999 -4.5,0 v 1 m -1.6,0 h 3.2 m -1.6,0 v 0.2 0.2 0.2 0.2 0.2 0.2 0.2 0.2 0.2 2 H 5.9 5.7 5.5 5.3 5.1 4.9 4.7 4.5 4.3 4.1 3.9 3.7 3.5 3.3 3.1 2.9 2.7 2.5 2.3 2.1 1.9 1.4 m -2.6,0 H -1.4 -1.6 -1.8 -2 -2.2 -2.4 -2.6 -2.8 -3 -3.2 c 0,1.066666 -1.6,1.066666 -1.6,0 0,-1.066666 1.6,-1.066666 1.6,0 M -4,21.6 v 1 c 0,2.666666 4,2.666666 4,0 V 21.6 21.4 21.2 21 20.8 20.6 20.4 20.2 20 19.8 19.6 19.4 19.2 19 18.8 18.6 18.4 18.2 18 17.8 17.6 17.4 17.2 17 16.8 16.6 16.4 16.2 16 15.8 15.6 15.4 15.2 15 14.8 14.6 14.4 14.2 14 13.8 13.6 13.4 13.2 13 12.8 12.6 12.4 12.2 12 11.8 11.6 11.4 11.2 11 10.8 10.6 10.4 10.2 10 9.8 9.6 9.4 9.2 9 8.8 8.6 8.4 8.2 8 7.8 7.6 7.4 7.2 7 6.8 6.6 6.4 6.2 6 5.8 5.6 5.4 5.2 5 4.8 4.6 4.4 4.2 4 3.8 3.6 3.4 3.2 3 2.8 2.6 2.4 2.2 2 1.8 1.6 1.4 1.2 M -1.6,2.8 0,1.2 1.6,2.8"
     stroke="#000000"
     stroke-width="0.4"
     stroke-linecap="round"
     stroke-linejoin="round"
     fill="none"
     id="path1"
     sodipodi:nodetypes="ccccsscccccccsccssccccccccccccccccccccccccccccccccccccccccccccccccccccccccccccccccccccccccccccccccccccccccccccccccccccccccccccccccsssccccccccccccccccccccsccssccccccccccccccccccccccccccccccccccccccccccccccccccccccccccccssccccccccccccccccccccccccccccccccccccccccccccccccccccccccccccccccccccccccccccccccccccccccccccccccccccccccccccccccccccccccccccccccccccccccccccccccccccccccccccccccccccccccccccccccccccccccccccccccccccccccccccccccccccccccccccccccccccccccccccccccccccccccccssscssccccccsccsssccccccccccccccccccccccccccccccccccccccccccccccccccccccccccccccccccccccccccccccccccccccccccccccccccccccccccccccccccccccccssccccccccccccccccccccccccccccccccccccccccccccccccccccccccccccccccccccccccccccccccccccccccccccccccccccccccccccccccccccccccccccccccccccccccccccccccccccccccccsscccccccccccccccccccccccccccccccccccccccccccccccsccsscccccccccccccccccccccccccccccccccccccccccccccccccccccccccccccccccccccccccccccccccccccccccccccccccccccccccc" />
  <circle
     r="0.4"
     cy="2"
     cx="10.5"
     style="fill:#000000"
     id="circle1" />
  <circle
     r="0.4"
     cy="-14.09999999999998"
     cx="28.5"
     style="fill:#000000"
     id="circle2" />
  <circle
     r="0.4"
     cy="-13.999999999999975"
     cx="21.30000000000001"
     style="fill:#000000"
     id="circle3" />
  <circle
     r="0.4"
     cy="-3.5999999999999934"
     cx="24.30000000000001"
     style="fill:#000000"
     id="circle4" />
  <circle
     r="0.4"
     cy="25.799999999999965"
     cx="15.400000000000063"
     style="fill:#000000"
     id="circle5" />
</svg>
