<?xml version="1.0" encoding="UTF-8" standalone="no"?>
<svg
   viewBox="-5.800000190734863 -24.899999618530273 45.89999771118164 51.69999694824219"
   version="1.1"
   id="svg5"
   sodipodi:docname="06_tawa sike-kule.svg"
   inkscape:version="1.3.2 (091e20e, 2023-11-25, custom)"
   xml:space="preserve"
   xmlns:inkscape="http://www.inkscape.org/namespaces/inkscape"
   xmlns:sodipodi="http://sodipodi.sourceforge.net/DTD/sodipodi-0.dtd"
   xmlns:xlink="http://www.w3.org/1999/xlink"
   xmlns="http://www.w3.org/2000/svg"
   xmlns:svg="http://www.w3.org/2000/svg"><defs
     id="defs5"><linearGradient
       id="linearGradient29"
       inkscape:collect="always"><stop
         style="stop-color:#7b15ff;stop-opacity:0.53333336;"
         offset="0"
         id="stop28" /><stop
         style="stop-color:#ff0c94;stop-opacity:0.68455499;"
         offset="1"
         id="stop29" /></linearGradient><linearGradient
       id="linearGradient11"
       inkscape:collect="always"><stop
         style="stop-color:#1600d1;stop-opacity:0.73333335;"
         offset="0"
         id="stop10" /><stop
         style="stop-color:#1600d1;stop-opacity:0;"
         offset="1"
         id="stop11" /></linearGradient><linearGradient
       id="linearGradient7"
       inkscape:collect="always"><stop
         style="stop-color:#c400d1;stop-opacity:0.73333335;"
         offset="0"
         id="stop7" /><stop
         style="stop-color:#c400d1;stop-opacity:0;"
         offset="1"
         id="stop8" /></linearGradient><linearGradient
       inkscape:collect="always"
       xlink:href="#linearGradient7"
       id="linearGradient13"
       x1="24.032743"
       y1="35.51059"
       x2="44.14505"
       y2="35.51059"
       gradientUnits="userSpaceOnUse" /><linearGradient
       inkscape:collect="always"
       xlink:href="#linearGradient7"
       id="linearGradient15"
       x1="36.520973"
       y1="25.807043"
       x2="36.520973"
       y2="3.1806269"
       gradientUnits="userSpaceOnUse" /><linearGradient
       inkscape:collect="always"
       xlink:href="#linearGradient7"
       id="linearGradient17"
       x1="28.955368"
       y1="11.768956"
       x2="28.955368"
       y2="3.5885272"
       gradientUnits="userSpaceOnUse" /><linearGradient
       inkscape:collect="always"
       xlink:href="#linearGradient7"
       id="linearGradient19"
       x1="19.235619"
       y1="33.088017"
       x2="19.235619"
       y2="25.755007"
       gradientUnits="userSpaceOnUse" /><linearGradient
       inkscape:collect="always"
       xlink:href="#linearGradient7"
       id="linearGradient21"
       x1="17.157667"
       y1="39.805435"
       x2="17.157667"
       y2="49.025368"
       gradientUnits="userSpaceOnUse" /><linearGradient
       inkscape:collect="always"
       xlink:href="#linearGradient29"
       id="linearGradient2"
       x1="0.25143924"
       y1="51.92395"
       x2="46.464878"
       y2="1.4556667"
       gradientUnits="userSpaceOnUse" /><linearGradient
       inkscape:collect="always"
       xlink:href="#linearGradient29"
       id="linearGradient4"
       x1="3.8056362"
       y1="48.683582"
       x2="3.8056362"
       y2="45.971836"
       gradientUnits="userSpaceOnUse" /><linearGradient
       inkscape:collect="always"
       xlink:href="#linearGradient11"
       id="linearGradient10"
       x1="19.523712"
       y1="32.851433"
       x2="19.523712"
       y2="26.524029"
       gradientUnits="userSpaceOnUse" /><linearGradient
       inkscape:collect="always"
       xlink:href="#linearGradient11"
       id="linearGradient14"
       x1="29.362617"
       y1="13.051745"
       x2="29.11804"
       y2="2.1143768"
       gradientUnits="userSpaceOnUse" /><linearGradient
       inkscape:collect="always"
       xlink:href="#linearGradient11"
       id="linearGradient18"
       x1="36.315338"
       y1="27.611219"
       x2="36.315338"
       y2="2.6631701"
       gradientUnits="userSpaceOnUse" /><linearGradient
       inkscape:collect="always"
       xlink:href="#linearGradient11"
       id="linearGradient26"
       gradientUnits="userSpaceOnUse"
       x1="26.008799"
       y1="27.075645"
       x2="43.636501"
       y2="35.704365" /><linearGradient
       inkscape:collect="always"
       xlink:href="#linearGradient11"
       id="linearGradient28"
       x1="19.334057"
       y1="38.182438"
       x2="19.334057"
       y2="49.367813"
       gradientUnits="userSpaceOnUse" /></defs><sodipodi:namedview
     id="namedview5"
     pagecolor="#ffffff"
     bordercolor="#000000"
     borderopacity="0.25"
     inkscape:showpageshadow="2"
     inkscape:pageopacity="0.0"
     inkscape:pagecheckerboard="0"
     inkscape:deskcolor="#d1d1d1"
     inkscape:zoom="7.822715"
     inkscape:cx="26.589234"
     inkscape:cy="36.751946"
     inkscape:window-width="1920"
     inkscape:window-height="1046"
     inkscape:window-x="-11"
     inkscape:window-y="-11"
     inkscape:window-maximized="1"
     inkscape:current-layer="svg5" /><path
     d="M -1.6,1.6 0,0 1.6,1.6 M 0,0 v -1 c 0,-2.6666655 4,-2.6666655 4,0 v 1 2 h 5 2.449451 M 11.5,0.4 v 3.2 m 0,0 c 1.066666,0 1.066666,1.6 0,1.6 -1.066666,0 -1.066666,-1.6 0,-1.6 m 0,1.6 v 1 c 0,2.6666655 4,2.6666655 4,0 V 5.2 5 4.8 4.6 4.4 4.2 4 3.8 3.6 3.4 3.2 3 2.8 2.6 2.4 2.2 2 1.8 1.6 1.4 1.2 1 0.8 0.6 0.4 0.2 0 -0.2 -0.4 -0.6 -0.8 -1 -1.2 -1.4 -1.6 -1.8 -2 -2.2 -2.4 -2.6 -2.8 -3 -3.2 -3.4 -3.6 -3.8 -4 -4.2 -4.4 -4.6 -4.8 -5 -5.2 -5.4 -5.6 -5.8 -6 -6.2 -6.4 -6.6 -6.8 -7 -7.2 -7.4 -7.6 -7.8 -8 -8.2 -8.4 -8.6 -8.8 -9 -9.2 -9.4 -9.6 -9.8 -10 v -0.2 -0.2 -0.2 -0.2 -0.2 -0.2 -0.2 -0.2 -0.2 -0.2 -0.2 -0.2 -0.2 -0.2 -0.2 -0.2 -0.2 -0.2 -0.2 -0.2 -0.2 -0.2 -0.2 -0.2 -0.2 -0.2 -0.2 -0.2 -0.2 -0.2 -0.2 -0.2 m -1.6,0 h 3.2 m -1.6,0 v -1 c 0,-3.589853 2.910149,-6.499997 6.5,-6.499997 3.589851,0 6.5,2.910144 6.5,6.499997 v 1 0.2 0.2 0.2 0.2 1.586579 M 28.39483,-14 H 20.38465 M 24.2,-14 H 24 23.8 23.6 23.4 23.2 23 22.8 22.3 m -2,-1.6 v 3.2 m 0,-3.2 c -1.066666,0 -1.066666,-1.6 0,-1.6 1.066666,0 1.066666,1.6 0,1.6 m 0,-1.6 v -1 c 0,-3.666665 5.5,-3.666665 5.5,0 v 1 0.2 0.2 0.2 0.2 0.2 0.2 0.2 0.2 0.2 0.2 0.2 0.2 0.2 0.2 0.2 0.2 0.2 0.2 0.2 0.2 0.2 0.2 0.2 0.2 0.2 0.2 0.2 0.2 0.2 0.2 0.2 0.2 0.2 0.2 0.2 2 h 5 m 0,-1.6 v 3.2 m 0,-1.6 v 0.2 0.2 0.2 0.2 0.2 0.2 0.2 0.2 0.2 0.2 0.2 0.2 0.2 2 h -5 -1.618538 M 24.3,-3.5907046 V -0.6 h 5 v 1 c 0,2.6666655 4,2.6666655 4,0 V -0.6 -0.8 -1 -1.2 -1.4 -1.6 -1.8 -2 -2.2 -2.4 -2.6 -2.8 -3 -3.2 -3.4 -3.6 -3.8 -4 -4.2 -4.4 -4.6 -4.8 -5 -5.2 -5.4 -5.6 -5.8 -6 -6.2 -6.4 -6.6 -6.8 -7 -7.2 -7.4 -7.6 -7.8 -8 -8.2 -8.4 -8.6 -8.8 -9 -9.2 -9.4 -9.6 -9.8 -10 v -0.2 -0.2 -0.2 -0.2 -0.2 -0.2 -0.2 -0.2 -0.2 -0.2 -0.2 -0.2 -0.2 -0.2 -0.2 -0.2 -0.2 -0.2 -0.2 -0.2 -0.2 -0.2 -0.2 -0.2 -0.2 -0.2 -0.2 -0.2 -0.2 -0.2 -0.2 -0.2 -0.2 -0.2 -0.2 -0.2 -0.2 -0.2 -0.2 -0.2 -0.2 -0.2 -0.2 -0.2 -0.2 -0.2 -0.2 -2 h 5 m 0,-1.6 v 3.2 m 0,-1.6 v 0.2 0.2 0.2 0.2 0.2 0.2 0.2 0.2 0.2 0.2 0.2 0.2 0.2 0.2 0.2 0.2 0.2 0.2 0.2 0.2 0.2 0.2 0.2 0.2 0.2 0.2 0.2 0.2 0.2 0.2 0.2 0.2 0.2 0.2 0.2 0.2 0.2 0.2 0.2 0.2 0.2 0.2 0.2 0.2 0.2 0.2 0.2 0.2 0.2 0.2 0.2 0.2 0.2 0.2 0.2 0.2 0.2 0.2 0.2 0.2 0.2 0.2 0.2 0.2 0.2 0.2 0.2 0.2 0.2 0.2 0.2 0.2 0.2 0.2 0.2 0.2 0.2 0.2 0.2 0.2 0.2 0.2 0.2 0.2 0.2 0.2 0.2 0.2 0.2 0.2 0.2 0.2 0.2 0.2 0.2 0.2 0.2 0.2 0.2 0.2 0.2 0.2 0.2 0.2 0.2 0.2 V 0 0.2 0.4 0.6 0.8 1 1.2 1.4 1.6 1.8 2 2.2 2.4 2.6 2.8 3 3.2 3.4 3.6 3.8 4 4.2 4.4 4.6 4.8 5 5.2 5.4 5.6 5.8 6 6.2 6.4 6.6 6.8 7 7.2 7.4 7.6 7.8 8 v 0.2 2 h -5 v 1 c 0,3.313711 -2.686292,5.999997 -6,5.999997 -3.313708,0 -6,-2.686286 -6,-5.999997 v -1 -1 c 0,-2.6666655 4,-2.6666655 4,0 v 1 2 h 5 m 0,-1.6 v 3.2 m 0,-3.2 c -1.066666,0 -1.066666,-1.6 0,-1.6 1.066666,0 1.066666,1.6 0,1.6 M 30.3,9 V 8 c 0,-3.3137107 -2.686292,-5.9999974 -6,-5.9999974 -3.313708,0 -6,2.6862867 -6,5.9999974 v 1 0.2 0.2 0.2 0.2 0.2 0.2 0.2 0.2 0.2 0.2 0.2 0.2 0.2 0.2 0.2 0.2 0.2 0.2 0.2 0.2 0.2 0.2 0.2 0.2 0.2 0.2 0.2 0.2 0.2 0.2 0.2 0.2 0.2 0.2 0.2 0.2 0.2 0.2 0.2 0.2 0.2 2 h 5 0.2 0.2 0.2 0.2 0.2 0.2 0.2 0.2 0.2 0.2 0.2 0.2 0.2 0.2 0.2 0.2 0.2 0.2 0.2 0.2 0.2 0.2 0.2 0.2 0.2 0.2 0.2 0.2 0.2 0.2 0.2 0.2 0.2 0.2 0.2 0.2 0.2 0.2 0.2 0.2 0.2 0.2 0.2 0.2 0.2 0.2 0.2 0.2 0.2 0.2 0.2 0.2 0.2 0.2 0.2 0.2 0.2 0.2 0.2 m 0,-1.6 v 3.2 m 0,-1.6 V 19 18.8 18.6 18.4 18.2 18 17.8 17.6 17.4 17.2 17 v -0.2 -0.2 -0.2 -1 c 0,-2.666666 4,-2.666666 4,0 v 1 0.2 0.2 0.2 0.2 0.2 0.2 0.2 0.2 0.2 0.2 0.2 0.2 0.2 0.2 0.2 0.2 0.2 0.2 0.2 0.2 0.2 0.2 0.2 0.2 0.2 0.2 0.2 0.2 0.2 0.2 0.2 0.2 2 h -5 m 3,1 h -5 -0.2 -0.2 -0.2 -0.2 -0.2 -0.2 -0.2 -0.2 -0.2 -0.2 -0.2 -0.2 -0.2 -0.2 -0.2 -0.2 -0.2 -0.2 -0.2 -0.2 -0.2 -0.2 -0.2 -0.2 -0.2 -0.2 -0.2 -0.2 -0.2 -0.2 -0.2 -0.2 -0.2 -0.2 -0.2 -0.2 -0.2 -0.2 -0.2 -0.2 -0.2 -0.2 -0.2 -0.2 -0.2 -0.2 -0.2 -0.2 -0.2 -0.2 -0.2 -0.2 -0.2 -0.2 -0.2 -0.2 -0.2 -0.2 -0.2 -0.2 -0.2 -0.2 -0.2 -0.2 -0.2 -0.2 -0.2 -0.2 -0.2 -0.2 -0.2 -0.2 -0.2 -0.2 -0.2 -0.2 -1.490705 M 15.4,25.886579 V 24.6 24.4 24.2 24 23.8 23.6 23.4 23.2 23 22.8 22.6 22.4 22.2 22 21.8 21.6 21.4 21.2 21 20.8 20.6 20.4 20.2 20 19.8 19.6 19.4 19.2 19 18.8 18.6 18.4 18.2 18 17.8 17.6 17.4 17.2 17 16 c 0,-2.999999 -4.5,-2.999999 -4.5,0 v 1 m -1.6,0 h 3.2 m -1.6,0 v 0.2 0.2 0.2 0.2 0.2 0.2 0.2 0.2 0.2 2 H 5.9 5.7 5.5 5.3 5.1 4.9 4.7 4.5 4.3 4.1 3.9 3.7 3.5 3.3 3.1 2.9 2.7 2.5 2.3 2.1 1.9 1.4 m 1.4,0 H -1.4 -1.6 -1.8 -2 -2.2 -2.4 -2.6 -2.8 -3 -3.2 c 0,1.066666 -1.6,1.066666 -1.6,0 0,-1.066666 1.6,-1.066666 1.6,0 M -4,21.6 v 1 c 0,2.666666 4,2.666666 4,0 V 21.6 21.4 21.2 21 20.8 20.6 20.4 20.2 20 19.8 19.6 19.4 19.2 19 18.8 18.6 18.4 18.2 18 17.8 17.6 17.4 17.2 17 16.8 16.6 16.4 16.2 16 15.8 15.6 15.4 15.2 15 14.8 14.6 14.4 14.2 14 13.8 13.6 13.4 13.2 13 12.8 12.6 12.4 12.2 12 11.8 11.6 11.4 11.2 11 10.8 10.6 10.4 10.2 10 9.8 9.6 9.4 9.2 9 8.8 8.6 8.4 8.2 8 7.8 7.6 7.4 7.2 7 6.8 6.6 6.4 6.2 6 5.8 5.6 5.4 5.2 5 4.8 4.6 4.4 4.2 4 3.8 3.6 3.4 3.2 3 2.8 2.6 2.4 2.2 2 1.8 1.6 -0.6 1.2 M -1.6,2.8 0,1.2 1.6,2.8"
     stroke="#000000"
     stroke-width="0.4"
     stroke-linecap="round"
     stroke-linejoin="round"
     fill="none"
     id="path1"
     sodipodi:nodetypes="ccccsscccccccsccssccccccccccccccccccccccccccccccccccccccccccccccccccccccccccccccccccccccccccccccccccccccccccccccccccccccccccccccccsssccccccccccccccccccccsccssccccccccccccccccccccccccccccccccccccccccccccccccccccccccccccssccccccccccccccccccccccccccccccccccccccccccccccccccccccccccccccccccccccccccccccccccccccccccccccccccccccccccccccccccccccccccccccccccccccccccccccccccccccccccccccccccccccccccccccccccccccccccccccccccccccccccccccccccccccccccccccccccccccccccccccccccccccccccssscssccccccsccsssccccccccccccccccccccccccccccccccccccccccccccccccccccccccccccccccccccccccccccccccccccccccccccccccccccccccccccccccccccccccssccccccccccccccccccccccccccccccccccccccccccccccccccccccccccccccccccccccccccccccccccccccccccccccccccccccccccccccccccccccccccccccccccccccccccccccccccccccccccsscccccccccccccccccccccccccccccccccccccccccccccccsccsscccccccccccccccccccccccccccccccccccccccccccccccccccccccccccccccccccccccccccccccccccccccccccccccccccccccccc"
     style="display:none" /><circle
     r="0.40000001"
     cy="2"
     cx="10.5"
     style="display:none;fill:#000000"
     id="circle1" /><circle
     r="0.40000001"
     cy="-14.1"
     cx="28.5"
     style="display:none;fill:#000000"
     id="circle2" /><circle
     r="0.40000001"
     cy="-14"
     cx="21.299999"
     style="display:none;fill:#000000"
     id="circle3" /><circle
     r="0.40000001"
     cy="-3.5999999"
     cx="24.299999"
     style="display:none;fill:#000000"
     id="circle4" /><circle
     r="0.40000001"
     cy="25.799999"
     cx="15.4"
     style="display:none;fill:#000000"
     id="circle5" /><path
     style="display:none;fill:#000000;fill-opacity:1;stroke:#000000;stroke-width:0.2;stroke-linecap:round;stroke-opacity:1"
     d="M 38.302336,-22.726841 H 25.806674"
     id="path2" /><path
     style="display:none;fill:#000000;fill-opacity:1;stroke:#000000;stroke-width:0.2;stroke-linecap:round;stroke-opacity:1"
     d="m 35.693747,24.922856 v 0.794961"
     id="path3" /><path
     style="display:none;fill:#000000;fill-opacity:1;stroke:#000000;stroke-width:0.2;stroke-linecap:round;stroke-opacity:1"
     d="m 38.174503,10.126203 v 3.515404"
     id="path4" /><path
     style="display:none;fill:#000000;fill-opacity:1;stroke:#000000;stroke-width:0.2;stroke-linecap:round;stroke-opacity:1"
     d="M -2.0608891,24.699149 H 15.32438"
     id="path5" /><path
     style="display:none;fill:#000000;fill-opacity:1;stroke:#000000;stroke-width:0.2;stroke-linecap:round;stroke-opacity:1"
     d="M 11.425478,0.442864 H 15.32438"
     id="path6" /><path
     style="display:none;fill:url(#linearGradient15);fill-opacity:1;stroke:none;stroke-width:0.0180783;stroke-linecap:round;stroke-opacity:1"
     d="m 32.015886,2.1602151 c -0.214025,0.4864848 0.480441,0.7687628 0.702652,1.1438406 1.060549,1.2281165 1.606112,2.8302712 1.542656,4.4395547 0.06459,0.9701777 -0.03333,1.9751554 0.18308,2.9239966 0.184649,0.356579 -0.467369,0.154828 -0.642274,0.211855 -0.705755,0.03241 -1.441443,-0.138726 -2.124553,0.01801 -0.202484,0.751528 -0.02437,1.58379 -0.08439,2.365538 0.04534,1.113931 -0.09189,2.264412 0.0696,3.355091 0.635324,0.236476 1.409728,0.03753 2.098562,0.103089 0.92883,-0.04672 1.895416,0.09526 2.799664,-0.07433 0.007,1.532111 0.0023,3.06425 0.0037,4.596372 -2.049864,0.04471 -4.113578,-0.09552 -6.155448,0.09622 -0.49263,0.230029 -0.280629,0.92787 -0.351672,1.361344 0.03585,0.509327 -0.09035,1.05208 0.07891,1.535067 0.930609,0.181303 1.927187,0.02745 2.8837,0.07884 0.681001,0.01939 1.400869,-0.03042 2.059055,0.07193 0.07142,0.872448 -0.06786,1.984718 0.797104,2.526371 0.943223,0.714423 2.437946,0.396224 3.026989,-0.630307 0.314036,-0.621376 0.07034,-1.401998 0.152053,-2.087778 0.03186,-6.886004 0.04624,-13.772129 0.101357,-20.6579993 1.601702,-0.043224 3.221718,0.035712 4.811853,-0.047686 0.314218,-0.2701096 0.271184,-1.0703731 0.02295,-1.3651962 -1.946419,-0.1025299 -3.93056,-0.01435 -5.891434,-0.043797 -1.989584,0.023365 -3.997858,-0.046622 -5.975819,0.034799 l -0.08342,0.034799 z"
     id="path7"
     transform="translate(-5.8000002,-24.9)" /><path
     style="display:none;fill:url(#linearGradient17);fill-opacity:1;stroke:none;stroke-width:0.0180783;stroke-linecap:round;stroke-opacity:1"
     d="m 28.831528,3.9470358 c -1.399883,-0.024234 -2.737114,1.1348529 -2.729752,2.5722732 -0.02412,0.4507219 -0.161045,1.1606094 0.412764,1.3180914 0.584091,0.3605048 0.379193,1.2901798 -0.254226,1.4575626 -0.289092,0.3933349 -0.203273,0.97885 -0.108576,1.430375 0.210704,0.39095 0.641006,0.131034 0.92051,0.03036 0.960038,0.304333 2.029609,0.125597 3.033411,0.18043 0.46364,-0.107283 1.219376,0.247353 1.475543,-0.247144 -0.02478,-1.6105601 0.105078,-3.2443832 -0.09954,-4.8484989 -0.28366,-1.1733909 -1.472941,-1.9364915 -2.65013,-1.8934543 z"
     id="path8"
     transform="translate(-5.8000002,-24.9)" /><path
     style="display:none;fill:url(#linearGradient13);fill-opacity:1;stroke:none;stroke-width:0.00451957;stroke-linecap:round;stroke-opacity:1"
     d="m 29.919227,26.860438 c -0.818895,-0.01537 -1.624787,0.218723 -2.36673,0.550514 -1.732551,0.787082 -3.036086,2.442739 -3.392754,4.312212 -0.07562,0.362391 -0.136749,0.728412 -0.11357,1.099933 -0.0045,3.687219 -0.009,7.374439 -0.01343,11.061658 0.0057,0.206928 0.222546,0.303472 0.40557,0.270292 5.415765,0 10.83153,0 16.247295,0 0.206359,-0.0059 0.302631,-0.221853 0.270522,-0.40451 0.01298,-1.252041 -0.0074,-2.504805 0.03111,-3.756367 0.03516,-0.602947 0.439397,-1.16123 0.982624,-1.416526 0.403271,-0.222669 0.882408,-0.230477 1.328985,-0.180758 0.188267,0.018 0.358458,0.117533 0.542413,0.142187 0.219617,0.0049 0.312963,-0.232897 0.295182,-0.419807 0.0114,-0.939943 0.01086,-1.88178 0.002,-2.820757 -0.0134,-0.209785 -0.245384,-0.276387 -0.422844,-0.248021 -1.474131,0.0036 -2.949959,-0.0071 -4.42303,0.0053 -0.219769,0.01456 -0.273996,0.259321 -0.251075,0.44087 -0.01409,0.675279 0.01039,1.362428 -0.173756,2.021167 -0.351788,1.474463 -1.298854,2.791885 -2.584588,3.594827 -0.83998,0.539072 -1.826391,0.863381 -2.833031,0.913272 -0.659649,0.01714 -1.328538,-0.01042 -1.96317,-0.208148 -1.59532,-0.443427 -2.977887,-1.586772 -3.709381,-3.072604 -0.329592,-0.660478 -0.533622,-1.415827 -0.595393,-2.153115 -0.04767,-0.85634 -0.03297,-1.715502 -0.01806,-2.572737 0.0026,-0.672594 0.371831,-1.349913 0.992511,-1.639694 0.837046,-0.426534 1.99594,-0.224076 2.545909,0.56597 0.262052,0.366637 0.34721,0.826396 0.331338,1.269576 0.01321,0.895257 -0.0033,1.79226 0.01084,2.68649 0.01338,0.209818 0.245371,0.276385 0.422844,0.248021 1.483502,-0.0036 2.968702,0.0071 4.451144,-0.0053 0.209786,-0.0134 0.276387,-0.245384 0.248022,-0.422844 -0.01046,-0.367848 0.02103,-0.74071 -0.01597,-1.105387 -0.02475,-0.154327 -0.191687,-0.204374 -0.325027,-0.214779 -0.26205,-0.113117 -0.464786,-0.364163 -0.462506,-0.65781 -0.03307,-0.366385 0.238273,-0.737377 0.610576,-0.777698 0.237303,-0.06394 0.202467,-0.341962 0.193756,-0.533004 -0.01108,-0.704057 -0.01798,-1.418078 -0.217697,-2.099667 -0.394182,-1.499097 -1.40593,-2.816478 -2.727209,-3.619201 -0.79816,-0.472525 -1.701528,-0.786726 -2.629901,-0.848195 -0.224398,-0.0076 -0.449007,-0.0053 -0.673493,-0.0054 z"
     id="path10"
     transform="translate(-5.8000002,-24.9)" /><path
     style="display:none;fill:url(#linearGradient19);fill-opacity:1;stroke:none;stroke-width:0.00225979;stroke-linecap:round;stroke-opacity:1"
     d="m 17.424039,25.188482 c -0.134686,0.04465 -0.202473,0.189175 -0.186344,0.324513 0.0012,0.93688 -0.0024,1.874133 0.0018,2.81078 0.0033,0.146091 0.134546,0.254854 0.274368,0.26551 0.252531,0.06274 0.455388,0.277684 0.5,0.534382 0.06204,0.284477 -0.02787,0.612106 -0.274352,0.782959 -0.108056,0.08671 -0.250768,0.09531 -0.373152,0.150219 -0.112842,0.06978 -0.140516,0.208145 -0.128495,0.331597 0.0081,0.408152 -0.02451,0.821475 0.05079,1.225138 0.112333,0.519984 0.441664,0.992956 0.90661,1.256898 0.377954,0.220913 0.823017,0.315909 1.258694,0.285019 0.522441,-0.02984 1.040587,-0.25281 1.393753,-0.644224 0.255002,-0.265379 0.407307,-0.617168 0.479211,-0.974621 0.04164,-0.379808 0.02492,-0.76323 0.03159,-1.144657 10e-4,-1.652603 0.0027,-3.305581 -7.93e-4,-4.957952 -0.0033,-0.159284 -0.159507,-0.276756 -0.313428,-0.258846 -1.182529,0.0012 -2.365431,-0.0024 -3.547726,0.0018 -0.02417,0.0038 -0.04834,0.0077 -0.0725,0.01151 z"
     id="path17"
     transform="translate(-5.8000002,-24.9)" /><path
     style="display:none;fill:url(#linearGradient21);fill-opacity:1;stroke:none;stroke-width:0.00903915;stroke-linecap:round;stroke-opacity:1"
     d="m 18.925716,38.609962 c -1.056223,-0.01847 -2.106556,0.776872 -2.22589,1.853996 -0.04376,0.451971 -0.09544,0.928411 0.01042,1.369025 0.100767,0.109757 -0.159605,0.443464 -0.05446,0.696209 -0.0055,1.033237 0.01486,2.062244 -0.02419,3.091759 -2.727906,0.05626 -5.483044,0.01479 -8.2219172,0.02789 -0.8022553,0.0097 -1.6108437,-0.01936 -2.4091855,0.01436 -0.371763,0.111607 -0.1845396,0.593155 -0.2396922,0.882895 -0.051727,0.713456 0.1094313,1.532434 -0.3724399,2.136242 -0.1899426,0.316879 -0.5478373,0.439419 -0.7570286,0.72631 -0.067178,0.367371 0.3641863,0.379472 0.6192346,0.350709 5.2476198,0 10.4952398,0 15.7428588,0 0.408524,-0.07241 0.233553,-0.566479 0.269907,-0.85766 -0.01436,-2.781733 0.03221,-5.564904 -0.04631,-8.345676 -0.09323,-0.968791 -0.904195,-1.782714 -1.863499,-1.912119 -0.141198,-0.02409 -0.284597,-0.03491 -0.427802,-0.03395 z"
     id="path19"
     transform="translate(-5.8000002,-24.9)" /><path
     style="display:inline;fill:url(#linearGradient4);fill-opacity:1;stroke:none;stroke-width:0.0127833;stroke-linecap:round;stroke-opacity:1"
     d="m 3.7941641,45.686639 c -0.3984808,0.06218 -0.9322309,-0.124273 -1.2403782,0.204358 -0.084119,0.398941 -0.5381421,0.491776 -0.8000789,0.722805 -0.027078,0.809407 -0.043472,1.805257 0.6490264,2.375394 0.8781182,0.873126 2.5228091,0.645413 3.1460116,-0.421823 0.3795118,-0.614392 0.2392445,-1.387754 0.3114712,-2.074653 0.052354,-0.34108 0.065691,-0.919273 -0.4436733,-0.80683 -0.5407929,2.44e-4 -1.0815871,-6.35e-4 -1.6223788,7.49e-4 z"
     id="path21"
     transform="translate(-5.8000002,-24.9)" /><path
     style="display:inline;fill:url(#linearGradient2);fill-opacity:1;stroke:none;stroke-width:0.0127833;stroke-linecap:round;stroke-opacity:1"
     d="M 27.70203,0.98009352 C 24.695954,0.9665808 21.889055,3.3288215 21.38766,6.2931466 c -0.103363,0.6777922 -0.191601,1.3834063 -0.12981,2.0601739 0.330716,0.1739914 -0.21186,0.5094721 -0.01936,0.9141865 -0.01091,7.490498 -0.02172,14.980996 -0.03246,22.471494 -0.272809,0.736254 -1.010783,1.370006 -1.82274,1.258755 -0.567342,0.04155 -1.181338,-0.07536 -1.547853,-0.550556 -0.605858,-0.558975 -0.424325,-1.455854 -0.491687,-2.178863 -0.130388,-0.31344 -0.647123,-0.268032 -0.730715,-0.657054 -0.23196,-0.451602 0.110533,-1.006892 0.579368,-1.089076 0.320075,-0.324883 0.110706,-0.856888 0.175271,-1.26185 0.09122,-0.507283 -0.597348,-0.528601 -0.896828,-0.314464 -0.162388,0.286722 -0.368957,-0.0795 -0.567882,-0.07003 -2.016861,-0.09106 -4.03779,-4.92e-4 -6.0547087,-0.07827 -0.0759,-1.185871 0.070486,-2.394617 -0.1184701,-3.574701 -0.3614971,-1.249311 -2.0290955,-1.734013 -3.0734814,-1.022913 -0.8465973,0.476309 -0.9257797,1.541769 -0.8862162,2.405855 -0.048512,0.466841 0.4111296,0.547749 0,0.867241 -0.063739,0.375327 0.084588,0.738212 0.3703907,0.98259 -0.4965222,-0.12533 -0.3566338,0.567732 -0.3703907,0.870986 0,6.039312 0,12.078624 0,18.117936 0.1350587,0.466977 0.7419508,0.199667 1.1009355,0.270022 3.1958219,0 6.3916429,0 9.5874639,0 0.466977,-0.135059 0.199667,-0.741951 0.270022,-1.100936 -0.02926,-0.868178 0.05909,-1.757846 -0.0452,-2.612313 -0.10436,-0.171133 0.144418,-0.574494 0.04571,-0.905961 -0.0266,-0.921967 0.414937,-1.949107 1.356726,-2.241569 1.028678,-0.422834 2.360761,-0.01576 2.840286,1.022288 0.365004,0.763739 0.164395,1.62557 0.234518,2.444158 0.04648,2.686708 -0.04337,5.377096 0.07333,8.061605 0.06699,0.471264 0.658421,0.294715 0.984656,0.346829 6.388796,0.06651 12.778292,0.02196 19.16737,0.0353 0.409529,-0.09984 0.27347,-0.658856 0.22484,-0.964853 0.189603,-0.132842 0.734949,-0.02016 1.061602,-0.05781 0.695054,-0.02913 1.411519,0.05893 2.092868,-0.04521 0.303853,-0.279959 0.0833,-0.802004 0.150176,-1.183687 -0.02383,-2.871676 0.04724,-5.745808 -0.04754,-8.615985 -0.136379,-1.283567 -1.74142,-2.000862 -2.85277,-1.435623 -0.634699,0.293563 -1.125869,0.919536 -1.110922,1.639731 -0.07719,1.353311 -0.02935,2.710167 -0.04507,4.064935 -0.469275,-0.177443 -1.018084,-0.02855 -1.518514,-0.07752 -4.995971,-0.01719 -10.001484,0.03934 -14.991455,-0.04392 -0.30988,0.03958 -0.124881,-0.416201 -0.188628,-0.608952 -0.01376,-3.735216 -0.0177,-7.497664 0.04437,-11.23421 0.03908,-1.095487 0.589527,-2.154408 1.24662,-3.025669 1.695775,-2.206648 5.028501,-2.884996 7.457125,-1.531123 1.864558,0.979217 3.145305,3.043595 3.138771,5.17411 0.06412,0.43262 -0.139959,1.10194 0.441173,1.230891 0.533302,0.284174 0.443793,1.226392 -0.15343,1.389616 -0.468087,0.200833 -0.19721,0.804486 -0.269204,1.197751 0.141093,0.591346 -0.181336,0.419242 -0.628242,0.420699 -1.429329,-0.01478 -2.860583,0.03123 -4.288767,-0.02959 -0.107298,-1.217943 0.05997,-2.460213 -0.141316,-3.672448 -0.307949,-0.750533 -1.065682,-1.336603 -1.903636,-1.26185 -1.022306,-0.07191 -2.016467,0.780303 -2.011869,1.820869 -0.03936,1.620551 -0.181113,3.346215 0.598528,4.834325 0.910287,1.825769 2.793512,3.203368 4.848725,3.341485 0.935837,0.04273 1.897792,0.01459 2.763012,-0.388617 2.136246,-0.810161 3.689669,-2.922528 3.809769,-5.206317 0.03922,-0.431163 0.04964,-0.864197 0.07128,-1.29643 1.584133,-0.02584 3.179745,0.0088 4.756734,-0.05473 0.384978,-0.184457 0.138992,-0.731553 0.208523,-1.077913 0,-10.119601 0,-20.239203 0,-30.3588051 -0.135058,-0.466977 -0.74195,-0.1996666 -1.100935,-0.2700219 -1.254239,0.015241 -2.519594,-0.030361 -3.76694,0.022603 -0.387464,0.1823395 -0.140551,0.7318876 -0.210235,1.0783327 -0.01602,6.9430373 0.03818,13.8970193 -0.04594,20.8333853 0.08796,0.935325 -0.717772,1.785634 -1.640605,1.865186 -0.990834,0.165617 -2.1182,-0.512092 -2.197252,-1.566701 -0.08445,-0.433979 0.02253,-0.901657 -0.141939,-1.312909 -0.519293,-0.186974 -1.115037,-0.03299 -1.664948,-0.08314 -1.07056,-0.0015 -2.143209,0.0059 -3.20893,-0.02547 -0.07886,-0.900822 0.07723,-1.826755 -0.108982,-2.713452 -0.160246,-0.129608 -0.128466,-0.467538 0.139442,-0.347546 0.422877,0.270913 0.98254,0.113018 1.459216,0.169922 1.57726,-0.0051 3.165314,0.0331 4.735675,-0.0175 0.387464,-0.18234 0.140551,-0.731888 0.210235,-1.078333 -0.01526,-1.126403 0.0304,-2.263935 -0.0226,-3.383441 -0.182339,-0.387464 -0.731888,-0.140551 -1.078333,-0.210235 -1.280078,-0.01071 -2.587546,0.02572 -3.84697,-0.0357 -0.08508,-1.849788 0.0064,-3.721179 -0.06018,-5.570457 -0.18234,-0.387464 -0.731888,-0.140551 -1.078333,-0.210235 -1.052067,0.03579 -2.119759,-0.07528 -3.162865,0.0759 -0.167749,0.152901 -0.368216,0.124272 -0.531555,-0.01673 -0.222957,-0.07521 -0.490662,-0.101723 -0.701458,0.01361 -0.03817,-0.521578 0.08064,-1.0718389 -0.06754,-1.5733169 -0.289756,-0.1485668 -0.686085,-0.3143692 -0.661885,-0.7109457 -0.06483,-0.3611943 0.06125,-0.7762759 0.458521,-0.8702132 0.485807,-0.2132354 0.180801,-0.8398905 0.291971,-1.2517445 0.03889,-1.0198441 0.682512,-2.0068088 1.666223,-2.3374615 1.365344,-0.5632358 3.167054,0.129635 3.613276,1.5858016 0.226646,0.9625805 0.101901,1.9661731 0.156389,2.9457486 0.03804,0.6919669 -0.04195,1.4070306 0.07109,2.0843226 0.282687,0.299254 0.801067,0.08011 1.182554,0.145744 0.473378,-0.07245 1.157915,0.214958 1.415027,-0.33115 0.239819,-0.571664 0.06405,-1.2277359 0.104054,-1.8301668 -0.03427,-1.3094749 0.01715,-2.6769395 -0.5732,-3.8868701 C 32.774614,2.5283196 30.279238,0.89684184 27.70203,0.98009352 Z M 16.180719,27.028285 c 0.05774,0.11437 0.02522,0.09552 0,0 z m 0.21347,0.04844 c 0.0018,-0.02183 0.04007,-0.07957 0,0 z"
     id="path23"
     transform="translate(-5.8000002,-24.9)" /><path
     style="fill:url(#linearGradient10);fill-opacity:1;stroke:none;stroke-width:0.0180783;stroke-linecap:round;stroke-opacity:1"
     d="m 17.344218,25.300434 c -0.172422,0.839012 -0.04448,1.742629 -0.06515,2.607406 -0.04651,0.368995 0.167206,0.666253 0.505804,0.775036 0.416516,0.378018 0.356269,1.294206 -0.288476,1.367524 -0.424224,0.307706 -0.165741,0.935836 -0.168955,1.372997 0.08042,1.047377 1.122728,1.806825 2.145032,1.650174 0.901668,-0.03036 1.796544,-0.717137 1.785232,-1.674007 0.12788,-1.966176 0.04429,-3.939744 0.07344,-5.908814 -0.224247,-0.52725 -0.990056,-0.161954 -1.445028,-0.270291 -0.83816,0.05041 -1.7326,-0.103866 -2.541907,0.07997 z"
     id="path9"
     transform="translate(-5.8000002,-24.9)" /><path
     style="fill:url(#linearGradient14);fill-opacity:1;stroke:none;stroke-width:0.0180783;stroke-linecap:round;stroke-opacity:1"
     d="m 28.784037,3.9479185 c -1.325802,-0.023169 -2.575349,1.024463 -2.659533,2.3727797 -0.0016,0.4558461 -0.308648,1.1360681 0.169353,1.4305477 0.772183,0.1134714 0.748327,1.3972519 -0.01765,1.5089374 -0.39202,0.3267309 -0.228681,0.9493427 -0.200027,1.4000087 0.161042,0.437279 0.716731,0.262198 1.006135,0.09657 0.914889,0.277709 1.929862,0.139624 2.887761,0.17937 0.525127,-0.04684 1.088638,0.09805 1.5875,-0.07997 0.179355,-0.928279 0.03137,-1.9219866 0.07668,-2.8762829 C 31.612889,6.8434331 31.73288,5.4703208 30.74652,4.6668132 30.22055,4.179664 29.496692,3.9319884 28.784037,3.9479185 Z"
     id="path11"
     transform="translate(-5.8000002,-24.9)" /><path
     style="fill:url(#linearGradient18);fill-opacity:1;stroke:none;stroke-width:0.0180783;stroke-linecap:round;stroke-opacity:1"
     d="m 32.067437,2.1602151 c -0.211474,0.4825345 0.463343,0.7726342 0.675994,1.1570816 1.055318,1.2378601 1.575077,2.8606815 1.507682,4.4806962 0.06382,0.9753263 -0.115227,2.0182114 0.186452,2.9472941 -0.01715,0.273195 -0.496347,0.05979 -0.680761,0.134175 -0.705755,0.03241 -1.441443,-0.138726 -2.124553,0.01801 -0.202484,0.751528 -0.02437,1.58379 -0.08439,2.365538 0.04534,1.11393 -0.09189,2.264412 0.0696,3.35509 0.635324,0.236477 1.409729,0.03753 2.098563,0.10309 0.933057,-0.04982 1.906457,0.10187 2.813082,-0.07998 0.15086,-0.304821 0.02867,0.763813 0.06283,1.029962 -0.0075,1.176863 -0.01703,2.353713 -0.0254,3.530571 -2.076328,0.05272 -4.172699,0.01216 -6.236609,0.122653 -0.387761,0.323603 -0.105257,1.004861 -0.208197,1.469968 0.09856,0.473572 -0.273616,1.233548 0.216915,1.506047 1.563403,0.03973 3.136367,0.03411 4.703418,0.05638 0.04747,0.874175 -0.03226,1.962225 0.794103,2.522664 1.061452,0.906356 3.181201,0.270264 3.19089,-1.240765 0.15131,-5.2594 0.08002,-10.523602 0.130105,-15.7849266 0.0084,-2.0957296 0.01684,-4.1914593 0.02526,-6.287189 1.578515,-0.039108 3.176825,0.015988 4.743207,-0.080933 0.310584,-0.271762 0.269082,-1.0676271 0.02063,-1.3616096 -1.948184,-0.1025295 -3.93409,-0.01435 -5.89673,-0.043797 -1.95553,0.023563 -3.929882,-0.046888 -5.873775,0.034799 l -0.08343,0.034799 z"
     id="path14"
     transform="translate(-5.8000002,-24.9)" /><path
     style="fill:url(#linearGradient26);fill-opacity:1;stroke:none;stroke-width:0.0180783;stroke-linecap:round;stroke-opacity:1"
     d="m 30.017739,26.908413 c -2.770242,-0.06075 -5.272888,2.168546 -5.827779,4.826411 -0.188154,3.313722 -0.08621,6.638639 -0.142262,9.956775 0.04548,0.775146 -0.110661,1.589518 0.06705,2.338938 0.936074,0.184591 1.940374,0.02677 2.902767,0.07927 4.552882,0 9.105764,0 13.658647,0 0.526686,-0.224909 0.161943,-0.989866 0.270443,-1.444852 0.06532,-1.06614 -0.141257,-2.179075 0.158387,-3.214369 0.413321,-1.011128 1.698219,-1.370024 2.660369,-0.968002 0.623569,-0.06022 0.238138,-0.923817 0.344441,-1.34422 -0.04685,-0.658298 0.09796,-1.354968 -0.07997,-1.987023 -0.936336,-0.182288 -1.939586,-0.02629 -2.901708,-0.07821 -0.662496,0.04675 -1.363256,-0.09762 -1.999558,0.07997 -0.166903,0.759236 9.36e-4,1.589506 -0.235866,2.357064 -0.581425,2.637904 -3.19361,4.688557 -5.889561,4.511102 -2.863187,0.09667 -5.570931,-2.333052 -5.816352,-5.190293 -0.0018,-1.170813 -0.115338,-2.364276 0.06889,-3.522247 0.556057,-1.536319 3.156617,-1.565811 3.672507,0.01218 0.331865,1.222479 0.02223,2.533501 0.247694,3.75054 0.936336,0.182288 1.939585,0.02629 2.901708,0.07821 0.662496,-0.04675 1.363256,0.09762 1.999558,-0.07997 0.110728,-0.455083 0.157275,-1.022955 -0.04008,-1.468509 -0.299373,-0.240694 -0.735333,-0.425179 -0.687999,-0.901796 -0.06501,-0.453307 0.341521,-0.691982 0.688528,-0.825705 0.267702,-0.570387 0.02322,-1.256562 0.0068,-1.865532 -0.417831,-2.845995 -3.112989,-5.244697 -6.02666,-5.099732 z"
     id="path18"
     transform="translate(-5.8000002,-24.9)" /><path
     style="fill:url(#linearGradient28);fill-opacity:1;stroke:none;stroke-width:0.0127833;stroke-linecap:round;stroke-opacity:1"
     d="m 18.893421,38.628867 c -1.215043,-0.02435 -2.308154,1.102707 -2.223842,2.321714 0.04059,0.309584 -0.124249,0.736025 0.148806,0.945514 -0.304017,0.279761 -0.08355,0.80195 -0.150554,1.183577 -0.0092,0.853552 0.02071,1.722593 -0.02447,2.55853 -3.536684,0.08759 -7.0837217,0.03083 -10.6248583,0.04769 -0.4627035,0.133802 -0.2086266,0.738192 -0.2857186,1.095667 -0.048048,0.673145 0.1258905,1.480893 -0.4249772,1.998537 -0.1903404,0.28152 -0.7948157,0.510088 -0.5052074,0.881578 0.415665,0.18373 0.9297045,0.0285 1.3834341,0.07966 4.9275154,0 9.8550314,0 14.7825464,0 0.467847,-0.135311 0.197805,-0.742666 0.266765,-1.101928 -0.02116,-2.8004 -0.0016,-5.605885 -0.04818,-8.403111 -0.334948,-0.96028 -1.261927,-1.652121 -2.293744,-1.607431 z"
     id="path26"
     transform="translate(-5.8000002,-24.9)" /><g
     id="g1"
     transform="translate(0.04999981,0.04999738)"><path
       d="M -1.6,1.6 0,0 1.6,1.6 M 0,0 v -1 c 0,-2.6666655 4,-2.6666655 4,0 v 1 2 h 5 0.5 m 2,-1.6 v 3.2 m 0,0 c 1.066666,0 1.066666,1.6 0,1.6 -1.066666,0 -1.066666,-1.6 0,-1.6 m 0,1.6 v 1 c 0,2.6666655 4,2.6666655 4,0 V 5.2 5 4.8 4.6 4.4 4.2 4 3.8 3.6 3.4 3.2 3 2.8 2.6 2.4 2.2 2 1.8 1.6 1.4 1.2 1 0.8 0.6 0.4 0.2 0 -0.2 -0.4 -0.6 -0.8 -1 -1.2 -1.4 -1.6 -1.8 -2 -2.2 -2.4 -2.6 -2.8 -3 -3.2 -3.4 -3.6 -3.8 -4 -4.2 -4.4 -4.6 -4.8 -5 -5.2 -5.4 -5.6 -5.8 -6 -6.2 -6.4 -6.6 -6.8 -7 -7.2 -7.4 -7.6 -7.8 -8 -8.2 -8.4 -8.6 -8.8 -9 -9.2 -9.4 -9.6 -9.8 -10 v -0.2 -0.2 -0.2 -0.2 -0.2 -0.2 -0.2 -0.2 -0.2 -0.2 -0.2 -0.2 -0.2 -0.2 -0.2 -0.2 -0.2 -0.2 -0.2 -0.2 -0.2 -0.2 -0.2 -0.2 -0.2 -0.2 -0.2 -0.2 -0.2 -0.2 -0.2 -0.2 m -1.6,0 h 3.2 m -1.6,0 v -1 c 0,-3.589853 2.910149,-6.499997 6.5,-6.499997 3.589851,0 6.5,2.910144 6.5,6.499997 v 1 0.2 0.2 0.2 0.2 0.5 m -1,1.1 H 27 m -2.8,0 H 24 23.8 23.6 23.4 23.2 23 22.8 22.3 m -2,-1.6 v 3.2 m 0,-3.2 c -1.066666,0 -1.066666,-1.6 0,-1.6 1.066666,0 1.066666,1.6 0,1.6 m 0,-1.6 v -1 c 0,-3.666665 5.5,-3.666665 5.5,0 v 1 0.2 0.2 0.2 0.2 0.2 0.2 0.2 0.2 0.2 0.2 0.2 0.2 0.2 0.2 0.2 0.2 0.2 0.2 0.2 0.2 0.2 0.2 0.2 0.2 0.2 0.2 0.2 0.2 0.2 0.2 0.2 0.2 0.2 0.2 0.2 2 h 5 m 0,-1.6 v 3.2 m 0,-1.6 v 0.2 0.2 0.2 0.2 0.2 0.2 0.2 0.2 0.2 0.2 0.2 0.2 0.2 2 h -5 -0.5 m -1,1 v 2 h 5 v 1 c 0,2.6666655 4,2.6666655 4,0 V -0.6 -0.8 -1 -1.2 -1.4 -1.6 -1.8 -2 -2.2 -2.4 -2.6 -2.8 -3 -3.2 -3.4 -3.6 -3.8 -4 -4.2 -4.4 -4.6 -4.8 -5 -5.2 -5.4 -5.6 -5.8 -6 -6.2 -6.4 -6.6 -6.8 -7 -7.2 -7.4 -7.6 -7.8 -8 -8.2 -8.4 -8.6 -8.8 -9 -9.2 -9.4 -9.6 -9.8 -10 v -0.2 -0.2 -0.2 -0.2 -0.2 -0.2 -0.2 -0.2 -0.2 -0.2 -0.2 -0.2 -0.2 -0.2 -0.2 -0.2 -0.2 -0.2 -0.2 -0.2 -0.2 -0.2 -0.2 -0.2 -0.2 -0.2 -0.2 -0.2 -0.2 -0.2 -0.2 -0.2 -0.2 -0.2 -0.2 -0.2 -0.2 -0.2 -0.2 -0.2 -0.2 -0.2 -0.2 -0.2 -0.2 -0.2 -0.2 -2 h 5 m 0,-1.6 v 3.2 m 0,-1.6 v 0.2 0.2 0.2 0.2 0.2 0.2 0.2 0.2 0.2 0.2 0.2 0.2 0.2 0.2 0.2 0.2 0.2 0.2 0.2 0.2 0.2 0.2 0.2 0.2 0.2 0.2 0.2 0.2 0.2 0.2 0.2 0.2 0.2 0.2 0.2 0.2 0.2 0.2 0.2 0.2 0.2 0.2 0.2 0.2 0.2 0.2 0.2 0.2 0.2 0.2 0.2 0.2 0.2 0.2 0.2 0.2 0.2 0.2 0.2 0.2 0.2 0.2 0.2 0.2 0.2 0.2 0.2 0.2 0.2 0.2 0.2 0.2 0.2 0.2 0.2 0.2 0.2 0.2 0.2 0.2 0.2 0.2 0.2 0.2 0.2 0.2 0.2 0.2 0.2 0.2 0.2 0.2 0.2 0.2 0.2 0.2 0.2 0.2 0.2 0.2 0.2 0.2 0.2 0.2 0.2 0.2 V 0 0.2 0.4 0.6 0.8 1 1.2 1.4 1.6 1.8 2 2.2 2.4 2.6 2.8 3 3.2 3.4 3.6 3.8 4 4.2 4.4 4.6 4.8 5 5.2 5.4 5.6 5.8 6 6.2 6.4 6.6 6.8 7 7.2 7.4 7.6 7.8 8 v 0.2 2 h -5 v 1 c 0,3.313711 -2.686292,5.999997 -6,5.999997 -3.313708,0 -6,-2.686286 -6,-5.999997 v -1 -1 c 0,-2.6666655 4,-2.6666655 4,0 v 1 2 h 5 m 0,-1.6 v 3.2 m 0,-3.2 c -1.066666,0 -1.066666,-1.6 0,-1.6 1.066666,0 1.066666,1.6 0,1.6 M 30.3,9 V 8 c 0,-3.3137107 -2.686292,-5.9999974 -6,-5.9999974 -3.313708,0 -6,2.6862867 -6,5.9999974 v 1 0.2 0.2 0.2 0.2 0.2 0.2 0.2 0.2 0.2 0.2 0.2 0.2 0.2 0.2 0.2 0.2 0.2 0.2 0.2 0.2 0.2 0.2 0.2 0.2 0.2 0.2 0.2 0.2 0.2 0.2 0.2 0.2 0.2 0.2 0.2 0.2 0.2 0.2 0.2 0.2 0.2 2 h 5 0.2 0.2 0.2 0.2 0.2 0.2 0.2 0.2 0.2 0.2 0.2 0.2 0.2 0.2 0.2 0.2 0.2 0.2 0.2 0.2 0.2 0.2 0.2 0.2 0.2 0.2 0.2 0.2 0.2 0.2 0.2 0.2 0.2 0.2 0.2 0.2 0.2 0.2 0.2 0.2 0.2 0.2 0.2 0.2 0.2 0.2 0.2 0.2 0.2 0.2 0.2 0.2 0.2 0.2 0.2 0.2 0.2 0.2 0.2 m 0,-1.6 v 3.2 m 0,-1.6 V 19 18.8 18.6 18.4 18.2 18 17.8 17.6 17.4 17.2 17 v -0.2 -0.2 -0.2 -1 c 0,-2.666666 4,-2.666666 4,0 v 1 0.2 0.2 0.2 0.2 0.2 0.2 0.2 0.2 0.2 0.2 0.2 0.2 0.2 0.2 0.2 0.2 0.2 0.2 0.2 0.2 0.2 0.2 0.2 0.2 0.2 0.2 0.2 0.2 0.2 0.2 0.2 0.2 2 h -5 m 3,1 h -5 -0.2 -0.2 -0.2 -0.2 -0.2 -0.2 -0.2 -0.2 -0.2 -0.2 -0.2 -0.2 -0.2 -0.2 -0.2 -0.2 -0.2 -0.2 -0.2 -0.2 -0.2 -0.2 -0.2 -0.2 -0.2 -0.2 -0.2 -0.2 -0.2 -0.2 -0.2 -0.2 -0.2 -0.2 -0.2 -0.2 -0.2 -0.2 -0.2 -0.2 -0.2 -0.2 -0.2 -0.2 -0.2 -0.2 -0.2 -0.2 -0.2 -0.2 -0.2 -0.2 -0.2 -0.2 -0.2 -0.2 -0.2 -0.2 -0.2 -0.2 -0.2 -0.2 -0.2 -0.2 -0.2 -0.2 -0.2 -0.2 -0.2 -0.2 -0.2 -0.2 -0.2 -0.2 -0.2 -0.2 -0.5 m -1,-1 V 24.6 24.4 24.2 24 23.8 23.6 23.4 23.2 23 22.8 22.6 22.4 22.2 22 21.8 21.6 21.4 21.2 21 20.8 20.6 20.4 20.2 20 19.8 19.6 19.4 19.2 19 18.8 18.6 18.4 18.2 18 17.8 17.6 17.4 17.2 17 16 c 0,-2.999999 -4.5,-2.999999 -4.5,0 v 1 m -1.6,0 h 3.2 m -1.6,0 v 0.2 0.2 0.2 0.2 0.2 0.2 0.2 0.2 0.2 2 H 5.9 5.7 5.5 5.3 5.1 4.9 4.7 4.5 4.3 4.1 3.9 3.7 3.5 3.3 3.1 2.9 2.7 2.5 2.3 2.1 1.9 1.4 m -2.6,0 H -1.4 -1.6 -1.8 -2 -2.2 -2.4 -2.6 -2.8 -3 -3.2 c 0,1.066666 -1.6,1.066666 -1.6,0 0,-1.066666 1.6,-1.066666 1.6,0 M -4,21.6 v 1 c 0,2.666666 4,2.666666 4,0 V 21.6 21.4 21.2 21 20.8 20.6 20.4 20.2 20 19.8 19.6 19.4 19.2 19 18.8 18.6 18.4 18.2 18 17.8 17.6 17.4 17.2 17 16.8 16.6 16.4 16.2 16 15.8 15.6 15.4 15.2 15 14.8 14.6 14.4 14.2 14 13.8 13.6 13.4 13.2 13 12.8 12.6 12.4 12.2 12 11.8 11.6 11.4 11.2 11 10.8 10.6 10.4 10.2 10 9.8 9.6 9.4 9.2 9 8.8 8.6 8.4 8.2 8 7.8 7.6 7.4 7.2 7 6.8 6.6 6.4 6.2 6 5.8 5.6 5.4 5.2 5 4.8 4.6 4.4 4.2 4 3.8 3.6 3.4 3.2 3 2.8 2.6 2.4 2.2 2 1.8 1.6 1.4 1.2 M -1.6,2.8 0,1.2 1.6,2.8"
       stroke="#000000"
       stroke-width="0.4"
       stroke-linecap="round"
       stroke-linejoin="round"
       fill="none"
       id="path1-2"
       sodipodi:nodetypes="ccccsscccccccsccssccccccccccccccccccccccccccccccccccccccccccccccccccccccccccccccccccccccccccccccccccccccccccccccccccccccccccccccccsssccccccccccccccccccccsccssccccccccccccccccccccccccccccccccccccccccccccccccccccccccccccssccccccccccccccccccccccccccccccccccccccccccccccccccccccccccccccccccccccccccccccccccccccccccccccccccccccccccccccccccccccccccccccccccccccccccccccccccccccccccccccccccccccccccccccccccccccccccccccccccccccccccccccccccccccccccccccccccccccccccccccccccccccccccssscssccccccsccsssccccccccccccccccccccccccccccccccccccccccccccccccccccccccccccccccccccccccccccccccccccccccccccccccccccccccccccccccccccccccssccccccccccccccccccccccccccccccccccccccccccccccccccccccccccccccccccccccccccccccccccccccccccccccccccccccccccccccccccccccccccccccccccccccccccccccccccccccccccsscccccccccccccccccccccccccccccccccccccccccccccccsccsscccccccccccccccccccccccccccccccccccccccccccccccccccccccccccccccccccccccccccccccccccccccccccccccccccccccccc" /><circle
       r="0.40000001"
       cy="2"
       cx="10.5"
       style="fill:#000000"
       id="circle1-5" /><circle
       r="0.40000001"
       cy="-14.1"
       cx="28.5"
       style="fill:#000000"
       id="circle2-1" /><circle
       r="0.40000001"
       cy="-14"
       cx="21.299999"
       style="fill:#000000"
       id="circle3-1" /><circle
       r="0.40000001"
       cy="-3.5999999"
       cx="24.299999"
       style="fill:#000000"
       id="circle4-0" /><circle
       r="0.40000001"
       cy="25.799999"
       cx="15.4"
       style="fill:#000000"
       id="circle5-2" /></g></svg>
