<svg width="420" height="600" viewBox="0 0 420 600" fill="none" xmlns="http://www.w3.org/2000/svg">
<rect width="420" height="600" fill="#1E1E1E"/>
<g clip-path="url(#clip0_33_2)">
<rect width="420" height="600" fill="black"/>
<path fill-rule="evenodd" clip-rule="evenodd" d="M280 400H320V420H280V400ZM360 440H380V460V480H360V460V440Z" fill="#D9D9D9"/>
<path d="M360 440V420H380H390C395.523 420 400 424.477 400 430V450C400 455.523 395.523 460 390 460H380V440H360Z" fill="#D9D9D9"/>
<path d="M340 450V440V420H360V440V460H350C344.477 460 340 455.523 340 450Z" fill="#D9D9D9"/>
<path d="M320 400V390C320 384.477 324.477 380 330 380H350C355.523 380 360 384.477 360 390V400H340V420V440H330C324.477 440 320 435.523 320 430V420V400Z" fill="#D9D9D9"/>
<path d="M340 400H360V420H340V400Z" fill="#D9D9D9"/>
<path d="M380 420H360V400V390C360 384.477 364.477 380 370 380H380V370C380 364.477 384.477 360 390 360H410C415.523 360 420 364.477 420 370V390C420 395.523 415.523 400 410 400H400H380V420Z" fill="#D9D9D9"/>
<path d="M380 420V400H400V410C400 415.523 395.523 420 390 420H380Z" fill="#D9D9D9"/>
<path d="M320 400V390C320 384.477 324.477 380 330 380H350C355.523 380 360 384.477 360 390M320 400H280V420H320M320 400V420M320 420V430C320 435.523 324.477 440 330 440H340M340 440V450C340 455.523 344.477 460 350 460H360M340 440V420M360 460V480H380V460M360 460V440M360 400H340V420M360 400V420M360 400V390M340 420H360M360 420V440M360 420H380M360 440H380V460M380 420V400H400M380 420H390M390 420C395.523 420 400 424.477 400 430V450C400 455.523 395.523 460 390 460H380M390 420C395.523 420 400 415.523 400 410V400M360 390C360 384.477 364.477 380 370 380H380M400 400H410C415.523 400 420 395.523 420 390V370C420 364.477 415.523 360 410 360H390C384.477 360 380 364.477 380 370V380M380 380H390H400" stroke="black" stroke-width="2"/>
<path d="M160 260H130C124.477 260 120 255.523 120 250V240V205.5C120 202.739 122.239 200.5 125 200.5H175C177.761 200.5 180 202.739 180 205.5V220.5H140V240H160V260Z" fill="#D9D9D9"/>
<path d="M160 280V260V240H180V260V280H160Z" fill="#D9D9D9"/>
<path d="M220 260H180V240H208.5H220V260Z" fill="#D9D9D9"/>
<path d="M100 190C100 184.477 104.477 180 110 180H190C195.523 180 200 184.477 200 190V220.5V230C200 235.523 195.523 240 190 240H180H160H140V220.5H180V205.5C180 202.739 177.761 200.5 175 200.5H125C122.239 200.5 120 202.739 120 205.5V240H110C104.477 240 100 235.523 100 230V190Z" fill="#D9D9D9"/>
<path d="M160 260H130C124.477 260 120 255.523 120 250V240M160 260V280H180V260M160 260V240M180 260H220V240H208.5H180M180 260V240M120 240H110C104.477 240 100 235.523 100 230V190C100 184.477 104.477 180 110 180H190C195.523 180 200 184.477 200 190V220.5V230C200 235.523 195.523 240 190 240H180M120 240V205.5C120 202.739 122.239 200.5 125 200.5H175C177.761 200.5 180 202.739 180 205.5V220.5H140V240M180 240H140M180 240H160M160 240H140" stroke="black" stroke-width="2"/>
<rect x="200" y="219" width="20" height="58" fill="#D9D9D9" stroke="black" stroke-width="2"/>
<rect x="400" y="460" width="20" height="60" transform="rotate(90 400 460)" fill="#D9D9D9" stroke="black" stroke-width="2"/>
<rect x="251" y="520" width="20" height="211" transform="rotate(90 251 520)" fill="#D9D9D9" stroke="black" stroke-width="2"/>
<rect x="160" y="540" width="20" height="120" transform="rotate(90 160 540)" fill="#D9D9D9" stroke="black" stroke-width="2"/>
<path d="M320 80H400V270C400 275.523 395.523 280 390 280H309V260H380V100H310C304.477 100 300 95.5228 300 90V-3H320V80Z" fill="#D9D9D9" stroke="black" stroke-width="2"/>
<path d="M220 30C220 24.4772 224.477 20 230 20H240H275C277.761 20 280 22.2386 280 25V40H260H240H220V30Z" fill="#D9D9D9"/>
<path fill-rule="evenodd" clip-rule="evenodd" d="M260 80.5L275.125 80.1219C277.837 80.0541 280 77.8362 280 75.1234V60H260H240H220V75.5C220 78.2614 222.239 80.5 225 80.5H240H260Z" fill="#D9D9D9"/>
<path d="M280 75.1234C280 77.8362 277.837 80.0541 275.125 80.1219L260 80.5H240H225C222.239 80.5 220 78.2614 220 75.5V60H240H260H280V75.1234Z" fill="#D9D9D9"/>
<path d="M300 90C300 95.5228 295.523 100 290 100H260V80.5L275.125 80.1219C277.837 80.0541 280 77.8362 280 75.1234V60V40V25C280 22.2386 277.761 20 275 20H240V10C240 4.47715 244.477 0 250 0H290C295.523 0 300 4.47715 300 10V40V60V90Z" fill="#D9D9D9"/>
<path d="M240 100V80.5H260V100H240Z" fill="#D9D9D9"/>
<path d="M200 50C200 44.4772 204.477 40 210 40H220H240V60H220V75.5C220 78.2614 222.239 80.5 225 80.5H240V100H210C204.477 100 200 95.5228 200 90V50Z" fill="#D9D9D9"/>
<path d="M240 60V40H260V60H240Z" fill="#D9D9D9"/>
<path d="M280 40V60H260V40H280Z" fill="#D9D9D9"/>
<path d="M240 20H230C224.477 20 220 24.4772 220 30V40M240 20V10C240 4.47715 244.477 0 250 0H290C295.523 0 300 4.47715 300 10V40V60V90C300 95.5228 295.523 100 290 100H260M240 20H275C277.761 20 280 22.2386 280 25V40M220 40H210C204.477 40 200 44.4772 200 50V90C200 95.5228 204.477 100 210 100H240M220 40H240M240 100H260M240 100V80.5M260 100V80.5M260 80.5L275.125 80.1219C277.837 80.0541 280 77.8362 280 75.1234V60M260 80.5H240M240 80.5H225C222.239 80.5 220 78.2614 220 75.5V60H240M280 60V40M280 60H260M280 40H260M240 40V60M240 40H260M240 60H260M260 40V60" stroke="black" stroke-width="2"/>
<path d="M220 110C220 104.477 224.477 100 230 100H240H260H270C275.523 100 280 104.477 280 110V120H260V130C260 135.523 255.523 140 250 140H230C224.477 140 220 135.523 220 130V110Z" fill="#D9D9D9"/>
<path d="M260 120H280V110C280 104.477 275.523 100 270 100H260H240H230C224.477 100 220 104.477 220 110V130C220 135.523 224.477 140 230 140H250C255.523 140 260 135.523 260 130V120ZM260 120H240" stroke="black" stroke-width="2"/>
<path fill-rule="evenodd" clip-rule="evenodd" d="M360 220V240H380V220H360Z" fill="#D9D9D9"/>
<path d="M390 220C395.523 220 400 215.523 400 210V200H360V180H340V200V210C340 215.523 344.477 220 350 220H360H380H390Z" fill="#D9D9D9"/>
<path d="M340 180H360H400V165C400 162.239 397.761 160 395 160H320V140H360V125.5C360 122.739 357.761 120.5 355 120.5H305C302.239 120.5 300 122.739 300 125.5V140V160V175C300 177.761 302.239 180 305 180H340Z" fill="#D9D9D9"/>
<path d="M260 150C260 155.523 264.477 160 270 160H280H300V140H280V120H260V140V150Z" fill="#D9D9D9"/>
<path d="M380 110C380 104.477 375.523 100 370 100H290C284.477 100 280 104.477 280 110V120V140H300V125.5C300 122.739 302.239 120.5 305 120.5H355C357.761 120.5 360 122.739 360 125.5V140H380V110Z" fill="#D9D9D9"/>
<path d="M420 150C420 144.477 415.523 140 410 140H380H360H320V160H395C397.761 160 400 162.239 400 165V180H360V200H400H410C415.523 200 420 195.523 420 190V150Z" fill="#D9D9D9"/>
<path d="M280 190C280 195.523 284.477 200 290 200H340V180H305C302.239 180 300 177.761 300 175V160H280V190Z" fill="#D9D9D9"/>
<path d="M380 140H410C415.523 140 420 144.477 420 150V190C420 195.523 415.523 200 410 200H400M380 140V110C380 104.477 375.523 100 370 100H290C284.477 100 280 104.477 280 110V120M380 140H360M400 200V210C400 215.523 395.523 220 390 220H380M400 200H360V180M380 220V240H360V220M380 220H360M360 220H350C344.477 220 340 215.523 340 210V200M340 200H290C284.477 200 280 195.523 280 190V160M340 200V180M280 160H270C264.477 160 260 155.523 260 150V140V120H280M280 160H300M340 180H360M340 180H305C302.239 180 300 177.761 300 175V160M360 180H400V165C400 162.239 397.761 160 395 160H320V140H360M360 140V125.5C360 122.739 357.761 120.5 355 120.5H305C302.239 120.5 300 122.739 300 125.5V140M300 140H280V120M300 140V160" stroke="black" stroke-width="2"/>
<path d="M320 250C320 255.523 324.477 260 330 260H340V280H360V260H370C375.523 260 380 255.523 380 250V240H360V230C360 224.477 355.523 220 350 220H340V210C340 204.477 335.523 200 330 200H310C304.477 200 300 204.477 300 210V230C300 235.523 304.477 240 310 240H320V250Z" fill="#D9D9D9"/>
<path d="M340 260H330C324.477 260 320 255.523 320 250V240M340 260V280H360V260M340 260H360M360 260H370C375.523 260 380 255.523 380 250V240H360M360 240V230C360 224.477 355.523 220 350 220H340M360 240H320M340 220V210C340 204.477 335.523 200 330 200H310C304.477 200 300 204.477 300 210V230C300 235.523 304.477 240 310 240H320M340 220H320" stroke="black" stroke-width="2"/>
<rect x="361" y="232" width="18" height="18" fill="#D9D9D9"/>
<rect x="261" y="110" width="18" height="18" fill="#D9D9D9"/>
<path d="M350 80H360V60V40V20V10C360 4.47715 355.523 0 350 0H330C324.477 0 320 4.47715 320 10V30C320 35.5228 324.477 40 330 40H340V60V70C340 75.5228 344.477 80 350 80Z" fill="#D9D9D9"/>
<path d="M410 60H400V25C400 22.2386 397.761 20 395 20H380V40V60V80V90C380 95.5228 384.477 100 390 100C390 100 404.477 100 410 100C415.523 100 420 95.5228 420 90V70C420 64.4772 415.523 60 410 60Z" fill="#D9D9D9"/>
<path d="M360 60H380V40H360V60Z" fill="#D9D9D9"/>
<path d="M360 80V99L370 92L380 99V90V80V60H360V80Z" fill="#D9D9D9"/>
<path d="M400 60H410C415.523 60 420 55.5228 420 50V10C420 4.47715 415.523 0 410 0H370C364.477 0 360 4.47715 360 10V20V40H380V20H395C397.761 20 400 22.2386 400 25V60Z" fill="#D9D9D9"/>
<path d="M320 60H340V40H330H320V60Z" fill="#D9D9D9"/>
<path d="M400 60H410M400 60V80M400 60V25C400 22.2386 397.761 20 395 20H380V40M380 80V60M380 80V90M380 80V99M360 80V99L370 92L380 99M360 80H350C344.477 80 340 75.5228 340 70V60M360 80V60M340 60H320V40H330M340 60V40M340 40H330M340 40H360M340 20H360M360 20V10M360 20V40M360 60H380M360 60V40M380 60V40M360 40H380M380 99V90M410 60C415.523 60 420 64.4772 420 70V90C420 95.5228 415.523 100 410 100C404.477 100 390 100 390 100C384.477 100 380 95.5228 380 90M410 60C415.523 60 420 55.5228 420 50V10C420 4.47715 415.523 0 410 0H370C364.477 0 360 4.47715 360 10M330 40C324.477 40 320 35.5228 320 30V10C320 4.47715 324.477 0 330 0H350C355.523 0 360 4.47715 360 10" stroke="black" stroke-width="2"/>
<path fill-rule="evenodd" clip-rule="evenodd" d="M400 340V350C400 355.523 395.523 360 390 360H380H345C342.239 360 340 357.761 340 355V340H360H380V300H395C397.761 300 400 302.239 400 305V340ZM360 290V271V260H340V300H320V310C320 315.523 324.477 320 330 320H360V300V290Z" fill="#D9D9D9"/>
<path d="M360 340H380V300H395C397.761 300 400 302.239 400 305V340H410C415.523 340 420 335.523 420 330V290C420 284.477 415.523 280 410 280H370C364.477 280 360 284.477 360 290V300V320V340Z" fill="#D9D9D9"/>
<path d="M340 340H360V320H330C324.477 320 320 324.477 320 330V370C320 375.523 324.477 380 330 380H370C375.523 380 380 375.523 380 370V360H345C342.239 360 340 357.761 340 355V340Z" fill="#D9D9D9"/>
<path d="M400 340V305C400 302.239 397.761 300 395 300H380V340H360M400 340V350M400 340H410M380 360H345C342.239 360 340 357.761 340 355V340H360M380 360H390M380 360V370M340 300H320V310C320 315.523 324.477 320 330 320M340 300V260H360V271V290M340 300H360M360 340V320M360 300V320M360 300V290M360 320H330M400 350C400 355.523 395.523 360 390 360M400 350C400 355.523 395.523 360 390 360M380 370C380 375.523 375.523 380 370 380M380 370C380 375.523 375.523 380 370 380M370 380H330M330 380C324.477 380 320 375.523 320 370M330 380C324.477 380 320 375.523 320 370M320 370V330C320 324.477 324.477 320 330 320M360 290C360 284.477 364.477 280 370 280M360 290C360 284.477 364.477 280 370 280M370 280H410M410 280C415.523 280 420 284.477 420 290M410 280C415.523 280 420 284.477 420 290M420 290V330M420 330C420 335.523 415.523 340 410 340M420 330C420 335.523 415.523 340 410 340" stroke="black" stroke-width="2"/>
<path d="M310 320H270C264.477 320 260 315.523 260 310V270C260 264.477 264.477 260 270 260H310C315.523 260 320 264.477 320 270V310C320 315.523 315.523 320 310 320Z" fill="#D9D9D9" stroke="black" stroke-width="2"/>
<path d="M340 300V290C340 284.477 335.523 280 330 280H320V300H340Z" fill="#D9D9D9"/>
<path d="M285 300H300V219H280V295V300H285Z" fill="#D9D9D9"/>
<path d="M300 320V330C300 335.523 295.523 340 290 340H250C244.477 340 240 335.523 240 330V290C240 284.477 244.477 280 250 280H260V310C260 315.523 264.477 320 270 320H300Z" fill="#D9D9D9"/>
<path d="M340 300V290C340 284.477 335.523 280 330 280H320V300H340Z" stroke="black" stroke-width="2"/>
<path d="M285 300H300V219H280V295V300H285Z" stroke="black" stroke-width="2"/>
<path d="M300 320V330C300 335.523 295.523 340 290 340H250C244.477 340 240 335.523 240 330V290C240 284.477 244.477 280 250 280H260V310C260 315.523 264.477 320 270 320H300Z" stroke="black" stroke-width="2"/>
<rect width="18" height="18" transform="matrix(0 1 1 0 321 290)" fill="#D9D9D9"/>
<path d="M280 200V170C280 164.477 275.523 160 270 160H260H225.5C222.739 160 220.5 162.239 220.5 165V215C220.5 217.761 222.739 220 225.5 220H240.5V180H260V200H280Z" fill="#D9D9D9"/>
<path d="M300 210C300 204.477 295.523 200 290 200H280H260V220H280H300V210Z" fill="#D9D9D9"/>
<path d="M270 260C275.523 260 280 255.523 280 250V220H260V242V248.5V260H270Z" fill="#D9D9D9"/>
<path d="M210 140C204.477 140 200 144.477 200 150V230C200 235.523 204.477 240 210 240H240.5H250C255.523 240 260 235.523 260 230V220V200V180H240.5V220H225.5C222.739 220 220.5 217.761 220.5 215V165C220.5 162.239 222.739 160 225.5 160H260V150C260 144.477 255.523 140 250 140H210Z" fill="#D9D9D9"/>
<path d="M280 200V170C280 164.477 275.523 160 270 160H260M280 200H290C295.523 200 300 204.477 300 210V220H280M280 200H260M280 220V250C280 255.523 275.523 260 270 260H260V248.5V242V220M280 220H260M260 160V150C260 144.477 255.523 140 250 140H210C204.477 140 200 144.477 200 150V230C200 235.523 204.477 240 210 240H240.5H250C255.523 240 260 235.523 260 230V220M260 160H225.5C222.739 160 220.5 162.239 220.5 165V215C220.5 217.761 222.739 220 225.5 220H240.5V180H260M260 220V180M260 220V200M260 200V180" stroke="black" stroke-width="2"/>
<rect width="18" height="18" transform="matrix(0 1 1 0 281 211)" fill="#D9D9D9"/>
<path d="M230 300C235.523 300 240 295.523 240 290V280H250C255.523 280 260 275.523 260 270V260H240V250C240 244.477 235.523 240 230 240H220V260H210C204.477 260 200 264.477 200 270V280H190C184.477 280 180 284.477 180 290V310C180 315.523 184.477 320 190 320H210C215.523 320 220 315.523 220 310V300H230Z" fill="#D9D9D9"/>
<path d="M240 280V290C240 295.523 235.523 300 230 300H220M240 280H250C255.523 280 260 275.523 260 270V260H240M240 280V260M240 260V250C240 244.477 235.523 240 230 240H220V260M220 260H210C204.477 260 200 264.477 200 270V280M220 260V300M200 280H190C184.477 280 180 284.477 180 290V310C180 315.523 184.477 320 190 320H210C215.523 320 220 315.523 220 310V300M200 280V300" stroke="black" stroke-width="2"/>
<path d="M240 250C240 244.477 244.477 240 250 240H260V260H240V250Z" fill="#D9D9D9" stroke="black" stroke-width="2"/>
<path d="M150 400C144.477 400 140 395.523 140 390V380V345C140 342.239 142.239 340 145 340H160V360V380V400H150Z" fill="#D9D9D9"/>
<path fill-rule="evenodd" clip-rule="evenodd" d="M160 400V410C160 415.523 164.477 420 170 420H210C215.523 420 220 415.523 220 410V380H240V360H220V330C220 324.477 215.523 320 210 320H180V280H160V320H130C124.477 320 120 324.477 120 330V370C120 375.523 124.477 380 130 380H140V345C140 342.239 142.239 340 145 340H160V360V380V400ZM200.5 360L200.122 344.875C200.054 342.163 197.836 340 195.123 340H180V360V380V400H195.5C198.261 400 200.5 397.761 200.5 395V380V360Z" fill="#D9D9D9"/>
<path d="M195.123 340C197.836 340 200.054 342.163 200.122 344.875L200.5 360V380V395C200.5 397.761 198.261 400 195.5 400H180V380V360V340H195.123Z" fill="#D9D9D9"/>
<path d="M140 380V390C140 395.523 144.477 400 150 400H160M140 380H130C124.477 380 120 375.523 120 370V330C120 324.477 124.477 320 130 320H160M140 380V345C140 342.239 142.239 340 145 340H160M160 400V410C160 415.523 164.477 420 170 420H210C215.523 420 220 415.523 220 410V380M160 400V380M220 380H240V360H220M220 380H200.5M220 360V330C220 324.477 215.523 320 210 320H180M220 360H200.5M180 320V280H160V320M180 320H160M200.5 360L200.122 344.875C200.054 342.163 197.836 340 195.123 340H180M200.5 360V380M200.5 380V395C200.5 397.761 198.261 400 195.5 400H180V380M180 340H160M180 340V360M160 340V360M160 380H180M160 380V360M180 380V360M160 360H180" stroke="black" stroke-width="2"/>
<path d="M260 360H270C275.523 360 280 364.477 280 370V390C280 395.523 275.523 400 270 400H260V420H240V400H230C224.477 400 220 395.523 220 390V380V360V350C220 344.477 224.477 340 230 340H250C255.523 340 260 344.477 260 350V360Z" fill="#D9D9D9"/>
<path d="M260 360H270C275.523 360 280 364.477 280 370V390C280 395.523 275.523 400 270 400H260M260 360V350C260 344.477 255.523 340 250 340H230C224.477 340 220 344.477 220 350V360M260 360V380H240M260 400V420H240V400M260 400H240M240 400H230C224.477 400 220 395.523 220 390V380M220 380V360M220 380H240M220 360H240V380" stroke="black" stroke-width="2"/>
<rect x="221" y="400" width="60" height="20" fill="#D9D9D9" stroke="black" stroke-width="2"/>
<path fill-rule="evenodd" clip-rule="evenodd" d="M380 560H410C415.523 560 420 555.523 420 550V510C420 504.477 415.523 500 410 500H400H360V520H400V535C400 537.761 397.761 540 395 540H320V560H360V574.5C360 577.261 357.761 579.5 355 579.5H305C302.239 579.5 300 577.261 300 574.5V560V540V525C300 522.239 302.239 520 305 520H340V500H290C284.477 500 280 504.477 280 510V540H260V560H280V590C280 595.523 284.477 600 290 600H370C375.523 600 380 595.523 380 590V560Z" fill="#D9D9D9"/>
<path d="M390 480C395.523 480 400 484.477 400 490V500H360V520H340V500V490C340 484.477 344.477 480 350 480H360H380H390Z" fill="#D9D9D9"/>
<path d="M340 520H360H400V535C400 537.761 397.761 540 395 540H320V560H360V574.5C360 577.261 357.761 579.5 355 579.5H305C302.239 579.5 300 577.261 300 574.5V560V540V525C300 522.239 302.239 520 305 520H340Z" fill="#D9D9D9"/>
<path d="M380 560H410C415.523 560 420 555.523 420 550V510C420 504.477 415.523 500 410 500H400M380 560V590C380 595.523 375.523 600 370 600H290C284.477 600 280 595.523 280 590V560M380 560H360M400 500V490C400 484.477 395.523 480 390 480H380H360H350C344.477 480 340 484.477 340 490V500M400 500H360V520M340 500H290C284.477 500 280 504.477 280 510V540M340 500V520M280 540H260V560H280M280 540H300M280 560H300M340 520H360M340 520H305C302.239 520 300 522.239 300 525V540M360 520H400V535C400 537.761 397.761 540 395 540H320V560H360M360 560V574.5C360 577.261 357.761 579.5 355 579.5H305C302.239 579.5 300 577.261 300 574.5V560M300 560V540" stroke="black" stroke-width="2"/>
<path fill-rule="evenodd" clip-rule="evenodd" d="M80 420V390C80 384.477 84.4772 380 90 380H130C135.523 380 140 384.477 140 390V400V440H120V400H105C102.239 400 100 402.239 100 405V480H80V440H65.5C62.7386 440 60.5 442.239 60.5 445V495C60.5 497.761 62.7386 500 65.5 500H80H100H115C117.761 500 120 497.761 120 495V460H140V510C140 515.523 135.523 520 130 520H100V540H80V520H50C44.4772 520 40 515.523 40 510V430C40 424.477 44.4772 420 50 420H80Z" fill="#D9D9D9"/>
<path d="M160 410C160 404.477 155.523 400 150 400H140V440H120V460H140H150C155.523 460 160 455.523 160 450V440V420V410Z" fill="#D9D9D9"/>
<path d="M120 460V440V400H105C102.239 400 100 402.239 100 405V480H80V440H65.5C62.7386 440 60.5 442.239 60.5 445V495C60.5 497.761 62.7386 500 65.5 500H80H100H115C117.761 500 120 497.761 120 495V460Z" fill="#D9D9D9"/>
<path d="M80 420V390C80 384.477 84.4772 380 90 380H130C135.523 380 140 384.477 140 390V400M80 420H50C44.4772 420 40 424.477 40 430V510C40 515.523 44.4772 520 50 520H80M80 420V440M140 400H150C155.523 400 160 404.477 160 410V420V440V450C160 455.523 155.523 460 150 460H140M140 400V440H120M140 460V510C140 515.523 135.523 520 130 520H100M140 460H120M100 520V540H80V520M100 520V500M80 520V500M120 460V440M120 460V495C120 497.761 117.761 500 115 500H100M120 440V400H105C102.239 400 100 402.239 100 405V480H80V440M80 440H65.5C62.7386 440 60.5 442.239 60.5 445V495C60.5 497.761 62.7386 500 65.5 500H80M80 500H100" stroke="black" stroke-width="2"/>
<path d="M240 550C240 555.523 244.477 560 250 560H260V580H240V590C240 595.523 244.477 600 250 600H260H270C275.523 600 280 595.523 280 590V560H320V540H280V530C280 524.477 275.523 520 270 520H260V510C260 504.477 255.523 500 250 500H230C224.477 500 220 504.477 220 510V530C220 535.523 224.477 540 230 540H240V550Z" fill="#D9D9D9"/>
<path d="M260 560H250C244.477 560 240 555.523 240 550V540M260 560H280M260 560V580H240V590C240 595.523 244.477 600 250 600H260H270C275.523 600 280 595.523 280 590V560M280 560H320V540H280M280 540V530C280 524.477 275.523 520 270 520H260M280 540H240M260 520V510C260 504.477 255.523 500 250 500H230C224.477 500 220 504.477 220 510V530C220 535.523 224.477 540 230 540H240M260 520H240" stroke="black" stroke-width="2"/>
<rect width="20" height="20" transform="matrix(-1 0 0 1 280 560)" fill="#D9D9D9" stroke="black" stroke-width="2"/>
<rect width="18" height="18" transform="matrix(-1 0 0 1 321 541)" fill="#D9D9D9"/>
<path d="M230 540C235.523 540 240 544.477 240 550V560H250C255.523 560 260 564.477 260 570V580H240V590C240 595.523 235.523 600 230 600H220H190C184.477 600 180 595.523 180 590V580H220H210C204.477 580 200 575.523 200 570V560H190C184.477 560 180 555.523 180 550V530C180 524.477 184.477 520 190 520H210C215.523 520 220 524.477 220 530V540H230Z" fill="#D9D9D9"/>
<path d="M240 560V550C240 544.477 235.523 540 230 540H220M240 560H250C255.523 560 260 564.477 260 570V580H240M240 560V580M240 580V590C240 595.523 235.523 600 230 600H220H190C184.477 600 180 595.523 180 590V580H220M220 580H210C204.477 580 200 575.523 200 570V560M220 580V540M200 560H190C184.477 560 180 555.523 180 550V530C180 524.477 184.477 520 190 520H210C215.523 520 220 524.477 220 530V540M200 560V540" stroke="black" stroke-width="2"/>
<path d="M140 570C140 564.477 144.477 560 150 560H160V540H180V560H190C195.523 560 200 564.477 200 570V580H180V590C180 595.523 175.523 600 170 600H150C144.477 600 140 595.523 140 590V570Z" fill="#D9D9D9"/>
<path d="M160 560H150C144.477 560 140 564.477 140 570V590C140 595.523 144.477 600 150 600H170C175.523 600 180 595.523 180 590V580M160 560V540H180V560M160 560H180M180 560H190C195.523 560 200 564.477 200 570V580H180M180 580H160" stroke="black" stroke-width="2"/>
<path d="M140 510V470C140 464.477 144.477 460 150 460H190C195.523 460 200 464.477 200 470V510C200 515.523 195.523 520 190 520H150C144.477 520 140 515.523 140 510Z" fill="#D9D9D9" stroke="black" stroke-width="2"/>
<path d="M165 480C162.239 480 160 482.239 160 485V500H220V480H165Z" fill="#D9D9D9"/>
<path d="M160 520H180M165 480C162.239 480 160 482.239 160 485V500H220V480H165Z" stroke="black" stroke-width="2"/>
<path d="M200 470C200 475.523 204.477 480 210 480H220V500H230C235.523 500 240 495.523 240 490V480H310C315.523 480 320 475.523 320 470V460H240V450C240 444.477 235.523 440 230 440H210C204.477 440 200 444.477 200 450V470Z" fill="#D9D9D9"/>
<path d="M220 480H210C204.477 480 200 475.523 200 470V450C200 444.477 204.477 440 210 440H230C235.523 440 240 444.477 240 450V460M220 480V500H230C235.523 500 240 495.523 240 490V480M220 480H240M240 480H310C315.523 480 320 475.523 320 470V460H240M240 460H220" stroke="black" stroke-width="2"/>
<path d="M90 380C95.5228 380 100 375.523 100 370V360V325C100 322.239 97.7614 320 95 320H80V340V360V380H90Z" fill="#D9D9D9"/>
<path fill-rule="evenodd" clip-rule="evenodd" d="M80 380V390C80 395.523 75.5228 400 70 400H30C24.4772 400 20 395.523 20 390V360H0V350C0 344.477 4.47715 340 10 340H20V310C20 304.477 24.4772 300 30 300H60V270C60 264.477 64.4772 260 70 260H80V300H110C115.523 300 120 304.477 120 310V350C120 355.523 115.523 360 110 360H100V325C100 322.239 97.7614 320 95 320H80V340V360V380ZM39.5 340L39.8781 324.875C39.9459 322.163 42.1638 320 44.8766 320H60V340V360V380H44.5C41.7386 380 39.5 377.761 39.5 375V360V340Z" fill="#D9D9D9"/>
<path d="M44.8766 320C42.1638 320 39.9459 322.163 39.8781 324.875L39.5 340V360V375C39.5 377.761 41.7386 380 44.5 380H60V360V340V320H44.8766Z" fill="#D9D9D9"/>
<path d="M100 360V370C100 375.523 95.5228 380 90 380H80M100 360H110C115.523 360 120 355.523 120 350V310C120 304.477 115.523 300 110 300H80M100 360V325C100 322.239 97.7614 320 95 320H80M80 380V390C80 395.523 75.5228 400 70 400H30C24.4772 400 20 395.523 20 390V360M80 380V360M20 360H0V350C0 344.477 4.47715 340 10 340H20M20 360H39.5M20 340V310C20 304.477 24.4772 300 30 300H60M20 340H39.5M60 300V270C60 264.477 64.4772 260 70 260H80V300M60 300H80M39.5 340L39.8781 324.875C39.9459 322.163 42.1638 320 44.8766 320H60M39.5 340V360M39.5 360V375C39.5 377.761 41.7386 380 44.5 380H60V360M60 320H80M60 320V340M80 320V340M80 360H60M80 360V340M60 360V340M80 340H60" stroke="black" stroke-width="2"/>
<path d="M110 300C104.477 300 100 295.523 100 290V280H80V260H100V240H110C115.523 240 120 244.477 120 250V260H130C135.523 260 140 264.477 140 270V280H150C155.523 280 160 284.477 160 290V310C160 315.523 155.523 320 150 320H130C124.477 320 120 315.523 120 310V300H110Z" fill="#D9D9D9"/>
<path d="M100 280V290C100 295.523 104.477 300 110 300H120M100 280H80V260H100M100 280V260M100 260V240H110C115.523 240 120 244.477 120 250V260M120 260H130C135.523 260 140 264.477 140 270V280M120 260V300M140 280H150C155.523 280 160 284.477 160 290V310C160 315.523 155.523 320 150 320H130C124.477 320 120 315.523 120 310V300M140 280V300" stroke="black" stroke-width="2"/>
<path d="M130 160C135.523 160 140 155.523 140 150V140H120H100V160H130Z" fill="#D9D9D9"/>
<path d="M140 110C140 104.477 135.523 100 130 100H120H85C82.2386 100 80 102.239 80 105V120H100H120H140V110Z" fill="#D9D9D9"/>
<path d="M120 90C120 84.4772 115.523 80 110 80H70C64.4772 80 60 84.4772 60 90V130C60 135.523 64.4772 140 70 140H80H100V120H80V105C80 102.239 82.2386 100 85 100H120V90Z" fill="#D9D9D9"/>
<path d="M100 120V140H120V120H100Z" fill="#D9D9D9"/>
<path d="M160 130C160 124.477 155.523 120 150 120H140H120V140H140V150C140 155.523 135.523 160 130 160H100V170C100 175.523 104.477 180 110 180H150C155.523 180 160 175.523 160 170V130Z" fill="#D9D9D9"/>
<path d="M80 250C80 255.523 84.4772 260 90 260H100V191.5V160V140H80V160V250Z" fill="#D9D9D9"/>
<path d="M40 160H80V140H50.5H50C44.4772 140 40 144.477 40 150V160Z" fill="#D9D9D9"/>
<path d="M120 100H130C135.523 100 140 104.477 140 110V120M120 100V90C120 84.4772 115.523 80 110 80H70C64.4772 80 60 84.4772 60 90V130C60 135.523 64.4772 140 70 140H80M120 100H85C82.2386 100 80 102.239 80 105V120H100M140 120H150C155.523 120 160 124.477 160 130V170C160 175.523 155.523 180 150 180H110C104.477 180 100 175.523 100 170V160M140 120H120M80 160V250C80 255.523 84.4772 260 90 260H100V191.5V160M80 160H40V150C40 144.477 44.4772 140 50 140H50.5H80M80 160V140M80 140H100M100 140V160M100 140V120M100 140H120M100 160H130C135.523 160 140 155.523 140 150V140H120M100 120H120M120 120V140" stroke="black" stroke-width="2"/>
<path d="M60 260V270C60 275.523 55.5228 280 50 280H30C24.4772 280 20 275.523 20 270V260H10C4.47715 260 0 255.523 0 250V240H20V230C20 224.477 24.4772 220 30 220H40V160H60V220H70C75.5228 220 80 224.477 80 230V250C80 255.523 75.5228 260 70 260H60Z" fill="#D9D9D9"/>
<path d="M60 260V270C60 275.523 55.5228 280 50 280H30C24.4772 280 20 275.523 20 270V260M60 260H70C75.5228 260 80 255.523 80 250V230C80 224.477 75.5228 220 70 220H60M60 260H40V240M20 260H10C4.47715 260 0 255.523 0 250V240H20M20 260V240M20 240V230C20 224.477 24.4772 220 30 220H40M40 220V160H60V220M40 220V240M60 220V240H40" stroke="black" stroke-width="2"/>
<path d="M60 90C60 95.5228 55.5228 100 50 100H40V210C40 215.523 35.5228 220 30 220H20V100H10C4.47715 100 0 95.5228 0 90V80H20V70C20 64.4772 24.4772 60 30 60H40V50C40 44.4772 44.4772 40 50 40H70C75.5228 40 80 44.4772 80 50V70C80 75.5228 75.5228 80 70 80H60V90Z" fill="#D9D9D9"/>
<path d="M40 100H50C55.5228 100 60 95.5228 60 90V80M40 100V210C40 215.523 35.5228 220 30 220H20V100M40 100H20M20 100H10C4.47715 100 0 95.5228 0 90V80H20M20 80V70C20 64.4772 24.4772 60 30 60H40M20 80H60M40 60V50C40 44.4772 44.4772 40 50 40H70C75.5228 40 80 44.4772 80 50V70C80 75.5228 75.5228 80 70 80H60M40 60H60" stroke="black" stroke-width="2"/>
<path d="M0 30C0 35.5228 4.47715 40 10 40H20V60H30C35.5228 60 40 55.5228 40 50V40H211L219 30L211 20H40V10C40 4.47715 35.5228 0 30 0H10C4.47715 0 0 4.47715 0 10V30Z" fill="#D9D9D9"/>
<path d="M20 40H10C4.47715 40 0 35.5228 0 30V10C0 4.47715 4.47715 0 10 0H30C35.5228 0 40 4.47715 40 10V20M20 40V60H30C35.5228 60 40 55.5228 40 50V40M20 40H40M40 40H211L219 30L211 20H40M40 20H20" stroke="black" stroke-width="2"/>
<path d="M0 210C0 204.477 4.47715 200 10 200H20V240H0V210Z" fill="#D9D9D9" stroke="black" stroke-width="2"/>
<path d="M0 50C0 44.4772 4.47715 40 10 40H20V80H0V50Z" fill="#D9D9D9" stroke="black" stroke-width="2"/>
<path d="M310 420C315.523 420 320 424.477 320 430V460H300V440H160V420H310Z" fill="#D9D9D9" stroke="black" stroke-width="2"/>
<path d="M100 590C100 595.523 95.5228 600 90 600H10C4.47716 600 0 595.523 0 590V360H20V580H80V560H100V590Z" fill="#D9D9D9" stroke="black" stroke-width="2"/>
<rect x="241" y="250" width="18" height="18" fill="#D9D9D9"/>
<rect x="41" y="151" width="18" height="18" fill="#D9D9D9"/>
<rect x="1" y="353" width="18" height="18" fill="#D9D9D9"/>
<rect width="18" height="18" transform="matrix(-1 0 0 1 259 571)" fill="#D9D9D9"/>
<rect x="250" y="241" width="18" height="18" fill="#D9D9D9"/>
<rect x="161" y="271" width="18" height="18" fill="#D9D9D9"/>
<rect x="301" y="451" width="18" height="18" fill="#D9D9D9"/>
<rect x="210" y="361" width="18" height="18" fill="#D9D9D9"/>
<rect x="181" y="573" width="18" height="18" fill="#D9D9D9"/>
<rect x="72" y="261" width="18" height="18" fill="#D9D9D9"/>
<rect x="210" y="481" width="18" height="18" fill="#D9D9D9"/>
<rect x="1" y="228" width="18" height="18" fill="#D9D9D9"/>
<rect x="1" y="72" width="18" height="18" fill="#D9D9D9"/>
<rect x="12" y="201" width="18" height="18" fill="#D9D9D9"/>
<rect x="12" y="41" width="18" height="18" fill="#D9D9D9"/>
<rect x="92" y="241" width="18" height="18" fill="#D9D9D9"/>
<rect x="40" width="200" height="20" rx="10" fill="#D9D9D9" stroke="black" stroke-width="2"/>
<rect x="20" y="100" width="100" height="20" rx="10" transform="rotate(90 20 100)" fill="#D9D9D9" stroke="black" stroke-width="2"/>
<path d="M20 330C20 335.523 15.5228 340 10 340C4.47715 340 0 335.523 0 330V290C0 284.477 4.47715 280 10 280H20H50C55.5228 280 60 284.477 60 290C60 295.523 55.5228 300 50 300H20V330Z" fill="#D9D9D9" stroke="black" stroke-width="2"/>
<path d="M320 450C320 444.477 324.477 440 330 440C335.523 440 340 444.477 340 450V490C340 495.523 335.523 500 330 500H320H250C244.477 500 240 495.523 240 490C240 484.477 244.477 480 250 480H320V450Z" fill="#D9D9D9" stroke="black" stroke-width="2"/>
<path d="M140 110C140 115.523 144.477 120 150 120C155.523 120 160 115.523 160 110V90C160 84.4772 155.523 80 150 80H140H130C124.477 80 120 84.4772 120 90C120 95.5228 124.477 100 130 100H140V110Z" fill="#D9D9D9" stroke="black" stroke-width="2"/>
<path d="M40 580H30C24.4772 580 20 575.523 20 570V410C20 404.477 24.4772 400 30 400H40H70C75.5228 400 80 404.477 80 410C80 415.523 75.5228 420 70 420H40V560H70C75.5228 560 80 564.477 80 570C80 575.523 75.5228 580 70 580H40Z" fill="#D9D9D9" stroke="black" stroke-width="2"/>
<rect x="60" y="100" width="40" height="20" rx="10" transform="rotate(90 60 100)" fill="#D9D9D9" stroke="black" stroke-width="2"/>
<rect x="300" y="360" width="40" height="20" rx="10" transform="rotate(180 300 360)" fill="#D9D9D9" stroke="black" stroke-width="2"/>
<rect x="200" y="460" width="40" height="20" rx="10" transform="rotate(180 200 460)" fill="#D9D9D9" stroke="black" stroke-width="2"/>
<rect x="240" y="440" width="60" height="20" rx="10" fill="#D9D9D9" stroke="black" stroke-width="2"/>
<rect x="420" y="100" width="40" height="20" rx="10" transform="rotate(90 420 100)" fill="#D9D9D9" stroke="black" stroke-width="2"/>
<rect x="220" y="100" width="40" height="20" rx="10" transform="rotate(90 220 100)" fill="#D9D9D9" stroke="black" stroke-width="2"/>
<rect x="240" y="300" width="40" height="20" rx="10" transform="rotate(90 240 300)" fill="#D9D9D9" stroke="black" stroke-width="2"/>
<rect x="420" y="400" width="100" height="20" rx="10" transform="rotate(90 420 400)" fill="#D9D9D9" stroke="black" stroke-width="2"/>
<rect x="340" y="60" width="20" height="20" rx="10" transform="rotate(90 340 60)" fill="#D9D9D9" stroke="black" stroke-width="2"/>
<rect x="320" y="240" width="20" height="20" rx="10" transform="rotate(90 320 240)" fill="#D9D9D9" stroke="black" stroke-width="2"/>
<rect x="200" y="260" width="20" height="20" rx="10" transform="rotate(90 200 260)" fill="#D9D9D9" stroke="black" stroke-width="2"/>
<rect x="160" y="260" width="20" height="20" rx="10" transform="rotate(90 160 260)" fill="#D9D9D9" stroke="black" stroke-width="2"/>
<rect x="100" y="280" width="20" height="20" rx="10" transform="rotate(90 100 280)" fill="#D9D9D9" stroke="black" stroke-width="2"/>
<rect x="20" y="260" width="20" height="20" rx="10" transform="rotate(90 20 260)" fill="#D9D9D9" stroke="black" stroke-width="2"/>
<rect x="120" y="360" width="20" height="20" rx="10" transform="rotate(90 120 360)" fill="#D9D9D9" stroke="black" stroke-width="2"/>
<rect x="220" y="500" width="20" height="20" rx="10" transform="rotate(90 220 500)" fill="#D9D9D9" stroke="black" stroke-width="2"/>
<rect x="280" y="500" width="20" height="20" rx="10" transform="rotate(90 280 500)" fill="#D9D9D9" stroke="black" stroke-width="2"/>
<rect x="420" y="340" width="20" height="20" rx="10" transform="rotate(90 420 340)" fill="#D9D9D9" stroke="black" stroke-width="2"/>
<rect x="80" y="160" width="60" height="20" rx="10" transform="rotate(90 80 160)" fill="#D9D9D9" stroke="black" stroke-width="2"/>
<rect x="420" y="200" width="80" height="20" rx="10" transform="rotate(90 420 200)" fill="#D9D9D9" stroke="black" stroke-width="2"/>
<path d="M200 170V50C200 44.4772 195.523 40 190 40H90C84.4771 40 80 44.4772 80 50V70C80 75.5228 84.4772 80 90 80H169.996C175.519 80 179.996 75.5228 179.996 70L179.993 80H169.996C164.474 80 159.996 84.4771 159.996 90L160 170C160 175.523 164.477 180 170 180H190C195.523 180 200 175.523 200 170Z" fill="#D9D9D9"/>
<path d="M169.996 80H179.993M169.996 80C175.519 80 179.996 75.5228 179.996 70M169.996 80C164.474 80 159.996 84.4771 159.996 90L160 170C160 175.523 164.477 180 170 180H190C195.523 180 200 175.523 200 170V50C200 44.4772 195.523 40 190 40H90C84.4771 40 80 44.4772 80 50V70C80 75.5228 84.4772 80 90 80H169.996ZM100.004 60H179.996V70M179.996 70L179.993 80M179.993 80L179.996 160" stroke="black" stroke-width="2"/>
<path d="M320 390C320 395.523 315.523 400 310 400H290C284.477 400 280 395.523 280 390V380V370C280 364.477 284.477 360 290 360H300V330C300 324.477 304.477 320 310 320C315.523 320 320 324.477 320 330V360V380V390Z" fill="#D9D9D9"/>
<path d="M300 380V360M300 360V330C300 324.477 304.477 320 310 320C315.523 320 320 324.477 320 330V360V380V390C320 395.523 315.523 400 310 400H290C284.477 400 280 395.523 280 390V380V370C280 364.477 284.477 360 290 360H300Z" stroke="black" stroke-width="2"/>
<path d="M140 584.615C140 593.112 133.112 600 124.615 600H115.385C106.888 600 100 593.112 100 584.615V580V575.385C100 566.888 106.888 560 115.385 560H120H124.615C133.112 560 140 566.888 140 575.385V580V584.615Z" fill="#D9D9D9"/>
<path d="M120 579V581M140 580V584.615C140 593.112 133.112 600 124.615 600H115.385C106.888 600 100 593.112 100 584.615V580V575.385C100 566.888 106.888 560 115.385 560H120H124.615C133.112 560 140 566.888 140 575.385V580Z" stroke="black" stroke-width="2"/>
<path d="M420 584.615C420 593.112 413.112 600 404.615 600H395.385C386.888 600 380 593.112 380 584.615V580V575.385C380 566.888 386.888 560 395.385 560H400H404.615C413.112 560 420 566.888 420 575.385V580V584.615Z" fill="#D9D9D9"/>
<path d="M400 579V581M420 580V584.615C420 593.112 413.112 600 404.615 600H395.385C386.888 600 380 593.112 380 584.615V580V575.385C380 566.888 386.888 560 395.385 560H400H404.615C413.112 560 420 566.888 420 575.385V580Z" stroke="black" stroke-width="2"/>
</g>
<defs>
<clipPath id="clip0_33_2">
<rect width="420" height="600" fill="white"/>
</clipPath>
</defs>
</svg>
