<?xml version="1.0" encoding="UTF-8" standalone="no"?>
<!-- Created with Inkscape (http://www.inkscape.org/) -->
<svg width="29.824163mm" height="29.280657mm" viewBox="0 0 29.824163 29.280657" version="1.1" id="svg103784" xmlns="http://www.w3.org/2000/svg" xmlns:svg="http://www.w3.org/2000/svg">
  <defs id="defs103781"/>
  <g id="layer1">
    <g id="g42656" transform="matrix(0.35277777,0,0,-0.35277777,-93.08788,51.408095)">
      <g id="g42658" transform="translate(263.87116,145.72373)">
        <g id="g42660">
          <path d="M 32.9109,-82.1374 C 20.2494,-79.6528 7.12545,-69.2219 3.13624,-58.5072 -3.74373,-40.0314 0.92771,-20.2817 14.8726,-9.21953 36.8423,8.15559 72.6299,-0.12656 81.9381,-24.8571 85.4128,-33.8922 85.407,-48.9506 81.93,-58.0439 75.1657,-75.5928 53.543,-86.1916 32.7296,-82.1374 Z m 7.4581,12.2205 c 0,7.9926 -0.2359,9.093 -1.8732,9.093 -2.4571,-0.0075 -9.8863,-2.0908 -9.8863,-2.7685 0,-0.973 4.5384,-9.4984 6.6487,-12.51 3.8504,-5.4732 5.1397,-3.9268 5.1397,6.1392 z m 12.6037,-1.6448 c 2.5033,3.8167 4.55,7.2396 4.55,7.5871 0,0.8745 -7.6316,3.1565 -10.5801,3.1565 -2.1565,0 -2.2837,-0.5224 -2.2837,-9.2088 0,-8.1663 0.2081,-9.1509 1.8732,-8.8614 1.0291,0.1906 3.9198,3.4693 6.4174,7.2976 z m -25.612,0.567 c -3.3649,6.1971 -3.6077,6.3129 -8.8457,2.363 -1.9657,-1.4711 -1.7634,-1.7317 3.7464,-4.894 3.2029,-1.8418 6.3596,-3.3476 7.0534,-3.3534 0.6938,-0.0058 -0.1625,2.5773 -1.9541,5.9075 z m 36.6548,-1.9576 c 2.3068,1.529 4.1974,3.1449 4.1974,3.5908 0,0.9441 -4.8449,4.2685 -6.1862,4.2685 -0.5151,0 -1.4685,-1.0888 -2.1218,-2.4151 -0.6533,-1.3263 -2.2724,-4.06 -3.5963,-6.0813 l -2.4109,-3.6546 2.9775,0.7471 c 1.6364,0.4113 4.8624,1.9982 7.1692,3.5272 z m -41.1066,11.5255 c 0.1255,0.1025 -0.4712,2.8205 -1.3239,6.0236 -0.8557,3.2144 -1.561,7.4134 -1.5668,9.3247 l -0.0127,3.4866 H 4.97359 v -3.1797 c 0,-4.031 3.70593,-14.0162 6.53311,-17.607 l 2.168,-2.7569 4.4807,2.2646 c 2.4629,1.2452 4.5847,2.3456 4.7119,2.4499 z m 53.7681,3.8865 c 1.243,2.89 2.5554,7.4134 2.9196,10.1355 l 0.6649,4.8592 h -7.1112 c -7.0534,0 -7.1112,-0.011 -7.1112,-3.0233 0,-1.6622 -0.7574,-5.5716 -1.6767,-8.6875 -0.925,-3.116 -1.5032,-5.8499 -1.2893,-6.0237 0.214,-0.1737 2.0525,-1.5406 4.0876,-2.9537 3.2434,-2.2472 3.9198,-2.3746 5.475,-1.0368 0.9771,0.8398 2.7925,3.8921 4.0297,6.7766 z m -36.308,8.2242 v 6.7184 H 23.0245 l 0.7574,-5.0967 c 0.4174,-2.8032 1.3818,-6.6026 2.145,-8.4559 l 1.3875,-3.3363 6.5331,1.7088 6.5331,1.7086 v 6.7184 z m 20.8136,-1.8997 c 0.9308,4.089 1.6882,7.703 1.6882,8.0505 0,0.3261 -4.0933,0.5908 -9.0772,0.5908 h -9.0769 v -13.5526 l 6.7065,-1.5696 c 3.6828,-0.8632 6.9958,-1.425 7.4006,-1.2513 0.396,0.1755 1.48,3.6665 2.4108,7.7612 z M 20.076,-34.8252 c 0.0258,2.5078 0.7342,6.4867 1.5726,8.8613 0.8383,2.3572 1.1331,4.4248 0.6475,4.5928 -0.4845,0.1674 -2.4629,1.4769 -4.3997,2.9074 l -3.521,2.6005 -2.0293,-2.5889 C 9.44383,-22.153 6.33339,-29.6301 5.46618,-34.8426 L 4.74349,-39.3544 H 20.0066 l 0.047,4.5581 z m 20.293,2.2645 v 6.8342 l -4.55,0.6661 c -2.5034,0.3672 -5.6023,0.9614 -6.88,1.3263 -2.064,0.5791 -2.5323,-0.0018 -4.0123,-5.0041 -0.9251,-3.1159 -1.6767,-6.7763 -1.6767,-8.1663 0,-2.3919 0.3215,-2.4846 8.5566,-2.4846 h 8.5566 v 6.8342 z m 22.0277,-3.8746 c -3.3417,13.8421 -3.0873,13.6105 -11.1585,11.9309 l -6.5909,-1.3611 v -13.5526 h 18.3854 l -0.7111,2.948 z m 17.5757,-0.5363 c -0.0115,4.5233 -2.2837,11.0042 -5.6196,15.9851 l -3.3301,4.9808 -4.3535,-2.7916 c -2.3935,-1.5348 -4.4633,-2.8379 -4.5963,-2.9016 -0.1329,-0.0637 0.7112,-2.6179 1.8733,-5.6875 1.162,-3.0696 2.116,-7.0079 2.116,-8.8034 v -3.2086 H 73 c 6.533,0 6.9377,0.1576 6.9377,2.4152 z m -39.8346,25.1939 c -0.2325,7.06585 -0.6707,9.38253 -1.7692,9.38253 -1.509,0 -9.7707,-12.79963 -9.7707,-15.11633 0,-1.5696 4.6714,-3.4461 8.8457,-3.5619 l 2.9832,-0.0846 -0.3093,9.3826 z m 13.5864,-8.1084 c 2.0987,0.9614 2.5844,1.7722 2.0583,3.4866 -1.0638,3.4808 -8.3254,13.95799 -9.5395,13.72633 -0.5897,-0.11178 -1.2083,-4.30902 -1.3818,-9.32463 l -0.3093,-9.1509 h 3.203 c 1.7633,0 4.4401,0.5635 5.9549,1.251 z m -28.3292,4.2627 c 0,0.6718 1.4453,3.5793 3.2145,6.42878 l 3.2145,5.2299 -5.0877,-2.61205 c -2.7983,-1.43635 -6.0706,-3.37078 -7.2269,-4.29743 -2.1218,-1.668 -2.116,-1.7028 0.5354,-3.8168 2.989,-2.3861 5.3536,-2.8089 5.3536,-0.9614 z m 39.719,0.6197 c 1.7113,1.0135 3.1105,2.1603 3.1105,2.5483 0,0.3898 -3.4053,2.50206 -7.5738,4.69133 l -7.574,3.98468 2.5959,-4.11789 c 1.428,-2.26452 2.9372,-5.20672 3.3593,-6.54462 0.9192,-2.8959 1.983,-2.9943 6.0705,-0.5734 z" style="fill:#44bbaa;fill-opacity:1;fill-rule:nonzero;stroke:none" id="path42662"/>
        </g>
      </g>
    </g>
  </g>
</svg>