<?xml version="1.0" encoding="UTF-8" standalone="no"?>
<!-- Created with Inkscape (http://www.inkscape.org/) -->

<svg
   width="191.34399"
   height="145.929"
   viewBox="0 0 50.626431 38.61038"
   version="1.1"
   id="svg6347"
   inkscape:version="1.2.1 (9c6d41e410, 2022-07-14)"
   sodipodi:docname="desenho-1.svg"
   xmlns:inkscape="http://www.inkscape.org/namespaces/inkscape"
   xmlns:sodipodi="http://sodipodi.sourceforge.net/DTD/sodipodi-0.dtd"
   xmlns="http://www.w3.org/2000/svg"
   xmlns:svg="http://www.w3.org/2000/svg">
  <sodipodi:namedview
     id="namedview6349"
     pagecolor="#ffffff"
     bordercolor="#000000"
     borderopacity="0.25"
     inkscape:showpageshadow="2"
     inkscape:pageopacity="0.0"
     inkscape:pagecheckerboard="0"
     inkscape:deskcolor="#d1d1d1"
     inkscape:document-units="mm"
     showgrid="false"
     inkscape:zoom="2.3786088"
     inkscape:cx="90.38897"
     inkscape:cy="116.87504"
     inkscape:window-width="1536"
     inkscape:window-height="953"
     inkscape:window-x="-8"
     inkscape:window-y="-8"
     inkscape:window-maximized="1"
     inkscape:current-layer="layer1" />
  <defs
     id="defs6344">
    <clipPath
       clipPathUnits="userSpaceOnUse"
       id="clipPath4960">
      <path
         d="m 45.428,44.367 h 146.1 v 112.909 h -146.1 z"
         id="path4958" />
    </clipPath>
    <clipPath
       clipPathUnits="userSpaceOnUse"
       id="clipPath4960-0">
      <path
         d="m 45.428,44.367 h 146.1 v 112.909 h -146.1 z"
         id="path4958-0" />
    </clipPath>
  </defs>
  <g
     inkscape:label="Camada 1"
     inkscape:groupmode="layer"
     id="layer1">
    <g
       id="g6408"
       transform="matrix(0.35277777,0,0,-0.35277777,-16.411079,54.262126)">
      <g
         id="g4950"
         transform="translate(151.7255,56.9003)">
        <path
           d="M 0,0 11.119,8.968 8.884,23.479 11.119,37.991 0.782,48.417 -5.94,61.47 -20.431,63.829 -33.542,70.438 -46.652,63.829 -61.144,61.47 -67.866,48.417 -78.203,37.991 -75.968,23.479 -78.203,8.968 -67.084,0 Z"
           style="fill:#f6d32d;fill-opacity:1;fill-rule:nonzero;stroke:none"
           id="path4952" />
      </g>
      <g
         id="g4954">
        <g
           id="g4956"
           clip-path="url(#clipPath4960-0)">
          <g
             id="g4962"
             transform="translate(373.4271,140.8456)">
            <path
               d="m 0,0 c -1.854,0 -3.358,-1.503 -3.358,-3.358 0,-1.854 1.504,-3.358 3.358,-3.358 1.854,0 3.358,1.504 3.358,3.358 C 3.358,-1.503 1.854,0 0,0 m 23.504,0 v -3.358 -10.073 -6.716 -23.504 c 10e-4,-1.854 1.504,-3.357 3.358,-3.358 h 6.716 3.357 v 6.716 H 33.578 30.22 v 20.146 h 3.358 3.357 v 6.716 H 33.578 30.22 V -3.358 0 Z m 47.009,0 v -3.358 -30.22 -6.715 -3.358 -3.358 h 6.716 v 3.358 3.358 h 6.715 v -3.358 -3.358 h 6.716 v 3.358 6.716 c -10e-4,1.854 -1.504,3.357 -3.358,3.357 H 80.98 l 5.968,11.923 c 0.833,1.662 0.157,3.685 -1.509,4.512 -0.794,0.397 -1.714,0.463 -2.557,0.184 -0.847,-0.284 -1.545,-0.893 -1.942,-1.692 l -3.712,-7.424 V -3.358 0 Z m 30.22,0 c -1.855,0 -3.358,-1.503 -3.358,-3.358 0,-1.854 1.503,-3.358 3.358,-3.358 1.854,0 3.358,1.504 3.358,3.358 0,1.855 -1.504,3.358 -3.358,3.358 m -248.474,-13.431 c -1.855,0 -3.358,-1.503 -3.358,-3.358 V -30.22 c 0,-1.854 1.503,-3.357 3.358,-3.358 h 10.073 v -6.715 h -10.073 -3.358 v -6.716 h 3.358 13.431 c 1.854,10e-4 3.357,1.504 3.357,3.358 v 13.431 c 0,1.854 -1.503,3.358 -3.357,3.358 h -10.074 v 6.715 h 10.074 3.357 v 6.716 h -3.357 z m 23.504,0 v -3.358 -26.862 -3.358 h 6.715 10.074 c 1.854,10e-4 3.357,1.504 3.357,3.358 v 26.862 3.358 h -6.715 v -3.358 -23.504 h -6.716 v 23.504 3.358 z m 26.862,0 v -6.716 -23.504 -3.358 h 6.715 v 3.358 23.504 h 6.716 v -23.504 -3.358 h 6.716 v 3.358 26.862 c -0.001,1.855 -1.504,3.358 -3.358,3.358 H -90.66 Z m 30.22,0 c -1.855,0 -3.358,-1.503 -3.358,-3.358 v -26.862 c 0,-1.854 1.503,-3.357 3.358,-3.358 h 13.431 c 1.854,10e-4 3.357,1.504 3.358,3.358 v 26.862 c -10e-4,1.855 -1.504,3.358 -3.358,3.358 z m 36.935,0 v -6.716 -20.146 -6.716 -3.357 -3.358 h 6.716 v 3.358 3.357 h 10.073 c 1.854,10e-4 3.358,1.504 3.358,3.358 v 26.862 c 0,1.855 -1.504,3.358 -3.358,3.358 h -10.073 z m 26.862,0 v -3.358 -26.862 -3.358 h 6.716 v 3.358 26.862 3.358 z m 50.367,0 c -1.855,0 -3.358,-1.503 -3.358,-3.358 v -26.862 c 0,-1.854 1.503,-3.357 3.358,-3.358 H 60.44 c 1.854,10e-4 3.357,1.504 3.357,3.358 v 26.862 c 0,1.855 -1.503,3.358 -3.357,3.358 z m 50.366,0 v -3.358 -26.862 -3.358 h 6.716 v 3.358 26.862 3.358 z m 26.862,0 v -6.716 -20.146 -6.716 -3.357 -3.358 h 6.716 v 3.358 3.357 h 10.073 c 1.854,10e-4 3.358,1.504 3.358,3.358 v 26.862 c 0,1.855 -1.504,3.358 -3.358,3.358 h -10.073 z m 30.22,0 c -1.854,0 -3.358,-1.503 -3.358,-3.358 v -26.862 c 0,-1.854 1.504,-3.357 3.358,-3.358 h 13.431 c 1.854,10e-4 3.358,1.504 3.358,3.358 v 26.862 c 0,1.855 -1.504,3.358 -3.358,3.358 z m 23.504,0 v -6.716 -23.504 -3.358 h 6.716 v 3.358 23.504 h 6.715 v -23.504 -3.358 h 6.716 v 3.358 26.862 c 0,1.855 -1.503,3.358 -3.358,3.358 h -10.073 z m 30.22,0 v -6.716 h 3.358 6.716 v -6.715 h -10.074 c -1.854,0 -3.357,-1.503 -3.358,-3.358 v -13.431 c 0.001,-1.854 1.504,-3.357 3.358,-3.358 h 16.789 v 13.431 6.716 10.073 c 0,1.855 -1.503,3.358 -3.358,3.358 h -10.073 z m -271.978,-6.716 h 6.716 v -20.147 h -6.716 z m 40.293,0 h 6.716 v -20.147 h -6.716 z m 73.87,0 h 6.716 v -20.146 h -6.716 z m 80.587,0 h 6.716 v -20.147 h -6.716 z m 26.862,0 h 6.716 v -20.147 h -6.716 z m 53.724,-13.431 h 6.716 v -6.716 h -6.716 z"
               style="fill:#3584e4;fill-opacity:1;fill-rule:nonzero;stroke:none"
               id="path4964" />
          </g>
          <g
             id="g4966"
             transform="translate(222.3278,87.1214)">
            <path
               d="m 0,0 v -3.358 -3.358 -6.715 -16.789 c 0,-1.854 1.503,-3.357 3.358,-3.358 h 6.715 3.358 v 6.716 H 10.073 6.716 v 13.431 h 3.357 3.358 v 6.715 H 10.073 6.716 V -3.358 0 Z m 47.009,0 v -3.358 -16.789 -6.715 -3.358 -3.358 h 6.715 v 3.358 3.358 h 6.716 v -3.358 -3.358 h 6.715 v 3.358 6.716 c 0,1.854 -1.503,3.357 -3.358,3.357 h -5.325 l 4.342,4.342 c 1.311,1.311 1.311,3.437 0,4.748 -0.63,0.63 -1.484,0.984 -2.374,0.984 -0.891,0 -1.745,-0.354 -2.374,-0.984 l -4.342,-4.341 V -3.358 0 Z m 30.219,0 c -1.854,0 -3.357,-1.503 -3.357,-3.358 0,-1.854 1.503,-3.358 3.357,-3.358 1.855,0 3.358,1.504 3.358,3.358 C 80.586,-1.503 79.083,0 77.228,0 M 235.043,0 V -3.358 -13.431 H 224.97 c -1.854,0 -3.358,-1.503 -3.358,-3.358 V -30.22 c 0,-1.854 1.504,-3.357 3.358,-3.358 h 13.431 3.358 v 3.358 10.073 6.716 V -3.358 0 Z m 83.944,0 c -1.854,0 -3.357,-1.503 -3.357,-3.358 v -6.715 -3.358 h 6.715 v 3.358 3.357 h 6.716 v -2.347 l -12.867,-19.294 c -1.029,-1.544 -0.611,-3.629 0.932,-4.657 0.551,-0.367 1.199,-0.563 1.861,-0.564 h 13.431 3.358 v 6.716 h -3.358 -7.161 l 9.955,14.926 c 0.368,0.552 0.564,1.2 0.564,1.863 v 6.715 c 0,1.855 -1.503,3.358 -3.358,3.358 z m 26.862,0 c -1.854,0 -3.357,-1.503 -3.357,-3.358 V -30.22 c 0,-1.854 1.503,-3.357 3.357,-3.358 h 13.431 c 1.855,0.001 3.358,1.504 3.358,3.358 v 26.862 c 0,1.855 -1.503,3.358 -3.358,3.358 z m 26.862,0 c -1.854,0 -3.357,-1.503 -3.357,-3.358 v -6.715 -3.358 h 6.715 v 3.358 3.357 h 6.716 v -2.347 l -12.867,-19.294 c -1.029,-1.544 -0.611,-3.629 0.932,-4.657 0.551,-0.367 1.199,-0.563 1.862,-0.564 h 13.431 3.357 v 6.716 h -3.357 -7.162 l 9.955,14.926 c 0.368,0.552 0.564,1.2 0.564,1.863 v 6.715 C 389.5,-1.503 387.997,0 386.143,0 Z m 33.906,-0.026 c -0.998,0.1 -1.99,-0.251 -2.702,-0.958 l -6.715,-6.715 -2.374,-2.374 4.748,-4.748 2.374,2.374 0.983,0.983 v -15.398 h -3.357 -3.358 v -6.716 h 3.358 3.357 6.716 3.358 3.357 v 6.716 h -3.357 -3.358 v 23.504 c -0.003,1.356 -0.82,2.577 -2.072,3.096 -0.306,0.125 -0.629,0.205 -0.958,0.236 z m -57.41,-6.69 h 6.716 v -20.147 h -6.716 z M 23.504,-13.431 c -1.854,0 -3.357,-1.503 -3.357,-3.358 V -30.22 c 0,-1.854 1.503,-3.357 3.357,-3.358 h 13.431 c 1.855,0.001 3.358,1.504 3.358,3.358 v 13.431 c 0,1.855 -1.503,3.358 -3.358,3.358 z m 50.367,0 v -3.358 -13.431 -3.358 h 6.715 v 3.358 13.431 3.358 z m 26.862,0 v -6.716 -6.715 -6.716 -3.357 -3.358 h 6.715 v 3.358 3.357 h 10.074 c 1.854,0.001 3.357,1.504 3.357,3.358 v 13.431 c 0,1.855 -1.503,3.358 -3.357,3.358 h -10.074 z m 30.22,0 c -1.855,0 -3.358,-1.503 -3.358,-3.358 V -30.22 c 0,-1.854 1.503,-3.357 3.358,-3.358 h 13.431 c 1.854,0.001 3.357,1.504 3.358,3.358 v 13.431 c -10e-4,1.855 -1.504,3.358 -3.358,3.358 z m 23.504,0 v -6.716 -10.073 -3.358 h 6.716 v 3.358 10.073 h 6.715 v -10.073 -3.358 h 6.716 v 3.358 13.431 c -0.001,1.855 -1.504,3.358 -3.358,3.358 h -10.073 z m 36.935,0 c -0.89,0 -1.744,-0.354 -2.374,-0.984 l -6.715,-6.715 c -0.63,-0.63 -0.984,-1.484 -0.984,-2.374 v -6.716 c 0,-1.854 1.503,-3.357 3.358,-3.358 h 10.073 3.358 3.358 v 6.716 10.073 c 0,1.855 -1.504,3.358 -3.358,3.358 z m 67.156,0 c -0.891,0 -1.745,-0.354 -2.374,-0.984 l -6.716,-6.715 c -0.63,-0.63 -0.984,-1.484 -0.984,-2.374 v -6.716 c 0,-1.854 1.504,-3.357 3.358,-3.358 h 10.073 3.358 3.358 v 6.716 10.073 c 0,1.855 -1.503,3.358 -3.358,3.358 z m 16.788,0 v -3.358 -13.431 c 10e-4,-1.854 1.504,-3.357 3.358,-3.358 h 10.073 v -6.715 h -10.073 -3.358 v -6.716 h 3.358 13.431 c 1.855,0 3.358,1.504 3.358,3.358 v 10.073 6.716 10.073 3.358 h -6.716 v -3.358 -10.073 h -6.715 v 10.073 3.358 z M 26.862,-20.147 h 6.716 v -6.716 h -6.716 z m 80.586,0 h 6.716 v -6.716 h -6.716 z m 26.862,0 h 6.716 v -6.716 h -6.716 z m 58.473,0 h 1.967 v -6.715 h -6.715 v 1.967 z m 35.545,0 h 6.716 v -6.716 h -6.716 z m 31.61,0 h 1.967 v -6.715 h -6.715 v 1.967 z"
               style="fill:#f6d32d;fill-opacity:1;fill-rule:nonzero;stroke:none"
               id="path4968" />
          </g>
          <g
             id="g4970"
             transform="translate(118.1847,150.8139)">
            <path
               d="m 0,0 c -1.85,0.002 -3.352,-1.495 -3.358,-3.345 v -6.715 c -0.002,-1.853 1.498,-3.356 3.351,-3.358 H 0 c 1.852,-0.002 3.356,1.498 3.358,3.351 v 0.007 6.715 C 3.352,-1.495 1.85,0.002 0,0 m -39.427,-12.815 c -0.711,0.006 -1.404,-0.215 -1.981,-0.629 -1.495,-1.091 -1.823,-3.186 -0.735,-4.683 l 3.935,-5.43 c 1.084,-1.502 3.181,-1.841 4.683,-0.757 0.004,0.003 0.009,0.006 0.013,0.01 1.494,1.091 1.823,3.186 0.734,4.682 l -3.948,5.43 c -0.52,0.716 -1.303,1.197 -2.177,1.338 -0.173,0.027 -0.349,0.04 -0.524,0.04 z m 78.618,0 c -0.989,-0.07 -1.897,-0.574 -2.479,-1.377 l -3.934,-5.43 c -1.089,-1.496 -0.76,-3.591 0.734,-4.682 1.5,-1.086 3.596,-0.752 4.683,0.747 l 3.948,5.417 c 1.094,1.495 0.77,3.594 -0.724,4.688 -0.004,0.003 -0.007,0.005 -0.011,0.008 -0.641,0.465 -1.427,0.688 -2.217,0.629 z M 0,-19.714 l -14.166,-7.148 -15.647,-2.545 -7.254,-14.1 -11.161,-11.253 2.413,-15.674 -2.453,-15.91 5.22,-4.211 h -10.624 c -1.85,-0.005 -3.346,-1.507 -3.344,-3.357 -0.002,-1.851 1.494,-3.353 3.344,-3.358 H 53.672 c 1.85,0.005 3.346,1.507 3.344,3.358 0.002,1.85 -1.494,3.352 -3.344,3.357 H 43.048 l 5.22,4.211 -2.453,15.91 2.413,15.674 -11.161,11.253 -7.254,14.1 -15.661,2.545 z m 0,-7.515 12.067,-6.086 13.326,-2.164 6.178,-12.015 9.522,-9.588 -2.059,-13.352 2.02,-13.117 -8.683,-7.004 h -64.729 l -8.696,7.004 2.02,13.117 -2.059,13.352 9.509,9.588 6.191,12.015 13.326,2.164 z M -63.916,-46.34 c -1.414,-0.046 -2.647,-0.975 -3.082,-2.321 -0.576,-1.761 0.385,-3.655 2.146,-4.231 0.006,-0.002 0.012,-0.004 0.018,-0.006 l 6.375,-2.072 c 1.76,-0.571 3.65,0.392 4.223,2.151 0.578,1.76 -0.38,3.655 -2.14,4.233 -0.004,10e-4 -0.007,0.002 -0.011,0.003 l -6.374,2.073 c -0.372,0.124 -0.763,0.181 -1.155,0.17 z m 127.832,-0.013 c -0.391,0.015 -0.782,-0.038 -1.155,-0.158 l -6.374,-2.072 c -1.762,-0.572 -2.727,-2.464 -2.155,-4.226 10e-4,-0.003 0.003,-0.007 0.004,-0.01 0.573,-1.759 2.463,-2.722 4.223,-2.151 l 6.375,2.072 c 1.762,0.572 2.726,2.464 2.154,4.226 -0.001,0.004 -0.002,0.007 -0.003,0.011 -0.438,1.337 -1.664,2.258 -3.07,2.308 z M -20.12,-60.374 c -1.853,0.002 -3.356,-1.499 -3.358,-3.351 v -0.007 c 0,-12.95 10.528,-23.478 23.478,-23.478 12.95,0 23.478,10.528 23.478,23.478 0.002,1.852 -1.498,3.356 -3.351,3.358 H 20.12 c -1.85,-0.006 -3.346,-1.508 -3.344,-3.358 0,-9.349 -7.427,-16.763 -16.776,-16.763 -9.349,0 -16.776,7.414 -16.776,16.763 0.002,1.85 -1.494,3.352 -3.344,3.358"
               style="fill:#3584e4;fill-opacity:1;fill-rule:nonzero;stroke:none"
               id="path4972" />
          </g>
        </g>
      </g>
    </g>
  </g>
</svg>
