<?xml version="1.0" encoding="UTF-8" standalone="no"?>
<!-- Created with Inkscape (http://www.inkscape.org/) -->
<svg version="1.1" id="svg4714" xml:space="preserve" width="187.76407" height="132.47444" viewBox="0 0 187.76407 132.47444" xmlns="http://www.w3.org/2000/svg" xmlns:svg="http://www.w3.org/2000/svg"><defs id="defs4718"><clipPath clipPathUnits="userSpaceOnUse" id="clipPath4736"><path d="M 0,0 H 419.528 V 595.276 H 0 Z" id="path4734"/></clipPath><clipPath clipPathUnits="userSpaceOnUse" id="clipPath4752"><path d="M 0,0 H 419.528 V 595.276 H 0 Z" id="path4750"/></clipPath><clipPath clipPathUnits="userSpaceOnUse" id="clipPath4776"><path d="M 0,0 H 419.528 V 595.276 H 0 Z" id="path4774"/></clipPath><clipPath clipPathUnits="userSpaceOnUse" id="clipPath4794"><path d="M 0,0 H 419.528 V 595.276 H 0 Z" id="path4792"/></clipPath><clipPath clipPathUnits="userSpaceOnUse" id="clipPath4810"><path d="M 0,0 H 419.528 V 595.276 H 0 Z" id="path4808"/></clipPath><clipPath clipPathUnits="userSpaceOnUse" id="clipPath5094"><path d="m 223.927,240.94 h 154.8 v 137.136 h -154.8 z" id="path5092"/></clipPath><clipPath clipPathUnits="userSpaceOnUse" id="clipPath5094-7"><path d="m 223.927,240.94 h 154.8 v 137.136 h -154.8 z" id="path5092-4"/></clipPath></defs><g id="g4720" transform="matrix(1.3333333,0,0,-1.3333333,-239.21678,472.77271)"><g id="g5088" transform="translate(-45.755021,7.3084126)"><g id="g5090" clip-path="url(#clipPath5094-7)"><g id="g5096" transform="matrix(0.1568282,0,0,-0.1511442,527.36493,157.5448)"><g id="g5098" transform="translate(-1496.6381,-676.5186)"><path d="m 0,0 c 18.191,-22.801 21.984,-56.166 9.376,-82.468 -5.318,-11.095 -13.175,-20.772 -21.497,-29.833 -1.205,-1.312 -2.487,-2.756 -2.631,-4.532 -0.153,-1.873 1.002,-3.574 2.105,-5.097 l 12.333,-17.045 c 1.169,-1.615 2.432,-3.306 4.275,-4.066 2.707,-1.114 5.764,0.102 8.394,1.387 23.21,11.339 43.094,29.173 67.331,38.108 13.693,5.048 28.285,7.061 42.743,9.042 34.361,4.708 73.951,14.144 106.877,3.246" style="fill:#c69c6d;fill-opacity:1;fill-rule:nonzero;stroke:none" id="path5100"/></g></g><g id="g5102" transform="matrix(0.1568282,0,0,-0.1511442,527.36493,157.5448)"><g id="g5104" transform="translate(-1152.3337,-814.946)"><path d="m 0,0 c 7.126,4.706 27.735,19.65 36.052,47.241 7.593,25.188 5.268,61.998 -19.891,82.049 -30.707,24.472 -70.747,12.254 -73.347,11.188 -19.071,-7.833 -37.382,-17.404 -54.699,-28.593 0,0 -10.258,22.493 -28.594,38.539 -19.41,16.987 -53.725,17.32 -72.104,-1.243 -8.991,-9.007 -16.916,-19.019 -23.62,-29.837 0,0 -10.586,11.914 -34.809,27.35 -16.286,10.379 -40.912,13.258 -59.672,2.487 -6.408,-3.738 -11.924,-8.829 -16.161,-14.918" style="fill:#c69c6d;fill-opacity:1;fill-rule:nonzero;stroke:#000000;stroke-width:12;stroke-linecap:round;stroke-linejoin:miter;stroke-miterlimit:10;stroke-dasharray:none;stroke-opacity:1" id="path5106"/></g></g><g id="g5108" transform="matrix(0.1568282,0,0,-0.1511442,527.36493,157.5448)"><g id="g5110" transform="translate(-1506.3945,-847.2686)"><path d="m 0,0 c 19.678,24.311 44.243,44.217 72.104,58.429 62.349,31.493 121.731,23.184 154.153,18.648 41.167,-5.76 91.503,-12.804 134.263,-52.214 49.631,-45.742 57.831,-106.312 64.645,-156.639 7.41,-54.734 16.934,-95.579 -8.703,-155.397 -3.729,-8.702 -18.727,-40.692 -70.86,-64.645 -45.998,-21.134 -87.676,-5.372 -108.156,3.73 -22.377,9.945 -43.511,42.268 -43.511,42.268 0,0 -7.899,-23.118 -28.593,-39.782 -18.755,-15.102 -52.668,-9.283 -75.834,4.973 -16.161,9.945 -26.106,31.079 -26.106,31.079 0,0 -8.606,-22.777 -29.837,-36.052 -14.281,-8.93 -36.768,-3.928 -50.97,4.973 -5.751,3.628 -10.804,8.26 -14.918,13.675" style="fill:#9379d0;fill-opacity:1;fill-rule:nonzero;stroke:#000000;stroke-width:12;stroke-linecap:butt;stroke-linejoin:miter;stroke-miterlimit:10;stroke-dasharray:none;stroke-opacity:1" id="path5112"/></g></g><g id="g5114" transform="matrix(0.1568282,0,0,-0.1511442,527.36493,157.5448)"><g id="g5116" transform="translate(-1537.717,-807.4871)"><path d="m 0,0 c 7.248,3.232 36.892,17.442 49.727,50.97 3.493,9.125 14.442,37.727 -1.243,63.402 -11.95,19.56 -35.635,31.325 -57.186,29.836 -35.743,-2.471 -69.618,-33.566 -69.618,-33.566 0,0 -5.123,27.251 -22.377,45.998 -14.789,16.068 -51.244,21.322 -72.104,13.674 -30.695,-11.252 -42.268,-55.942 -42.268,-55.942 0,0 -13.872,23.841 -37.295,36.052 -19.943,10.397 -50.174,9.06 -70.861,-8.703 -25.876,-22.217 -21.657,-57.116 -21.134,-60.915 4.463,-32.384 31.866,-51.692 48.484,-63.402 9.281,-6.531 19.295,-11.955 29.836,-16.161" style="fill:#39b54a;fill-opacity:1;fill-rule:nonzero;stroke:#000000;stroke-width:12;stroke-linecap:round;stroke-linejoin:miter;stroke-miterlimit:10;stroke-dasharray:none;stroke-opacity:1" id="path5118"/></g></g><g id="g5120" transform="matrix(0.1568282,0,0,-0.1511442,527.36493,157.5448)"><g id="g5122" transform="translate(-1676.9523,-1099.6323)"><path d="m 0,0 c 10.606,-5.922 39.871,-20.356 77.077,-14.918 41.107,6.008 66.984,32.633 75.89,41.796 3.948,4.091 7.664,8.399 11.132,12.903 34.543,44.757 38.388,100.569 38.538,103.184 4.855,84.869 -56.064,142.268 -60.915,146.694 -71.388,65.127 -165.139,46.137 -186.476,41.025 -17.755,-4.255 -72.366,-18.146 -111.886,-67.132 -65.648,-81.373 -52.114,-213.06 16.162,-288.416 45.998,-50.768 105.735,-63.707 133.019,-69.617 31.304,-6.781 89.32,-19.348 136.749,12.432 10.177,6.819 42.884,28.734 43.511,63.401 0.329,18.189 -8.308,32.439 -13.675,39.782" style="fill:#c1272d;fill-opacity:1;fill-rule:nonzero;stroke:#000000;stroke-width:12;stroke-linecap:round;stroke-linejoin:miter;stroke-miterlimit:10;stroke-dasharray:none;stroke-opacity:1" id="path5124"/></g></g><g id="g5126" transform="matrix(0.1568282,0,0,-0.1511442,527.36493,157.5448)"><g id="g5128" transform="translate(-1635.306,-1168.0068)"><path d="m 0,0 c 5.836,0 10.567,4.731 10.567,10.567 0,5.836 -4.731,10.567 -10.567,10.567 -5.836,0 -10.567,-4.731 -10.567,-10.567 C -10.567,4.731 -5.836,0 0,0" style="fill:#000000;fill-opacity:1;fill-rule:nonzero;stroke:none" id="path5130"/></g></g><g id="g5132" transform="matrix(0.1568282,0,0,-0.1511442,527.36493,157.5448)"><g id="g5134" transform="translate(-1635.306,-1168.0068)"><path d="m 0,0 c 5.836,0 10.567,4.731 10.567,10.567 0,5.836 -4.731,10.567 -10.567,10.567 -5.836,0 -10.567,-4.731 -10.567,-10.567 C -10.567,4.731 -5.836,0 0,0 Z" style="fill:none;stroke:#000000;stroke-width:12;stroke-linecap:round;stroke-linejoin:miter;stroke-miterlimit:10;stroke-dasharray:none;stroke-opacity:1" id="path5136"/></g></g><g id="g5138" transform="matrix(0.1568282,0,0,-0.1511442,527.36493,157.5448)"><g id="g5140" transform="translate(-1575.0122,-1160.5477)"><path d="m 0,0 c 5.493,0 9.945,4.453 9.945,9.945 0,5.493 -4.452,9.946 -9.945,9.946 -5.493,0 -9.945,-4.453 -9.945,-9.946 C -9.945,4.453 -5.493,0 0,0" style="fill:#000000;fill-opacity:1;fill-rule:nonzero;stroke:none" id="path5142"/></g></g><g id="g5144" transform="matrix(0.1568282,0,0,-0.1511442,527.36493,157.5448)"><g id="g5146" transform="translate(-1575.0122,-1160.5477)"><path d="m 0,0 c 5.493,0 9.945,4.453 9.945,9.945 0,5.493 -4.452,9.946 -9.945,9.946 -5.493,0 -9.945,-4.453 -9.945,-9.946 C -9.945,4.453 -5.493,0 0,0 Z" style="fill:none;stroke:#000000;stroke-width:12;stroke-linecap:round;stroke-linejoin:miter;stroke-miterlimit:10;stroke-dasharray:none;stroke-opacity:1" id="path5148"/></g></g><g id="g5150" transform="matrix(0.1568282,0,0,-0.1511442,527.36493,157.5448)"><g id="g5152" transform="translate(-1703.0588,-1000.1786)"><path d="m 0,0 c 10.626,-5.954 22.266,-12.078 42.268,-8.702 4.237,0.715 26.328,4.947 38.538,24.863 17.039,27.794 -1.436,59.596 -3.729,63.402 -2.887,4.79 -13.366,22.179 -34.809,28.593 -25.539,7.638 -53.815,-4.125 -68.375,-24.863 C -28.102,80.45 -39.227,57.991 -29.836,33.566 -23.748,17.731 -11.488,6.436 0,0" style="fill:#fbb03b;fill-opacity:1;fill-rule:nonzero;stroke:none" id="path5154"/></g></g><g id="g5156" transform="matrix(0.1568282,0,0,-0.1511442,527.36493,157.5448)"><g id="g5158" transform="translate(-1703.0588,-1000.1786)"><path d="m 0,0 c 10.626,-5.954 22.266,-12.078 42.268,-8.702 4.237,0.715 26.328,4.947 38.538,24.863 17.039,27.794 -1.436,59.596 -3.729,63.402 -2.887,4.79 -13.366,22.179 -34.809,28.593 -25.539,7.638 -53.815,-4.125 -68.375,-24.863 C -28.102,80.45 -39.227,57.991 -29.836,33.566 -23.748,17.731 -11.488,6.436 0,0 Z" style="fill:none;stroke:#000000;stroke-width:12;stroke-linecap:round;stroke-linejoin:miter;stroke-miterlimit:10;stroke-dasharray:none;stroke-opacity:1" id="path5160"/></g></g><g id="g5162" transform="matrix(0.1568282,0,0,-0.1511442,527.36493,157.5448)"><g id="g5164" transform="translate(-1678.817,-964.1266)"><path d="M 0,0 C 6.522,0 11.81,5.288 11.81,11.81 11.81,18.333 6.522,23.62 0,23.62 -6.523,23.62 -11.81,18.333 -11.81,11.81 -11.81,5.288 -6.523,0 0,0" style="fill:#000000;fill-opacity:1;fill-rule:nonzero;stroke:none" id="path5166"/></g></g><g id="g5168" transform="matrix(0.1568282,0,0,-0.1511442,527.36493,157.5448)"><g id="g5170" transform="translate(-1678.817,-964.1266)"><path d="M 0,0 C 6.522,0 11.81,5.288 11.81,11.81 11.81,18.333 6.522,23.62 0,23.62 -6.523,23.62 -11.81,18.333 -11.81,11.81 -11.81,5.288 -6.523,0 0,0 Z" style="fill:none;stroke:#000000;stroke-width:12;stroke-linecap:round;stroke-linejoin:miter;stroke-miterlimit:10;stroke-dasharray:none;stroke-opacity:1" id="path5172"/></g></g><g id="g5174" transform="matrix(0.1568282,0,0,-0.1511442,527.36493,157.5448)"><g id="g5176" transform="translate(-1484.2607,-1119.5232)"><path d="m 0,0 c 12.782,-6.166 26.097,-11.159 39.781,-14.918 61.778,-16.956 113.624,-3.741 130.534,1.243 23.422,6.932 45.642,17.413 65.888,31.08" style="fill:none;stroke:#000000;stroke-width:12;stroke-linecap:round;stroke-linejoin:miter;stroke-miterlimit:10;stroke-dasharray:none;stroke-opacity:1" id="path5178"/></g></g><g id="g5180" transform="matrix(0.1568282,0,0,-0.1511442,527.36493,157.5448)"><g id="g5182" transform="translate(-1407.1841,-935.5337)"><path d="m 0,0 c 24.956,-6.389 48.875,-9.685 83.293,-12.432 31.798,-2.538 55.349,-0.688 79.563,1.243" style="fill:none;stroke:#000000;stroke-width:12;stroke-linecap:round;stroke-linejoin:miter;stroke-miterlimit:10;stroke-dasharray:none;stroke-opacity:1" id="path5184"/></g></g><g id="g5186" transform="matrix(0.1568282,0,0,-0.1511442,527.36493,157.5448)"><g id="g5188" transform="translate(-1322.6484,-1032.5011)"><path d="m 0,0 c 0,0 2.304,65.879 2.486,85.779 0.222,24.137 -1.243,90.328 -1.243,90.328" style="fill:none;stroke:#000000;stroke-width:12;stroke-linecap:round;stroke-linejoin:miter;stroke-miterlimit:10;stroke-dasharray:none;stroke-opacity:1" id="path5190"/></g></g><g id="g5192" transform="matrix(0.1568282,0,0,-0.1511442,527.36493,157.5448)"><g id="g5194" transform="translate(-1511.6105,-791.3258)"><path d="M 0,0 C 1.757,-15.307 12.545,-28.057 27.35,-32.322" style="fill:none;stroke:#000000;stroke-width:12;stroke-linecap:round;stroke-linejoin:miter;stroke-miterlimit:10;stroke-dasharray:none;stroke-opacity:1" id="path5196"/></g></g></g></g></g></svg>