<?xml version="1.0" encoding="UTF-8" standalone="no"?>
<!-- Created with Inkscape (http://www.inkscape.org/) -->

<svg
   width="190mm"
   height="95mm"
   viewBox="0 0 190 95"
   version="1.1"
   id="svg1"
   inkscape:version="1.4.3 (0d15f75042, 2025-12-25)"
   sodipodi:docname="ona-monsuta.svg"
   xmlns:inkscape="http://www.inkscape.org/namespaces/inkscape"
   xmlns:sodipodi="http://sodipodi.sourceforge.net/DTD/sodipodi-0.dtd"
   xmlns="http://www.w3.org/2000/svg"
   xmlns:svg="http://www.w3.org/2000/svg">
  <sodipodi:namedview
     id="namedview1"
     pagecolor="#ffffff"
     bordercolor="#000000"
     borderopacity="0.25"
     inkscape:showpageshadow="2"
     inkscape:pageopacity="0.0"
     inkscape:pagecheckerboard="0"
     inkscape:deskcolor="#d1d1d1"
     inkscape:document-units="mm"
     inkscape:zoom="0.6532194"
     inkscape:cx="329.13903"
     inkscape:cy="495.23943"
     inkscape:window-width="1920"
     inkscape:window-height="1008"
     inkscape:window-x="0"
     inkscape:window-y="0"
     inkscape:window-maximized="1"
     inkscape:current-layer="layer1" />
  <defs
     id="defs1" />
  <g
     inkscape:label="Layer 1"
     inkscape:groupmode="layer"
     id="layer1">
    <path
       id="path3"
       style="fill:#343434;stroke:none;stroke-width:0.264583;stroke-linecap:round;fill-opacity:1"
       d="m 169.11482,2.2742447 c -1.48502,-0.19045 -2.99703,-0.19304 -4.48012,0.0152 -2.26248,0.31781 -4.47537,1.06703 -6.65294,1.72685 -2.87925,1.00413 -5.86464,1.86314 -8.44839,3.5363 -1.35417,0.8769 -2.24873,1.69298 -3.46934,2.7217703 -2.96837,2.70571 -5.04787,6.00506 -6.75019,9.60313 -1.59554,3.57644 -2.67202,7.34366 -3.72358,11.10618 -0.49617,2.44457 -1.33933,4.8537 -1.58477,7.34673 -0.0506,0.50947 -0.0511,1.02262 -0.0766,1.53395 -0.15495,3.31448 1.00074,6.35343 2.36155,9.30631 1.26416,2.53762 2.75549,4.94805 4.3037,7.31934 1.82513,3.35973 4.61907,5.44897 7.67076,7.57601 -0.27768,0.10209 -0.5564,0.20152 -0.83638,0.29822 -2.36114,0.90195 -4.75058,1.70169 -7.19398,2.3492 -1.28441,0.35094 -2.59592,0.72824 -3.91489,0.88328 -0.77049,0.0461 -1.38657,-0.29781 -2.08754,-0.56185 -1.34341,-0.53541 -2.6118,-1.21399 -3.82286,-1.99494 -4.41305,-2.82188 -6.21346,-10.42798 -12.14925,-9.87941 -0.64616,0.26557 -1.17609,0.75454 -1.76415,1.13162 -0.22374,0.26745 -0.4664,0.52029 -0.67142,0.80238 -0.92408,1.27161 -1.15951,2.92697 -1.81575,4.32409 -0.60499,1.78123 -1.10414,3.59907 -1.69431,5.38514 -2.0261,-3.3384 -3.8016,-6.82631 -5.06834,-10.53287 -0.79977,-2.69139 -1.07672,-3.30779 -1.52865,-6.08421 -0.61247,-3.76248 -0.56678,-7.58896 -0.35242,-11.38186 0.12729,-4.62125 0.69151,-4.43087 -7.749487,-7.49991 -1.871054,-0.68029 -2.544988,4.92196 -2.662634,5.55512 -0.177281,0.9541 -0.365763,1.90649 -0.548452,2.85956 -1.77303,8.73878 -3.805381,17.43021 -5.232365,26.23493 -0.14256,1.06254 -0.923376,6.81855 -1.045924,7.97643 -0.159566,1.50784 -0.267782,3.02414 -0.393923,4.53822 -0.96351,-1.95945 -1.836596,-3.96448 -2.617886,-6.00829 -0.497916,-1.44889 -1.047225,-2.88153 -1.49389,-4.34701 -2.708483,-8.88622 -4.127049,-18.11014 -4.939455,-27.34534 -0.293429,-4.82065 -0.460778,-6.00258 -0.381188,-10.79197 0.05778,-3.47745 0.235408,-5.17847 0.610275,-8.53484 0.121077,-1.08399 0.290924,-2.16231 0.399803,-3.24758 0.07953,-0.7928 0.109954,-1.58937 0.165017,-2.38422 -2.516348,-2.11447 -4.618235,-4.85541 -7.548727,-6.3437303 -0.715278,-0.36326 -1.283937,0.9826503 -1.804045,1.5934403 -0.510927,0.60005 -0.914373,2.17055 -1.124768,2.8418 -0.887442,2.83143 -0.484171,1.52417 -1.425697,4.66269 -2.673508,8.58384 -5.31897,17.17782 -7.738859,25.83721 -1.286408,5.44083 -2.584622,10.87844 -3.385816,16.41804 -0.211644,1.46337 -0.338702,2.57124 -0.435969,3.6195 -0.24636,-1.20201 -0.471384,-2.40816 -0.674677,-3.61914 -0.181465,-1.36667 -0.396834,-2.72928 -0.544414,-4.10001 -0.630307,-5.8542 -0.631371,-11.7562 -0.155663,-17.62116 0.224986,-3.15446 0.437405,-6.30535 0.607967,-9.46306 0.04607,-0.85294 0.8617,-2.10031 0.140846,-2.55855 -2.645012,-1.68141 -5.937749,-2.0089 -8.906615,-3.01343 -0.237701,0.32126 -0.503799,0.62319 -0.713022,0.9637 -0.251542,0.40936 -0.534171,1.25827 -0.703692,1.68708 -0.579958,1.46707 -1.236352,2.90172 -1.895982,4.33419 -2.131153,4.79411 -4.145845,9.6355 -5.840034,14.60458 -1.012921,2.96126 -2.057524,5.91323 -3.030475,8.88799 -0.06907,0.21117 -0.13234,0.40547 -0.190636,0.58403 0.0143,-2.71971 0.3547,-5.4248 0.972577,-8.08091 0.656284,-2.49984 0.655848,-2.67668 1.45547,-5.05639 0.63622,-1.8934 1.474897,-3.78849 1.876093,-5.7552 0.128349,-0.62918 0.163591,-1.27341 0.245463,-1.91031 -2.973916,-1.19951 -5.846712,-2.68954 -8.921794,-3.59885 -0.312442,-0.0924 -0.401106,0.51501 -0.574942,0.79058 -0.505211,0.80083 -0.765953,1.76542 -1.288966,2.56029 -0.62363,1.01098 -1.760231,2.9964 -3.068037,3.1153 -1.451345,-0.19011 -2.872208,-0.40425 -4.173258,-1.14424 -0.310954,-0.17647 -0.67168,-0.39539 -1.044208,-0.62876 -0.605529,-0.5655 -1.182141,-1.16432 -1.742751,-1.76891 -2.217221,-2.44741 -5.214754,-5.4723 -7.8629733,-7.72155 l -7.7156494,-2.52002 c 1.6550542,3.27811 4.079444,7.73327 6.1388982,10.57043 1.3715552,1.89076 2.9627425,3.59127 4.6426015,5.20708 2.792261,1.58779 5.395062,4.29043 8.524765,5.56958 0.531466,0.2172 1.302874,0.4025 1.83937,0.54634 0.967203,0.28865 1.952091,0.41882 2.949901,0.47025 -0.547354,2.78598 -0.896724,5.6088 -0.915966,8.45361 -0.0099,1.45857 0.117981,3.22774 0.205513,4.69493 0.279892,3.07454 0.858673,6.09714 1.909552,8.99963 1.306248,3.55797 0.886636,3.37371 7.975296,4.97217 0.805857,0.18169 1.392593,-0.91175 1.972721,-1.49985 1.420641,-1.43996 2.143928,-3.87304 2.842846,-5.71158 1.174483,-3.32113 1.909395,-6.77144 2.941989,-10.13554 0.805553,-2.62442 1.067434,-3.26243 1.983412,-5.81377 0.235453,-0.67408 0.477292,-1.34556 0.725076,-2.01461 0.02697,0.89148 0.06767,1.78273 0.126086,2.67371 0.224402,3.42267 0.493101,4.98511 0.950194,8.41511 0.271528,1.48465 0.520061,2.97375 0.814312,4.45405 0.390807,1.96615 1.349176,6.20935 1.811389,8.25393 0.566511,2.50589 1.134653,4.98646 1.874807,7.44604 1.336887,3.45796 1.386743,4.35293 7.386509,6.35394 1.031714,0.34407 2.001067,-0.95784 2.764459,-1.73246 1.789214,-1.81569 1.897221,-5.61217 2.090756,-7.93016 0.143041,-7.57174 0.550162,-15.15815 2.064617,-22.59665 0.366767,-1.80142 0.848629,-3.57775 1.273038,-5.3665 1.117153,-3.97977 2.329966,-7.93319 3.623552,-11.86036 0.05343,0.85141 0.110992,1.75674 0.172331,2.7618 0.797321,9.44863 2.301859,18.86117 4.646624,28.05371 0.387024,1.51729 0.837096,3.018 1.255612,4.52691 1.657507,5.58413 4.056961,10.90963 6.811778,16.02998 0.290996,0.74658 0.842285,1.36083 1.168558,2.089 1.683176,3.75659 -1.768771,3.19376 9.415862,3.09222 0.648474,-0.006 1.254295,-3.55737 1.331306,-3.92189 0.679013,-5.10772 0.681728,-10.27201 1.140831,-15.39957 0.121128,-1.35012 0.292934,-2.6954 0.43934,-4.04301 0.464541,-4.11635 1.155236,-8.1986 1.991694,-12.25264 1.339083,4.11317 3.158083,8.04286 5.159923,11.87562 0.85728,1.4415 1.62289,2.95407 2.57795,4.33653 0.30499,0.44159 0.64601,0.85731 0.95465,1.29635 3.44888,4.63824 7.00495,6.78357 10.31021,2.75392 0.64597,-0.78759 1.05209,-1.88546 1.45315,-2.80065 0.88694,-2.37945 1.66753,-4.79593 2.48189,-7.2008 2.74879,2.34951 5.80891,4.35721 8.75085,6.43643 2.02134,1.3425 4.26321,2.25655 6.62501,2.77855 1.35264,0.26738 2.76781,0.0714 4.08052,-0.31584 1.4582,-0.49518 2.94916,-0.88571 4.40639,-1.39013 2.53919,-0.61823 4.88318,-1.81926 7.28988,-2.80509 3.98136,-1.42914 7.58871,-3.52653 11.28366,-5.52089 3.41079,-1.8939 6.61722,-4.17425 9.32379,-7.00217 0.65323,-0.68251 1.24627,-1.42061 1.86921,-2.13087 2.00172,-2.37904 3.62777,-5.03505 5.21113,-7.70071 0.84976,-1.43052 2.00391,-3.41561 2.7282,-4.92899 0.39562,-0.82666 0.72756,-1.68245 1.09125,-2.52363 1.87654,-4.57224 2.86455,-9.39772 3.49216,-14.27778 0.29724,-3.10826 0.33803,-6.31094 -0.36402,-9.37587 -0.47591,-2.07784 -0.82694,-2.68234 -1.63862,-4.59569 -2.46286,-4.6655803 -6.84309,-8.2483803 -11.78277,-10.1196703 -1.57546,-0.59683 -2.231,-0.67353 -3.86677,-1.02459 -0.48681,-0.10452 -0.97899,-0.1884 -1.47399,-0.25191 z m 1.3931,8.3864203 c 4.10984,0.44689 6.68971,1.74298 8.33667,5.72741 0.92981,2.54943 0.87301,5.3369 0.76804,8.00078 -0.40774,4.47686 -1.2301,8.92643 -2.82505,13.14512 -0.30092,0.74729 -0.5745,1.50631 -0.90318,2.24181 -1.86572,4.17503 -4.30342,8.13688 -7.2477,11.63199 -0.5627,0.59184 -1.10412,1.20454 -1.68818,1.7753 -2.52382,2.4664 -5.47268,4.44323 -8.56499,6.12032 -4.13901,2.22976 -8.76772,-2.94458 -12.67157,-9.48888 -1.26021,-2.1765 -2.48947,-4.48459 -2.70894,-7.03092 -0.0269,-0.66604 -0.0884,-1.48888 -0.008,-2.15918 0.22645,-1.89414 0.80828,-3.82061 1.09456,-5.70998 0.84854,-3.50841 1.91412,-6.97385 3.28501,-10.31507 1.45299,-2.953 3.06204,-5.82562 5.5704,-8.03086 1.1568,-0.97287 1.46252,-1.31078 2.77804,-2.08921 2.34438,-1.38724 4.99994,-2.17239 7.59366,-2.9331 1.21044,-0.30864 2.65205,-0.71878 3.90419,-0.87954 1.10347,-0.14171 2.20125,-0.13225 3.28726,-0.006 z"
       sodipodi:nodetypes="sscscccccccccccccscscccscssccsccscssscsssccsccscsscssccsccsscsscccccccccsccsccsscsccscsscsscscccsccsscccccscsccccccccscssccscsssscccscscccccccscsssc" />
  </g>
</svg>
