<?xml version="1.0" encoding="UTF-8"?>
<!-- Created with Inkscape (http://www.inkscape.org/) -->
<svg width="210mm" height="297mm" version="1.1" viewBox="0 0 210 297" xmlns="http://www.w3.org/2000/svg">
 <g transform="matrix(1.6226 0 0 1.6226 -67.412 -257.61)">
  <g transform="matrix(1.279 0 0 1.2834 -136.73 72.395)" stroke="#000" stroke-width=".78054">
   <rect x="162.72" y="150.81" width="23.813" height="17.198" fill="#906e47" stop-color="#000000" stroke-width=".62444" style="-inkscape-stroke:none;font-variation-settings:normal"/>
   <rect x="164.04" y="162.72" width="21.167" height="3.9688" fill="#976e36" stop-color="#000000" stroke-width=".62444" style="-inkscape-stroke:none;font-variation-settings:normal"/>
   <g fill="#00b9b5">
    <rect x="164.04" y="157.43" width="21.167" height="3.9688" stop-color="#000000" stroke-width=".62444" style="-inkscape-stroke:none;font-variation-settings:normal"/>
    <rect x="164.04" y="152.14" width="21.167" height="3.9688" stop-color="#000000" stroke-width=".62444" style="-inkscape-stroke:none;font-variation-settings:normal"/>
    <g stroke-linecap="round">
     <g stroke-width=".62444">
      <path d="m173.3 164.04h2.6458" style="font-variation-settings:normal"/>
      <path d="m173.3 158.75h2.6458" style="font-variation-settings:normal"/>
      <path d="m173.3 153.46h2.6458" style="font-variation-settings:normal"/>
     </g>
     <rect x="186.53" y="150.81" width="2.6458" height="17.198" stroke-width=".62443" style="font-variation-settings:normal"/>
    </g>
   </g>
  </g>
  <g transform="rotate(-12.601 -125.79 104.85)" stroke="#000" stroke-linecap="round" stroke-width=".8">
   <rect x="76.729" y="283.1" width="6.6146" height="5.2917" fill="#cda063" style="-inkscape-stroke:none;font-variation-settings:normal"/>
   <rect x="83.344" y="283.1" width="2.6458" height="5.2917" fill="#906e47" stop-color="#000000" style="-inkscape-stroke:none;font-variation-settings:normal"/>
  </g>
  <g transform="rotate(-12.601 -121.76 181.33)" stroke="#000" stroke-linecap="round" stroke-width=".8">
   <rect x="76.729" y="283.1" width="6.6146" height="5.2917" fill="#cda063" style="-inkscape-stroke:none;font-variation-settings:normal"/>
   <rect x="83.344" y="283.1" width="2.6458" height="5.2917" fill="#906e47" stop-color="#000000" style="-inkscape-stroke:none;font-variation-settings:normal"/>
  </g>
  <g transform="translate(13.229 -18.521)" stroke="#000" stroke-linecap="round" stroke-width=".8">
   <rect x="76.729" y="283.1" width="6.6146" height="5.2917" fill="#cda063" style="-inkscape-stroke:none;font-variation-settings:normal"/>
   <rect x="83.344" y="283.1" width="2.6458" height="5.2917" fill="#906e47" stop-color="#000000" style="-inkscape-stroke:none;font-variation-settings:normal"/>
  </g>
  <g transform="rotate(14.478 11.729 186.13)" stroke="#000" stroke-linecap="round" stroke-width=".8">
   <rect x="124.35" y="209.02" width="7.9375" height="1.3229" fill="#375caf" stop-color="#000000" style="-inkscape-stroke:none;font-variation-settings:normal"/>
   <rect x="132.29" y="209.02" width="2.6458" height="1.3229" fill="#263b70" stop-color="#000000" style="-inkscape-stroke:none;font-variation-settings:normal"/>
   <rect x="125.68" y="207.7" width="5.2917" height="1.3229" fill="#375caf" stop-color="#000000" style="-inkscape-stroke:none;font-variation-settings:normal"/>
   <rect x="130.97" y="207.7" width="2.6458" height="1.3229" fill="#263b70" stop-color="#000000" style="-inkscape-stroke:none;font-variation-settings:normal"/>
  </g>
  <g transform="rotate(5.5029 -663.19 933.06)" stroke="#000" stroke-linecap="round" stroke-width=".8">
   <path d="m43.656 168.01v-21.167h1.3229v21.167z" fill="#ced2d2" stop-color="#000000" style="-inkscape-stroke:none;font-variation-settings:normal"/>
   <path d="m39.688 146.84h9.2604l-2.6458-6.6146h-3.9687z" fill="#009d35"/>
   <path d="m39.688 168.01 1.3229-1.3229h6.6146l1.3229 1.3229z" fill="#00b9b5"/>
   <path d="m46.302 146.84 0.38072 3.9518" fill="#00b9b5"/>
  </g>
  <g transform="rotate(-37.849 263.51 232.89)" stroke="#000" stroke-linecap="round">
   <g fill="#00b9b5" stroke-width=".8">
    <rect x="144.2" y="158.75" width="9.2604" height="1.3229" style="-inkscape-stroke:none;font-variation-settings:normal"/>
    <rect x="144.2" y="160.41" width="1.3942" height="7.599" style="-inkscape-stroke:none;font-variation-settings:normal"/>
    <rect x="152.14" y="160.07" width="1.3229" height="7.9375" style="-inkscape-stroke:none;font-variation-settings:normal"/>
   </g>
   <g stroke-width=".8">
    <rect x="153.46" y="158.75" width="5.2917" height="1.3229" fill="#ced2d2" stop-color="#000000" style="-inkscape-stroke:none;font-variation-settings:normal"/>
    <rect x="157.43" y="160.07" width="1.3229" height="7.9375" fill="#a0a4a4" stop-color="#000000" style="-inkscape-stroke:none;font-variation-settings:normal"/>
    <rect x="149.49" y="160.07" width="1.3229" height="7.9375" fill="#00b9b5" style="-inkscape-stroke:none;font-variation-settings:normal"/>
    <path d="m156.1 146.84h-3.9687c-1.4613 0-2.6458 1.1846-2.6458 2.6458v9.2604h9.2604v-9.2604c0-1.4612-1.1846-2.6458-2.6458-2.6458z" fill="#ced2d2" stop-color="#000000" style="-inkscape-stroke:none;font-variation-settings:normal"/>
   </g>
   <g fill="#fff">
    <rect x="150.81" y="152.14" width="1.3229" height="6.6146" stroke-width=".8" style="-inkscape-stroke:none;font-variation-settings:normal"/>
    <rect x="156.1" y="152.14" width="1.3229" height="6.6146" stroke-width=".8" style="-inkscape-stroke:none;font-variation-settings:normal"/>
    <rect x="153.46" y="149.49" width="1.3229" height="9.2604" stroke-width=".8" style="-inkscape-stroke:none;font-variation-settings:normal"/>
   </g>
  </g>
  <g transform="rotate(13.601 -198.15 -43.634)" stroke="#000" stroke-linecap="round">
   <g stroke-width=".8">
    <rect x="144.2" y="158.75" width="9.2604" height="1.3229" fill="#ced2d2" stop-color="#000000" style="-inkscape-stroke:none;font-variation-settings:normal"/>
    <rect x="144.2" y="160.41" width="1.3942" height="7.599" fill="#a0a4a4" stop-color="#000000" style="-inkscape-stroke:none;font-variation-settings:normal"/>
    <rect x="152.14" y="160.07" width="1.3229" height="7.9375" fill="#a0a4a4" stop-color="#000000" style="-inkscape-stroke:none;font-variation-settings:normal"/>
    <rect x="153.46" y="158.75" width="5.2917" height="1.3229" fill="#6f7373" stop-color="#000000" style="-inkscape-stroke:none;font-variation-settings:normal"/>
    <rect x="157.43" y="160.07" width="1.3229" height="7.9375" fill="#00b9b5" style="-inkscape-stroke:none;font-variation-settings:normal"/>
    <rect x="149.49" y="160.07" width="1.3229" height="7.9375" fill="#6f7373" stop-color="#000000" style="-inkscape-stroke:none;font-variation-settings:normal"/>
    <path d="m156.1 146.84h-3.9687c-1.4613 0-2.6458 1.1846-2.6458 2.6458v9.2604h9.2604v-9.2604c0-1.4612-1.1846-2.6458-2.6458-2.6458z" fill="#ced2d2" stop-color="#000000" style="-inkscape-stroke:none;font-variation-settings:normal"/>
   </g>
   <g fill="#fff">
    <rect x="150.81" y="152.14" width="1.3229" height="6.6146" stroke-width=".8" style="-inkscape-stroke:none;font-variation-settings:normal"/>
    <rect x="156.1" y="152.14" width="1.3229" height="6.6146" stroke-width=".8" style="-inkscape-stroke:none;font-variation-settings:normal"/>
    <rect x="153.46" y="149.49" width="1.3229" height="9.2604" stroke-width=".8" style="-inkscape-stroke:none;font-variation-settings:normal"/>
   </g>
  </g>
  <g transform="rotate(-4.6692 1215.5 -615.61)" stroke="#000">
   <path d="m22.49 145.52c-1.4613 0-2.6458 1.1846-2.6458 2.6458v11.906h11.906v-11.906c0-1.4612-1.1846-2.6458-2.6458-2.6458z" fill="#5e4237" stop-color="#000000" stroke-linecap="round" stroke-width=".8" style="-inkscape-stroke:none;font-variation-settings:normal"/>
   <rect x="10.583" y="159.34" width="17.198" height="8.6658" fill="#00b9b5" stroke-linecap="round" stroke-width=".8"/>
   <path d="m34.396 153.46-6.6146 1e-5v14.552h6.6146c1.4613 0 2.6458-1.1846 2.6458-2.6458v-9.2604c0-1.4613-1.1846-2.6458-2.6458-2.6458z" fill="#00b9b5" stroke-width=".8"/>
   <g stroke-width=".8">
    <g>
     <path d="m10.583 153.46a2.6458 2.6458 0 0 0-2.6458 2.6458v9.2604a2.6458 2.6458 0 0 0 2.6458 2.6458 2.6458 2.6458 0 0 0 2.6458-2.6458v-9.2604a2.6458 2.6458 0 0 0-2.6458-2.6458z" fill="#5e4237" stop-color="#000000" stroke-linecap="round" style="-inkscape-stroke:none;font-variation-settings:normal"/>
     <rect x="9.9219" y="152.8" width="7.9375" height="6.6146" fill="#5e4237" stop-color="#000000" stroke-linecap="round" style="-inkscape-stroke:none;font-variation-settings:normal"/>
     <path d="m19.844 145.52c-1.4613 0-2.6458 1.1846-2.6458 2.6458v11.906h11.906v-11.906c0-1.4612-1.1846-2.6458-2.6458-2.6458z" fill="#916546" stop-color="#000000" style="-inkscape-stroke:none;font-variation-settings:normal"/>
     <path d="m27.781 153.46a2.6458 2.6458 0 0 0-2.6458 2.6458v9.2604a2.6458 2.6458 0 0 0 2.6458 2.6458 2.6458 2.6458 0 0 0 2.6458-2.6458v-9.2604a2.6458 2.6458 0 0 0-2.6458-2.6458z" fill="#5e4237" stop-color="#000000" stroke-linecap="round" style="-inkscape-stroke:none;font-variation-settings:normal"/>
    </g>
    <path d="m10.583 165.36v-6.6146" fill="#00b9b5" stroke-linecap="round"/>
    <circle cx="9.9219" cy="156.1" r="3.3073" fill="#916546"/>
   </g>
   <path d="m28.443 152.8v6.6146l7.276-0.0855c1.8264-0.0215 3.3073-1.4807 3.3073-3.3073 5e-6 -1.8266-1.4808-3.3288-3.3073-3.3073z" fill="#00b9b5" stroke-linecap="round" stroke-width=".80664"/>
   <g stroke-width=".8">
    <path d="m27.781 165.36v-6.6146" fill="#00b9b5" stroke-linecap="round"/>
    <g>
     <circle cx="28.443" cy="156.1" r="3.3073" fill="#916546" stop-color="#000000" style="-inkscape-stroke:none;font-variation-settings:normal"/>
     <rect x="13.229" y="160.07" width="11.906" height="7.9375" fill="#5e4237" stop-color="#000000" stroke-linecap="round" style="-inkscape-stroke:none;font-variation-settings:normal"/>
     <path d="m25.135 160.07c-2e-6 -1.4612-1.1846-2.6458-2.6458-2.6458h-6.6146c-1.4613 0-2.6458 1.1846-2.6458 2.6458z" fill="#916546" stop-color="#000000" style="-inkscape-stroke:none;font-variation-settings:normal"/>
    </g>
    <path d="m19.844 148.17h6.6146" fill="#00b9b5" stroke-linecap="round"/>
    <path d="m19.844 152.14h6.6146" fill="#00b9b5" stroke-linecap="round"/>
   </g>
  </g>
  <g transform="rotate(9.4931 -245.2 692.97)" stroke="#000" stroke-linecap="round" stroke-width=".8">
   <rect x="19.844" y="177.27" width="7.9375" height="33.073" fill="#cda063" stop-color="#000000" style="-inkscape-stroke:none;font-variation-settings:normal"/>
   <g fill="#00b9b5">
    <rect x="21.167" y="205.05" width="5.2917" height="3.9688" style="font-variation-settings:normal"/>
    <rect x="21.167" y="199.76" width="5.2917" height="3.9688" style="font-variation-settings:normal"/>
    <rect x="21.167" y="194.47" width="5.2917" height="3.9688" style="font-variation-settings:normal"/>
   </g>
   <g fill="#644d34">
    <rect x="21.167" y="189.18" width="5.2917" height="3.9688" stop-color="#000000" style="-inkscape-stroke:none;font-variation-settings:normal"/>
    <rect x="21.167" y="183.89" width="5.2917" height="3.9688" stop-color="#000000" style="-inkscape-stroke:none;font-variation-settings:normal"/>
    <rect x="21.167" y="178.59" width="5.2917" height="3.9688" stop-color="#000000" style="-inkscape-stroke:none;font-variation-settings:normal"/>
   </g>
   <path transform="rotate(22.729)" d="m98.081 167.38a1.3229 1.3229 0 0 1-0.66146 1.1457 1.3229 1.3229 0 0 1-1.3229 0 1.3229 1.3229 0 0 1-0.66146-1.1457h1.3229z" fill="#0066b4" style="font-variation-settings:normal"/>
   <rect x="25.135" y="183.89" width="1.3229" height="3.9687" fill="#00766b" style="font-variation-settings:normal"/>
   <rect x="22.49" y="185.21" width="1.3229" height="2.6458" fill="#c04c6e" style="font-variation-settings:normal"/>
   <rect x="23.812" y="185.21" width="1.3229" height="2.6458" fill="#307550" style="font-variation-settings:normal"/>
   <g fill="#00b9b5">
    <rect x="25.135" y="194.47" width="1.3229" height="3.9688" style="font-variation-settings:normal"/>
    <rect x="23.812" y="195.79" width="1.3229" height="2.6458" style="font-variation-settings:normal"/>
    <rect x="22.49" y="194.47" width="1.3229" height="3.9688" style="font-variation-settings:normal"/>
    <rect x="21.167" y="201.08" width="1.3229" height="2.6458" style="font-variation-settings:normal"/>
    <rect x="22.49" y="201.08" width="1.3229" height="2.6458" style="font-variation-settings:normal"/>
    <rect x="23.812" y="199.76" width="1.3229" height="3.9688" style="font-variation-settings:normal"/>
    <rect x="25.135" y="201.08" width="1.3229" height="2.6458" style="font-variation-settings:normal"/>
    <rect x="21.167" y="206.38" width="2.6458" height="2.6458" style="font-variation-settings:normal"/>
    <rect x="23.812" y="205.05" width="1.3229" height="3.9688" style="font-variation-settings:normal"/>
    <rect x="25.135" y="206.38" width="1.3229" height="2.6458" style="font-variation-settings:normal"/>
   </g>
   <circle cx="24.842" cy="181.16" r="1.3229" fill="#ba4000" style="font-variation-settings:normal"/>
   <rect x="27.781" y="177.27" width="3.9688" height="33.073" fill="#906e47" stop-color="#000000" style="-inkscape-stroke:none;font-variation-settings:normal"/>
  </g>
  <g transform="rotate(6.9302 -658.52 215.31)" stroke="#000">
   <g stroke-linecap="round" stroke-width=".8">
    <path d="m109.8 145.52c-1.4613 0-2.6458 1.1846-2.6458 2.6458v11.906l27.781-2e-5v-11.906c0-1.4612-1.1846-2.6458-2.6458-2.6458z" fill="#008786" stop-color="#000000" style="-inkscape-stroke:none;font-variation-settings:normal"/>
    <rect x="97.896" y="159.34" width="31.75" height="8.6658" fill="#00b9b5"/>
    <g>
     <path d="m136.26 153.46-6.6146 1e-5v14.552h6.6146c1.4612 0 2.6458-1.1846 2.6458-2.6458v-9.2604c0-1.4613-1.1846-2.6458-2.6458-2.6458z" fill="#008786" stop-color="#000000" style="-inkscape-stroke:none;font-variation-settings:normal"/>
     <path d="m97.896 153.46a2.6458 2.6458 0 0 0-2.6458 2.6458v9.2604a2.6458 2.6458 0 0 0 2.6458 2.6458 2.6458 2.6458 0 0 0 2.6458-2.6458v-9.2604a2.6458 2.6458 0 0 0-2.6458-2.6458z" fill="#007372" stop-color="#000000" style="-inkscape-stroke:none;font-variation-settings:normal"/>
     <rect x="97.234" y="152.8" width="7.9375" height="6.6146" fill="#008786" stop-color="#000000" style="-inkscape-stroke:none;font-variation-settings:normal"/>
    </g>
   </g>
   <path d="m107.16 145.52c-1.4613 0-2.6458 1.1846-2.6458 2.6458v11.906l27.781-1e-5v-11.906c0-1.4612-1.1846-2.6458-2.6458-2.6458z" fill="#00b9b5" stroke-width=".8"/>
   <g stroke-width=".8">
    <g stroke-linecap="round">
     <path d="m129.65 153.46a2.6458 2.6458 0 0 0-2.6458 2.6458v9.2604a2.6458 2.6458 0 0 0 2.6458 2.6458 2.6458 2.6458 0 0 0 2.6458-2.6458v-9.2604a2.6458 2.6458 0 0 0-2.6458-2.6458z" fill="#007372" stop-color="#000000" style="-inkscape-stroke:none;font-variation-settings:normal"/>
     <rect x="100.54" y="160.07" width="13.229" height="7.9375" fill="#007372" stop-color="#000000" style="-inkscape-stroke:none;font-variation-settings:normal"/>
     <path d="m97.896 165.36v-6.6146" fill="#00b9b5"/>
    </g>
    <circle cx="97.234" cy="156.1" r="3.3073" fill="#00b9b5"/>
    <path d="m130.31 152.8v6.6146l7.276-0.0855c1.8264-0.0215 3.3073-1.4807 3.3073-3.3073 0-1.8266-1.4808-3.3288-3.3073-3.3073z" fill="#008786" stop-color="#000000" stroke-linecap="round" style="-inkscape-stroke:none;font-variation-settings:normal"/>
   </g>
   <g fill="#00b9b5">
    <path d="m129.65 165.36v-6.6146" stroke-linecap="round" stroke-width=".8"/>
    <circle cx="130.31" cy="156.1" r="3.3073" stroke-width=".8"/>
    <path d="m113.77 160.07c0-1.4612-1.1846-2.6458-2.6458-2.6458l-7.9375 1e-5c-1.4613 0-2.6458 1.1846-2.6458 2.6458z" stroke-width=".8"/>
    <g stroke-linecap="round" stroke-width=".8">
     <path d="m107.16 148.17 21.167-1e-5"/>
     <path d="m107.16 152.14 7.9375-1e-5"/>
     <path d="m120.39 152.14 7.9375-1e-5"/>
    </g>
    <path d="m127 160.07c0-1.4612-1.1846-2.6458-2.6458-2.6458l-7.9375 1e-5c-1.4613 0-2.6458 1.1846-2.6458 2.6458z" stroke-width=".8"/>
   </g>
   <rect x="113.77" y="160.07" width="13.229" height="7.9375" fill="#007372" stop-color="#000000" stroke-linecap="round" stroke-width=".8" style="-inkscape-stroke:none;font-variation-settings:normal"/>
  </g>
  <g transform="rotate(-4.7194 912.54 342.59)">
   <g stroke="#000">
    <g stroke-linecap="round" stroke-width=".8">
     <rect x="78.052" y="195.79" width="1.3942" height="14.383" fill="#cda063" stop-color="#000000" style="-inkscape-stroke:none;font-variation-settings:normal"/>
     <rect x="79.446" y="195.79" width="9.2604" height="14.383" fill="#906e47" stop-color="#000000" style="-inkscape-stroke:none;font-variation-settings:normal"/>
     <rect transform="rotate(90)" x="194.47" y="-117.74" width="1.3942" height="34.396" fill="#00b9b5" style="-inkscape-stroke:none;font-variation-settings:normal"/>
     <rect x="104.58" y="195.96" width="9.2604" height="14.383" fill="#906e47" stop-color="#000000" style="-inkscape-stroke:none;font-variation-settings:normal"/>
     <rect transform="rotate(90)" x="194.47" y="-108.48" width="1.3942" height="34.396" fill="#cda063" stop-color="#000000" style="-inkscape-stroke:none;font-variation-settings:normal"/>
     <rect x="103.19" y="195.96" width="1.3942" height="14.383" fill="#cda063" stop-color="#000000" style="-inkscape-stroke:none;font-variation-settings:normal"/>
     <path d="m78.052 194.47c2.1857 0 3.9688-1.783 3.9688-3.9688 3e-6 2.1857 1.7831 3.9688 3.9688 3.9688z" fill="#ced2d2" stop-color="#000000" style="-inkscape-stroke:none;font-variation-settings:normal"/>
    </g>
    <path d="m82.021 190.5v-5.2917" fill="none" stroke-linecap="round" stroke-linejoin="round" stroke-width=".8" style="font-variation-settings:normal"/>
    <g>
     <path d="m87.312 187.85c0-1.4612-1.1846-2.6458-2.6458-2.6458h-2.6458c-1.4613 0-2.6458 1.1846-2.6458 2.6458z" fill="#009d35" stroke-width=".8"/>
     <g stroke-linecap="round" stroke-width=".8">
      <rect x="103.19" y="193.15" width="7.9375" height="1.3229" fill="#307550" stop-color="#000000" style="-inkscape-stroke:none;font-variation-settings:normal"/>
      <rect x="111.12" y="193.15" width="2.6458" height="1.3229" fill="#00b9b5" style="-inkscape-stroke:none;font-variation-settings:normal"/>
      <rect x="104.51" y="191.82" width="5.2917" height="1.3229" fill="#5da256" stop-color="#000000" style="-inkscape-stroke:none;font-variation-settings:normal"/>
      <rect x="109.8" y="191.82" width="2.6458" height="1.3229" fill="#00b9b5" style="-inkscape-stroke:none;font-variation-settings:normal"/>
     </g>
    </g>
    <path d="m85.99 187.85-0.11042 1.3375" fill="none" stroke-linecap="round" stroke-linejoin="round" stroke-width=".8" style="font-variation-settings:normal"/>
   </g>
  </g>
  <g transform="translate(93.927 78.052)" stroke="#000" stroke-linecap="round">
   <rect x="5.2917" y="177.27" width="7.9375" height="33.073" fill="#ced2d2" stroke-width=".8" style="font-variation-settings:normal"/>
   <g fill="#a0a4a4" stroke-width=".8">
    <rect x="6.6146" y="205.05" width="5.2917" height="3.9688" stop-color="#000000" style="-inkscape-stroke:none;font-variation-settings:normal"/>
    <rect x="6.6146" y="199.76" width="5.2917" height="3.9688" stop-color="#000000" style="-inkscape-stroke:none;font-variation-settings:normal"/>
    <rect x="6.6146" y="194.47" width="5.2917" height="3.9688" stop-color="#000000" style="-inkscape-stroke:none;font-variation-settings:normal"/>
    <rect x="6.6146" y="189.18" width="5.2917" height="3.9688" stop-color="#000000" style="-inkscape-stroke:none;font-variation-settings:normal"/>
    <rect x="6.6146" y="183.89" width="5.2917" height="3.9688" stop-color="#000000" style="-inkscape-stroke:none;font-variation-settings:normal"/>
    <rect x="6.6146" y="178.59" width="5.2917" height="3.9688" style="font-variation-settings:normal"/>
   </g>
   <g fill="#00b9b5" stroke-width=".8">
    <path d="m7.9375 206.38h2.6458" style="font-variation-settings:normal"/>
    <path d="m7.9375 201.08h2.6458" style="font-variation-settings:normal"/>
    <path d="m7.9375 195.79h2.6458" style="font-variation-settings:normal"/>
    <path d="m7.9375 190.5h2.6458" style="font-variation-settings:normal"/>
    <path d="m7.9375 185.21h2.6458" style="font-variation-settings:normal"/>
    <path d="m7.9375 179.92h2.6458" style="font-variation-settings:normal"/>
   </g>
   <rect x="13.229" y="177.27" width="3.9688" height="33.073" fill="#636767" stop-color="#000000" stroke-width=".8" style="-inkscape-stroke:none;font-variation-settings:normal"/>
  </g>
  <g transform="translate(74.745 78.052)" stroke="#000" stroke-linecap="round" stroke-width=".8">
   <rect x="34.396" y="182.56" width="31.75" height="27.781" fill="#cda063" stop-color="#000000" style="-inkscape-stroke:none;font-variation-settings:normal"/>
   <g fill="#644d34">
    <rect x="35.719" y="203.73" width="29.104" height="5.2916" stop-color="#000000" style="-inkscape-stroke:none;font-variation-settings:normal"/>
    <rect x="35.719" y="197.11" width="29.104" height="5.2916" stop-color="#000000" style="-inkscape-stroke:none;font-variation-settings:normal"/>
    <rect x="35.719" y="190.5" width="29.104" height="5.2916" stop-color="#000000" style="-inkscape-stroke:none;font-variation-settings:normal"/>
    <rect x="35.719" y="183.89" width="29.104" height="5.2916" stop-color="#000000" style="-inkscape-stroke:none;font-variation-settings:normal"/>
   </g>
   <rect x="35.719" y="205.05" width="1.3229" height="3.9688" fill="#a47b36" stop-color="#000000" style="-inkscape-stroke:none;font-variation-settings:normal"/>
   <rect x="37.042" y="205.05" width="1.3229" height="3.9688" fill="#a47b36" stop-color="#000000" style="-inkscape-stroke:none;font-variation-settings:normal"/>
   <g fill="#00b9b5">
    <rect x="38.365" y="205.05" width="1.3229" height="3.9688" style="font-variation-settings:normal"/>
    <rect x="39.687" y="206.37" width="1.3229" height="2.6458" style="font-variation-settings:normal"/>
    <rect x="41.01" y="206.37" width="1.3229" height="2.6458" style="font-variation-settings:normal"/>
    <rect x="42.333" y="203.73" width="1.3229" height="5.2917" style="font-variation-settings:normal"/>
    <rect x="43.656" y="205.05" width="1.3229" height="3.9688" style="font-variation-settings:normal"/>
    <rect x="44.979" y="205.05" width="1.3229" height="3.9688" style="font-variation-settings:normal"/>
   </g>
   <rect x="46.302" y="203.73" width="1.3229" height="5.2917" fill="#a47b36" stop-color="#000000" style="-inkscape-stroke:none;font-variation-settings:normal"/>
   <rect x="47.625" y="205.05" width="1.3229" height="3.9688" fill="#00b9b5" style="font-variation-settings:normal"/>
   <rect x="48.948" y="203.73" width="1.3229" height="5.2917" fill="#00b9b5" style="font-variation-settings:normal"/>
   <rect x="50.271" y="203.73" width="2.6458" height="5.2917" fill="#5da256" stop-color="#000000" style="-inkscape-stroke:none;font-variation-settings:normal"/>
   <rect x="52.917" y="205.05" width="1.3229" height="3.9688" fill="#375caf" stop-color="#000000" style="-inkscape-stroke:none;font-variation-settings:normal"/>
   <g fill="#a52b55">
    <rect x="54.24" y="206.37" width="1.3229" height="2.6458" stop-color="#000000" style="-inkscape-stroke:none;font-variation-settings:normal"/>
    <rect x="55.562" y="206.37" width="1.3229" height="2.6458" stop-color="#000000" style="-inkscape-stroke:none;font-variation-settings:normal"/>
    <rect x="56.885" y="206.37" width="1.3229" height="2.6458" stop-color="#000000" style="-inkscape-stroke:none;font-variation-settings:normal"/>
   </g>
   <rect x="58.208" y="203.73" width="2.6458" height="5.2917" fill="#5da256" stop-color="#000000" style="-inkscape-stroke:none;font-variation-settings:normal"/>
   <rect x="60.854" y="203.73" width="1.3229" height="5.2917" fill="#c04c6e" stop-color="#000000" style="-inkscape-stroke:none;font-variation-settings:normal"/>
   <rect x="62.177" y="203.73" width="1.3229" height="5.2917" fill="#00b9b5" style="font-variation-settings:normal"/>
   <rect x="63.5" y="205.05" width="1.3229" height="3.9688" fill="#375caf" stop-color="#000000" style="-inkscape-stroke:none;font-variation-settings:normal"/>
   <rect transform="scale(-1,1)" x="-46.302" y="190.5" width="1.3229" height="5.2917" fill="#5da256" stop-color="#000000" style="-inkscape-stroke:none;font-variation-settings:normal"/>
   <rect transform="scale(-1,1)" x="-44.979" y="191.82" width="1.3229" height="3.9688" fill="#307550" stop-color="#000000" style="-inkscape-stroke:none;font-variation-settings:normal"/>
   <rect transform="scale(-1,1)" x="-43.656" y="191.82" width="1.3229" height="3.9688" fill="#307550" stop-color="#000000" style="-inkscape-stroke:none;font-variation-settings:normal"/>
   <rect transform="scale(-1,1)" x="-42.333" y="190.5" width="1.3229" height="5.2917" fill="#00b9b5" style="font-variation-settings:normal"/>
   <rect transform="scale(-1,1)" x="-41.01" y="191.82" width="1.3229" height="3.9688" fill="#00b9b5" style="font-variation-settings:normal"/>
   <rect transform="scale(-1,1)" x="-59.531" y="183.89" width="1.3229" height="5.2917" fill="#a47b36" stop-color="#000000" style="-inkscape-stroke:none;font-variation-settings:normal"/>
   <rect transform="scale(-1,1)" x="-46.302" y="198.44" width="1.3229" height="3.9688" fill="#733f97" stop-color="#000000" style="-inkscape-stroke:none;font-variation-settings:normal"/>
   <rect transform="scale(-1,1)" x="-44.979" y="198.44" width="1.3229" height="3.9688" fill="#733f97" stop-color="#000000" style="-inkscape-stroke:none;font-variation-settings:normal"/>
   <g fill="#00b9b5">
    <rect transform="scale(-1,1)" x="-43.656" y="197.11" width="1.3229" height="5.2917" style="font-variation-settings:normal"/>
    <rect transform="scale(-1,1)" x="-42.333" y="198.44" width="1.3229" height="3.9688" style="font-variation-settings:normal"/>
    <rect x="38.365" y="198.44" width="1.3229" height="3.9688" style="font-variation-settings:normal"/>
    <rect x="39.687" y="198.44" width="1.3229" height="3.9688" style="font-variation-settings:normal"/>
   </g>
   <rect transform="scale(-1,1)" x="-48.948" y="198.44" width="1.3229" height="3.9688" fill="#a47b36" stop-color="#000000" style="-inkscape-stroke:none;font-variation-settings:normal"/>
   <rect transform="scale(-1,1)" x="-47.625" y="198.44" width="1.3229" height="3.9688" fill="#a47b36" style="font-variation-settings:normal"/>
   <rect transform="scale(-1,1)" x="-60.854" y="191.82" width="1.3229" height="3.9688" fill="#c04c6e" stop-color="#000000" style="-inkscape-stroke:none;font-variation-settings:normal"/>
   <rect transform="scale(-1,1)" x="-59.531" y="191.82" width="1.3229" height="3.9688" fill="#375caf" stop-color="#000000" style="-inkscape-stroke:none;font-variation-settings:normal"/>
   <rect transform="scale(-1,1)" x="-58.208" y="193.15" width="1.3229" height="2.6458" fill="#a47b36" stop-color="#000000" style="-inkscape-stroke:none;font-variation-settings:normal"/>
   <rect transform="scale(-1,1)" x="-56.885" y="193.15" width="1.3229" height="2.6458" fill="#a47b36" stop-color="#000000" style="-inkscape-stroke:none;font-variation-settings:normal"/>
   <rect transform="scale(-1,1)" x="-41.01" y="185.21" width="1.3229" height="3.9688" fill="#00766b" stop-color="#000000" style="-inkscape-stroke:none;font-variation-settings:normal"/>
   <rect transform="scale(-1,1)" x="-39.687" y="185.21" width="1.3229" height="3.9688" fill="#a47b36" stop-color="#000000" style="-inkscape-stroke:none;font-variation-settings:normal"/>
   <rect transform="scale(-1,1)" x="-38.365" y="186.53" width="1.3229" height="2.6458" fill="#a52b55" stop-color="#000000" style="-inkscape-stroke:none;font-variation-settings:normal"/>
   <rect transform="scale(-1,1)" x="-37.042" y="186.53" width="1.3229" height="2.6458" fill="#a52b55" stop-color="#000000" style="-inkscape-stroke:none;font-variation-settings:normal"/>
   <rect x="43.656" y="183.89" width="2.6458" height="5.2917" fill="#00b9b5" style="font-variation-settings:normal"/>
   <rect x="46.302" y="183.89" width="2.6458" height="5.2917" fill="#375caf" stop-color="#000000" style="-inkscape-stroke:none;font-variation-settings:normal"/>
   <rect x="35.719" y="191.82" width="1.3229" height="3.9688" fill="#00766b" stop-color="#000000" style="-inkscape-stroke:none;font-variation-settings:normal"/>
   <rect x="37.042" y="190.5" width="2.6458" height="5.2917" fill="#a47b36" stop-color="#000000" style="-inkscape-stroke:none;font-variation-settings:normal"/>
   <rect x="35.719" y="197.11" width="1.3229" height="5.2917" fill="#00b9b5" style="font-variation-settings:normal"/>
   <rect x="37.042" y="197.11" width="1.3229" height="5.2917" fill="#00b9b5" style="font-variation-settings:normal"/>
   <rect x="41.01" y="183.89" width="1.3229" height="5.2917" fill="#307550" stop-color="#000000" style="-inkscape-stroke:none;font-variation-settings:normal"/>
   <rect x="42.333" y="183.89" width="1.3229" height="5.2917" fill="#a52b55" stop-color="#000000" style="-inkscape-stroke:none;font-variation-settings:normal"/>
   <rect x="43.656" y="186.53" width="1.3229" height="2.6458" fill="#a47b36" stop-color="#000000" style="-inkscape-stroke:none;font-variation-settings:normal"/>
   <rect x="44.979" y="185.21" width="1.3229" height="3.9688" fill="#a47b36" stop-color="#000000" style="-inkscape-stroke:none;font-variation-settings:normal"/>
   <rect x="48.948" y="183.89" width="1.3229" height="5.2917" fill="#307550" stop-color="#000000" style="-inkscape-stroke:none;font-variation-settings:normal"/>
   <rect x="50.271" y="183.89" width="2.6458" height="5.2917" fill="#c04c6e" stop-color="#000000" style="-inkscape-stroke:none;font-variation-settings:normal"/>
   <rect x="59.531" y="184.34" width="1.3229" height="4.8352" fill="#a52b55" stop-color="#000000" style="-inkscape-stroke:none;font-variation-settings:normal"/>
   <rect x="60.854" y="185.21" width="1.3229" height="3.9688" fill="#a47b36" stop-color="#000000" style="-inkscape-stroke:none;font-variation-settings:normal"/>
   <rect x="62.177" y="185.21" width="1.3229" height="3.9687" fill="#c04c6e" stop-color="#000000" style="-inkscape-stroke:none;font-variation-settings:normal"/>
   <rect x="63.5" y="186.53" width="1.3229" height="2.6458" fill="#c04c6e" stop-color="#000000" style="-inkscape-stroke:none;font-variation-settings:normal"/>
   <rect x="46.302" y="191.82" width="1.3229" height="3.9687" fill="#375caf" stop-color="#000000" style="-inkscape-stroke:none;font-variation-settings:normal"/>
   <rect x="60.854" y="190.5" width="2.6458" height="5.2917" fill="#375caf" stop-color="#000000" style="-inkscape-stroke:none;font-variation-settings:normal"/>
   <rect x="63.5" y="190.5" width="1.3229" height="5.2917" fill="#a47b36" stop-color="#000000" style="-inkscape-stroke:none;font-variation-settings:normal"/>
   <rect x="48.948" y="199.76" width="1.3229" height="2.6458" fill="#5da256" stop-color="#000000" style="-inkscape-stroke:none;font-variation-settings:normal"/>
   <rect x="50.271" y="197.11" width="1.3229" height="5.2917" fill="#a52b55" stop-color="#000000" style="-inkscape-stroke:none;font-variation-settings:normal"/>
   <rect x="63.5" y="198.44" width="1.3229" height="3.9688" fill="#375caf" stop-color="#000000" style="-inkscape-stroke:none;font-variation-settings:normal"/>
   <rect x="62.177" y="198.44" width="1.3229" height="3.9688" fill="#375caf" stop-color="#000000" style="-inkscape-stroke:none;font-variation-settings:normal"/>
   <rect x="60.854" y="197.11" width="1.3229" height="5.2917" fill="#c04c6e" stop-color="#000000" style="-inkscape-stroke:none;font-variation-settings:normal"/>
   <rect x="59.531" y="198.44" width="1.3229" height="3.9687" fill="#375caf" stop-color="#000000" style="-inkscape-stroke:none;font-variation-settings:normal"/>
   <rect x="58.208" y="199.76" width="1.3229" height="2.6458" fill="#00b9b5" style="font-variation-settings:normal"/>
   <rect transform="matrix(-.86603 .5 .5 .86603 0 0)" x="52.966" y="190.38" width="1.3229" height="3.9687" fill="#375caf" stop-color="#000000" style="-inkscape-stroke:none;font-variation-settings:normal"/>
   <rect transform="rotate(-90)" x="-189.18" y="52.917" width="1.3229" height="5.2917" fill="#a52b55" stop-color="#000000" style="-inkscape-stroke:none;font-variation-settings:normal"/>
   <rect transform="rotate(-90)" x="-187.85" y="54.24" width="1.3229" height="3.9687" fill="#c04c6e" stop-color="#000000" style="-inkscape-stroke:none;font-variation-settings:normal"/>
   <path d="m56.885 185.21a1.3229 1.3229 0 0 1-0.66146 1.1457 1.3229 1.3229 0 0 1-1.3229 0 1.3229 1.3229 0 0 1-0.66146-1.1457h1.3229z" fill="#6299d4" style="font-variation-settings:normal"/>
   <path d="m51.174 191.63h2.0919l2.0041 3.4712h-2.0892" fill="#263b70" stop-color="#000000" style="-inkscape-stroke:none;font-variation-settings:normal"/>
   <path transform="matrix(-.86603 .5 .5 .86603 0 0)" d="m51.495 191.54h1.3229v3.9687h-1.3229z" fill="#375caf" stop-color="#000000" style="-inkscape-stroke:none;font-variation-settings:normal"/>
   <rect x="52.917" y="197.11" width="5.2917" height="5.2917" fill="#ceb073" style="font-variation-settings:normal"/>
   <rect x="55.562" y="199.76" width="2.6458" height="2.6458" fill="#733f97" style="font-variation-settings:normal"/>
   <rect x="66.146" y="182.56" width="5.2917" height="27.781" fill="#906e47" stop-color="#000000" style="-inkscape-stroke:none;font-variation-settings:normal"/>
   <rect x="42.333" y="179.92" width="3.9688" height="2.6458" fill="#596e46" style="-inkscape-stroke:none;font-variation-settings:normal"/>
   <path d="m43.656 179.92-1.3229-3.9688" fill="#00b9b5" style="-inkscape-stroke:none;font-variation-settings:normal"/>
   <path d="m44.979 179.92v-5.2917" fill="#00b9b5" style="-inkscape-stroke:none;font-variation-settings:normal"/>
   <circle cx="42.333" cy="175.95" r="1.0583" fill="#edde00" style="-inkscape-stroke:none;font-variation-settings:normal"/>
   <circle cx="44.979" cy="174.62" r="1.0583" fill="#edde00" stop-color="#000000" style="-inkscape-stroke:none;font-variation-settings:normal"/>
   <g fill="#49a836">
    <path d="m44.979 179.92c2e-6 -3.9688 0.52917-3.9688 1.3229-3.9688 1e-6 3.9688-0.52916 3.9688-1.3229 3.9688z" style="-inkscape-stroke:none;font-variation-settings:normal"/>
    <path d="m44.847 179.92c-2e-6 -2.6458-0.52917-2.6458-1.3229-2.6458-1e-6 2.6458 0.52916 2.6458 1.3229 2.6458z" stop-color="#000000" style="-inkscape-stroke:none;font-variation-settings:normal"/>
    <path d="m43.656 179.92c-2.6458 0-2.6458-0.52916-2.6458-1.3229 2.6458 0 2.6458 0.52916 2.6458 1.3229z" stop-color="#000000" style="-inkscape-stroke:none;font-variation-settings:normal"/>
   </g>
   <rect x="51.594" y="197.11" width="1.3229" height="5.2917" fill="#a52b55" stop-color="#000000" style="-inkscape-stroke:none;font-variation-settings:normal"/>
  </g>
  <g transform="rotate(4.1101 -1524.9 -1129.4)" stroke="#000" stroke-linecap="round">
   <rect x="162.72" y="150.81" width="23.813" height="17.198" fill="#00b9b5" stop-color="#000000" stroke-width=".8" style="-inkscape-stroke:none;font-variation-settings:normal"/>
   <g fill="#008786" stroke-width=".8">
    <rect x="164.04" y="162.72" width="21.167" height="3.9688" stop-color="#000000" style="-inkscape-stroke:none;font-variation-settings:normal"/>
    <rect x="164.04" y="157.43" width="21.167" height="3.9688" stop-color="#000000" style="-inkscape-stroke:none;font-variation-settings:normal"/>
    <rect x="164.04" y="152.14" width="21.167" height="3.9688" stop-color="#000000" style="-inkscape-stroke:none;font-variation-settings:normal"/>
   </g>
   <g fill="#00b9b5">
    <g stroke-width=".8">
     <path d="m173.3 164.04h2.6458" style="font-variation-settings:normal"/>
     <path d="m173.3 158.75h2.6458" style="font-variation-settings:normal"/>
     <path d="m173.3 153.46h2.6458" style="font-variation-settings:normal"/>
    </g>
    <rect x="186.53" y="150.81" width="2.6458" height="17.198" stroke-width=".8" style="font-variation-settings:normal"/>
   </g>
  </g>
  <g transform="translate(-63.5 77.787)" stroke="#000" stroke-linecap="round" stroke-width=".8">
   <rect x="124.35" y="209.02" width="7.9375" height="1.3229" fill="#375caf" stop-color="#000000" style="-inkscape-stroke:none;font-variation-settings:normal"/>
   <rect x="132.29" y="209.02" width="2.6458" height="1.3229" fill="#263b70" stop-color="#000000" style="-inkscape-stroke:none;font-variation-settings:normal"/>
   <rect x="125.68" y="207.7" width="5.2917" height="1.3229" fill="#a52b55" stop-color="#000000" style="-inkscape-stroke:none;font-variation-settings:normal"/>
   <rect x="130.97" y="207.7" width="2.6458" height="1.3229" fill="#73233c" stop-color="#000000" style="-inkscape-stroke:none;font-variation-settings:normal"/>
  </g>
  <g transform="rotate(8.9541 -439.71 710.91)" stroke="#000" stroke-linecap="round">
   <g stroke-width=".8">
    <rect x="5.2917" y="177.27" width="7.9375" height="33.073" fill="#ced2d2" stop-color="#000000" style="-inkscape-stroke:none;font-variation-settings:normal"/>
    <rect x="6.6146" y="205.05" width="5.2917" height="3.9688" fill="#a0a4a4" stop-color="#000000" style="-inkscape-stroke:none;font-variation-settings:normal"/>
    <rect x="6.6146" y="199.76" width="5.2917" height="3.9688" fill="#00b9b5" style="font-variation-settings:normal"/>
    <rect x="6.6146" y="194.47" width="5.2917" height="3.9688" fill="#00b9b5" style="font-variation-settings:normal"/>
   </g>
   <g fill="#a0a4a4" stroke-width=".8">
    <rect x="6.6146" y="189.18" width="5.2917" height="3.9688" stop-color="#000000" style="-inkscape-stroke:none;font-variation-settings:normal"/>
    <rect x="6.6146" y="183.89" width="5.2917" height="3.9688" stop-color="#000000" style="-inkscape-stroke:none;font-variation-settings:normal"/>
    <rect x="6.6146" y="178.59" width="5.2917" height="3.9688" stop-color="#000000" style="-inkscape-stroke:none;font-variation-settings:normal"/>
   </g>
   <g fill="#00b9b5" stroke-width=".8">
    <path d="m7.9375 206.38h2.6458" style="font-variation-settings:normal"/>
    <path d="m7.9375 201.08h2.6458" style="font-variation-settings:normal"/>
    <path d="m7.9375 195.79h2.6458" style="font-variation-settings:normal"/>
    <path d="m7.9375 190.5h2.6458" style="font-variation-settings:normal"/>
    <path d="m7.9375 185.21h2.6458" style="font-variation-settings:normal"/>
    <path d="m7.9375 179.92h2.6458" style="font-variation-settings:normal"/>
   </g>
   <rect x="13.229" y="177.27" width="3.9688" height="33.073" fill="#636767" stop-color="#000000" stroke-width=".8" style="-inkscape-stroke:none;font-variation-settings:normal"/>
  </g>
  <g transform="rotate(53.13 -28.443 310.89)" stroke="#000" stroke-linecap="round">
   <rect x="5.2917" y="187.85" width="7.9375" height="22.49" fill="#cda063" stop-color="#000000" stroke-width=".8" style="-inkscape-stroke:none;font-variation-settings:normal"/>
   <g fill="#976e36" stroke-width=".8">
    <rect x="6.6146" y="205.05" width="5.2917" height="3.9688" stop-color="#000000" style="-inkscape-stroke:none;font-variation-settings:normal"/>
    <rect x="6.6146" y="199.76" width="5.2917" height="3.9688" stop-color="#000000" style="-inkscape-stroke:none;font-variation-settings:normal"/>
    <rect x="6.6146" y="194.47" width="5.2917" height="3.9688" stop-color="#000000" style="-inkscape-stroke:none;font-variation-settings:normal"/>
    <rect x="6.6146" y="189.18" width="5.2917" height="3.9688" stop-color="#000000" style="-inkscape-stroke:none;font-variation-settings:normal"/>
   </g>
   <g fill="#00b9b5" stroke-width=".8">
    <path d="m7.9375 206.38h2.6458" style="font-variation-settings:normal"/>
    <path d="m7.9375 201.08h2.6458" style="font-variation-settings:normal"/>
    <path d="m7.9375 195.79h2.6458" style="font-variation-settings:normal"/>
    <path d="m7.9375 190.5h2.6458" style="font-variation-settings:normal"/>
   </g>
   <rect x="13.229" y="187.85" width="3.9688" height="22.49" fill="#906e47" stop-color="#000000" stroke-width=".8" style="-inkscape-stroke:none;font-variation-settings:normal"/>
  </g>
  <g transform="matrix(1.2925 -.16334 .16248 1.2994 -26.362 79.449)" stroke="#000" stroke-width=".7656">
   <g transform="translate(3.9688)" fill="#ced2d2" stroke-linecap="round" stroke-width=".61248">
    <path d="m83.344 153.46-11.906 1e-5c-2.1919 0-3.9688 1.7769-3.9688 3.9687l-1e-6 10.583h1.3229l2e-6 -10.583c2e-6 -1.4612 1.1846-2.6458 2.6458-2.6458h11.906c1.4613 0 2.6458 1.1846 2.6458 2.6458v10.583h1.3229l1e-6 -10.583c-3e-6 -2.1919-1.7769-3.9687-3.9688-3.9687z" stop-color="#000000" style="-inkscape-stroke:none;font-variation-settings:normal"/>
    <rect x="71.438" y="154.78" width="1.3229" height="6.6146" stop-color="#000000" style="-inkscape-stroke:none;font-variation-settings:normal"/>
    <rect x="82.021" y="154.78" width="1.3229" height="6.6146" stop-color="#000000" style="-inkscape-stroke:none;font-variation-settings:normal"/>
    <rect x="76.729" y="154.78" width="1.3229" height="6.6146" stop-color="#000000" style="-inkscape-stroke:none;font-variation-settings:normal"/>
   </g>
   <rect x="70.115" y="161.4" width="19.844" height="2.6458" fill="#007372" stroke-linecap="round" stroke-width=".61248" style="-inkscape-stroke:none;font-variation-settings:normal"/>
   <g fill="none" stroke-linecap="round" stroke-width=".61248">
    <rect x="58.208" y="158.75" width="1.3229" height="3.9688"/>
    <rect x="63.5" y="158.75" width="1.3229" height="3.9688"/>
    <rect x="55.563" y="162.72" width="17.198" height="1.3229"/>
   </g>
   <g>
    <rect x="54.24" y="161.4" width="19.844" height="2.6458" fill="#00b9b5" stroke-linecap="round" stroke-width=".61248" style="-inkscape-stroke:none;font-variation-settings:normal"/>
    <path d="m88.635 161.4c-2e-6 -1.4612-1.1846-2.6458-2.6458-2.6458h-3.9687c-1.4613 0-2.6458 1.1846-2.6458 2.6458z" fill="#00b9b5" stroke-width=".61248"/>
    <path d="m82.021 161.4c-2e-6 -1.4612-1.1846-2.6458-2.6458-2.6458h-22.49c-1.4613 0-2.6458 1.1846-2.6458 2.6458z" fill="#008786" stroke-width=".61248"/>
   </g>
   <g fill="#ced2d2" stroke-linecap="round" stroke-width=".61248">
    <path d="m70.115 157.43-11.906 1e-5c-2.1919 0-3.9687 1.7769-3.9688 3.9687v6.6146h1.3229l1e-6 -6.6146c2e-6 -1.4612 1.1846-2.6458 2.6458-2.6458h11.906c1.4613 0 2.6458 1.1846 2.6458 2.6458l1e-6 6.6146h1.3229v-6.6146c-3e-6 -2.1919-1.7769-3.9687-3.9688-3.9687z" stop-color="#000000" style="-inkscape-stroke:none;font-variation-settings:normal"/>
    <rect x="58.208" y="158.75" width="1.3229" height="3.9688" stop-color="#000000" style="-inkscape-stroke:none;font-variation-settings:normal"/>
    <rect x="68.924" y="158.88" width="1.3229" height="3.9688" stop-color="#000000" style="-inkscape-stroke:none;font-variation-settings:normal"/>
    <rect x="63.5" y="158.75" width="1.3229" height="3.9688" stop-color="#000000" style="-inkscape-stroke:none;font-variation-settings:normal"/>
    <path d="m55.563 162.72h17.198v1.3229h-17.198z" stop-color="#000000" style="-inkscape-stroke:none;font-variation-settings:normal"/>
   </g>
  </g>
  <g transform="translate(15.875 .26461)" stroke="#000" stroke-linecap="round" stroke-width=".8">
   <rect x="76.729" y="283.1" width="6.6146" height="5.2917" fill="#cda063" style="-inkscape-stroke:none;font-variation-settings:normal"/>
   <rect x="83.344" y="283.1" width="2.6458" height="5.2917" fill="#906e47" stop-color="#000000" style="-inkscape-stroke:none;font-variation-settings:normal"/>
  </g>
  <g transform="translate(11.906 .66149)" stroke="#000" stroke-linecap="round" stroke-width=".8">
   <rect x="79.375" y="284.43" width="5.2917" height="3.9688" fill="#cda063" style="-inkscape-stroke:none;font-variation-settings:normal"/>
   <rect x="84.667" y="284.43" width="1.3229" height="3.9688" fill="#906e47" stop-color="#000000" style="-inkscape-stroke:none;font-variation-settings:normal"/>
  </g>
  <g transform="translate(-11.642 75.935)" stroke="#000" stroke-linecap="round" stroke-width=".8">
   <rect x="124.35" y="209.02" width="7.9375" height="1.3229" fill="#375caf" stop-color="#000000" style="-inkscape-stroke:none;font-variation-settings:normal"/>
   <rect x="132.29" y="209.02" width="2.6458" height="1.3229" fill="#263b70" stop-color="#000000" style="-inkscape-stroke:none;font-variation-settings:normal"/>
   <rect x="125.68" y="207.7" width="5.2917" height="1.3229" fill="#a52b55" stop-color="#000000" style="-inkscape-stroke:none;font-variation-settings:normal"/>
   <rect x="130.97" y="207.7" width="2.6458" height="1.3229" fill="#73233c" stop-color="#000000" style="-inkscape-stroke:none;font-variation-settings:normal"/>
  </g>
  <g transform="translate(-9.2604 78.052)" stroke="#000" stroke-linecap="round" stroke-width=".8">
   <rect x="124.35" y="209.02" width="7.9375" height="1.3229" fill="#375caf" stop-color="#000000" style="-inkscape-stroke:none;font-variation-settings:normal"/>
   <rect x="132.29" y="209.02" width="2.6458" height="1.3229" fill="#263b70" stop-color="#000000" style="-inkscape-stroke:none;font-variation-settings:normal"/>
   <rect x="125.68" y="207.7" width="5.2917" height="1.3229" fill="#a52b55" stop-color="#000000" style="-inkscape-stroke:none;font-variation-settings:normal"/>
   <rect x="130.97" y="207.7" width="2.6458" height="1.3229" fill="#73233c" stop-color="#000000" style="-inkscape-stroke:none;font-variation-settings:normal"/>
  </g>
  <g transform="translate(-13.229 .3969)" stroke="#000" stroke-linecap="round" stroke-width=".8">
   <rect x="79.375" y="284.43" width="5.2917" height="3.9688" fill="#cda063" style="-inkscape-stroke:none;font-variation-settings:normal"/>
   <rect x="84.667" y="284.43" width="1.3229" height="3.9688" fill="#906e47" stop-color="#000000" style="-inkscape-stroke:none;font-variation-settings:normal"/>
  </g>
  <g transform="translate(43.127 -27.914)" stroke="#000" stroke-linecap="round" stroke-width=".8">
   <rect x="79.375" y="284.43" width="5.2917" height="3.9688" fill="#cda063" style="-inkscape-stroke:none;font-variation-settings:normal"/>
   <rect x="84.667" y="284.43" width="1.3229" height="3.9688" fill="#906e47" stop-color="#000000" style="-inkscape-stroke:none;font-variation-settings:normal"/>
  </g>
  <g transform="translate(-5.424 -3.5719)" stroke="#000" stroke-linecap="round">
   <g stroke-width=".8">
    <path d="m151.47 292.36h-3.3073l-1.3229-3.9688 0.79376-1.0583h3.3073l1.3229 3.9688z" fill="#a52b55" stop-color="#000000" style="-inkscape-stroke:none;font-variation-settings:normal"/>
    <path d="m148.17 292.36 0.79376-1.0583h3.3073" fill="none" style="-inkscape-stroke:none;font-variation-settings:normal"/>
    <path d="m148.96 291.31-1.3229-3.9688" fill="#a52b55" stop-color="#000000" style="-inkscape-stroke:none;font-variation-settings:normal"/>
   </g>
   <path d="m152.27 291.31h-3.3073l-0.79376 1.0583h3.3073z" fill="#afa0a0" stroke-linejoin="bevel" stroke-width=".8" style="font-variation-settings:normal"/>
  </g>
  <g transform="translate(-8.7312 77.788)" stroke="#000" stroke-linecap="round" stroke-width=".8">
   <rect x="124.35" y="209.02" width="7.9375" height="1.3229" fill="#375caf" stop-color="#000000" style="-inkscape-stroke:none;font-variation-settings:normal"/>
   <rect x="132.29" y="209.02" width="2.6458" height="1.3229" fill="#263b70" stop-color="#000000" style="-inkscape-stroke:none;font-variation-settings:normal"/>
   <rect x="125.68" y="207.7" width="5.2917" height="1.3229" fill="#a52b55" stop-color="#000000" style="-inkscape-stroke:none;font-variation-settings:normal"/>
   <rect x="130.97" y="207.7" width="2.6458" height="1.3229" fill="#73233c" stop-color="#000000" style="-inkscape-stroke:none;font-variation-settings:normal"/>
  </g>
  <g transform="translate(-14.288 78.449)" stroke="#000" stroke-linecap="round" stroke-width=".8">
   <rect x="124.35" y="209.02" width="7.9375" height="1.3229" fill="#5da256" stop-color="#000000" style="-inkscape-stroke:none;font-variation-settings:normal"/>
   <rect x="132.29" y="209.02" width="2.6458" height="1.3229" fill="#366232" stop-color="#000000" style="-inkscape-stroke:none;font-variation-settings:normal"/>
   <rect x="125.68" y="207.7" width="5.2917" height="1.3229" fill="#375caf" stop-color="#000000" style="-inkscape-stroke:none;font-variation-settings:normal"/>
   <rect x="130.97" y="207.7" width="2.6458" height="1.3229" fill="#263b70" stop-color="#000000" style="-inkscape-stroke:none;font-variation-settings:normal"/>
  </g>
 </g>
</svg>
