<?xml version="1.0" encoding="UTF-8" standalone="no"?>
<!-- Created with Inkscape (http://www.inkscape.org/) -->

<svg
   width="19.18675mm"
   height="26.57399mm"
   viewBox="0 0 19.18675 26.57399"
   version="1.1"
   id="svg5"
   inkscape:version="1.3 (0e150ed, 2023-07-21)"
   sodipodi:docname="lipu tenpo.svg"
   xml:space="preserve"
   xmlns:inkscape="http://www.inkscape.org/namespaces/inkscape"
   xmlns:sodipodi="http://sodipodi.sourceforge.net/DTD/sodipodi-0.dtd"
   xmlns="http://www.w3.org/2000/svg"
   xmlns:svg="http://www.w3.org/2000/svg"><sodipodi:namedview
     id="namedview7"
     pagecolor="#ffffff"
     bordercolor="#666666"
     borderopacity="1.0"
     inkscape:pageshadow="2"
     inkscape:pageopacity="0.0"
     inkscape:pagecheckerboard="0"
     inkscape:document-units="mm"
     showgrid="false"
     inkscape:snap-bbox="true"
     inkscape:snap-bbox-edge-midpoints="true"
     inkscape:zoom="0.2581407"
     inkscape:cx="2622.601"
     inkscape:cy="1365.534"
     inkscape:window-width="1920"
     inkscape:window-height="1016"
     inkscape:window-x="0"
     inkscape:window-y="27"
     inkscape:window-maximized="1"
     inkscape:current-layer="layer1"
     inkscape:snap-intersection-paths="true"
     inkscape:bbox-paths="true"
     inkscape:bbox-nodes="true"
     inkscape:snap-bbox-midpoints="true"
     showguides="false"
     inkscape:guide-bbox="true"
     inkscape:showpageshadow="0"
     inkscape:deskcolor="#ffffff"><sodipodi:guide
       position="-115.5265,555.8733"
       orientation="0,-1"
       id="guide37012"
       inkscape:locked="false" /><sodipodi:guide
       position="-241.6456,515.9658"
       orientation="0,-1"
       id="guide37014"
       inkscape:locked="false" /></sodipodi:namedview><defs
     id="defs2" /><g
     inkscape:label="Layer 1"
     inkscape:groupmode="layer"
     id="layer1"
     transform="translate(-670.9513,-498.8709)"><g
       id="g104"
       style="fill:#000000"
       transform="translate(-57.40607,-53.67229)"><path
         style="fill:#000000;fill-opacity:1;fill-rule:nonzero;stroke:none;stroke-width:0.264583"
         id="path55"
         d="m 738.5888,558.2104 c -0.975,-0.8905 -2.1969,-1.548 -3.5356,-1.6481 -0.3662,-0.027 -0.7343,0.016 -1.1012,0.024 -0.3599,0.076 -0.7279,0.1203 -1.0798,0.2272 -1.5253,0.4628 -2.8289,1.5354 -3.6208,2.9171 -0.213,0.3714 -0.354,0.7797 -0.5308,1.1697 -0.1,0.4098 -0.2378,0.812 -0.2987,1.229 -0.1881,1.2935 0.039,2.5693 0.6297,3.733 0.5194,1.0242 0.7811,1.1747 1.5716,2.0039 0.3445,0.2538 0.6713,0.5337 1.0335,0.7612 1.4528,0.9123 3.1903,1.3701 4.894,1.4574 0.4215,0.021 0.844,-0.01 1.266,-0.01 1.8235,-0.1706 3.5362,-0.803 5.0597,-1.815 0.9913,-0.6586 1.2123,-0.9274 2.0772,-1.7288 1.1676,-1.2824 2.1653,-2.7599 2.4818,-4.4979 0.1945,-1.0673 0.091,-1.3317 -0.024,-2.3855 -0.1244,-0.3776 -0.2122,-0.7691 -0.3728,-1.1327 -0.4554,-1.0303 -1.215,-1.9174 -2.1551,-2.5347 -0.7903,-0.5191 -1.0691,-0.5381 -1.9542,-0.8123 -0.3519,-0.036 -0.7019,-0.1026 -1.0554,-0.1082 -1.2012,-0.019 -2.3807,0.3649 -3.4062,0.97 -0.2101,0.1241 -0.4064,0.2704 -0.6096,0.4053 -0.6924,0.5673 -0.3667,0.2638 -0.9777,0.9105 -1.424,1.5724 0.7999,3.5861 2.2239,2.0137 v 0 c 0.2383,-0.2947 0.096,-0.1426 0.44,-0.4429 0.8024,-0.5654 1.5594,-0.9221 2.5683,-0.8617 0.1611,0.037 0.3265,0.058 0.4831,0.11 0.8988,0.2982 1.5184,1.0036 1.8415,1.8759 0.097,0.5395 0.1627,0.6789 0.092,1.2446 -0.1482,1.1848 -0.8758,2.1775 -1.629,3.0581 -0.2472,0.2354 -0.4821,0.4844 -0.7411,0.7067 -1.2547,1.0755 -2.7422,1.8126 -4.3884,2.0251 -0.3056,0.01 -0.6112,0.034 -0.9168,0.024 -1.474,-0.049 -2.9186,-0.4694 -4.1082,-1.3533 -0.1746,-0.1609 -0.3667,-0.3048 -0.5241,-0.4829 -0.6009,-0.68 -0.9512,-1.5759 -0.8716,-2.4858 0.021,-0.2365 0.086,-0.4672 0.1292,-0.7006 0.082,-0.2169 0.1418,-0.4434 0.2458,-0.6509 0.2823,-0.5633 0.7456,-1.1075 1.2866,-1.4382 0.4067,-0.2482 0.6401,-0.281 1.0877,-0.4059 0.1625,-0.018 0.3236,-0.054 0.4871,-0.056 0.7409,-0.01 1.4071,0.3786 1.9386,0.8625 1.5402,1.4587 3.6031,-0.7194 2.063,-2.178 z" /><path
         style="fill:#000000;fill-opacity:1;fill-rule:nonzero;stroke:none;stroke-width:0.264583"
         id="path59"
         d="m 735.6451,568.0918 c -0.1439,0.1384 -0.2947,0.2701 -0.4321,0.4151 -0.381,0.4016 -0.7278,0.8406 -1.0586,1.2832 -0.7215,0.9663 -1.3768,1.9754 -2.0304,2.9877 -0.5746,0.9784 -1.203,1.9484 -1.5994,3.0192 -0.1889,0.5106 -0.4215,1.3115 -0.1921,1.8518 0.1897,0.4466 0.5922,0.7689 0.8885,1.1536 0.4024,0.1032 0.7943,0.2691 1.2078,0.3098 0.4302,0.042 1.6658,-0.1929 2.0781,-0.2651 1.2501,-0.2188 2.4987,-0.4371 3.752,-0.6379 2.046,-0.3347 4.1127,-0.5085 6.1847,-0.5427 0.5389,-0.01 0.2862,0 0.7575,-0.024 2.1174,-0.1296 1.9341,-3.1239 -0.1834,-2.9943 v 0 c -0.3334,0.024 -0.1251,0.013 -0.6249,0.019 -2.2138,0.038 -4.4223,0.2226 -6.6085,0.58 -1.2647,0.2027 -2.5258,0.4196 -3.7868,0.6437 -1.6115,-0.2902 -1.7706,3.2599 -0.427,0.4203 0.3601,-0.7397 0.648,-1.188 1.0748,-1.9071 0.8832,-1.3705 1.7581,-2.772 2.8736,-3.9693 1.6568,-1.3247 -0.2167,-3.6679 -1.8735,-2.3431 z"
         sodipodi:nodetypes="ssscsscsscscssccssccss" /><path
         style="fill:#000000;fill-opacity:1;fill-rule:nonzero;stroke:none;stroke-width:0.264583"
         id="path68"
         d="m 735.2286,554.1938 c 0.1074,0.9962 0.1669,1.996 0.2556,2.9935 0.1608,0.8956 0.062,0.4654 0.2884,1.2917 0.5783,2.041 3.4647,1.2229 2.886,-0.8181 v 0 c -0.1423,-0.4728 -0.079,-0.226 -0.1862,-0.7414 -0.086,-0.948 -0.1347,-1.8991 -0.2464,-2.845 -0.084,-2.1196 -3.0818,-2.0003 -2.9974,0.1193 z" /><path
         style="fill:#000000;fill-opacity:1;fill-rule:nonzero;stroke:none;stroke-width:0.264583"
         id="path81"
         d="m 739.1938,569.6713 c 0.7588,0.8975 1.4534,1.8468 2.1479,2.7943 0.7123,0.9721 1.4086,1.9555 2.045,2.9792 0.2159,0.3495 0.3995,0.717 0.6188,1.0647 1.1544,1.7796 3.6711,0.1468 2.5167,-1.6327 v 0 c -0.2312,-0.3141 -0.3534,-0.7041 -0.5884,-1.0168 -0.6773,-1.0877 -1.4145,-2.1352 -2.1725,-3.1679 -0.7271,-0.9917 -1.4549,-1.9844 -2.2487,-2.9242 -1.3456,-1.6396 -3.6647,0.2636 -2.3188,1.9034 z" /></g></g></svg>
