<?xml version="1.0" encoding="UTF-8" standalone="no"?>
<!-- Created with Inkscape (http://www.inkscape.org/) -->

<svg
   width="49.839523mm"
   height="43.237328mm"
   viewBox="0 0 49.839523 43.237328"
   version="1.1"
   id="svg8421"
   inkscape:version="1.2.1 (9c6d41e410, 2022-07-14)"
   sodipodi:docname="nasin tawa.svg"
   xmlns:inkscape="http://www.inkscape.org/namespaces/inkscape"
   xmlns:sodipodi="http://sodipodi.sourceforge.net/DTD/sodipodi-0.dtd"
   xmlns="http://www.w3.org/2000/svg"
   xmlns:svg="http://www.w3.org/2000/svg">
  <sodipodi:namedview
     id="namedview8423"
     pagecolor="#ffffff"
     bordercolor="#000000"
     borderopacity="0.25"
     inkscape:showpageshadow="2"
     inkscape:pageopacity="0.0"
     inkscape:pagecheckerboard="0"
     inkscape:deskcolor="#d1d1d1"
     inkscape:document-units="mm"
     showgrid="false"
     inkscape:zoom="0.2102413"
     inkscape:cx="-1308.0208"
     inkscape:cy="242.57841"
     inkscape:window-width="1536"
     inkscape:window-height="953"
     inkscape:window-x="-8"
     inkscape:window-y="-8"
     inkscape:window-maximized="1"
     inkscape:current-layer="layer1" />
  <defs
     id="defs8418">
    <clipPath
       clipPathUnits="userSpaceOnUse"
       id="clipPath5510">
      <path
         d="m 214.8,32.891 h 168.238 v 140.4 H 214.8 Z"
         id="path5508" />
    </clipPath>
    <clipPath
       clipPathUnits="userSpaceOnUse"
       id="clipPath5598">
      <path
         d="m 214.8,32.891 h 168.238 v 140.4 H 214.8 Z"
         id="path5596" />
    </clipPath>
  </defs>
  <g
     inkscape:label="Camada 1"
     inkscape:groupmode="layer"
     id="layer1"
     transform="translate(-419.32176,-84.093198)">
    <g
       id="g5500"
       transform="matrix(0.35277777,0,0,-0.35277777,419.66625,125.89246)">
      <path
         d="M 0,0 53.134,107.806 74.22,-0.517"
         style="fill:none;stroke:#000000;stroke-width:1.953;stroke-linecap:round;stroke-linejoin:round;stroke-miterlimit:6.9;stroke-dasharray:none;stroke-opacity:1"
         id="path5502" />
    </g>
    <g
       id="g5504"
       transform="matrix(0.35277777,0,0,-0.35277777,339.04319,141.78182)">
      <g
         id="g5506"
         clip-path="url(#clipPath5510)">
        <g
           id="g5512"
           transform="translate(270.2429,129.4658)">
          <path
             d="M 0,0 C -6.93,-13.958 -13.963,-28.123 1.544,-42.711 17.051,-57.298 55.047,-72.412 93.043,-87.525"
             style="fill:none;stroke:#000000;stroke-width:1.953;stroke-linecap:round;stroke-linejoin:miter;stroke-miterlimit:6.9;stroke-dasharray:none;stroke-opacity:1"
             id="path5514" />
        </g>
        <g
           id="g5516"
           transform="translate(287.0172,125.2768)">
          <path
             d="m 0,0 c 1.398,-6.825 2.793,-13.631 16.267,-21.025 13.475,-7.394 39.026,-15.366 64.578,-23.337"
             style="fill:none;stroke:#000000;stroke-width:1.953;stroke-linecap:round;stroke-linejoin:miter;stroke-miterlimit:6.9;stroke-dasharray:none;stroke-opacity:1"
             id="path5518" />
        </g>
        <g
           id="g5520"
           transform="translate(277.1076,162.0732)">
          <path
             d="m 0,0 h 4.244 c 5.606,0 10.15,-4.544 10.15,-10.149 v -12.918 c 0,-5.605 -4.544,-10.149 -10.15,-10.149 H 0 c -5.605,0 -10.149,4.544 -10.149,10.149 v 12.918 C -10.149,-4.544 -5.605,0 0,0"
             style="fill:#ffffff;fill-opacity:1;fill-rule:evenodd;stroke:none"
             id="path5522" />
        </g>
        <g
           id="g5524"
           transform="translate(277.1076,162.0732)">
          <path
             d="m 0,0 h 4.244 c 5.606,0 10.15,-4.544 10.15,-10.149 v -12.918 c 0,-5.605 -4.544,-10.149 -10.15,-10.149 H 0 c -5.605,0 -10.149,4.544 -10.149,10.149 v 12.918 C -10.149,-4.544 -5.605,0 0,0 Z"
             style="fill:none;stroke:#000000;stroke-width:1.953;stroke-linecap:round;stroke-linejoin:miter;stroke-miterlimit:6.9;stroke-dasharray:none;stroke-opacity:1"
             id="path5526" />
        </g>
        <g
           id="g5528"
           transform="translate(270.7134,159.8773)">
          <path
             d="m 0,0 c 2.82,1.873 5.641,3.746 20.147,1.936 14.507,-1.809 40.698,-7.301 66.89,-12.794 -21.808,-0.517 -43.615,-1.035 -54.705,-3.125 -11.091,-2.09 -11.464,-5.752 -11.837,-9.414"
             style="fill:#ffffff;fill-opacity:1;fill-rule:evenodd;stroke:#000000;stroke-width:1.953;stroke-linecap:round;stroke-linejoin:round;stroke-miterlimit:6.9;stroke-dasharray:none;stroke-opacity:1"
             id="path5530" />
        </g>
        <g
           id="g5532"
           transform="translate(291.41,142.2598)">
          <path
             d="M 0,0 C -0.03,2.344 -0.061,4.689 4.857,6.126 9.775,7.563 19.641,8.093 29.841,8.108 40.042,8.123 50.576,7.624 61.11,7.125"
             style="fill:none;stroke:#f20000;stroke-width:1.953;stroke-linecap:round;stroke-linejoin:round;stroke-miterlimit:6.9;stroke-dasharray:none;stroke-opacity:1"
             id="path5534" />
        </g>
        <g
           id="g5536"
           transform="translate(270.7134,159.8773)">
          <path
             d="m 0,0 c 2.82,1.873 5.641,3.746 20.147,1.936 14.507,-1.809 40.698,-7.301 66.89,-12.794 -21.808,-0.517 -43.615,-1.035 -54.705,-3.125 -11.091,-2.09 -11.464,-5.752 -11.837,-9.414"
             style="fill:none;stroke:#000000;stroke-width:1.953;stroke-linecap:round;stroke-linejoin:round;stroke-miterlimit:6.9;stroke-dasharray:none;stroke-opacity:1"
             id="path5538" />
        </g>
        <g
           id="g5540"
           transform="translate(267.5007,155.2093)">
          <path
             d="m 0,0 c -0.35,-1.03 -0.542,-2.134 -0.542,-3.285 v -12.918 c 0,-1.374 0.272,-2.682 0.763,-3.876 1.662,-1.482 3.851,-2.386 6.248,-2.386 h 10.52 c 2.396,0 4.586,0.903 6.248,2.386 0.491,1.193 0.764,2.502 0.764,3.876 v 12.918 c 0,1.149 -0.192,2.252 -0.542,3.28 v -13.062 c 0,-3.61 -2.861,-6.469 -6.47,-6.469 H 6.469 c -3.61,0 -6.469,2.859 -6.469,6.469 z"
             style="fill:#f20000;fill-opacity:1;fill-rule:evenodd;stroke:none"
             id="path5542" />
        </g>
        <g
           id="g5544"
           transform="translate(277.1076,162.0732)">
          <path
             d="m 0,0 h 4.244 c 5.606,0 10.15,-4.544 10.15,-10.149 v -12.918 c 0,-5.605 -4.544,-10.149 -10.15,-10.149 H 0 c -5.605,0 -10.149,4.544 -10.149,10.149 v 12.918 C -10.149,-4.544 -5.605,0 0,0 Z"
             style="fill:none;stroke:#000000;stroke-width:1.953;stroke-linecap:round;stroke-linejoin:miter;stroke-miterlimit:6.9;stroke-dasharray:none;stroke-opacity:1"
             id="path5546" />
        </g>
        <g
           id="g5548"
           transform="translate(276.6834,157.4506)">
          <path
             d="m 0,0 h 5.093 c 3.623,0 6.56,-2.937 6.56,-6.56 0,-3.623 -2.937,-6.56 -6.56,-6.56 H 0 c -3.623,0 -6.56,2.937 -6.56,6.56 C -6.56,-2.937 -3.623,0 0,0"
             style="fill:#000000;fill-opacity:1;fill-rule:evenodd;stroke:none"
             id="path5550" />
        </g>
        <g
           id="g5552"
           transform="translate(274.6289,140.5355)">
          <path
             d="M 0,0 C 0.293,-0.62 0.586,-1.239 0.88,-1.858"
             style="fill:#000000;fill-opacity:1;fill-rule:evenodd;stroke:#838383;stroke-width:4.394;stroke-linecap:round;stroke-linejoin:miter;stroke-miterlimit:6.9;stroke-dasharray:none;stroke-opacity:1"
             id="path5554" />
        </g>
        <g
           id="g5556"
           transform="translate(283.8307,140.5355)">
          <path
             d="M 0,0 C -0.293,-0.62 -0.587,-1.239 -0.88,-1.858"
             style="fill:#000000;fill-opacity:1;fill-rule:evenodd;stroke:#838383;stroke-width:4.394;stroke-linecap:round;stroke-linejoin:miter;stroke-miterlimit:6.9;stroke-dasharray:none;stroke-opacity:1"
             id="path5558" />
        </g>
        <g
           id="g5560"
           transform="translate(275.4675,139.726)">
          <path
             d="m 0,0 c 0.589,0 1.066,-0.477 1.066,-1.066 0,-0.588 -0.477,-1.065 -1.066,-1.065 -0.589,0 -1.066,0.477 -1.066,1.065 C -1.066,-0.477 -0.589,0 0,0"
             style="fill:#ffb938;fill-opacity:1;fill-rule:evenodd;stroke:none"
             id="path5562" />
        </g>
        <g
           id="g5564"
           transform="translate(282.992,139.726)">
          <path
             d="m 0,0 c 0.589,0 1.066,-0.477 1.066,-1.066 0,-0.588 -0.477,-1.065 -1.066,-1.065 -0.589,0 -1.066,0.477 -1.066,1.065 C -1.066,-0.477 -0.589,0 0,0"
             style="fill:#ffb938;fill-opacity:1;fill-rule:evenodd;stroke:none"
             id="path5566" />
        </g>
        <g
           id="g5568"
           transform="translate(274.5956,141.7928)">
          <path
             d="m 0,0 c 0.589,0 1.066,-0.477 1.066,-1.066 0,-0.588 -0.477,-1.065 -1.066,-1.065 -0.589,0 -1.066,0.477 -1.066,1.065 C -1.066,-0.477 -0.589,0 0,0"
             style="fill:#1f2429;fill-opacity:1;fill-rule:evenodd;stroke:none"
             id="path5570" />
        </g>
        <g
           id="g5572"
           transform="translate(283.8639,141.7928)">
          <path
             d="m 0,0 c 0.589,0 1.066,-0.477 1.066,-1.066 0,-0.588 -0.477,-1.065 -1.066,-1.065 -0.589,0 -1.066,0.477 -1.066,1.065 C -1.066,-0.477 -0.589,0 0,0"
             style="fill:#1f2429;fill-opacity:1;fill-rule:evenodd;stroke:none"
             id="path5574" />
        </g>
        <g
           id="g5576"
           transform="translate(349.0039,150.8458)">
          <path
             d="M 0,0 C -0.015,-0.64 -0.03,-1.279 -0.046,-1.918"
             style="fill:#ffffff;fill-opacity:1;fill-rule:evenodd;stroke:#000000;stroke-width:1.953;stroke-linecap:round;stroke-linejoin:round;stroke-miterlimit:6.9;stroke-dasharray:none;stroke-opacity:1"
             id="path5578" />
        </g>
        <g
           id="g5580"
           transform="translate(345.9896,151.3482)">
          <path
             d="M 0,0 C 0.015,-0.791 0.03,-1.581 0.046,-2.372"
             style="fill:#ffffff;fill-opacity:1;fill-rule:evenodd;stroke:#000000;stroke-width:1.953;stroke-linecap:round;stroke-linejoin:round;stroke-miterlimit:6.9;stroke-dasharray:none;stroke-opacity:1"
             id="path5582" />
        </g>
      </g>
    </g>
    <g
       id="g5584"
       transform="matrix(0.35277777,0,0,-0.35277777,459.66683,89.307961)">
      <path
         d="M 0,0 V 3.289 Z"
         style="fill:#ffffff;fill-opacity:1;fill-rule:nonzero;stroke:none"
         id="path5586" />
    </g>
    <g
       id="g5588"
       transform="matrix(0.35277777,0,0,-0.35277777,459.66673,88.147887)">
      <path
         d="M 0,0 V -3.288"
         style="fill:none;stroke:#000000;stroke-width:1.953;stroke-linecap:round;stroke-linejoin:round;stroke-miterlimit:6.9;stroke-dasharray:none;stroke-opacity:1"
         id="path5590" />
    </g>
    <g
       id="g5592"
       transform="matrix(0.35277777,0,0,-0.35277777,339.04319,141.78182)">
      <g
         id="g5594"
         clip-path="url(#clipPath5598)">
        <g
           id="g5600"
           transform="translate(335.6682,153.2207)">
          <path
             d="M 0,0 C 0.015,-1.485 0.03,-2.969 0.046,-4.454"
             style="fill:#ffffff;fill-opacity:1;fill-rule:evenodd;stroke:#000000;stroke-width:1.953;stroke-linecap:round;stroke-linejoin:round;stroke-miterlimit:6.9;stroke-dasharray:none;stroke-opacity:1"
             id="path5602" />
        </g>
        <g
           id="g5604"
           transform="translate(328.0413,148.2883)">
          <path
             d="M 0,0 C 0.046,2.238 0.091,4.475 -0.388,5.716 -0.867,6.957 -1.872,7.201 -2.877,7.444"
             style="fill:none;stroke:#000000;stroke-width:1.953;stroke-linecap:round;stroke-linejoin:round;stroke-miterlimit:6.9;stroke-dasharray:none;stroke-opacity:1"
             id="path5606" />
        </g>
        <g
           id="g5608"
           transform="translate(314.7512,157.7877)">
          <path
             d="M 0,0 C 1.053,-0.182 2.105,-0.363 2.57,-1.947 3.034,-3.531 2.91,-6.515 2.786,-9.499"
             style="fill:none;stroke:#000000;stroke-width:1.953;stroke-linecap:round;stroke-linejoin:round;stroke-miterlimit:6.9;stroke-dasharray:none;stroke-opacity:1"
             id="path5610" />
        </g>
        <g
           id="g5612"
           transform="translate(303.0596,159.9342)">
          <path
             d="m 0,0 c 1.248,-0.319 2.504,-0.639 3.124,-2.758 0.619,-2.119 0.597,-6.005 0.575,-9.893"
             style="fill:none;stroke:#000000;stroke-width:1.953;stroke-linecap:round;stroke-linejoin:round;stroke-miterlimit:6.9;stroke-dasharray:none;stroke-opacity:1"
             id="path5614" />
        </g>
        <g
           id="g5616"
           transform="translate(292.4641,161.624)">
          <path
             d="M 0,0 C 1.987,-0.35 3.974,-0.699 4.888,-3.532 5.801,-6.364 5.641,-11.676 5.48,-16.989"
             style="fill:none;stroke:#000000;stroke-width:1.953;stroke-linecap:round;stroke-linejoin:round;stroke-miterlimit:6.9;stroke-dasharray:none;stroke-opacity:1"
             id="path5618" />
        </g>
      </g>
    </g>
  </g>
</svg>
