<?xml version="1.0" encoding="UTF-8" standalone="no"?>
<!-- Created with Inkscape (http://www.inkscape.org/) -->

<svg
   width="19.186737mm"
   height="26.573999mm"
   viewBox="0 0 19.186737 26.573999"
   version="1.1"
   id="svg84743"
   xmlns="http://www.w3.org/2000/svg"
   xmlns:svg="http://www.w3.org/2000/svg">
  <defs
     id="defs84740">
    <clipPath
       clipPathUnits="userSpaceOnUse"
       id="clipPath13756">
      <path
         d="M 0,0 H 54.3876 V -75.3279 H 0 Z"
         clip-rule="evenodd"
         id="path13754" />
    </clipPath>
    <clipPath
       clipPathUnits="userSpaceOnUse"
       id="clipPath13766">
      <path
         d="M 0,-75.32787 H 419.52756 V 75.32787 H 0 Z"
         id="path13764" />
    </clipPath>
  </defs>
  <g
     id="layer1">
    <g
       id="g13746"
       transform="matrix(0.35277777,0,0,-0.35277777,-98.091027,101.41268)">
      <g
         id="g13748"
         transform="translate(278.05331,287.46901)">
        <g
           id="g13750">
          <g
             id="g13752"
             clip-path="url(#clipPath13756)">
            <g
               id="g13758"
               transform="translate(0,-75.32787)">
              <g
                 id="g13760">
                <g
                   id="g13762" />
                <g
                   id="g13802">
                  <g
                     clip-path="url(#clipPath13766)"
                     id="g13800">
                    <g
                       transform="translate(0,68.19637)"
                       id="g13774">
                      <g
                         id="g13772">
                        <g
                           id="g13770">
                          <path
                             d="M 29.0025,-8.93303 C 26.2387,-6.40878 22.775,-4.545 18.9803,-4.26125 17.9422,-4.18471 16.8988,-4.3066 15.8588,-4.32928 14.8386,-4.54471 13.7954,-4.67029 12.7979,-4.97331 8.47424,-6.28519 4.779,-9.32563 2.53424,-13.2423 1.93046,-14.295 1.53078,-15.4524 1.02961,-16.5579 0.74615,-17.7196 0.35553,-18.8597 0.1829,-20.0417 c -0.53319,-3.6666 0.11056,-7.2831 1.78498,-10.5818 1.47232,-2.9032 2.21414,-3.3298 4.45493,-5.6803 0.97654,-0.7194 1.9029,-1.5129 2.92961,-2.1577 4.11818,-2.5861 9.04338,-3.8838 13.87278,-4.1312 1.1948,-0.0596 2.3924,0.0283 3.5886,0.0283 5.169,0.4836 10.0239,2.2762 14.3425,5.1449 2.81,1.8669 3.4364,2.6288 5.8881,4.9005 3.3097,3.6352 6.1379,7.8234 7.035,12.75 0.5514,3.0254 0.258,3.7749 -0.068,6.762 -0.3526,1.0704 -0.6015,2.1801 -1.0567,3.21082 -1.2909,2.92054 -3.4441,5.43515 -6.109,7.18498 -2.2402,1.47146 -3.0305,1.52532 -5.5395,2.30258 -0.9975,0.10205 -1.9896,0.29083 -2.9916,0.30671 -3.405,0.05386 -6.7485,-1.03436 -9.6554,-2.74961 -0.5956,-0.35178 -1.152,-0.76649 -1.728,-1.14888 -1.9627,-1.60809 -1.0395,-0.74778 -2.7714,-2.58094 -4.0366,-4.45716 2.2674,-10.16536 6.3039,-5.70816 v 0 c 0.6755,0.8354 0.2721,0.4042 1.2473,1.2555 2.2745,1.6027 4.4203,2.61382 7.2802,2.44261 0.4566,-0.10488 0.9255,-0.16441 1.3694,-0.31181 2.5478,-0.84529 4.3041,-2.8449 5.22,-5.3175 0.275,-1.5293 0.4612,-1.9245 0.2608,-3.528 -0.4201,-3.3585 -2.4826,-6.1725 -4.6176,-8.6686 -0.7008,-0.6673 -1.3666,-1.3731 -2.1008,-2.0033 -3.5566,-3.0487 -7.7732,-5.1381 -12.4396,-5.7404 -0.8662,-0.0284 -1.7325,-0.0964 -2.5988,-0.0681 -4.1782,0.1389 -8.2732,1.3306 -11.6453,3.8362 -0.4949,0.4561 -1.0394,0.864 -1.4856,1.3688 -1.70333,1.9276 -2.69631,4.4671 -2.47067,7.0464 0.05953,0.6704 0.24378,1.3243 0.36624,1.9859 0.23244,0.6149 0.40195,1.2569 0.69675,1.8451 0.80018,1.5968 2.11348,3.1394 3.64708,4.0768 1.1528,0.7035 1.8144,0.7965 3.0832,1.1506 0.4607,0.051 0.9173,0.153 1.3808,0.1587 2.1002,0.0284 3.9886,-1.0732 5.4952,-2.4449 4.3659,-4.1349 10.2135,2.0393 5.8479,6.17389 z"
                             style="fill:#000000;fill-opacity:1;fill-rule:nonzero;stroke:none"
                             id="path13768" />
                        </g>
                      </g>
                    </g>
                    <g
                       transform="translate(5.32839,32.36673)"
                       id="g13782">
                      <g
                         id="g13780">
                        <g
                           id="g13778">
                          <path
                             d="m 15.3297,-1.11365 c -0.4079,-0.39232 -0.8353,-0.76564 -1.2248,-1.17667 -1.08,-1.13839 -2.0631,-2.3828 -3.0008,-3.63741 -2.04518,-2.73912 -3.90272,-5.59957 -5.75545,-8.46907 -1.62878,-2.7734 -3.41007,-5.523 -4.53373,-8.5584 -0.53546,-1.4473 -1.1948,-3.7176 -0.54453,-5.2492 0.53773,-1.2659 1.67867,-2.1795 2.51858,-3.27 1.14066,-0.2925 2.25156,-0.7628 3.42368,-0.8782 1.21947,-0.119 4.72195,0.5468 5.89065,0.7515 3.5436,0.6202 7.083,1.239 10.6356,1.8082 5.7997,0.9488 11.6581,1.4414 17.5315,1.5384 1.5275,0.0283 0.8112,0 2.1472,0.068 6.0021,0.3674 5.4825,8.8551 -0.5199,8.4878 v 0 c -0.945,-0.0681 -0.3546,-0.0369 -1.7713,-0.0539 -6.2754,-0.1077 -12.5357,-0.631 -18.7328,-1.6441 -3.585,-0.5746 -7.1597,-1.1894 -10.7342,-1.8246 -4.56807,0.8226 -5.01906,-9.2407 -1.21043,-1.1914 1.02073,2.0967 1.83683,3.3675 3.04663,5.4059 2.5036,3.8849 4.9836,7.8577 8.1457,11.25157 4.6964,3.75506 -0.6143,10.3972 -5.3107,6.64186 z"
                             style="fill:#000000;fill-opacity:1;fill-rule:nonzero;stroke:none"
                             id="path13776" />
                        </g>
                      </g>
                    </g>
                    <g
                       transform="translate(19.47253,75.32787)"
                       id="g13790">
                      <g
                         id="g13788">
                        <g
                           id="g13786">
                          <path
                             d="m 0.00496,-4.67889 c 0.30444,-2.82387 0.4731,-5.65791 0.72453,-8.48551 0.45581,-2.5387 0.17575,-1.3192 0.81752,-3.6615 1.63927,-5.7855 9.82119,-3.4665 8.18078,2.319 v 0 c -0.40337,1.3402 -0.22393,0.6406 -0.52781,2.1016 C 8.9562,-9.71804 8.81815,-7.02201 8.50152,-4.34072 8.26341,1.6676 -0.23429,1.32943 0.00496,-4.67889 Z"
                             style="fill:#000000;fill-opacity:1;fill-rule:nonzero;stroke:none"
                             id="path13784" />
                        </g>
                      </g>
                    </g>
                    <g
                       transform="translate(29.56647,33.9519)"
                       id="g13798">
                      <g
                         id="g13796">
                        <g
                           id="g13794">
                          <path
                             d="m 1.15095,-7.17615 c 2.15093,-2.5441 4.11987,-5.23505 6.08853,-7.92085 2.01912,-2.7556 3.99292,-5.5432 5.79682,-8.445 0.612,-0.9907 1.1325,-2.0324 1.7541,-3.018 3.2723,-5.0446 10.4063,-0.4162 7.134,4.6281 v 0 c -0.6554,0.8904 -1.0018,1.9959 -1.6679,2.8823 -1.9199,3.0832 -4.0096,6.0525 -6.1583,8.9798 -2.0611,2.81116 -4.12413,5.62511 -6.37427,8.28911 C 3.90963,2.867 -2.6642,-2.5279 1.15095,-7.17615 Z"
                             style="fill:#000000;fill-opacity:1;fill-rule:nonzero;stroke:none"
                             id="path13792" />
                        </g>
                      </g>
                    </g>
                  </g>
                </g>
              </g>
            </g>
          </g>
        </g>
      </g>
    </g>
  </g>
</svg>
